<svg width="124" height="30" viewBox="0 0 124 30" fill="none" xmlns="http://www.w3.org/2000/svg">
<path d="M12.8349 0L22.4346 5.625L18.1386 8.14286L12.8349 4.98214V11.25L6.41745 15L12.8349 18.75V25.0179L21.3738 20.0357L12.8349 15L25.6698 7.5V12.4821L21.3738 15L25.6698 17.5179V22.5L12.8349 30L0 22.5V7.5L12.8349 0ZM124 16.875C124 18 123.735 18.75 123.257 19.2857C122.78 19.7679 121.985 20.0357 120.924 20.0357H114.082C113.711 20.0357 113.287 19.9821 112.968 19.7679C112.756 19.6071 112.544 19.4464 112.385 19.2321C112.226 18.9643 112.173 18.6964 112.12 18.4286V17.5179H119.651C119.916 17.5179 120.128 17.4643 120.34 17.3571C120.553 17.25 120.659 17.0893 120.659 16.875C120.659 16.7143 120.606 16.6071 120.5 16.5C120.394 16.3929 120.287 16.3393 120.128 16.3393C119.969 16.2857 119.81 16.2857 119.651 16.2857H114.453C113.552 16.2857 112.915 16.0179 112.544 15.4821C112.12 14.9464 111.961 14.1964 111.961 13.1786C111.961 12.1071 112.173 11.3036 112.597 10.8214C113.021 10.2857 113.711 10.0179 114.666 10.0179H121.879C122.197 10.0179 122.462 10.125 122.78 10.2321C123.045 10.3393 123.257 10.5 123.417 10.6607C123.629 10.875 123.788 11.1964 123.788 11.5179V12.5357H116.204C115.938 12.5357 115.673 12.5357 115.461 12.6429C115.302 12.75 115.249 12.9643 115.249 13.125C115.249 13.3393 115.355 13.5 115.514 13.6071C115.726 13.7143 115.991 13.7679 116.257 13.7679H121.454C121.825 13.7679 122.144 13.8214 122.515 13.9286C122.727 14.0357 122.992 14.1429 123.151 14.3036C123.364 14.4643 123.47 14.625 123.629 14.8393C123.788 15.1071 123.841 15.4286 123.947 15.75C123.947 16.125 124 16.5 124 16.875ZM111.43 10.0179L106.021 16.5536V20.0357H102.626V16.5536L97.2695 10.0179H101.406L104.376 13.7143L107.293 10.0179H111.43ZM96.633 15.8036C96.6861 16.1786 96.7391 16.5 96.7391 16.875C96.7391 18 96.4739 18.75 95.9966 19.2857C95.5192 19.7679 94.7237 20.0357 93.663 20.0357H86.8212C86.45 20.0357 86.0257 19.9821 85.7075 19.7679C85.4953 19.6071 85.2831 19.4464 85.124 19.2321C84.9649 18.9643 84.8589 18.6964 84.8589 18.4286V17.5179H92.3901C92.6553 17.5179 92.8674 17.4643 93.0796 17.3571C93.2917 17.25 93.3978 17.0893 93.3978 16.875C93.3978 16.7143 93.3447 16.6071 93.2387 16.5C93.1326 16.3929 93.0265 16.3393 92.8674 16.3393C92.7083 16.2857 92.5492 16.2857 92.3901 16.2857H87.1925C86.2908 16.2857 85.6544 16.0179 85.2831 15.4821C84.8589 14.9464 84.6997 14.1964 84.6997 13.1786C84.6997 12.1071 84.9119 11.3036 85.3362 10.8214C85.7605 10.2857 86.45 10.0179 87.4046 10.0179H94.6176C94.9358 10.0179 95.201 10.125 95.5193 10.2321C95.7844 10.3393 95.9966 10.5 96.1557 10.6607C96.3678 10.875 96.5269 11.1964 96.5269 11.5179V12.5357H88.9427C88.6775 12.5357 88.4123 12.5357 88.2002 12.6429C88.0411 12.75 87.988 12.9643 87.988 13.125C87.988 13.3393 88.0941 13.5 88.2532 13.6071C88.4654 13.7143 88.7305 13.7679 88.9957 13.7679H94.1933C94.5646 13.7679 94.8828 13.8214 95.2541 13.9286C95.4662 14.0357 95.7314 14.1429 95.8905 14.3036C96.1027 14.4643 96.2087 14.625 96.3678 14.8393C96.4739 15.1607 96.5269 15.4821 96.633 15.8036ZM78.8127 10.0179L84.1694 20.0357H80.3507L79.1309 17.7857H76.7442L77.911 15.5357L76.6912 13.2321L73.1908 19.9821H69.3191L74.7819 10.0179H78.8127ZM61.8939 17.1964H68.2583V19.9821H58.4996V10.0179H61.8939V17.1964ZM52.0821 10.0179L57.4388 20.0357H53.6202L52.4003 17.7857H50.0137L51.1805 15.5357L49.9607 13.2321L46.4072 20.0357H42.5355L47.9453 10.0179H52.0821ZM38.7169 17.1429C38.6108 17.25 38.4517 17.3036 38.3456 17.25H33.2541V16.125H38.3456C38.5047 16.125 38.6108 16.1786 38.7169 16.2857C38.8229 16.3929 38.876 16.5536 38.876 16.6607C38.929 16.875 38.876 17.0357 38.7169 17.1429ZM33.201 12.6429H38.0804C38.2395 12.6429 38.3456 12.6964 38.4517 12.8036C38.5577 12.9107 38.6108 13.0714 38.6108 13.1786C38.6108 13.3393 38.5577 13.5 38.4517 13.6071C38.3456 13.7143 38.1865 13.7679 38.0804 13.7679H33.2541L33.201 12.6429ZM42.1642 16.125C42.1112 15.9107 42.0051 15.6964 41.8991 15.4821C41.793 15.3214 41.6339 15.1607 41.5278 15.0536C41.3687 14.9464 41.2096 14.8929 41.0505 14.8393C41.3157 14.625 41.5278 14.3571 41.6869 14.0893C41.8991 13.6607 42.0051 13.1786 41.9521 12.6429C41.9521 12.1607 41.8991 11.6786 41.6869 11.25C41.5278 10.9286 41.2626 10.6607 40.9444 10.4464C40.6262 10.2321 40.2549 10.125 39.8306 10.0714C39.4063 10.0179 38.982 9.96429 38.5577 9.96429H29.9127V19.9821H38.4517C38.982 19.9821 39.5124 19.9821 39.9897 19.875C40.361 19.8214 40.7853 19.7143 41.1035 19.5C41.4748 19.2857 41.7399 18.9643 41.9521 18.5893C42.1642 18.1071 42.2703 17.5714 42.2173 17.0357C42.2703 16.7679 42.2173 16.4464 42.1642 16.125Z" fill="white"/>
</svg>
