<svg width="178" height="200" viewBox="0 0 178 200" fill="none" xmlns="http://www.w3.org/2000/svg">
<g opacity="0.8" clip-path="url(#clip0)">
<path d="M63.8429 198.355L4.38476 122.826L1.4983 39.718L64.3191 27.9671L114.869 89.6592L92.268 92.1416L63.7037 57.0726L63.6085 95.307L31.623 98.891L63.4986 138.8L63.4107 173.465L108.546 172.444L65.1103 118.221L132.971 112.507L131.667 141.26L107.264 142.656L130.319 171.159L129.074 198.619L63.8722 198.348L63.8429 198.355ZM64.3265 26.4468L0.494629 38.4695L3.48365 122.929L63.5939 199.31L63.8356 199.625L129.836 199.993H130.122L131.448 171.159L109.47 143.985L132.759 142.619L134.224 110.884L63.0371 116.987L106.393 171.085L64.4217 172.099L64.5316 138.712L33.6083 100.022L64.3777 96.6216H64.6415L64.7587 59.9001L92.1874 93.6105L117.133 90.9078L64.3265 26.4468Z" fill="white"/>
<path d="M43.6163 12.8593L0.683105 38.3639L1.5309 39.7982L44.4641 14.2936L43.6163 12.8593Z" fill="white"/>
<path d="M63.7329 26.6672L107.447 0.807892L108.312 2.26206L64.5974 28.1214L63.7329 26.6672Z" fill="white"/>
<path d="M159.229 63.5607L115.977 89.6758L116.846 91.1228L160.098 65.0077L159.229 63.5607Z" fill="white"/>
<path d="M64.1289 95.9606L84.3854 83.5194" stroke="white" stroke-miterlimit="10"/>
<path d="M64.0552 139.035L75.557 131.992" stroke="white" stroke-miterlimit="10"/>
<path d="M64.2314 172.121L93.3012 154.363" stroke="white" stroke-miterlimit="10"/>
<path d="M64.0332 117.303L106.927 91.1648" stroke="white" stroke-miterlimit="10"/>
<path d="M130.906 171.196L173.778 145.116L157.609 126.395" stroke="white" stroke-miterlimit="10"/>
<path d="M132.7 112.03L174.657 86.2368L116.729 90.5039" stroke="white" stroke-miterlimit="10"/>
<path d="M43.96 13.7412L107.447 0.807892L160.107 65.0118" stroke="white" stroke-miterlimit="10"/>
<path d="M176.246 85.943L175.008 116.077L132.136 142.127" stroke="white" stroke-miterlimit="10"/>
<path d="M173.778 145.116L172.4 173.326L129.594 199.368" stroke="white" stroke-miterlimit="10"/>
</g>
<defs>
<clipPath id="clip0">
<rect width="177.114" height="200" fill="white" transform="translate(0.494629)"/>
</clipPath>
</defs>
</svg>
