<svg width="151" height="150" viewBox="0 0 151 150" fill="none" xmlns="http://www.w3.org/2000/svg">
<g clip-path="url(#clip0)">
<path d="M13.2164 24.8625C14.2942 24.8349 15.3639 24.6677 16.3988 24.3652L36.796 44.7524L45.5774 35.971L25.1504 15.6136C25.4529 14.5788 25.62 13.5091 25.6476 12.4312C25.6476 9.97257 24.9185 7.56912 23.5526 5.52482C22.1866 3.48051 20.2451 1.88717 17.9736 0.946277C15.7021 0.0053863 13.2026 -0.240794 10.7912 0.238868C8.37976 0.71853 6.16472 1.90249 4.42619 3.64103C2.68765 5.37957 1.50369 7.5946 1.02402 10.006C0.544363 12.4174 0.790543 14.917 1.73143 17.1885C2.67232 19.46 4.26567 21.4015 6.30997 22.7674C8.35428 24.1334 10.7577 24.8625 13.2164 24.8625V24.8625Z" fill="white"/>
<path d="M13.215 87.0185C15.3889 87.0139 17.5231 86.437 19.4033 85.3459C21.2835 84.2548 22.8433 82.688 23.9258 80.8029H38.0775V68.3716H23.9258C22.8315 66.4884 21.2609 64.9263 19.3718 63.8423C17.4827 62.7582 15.3416 62.1904 13.1635 62.1958C10.9855 62.2013 8.84724 62.7798 6.96356 63.8733C5.07989 64.9667 3.51713 66.5366 2.43229 68.4253C1.34744 70.314 0.778711 72.4548 0.78323 74.6329C0.787748 76.8109 1.36536 78.9494 2.45803 80.8336C3.5507 82.7177 5.11995 84.2811 7.00815 85.3668C8.89635 86.4524 11.037 87.0221 13.215 87.0185V87.0185Z" fill="white"/>
<path d="M36.7951 104.796L16.3979 125.223C15.3627 124.926 14.2924 124.769 13.2155 124.756C10.5647 124.708 7.9662 125.496 5.78862 127.008C3.61104 128.521 1.96502 130.68 1.08415 133.181C0.203272 135.682 0.132275 138.396 0.881232 140.939C1.63019 143.482 3.16106 145.725 5.25661 147.349C7.35216 148.973 9.90595 149.896 12.5556 149.987C15.2052 150.078 17.8162 149.332 20.0179 147.855C22.2196 146.378 23.9002 144.245 24.8214 141.759C25.7425 139.273 25.8573 136.56 25.1495 134.005L45.5367 113.608L36.7951 104.796Z" fill="white"/>
<path d="M137.528 62.5698C135.355 62.5745 133.22 63.1513 131.34 64.2424C129.46 65.3335 127.9 66.9004 126.818 68.7855H112.666V81.2167H126.818C127.912 83.0999 129.483 84.662 131.372 85.746C133.261 86.8301 135.402 87.3979 137.58 87.3925C139.758 87.387 141.896 86.8085 143.78 85.7151C145.664 84.6216 147.226 83.0517 148.311 81.163C149.396 79.2744 149.965 77.1335 149.96 74.9554C149.956 72.7774 149.378 70.6389 148.286 68.7547C147.193 66.8706 145.624 65.3072 143.735 64.2215C141.847 63.1359 139.707 62.5662 137.528 62.5698Z" fill="white"/>
<path d="M113.949 45.206L134.346 24.779C137.033 25.531 139.893 25.3714 142.48 24.3252C145.066 23.279 147.233 21.4051 148.642 18.9965C150.05 16.588 150.621 13.7806 150.264 11.0133C149.908 8.24604 148.644 5.67493 146.671 3.702C144.698 1.72908 142.127 0.465578 139.36 0.109075C136.593 -0.247428 133.785 0.323165 131.377 1.73163C128.968 3.1401 127.094 5.30703 126.048 7.89358C125.002 10.4801 124.842 13.3405 125.594 16.0274L105.207 36.4245L113.949 45.206Z" fill="white"/>
<path d="M137.527 124.726C136.45 124.739 135.38 124.896 134.345 125.194L113.947 104.796L105.166 113.578L125.593 133.975C124.932 136.483 125.074 139.136 125.998 141.559C126.922 143.983 128.583 146.056 130.746 147.488C132.909 148.919 135.466 149.637 138.059 149.54C140.651 149.443 143.147 148.536 145.198 146.947C147.248 145.358 148.749 143.167 149.489 140.681C150.23 138.195 150.173 135.539 149.327 133.088C148.48 130.636 146.887 128.51 144.771 127.011C142.654 125.511 140.121 124.712 137.527 124.726V124.726Z" fill="white"/>
<path d="M94.0183 31.4918C94.0183 27.8038 92.9247 24.1987 90.8758 21.1322C88.8268 18.0657 85.9146 15.6757 82.5073 14.2644C79.1 12.853 75.3508 12.4838 71.7336 13.2033C68.1165 13.9228 64.794 15.6987 62.1862 18.3065C59.5783 20.9143 57.8024 24.2369 57.0829 27.854C56.3634 31.4711 56.7327 35.2204 58.144 38.6277C59.5554 42.0349 61.9454 44.9472 65.0118 46.9961C68.0783 49.0451 71.6835 50.1387 75.3715 50.1387C80.3153 50.1334 85.0551 48.1671 88.551 44.6713C92.0468 41.1755 94.013 36.4357 94.0183 31.4918V31.4918ZM75.3715 37.7074C74.1421 37.7074 72.9404 37.3429 71.9183 36.6599C70.8961 35.9769 70.0994 35.0062 69.629 33.8704C69.1585 32.7347 69.0355 31.4849 69.2753 30.2792C69.5151 29.0735 70.1071 27.966 70.9764 27.0967C71.8456 26.2275 72.9531 25.6355 74.1589 25.3956C75.3646 25.1558 76.6143 25.2789 77.7501 25.7493C78.8858 26.2198 79.8566 27.0165 80.5396 28.0386C81.2225 29.0608 81.5871 30.2625 81.5871 31.4918C81.5871 33.1403 80.9322 34.7213 79.7666 35.8869C78.6009 37.0526 77.02 37.7074 75.3715 37.7074V37.7074Z" fill="#29AAE1"/>
<path d="M106.451 81.2168C106.451 72.9743 103.177 65.0695 97.3485 59.2412C91.5203 53.413 83.6154 50.1387 75.373 50.1387C67.1306 50.1387 59.2258 53.413 53.3975 59.2412C47.5692 65.0695 44.2949 72.9743 44.2949 81.2168V99.8636C44.2949 101.512 44.9498 103.093 46.1154 104.259C47.2811 105.424 48.8621 106.079 50.5105 106.079H56.7262V130.942C56.7262 132.59 57.381 134.171 58.5467 135.337C59.7123 136.502 61.2933 137.157 62.9418 137.157H87.8042C89.4527 137.157 91.0337 136.502 92.1993 135.337C93.365 134.171 94.0199 132.59 94.0199 130.942V106.079H100.235C101.884 106.079 103.465 105.424 104.631 104.259C105.796 103.093 106.451 101.512 106.451 99.8636V81.2168ZM94.0199 93.648H87.8042C86.1558 93.648 84.5748 94.3028 83.4091 95.4685C82.2435 96.6342 81.5886 98.2151 81.5886 99.8636V124.726H69.1574V99.8636C69.1574 98.2151 68.5025 96.6342 67.3369 95.4685C66.1712 94.3028 64.5903 93.648 62.9418 93.648H56.7262V81.2168C56.7262 76.2713 58.6907 71.5284 62.1877 68.0314C65.6847 64.5345 70.4276 62.5699 75.373 62.5699C80.3185 62.5699 85.0614 64.5345 88.5583 68.0314C92.0553 71.5284 94.0199 76.2713 94.0199 81.2168V93.648Z" fill="#29AAE1"/>
</g>
<defs>
<clipPath id="clip0">
<rect width="150" height="150" fill="white" transform="translate(0.367188)"/>
</clipPath>
</defs>
</svg>
