<svg width="100" height="100" viewBox="0 0 100 100" fill="none" xmlns="http://www.w3.org/2000/svg">
<path d="M97.0324 99.9805H64.9551L49.9805 94.1234L36.8411 99.9805H2.92854C1.30808 99.9805 0 98.6724 0 97.0519V89.5548C0 74.6583 12.1437 62.5537 27.0597 62.5537H37.2511L50 66.8879L63.198 62.5537H72.9403C87.8563 62.5537 100 74.6583 100 89.5548V97.0519C100 97.8329 99.6876 98.5748 99.141 99.1214C98.5553 99.6681 97.8134 99.9805 97.0324 99.9805Z" fill="#64D2F3"/>
<path d="M72.9012 62.5341H63.1589L49.9805 66.8684V94.1234L64.9551 99.9805H97.0324C97.8133 99.9805 98.5552 99.6681 99.1019 99.1214C99.6486 98.5748 99.9609 97.8329 99.9609 97.0519V89.5353C99.9609 74.6583 87.8172 62.5341 72.9012 62.5341Z" fill="#43B4DE"/>
<path d="M53.3973 98.8481C52.8506 98.1258 52.6554 97.2082 52.8701 96.3296L60.6601 65.6775C60.8943 64.7599 61.5581 64.018 62.4367 63.6666C63.3153 63.3151 64.311 63.4323 65.0919 63.9399L79.1489 73.116C80.008 73.6822 80.5156 74.6388 80.4765 75.6541C80.4375 76.6693 79.8908 77.6064 78.9927 78.1141L73.2918 81.355L77.8994 85.6502C78.9537 86.6264 79.1294 88.2078 78.3289 89.3987L72.179 98.6529C71.6323 99.4729 70.7147 99.961 69.7385 99.961H55.701C54.803 99.9805 53.9439 99.5705 53.3973 98.8481Z" fill="#113E6C"/>
<path d="M44.26 99.9805H30.2225C29.2463 99.9805 28.3287 99.4924 27.7821 98.6724L21.6321 89.4182C20.8317 88.2273 21.0269 86.6459 22.0616 85.6697L26.6692 81.3745L20.9683 78.1141C20.0702 77.6064 19.5236 76.6888 19.4845 75.6541C19.4455 74.6388 19.9531 73.6627 20.8121 73.116L34.8691 63.9399C35.6696 63.4323 36.6458 63.3151 37.5243 63.6666C38.4029 64.018 39.0667 64.7599 39.301 65.6775L47.0909 96.3296C47.3057 97.2082 47.1104 98.1258 46.5638 98.8482C46.0171 99.5705 45.1581 99.9805 44.26 99.9805Z" fill="#113E6C"/>
<path d="M38.0322 62.7098H61.9487V99.9804H38.0322V62.7098Z" fill="#FFF4F4"/>
<path d="M49.9805 62.7098H61.9289V99.9804H49.9805V62.7098Z" fill="#F6EFEA"/>
<path d="M49.9803 67.7274C35.2399 67.7274 23.2329 55.6813 23.2329 40.8824V31.7454C23.2329 30.5544 23.311 29.3244 23.4867 28.1335C23.682 26.6888 24.9315 25.5954 26.3957 25.5954H73.6038C75.0681 25.5954 76.3176 26.6692 76.5129 28.1335C76.6691 29.3244 76.7667 30.5544 76.7667 31.7454V40.8824C76.7276 55.6813 64.7206 67.7274 49.9803 67.7274Z" fill="#FFE4C1"/>
<path d="M76.7276 34.5763H23.2329V12.788C23.2329 12.007 23.5062 11.2456 24.0529 10.6794C24.9705 9.74227 26.3567 9.52751 27.4695 10.0937L36.8994 14.7989L47.696 1.13235C48.2427 0.429497 49.0822 0.0195007 49.9803 0.0195007C50.8784 0.0195007 51.7179 0.429497 52.2841 1.13235L63.0806 14.7989L72.5105 10.0937C73.6234 9.52751 75.0096 9.74227 75.9272 10.6794C76.4738 11.2456 76.7472 12.007 76.7472 12.788V34.5763H76.7276Z" fill="#E6E6E6"/>
<path d="M76.474 28.1335C76.2788 26.6888 75.0293 25.5954 73.565 25.5954H49.9805V67.7274C64.7208 67.7274 76.7278 55.6813 76.7278 40.8824V31.7454C76.7278 30.5544 76.6497 29.3244 76.474 28.1335Z" fill="#FDD1A3"/>
<path d="M75.9078 10.6794C74.9902 9.74227 73.6041 9.54703 72.4912 10.0937L63.0613 14.7989L52.2647 1.13235C51.7181 0.429497 50.8786 0.0195007 49.9805 0.0195007V34.5763H76.7278V12.788C76.7278 12.007 76.4545 11.2261 75.9078 10.6794Z" fill="#CCCCCC"/>
</svg>
