<svg width="151" height="150" viewBox="0 0 151 150" fill="none" xmlns="http://www.w3.org/2000/svg">
<g clip-path="url(#clip0)">
<path d="M147.748 67.7701C140.343 57.2486 131.029 48.2119 120.288 41.1301L146.868 14.5401L137.398 5.08008L7.01758 135.46L16.4876 144.92L50.9376 110.46C58.7778 112.926 66.9486 114.181 75.1676 114.18C120.728 114.18 146.598 76.7701 147.678 75.1801L150.168 71.5101L147.748 67.7701ZM75.1676 100.77C70.7399 100.757 66.3246 100.302 61.9876 99.4101L74.7576 86.6501C78.1719 87.6024 81.778 87.6301 85.2065 86.7305C88.6351 85.8309 91.763 84.0363 94.2699 81.5303C96.7769 79.0244 98.5728 75.8973 99.4738 72.4691C100.375 69.0409 100.348 65.4348 99.3976 62.0201L110.568 50.8901C119.374 56.3719 127.196 63.295 133.708 71.3701C126.438 79.9701 105.708 100.78 75.1676 100.78V100.77Z" fill="white"/>
<path d="M25.718 97.8101L35.448 88.0801C28.4373 83.3967 22.1016 77.7743 16.618 71.3701C23.778 62.3701 44.428 40.5701 75.168 40.5701C77.6288 40.581 80.0866 40.7413 82.528 41.0501L94.018 29.5101C87.8576 27.9371 81.526 27.1343 75.168 27.1201C29.568 27.1201 3.66797 66.1101 2.56797 67.7701L0.167969 71.5101L2.65797 75.1801C9.05439 83.9346 16.8447 91.5796 25.718 97.8101V97.8101Z" fill="#29AAE1"/>
</g>
<defs>
<clipPath id="clip0">
<rect width="150" height="150" fill="white" transform="translate(0.167969)"/>
</clipPath>
</defs>
</svg>
