<svg width="50" height="42" viewBox="0 0 50 42" fill="none" xmlns="http://www.w3.org/2000/svg">
<g clip-path="url(#clip0)">
<path d="M14.8125 13.093L14.8321 13.1224L14.8614 13.093H14.8125Z" fill="#E5E5E5"/>
<path d="M0 13.0735L25.2053 41.0714L14.8318 13.1225L0 13.0735Z" fill="#E5E5E5"/>
<path d="M14.8617 13.0931L25.2058 0H8.75098L14.8128 13.0931H14.8617Z" fill="#64D2F3"/>
<path d="M38.5909 13.1128L35.2276 13.1226L28.9507 30.6127L25.2061 41.0617V41.0715L49.9323 13.1226L38.5909 13.1128Z" fill="#64D2F3"/>
<path d="M25.2055 41.0617V13.1226H14.832L25.2055 41.0715V41.0617Z" fill="#64D2F3"/>
<path d="M35.2266 13.1127L41.2884 0.0391716L41.2591 0H25.2051L35.207 13.1127H35.2266Z" fill="#00AEEF"/>
<path d="M25.2055 0L14.8613 13.0931L25.2055 13.1029V0Z" fill="#00AEEF"/>
<path d="M8.75049 0L0 13.0735L14.8123 13.0931L8.75049 0Z" fill="#00AEEF"/>
<path d="M35.2266 13.1226H25.2051V41.0617L28.9497 30.6127L35.2266 13.1226Z" fill="#00AEEF"/>
<path d="M35.207 13.1127L25.2051 0V13.1029L35.207 13.1127Z" fill="#16497D"/>
<path d="M49.9802 13.0737L49.9997 13.0443L41.2884 0.0393066L35.2266 13.1128H38.5899L49.9802 13.0737Z" fill="#16497D"/>
</g>
<defs>
<clipPath id="clip0">
<rect width="50" height="41.0714" fill="white"/>
</clipPath>
</defs>
</svg>
