<svg width="151" height="150" viewBox="0 0 151 150" fill="none" xmlns="http://www.w3.org/2000/svg">
<g clip-path="url(#clip0)">
<path d="M13.5405 12.81H77.6105V38.44H103.23V57.66H116.04V29.38L86.6705 0H13.5405C10.1447 0.00528942 6.88947 1.35661 4.48827 3.7578C2.08708 6.159 0.735758 9.4142 0.730469 12.81V128.13C0.735758 131.526 2.08708 134.781 4.48827 137.182C6.88947 139.583 10.1447 140.935 13.5405 140.94H64.7905V128.13H13.5405V12.81Z" fill="white"/>
<path d="M77.6113 57.6599H26.3613V70.4699H77.6113V57.6599Z" fill="white"/>
<path d="M58.3913 83.28H26.3613V96.09H58.3913V83.28Z" fill="white"/>
<path d="M129.93 120.14C134.321 113.503 136.092 105.471 134.897 97.6023C133.703 89.7337 129.629 82.5891 123.465 77.5541C117.302 72.519 109.488 69.9523 101.539 70.3518C93.5906 70.7513 86.0735 74.0884 80.4458 79.7161C74.8182 85.3438 71.481 92.8609 71.0815 100.81C70.682 108.758 73.2487 116.572 78.2838 122.736C83.3189 128.899 90.4635 132.973 98.3321 134.168C106.201 135.362 114.232 133.592 120.87 129.2L141.67 150L150.73 140.94L129.93 120.14ZM103.23 121.72C99.4284 121.72 95.7124 120.593 92.5517 118.481C89.391 116.369 86.9275 113.367 85.4728 109.855C84.0181 106.343 83.6375 102.479 84.3791 98.7504C85.1207 95.0221 86.9512 91.5974 89.6392 88.9094C92.3271 86.2215 95.7518 84.3909 99.4801 83.6493C103.208 82.9077 107.073 83.2883 110.585 84.7431C114.097 86.1978 117.099 88.6612 119.211 91.822C121.323 94.9827 122.45 98.6987 122.45 102.5C122.444 107.596 120.418 112.481 116.815 116.085C113.211 119.688 108.326 121.715 103.23 121.72V121.72Z" fill="#29AAE1"/>
</g>
<defs>
<clipPath id="clip0">
<rect width="150" height="150" fill="white" transform="translate(0.730469)"/>
</clipPath>
</defs>
</svg>
