<svg width="150" height="150" viewBox="0 0 150 150" fill="none" xmlns="http://www.w3.org/2000/svg">
<path d="M87.5 0H12.5C9.18643 0.00528905 6.01007 1.32395 3.66701 3.66701C1.32395 6.01007 0.00529621 9.18642 7.16577e-06 12.5V31.25C-0.00123797 32.071 0.159796 32.8841 0.473851 33.6427C0.787907 34.4012 1.24879 35.0902 1.83001 35.67L31.25 65.09V118.75C31.2549 119.982 31.624 121.185 32.3108 122.209C32.9976 123.232 33.9714 124.029 35.11 124.5C35.8692 124.808 36.6806 124.968 37.5 124.97C38.321 124.971 39.1341 124.81 39.8927 124.496C40.6512 124.182 41.3402 123.721 41.92 123.14L66.92 98.14C67.5003 97.5595 67.9606 96.8704 68.2746 96.112C68.5886 95.3536 68.7502 94.5408 68.75 93.72V65.09L98.17 35.67C98.7512 35.0902 99.2121 34.4012 99.5262 33.6427C99.8402 32.8841 100.001 32.071 100 31.25V12.5C99.9947 9.18642 98.6761 6.01007 96.333 3.66701C93.9899 1.32395 90.8136 0.00528905 87.5 0V0ZM58.08 58.08C57.4997 58.6605 57.0394 59.3496 56.7254 60.108C56.4114 60.8664 56.2499 61.6792 56.25 62.5V91.16L43.75 103.66V62.5C43.7502 61.6792 43.5886 60.8664 43.2746 60.108C42.9606 59.3496 42.5003 58.6605 41.92 58.08L12.5 28.66V12.5H87.5V28.66L58.08 58.08Z" fill="white"/>
<path d="M143.75 150H81.25C79.5924 150 78.0027 149.342 76.8306 148.169C75.6585 146.997 75 145.408 75 143.75V68.75C75 67.0924 75.6585 65.5027 76.8306 64.3306C78.0027 63.1585 79.5924 62.5 81.25 62.5H143.75C145.408 62.5 146.997 63.1585 148.169 64.3306C149.342 65.5027 150 67.0924 150 68.75V143.75C150 145.408 149.342 146.997 148.169 148.169C146.997 149.342 145.408 150 143.75 150ZM87.5 137.5H137.5V75H87.5V137.5Z" fill="#29AAE1"/>
<path d="M131.25 100H93.75V112.5H131.25V100Z" fill="white"/>
<path d="M131.25 81.25H106.25V93.75H131.25V81.25Z" fill="white"/>
<path d="M131.25 118.75H93.75V131.25H131.25V118.75Z" fill="white"/>
</svg>
