<svg width="34" height="50" viewBox="0 0 34 50" fill="none" xmlns="http://www.w3.org/2000/svg">
<g clip-path="url(#clip0)">
<path d="M32.4542 0H22.9134L17.0406 2.65625L16.9443 2.61719V26.2402H23.4621L33.7154 7.56836C33.8309 7.35352 33.8983 7.10937 33.8983 6.85547V1.46484C33.8983 0.654297 33.2533 0 32.4542 0Z" fill="#16497D"/>
<path d="M10.9849 0H1.44412C0.64504 0 0 0.654297 0 1.46484V6.85547C0 7.10937 0.0673922 7.35352 0.182922 7.56836L10.4362 26.2305H16.9443V2.61719L10.9849 0Z" fill="#64D2F3"/>
<path d="M10.9854 0V27.2363H16.9544L18.3792 14.3652L16.9447 0H10.9854Z" fill="#00AEEF"/>
<path d="M16.9443 0H22.9134V27.2363H16.9443V0Z" fill="#00AEEF"/>
<path d="M4.1875 37.0508C4.1875 44.1895 9.90621 50 16.9439 50L18.3688 37.6953L16.9439 24.1016C9.90621 24.1016 4.1875 29.9121 4.1875 37.0508Z" fill="#FFD74A"/>
<path d="M16.9443 24.1016V50C23.982 50 29.7104 44.1895 29.7104 37.0508C29.7104 29.9121 23.9916 24.1016 16.9443 24.1016Z" fill="#FDBF00"/>
</g>
<defs>
<clipPath id="clip0">
<rect width="33.8983" height="50" fill="white"/>
</clipPath>
</defs>
</svg>
