<svg width="150" height="151" viewBox="0 0 150 151" fill="none" xmlns="http://www.w3.org/2000/svg">
<g clip-path="url(#clip0)">
<path d="M135 150.21H15C11.0218 150.21 7.20644 148.63 4.3934 145.817C1.58035 143.004 0 139.188 0 135.21V15.21C0 11.2317 1.58035 7.4164 4.3934 4.60336C7.20644 1.79031 11.0218 0.209961 15 0.209961H135C138.978 0.209961 142.794 1.79031 145.607 4.60336C148.42 7.4164 150 11.2317 150 15.21V135.21C150 139.188 148.42 143.004 145.607 145.817C142.794 148.63 138.978 150.21 135 150.21ZM15 15.21V135.21H135V15.21H15Z" fill="white"/>
<path d="M97.4997 60.2099C97.5198 56.2116 96.4741 52.2802 94.4703 48.8202C92.4664 45.3603 89.5767 42.4968 86.0987 40.5245C82.6206 38.5522 78.6798 37.5424 74.6819 37.5989C70.6839 37.6555 66.7733 38.7763 63.3524 40.8462C59.9315 42.916 57.1239 45.86 55.2187 49.3752C53.3134 52.8905 52.3793 56.8499 52.5125 60.846C52.6456 64.8421 53.8413 68.7306 55.9763 72.1112C58.1113 75.4918 61.1086 78.2424 64.6597 80.0799L59.9997 112.71H89.9997L85.3397 80.0799C88.9932 78.2008 92.0599 75.3534 94.2045 71.8491C96.349 68.3448 97.489 64.3183 97.4997 60.2099V60.2099Z" fill="#29AAE1"/>
</g>
<defs>
<clipPath id="clip0">
<rect width="150" height="150" fill="white" transform="translate(0 0.209961)"/>
</clipPath>
</defs>
</svg>
