<svg width="150" height="150" viewBox="0 0 150 150" fill="none" xmlns="http://www.w3.org/2000/svg">
<path d="M137.5 9.375H118.75V21.875H137.5V84.375H93.75V96.875H137.5V103.125H12.5V96.875H56.25V84.375H12.5V21.875H31.25V9.375H12.5C9.18479 9.375 6.00537 10.692 3.66117 13.0362C1.31696 15.3804 0 18.5598 0 21.875V103.125C0 106.44 1.31696 109.62 3.66117 111.964C6.00537 114.308 9.18479 115.625 12.5 115.625H68.75V128.125H43.75V140.625H106.25V128.125H81.25V115.625H137.5C140.815 115.625 143.995 114.308 146.339 111.964C148.683 109.62 150 106.44 150 103.125V21.875C150 18.5598 148.683 15.3804 146.339 13.0362C143.995 10.692 140.815 9.375 137.5 9.375Z" fill="white"/>
<path d="M74.9883 84.375C74.9883 84.375 106.238 71.875 106.238 53.125V15.625H43.7383V53.125C43.7383 71.875 74.9883 84.375 74.9883 84.375ZM56.2383 40.625H68.7383V28.125H81.2383V40.625H93.7383V53.125H81.2383V65.625H68.7383V53.125H56.2383V40.625Z" fill="#29AAE1"/>
</svg>
