<svg width="645" height="556" viewBox="0 0 645 556" fill="none" xmlns="http://www.w3.org/2000/svg">
<path d="M192.15 414.281C204.131 414.281 213.844 409.84 213.844 404.361C213.844 398.882 204.131 394.44 192.15 394.44C180.169 394.44 170.457 398.882 170.457 404.361C170.457 409.84 180.169 414.281 192.15 414.281Z" stroke="white" stroke-miterlimit="22.9256" stroke-linecap="round" stroke-linejoin="round"/>
<path d="M213.844 404.361V445.405C213.844 450.949 204.116 455.326 192.15 455.326C180.185 455.326 170.457 450.852 170.457 445.405V404.361" stroke="white" stroke-miterlimit="22.9256" stroke-linecap="round" stroke-linejoin="round"/>
<path d="M213.844 431.789C213.844 437.332 204.116 441.709 192.15 441.709C180.185 441.709 170.457 437.235 170.457 431.789" stroke="white" stroke-miterlimit="22.9256" stroke-linecap="round" stroke-linejoin="round"/>
<path d="M213.844 418.269C213.844 423.813 204.116 428.19 192.15 428.19C180.185 428.19 170.457 423.716 170.457 418.269" stroke="white" stroke-miterlimit="22.9256" stroke-linecap="round" stroke-linejoin="round"/>
<path d="M276.006 457.174C287.987 457.174 297.699 452.732 297.699 447.253C297.699 441.774 287.987 437.333 276.006 437.333C264.025 437.333 254.312 441.774 254.312 447.253C254.312 452.732 264.025 457.174 276.006 457.174Z" stroke="white" stroke-miterlimit="22.9256" stroke-linecap="round" stroke-linejoin="round"/>
<path d="M297.699 447.253V488.298C297.699 493.842 287.971 498.219 276.006 498.219C264.041 498.219 254.312 493.745 254.312 488.298V447.253" stroke="white" stroke-miterlimit="22.9256" stroke-linecap="round" stroke-linejoin="round"/>
<path d="M297.699 474.681C297.699 480.225 287.971 484.602 276.006 484.602C264.041 484.602 254.312 480.128 254.312 474.681" stroke="white" stroke-miterlimit="22.9256" stroke-linecap="round" stroke-linejoin="round"/>
<path d="M297.699 461.162C297.699 466.706 287.971 471.082 276.006 471.082C264.041 471.082 254.312 466.608 254.312 461.162" stroke="white" stroke-miterlimit="22.9256" stroke-linecap="round" stroke-linejoin="round"/>
<path d="M210.439 288.425C210.439 288.133 210.537 287.938 210.634 287.646C210.731 287.257 210.829 286.966 210.926 286.577C211.023 286.285 211.12 285.993 211.218 285.798C211.51 285.02 211.704 284.242 212.093 283.464C212.19 283.172 212.385 282.783 212.58 282.492C212.677 282.297 212.774 282.103 212.871 281.908C212.969 281.616 213.163 281.324 213.358 281.033C213.844 280.157 214.331 279.379 214.914 278.601C215.109 278.309 215.303 278.115 215.498 277.823C215.887 277.337 216.276 276.85 216.665 276.461C216.957 276.17 217.249 275.878 217.541 275.586C217.93 275.197 218.416 274.808 218.806 274.516C219.389 274.03 220.07 273.641 220.654 273.349C220.848 273.252 221.043 273.154 221.238 273.057C221.432 272.96 221.627 272.863 221.821 272.863C222.405 272.668 222.989 272.571 223.475 272.474" stroke="white" stroke-miterlimit="22.9256" stroke-linecap="round" stroke-linejoin="round"/>
<path d="M213.163 300.679L209.175 298.929" stroke="white" stroke-miterlimit="22.9256" stroke-linecap="round" stroke-linejoin="round"/>
<path d="M221.432 270.723C220.362 270.528 219.195 270.626 218.125 270.917C216.86 271.306 215.887 271.89 214.817 272.668L214.525 272.863C213.552 273.641 212.58 274.516 211.801 275.586C209.758 278.017 208.105 281.13 207.132 284.242C206.548 286.09 206.159 288.035 206.062 289.883C206.062 290.467 205.965 291.148 206.062 291.829C206.159 293.19 206.354 294.649 206.84 295.914C207.229 296.983 207.813 297.956 208.688 298.637C208.786 298.734 209.077 299.026 209.175 299.026" stroke="white" stroke-miterlimit="22.9256" stroke-linecap="round" stroke-linejoin="round"/>
<path d="M221.432 270.723H221.626L223.28 271.501L225.517 272.473" stroke="white" stroke-miterlimit="22.9256" stroke-linecap="round" stroke-linejoin="round"/>
<path d="M214.233 295.33C214.428 295.33 214.72 295.233 215.012 295.135C216.665 294.649 217.93 293.579 219 292.315C220.459 290.661 221.529 288.813 222.308 286.674C222.891 285.02 223.28 283.367 223.378 281.519C223.378 280.157 223.28 278.99 222.794 277.725C222.697 277.434 222.502 277.142 222.308 276.85" stroke="white" stroke-miterlimit="22.9256" stroke-linecap="round" stroke-linejoin="round"/>
<path d="M230.576 285.895C230.382 285.798 230.187 285.798 229.895 285.798C230.382 283.658 230.576 281.421 230.285 279.379C229.895 275.878 228.339 273.64 226.296 272.668C226.004 272.571 225.712 272.473 225.518 272.376C225.323 272.376 225.129 272.279 225.031 272.279C224.934 272.279 224.837 272.279 224.74 272.279C224.545 272.279 224.35 272.279 224.253 272.279C224.059 272.279 223.767 272.279 223.572 272.279" stroke="white" stroke-miterlimit="22.9256" stroke-linecap="round" stroke-linejoin="round"/>
<path d="M209.953 293.482V293.579C209.953 293.871 209.953 294.163 210.05 294.455C210.05 294.746 210.148 294.941 210.148 295.233C210.148 295.427 210.148 295.524 210.245 295.719C210.245 295.913 210.342 296.108 210.342 296.205C210.44 296.497 210.537 296.789 210.634 297.081C210.731 297.275 210.731 297.372 210.829 297.567C210.829 297.567 210.829 297.664 210.926 297.664C211.412 298.929 212.191 299.901 213.163 300.582C213.455 300.777 213.747 300.971 214.136 301.166C214.914 301.457 215.693 301.652 216.665 301.555C218.222 301.457 219.973 300.777 221.821 299.512C223.475 298.345 224.934 296.692 226.199 294.844C226.393 295.038 226.491 295.135 226.783 295.233L235.343 298.929C235.635 299.026 235.927 299.123 236.316 299.026C237.678 298.831 239.137 297.47 240.11 295.427C241.18 292.898 240.888 290.272 239.429 289.591L230.868 285.896" stroke="white" stroke-miterlimit="22.9256" stroke-linecap="round" stroke-linejoin="round"/>
<path d="M223.378 272.376C222.794 272.474 222.308 272.571 221.724 272.766C221.529 272.863 221.335 272.96 221.14 272.96C220.946 273.057 220.751 273.155 220.557 273.252C219.973 273.544 219.292 273.933 218.708 274.419C218.222 274.711 217.833 275.1 217.444 275.489C217.152 275.781 216.86 276.072 216.568 276.364C216.179 276.753 215.79 277.24 215.401 277.726C215.206 277.92 215.012 278.212 214.817 278.504C214.233 279.282 213.747 280.06 213.261 280.936C213.066 281.227 212.969 281.519 212.774 281.811C212.677 282.005 212.58 282.2 212.482 282.394C212.288 282.686 212.191 283.075 211.996 283.367C211.704 284.145 211.315 284.923 211.12 285.701C211.023 285.993 210.926 286.285 210.829 286.479C210.731 286.868 210.634 287.16 210.537 287.549C210.44 287.841 210.44 288.036 210.342 288.327C210.342 288.522 210.245 288.716 210.245 288.911C210.148 289.786 209.953 290.564 209.953 291.343C209.953 291.634 209.953 291.926 209.953 292.218C209.953 292.51 209.953 292.801 209.953 293.093C209.953 293.19 209.953 293.288 209.953 293.385" stroke="white" stroke-miterlimit="22.9256" stroke-linecap="round" stroke-linejoin="round"/>
<path d="M223.961 276.948C228.144 278.309 227.852 284.34 226.004 289.106C224.156 293.871 219.583 298.054 216.276 296.984C212.968 295.914 211.898 290.953 214.525 284.534C217.054 278.115 222.113 276.267 223.961 276.948Z" stroke="white" stroke-miterlimit="22.9256" stroke-linecap="round" stroke-linejoin="round"/>
<path d="M178.629 335.985C178.629 337.153 179.018 338.125 179.796 338.514C180.477 338.903 181.353 338.903 182.326 338.222" stroke="white" stroke-miterlimit="22.9256" stroke-linecap="round" stroke-linejoin="round"/>
<path d="M258.204 189.217C258.204 188.05 257.815 187.077 257.134 186.688C256.453 186.299 255.383 186.299 254.312 186.98" stroke="white" stroke-miterlimit="22.9256" stroke-linecap="round" stroke-linejoin="round"/>
<path d="M178.629 311.378V335.985" stroke="white" stroke-miterlimit="22.9256" stroke-linecap="round" stroke-linejoin="round"/>
<path d="M182.521 338.222L254.41 296.691" stroke="white" stroke-miterlimit="22.9256" stroke-linecap="round" stroke-linejoin="round"/>
<path d="M254.41 296.692C256.55 295.525 258.301 292.412 258.301 289.883" stroke="white" stroke-miterlimit="22.9256" stroke-linecap="round" stroke-linejoin="round"/>
<path d="M98.373 265.082V289.592" stroke="white" stroke-miterlimit="22.9256" stroke-linecap="round" stroke-linejoin="round"/>
<path d="M98.373 289.591C98.4703 290.661 98.7622 291.439 99.5404 292.12" stroke="white" stroke-miterlimit="22.9256" stroke-linecap="round" stroke-linejoin="round"/>
<path d="M99.54 292.12L179.796 338.514" stroke="white" stroke-miterlimit="22.9256" stroke-linecap="round" stroke-linejoin="round"/>
<path d="M257.134 186.785L223.475 167.333" stroke="white" stroke-miterlimit="22.9256" stroke-linecap="round" stroke-linejoin="round"/>
<path d="M136.02 162.665L102.361 182.117" stroke="white" stroke-miterlimit="22.9256" stroke-linecap="round" stroke-linejoin="round"/>
<path d="M102.361 182.117C100.999 182.895 100.221 183.673 99.54 185.035" stroke="white" stroke-miterlimit="22.9256" stroke-linecap="round" stroke-linejoin="round"/>
<path d="M99.54 185.035L178.24 230.553" stroke="white" stroke-miterlimit="22.9256" stroke-linecap="round" stroke-linejoin="round"/>
<path d="M178.629 230.748L254.41 186.98" stroke="white" stroke-miterlimit="22.9256" stroke-linecap="round" stroke-linejoin="round"/>
<path d="M258.204 213.727V189.217" stroke="white" stroke-miterlimit="22.9256" stroke-linecap="round" stroke-linejoin="round"/>
<path d="M99.5404 185.035C98.8594 186.396 98.4703 187.272 98.373 188.925" stroke="white" stroke-miterlimit="22.9256" stroke-linecap="round" stroke-linejoin="round"/>
<path d="M98.373 188.925V213.533" stroke="white" stroke-miterlimit="22.9256" stroke-linecap="round" stroke-linejoin="round"/>
<path d="M258.204 213.727V289.883" stroke="white" stroke-miterlimit="22.9256" stroke-linecap="round" stroke-linejoin="round"/>
<path d="M178.629 311.378V230.553" stroke="white" stroke-miterlimit="22.9256" stroke-linecap="round" stroke-linejoin="round"/>
<path d="M98.373 213.533V265.082" stroke="white" stroke-miterlimit="10"/>
<path d="M423.871 290.662C423.871 291.051 423.968 291.245 424.26 291.342C424.455 291.44 424.747 291.44 424.941 291.245" stroke="white" stroke-miterlimit="22.9256" stroke-linecap="round" stroke-linejoin="round"/>
<path d="M446.537 248.741C446.537 248.352 446.44 248.158 446.245 248.06C446.05 247.963 445.759 247.963 445.467 248.158" stroke="white" stroke-miterlimit="22.9256" stroke-linecap="round" stroke-linejoin="round"/>
<path d="M423.871 283.659V290.662" stroke="white" stroke-miterlimit="22.9256" stroke-linecap="round" stroke-linejoin="round"/>
<path d="M424.941 291.342L445.467 279.379" stroke="white" stroke-miterlimit="22.9256" stroke-linecap="round" stroke-linejoin="round"/>
<path d="M445.467 279.379C446.05 278.99 446.537 278.212 446.537 277.434" stroke="white" stroke-miterlimit="22.9256" stroke-linecap="round" stroke-linejoin="round"/>
<path d="M400.913 270.431V277.434" stroke="white" stroke-miterlimit="22.9256" stroke-linecap="round" stroke-linejoin="round"/>
<path d="M400.913 277.434C400.913 277.725 401.01 277.92 401.302 278.114" stroke="white" stroke-miterlimit="22.9256" stroke-linecap="round" stroke-linejoin="round"/>
<path d="M401.302 278.114L424.163 291.342" stroke="white" stroke-miterlimit="22.9256" stroke-linecap="round" stroke-linejoin="round"/>
<path d="M446.246 248.061L423.385 234.833" stroke="white" stroke-miterlimit="22.9256" stroke-linecap="round" stroke-linejoin="round"/>
<path d="M423.385 234.833C423.093 234.639 422.898 234.736 422.606 234.93" stroke="white" stroke-miterlimit="22.9256" stroke-linecap="round" stroke-linejoin="round"/>
<path d="M422.509 234.833L402.08 246.699" stroke="white" stroke-miterlimit="22.9256" stroke-linecap="round" stroke-linejoin="round"/>
<path d="M402.08 246.699C401.691 246.894 401.496 247.186 401.302 247.575" stroke="white" stroke-miterlimit="22.9256" stroke-linecap="round" stroke-linejoin="round"/>
<path d="M401.302 247.574L423.773 260.51" stroke="white" stroke-miterlimit="22.9256" stroke-linecap="round" stroke-linejoin="round"/>
<path d="M423.871 260.607L445.467 248.061" stroke="white" stroke-miterlimit="22.9256" stroke-linecap="round" stroke-linejoin="round"/>
<path d="M446.537 255.745V248.742" stroke="white" stroke-miterlimit="22.9256" stroke-linecap="round" stroke-linejoin="round"/>
<path d="M401.302 247.574C401.108 247.963 401.01 248.255 400.913 248.644" stroke="white" stroke-miterlimit="22.9256" stroke-linecap="round" stroke-linejoin="round"/>
<path d="M400.913 248.645V255.647" stroke="white" stroke-miterlimit="22.9256" stroke-linecap="round" stroke-linejoin="round"/>
<path d="M446.537 255.744V277.434" stroke="white" stroke-miterlimit="22.9256" stroke-linecap="round" stroke-linejoin="round"/>
<path d="M423.871 283.659V260.51" stroke="white" stroke-miterlimit="22.9256" stroke-linecap="round" stroke-linejoin="round"/>
<path d="M400.913 255.647V270.431" stroke="white" stroke-miterlimit="10"/>
<path d="M133.782 75.6152L128.043 82.3263L110.824 102.654L145.359 183.381L179.698 203.223H179.796V203.126L145.359 122.593L179.796 142.434L170.651 153.425L187.87 193.691L187.967 193.788L188.259 193.497L214.33 162.47L197.014 122.204L172.402 108.003L162.577 102.362L162.48 102.168L156.838 88.9401L133.782 75.6152Z" stroke="#0FA596" stroke-miterlimit="10" stroke-linejoin="bevel"/>
<path d="M187.87 193.691L188.259 193.497L205.381 183.284L213.844 178.324L240.207 147.005L222.988 106.739L188.454 86.8002L182.714 73.3781L159.756 60.0532L133.88 75.4206" stroke="#0FA596" stroke-miterlimit="10" stroke-linejoin="bevel"/>
<path d="M205.38 183.284L207.326 187.369L179.796 203.126L179.698 203.223L179.504 203.32" stroke="#0FA596" stroke-miterlimit="10" stroke-linejoin="bevel"/>
<path d="M156.838 88.8427L182.714 73.378L182.812 73.2808" stroke="#0FA596" stroke-miterlimit="10" stroke-linejoin="bevel"/>
<path d="M162.479 102.168L188.453 86.8003" stroke="#0FA596" stroke-miterlimit="10" stroke-linejoin="bevel"/>
<path d="M197.015 122.106L222.988 106.739H223.086" stroke="#0FA596" stroke-miterlimit="10" stroke-linejoin="bevel"/>
<path d="M498.193 312.546C498.291 312.157 498.388 311.865 498.583 311.476C498.68 310.99 498.874 310.503 499.166 310.017C499.263 309.628 499.458 309.239 499.653 308.947C500.139 307.877 500.625 306.807 501.306 305.737C501.501 305.348 501.793 304.862 502.085 304.376C502.182 304.181 502.376 303.889 502.571 303.598C502.766 303.209 503.057 302.82 503.349 302.43C504.127 301.263 505.003 300.193 505.976 299.221C506.268 298.929 506.559 298.637 506.851 298.248C507.435 297.665 508.116 297.081 508.7 296.497C509.089 296.108 509.575 295.719 510.062 295.428C510.743 294.941 511.423 294.552 512.104 294.066C512.98 293.58 513.953 293.093 514.828 292.802C515.12 292.704 515.412 292.607 515.704 292.51C515.996 292.412 516.288 292.315 516.579 292.315C517.358 292.121 518.233 292.023 519.011 292.023" stroke="white" stroke-miterlimit="22.9256" stroke-linecap="round" stroke-linejoin="round"/>
<path d="M500.042 330.247L494.789 327.232L494.691 327.135" stroke="white" stroke-miterlimit="22.9256" stroke-linecap="round" stroke-linejoin="round"/>
<path d="M516.676 289.203C515.217 288.716 513.563 288.716 512.007 289.008C510.256 289.3 508.602 290.078 507.046 290.953L506.657 291.148C505.197 292.023 503.738 293.19 502.376 294.455C499.069 297.567 496.248 301.652 494.399 305.932C493.232 308.461 492.356 311.087 491.967 313.713C491.87 314.588 491.676 315.463 491.676 316.436C491.578 318.381 491.676 320.424 492.162 322.369C492.551 323.925 493.232 325.384 494.302 326.551C494.399 326.649 494.788 327.135 494.886 327.232" stroke="white" stroke-miterlimit="22.9256" stroke-linecap="round" stroke-linejoin="round"/>
<path d="M516.677 289.203L516.969 289.3L519.206 290.662L522.222 292.315" stroke="white" stroke-miterlimit="22.9256" stroke-linecap="round" stroke-linejoin="round"/>
<path d="M502.474 322.953C502.765 322.953 503.155 322.953 503.544 322.856C505.878 322.369 507.921 321.105 509.672 319.549C512.007 317.409 513.855 314.977 515.315 312.157C516.482 309.92 517.26 307.683 517.649 305.057C517.844 303.209 517.844 301.458 517.455 299.61C517.357 299.221 517.163 298.735 516.968 298.346" stroke="white" stroke-miterlimit="22.9256" stroke-linecap="round" stroke-linejoin="round"/>
<path d="M527.183 312.254C526.891 312.157 526.599 312.059 526.307 311.962C527.28 308.947 527.961 305.932 527.961 303.014C527.961 298.054 526.21 294.552 523.389 292.899C523.097 292.704 522.708 292.51 522.319 292.412C522.124 292.315 521.832 292.315 521.638 292.218C521.54 292.218 521.346 292.121 521.249 292.121C521.054 292.121 520.762 292.023 520.568 292.023C520.276 292.023 519.984 292.023 519.595 292.023" stroke="white" stroke-miterlimit="22.9256" stroke-linecap="round" stroke-linejoin="round"/>
<path d="M496.734 319.548C496.734 319.548 496.734 319.645 496.734 319.743C496.734 320.132 496.734 320.618 496.734 321.007C496.734 321.396 496.734 321.688 496.734 322.077C496.734 322.272 496.734 322.563 496.734 322.758C496.734 323.05 496.734 323.244 496.832 323.536C496.832 323.925 496.929 324.411 497.026 324.8C497.026 324.995 497.124 325.189 497.124 325.481C497.124 325.481 497.123 325.578 497.221 325.676C497.707 327.524 498.68 329.08 499.847 330.15C500.236 330.441 500.626 330.733 501.112 331.025C502.085 331.609 503.252 331.9 504.517 331.998C506.754 332.095 509.381 331.511 512.105 329.955C514.634 328.594 516.969 326.454 519.012 324.119C519.206 324.314 519.401 324.509 519.692 324.703L531.172 331.317C531.561 331.511 531.95 331.609 532.436 331.609C534.284 331.609 536.716 329.858 538.37 327.135C540.316 323.73 540.316 319.937 538.37 318.77L526.891 312.156" stroke="white" stroke-miterlimit="22.9256" stroke-linecap="round" stroke-linejoin="round"/>
<path d="M519.206 291.829C518.427 291.829 517.649 291.926 516.774 292.12C516.482 292.12 516.19 292.218 515.898 292.315C515.606 292.315 515.314 292.509 515.023 292.607C514.147 292.899 513.174 293.385 512.299 293.871C511.618 294.26 510.937 294.746 510.256 295.233C509.769 295.525 509.283 295.914 508.894 296.303C508.31 296.789 507.629 297.373 507.046 298.053C506.754 298.345 506.462 298.637 506.17 299.026C505.295 299.999 504.322 301.068 503.544 302.236C503.252 302.625 503.057 303.014 502.765 303.403C502.571 303.597 502.473 303.889 502.279 304.181C501.987 304.57 501.695 305.056 501.501 305.543C500.917 306.515 500.333 307.682 499.847 308.752C499.652 309.141 499.555 309.53 499.36 309.822C499.166 310.308 498.971 310.795 498.777 311.281C498.679 311.67 498.485 311.962 498.388 312.351C498.29 312.545 498.193 312.837 498.193 313.129C497.901 314.296 497.609 315.463 497.415 316.533C497.318 316.922 497.318 317.311 497.22 317.7C497.22 318.089 497.123 318.478 497.123 318.867C497.123 318.965 497.123 319.062 497.123 319.256" stroke="white" stroke-miterlimit="22.9256" stroke-linecap="round" stroke-linejoin="round"/>
<path d="M519.205 298.443C524.848 301.069 523.486 309.531 520.081 316.047C516.676 322.564 509.477 327.621 505.003 325.579C500.528 323.536 499.847 316.242 504.516 307.683C509.283 299.026 516.676 297.178 519.205 298.443Z" stroke="white" stroke-miterlimit="22.9256" stroke-linecap="round" stroke-linejoin="round"/>
<path d="M234.078 319.938L236.218 321.007" stroke="white" stroke-width="0.5" stroke-linecap="round" stroke-linejoin="round"/>
<path d="M240.596 323.439L344.491 379.365" stroke="white" stroke-width="0.5" stroke-linecap="round" stroke-linejoin="round" stroke-dasharray="5.16 5.16"/>
<path d="M346.631 380.532L348.771 381.699" stroke="white" stroke-width="0.5" stroke-linecap="round" stroke-linejoin="round"/>
<path d="M413.559 344.253L411.419 345.42" stroke="white" stroke-width="0.5" stroke-linecap="round" stroke-linejoin="round"/>
<path d="M407.236 347.852L300.325 409.71" stroke="white" stroke-width="0.5" stroke-linecap="round" stroke-linejoin="round" stroke-dasharray="4.98 4.98"/>
<path d="M298.283 410.975L296.143 412.142" stroke="white" stroke-width="0.5" stroke-linecap="round" stroke-linejoin="round"/>
<path d="M339.237 439.473L337.194 440.737" stroke="white" stroke-width="0.5" stroke-linecap="round" stroke-linejoin="round"/>
<path d="M332.622 443.363L307.427 458.05" stroke="white" stroke-width="0.5" stroke-linecap="round" stroke-linejoin="round" stroke-dasharray="5.45 5.45"/>
<path d="M305.092 459.411L302.952 460.676" stroke="white" stroke-width="0.5" stroke-linecap="round" stroke-linejoin="round"/>
<path d="M338.557 435.096C339.335 435.387 339.919 435.971 340.21 436.749" stroke="white" stroke-width="0.5" stroke-linecap="round" stroke-linejoin="round"/>
<path d="M340.308 437.333C340.308 437.43 340.308 437.43 340.308 437.333C340.308 438.208 339.919 438.986 339.335 439.472" stroke="white" stroke-width="0.5" stroke-linecap="round" stroke-linejoin="round"/>
<path d="M256.063 390.55L258.204 391.717" stroke="white" stroke-width="0.5" stroke-linecap="round" stroke-linejoin="round"/>
<path d="M262.289 393.954L334.374 432.762" stroke="white" stroke-width="0.5" stroke-linecap="round" stroke-linejoin="round" stroke-dasharray="4.81 4.81"/>
<path d="M336.417 433.929L338.557 435.096" stroke="white" stroke-width="0.5" stroke-linecap="round" stroke-linejoin="round"/>
<path d="M249.545 391.036L247.405 392.301" stroke="white" stroke-width="0.5" stroke-linecap="round" stroke-linejoin="round"/>
<path d="M243.611 394.538L222.404 406.987" stroke="white" stroke-width="0.5" stroke-linecap="round" stroke-linejoin="round" stroke-dasharray="4.59 4.59"/>
<path d="M220.556 408.154L218.416 409.419" stroke="white" stroke-width="0.5" stroke-linecap="round" stroke-linejoin="round"/>
<path d="M253.437 389.674C251.978 389.285 250.421 389.771 249.546 391.036" stroke="white" stroke-width="0.5" stroke-miterlimit="22.9256" stroke-linecap="round" stroke-linejoin="round"/>
<path d="M366.865 315.366L369.005 314.102" stroke="white" stroke-width="0.5" stroke-linecap="round" stroke-linejoin="round"/>
<path d="M373.577 311.378L398.675 296.594" stroke="white" stroke-width="0.5" stroke-linecap="round" stroke-linejoin="round" stroke-dasharray="5.45 5.45"/>
<path d="M400.913 295.33L403.053 294.065" stroke="white" stroke-width="0.5" stroke-linecap="round" stroke-linejoin="round"/>
<path d="M367.644 319.742C366.866 319.451 366.282 318.867 365.99 318.089" stroke="white" stroke-width="0.5" stroke-linecap="round" stroke-linejoin="round"/>
<path d="M365.893 317.408C365.893 316.533 366.282 315.755 366.865 315.269" stroke="white" stroke-width="0.5" stroke-linecap="round" stroke-linejoin="round"/>
<path d="M450.234 363.9L448.094 362.732" stroke="white" stroke-width="0.5" stroke-linecap="round" stroke-linejoin="round"/>
<path d="M444.008 360.592L371.826 321.979" stroke="white" stroke-width="0.5" stroke-linecap="round" stroke-linejoin="round" stroke-dasharray="4.81 4.81"/>
<path d="M369.784 320.91L367.644 319.743" stroke="white" stroke-width="0.5" stroke-linecap="round" stroke-linejoin="round"/>
<path d="M456.752 363.413L458.892 362.149" stroke="white" stroke-width="0.5" stroke-linecap="round" stroke-linejoin="round"/>
<path d="M462.686 359.912L483.795 347.365" stroke="white" stroke-width="0.5" stroke-linecap="round" stroke-linejoin="round" stroke-dasharray="4.59 4.59"/>
<path d="M485.741 346.198L487.881 344.934" stroke="white" stroke-width="0.5" stroke-linecap="round" stroke-linejoin="round"/>
<path d="M452.861 364.775C454.321 365.164 455.877 364.678 456.753 363.413" stroke="white" stroke-width="0.5" stroke-miterlimit="22.9256" stroke-linecap="round" stroke-linejoin="round"/>
<path d="M98.7608 291.05L17.2402 338.222" stroke="white" stroke-linecap="round" stroke-linejoin="round"/>
<path d="M11.3066 341.724L17.7271 333.457V338.028L21.7156 340.265L11.3066 341.724Z" fill="white"/>
<path d="M315.891 165.388L259.177 198.263" stroke="white" stroke-linecap="round" stroke-linejoin="round"/>
<path d="M321.825 161.984L311.514 163.443L315.405 165.68V170.251L321.825 161.984Z" fill="white"/>
<path d="M131.526 13.1796C131.526 13.9402 131.343 14.6533 130.976 15.3189C130.623 15.9844 130.059 16.521 129.285 16.9285C128.525 17.3359 127.56 17.5397 126.392 17.5397H124.008V23H121.156V8.77874H126.392C127.492 8.77874 128.429 8.9689 129.204 9.34922C129.978 9.72954 130.555 10.2525 130.935 10.918C131.329 11.5836 131.526 12.3374 131.526 13.1796ZM126.27 15.2374C127.058 15.2374 127.642 15.0608 128.022 14.7077C128.402 14.3409 128.592 13.8316 128.592 13.1796C128.592 11.7941 127.818 11.1014 126.27 11.1014H124.008V15.2374H126.27ZM136.404 13.4648C136.771 12.8672 137.246 12.3986 137.83 12.059C138.428 11.7194 139.107 11.5496 139.868 11.5496V14.5447H139.114C138.217 14.5447 137.538 14.7552 137.076 15.1763C136.628 15.5973 136.404 16.3308 136.404 17.3767V23H133.552V11.7126H136.404V13.4648ZM146.801 23.1834C145.714 23.1834 144.736 22.9457 143.867 22.4703C142.998 21.9813 142.312 21.2954 141.809 20.4125C141.32 19.5296 141.076 18.5109 141.076 17.3563C141.076 16.2018 141.327 15.1831 141.83 14.3002C142.346 13.4173 143.045 12.7381 143.928 12.2627C144.811 11.7738 145.796 11.5293 146.882 11.5293C147.969 11.5293 148.954 11.7738 149.837 12.2627C150.72 12.7381 151.412 13.4173 151.915 14.3002C152.431 15.1831 152.689 16.2018 152.689 17.3563C152.689 18.5109 152.424 19.5296 151.894 20.4125C151.378 21.2954 150.672 21.9813 149.776 22.4703C148.893 22.9457 147.901 23.1834 146.801 23.1834ZM146.801 20.6977C147.317 20.6977 147.799 20.5755 148.247 20.331C148.709 20.0729 149.076 19.6926 149.348 19.19C149.619 18.6874 149.755 18.0762 149.755 17.3563C149.755 16.2833 149.47 15.4615 148.899 14.891C148.343 14.307 147.657 14.0149 146.842 14.0149C146.027 14.0149 145.341 14.307 144.784 14.891C144.24 15.4615 143.969 16.2833 143.969 17.3563C143.969 18.4294 144.234 19.2579 144.763 19.842C145.307 20.4125 145.986 20.6977 146.801 20.6977ZM161.016 23L158.693 19.4956L156.635 23H153.579L157.267 17.3359L153.539 11.7126H156.758L159.06 15.1966L161.138 11.7126H164.194L160.486 17.3359L164.235 23H161.016ZM176.277 17.1118C176.277 17.5193 176.25 17.8861 176.196 18.212H167.944C168.012 19.027 168.297 19.6654 168.8 20.1272C169.302 20.589 169.92 20.8199 170.654 20.8199C171.713 20.8199 172.467 20.3649 172.915 19.4549H175.992C175.666 20.5415 175.041 21.438 174.117 22.1443C173.194 22.837 172.06 23.1834 170.715 23.1834C169.628 23.1834 168.65 22.9457 167.781 22.4703C166.925 21.9813 166.253 21.2954 165.764 20.4125C165.289 19.5296 165.051 18.5109 165.051 17.3563C165.051 16.1882 165.289 15.1627 165.764 14.2798C166.239 13.3969 166.905 12.7178 167.761 12.2424C168.616 11.767 169.601 11.5293 170.715 11.5293C171.788 11.5293 172.746 11.7602 173.588 12.222C174.443 12.6838 175.102 13.3426 175.564 14.1983C176.039 15.0404 176.277 16.0116 176.277 17.1118ZM173.323 16.2969C173.309 15.5634 173.044 14.9793 172.528 14.5447C172.012 14.0964 171.38 13.8723 170.633 13.8723C169.927 13.8723 169.329 14.0896 168.84 14.5243C168.365 14.9454 168.073 15.5362 167.964 16.2969H173.323ZM177.626 17.3156C177.626 16.1746 177.85 15.1627 178.298 14.2798C178.76 13.3969 179.385 12.7178 180.172 12.2424C180.96 11.767 181.836 11.5293 182.801 11.5293C183.534 11.5293 184.234 11.6923 184.899 12.0183C185.565 12.3307 186.095 12.7517 186.488 13.2815V7.92302H189.382V23H186.488V21.3293C186.135 21.8862 185.639 22.3344 185.001 22.674C184.363 23.0136 183.622 23.1834 182.78 23.1834C181.829 23.1834 180.96 22.9389 180.172 22.4499C179.385 21.9609 178.76 21.275 178.298 20.3921C177.85 19.4956 177.626 18.4701 177.626 17.3156ZM186.509 17.3563C186.509 16.6636 186.373 16.0727 186.101 15.5838C185.83 15.0812 185.463 14.7009 185.001 14.4428C184.539 14.1711 184.043 14.0353 183.514 14.0353C182.984 14.0353 182.495 14.1643 182.047 14.4224C181.599 14.6805 181.232 15.0608 180.947 15.5634C180.675 16.0524 180.539 16.6364 180.539 17.3156C180.539 17.9947 180.675 18.5924 180.947 19.1085C181.232 19.6111 181.599 19.9982 182.047 20.2698C182.509 20.5415 182.998 20.6773 183.514 20.6773C184.043 20.6773 184.539 20.5483 185.001 20.2902C185.463 20.0186 185.83 19.6382 186.101 19.1493C186.373 18.6467 186.509 18.049 186.509 17.3563ZM197.18 23.1834C196.093 23.1834 195.115 22.9457 194.246 22.4703C193.376 21.9813 192.69 21.2954 192.188 20.4125C191.699 19.5296 191.454 18.5109 191.454 17.3563C191.454 16.2018 191.706 15.1831 192.208 14.3002C192.724 13.4173 193.424 12.7381 194.307 12.2627C195.19 11.7738 196.174 11.5293 197.261 11.5293C198.348 11.5293 199.332 11.7738 200.215 12.2627C201.098 12.7381 201.791 13.4173 202.293 14.3002C202.81 15.1831 203.068 16.2018 203.068 17.3563C203.068 18.5109 202.803 19.5296 202.273 20.4125C201.757 21.2954 201.051 21.9813 200.154 22.4703C199.271 22.9457 198.28 23.1834 197.18 23.1834ZM197.18 20.6977C197.696 20.6977 198.178 20.5755 198.626 20.331C199.088 20.0729 199.455 19.6926 199.726 19.19C199.998 18.6874 200.134 18.0762 200.134 17.3563C200.134 16.2833 199.849 15.4615 199.278 14.891C198.721 14.307 198.035 14.0149 197.22 14.0149C196.405 14.0149 195.719 14.307 195.162 14.891C194.619 15.4615 194.347 16.2833 194.347 17.3563C194.347 18.4294 194.612 19.2579 195.142 19.842C195.685 20.4125 196.365 20.6977 197.18 20.6977Z" fill="white"/>
<path d="M111.676 44.1784H106.012L105.075 46.8882H102.08L107.193 32.6465H110.514L115.628 46.8882H112.613L111.676 44.1784ZM110.902 41.8965L108.844 35.9472L106.786 41.8965H110.902ZM127.91 37.0678C127.91 37.8284 127.727 38.5415 127.36 39.2071C127.007 39.8726 126.444 40.4092 125.669 40.8166C124.909 41.2241 123.944 41.4279 122.776 41.4279H120.392V46.8882H117.54V32.6669H122.776C123.876 32.6669 124.814 32.8571 125.588 33.2374C126.362 33.6177 126.939 34.1407 127.32 34.8062C127.714 35.4718 127.91 36.2256 127.91 37.0678ZM122.654 39.1256C123.442 39.1256 124.026 38.949 124.406 38.5958C124.786 38.2291 124.977 37.7197 124.977 37.0678C124.977 35.6823 124.202 34.9896 122.654 34.9896H120.392V39.1256H122.654ZM132.788 32.6669V46.8882H129.936V32.6669H132.788ZM145.371 47.0308C144.38 47.0308 143.483 46.861 142.682 46.5214C141.894 46.1819 141.269 45.6929 140.807 45.0545C140.346 44.4161 140.108 43.6623 140.094 42.7929H143.15C143.191 43.377 143.395 43.8388 143.762 44.1784C144.142 44.518 144.658 44.6878 145.31 44.6878C145.976 44.6878 146.499 44.5316 146.879 44.2192C147.259 43.8932 147.449 43.4721 147.449 42.9559C147.449 42.5349 147.32 42.1885 147.062 41.9169C146.804 41.6452 146.478 41.4347 146.084 41.2853C145.704 41.1223 145.174 40.9457 144.495 40.7555C143.572 40.4839 142.818 40.219 142.234 39.9609C141.663 39.6893 141.167 39.2886 140.746 38.7588C140.339 38.2155 140.135 37.4956 140.135 36.5992C140.135 35.757 140.346 35.0235 140.767 34.3987C141.188 33.7739 141.779 33.2985 142.539 32.9725C143.3 32.633 144.169 32.4632 145.147 32.4632C146.614 32.4632 147.803 32.8231 148.713 33.543C149.636 34.2493 150.146 35.2409 150.241 36.5177H147.103C147.076 36.0287 146.865 35.628 146.471 35.3156C146.091 34.9896 145.582 34.8266 144.943 34.8266C144.387 34.8266 143.938 34.9692 143.599 35.2545C143.273 35.5397 143.11 35.954 143.11 36.4973C143.11 36.8776 143.232 37.1968 143.476 37.4549C143.735 37.6994 144.047 37.9031 144.414 38.0661C144.794 38.2155 145.324 38.3921 146.003 38.5958C146.927 38.8675 147.68 39.1392 148.264 39.4108C148.848 39.6825 149.351 40.09 149.772 40.6333C150.193 41.1766 150.404 41.8897 150.404 42.7726C150.404 43.5332 150.207 44.2395 149.813 44.8915C149.419 45.5435 148.842 46.0664 148.081 46.4603C147.32 46.8406 146.417 47.0308 145.371 47.0308ZM163.369 41C163.369 41.4075 163.342 41.7742 163.288 42.1002H155.036C155.104 42.9152 155.389 43.5536 155.892 44.0154C156.395 44.4772 157.013 44.7081 157.746 44.7081C158.806 44.7081 159.559 44.2531 160.008 43.3431H163.084C162.758 44.4297 162.133 45.3262 161.21 46.0325C160.286 46.7252 159.152 47.0716 157.807 47.0716C156.721 47.0716 155.743 46.8339 154.873 46.3585C154.018 45.8695 153.345 45.1835 152.856 44.3006C152.381 43.4178 152.143 42.399 152.143 41.2445C152.143 40.0764 152.381 39.0509 152.856 38.168C153.332 37.2851 153.997 36.606 154.853 36.1306C155.709 35.6552 156.693 35.4175 157.807 35.4175C158.88 35.4175 159.838 35.6484 160.68 36.1102C161.536 36.572 162.194 37.2308 162.656 38.0865C163.132 38.9286 163.369 39.8998 163.369 41ZM160.415 40.185C160.402 39.4516 160.137 38.8675 159.621 38.4328C159.104 37.9846 158.473 37.7605 157.726 37.7605C157.019 37.7605 156.422 37.9778 155.933 38.4125C155.457 38.8335 155.165 39.4244 155.057 40.185H160.415ZM164.718 41.2445C164.718 40.0764 164.956 39.0577 165.431 38.1884C165.906 37.3055 166.565 36.6263 167.407 36.1509C168.249 35.6619 169.214 35.4175 170.3 35.4175C171.7 35.4175 172.854 35.7706 173.764 36.4769C174.688 37.1696 175.306 38.1476 175.618 39.4108H172.542C172.379 38.9218 172.1 38.5415 171.706 38.2699C171.326 37.9846 170.851 37.842 170.28 37.842C169.465 37.842 168.82 38.1408 168.345 38.7385C167.869 39.3225 167.631 40.1579 167.631 41.2445C167.631 42.3175 167.869 43.1529 168.345 43.7505C168.82 44.3346 169.465 44.6266 170.28 44.6266C171.435 44.6266 172.189 44.1105 172.542 43.0782H175.618C175.306 44.3006 174.688 45.2718 173.764 45.9917C172.84 46.7116 171.686 47.0716 170.3 47.0716C169.214 47.0716 168.249 46.8339 167.407 46.3585C166.565 45.8695 165.906 45.1903 165.431 44.321C164.956 43.4381 164.718 42.4126 164.718 41.2445ZM188.364 35.6008V46.8882H185.491V45.462C185.124 45.951 184.642 46.3381 184.044 46.6233C183.46 46.895 182.822 47.0308 182.129 47.0308C181.246 47.0308 180.465 46.8474 179.786 46.4807C179.107 46.1004 178.57 45.5503 178.176 44.8304C177.796 44.0969 177.606 43.2276 177.606 42.2225V35.6008H180.458V41.815C180.458 42.7115 180.682 43.4042 181.131 43.8932C181.579 44.3686 182.19 44.6063 182.964 44.6063C183.752 44.6063 184.37 44.3686 184.818 43.8932C185.267 43.4042 185.491 42.7115 185.491 41.815V35.6008H188.364ZM194.03 37.353C194.397 36.7554 194.872 36.2868 195.457 35.9472C196.054 35.6076 196.733 35.4378 197.494 35.4378V38.4328H196.74C195.844 38.4328 195.165 38.6434 194.703 39.0645C194.254 39.4855 194.03 40.219 194.03 41.2649V46.8882H191.178V35.6008H194.03V37.353ZM200.862 34.2561C200.359 34.2561 199.938 34.0999 199.599 33.7875C199.273 33.4615 199.11 33.0608 199.11 32.5854C199.11 32.11 199.273 31.7161 199.599 31.4037C199.938 31.0777 200.359 30.9147 200.862 30.9147C201.364 30.9147 201.779 31.0777 202.105 31.4037C202.444 31.7161 202.614 32.11 202.614 32.5854C202.614 33.0608 202.444 33.4615 202.105 33.7875C201.779 34.0999 201.364 34.2561 200.862 34.2561ZM202.268 35.6008V46.8882H199.415V35.6008H202.268ZM208.407 37.9439V43.4042C208.407 43.7845 208.495 44.0629 208.672 44.2395C208.862 44.4025 209.174 44.484 209.609 44.484H210.933V46.8882H209.14C206.736 46.8882 205.534 45.7201 205.534 43.3838V37.9439H204.189V35.6008H205.534V32.8095H208.407V35.6008H210.933V37.9439H208.407ZM223.783 35.6008L216.795 52.2263H213.759L216.204 46.6029L211.681 35.6008H214.88L217.793 43.4857L220.747 35.6008H223.783Z" fill="white"/>
<path d="M549.363 292.996V298.345L553.74 295.622V299.026L549.363 301.75V307.391L554.324 304.278V307.683L546.639 312.546V290.954L554.324 286.479V289.884L549.363 292.996Z" fill="white"/>
<path d="M559.285 282.491V304.57L556.756 306.223V283.95L559.285 282.491Z" fill="white"/>
<path d="M561.717 290.37C562.106 288.813 562.69 287.549 563.371 286.382C564.052 285.312 564.83 284.534 565.608 283.95C566.289 283.561 566.97 283.367 567.457 283.561C568.04 283.756 568.429 284.048 568.721 284.631V282.297L571.153 280.838V296.886L568.721 298.442V296.108C568.429 297.081 567.943 297.956 567.457 298.831C566.873 299.707 566.289 300.29 565.511 300.777C564.733 301.263 563.955 301.457 563.274 301.166C562.593 300.874 562.009 300.193 561.62 299.22C561.231 298.15 561.036 296.789 561.036 295.135C561.133 293.482 561.328 291.926 561.717 290.37ZM568.429 288.133C568.235 287.549 567.846 287.16 567.457 287.063C567.068 286.965 566.678 286.965 566.192 287.257C565.706 287.549 565.316 287.938 564.927 288.619C564.538 289.202 564.246 289.98 563.955 290.856C563.76 291.731 563.565 292.607 563.565 293.676C563.565 294.746 563.663 295.427 563.955 296.011C564.149 296.594 564.538 296.983 564.927 297.081C565.316 297.275 565.706 297.178 566.192 296.886C566.678 296.594 567.068 296.108 567.457 295.524C567.846 294.941 568.138 294.163 568.429 293.287C568.624 292.412 568.819 291.537 568.819 290.564C568.721 289.494 568.624 288.716 568.429 288.133Z" fill="white"/>
<path d="M575.045 294.163C574.461 294.066 573.975 293.774 573.586 293.19C573.196 292.607 573.002 291.829 573.002 290.856L575.337 289.397C575.337 289.981 575.531 290.37 575.823 290.564C576.115 290.759 576.504 290.759 576.99 290.467C577.477 290.175 577.769 289.786 578.06 289.397C578.352 288.911 578.45 288.425 578.45 288.036C578.45 287.549 578.255 287.258 577.963 287.16C577.671 287.063 577.185 287.063 576.504 287.258C575.823 287.355 575.239 287.452 574.85 287.452C574.364 287.452 574.072 287.16 573.683 286.771C573.391 286.285 573.196 285.604 573.196 284.534C573.196 283.659 573.391 282.783 573.683 281.811C573.975 280.935 574.364 280.06 574.948 279.282C575.531 278.504 576.115 277.92 576.893 277.531C577.963 276.85 578.839 276.85 579.52 277.434C580.201 278.018 580.493 278.99 580.59 280.546L578.352 281.908C578.352 281.325 578.158 280.935 577.866 280.644C577.574 280.449 577.282 280.449 576.796 280.741C576.407 281.033 576.018 281.325 575.823 281.714C575.628 282.103 575.434 282.589 575.434 283.075C575.434 283.659 575.629 283.951 575.92 284.048C576.212 284.145 576.699 284.145 577.38 284.048C578.061 283.951 578.547 283.853 579.033 283.951C579.422 283.951 579.812 284.242 580.103 284.631C580.395 285.118 580.59 285.799 580.59 286.868C580.59 287.744 580.492 288.716 580.201 289.592C579.909 290.467 579.52 291.343 578.936 292.023C578.352 292.801 577.769 293.385 576.99 293.871C576.309 294.066 575.628 294.26 575.045 294.163Z" fill="white"/>
<path d="M585.064 275.878V283.367C585.064 283.853 585.162 284.242 585.259 284.34C585.356 284.437 585.648 284.437 585.94 284.242L587.01 283.562V286.868L585.648 287.744C583.8 288.911 582.827 287.938 582.827 284.729V277.24L581.757 277.92V274.711L582.827 274.03V270.139L585.064 268.778V272.571L587.01 271.404V274.614L585.064 275.878Z" fill="white"/>
<path d="M588.761 268C588.469 267.708 588.372 267.222 588.372 266.638C588.372 265.957 588.469 265.374 588.761 264.79C589.053 264.206 589.345 263.817 589.734 263.623C590.123 263.428 590.415 263.428 590.707 263.72C590.999 264.012 591.096 264.498 591.096 265.082C591.096 265.763 590.999 266.346 590.707 266.93C590.415 267.513 590.123 267.902 589.734 268.097C589.345 268.291 589.053 268.291 588.761 268ZM590.804 269.264V284.534L588.664 285.896V270.528L590.804 269.264Z" fill="white"/>
<path d="M592.847 271.501C593.236 270.139 593.722 268.875 594.306 267.902C594.89 266.93 595.668 266.151 596.446 265.665C597.516 265.082 598.294 264.984 598.975 265.568C599.656 266.054 600.046 267.124 600.337 268.68L598.1 270.042C598.003 269.458 597.808 269.069 597.516 268.875C597.224 268.68 596.933 268.68 596.446 268.972C595.862 269.361 595.376 270.042 594.987 271.015C594.598 271.987 594.501 273.252 594.501 274.71C594.501 276.169 594.695 277.142 594.987 277.726C595.376 278.309 595.765 278.406 596.446 278.017C597.322 277.531 597.808 276.461 598.1 274.905L600.337 273.543C600.143 275.294 599.656 276.85 598.975 278.212C598.294 279.574 597.516 280.643 596.446 281.227C595.668 281.713 594.89 281.908 594.306 281.616C593.722 281.324 593.236 280.741 592.847 279.768C592.458 278.795 592.36 277.531 592.36 275.975C592.36 274.419 592.555 272.862 592.847 271.501Z" fill="white"/>
<path d="M603.158 276.267C602.672 276.17 602.185 275.878 601.894 275.294C601.602 274.711 601.407 274.03 601.407 273.155L603.45 271.89C603.45 272.474 603.645 272.766 603.937 273.057C604.228 273.252 604.52 273.252 604.909 272.96C605.299 272.766 605.59 272.377 605.785 271.987C605.979 271.598 606.077 271.112 606.077 270.723C606.077 270.237 605.979 269.945 605.688 269.848C605.396 269.75 605.007 269.75 604.423 269.848C603.839 269.945 603.353 269.945 602.964 269.945C602.575 269.848 602.283 269.653 601.991 269.264C601.699 268.875 601.602 268.097 601.602 267.124C601.602 266.346 601.699 265.471 601.991 264.693C602.283 263.817 602.575 263.137 603.061 262.456C603.547 261.775 604.131 261.289 604.715 260.9C605.688 260.316 606.369 260.316 606.952 260.9C607.536 261.483 607.828 262.456 607.828 263.817L605.979 264.985C605.979 264.401 605.785 264.012 605.59 263.817C605.396 263.623 605.007 263.623 604.618 263.817C604.228 264.012 603.937 264.304 603.742 264.693C603.547 265.082 603.45 265.471 603.45 265.957C603.45 266.444 603.547 266.735 603.839 266.833C604.131 266.93 604.52 266.93 605.104 266.833C605.688 266.735 606.174 266.735 606.466 266.833C606.855 266.93 607.147 267.124 607.439 267.513C607.731 267.902 607.828 268.583 607.828 269.556C607.828 270.431 607.731 271.209 607.439 272.085C607.147 272.863 606.855 273.641 606.369 274.322C605.882 275.003 605.396 275.489 604.715 275.975C604.228 276.17 603.645 276.364 603.158 276.267Z" fill="white"/>
<path d="M616.486 262.067L611.038 265.471C611.038 266.443 611.233 267.221 611.622 267.513C611.914 267.902 612.4 267.902 612.887 267.611C613.568 267.124 614.054 266.249 614.346 264.887L616.389 263.623C616.194 265.082 615.805 266.541 615.124 267.805C614.54 269.069 613.762 270.042 612.887 270.528C612.206 271.015 611.525 271.112 610.941 270.82C610.357 270.528 609.871 269.945 609.579 269.069C609.287 268.097 609.093 266.93 609.093 265.471C609.093 264.012 609.287 262.553 609.579 261.191C609.871 259.83 610.357 258.76 610.941 257.787C611.525 256.814 612.206 256.134 612.887 255.647C613.568 255.258 614.249 255.161 614.832 255.356C615.416 255.647 615.805 256.134 616.097 257.009C616.389 257.884 616.583 259.052 616.583 260.413C616.583 261.191 616.583 261.678 616.486 262.067ZM614.638 260.802C614.638 259.927 614.443 259.246 614.151 258.857C613.762 258.468 613.373 258.468 612.887 258.76C612.4 259.052 612.011 259.538 611.719 260.316C611.427 261.094 611.233 261.969 611.136 262.942L614.638 260.802Z" fill="white"/>
<path d="M617.847 256.328C618.139 255.064 618.528 253.994 619.015 253.021C619.501 252.146 620.085 251.465 620.668 251.173C621.252 250.881 621.641 250.784 622.03 250.979C622.419 251.173 622.711 251.465 623.003 251.951V250.006L624.852 248.936V262.845L623.003 264.012V261.969C622.809 262.747 622.419 263.525 622.03 264.206C621.641 264.887 621.155 265.373 620.571 265.762C619.987 266.151 619.404 266.249 618.917 265.957C618.431 265.665 618.042 265.082 617.75 264.109C617.458 263.136 617.264 261.969 617.264 260.51C617.458 258.954 617.555 257.592 617.847 256.328ZM622.906 254.869C622.711 254.383 622.517 253.994 622.225 253.896C621.933 253.702 621.641 253.799 621.252 253.994C620.96 254.188 620.571 254.577 620.279 255.064C619.987 255.55 619.793 256.133 619.598 256.912C619.404 257.592 619.307 258.468 619.307 259.246C619.307 260.024 619.404 260.802 619.598 261.288C619.793 261.775 619.987 262.164 620.279 262.261C620.571 262.455 620.863 262.358 621.252 262.164C621.544 261.969 621.933 261.58 622.225 261.094C622.517 260.607 622.711 259.927 622.906 259.246C623.1 258.565 623.198 257.787 623.198 256.912C623.1 256.036 623.1 255.355 622.906 254.869Z" fill="white"/>
<path d="M629.327 246.699C629.716 246.115 630.105 245.629 630.591 245.337V248.936L630.105 249.228C629.521 249.52 629.132 250.103 628.84 250.784C628.549 251.465 628.451 252.438 628.451 253.702V260.51L626.7 261.58V247.769L628.451 246.699V248.839C628.646 248.061 628.938 247.283 629.327 246.699Z" fill="white"/>
<path d="M631.662 247.963C631.953 246.699 632.343 245.726 632.829 244.754C633.315 243.878 633.899 243.295 634.58 242.906C635.358 242.419 636.039 242.419 636.623 242.906C637.109 243.392 637.498 244.365 637.693 245.726L635.942 246.796C635.845 246.31 635.65 245.921 635.455 245.726C635.261 245.532 634.969 245.532 634.58 245.726C634.094 246.018 633.704 246.602 633.413 247.477C633.121 248.352 633.023 249.422 633.023 250.784C633.023 252.048 633.121 253.021 633.413 253.507C633.704 253.994 634.094 254.188 634.58 253.896C635.261 253.507 635.747 252.535 635.942 251.173L637.693 250.103C637.498 251.659 637.109 253.021 636.623 254.188C636.039 255.355 635.455 256.231 634.58 256.717C633.899 257.106 633.413 257.203 632.829 256.911C632.343 256.62 631.953 256.036 631.662 255.161C631.37 254.285 631.272 253.118 631.272 251.757C631.272 250.395 631.37 249.13 631.662 247.963Z" fill="white"/>
<path d="M643.724 238.043C644.113 238.237 644.405 238.724 644.6 239.405C644.794 240.085 644.891 241.058 644.891 242.225V249.909L643.335 250.881V243.781C643.335 242.711 643.238 242.031 642.946 241.642C642.654 241.252 642.362 241.155 641.876 241.447C641.389 241.739 641.097 242.225 640.806 242.906C640.514 243.587 640.416 244.559 640.416 245.532V252.827L638.763 253.897V236.098L640.416 235.125V241.252C640.611 240.572 640.903 239.891 641.292 239.405C641.681 238.918 641.973 238.529 642.459 238.237C642.946 237.946 643.335 237.848 643.724 238.043Z" fill="white"/>
<path d="M459.184 256.036C458.406 256.036 457.822 255.647 457.433 254.966C457.044 254.286 456.752 253.313 456.752 251.951L459.573 250.201C459.573 251.076 459.768 251.66 460.157 251.951C460.546 252.243 460.935 252.243 461.616 251.854C462.2 251.465 462.686 250.979 463.075 250.201C463.464 249.52 463.562 248.742 463.562 247.964C463.562 247.38 463.464 246.894 463.172 246.602C462.978 246.31 462.686 246.213 462.297 246.213C461.908 246.213 461.421 246.213 460.838 246.31C459.962 246.407 459.281 246.407 458.698 246.407C458.114 246.31 457.725 246.018 457.336 245.435C456.946 244.851 456.752 243.879 456.752 242.517C456.752 241.253 456.946 239.988 457.336 238.821C457.725 237.654 458.308 236.584 458.989 235.709C459.67 234.833 460.546 234.055 461.421 233.569C462.783 232.791 463.853 232.693 464.729 233.277C465.604 233.861 465.994 235.028 466.091 236.876L463.27 238.529C463.27 237.848 463.075 237.362 462.686 237.07C462.297 236.778 461.81 236.876 461.227 237.167C460.74 237.459 460.254 237.946 459.962 238.529C459.67 239.113 459.476 239.891 459.476 240.669C459.476 241.252 459.573 241.642 459.865 241.836C460.059 242.031 460.351 242.225 460.74 242.225C461.13 242.225 461.616 242.225 462.2 242.128C463.075 242.031 463.756 242.031 464.242 242.128C464.729 242.225 465.215 242.517 465.604 243.1C465.994 243.684 466.188 244.657 466.188 245.921C466.188 247.088 465.993 248.158 465.702 249.422C465.313 250.59 464.826 251.757 464.145 252.729C463.464 253.702 462.589 254.577 461.616 255.161C460.74 255.745 459.962 256.036 459.184 256.036Z" fill="white"/>
<path d="M470.955 228.316V249.13L468.426 250.687V229.775L470.955 228.316Z" fill="white"/>
<path d="M475.916 228.705V233.86L480.002 231.429V234.638L475.916 237.167V242.614L480.488 239.793V243.1L473.387 247.574V226.857L480.488 222.772V226.079L475.916 228.705Z" fill="white"/>
<path d="M495.177 214.213V233.763L492.94 235.222V222.383L489.924 237.07L488.173 238.14L485.06 227.052V240.085L482.726 241.544V221.411L485.352 219.855L489.049 232.499L492.648 215.672L495.177 214.213Z" fill="white"/>
<path d="M83.5862 496.953L87.8665 494.327V497.731L80.8623 502.108V480.613L83.5862 479.057V496.953Z" fill="white"/>
<path d="M91.4658 494.717C90.6876 494.522 90.1039 493.841 89.6175 492.869C89.1311 491.799 88.9365 490.437 88.9365 488.784C88.9365 487.033 89.1311 485.379 89.6175 483.823C90.1039 482.267 90.6876 480.905 91.4658 479.641C92.244 478.474 93.1196 477.598 94.0924 477.015C95.0652 476.431 95.9407 476.334 96.7189 476.529C97.4972 476.82 98.0808 477.404 98.5672 478.474C99.0536 479.446 99.2482 480.808 99.2482 482.462C99.2482 484.115 99.0536 485.768 98.5672 487.325C98.0808 488.881 97.4972 490.242 96.7189 491.41C95.9407 492.577 95.0652 493.452 94.0924 494.133C93.1196 494.717 92.244 494.911 91.4658 494.717ZM95.357 489.173C95.7461 488.589 96.0379 487.811 96.3298 486.936C96.5243 486.06 96.7189 485.088 96.7189 484.018C96.7189 482.462 96.4271 481.392 95.9407 480.808C95.4543 480.225 94.8706 480.225 94.0924 480.614C93.4114 481.003 92.7304 481.781 92.244 482.948C91.7576 484.115 91.4658 485.477 91.4658 487.033C91.4658 488.589 91.6604 489.659 92.1468 490.243C92.6332 490.826 93.2168 490.826 93.9951 490.437C94.5788 490.242 94.9679 489.756 95.357 489.173Z" fill="white"/>
<path d="M106.641 470.499C107.128 470.693 107.614 470.985 107.906 471.568V469.331L110.241 467.97V483.921C110.241 485.38 110.046 486.839 109.754 488.2C109.365 489.562 108.879 490.826 108.198 491.993C107.517 493.161 106.641 494.036 105.669 494.62C104.307 495.495 103.237 495.689 102.361 495.106C101.486 494.62 100.999 493.452 100.902 491.604L103.334 490.048C103.431 490.729 103.723 491.118 104.112 491.313C104.501 491.507 104.988 491.41 105.669 491.021C106.349 490.534 106.933 489.854 107.322 488.881C107.711 487.908 108.003 486.741 108.003 485.282V482.851C107.711 483.823 107.322 484.699 106.739 485.477C106.155 486.352 105.571 486.936 104.89 487.422C104.112 487.908 103.334 488.006 102.653 487.714C101.972 487.422 101.485 486.741 101.096 485.769C100.707 484.699 100.513 483.337 100.513 481.684C100.513 480.03 100.707 478.474 101.096 476.918C101.485 475.459 101.972 474.097 102.653 473.027C103.334 471.957 104.015 471.179 104.89 470.693C105.474 470.401 106.058 470.304 106.641 470.499ZM107.517 474.973C107.322 474.389 107.03 474 106.641 473.903C106.252 473.708 105.863 473.805 105.377 474.097C104.89 474.389 104.501 474.778 104.112 475.362C103.723 475.945 103.431 476.723 103.237 477.501C103.042 478.377 102.847 479.252 102.847 480.225C102.847 481.197 102.945 481.975 103.237 482.559C103.431 483.143 103.82 483.532 104.209 483.629C104.598 483.823 104.988 483.726 105.474 483.434C105.96 483.143 106.349 482.754 106.739 482.073C107.128 481.489 107.42 480.711 107.614 479.933C107.809 479.058 107.906 478.182 107.906 477.21C107.906 476.334 107.809 475.556 107.517 474.973Z" fill="white"/>
<path d="M113.938 481.003C113.354 480.905 112.868 480.516 112.576 479.933C112.187 479.349 112.089 478.571 111.992 477.598L114.327 476.139C114.327 476.723 114.521 477.112 114.813 477.307C115.105 477.501 115.494 477.501 115.883 477.209C116.272 476.918 116.662 476.626 116.856 476.139C117.051 475.653 117.245 475.264 117.245 474.778C117.245 474.291 117.051 474 116.759 473.902C116.467 473.805 115.981 473.805 115.3 473.902C114.619 474 114.035 474.097 113.646 474C113.257 474 112.868 473.708 112.576 473.319C112.284 472.833 112.089 472.152 112.089 471.082C112.089 470.207 112.187 469.331 112.479 468.456C112.77 467.58 113.16 466.705 113.743 466.024C114.327 465.246 114.911 464.76 115.592 464.274C116.662 463.69 117.537 463.593 118.121 464.176C118.704 464.76 119.094 465.732 119.191 467.289L117.051 468.553C117.051 467.969 116.856 467.58 116.564 467.289C116.272 467.094 115.981 467.094 115.494 467.386C115.105 467.58 114.813 467.969 114.521 468.359C114.327 468.748 114.23 469.234 114.23 469.623C114.23 470.109 114.424 470.498 114.716 470.596C115.008 470.693 115.494 470.693 116.078 470.596C116.759 470.498 117.245 470.498 117.634 470.498C118.024 470.596 118.413 470.79 118.704 471.276C118.996 471.763 119.191 472.444 119.191 473.513C119.191 474.389 119.094 475.264 118.802 476.139C118.51 477.015 118.121 477.793 117.634 478.571C117.148 479.349 116.467 479.933 115.786 480.322C115.202 480.905 114.619 481.1 113.938 481.003Z" fill="white"/>
<path d="M129.113 465.635L122.887 469.429C122.984 470.499 123.179 471.277 123.568 471.666C123.957 472.055 124.443 472.055 124.93 471.763C125.708 471.277 126.292 470.304 126.583 468.845L128.918 467.483C128.724 469.04 128.237 470.596 127.556 471.957C126.875 473.319 126 474.292 125.027 474.973C124.249 475.459 123.471 475.653 122.79 475.362C122.109 475.07 121.622 474.486 121.233 473.514C120.844 472.541 120.649 471.277 120.649 469.72C120.649 468.164 120.844 466.608 121.233 465.149C121.622 463.69 122.109 462.523 122.79 461.453C123.471 460.383 124.151 459.702 125.027 459.216C125.805 458.73 126.584 458.633 127.167 458.924C127.848 459.216 128.335 459.8 128.626 460.675C129.016 461.648 129.113 462.815 129.113 464.274C129.21 464.663 129.113 465.149 129.113 465.635ZM126.973 464.274C126.973 463.301 126.778 462.62 126.389 462.231C126 461.842 125.513 461.842 124.93 462.134C124.443 462.426 123.957 463.009 123.568 463.787C123.179 464.566 122.984 465.538 122.887 466.608L126.973 464.274Z" fill="white"/>
<path d="M133.783 454.645C134.172 453.964 134.658 453.477 135.242 453.088V457.076L134.658 457.368C133.977 457.757 133.491 458.34 133.199 459.021C132.907 459.799 132.713 460.869 132.713 462.231V469.72L130.67 470.985V455.909L132.713 454.742V457.076C133.005 456.103 133.394 455.325 133.783 454.645Z" fill="white"/>
<path d="M139.912 461.842L141.857 449.49L143.9 448.323L141.079 464.565L138.647 466.024L135.729 452.991L137.869 451.727L139.912 461.842Z" fill="white"/>
<path d="M151.974 451.727L146.527 455.034C146.527 456.006 146.721 456.784 147.11 457.076C147.402 457.465 147.889 457.465 148.375 457.173C149.056 456.784 149.542 455.812 149.834 454.547L151.877 453.283C151.683 454.742 151.293 456.201 150.612 457.368C150.029 458.632 149.25 459.508 148.375 460.091C147.694 460.578 147.013 460.675 146.429 460.383C145.846 460.091 145.359 459.508 145.067 458.632C144.776 457.66 144.581 456.493 144.581 455.034C144.581 453.575 144.776 452.116 145.067 450.851C145.359 449.49 145.846 448.42 146.429 447.447C147.013 446.475 147.694 445.794 148.375 445.405C149.056 445.016 149.737 444.918 150.321 445.21C150.904 445.502 151.293 446.086 151.585 446.961C151.877 447.836 152.072 449.003 152.072 450.365C152.072 450.851 152.072 451.338 151.974 451.727ZM150.126 450.462C150.126 449.587 149.931 448.906 149.64 448.517C149.25 448.128 148.861 448.128 148.375 448.42C147.889 448.712 147.499 449.198 147.208 449.976C146.916 450.754 146.721 451.63 146.624 452.602L150.126 450.462Z" fill="white"/>
<path d="M156.157 441.612C156.547 440.931 156.936 440.542 157.422 440.25V443.946L156.936 444.238C156.352 444.53 155.963 445.113 155.671 445.794C155.379 446.475 155.282 447.447 155.282 448.809V455.812L153.434 456.979V442.876L155.282 441.806V443.946C155.476 442.973 155.768 442.195 156.157 441.612Z" fill="white"/>
<path d="M196.917 550.35L192.151 543.834V553.365L189.427 555.116V533.621L192.151 532.065V541.694L196.917 529.342L200.03 527.494L194.68 541.11L200.128 548.308L196.917 550.35Z" fill="white"/>
<path d="M201.976 527.786C201.684 527.494 201.489 527.008 201.489 526.327C201.489 525.646 201.684 524.965 201.976 524.284C202.267 523.604 202.657 523.215 203.046 522.923C203.532 522.631 203.824 522.728 204.116 523.02C204.408 523.312 204.602 523.798 204.602 524.479C204.602 525.16 204.505 525.841 204.116 526.521C203.824 527.202 203.435 527.591 203.046 527.883C202.657 528.078 202.267 528.078 201.976 527.786ZM204.31 529.05V545.488L201.781 547.141V530.606L204.31 529.05Z" fill="white"/>
<path d="M210.536 525.841C211.12 525.062 211.704 524.382 212.385 523.993C213.163 523.506 213.941 523.409 214.622 523.701C215.303 523.993 215.79 524.673 216.179 525.646C216.568 526.619 216.762 527.98 216.762 529.634C216.762 531.287 216.568 532.843 216.179 534.302C215.79 535.761 215.303 537.123 214.622 538.193C213.941 539.263 213.26 540.138 212.385 540.624C211.704 541.111 211.023 541.208 210.536 541.111C209.953 541.013 209.564 540.624 209.272 540.041V542.375L206.84 543.931V522.047L209.272 520.588V528.467C209.564 527.591 209.953 526.619 210.536 525.841ZM213.941 528.856C213.747 528.272 213.358 527.98 213.066 527.786C212.677 527.688 212.288 527.689 211.801 527.98C211.412 528.272 210.926 528.661 210.536 529.342C210.147 529.925 209.856 530.704 209.564 531.579C209.369 532.454 209.175 533.33 209.175 534.4C209.175 535.372 209.272 536.15 209.564 536.734C209.758 537.317 210.147 537.706 210.536 537.804C210.926 537.901 211.315 537.901 211.801 537.609C212.288 537.317 212.677 536.831 213.066 536.248C213.455 535.664 213.747 534.886 213.941 534.011C214.136 533.135 214.33 532.26 214.33 531.287C214.33 530.12 214.136 529.342 213.941 528.856Z" fill="white"/>
<path d="M218.416 524.285C218.805 522.826 219.291 521.561 219.972 520.491C220.653 519.421 221.334 518.741 222.112 518.254C222.793 517.865 223.377 517.768 223.863 517.865C224.35 518.06 224.739 518.352 225.031 518.935V516.698L227.268 515.336V530.898L225.031 532.357V530.12C224.739 530.996 224.35 531.871 223.863 532.746C223.377 533.524 222.793 534.205 222.112 534.594C221.334 535.081 220.653 535.178 219.972 534.886C219.291 534.594 218.805 533.913 218.416 532.941C218.027 531.968 217.832 530.607 217.832 528.953C217.832 527.3 218.027 525.743 218.416 524.285ZM224.642 522.339C224.447 521.756 224.155 521.464 223.766 521.269C223.377 521.172 222.988 521.172 222.599 521.464C222.21 521.756 221.821 522.145 221.431 522.728C221.042 523.312 220.75 523.993 220.556 524.868C220.361 525.743 220.264 526.619 220.264 527.591C220.264 528.564 220.361 529.342 220.556 529.926C220.75 530.509 221.042 530.898 221.431 530.996C221.821 531.19 222.21 531.093 222.599 530.801C222.988 530.509 223.377 530.12 223.766 529.537C224.155 528.953 224.447 528.272 224.642 527.397C224.836 526.619 224.933 525.646 224.933 524.771C224.933 523.895 224.836 522.826 224.642 522.339Z" fill="white"/>
<path d="M236.608 511.349C237.191 512.127 237.483 513.488 237.483 515.531V524.382L235.343 525.743V517.379C235.343 516.212 235.148 515.336 234.856 514.947C234.565 514.461 234.078 514.461 233.495 514.85C232.911 515.239 232.424 515.823 232.035 516.698C231.646 517.573 231.549 518.643 231.549 519.81V528.272L229.312 529.634V514.169L231.549 512.905V514.85C231.841 513.975 232.23 513.294 232.619 512.613C233.105 511.932 233.592 511.446 234.078 511.154C235.148 510.473 236.024 510.57 236.608 511.349Z" fill="white"/>
<path d="M239.429 511.543C239.721 510.181 240.207 509.014 240.791 508.042C241.374 507.069 241.958 506.388 242.639 505.999C243.223 505.61 243.806 505.513 244.196 505.707C244.682 505.902 244.974 506.194 245.266 506.777V504.637L247.309 503.47V518.06L245.266 519.324V517.184C244.974 518.059 244.682 518.838 244.196 519.616C243.709 520.394 243.223 520.977 242.639 521.366C241.958 521.853 241.374 521.853 240.791 521.561C240.207 521.269 239.818 520.686 239.429 519.713C239.137 518.74 238.942 517.476 238.942 515.92C238.942 514.364 239.137 512.905 239.429 511.543ZM245.071 509.792C244.876 509.306 244.585 508.917 244.293 508.722C244.001 508.528 243.612 508.625 243.223 508.82C242.834 509.014 242.444 509.403 242.153 509.987C241.861 510.57 241.569 511.154 241.374 511.932C241.18 512.71 241.083 513.585 241.083 514.461C241.083 515.336 241.18 516.114 241.374 516.601C241.569 517.184 241.861 517.476 242.153 517.67C242.444 517.865 242.834 517.768 243.223 517.573C243.612 517.379 244.001 516.892 244.293 516.406C244.585 515.822 244.876 515.142 245.071 514.461C245.266 513.683 245.363 512.807 245.363 511.932C245.363 511.057 245.266 510.376 245.071 509.792Z" fill="white"/>
<path d="M204.992 231.916L205.283 233.472L202.851 234.639L204.213 242.517L202.365 243.49L201.003 235.514L198.571 236.779L198.279 235.222L204.992 231.916Z" fill="white"/>
<path d="M209.368 232.11C209.66 231.721 210.049 231.429 210.536 231.137L210.828 233.082L210.341 233.277C209.757 233.569 209.368 233.861 209.174 234.347C208.979 234.736 208.882 235.319 208.979 236L209.66 239.696L207.909 240.572L206.645 233.18L208.396 232.304L208.59 233.471C208.785 232.985 208.979 232.499 209.368 232.11Z" fill="white"/>
<path d="M211.995 232.402C212.19 231.721 212.482 231.04 212.871 230.554C213.26 229.97 213.746 229.581 214.33 229.289C214.816 228.998 215.303 228.9 215.692 228.998C216.081 228.998 216.47 229.192 216.762 229.387L216.567 228.317L218.221 227.441L219.486 234.542L217.832 235.417L217.638 234.347C217.443 234.833 217.248 235.222 216.859 235.611C216.47 236 216.081 236.39 215.595 236.584C215.011 236.876 214.525 236.973 213.941 236.876C213.455 236.779 212.968 236.584 212.579 236.098C212.19 235.709 211.995 235.125 211.801 234.347C211.801 233.763 211.801 233.083 211.995 232.402ZM216.762 230.846C216.567 230.651 216.276 230.457 215.984 230.457C215.692 230.457 215.4 230.457 215.108 230.651C214.816 230.846 214.525 231.04 214.233 231.332C214.038 231.624 213.844 232.013 213.746 232.402C213.649 232.791 213.649 233.18 213.649 233.666C213.746 234.055 213.844 234.444 214.135 234.639C214.33 234.833 214.622 235.028 214.914 235.028C215.206 235.028 215.497 235.028 215.789 234.833C216.081 234.639 216.373 234.444 216.665 234.152C216.859 233.861 217.054 233.472 217.151 233.083C217.248 232.694 217.248 232.305 217.151 231.818C217.151 231.429 216.957 231.04 216.762 230.846Z" fill="white"/>
<path d="M223.085 226.663L222.015 227.247L222.988 232.791L221.334 233.666L220.361 228.025L219.583 228.414L219.291 226.955L220.069 226.566L219.972 226.177C219.777 225.302 219.972 224.524 220.361 223.94C220.75 223.356 221.334 222.773 222.307 222.384L222.599 223.843C222.209 224.037 221.918 224.232 221.82 224.426C221.723 224.621 221.626 225.01 221.723 225.399L221.82 225.691L222.89 225.107L223.085 226.663Z" fill="white"/>
<path d="M226.976 224.621L225.906 225.204L226.879 230.748L225.323 231.624L224.35 226.08L223.669 226.469L223.377 225.01L224.058 224.621L223.961 224.232C223.766 223.356 223.961 222.676 224.252 221.995C224.642 221.411 225.225 220.828 226.101 220.438L226.393 221.897C226.004 222.092 225.712 222.286 225.614 222.481C225.517 222.676 225.42 222.967 225.517 223.454L225.614 223.745L226.684 223.162L226.976 224.621Z" fill="white"/>
<path d="M227.658 221.508C227.463 221.411 227.269 221.217 227.269 220.925C227.172 220.633 227.269 220.341 227.366 220.049C227.561 219.758 227.755 219.563 227.95 219.466C228.242 219.369 228.436 219.271 228.728 219.466C228.923 219.563 229.117 219.758 229.117 220.049C229.214 220.341 229.117 220.633 229.02 220.925C228.825 221.217 228.631 221.411 228.436 221.508C228.047 221.606 227.852 221.606 227.658 221.508ZM229.214 221.897L230.382 228.803L228.825 229.581L227.658 222.675L229.214 221.897Z" fill="white"/>
<path d="M231.062 222.773C231.256 222.092 231.548 221.508 231.937 221.022C232.327 220.536 232.813 220.147 233.397 219.855C234.175 219.466 234.759 219.369 235.342 219.563C235.926 219.758 236.315 220.147 236.607 220.827L235.05 221.606C234.953 221.314 234.759 221.217 234.467 221.119C234.272 221.022 233.98 221.119 233.688 221.217C233.299 221.411 232.91 221.8 232.716 222.286C232.521 222.773 232.521 223.356 232.618 224.037C232.716 224.718 232.91 225.107 233.299 225.302C233.591 225.496 233.98 225.496 234.369 225.302C234.953 225.01 235.342 224.523 235.342 223.745L236.899 222.967C236.899 223.745 236.607 224.523 236.218 225.204C235.829 225.885 235.245 226.371 234.564 226.76C233.98 227.052 233.494 227.149 233.008 227.149C232.521 227.052 232.132 226.858 231.743 226.469C231.354 226.08 231.159 225.496 231.062 224.815C230.867 224.134 230.867 223.454 231.062 222.773Z" fill="white"/>
<path d="M187.286 260.122C186.994 260.024 186.8 259.83 186.8 259.441C186.703 259.149 186.8 258.76 186.994 258.371C187.189 257.982 187.481 257.787 187.773 257.593C188.162 257.398 188.454 257.398 188.745 257.496C189.037 257.593 189.135 257.787 189.232 258.176C189.329 258.468 189.232 258.857 189.037 259.149C188.843 259.538 188.551 259.733 188.259 259.927C187.967 260.122 187.578 260.122 187.286 260.122ZM189.426 260.316L190.788 268.194L188.745 269.361L187.384 261.483L189.426 260.316Z" fill="white"/>
<path d="M197.987 256.425C198.668 256.717 199.058 257.301 199.252 258.371L200.03 262.845L198.182 263.915L197.404 259.635C197.307 259.051 197.112 258.662 196.723 258.468C196.334 258.273 195.945 258.371 195.361 258.662C194.875 258.954 194.388 259.343 194.194 259.83C193.902 260.316 193.902 260.899 193.999 261.483L194.777 265.763L192.832 266.93L191.47 259.149L193.415 258.079L193.61 259.051C193.804 258.565 194.096 258.079 194.485 257.69C194.875 257.301 195.264 256.912 195.75 256.717C196.528 256.231 197.307 256.134 197.987 256.425Z" fill="white"/>
<path d="M202.949 260.899C202.462 260.997 201.976 260.899 201.684 260.608C201.295 260.413 201.101 260.024 201.003 259.635L202.852 258.565C202.949 258.857 203.143 258.954 203.435 259.051C203.727 259.149 204.019 259.051 204.408 258.857C204.797 258.662 204.992 258.468 205.186 258.176C205.381 257.884 205.381 257.69 205.381 257.495C205.381 257.203 205.186 257.106 204.894 257.106C204.603 257.106 204.213 257.203 203.727 257.398C203.143 257.592 202.657 257.69 202.365 257.69C201.976 257.787 201.684 257.69 201.392 257.495C201.101 257.301 200.906 257.009 200.809 256.523C200.711 256.134 200.809 255.647 201.003 255.161C201.198 254.675 201.49 254.188 201.879 253.799C202.268 253.313 202.754 253.021 203.338 252.632C204.213 252.146 204.894 251.951 205.478 252.146C206.062 252.34 206.451 252.729 206.645 253.507L204.894 254.48C204.797 254.188 204.7 253.994 204.408 253.994C204.116 253.897 203.824 253.994 203.533 254.188C203.241 254.383 202.949 254.577 202.754 254.772C202.56 254.966 202.56 255.258 202.56 255.453C202.56 255.744 202.754 255.842 203.046 255.842C203.338 255.842 203.727 255.745 204.213 255.647C204.797 255.453 205.186 255.355 205.575 255.355C205.965 255.355 206.256 255.355 206.548 255.55C206.84 255.745 207.035 256.036 207.132 256.523C207.229 256.912 207.132 257.398 207.035 257.884C206.84 258.371 206.548 258.857 206.159 259.246C205.77 259.732 205.284 260.121 204.7 260.413C204.019 260.705 203.435 260.899 202.949 260.899Z" fill="white"/>
<path d="M210.244 249.034C210.633 248.547 211.023 248.255 211.509 247.964C212.093 247.672 212.676 247.477 213.163 247.575C213.649 247.575 214.135 247.866 214.525 248.255C214.914 248.645 215.108 249.228 215.303 250.006C215.4 250.784 215.4 251.465 215.206 252.243C215.011 253.021 214.719 253.605 214.33 254.188C213.941 254.772 213.455 255.258 212.871 255.55C212.384 255.842 211.898 256.036 211.509 256.036C211.12 256.036 210.731 255.939 210.439 255.745L211.217 260.316L209.466 261.386L207.521 250.395L209.272 249.423L209.466 250.492C209.661 249.909 209.952 249.423 210.244 249.034ZM213.163 249.909C212.968 249.714 212.676 249.52 212.384 249.52C212.093 249.52 211.801 249.617 211.412 249.812C211.12 250.006 210.828 250.201 210.536 250.59C210.244 250.882 210.147 251.271 209.952 251.757C209.855 252.146 209.855 252.632 209.855 253.021C209.952 253.508 210.05 253.799 210.342 253.994C210.536 254.188 210.828 254.383 211.12 254.383C211.412 254.383 211.704 254.286 212.093 254.091C212.384 253.897 212.676 253.605 212.968 253.313C213.26 253.021 213.357 252.632 213.455 252.146C213.552 251.757 213.552 251.271 213.552 250.882C213.552 250.492 213.357 250.103 213.163 249.909Z" fill="white"/>
<path d="M222.697 246.407L217.93 249.13C218.027 249.617 218.319 249.909 218.611 250.103C219 250.2 219.389 250.2 219.778 249.908C220.362 249.519 220.751 249.033 220.945 248.255L222.697 247.282C222.599 248.061 222.405 248.839 221.918 249.617C221.432 250.395 220.848 250.978 220.07 251.465C219.486 251.854 218.805 252.048 218.319 251.951C217.735 251.951 217.249 251.756 216.86 251.367C216.471 250.978 216.179 250.395 216.081 249.617C215.984 248.839 215.984 248.158 216.179 247.38C216.373 246.699 216.665 246.018 217.152 245.434C217.638 244.851 218.124 244.365 218.805 243.976C219.389 243.587 219.973 243.489 220.556 243.489C221.14 243.489 221.529 243.684 221.918 244.073C222.307 244.462 222.502 244.948 222.599 245.726C222.697 245.921 222.697 246.115 222.697 246.407ZM220.848 246.115C220.751 245.629 220.556 245.337 220.167 245.24C219.778 245.143 219.389 245.24 219 245.434C218.611 245.629 218.222 246.018 218.027 246.407C217.833 246.796 217.638 247.282 217.735 247.866L220.848 246.115Z" fill="white"/>
<path d="M223.475 243.197C223.669 242.517 223.961 241.836 224.35 241.349C224.739 240.766 225.323 240.377 225.907 239.988C226.685 239.599 227.366 239.404 227.95 239.599C228.533 239.793 228.922 240.182 229.311 240.863L227.658 241.836C227.56 241.544 227.366 241.447 227.074 241.349C226.782 241.252 226.588 241.35 226.198 241.544C225.712 241.836 225.42 242.225 225.226 242.711C225.031 243.197 224.934 243.781 225.128 244.462C225.226 245.143 225.518 245.532 225.809 245.824C226.101 246.018 226.49 246.018 226.977 245.726C227.658 245.337 227.949 244.754 228.047 244.073L229.701 243.1C229.701 243.976 229.409 244.754 229.02 245.435C228.63 246.213 227.949 246.796 227.269 247.185C226.685 247.574 226.101 247.672 225.615 247.672C225.128 247.672 224.642 247.477 224.253 246.991C223.864 246.602 223.669 246.018 223.475 245.337C223.28 244.656 223.377 243.878 223.475 243.197Z" fill="white"/>
<path d="M232.035 238.237L232.618 241.544C232.618 241.739 232.716 241.933 232.813 241.933C232.91 241.933 233.105 241.933 233.299 241.836L233.98 241.447L234.272 242.906L233.299 243.49C232.035 244.268 231.257 243.879 230.965 242.42L230.381 239.113L229.7 239.502L229.408 238.043L230.089 237.654L229.797 235.903L231.354 235.028L231.646 236.681L233.008 235.903L233.299 237.362L232.035 238.237Z" fill="white"/>
<path d="M234.176 234.347C233.981 234.249 233.884 234.055 233.786 233.763C233.689 233.471 233.786 233.18 233.884 232.888C233.981 232.596 234.273 232.401 234.467 232.207C234.759 232.11 234.954 232.012 235.148 232.11C235.343 232.207 235.44 232.401 235.537 232.693C235.635 232.985 235.537 233.277 235.44 233.569C235.343 233.86 235.051 234.055 234.856 234.249C234.565 234.444 234.37 234.444 234.176 234.347ZM235.732 234.638L236.899 241.447L235.44 242.322L234.273 235.514L235.732 234.638Z" fill="white"/>
<path d="M239.428 239.696C238.942 239.696 238.553 239.502 238.164 239.113C237.775 238.724 237.58 238.238 237.483 237.459C237.386 236.779 237.386 236.098 237.58 235.417C237.775 234.736 238.067 234.153 238.456 233.569C238.845 232.985 239.331 232.596 239.915 232.305C240.499 232.013 240.985 231.916 241.471 231.916C241.958 231.916 242.347 232.207 242.736 232.499C243.125 232.888 243.32 233.374 243.417 234.055C243.514 234.736 243.514 235.417 243.32 236.098C243.125 236.779 242.833 237.362 242.444 237.946C242.055 238.529 241.569 238.918 240.985 239.21C240.401 239.599 239.915 239.696 239.428 239.696ZM241.374 237.168C241.569 236.876 241.763 236.584 241.763 236.195C241.86 235.806 241.86 235.417 241.763 235.028C241.666 234.347 241.471 233.958 241.082 233.763C240.693 233.569 240.401 233.569 239.915 233.861C239.526 234.055 239.137 234.444 238.942 234.931C238.747 235.417 238.65 236.001 238.747 236.681C238.845 237.362 239.039 237.751 239.428 237.946C239.72 238.14 240.109 238.14 240.499 237.849C240.985 237.654 241.179 237.362 241.374 237.168Z" fill="white"/>
<path d="M248.475 228.317C248.962 228.609 249.254 229.192 249.448 230.068L250.129 233.861L248.767 234.639L248.184 231.04C248.086 230.554 247.892 230.165 247.697 230.068C247.405 229.873 247.114 229.97 246.724 230.165C246.335 230.359 246.043 230.651 245.849 231.137C245.654 231.526 245.654 232.013 245.752 232.499L246.433 236.098L245.071 236.876L243.903 230.262L245.265 229.484L245.363 230.262C245.46 229.873 245.654 229.484 245.946 229.192C246.238 228.9 246.53 228.609 246.822 228.414C247.405 228.122 247.989 228.025 248.475 228.317Z" fill="white"/>
<path d="M11.8752 288.309V297H10.1321V293.302H6.40924V297H4.6661V288.309H6.40924V291.883H10.1321V288.309H11.8752ZM19.5052 288.309V289.716H17.1893V297H15.4461V289.716H13.1303V288.309H19.5052ZM26.6912 288.309V289.716H24.3754V297H22.6322V289.716H20.3163V288.309H26.6912ZM34.3006 290.999C34.3006 291.463 34.1886 291.899 33.9645 292.306C33.7487 292.713 33.4042 293.041 32.931 293.29C32.4662 293.539 31.8769 293.663 31.163 293.663H29.7062V297H27.9631V288.309H31.163C31.8353 288.309 32.4081 288.425 32.8812 288.658C33.3544 288.89 33.7072 289.21 33.9396 289.617C34.1803 290.023 34.3006 290.484 34.3006 290.999ZM31.0883 292.256C31.5697 292.256 31.9267 292.148 32.1591 291.932C32.3915 291.708 32.5077 291.397 32.5077 290.999C32.5077 290.152 32.0346 289.729 31.0883 289.729H29.7062V292.256H31.0883ZM40.2074 285.209L36.8456 299.254H35.1398L38.5016 285.209H40.2074ZM46.6611 288.309V294.41C46.6611 295.257 46.4162 295.917 45.9265 296.39C45.4367 296.855 44.781 297.087 43.9592 297.087C43.1292 297.087 42.4568 296.846 41.9422 296.365C41.4358 295.884 41.1826 295.211 41.1826 294.348H42.9258C42.9341 294.721 43.0212 295.012 43.1873 295.22C43.3616 295.427 43.6106 295.531 43.9343 295.531C44.2497 295.531 44.4905 295.431 44.6565 295.232C44.8225 295.033 44.9055 294.759 44.9055 294.41V288.309H46.6611ZM51.6952 297.087C51.0892 297.087 50.5414 296.983 50.0516 296.776C49.5702 296.568 49.1884 296.27 48.9062 295.879C48.6239 295.489 48.4787 295.029 48.4704 294.497H50.338C50.3629 294.854 50.4874 295.137 50.7116 295.344C50.944 295.552 51.2594 295.655 51.6578 295.655C52.0646 295.655 52.3841 295.56 52.6166 295.369C52.849 295.17 52.9652 294.912 52.9652 294.597C52.9652 294.34 52.8863 294.128 52.7286 293.962C52.5709 293.796 52.3717 293.667 52.131 293.576C51.8985 293.476 51.5748 293.368 51.1598 293.252C50.5953 293.086 50.1347 292.924 49.7777 292.767C49.4291 292.601 49.1261 292.356 48.8688 292.032C48.6198 291.7 48.4953 291.26 48.4953 290.712C48.4953 290.198 48.6239 289.749 48.8813 289.368C49.1386 288.986 49.4997 288.695 49.9645 288.496C50.4293 288.288 50.9606 288.185 51.5582 288.185C52.4547 288.185 53.181 288.405 53.7371 288.845C54.3016 289.276 54.6129 289.882 54.671 290.662H52.7535C52.7369 290.364 52.6083 290.119 52.3675 289.928C52.1351 289.729 51.8238 289.629 51.4337 289.629C51.0934 289.629 50.8195 289.716 50.6119 289.89C50.4127 290.065 50.3131 290.318 50.3131 290.65C50.3131 290.882 50.3878 291.077 50.5372 291.235C50.6949 291.385 50.8859 291.509 51.11 291.609C51.3424 291.7 51.6661 291.808 52.0812 291.932C52.6456 292.098 53.1063 292.264 53.4632 292.43C53.8202 292.596 54.1273 292.846 54.3846 293.178C54.6419 293.51 54.7706 293.945 54.7706 294.485C54.7706 294.95 54.6502 295.381 54.4095 295.78C54.1688 296.178 53.816 296.498 53.3512 296.739C52.8863 296.971 52.3343 297.087 51.6952 297.087ZM60.3159 297.087C59.5025 297.087 58.7554 296.896 58.0748 296.514C57.3941 296.133 56.8546 295.605 56.4561 294.933C56.0577 294.252 55.8585 293.485 55.8585 292.63C55.8585 291.783 56.0577 291.024 56.4561 290.351C56.8546 289.671 57.3941 289.139 58.0748 288.757C58.7554 288.376 59.5025 288.185 60.3159 288.185C61.1377 288.185 61.8848 288.376 62.5571 288.757C63.2378 289.139 63.7732 289.671 64.1633 290.351C64.5617 291.024 64.7609 291.783 64.7609 292.63C64.7609 293.485 64.5617 294.252 64.1633 294.933C63.7732 295.605 63.2378 296.133 62.5571 296.514C61.8765 296.896 61.1294 297.087 60.3159 297.087ZM60.3159 295.531C60.8389 295.531 61.2996 295.415 61.698 295.182C62.0964 294.941 62.4077 294.601 62.6318 294.161C62.8559 293.721 62.968 293.211 62.968 292.63C62.968 292.049 62.8559 291.542 62.6318 291.111C62.4077 290.671 62.0964 290.335 61.698 290.102C61.2996 289.87 60.8389 289.754 60.3159 289.754C59.793 289.754 59.3282 289.87 58.9214 290.102C58.523 290.335 58.2117 290.671 57.9876 291.111C57.7635 291.542 57.6514 292.049 57.6514 292.63C57.6514 293.211 57.7635 293.721 57.9876 294.161C58.2117 294.601 58.523 294.941 58.9214 295.182C59.3282 295.415 59.793 295.531 60.3159 295.531ZM73.4911 297H71.7479L67.8009 291.036V297H66.0578V288.297H67.8009L71.7479 294.273V288.297H73.4911V297ZM79.8828 285.209L76.521 299.254H74.8152L78.177 285.209H79.8828ZM35.4475 313L33.5674 310.074L31.8616 313H29.8943L32.6335 308.617L29.857 304.309H31.8616L33.7417 307.223L35.435 304.309H37.4023L34.6755 308.68L37.4521 313H35.4475ZM48.2539 304.309V313H46.5108V307.347L44.1824 313H42.8626L40.5218 307.347V313H38.7787V304.309H40.7584L43.5225 310.771L46.2866 304.309H48.2539ZM51.7204 311.618H54.5842V313H49.9773V304.309H51.7204V311.618Z" fill="white"/>
<path d="M241.875 155.309V164H240.132V160.302H236.409V164H234.666V155.309H236.409V158.883H240.132V155.309H241.875ZM249.505 155.309V156.716H247.189V164H245.446V156.716H243.13V155.309H249.505ZM256.691 155.309V156.716H254.375V164H252.632V156.716H250.316V155.309H256.691ZM264.301 157.999C264.301 158.463 264.189 158.899 263.964 159.306C263.749 159.713 263.404 160.041 262.931 160.29C262.466 160.539 261.877 160.663 261.163 160.663H259.706V164H257.963V155.309H261.163C261.835 155.309 262.408 155.425 262.881 155.658C263.354 155.89 263.707 156.21 263.94 156.617C264.18 157.023 264.301 157.484 264.301 157.999ZM261.088 159.256C261.57 159.256 261.927 159.148 262.159 158.932C262.391 158.708 262.508 158.397 262.508 157.999C262.508 157.152 262.035 156.729 261.088 156.729H259.706V159.256H261.088ZM270.207 152.209L266.846 166.254H265.14L268.502 152.209H270.207ZM276.661 155.309V161.41C276.661 162.257 276.416 162.917 275.926 163.39C275.437 163.855 274.781 164.087 273.959 164.087C273.129 164.087 272.457 163.846 271.942 163.365C271.436 162.884 271.183 162.211 271.183 161.348H272.926C272.934 161.721 273.021 162.012 273.187 162.22C273.362 162.427 273.611 162.531 273.934 162.531C274.25 162.531 274.49 162.431 274.656 162.232C274.822 162.033 274.905 161.759 274.905 161.41V155.309H276.661ZM281.695 164.087C281.089 164.087 280.541 163.983 280.052 163.776C279.57 163.568 279.188 163.27 278.906 162.879C278.624 162.489 278.479 162.029 278.47 161.497H280.338C280.363 161.854 280.487 162.137 280.712 162.344C280.944 162.552 281.259 162.655 281.658 162.655C282.065 162.655 282.384 162.56 282.617 162.369C282.849 162.17 282.965 161.912 282.965 161.597C282.965 161.34 282.886 161.128 282.729 160.962C282.571 160.796 282.372 160.667 282.131 160.576C281.899 160.476 281.575 160.368 281.16 160.252C280.595 160.086 280.135 159.924 279.778 159.767C279.429 159.601 279.126 159.356 278.869 159.032C278.62 158.7 278.495 158.26 278.495 157.712C278.495 157.198 278.624 156.749 278.881 156.368C279.139 155.986 279.5 155.695 279.964 155.496C280.429 155.288 280.961 155.185 281.558 155.185C282.455 155.185 283.181 155.405 283.737 155.845C284.302 156.276 284.613 156.882 284.671 157.662H282.754C282.737 157.364 282.608 157.119 282.368 156.928C282.135 156.729 281.824 156.629 281.434 156.629C281.093 156.629 280.819 156.716 280.612 156.89C280.413 157.065 280.313 157.318 280.313 157.65C280.313 157.882 280.388 158.077 280.537 158.235C280.695 158.385 280.886 158.509 281.11 158.609C281.342 158.7 281.666 158.808 282.081 158.932C282.646 159.098 283.106 159.264 283.463 159.43C283.82 159.596 284.127 159.846 284.385 160.178C284.642 160.51 284.771 160.945 284.771 161.485C284.771 161.95 284.65 162.381 284.409 162.78C284.169 163.178 283.816 163.498 283.351 163.739C282.886 163.971 282.334 164.087 281.695 164.087ZM290.316 164.087C289.502 164.087 288.755 163.896 288.075 163.514C287.394 163.133 286.855 162.605 286.456 161.933C286.058 161.252 285.858 160.485 285.858 159.63C285.858 158.783 286.058 158.024 286.456 157.351C286.855 156.671 287.394 156.139 288.075 155.757C288.755 155.376 289.502 155.185 290.316 155.185C291.138 155.185 291.885 155.376 292.557 155.757C293.238 156.139 293.773 156.671 294.163 157.351C294.562 158.024 294.761 158.783 294.761 159.63C294.761 160.485 294.562 161.252 294.163 161.933C293.773 162.605 293.238 163.133 292.557 163.514C291.876 163.896 291.129 164.087 290.316 164.087ZM290.316 162.531C290.839 162.531 291.3 162.415 291.698 162.182C292.096 161.941 292.408 161.601 292.632 161.161C292.856 160.721 292.968 160.211 292.968 159.63C292.968 159.049 292.856 158.542 292.632 158.111C292.408 157.671 292.096 157.335 291.698 157.102C291.3 156.87 290.839 156.754 290.316 156.754C289.793 156.754 289.328 156.87 288.921 157.102C288.523 157.335 288.212 157.671 287.988 158.111C287.763 158.542 287.651 159.049 287.651 159.63C287.651 160.211 287.763 160.721 287.988 161.161C288.212 161.601 288.523 161.941 288.921 162.182C289.328 162.415 289.793 162.531 290.316 162.531ZM303.491 164H301.748L297.801 158.036V164H296.058V155.297H297.801L301.748 161.273V155.297H303.491V164ZM309.883 152.209L306.521 166.254H304.815L308.177 152.209H309.883ZM265.447 180L263.567 177.074L261.862 180H259.894L262.634 175.617L259.857 171.309H261.862L263.742 174.223L265.435 171.309H267.402L264.675 175.68L267.452 180H265.447ZM278.254 171.309V180H276.511V174.347L274.182 180H272.863L270.522 174.347V180H268.779V171.309H270.758L273.523 177.771L276.287 171.309H278.254ZM281.72 178.618H284.584V180H279.977V171.309H281.72V178.618Z" fill="white"/>
</svg>
