<?xml version="1.0" encoding="utf-8"?>
<!-- Generator: Adobe Illustrator 25.0.1, SVG Export Plug-In . SVG Version: 6.00 Build 0)  -->
<svg version="1.1" id="Layer_1" xmlns="http://www.w3.org/2000/svg" xmlns:xlink="http://www.w3.org/1999/xlink" x="0px" y="0px"
	 viewBox="0 0 735.1 767.8" style="enable-background:new 0 0 735.1 767.8;" xml:space="preserve">
<style type="text/css">
	.st0{fill:none;stroke:#002457;stroke-width:2.1278;stroke-miterlimit:10;stroke-dasharray:4.9246;}
	.st1{fill:none;stroke:#4C97FE;stroke-width:1.3914;stroke-miterlimit:10;}
	.st2{fill:#FFFFFF;}
	.st3{fill:none;stroke:#153F6C;stroke-width:6.4594;stroke-miterlimit:10;}
	.st4{fill:none;stroke:#4C97FE;stroke-width:3.7033;stroke-linejoin:round;stroke-miterlimit:10;}
</style>
<g id="XMLID_703_">
	<polygon id="XMLID_1571_" class="st0" points="230.8,719.6 38.4,527.1 38.4,254.9 230.8,62.5 503,62.5 695.5,254.9 695.5,527.1 
		503,719.6 	"/>
	<polygon id="XMLID_848_" class="st1" points="102.7,379.3 54.3,330.9 54.3,262.5 102.7,214.1 171.1,214.1 219.5,262.5 219.5,330.9 
		171.1,379.3 	"/>
	<polygon id="XMLID_1075_" class="st1" points="238.8,244.9 190.4,196.5 190.4,128.1 238.8,79.7 307.2,79.7 355.6,128.1 
		355.6,196.5 307.2,244.9 	"/>
	<polygon id="XMLID_1274_" class="st1" points="429,244.9 380.6,196.5 380.6,128.1 429,79.7 497.4,79.7 545.8,128.1 545.8,196.5 
		497.4,244.9 	"/>
	<polygon id="XMLID_1356_" class="st1" points="565.9,379.3 517.5,330.9 517.5,262.5 565.9,214.1 634.3,214.1 682.7,262.5 
		682.7,330.9 634.3,379.3 	"/>
	<polygon id="XMLID_1462_" class="st1" points="102.7,406.5 54.3,454.9 54.3,523.3 102.7,571.7 171.1,571.7 219.5,523.3 
		219.5,454.9 171.1,406.5 	"/>
	<polygon id="XMLID_1461_" class="st1" points="238.8,540.9 190.4,589.3 190.4,657.8 238.8,706.1 307.2,706.1 355.6,657.8 
		355.6,589.3 307.2,540.9 	"/>
	<polygon id="XMLID_1460_" class="st1" points="429,540.9 380.6,589.3 380.6,657.8 429,706.1 497.4,706.1 545.8,657.8 545.8,589.3 
		497.4,540.9 	"/>
	<polygon id="XMLID_1459_" class="st1" points="565.9,406.5 517.5,454.9 517.5,523.3 565.9,571.7 634.3,571.7 682.7,523.3 
		682.7,454.9 634.3,406.5 	"/>
	<g id="XMLID_154_">
		<g id="XMLID_433_">
			<path id="XMLID_454_" class="st2" d="M411.3,151c2.1,0,3.8,1,4.8,2.2l-1.3,1.4c-0.9-1-2.1-1.6-3.5-1.6c-3.3,0-5.6,2.7-5.6,7.1
				c0,4.4,2.1,7.2,5.5,7.2c1.7,0,2.9-0.7,4-2l1.3,1.4c-1.4,1.6-3.1,2.5-5.3,2.5c-4.4,0-7.7-3.4-7.7-9.1
				C403.5,154.4,406.8,151,411.3,151z"/>
			<path id="XMLID_452_" class="st2" d="M419.5,155.8h1.8l0.2,2.4h0.1c0.9-1.6,2.2-2.7,3.7-2.7c0.6,0,1,0.1,1.4,0.3l-0.4,1.9
				c-0.4-0.1-0.7-0.2-1.3-0.2c-1.1,0-2.4,0.8-3.3,3v8.4h-2.2L419.5,155.8L419.5,155.8z"/>
			<path id="XMLID_449_" class="st2" d="M428.4,151.7c0-0.9,0.7-1.4,1.5-1.4s1.5,0.6,1.5,1.4c0,0.8-0.7,1.4-1.5,1.4
				S428.4,152.6,428.4,151.7z M428.8,155.8h2.2v13h-2.2V155.8z"/>
			<path id="XMLID_447_" class="st2" d="M435.4,155.8h1.8l0.2,1.9h0.1c1.1-1.2,2.5-2.2,4-2.2c2,0,3.1,0.9,3.6,2.5
				c1.4-1.5,2.7-2.5,4.3-2.5c2.7,0,4,1.8,4,5.1v8.3h-2.2v-8c0-2.4-0.8-3.5-2.4-3.5c-1,0-2.1,0.7-3.3,2v9.4h-2.2v-8
				c0-2.4-0.8-3.5-2.4-3.5c-1,0-2.1,0.7-3.3,2v9.4h-2.2V155.8z"/>
			<path id="XMLID_444_" class="st2" d="M462.5,155.5c3.3,0,5.2,2.4,5.2,6.1c0,0.5,0,0.9-0.1,1.2h-8.8c0.2,2.8,1.8,4.6,4.3,4.6
				c1.2,0,2.3-0.4,3.2-1l0.8,1.4c-1.1,0.7-2.5,1.3-4.3,1.3c-3.5,0-6.2-2.5-6.2-6.8S459.5,155.5,462.5,155.5z M465.8,161.4
				c0-2.7-1.2-4.1-3.2-4.1c-1.8,0-3.5,1.5-3.8,4.1H465.8z"/>
			<path id="XMLID_442_" class="st2" d="M469.4,155.8h2.3l1.9,7.5c0.3,1.2,0.5,2.4,0.8,3.6h0.1c0.3-1.2,0.6-2.4,0.9-3.6l2-7.5h2.1
				l2,7.5c0.3,1.2,0.6,2.4,0.9,3.6h0.1c0.3-1.2,0.5-2.4,0.8-3.6l1.9-7.5h2.1l-3.5,13h-2.7l-1.9-7c-0.3-1.2-0.6-2.4-0.9-3.8h-0.1
				c-0.3,1.3-0.6,2.5-0.9,3.8l-1.8,7H473L469.4,155.8z"/>
			<path id="XMLID_439_" class="st2" d="M497.5,160.6c0-1.7-0.6-3.3-2.7-3.3c-1.5,0-2.9,0.7-3.9,1.4l-0.9-1.5c1.2-0.8,3-1.7,5.1-1.7
				c3.2,0,4.5,2.1,4.5,5.4v8h-1.8l-0.2-1.6h-0.1c-1.3,1-2.7,1.9-4.3,1.9c-2.2,0-3.8-1.4-3.8-3.7C489.5,162.7,492,161.2,497.5,160.6z
				 M493.9,167.4c1.3,0,2.3-0.6,3.6-1.7v-3.6c-4.4,0.5-5.8,1.6-5.8,3.3C491.7,166.8,492.7,167.4,493.9,167.4z"/>
			<path id="XMLID_437_" class="st2" d="M503.9,155.8h1.8l0.2,2.4h0.1c0.9-1.6,2.2-2.7,3.7-2.7c0.6,0,1,0.1,1.4,0.3l-0.4,1.9
				c-0.4-0.1-0.7-0.2-1.3-0.2c-1.1,0-2.4,0.8-3.3,3v8.4h-2.2L503.9,155.8L503.9,155.8z"/>
			<path id="XMLID_434_" class="st2" d="M518,155.5c3.3,0,5.2,2.4,5.2,6.1c0,0.5,0,0.9-0.1,1.2h-8.8c0.2,2.8,1.8,4.6,4.3,4.6
				c1.2,0,2.3-0.4,3.2-1l0.8,1.4c-1.1,0.7-2.5,1.3-4.3,1.3c-3.5,0-6.2-2.5-6.2-6.8S515.1,155.5,518,155.5z M521.3,161.4
				c0-2.7-1.2-4.1-3.2-4.1c-1.8,0-3.5,1.5-3.8,4.1H521.3z"/>
		</g>
	</g>
	<g id="XMLID_136_">
		<g id="XMLID_379_">
			<path id="XMLID_395_" class="st2" d="M224.4,165c1.3,1.3,3,2.2,4.9,2.2c2.3,0,3.7-1.2,3.7-2.9c0-1.8-1.3-2.4-2.9-3.1l-2.5-1.1
				c-1.6-0.7-3.6-2-3.6-4.5c0-2.7,2.4-4.7,5.5-4.7c2.1,0,3.9,0.9,5.2,2.2l-1.2,1.4c-1.1-1-2.4-1.7-4-1.7c-2,0-3.3,1-3.3,2.6
				c0,1.7,1.6,2.3,2.9,2.9l2.5,1.1c2,0.9,3.6,2.1,3.6,4.7c0,2.8-2.3,5-6,5c-2.5,0-4.6-1-6.1-2.6L224.4,165z"/>
			<path id="XMLID_392_" class="st2" d="M240.5,170v4.4h-2.2v-18.5h1.8l0.2,1.5h0.1c1.2-1,2.6-1.8,4.2-1.8c3.3,0,5.1,2.6,5.1,6.6
				c0,4.4-2.7,7-5.6,7c-1.2,0-2.4-0.6-3.6-1.5V170z M243.7,167.3c2.1,0,3.7-2,3.7-5.2c0-2.9-1-4.8-3.4-4.8c-1.1,0-2.2,0.6-3.5,1.8
				v6.8C241.7,167,242.8,167.3,243.7,167.3z"/>
			<path id="XMLID_390_" class="st2" d="M253.3,172.6c1.5,0,2.4-1.2,2.9-2.8l0.3-1l-5.2-13h2.3l2.7,7.2c0.4,1.1,0.9,2.5,1.3,3.7h0.1
				c0.4-1.2,0.8-2.5,1.1-3.7l2.3-7.2h2.1l-4.9,14.1c-0.9,2.6-2.3,4.5-4.9,4.5c-0.6,0-1.1-0.1-1.5-0.3l0.4-1.7
				C252.6,172.5,253,172.6,253.3,172.6z"/>
			<path id="XMLID_388_" class="st2" d="M264.1,155.8h2.3l1.9,7.5c0.3,1.2,0.5,2.4,0.8,3.6h0.1c0.3-1.2,0.6-2.4,0.9-3.6l2-7.5h2.1
				l2,7.5c0.3,1.2,0.6,2.4,0.9,3.6h0.1c0.3-1.2,0.5-2.4,0.8-3.6l1.9-7.5h2.1l-3.5,13h-2.7l-1.9-7c-0.3-1.2-0.6-2.4-0.9-3.8h-0.1
				c-0.3,1.3-0.6,2.5-0.9,3.8l-1.8,7h-2.6L264.1,155.8z"/>
			<path id="XMLID_385_" class="st2" d="M292.3,160.6c0-1.7-0.6-3.3-2.7-3.3c-1.5,0-2.9,0.7-3.9,1.4l-0.9-1.5c1.2-0.8,3-1.7,5.1-1.7
				c3.2,0,4.5,2.1,4.5,5.4v8h-1.8l-0.2-1.6h-0.1c-1.3,1-2.7,1.9-4.3,1.9c-2.2,0-3.8-1.4-3.8-3.7
				C284.3,162.7,286.8,161.2,292.3,160.6z M288.7,167.4c1.3,0,2.3-0.6,3.6-1.7v-3.6c-4.4,0.5-5.8,1.6-5.8,3.3
				C286.5,166.8,287.5,167.4,288.7,167.4z"/>
			<path id="XMLID_383_" class="st2" d="M298.7,155.8h1.8l0.2,2.4h0.1c0.9-1.6,2.2-2.7,3.7-2.7c0.6,0,1,0.1,1.4,0.3l-0.4,1.9
				c-0.4-0.1-0.7-0.2-1.3-0.2c-1.1,0-2.4,0.8-3.3,3v8.4h-2.2L298.7,155.8L298.7,155.8z"/>
			<path id="XMLID_380_" class="st2" d="M312.8,155.5c3.3,0,5.2,2.4,5.2,6.1c0,0.5,0,0.9-0.1,1.2h-8.8c0.2,2.8,1.8,4.6,4.3,4.6
				c1.2,0,2.3-0.4,3.2-1l0.8,1.4c-1.1,0.7-2.5,1.3-4.3,1.3c-3.5,0-6.2-2.5-6.2-6.8S309.9,155.5,312.8,155.5z M316.1,161.4
				c0-2.7-1.2-4.1-3.2-4.1c-1.8,0-3.5,1.5-3.8,4.1H316.1z"/>
		</g>
	</g>
	<g id="XMLID_126_">
		<g id="XMLID_244_">
			<path id="XMLID_253_" class="st2" d="M567.1,287.5h2.3l1.8,9.6c0.3,1.9,0.7,3.8,1,5.7h0.1c0.4-1.9,0.8-3.8,1.2-5.7l2.4-9.6h2
				l2.4,9.6c0.4,1.8,0.8,3.8,1.3,5.7h0.1c0.3-1.9,0.7-3.8,1-5.7l1.8-9.6h2.2l-3.6,17.6h-2.7l-2.7-10.6c-0.3-1.4-0.6-2.6-0.8-4h0.1
				c-0.3,1.4-0.6,2.6-0.9,4l-2.6,10.6h-2.7L567.1,287.5z"/>
			<path id="XMLID_250_" class="st2" d="M594.8,291.8c3.2,0,6,2.5,6,6.9c0,4.3-2.8,6.8-6,6.8s-6-2.5-6-6.8
				C588.7,294.3,591.6,291.8,594.8,291.8z M594.8,303.6c2.3,0,3.8-2,3.8-5s-1.5-5-3.8-5c-2.2,0-3.8,2-3.8,5S592.6,303.6,594.8,303.6
				z"/>
			<path id="XMLID_248_" class="st2" d="M604.2,292.1h1.8l0.2,2.4h0.1c0.9-1.6,2.2-2.7,3.7-2.7c0.6,0,1,0.1,1.4,0.3L611,294
				c-0.4-0.1-0.7-0.2-1.3-0.2c-1.1,0-2.4,0.8-3.3,3v8.4h-2.2V292.1z"/>
			<path id="XMLID_246_" class="st2" d="M613.5,292.1h1.8l0.2,1.9h0.1c1.1-1.2,2.5-2.2,4-2.2c2,0,3.1,0.9,3.6,2.5
				c1.4-1.5,2.7-2.5,4.3-2.5c2.7,0,4,1.8,4,5.1v8.3h-2.2v-8c0-2.4-0.8-3.5-2.4-3.5c-1,0-2.1,0.7-3.3,2v9.4h-2.2v-8
				c0-2.4-0.8-3.5-2.4-3.5c-1,0-2.1,0.7-3.3,2v9.4h-2.2L613.5,292.1L613.5,292.1z"/>
		</g>
	</g>
	<g id="XMLID_107_">
		<g id="XMLID_355_">
			<path id="XMLID_371_" class="st2" d="M107.7,305.1l-4.2-7.4h-3.2v7.4H98v-17.6h5.5c3.6,0,6.1,1.3,6.1,4.9c0,2.7-1.6,4.4-3.9,5
				l4.5,7.7H107.7z M100.3,295.9h2.9c2.7,0,4.2-1.1,4.2-3.4s-1.5-3.1-4.2-3.1h-2.9V295.9z"/>
			<path id="XMLID_368_" class="st2" d="M118.4,291.8c3.2,0,6,2.5,6,6.9c0,4.3-2.8,6.8-6,6.8s-6-2.5-6-6.8
				C112.3,294.3,115.2,291.8,118.4,291.8z M118.4,303.6c2.3,0,3.8-2,3.8-5s-1.5-5-3.8-5c-2.2,0-3.8,2-3.8,5S116.1,303.6,118.4,303.6
				z"/>
			<path id="XMLID_365_" class="st2" d="M132.9,291.8c3.2,0,6,2.5,6,6.9c0,4.3-2.8,6.8-6,6.8s-6-2.5-6-6.8
				C126.9,294.3,129.7,291.8,132.9,291.8z M132.9,303.6c2.3,0,3.8-2,3.8-5s-1.5-5-3.8-5c-2.2,0-3.8,2-3.8,5
				C129.1,301.6,130.7,303.6,132.9,303.6z"/>
			<path id="XMLID_363_" class="st2" d="M142.7,293.9h-1.9v-1.7l2-0.1l0.3-3.6h1.8v3.6h3.5v1.8h-3.5v7.2c0,1.6,0.5,2.5,2,2.5
				c0.5,0,1-0.2,1.5-0.3l0.4,1.7c-0.7,0.2-1.6,0.5-2.4,0.5c-2.8,0-3.7-1.8-3.7-4.3L142.7,293.9L142.7,293.9z"/>
			<path id="XMLID_361_" class="st2" d="M151.4,286h2.2v13h0.1l5.5-6.9h2.4l-4.4,5.2l5,7.8h-2.4l-3.8-6.3l-2.4,2.8v3.4h-2.2
				L151.4,286L151.4,286z"/>
			<path id="XMLID_358_" class="st2" d="M164.3,288c0-0.9,0.7-1.4,1.5-1.4s1.5,0.6,1.5,1.4s-0.7,1.4-1.5,1.4S164.3,288.8,164.3,288z
				 M164.7,292.1h2.2v13h-2.2V292.1z"/>
			<path id="XMLID_356_" class="st2" d="M171.6,293.9h-1.9v-1.7l2-0.1l0.3-3.6h1.8v3.6h3.5v1.8h-3.5v7.2c0,1.6,0.5,2.5,2,2.5
				c0.5,0,1-0.2,1.5-0.3l0.4,1.7c-0.7,0.2-1.6,0.5-2.4,0.5c-2.8,0-3.7-1.8-3.7-4.3L171.6,293.9L171.6,293.9z"/>
		</g>
	</g>
	<g id="XMLID_91_">
		<g id="XMLID_300_">
			<path id="XMLID_331_" class="st2" d="M106.4,480.7H101v-1.9h12.9v1.9h-5.3v15.7h-2.2V480.7z"/>
			<path id="XMLID_329_" class="st2" d="M116.8,483.4h1.8l0.2,2.4h0.1c0.9-1.6,2.2-2.7,3.7-2.7c0.6,0,1,0.1,1.4,0.3l-0.4,1.9
				c-0.4-0.1-0.7-0.2-1.3-0.2c-1.1,0-2.4,0.8-3.3,3v8.4h-2.2C116.8,496.5,116.8,483.4,116.8,483.4z"/>
			<path id="XMLID_326_" class="st2" d="M131.2,483.1c3.2,0,6,2.5,6,6.9c0,4.3-2.8,6.8-6,6.8s-6-2.5-6-6.8
				C125.1,485.5,128,483.1,131.2,483.1z M131.2,494.9c2.3,0,3.8-2,3.8-5s-1.5-5-3.8-5c-2.2,0-3.8,2-3.8,5
				C127.4,492.9,128.9,494.9,131.2,494.9z"/>
			<path id="XMLID_323_" class="st2" d="M140.6,483.4h2.2v14.5c0,2.7-1,4.3-3.6,4.3c-0.8,0-1.5-0.2-1.9-0.3l0.5-1.7
				c0.3,0.1,0.8,0.2,1.2,0.2c1.3,0,1.6-1,1.6-2.5V483.4z M140.2,479.3c0-0.9,0.7-1.4,1.5-1.4s1.5,0.6,1.5,1.4s-0.7,1.4-1.5,1.4
				C140.9,480.7,140.2,480.1,140.2,479.3z"/>
			<path id="XMLID_303_" class="st2" d="M154.6,488.1c0-1.7-0.6-3.3-2.7-3.3c-1.5,0-2.9,0.7-3.9,1.4l-0.9-1.5c1.2-0.8,3-1.7,5.1-1.7
				c3.2,0,4.5,2.1,4.5,5.4v8H155l-0.2-1.6h-0.1c-1.3,1-2.7,1.9-4.3,1.9c-2.2,0-3.8-1.4-3.8-3.7C146.6,490.2,149.1,488.8,154.6,488.1
				z M151,495c1.3,0,2.3-0.6,3.6-1.7v-3.6c-4.4,0.5-5.8,1.6-5.8,3.3C148.8,494.3,149.8,495,151,495z"/>
			<path id="XMLID_301_" class="st2" d="M160.9,483.4h1.8l0.2,1.9h0.1c1.2-1.2,2.6-2.2,4.4-2.2c2.7,0,4,1.8,4,5.1v8.3h-2.2v-8
				c0-2.4-0.8-3.5-2.5-3.5c-1.3,0-2.3,0.7-3.6,2v9.4h-2.2V483.4z"/>
		</g>
	</g>
	<g id="XMLID_74_">
		<g id="XMLID_306_">
			<path id="XMLID_320_" class="st2" d="M238.5,626.6h-6.4l-1.7,5.4h-2.3l5.9-17.6h2.5l5.9,17.6H240L238.5,626.6z M237.9,624.8
				l-0.8-2.7c-0.6-2-1.2-3.9-1.7-5.9h-0.1c-0.6,2-1.1,4-1.7,5.9l-0.9,2.7H237.9z"/>
			<path id="XMLID_317_" class="st2" d="M249.4,618.6c1.5,0,2.5,0.6,3.6,1.5l-0.1-2.2v-5h2.2V632h-1.8l-0.2-1.5H253
				c-1,1-2.4,1.8-3.9,1.8c-3.3,0-5.4-2.5-5.4-6.8C243.8,621.2,246.4,618.6,249.4,618.6z M249.6,630.4c1.2,0,2.3-0.6,3.3-1.8v-6.8
				c-1.1-1-2.1-1.4-3.2-1.4c-2.1,0-3.8,2-3.8,5C246,628.5,247.3,630.4,249.6,630.4z"/>
			<path id="XMLID_315_" class="st2" d="M258,618.9h2.3l1.9,7.5c0.3,1.2,0.5,2.4,0.8,3.6h0.1c0.3-1.2,0.6-2.4,0.9-3.6l2-7.5h2.1
				l2,7.5c0.3,1.2,0.6,2.4,0.9,3.6h0.1c0.3-1.2,0.5-2.4,0.8-3.6l1.9-7.5h2.1l-3.5,13h-2.7l-1.9-7c-0.3-1.2-0.6-2.4-0.9-3.8h-0.1
				c-0.3,1.3-0.6,2.5-0.9,3.8l-1.8,7h-2.6L258,618.9z"/>
			<path id="XMLID_312_" class="st2" d="M286.2,623.7c0-1.7-0.6-3.3-2.7-3.3c-1.5,0-2.9,0.7-3.9,1.4l-0.9-1.5c1.2-0.8,3-1.7,5.1-1.7
				c3.2,0,4.5,2.1,4.5,5.4v8h-1.8l-0.2-1.6h-0.1c-1.3,1-2.7,1.9-4.3,1.9c-2.2,0-3.8-1.4-3.8-3.7
				C278.2,625.7,280.6,624.3,286.2,623.7z M282.6,630.5c1.3,0,2.3-0.6,3.6-1.7v-3.6c-4.4,0.5-5.8,1.6-5.8,3.3
				C280.3,629.9,281.3,630.5,282.6,630.5z"/>
			<path id="XMLID_310_" class="st2" d="M292.5,618.9h1.8l0.2,2.4h0.1c0.9-1.6,2.2-2.7,3.7-2.7c0.6,0,1,0.1,1.4,0.3l-0.4,1.9
				c-0.4-0.1-0.7-0.2-1.3-0.2c-1.1,0-2.4,0.8-3.3,3v8.4h-2.2L292.5,618.9L292.5,618.9z"/>
			<path id="XMLID_307_" class="st2" d="M306.7,618.6c3.3,0,5.2,2.4,5.2,6.1c0,0.5,0,0.9-0.1,1.2H303c0.2,2.8,1.8,4.6,4.3,4.6
				c1.2,0,2.3-0.4,3.2-1l0.8,1.4c-1.1,0.7-2.5,1.3-4.3,1.3c-3.5,0-6.2-2.5-6.2-6.8C300.8,621.2,303.7,618.6,306.7,618.6z M310,624.5
				c0-2.7-1.2-4.1-3.2-4.1c-1.8,0-3.5,1.5-3.8,4.1H310z"/>
		</g>
	</g>
	<g id="XMLID_28_">
		<g id="XMLID_258_">
			<path id="XMLID_268_" class="st2" d="M435.5,614.4h2.4l2.8,9.5c0.6,2.1,1,3.8,1.7,5.8h0.1c0.6-2.1,1.1-3.7,1.7-5.8l2.8-9.5h2.3
				l-5.6,17.6h-2.6L435.5,614.4z"/>
			<path id="XMLID_265_" class="st2" d="M451,614.8c0-0.9,0.7-1.4,1.5-1.4s1.5,0.6,1.5,1.4c0,0.8-0.7,1.4-1.5,1.4
				S451,615.7,451,614.8z M451.4,618.9h2.2v13h-2.2V618.9z"/>
			<path id="XMLID_263_" class="st2" d="M458,618.9h1.8l0.2,2.4h0.1c0.9-1.6,2.2-2.7,3.7-2.7c0.6,0,1,0.1,1.4,0.3l-0.4,1.9
				c-0.4-0.1-0.7-0.2-1.3-0.2c-1.1,0-2.4,0.8-3.3,3v8.4H458V618.9z"/>
			<path id="XMLID_261_" class="st2" d="M467.1,618.9h2.2v8c0,2.4,0.7,3.5,2.4,3.5c1.3,0,2.3-0.7,3.5-2.2V619h2.2v13h-1.8l-0.2-2
				h-0.1c-1.2,1.4-2.5,2.4-4.3,2.4c-2.8,0-4-1.8-4-5.1L467.1,618.9L467.1,618.9z"/>
			<path id="XMLID_259_" class="st2" d="M481.5,629c1.1,0.9,2.3,1.6,3.8,1.6c1.7,0,2.6-0.9,2.6-2c0-1.3-1.6-1.9-3-2.5
				c-1.8-0.7-3.9-1.6-3.9-3.8c0-2.1,1.7-3.7,4.5-3.7c1.6,0,3.1,0.7,4,1.5l-1,1.4c-0.9-0.7-1.8-1.2-3-1.2c-1.6,0-2.4,0.9-2.4,1.9
				c0,1.2,1.4,1.7,2.9,2.3c1.9,0.7,4,1.5,4,3.9c0,2.1-1.7,3.9-4.8,3.9c-1.8,0-3.6-0.8-4.8-1.8L481.5,629z"/>
		</g>
	</g>
	<g id="XMLID_1_">
		<g id="XMLID_227_">
			<path id="XMLID_233_" class="st2" d="M588,490.9h-6.4l-1.7,5.4h-2.3l5.9-17.6h2.5l5.9,17.6h-2.4L588,490.9z M587.4,489.1
				l-0.8-2.7c-0.6-2-1.2-3.9-1.7-5.9h-0.1c-0.6,2-1.1,4-1.7,5.9l-0.9,2.7H587.4z"/>
			<path id="XMLID_230_" class="st2" d="M594.4,478.7h5.4c3.9,0,6.5,1.3,6.5,5.2c0,3.7-2.7,5.4-6.5,5.4h-3.2v7h-2.3L594.4,478.7
				L594.4,478.7z M599.5,487.5c3.1,0,4.6-1.1,4.6-3.6s-1.5-3.4-4.6-3.4h-2.9v7H599.5z"/>
			<path id="XMLID_228_" class="st2" d="M613.4,480.6H608v-1.9h12.9v1.9h-5.3v15.7h-2.2V480.6z"/>
		</g>
	</g>
	<polyline id="XMLID_1570_" class="st3" points="425.6,326 463.1,288.5 463.1,251 	"/>
	<polyline id="XMLID_2906_" class="st3" points="434.6,334.2 472.1,296.7 509.6,296.7 	"/>
	<polyline id="XMLID_2974_" class="st3" points="310,326 272.6,288.5 272.6,251 	"/>
	<polyline id="XMLID_2917_" class="st3" points="301.1,334.2 263.6,296.7 226.1,296.7 	"/>
	<polyline id="XMLID_2989_" class="st3" points="310,458.8 272.6,496.2 272.6,533.8 	"/>
	<polyline id="XMLID_2982_" class="st3" points="301.1,450.6 263.6,488 226.1,488 	"/>
	<polyline id="XMLID_2975_" class="st3" points="425.6,458.8 463.1,496.2 463.1,533.8 	"/>
	<polyline id="XMLID_2905_" class="st3" points="434.6,450.6 472.1,488 509.6,488 	"/>
	<g id="PNS_13_">
		<path id="XMLID_966_" class="st4" d="M309.4,334.5L288,359.8l42.9,100.4l42.8,24.7l-42.8-100.3l42.8,24.7L362.3,423l21.5,50.1
			l32.8-39l-21.4-50l-30.7-17.7l-12.2-7l-7.1-16.8l-28.6-16.5L309.4,334.5z"/>
		<path id="XMLID_927_" class="st4" d="M383.8,473l32.3-19.1l32.8-39l-7.8-18.3l-13.6-31.7L384.6,340l-7.1-16.8l-28.6-16.5
			l-32.3,19.1 M405.6,460l2.4,5.1L373.5,485"/>
		<line id="XMLID_926_" class="st4" x1="345.3" y1="342.5" x2="377.6" y2="323.3"/>
		<line id="XMLID_909_" class="st4" x1="352.3" y1="359.3" x2="384.6" y2="340"/>
		<line id="XMLID_907_" class="st4" x1="395.2" y1="384" x2="427.6" y2="364.9"/>
	</g>
</g>
</svg>
