<?xml version="1.0" encoding="utf-8"?>
<!-- Generator: Adobe Illustrator 25.0.1, SVG Export Plug-In . SVG Version: 6.00 Build 0)  -->
<svg version="1.1" id="Layer_1" xmlns="http://www.w3.org/2000/svg" xmlns:xlink="http://www.w3.org/1999/xlink" x="0px" y="0px"
	 viewBox="0 0 826.2 256" style="enable-background:new 0 0 826.2 256;" xml:space="preserve">
<style type="text/css">
	.st0{fill:#4C97FE;}
	.st1{fill:none;stroke:#153F6C;stroke-width:3.4597;stroke-miterlimit:10;}
	.st2{fill:#153F6C;}
	.st3{opacity:0.52;fill:none;stroke:#4C97FE;stroke-width:2.7759;stroke-dasharray:8.3276;enable-background:new    ;}
	.st4{fill:#FFFFFF;}
	.st5{fill:none;stroke:#FFFFFF;stroke-width:0.9592;stroke-linecap:round;stroke-linejoin:round;stroke-miterlimit:22.9256;}
	.st6{fill:none;stroke:#4C97FE;stroke-width:1.8869;stroke-linejoin:round;stroke-miterlimit:10;}
	.st7{fill:none;stroke:#4C97FE;stroke-miterlimit:10;}
</style>
<g id="XMLID_241_">
	<g id="XMLID_370_">
		<path id="XMLID_383_" class="st0" d="M741.5,38.3c1.2,1.3,2.9,2.1,4.7,2.1c2.2,0,3.5-1.1,3.5-2.8s-1.2-2.3-2.8-3l-2.4-1.1
			c-1.6-0.7-3.4-1.9-3.4-4.4c0-2.6,2.3-4.5,5.4-4.5c2,0,3.8,0.9,5,2.1l-1.1,1.4c-1-1-2.3-1.6-3.9-1.6c-1.9,0-3.2,1-3.2,2.5
			c0,1.6,1.5,2.3,2.8,2.8l2.4,1c2,0.9,3.5,2,3.5,4.5c0,2.7-2.2,4.8-5.8,4.8c-2.4,0-4.5-1-5.9-2.5L741.5,38.3z"/>
		<path id="XMLID_380_" class="st0" d="M759.7,29.2c3.2,0,5,2.3,5,5.9c0,0.4,0,0.9-0.1,1.2h-8.5c0.2,2.7,1.8,4.4,4.2,4.4
			c1.2,0,2.2-0.4,3.1-1l0.8,1.4c-1.1,0.7-2.4,1.3-4.1,1.3c-3.4,0-6-2.5-6-6.6S756.8,29.2,759.7,29.2z M762.9,34.8c0-2.6-1.1-4-3.1-4
			c-1.8,0-3.4,1.5-3.6,4H762.9z"/>
		<path id="XMLID_378_" class="st0" d="M767.8,29.5h1.8l0.2,2.3h0.1c0.9-1.6,2.1-2.6,3.6-2.6c0.5,0,0.9,0.1,1.3,0.3l-0.4,1.9
			c-0.4-0.1-0.7-0.2-1.2-0.2c-1.1,0-2.3,0.8-3.2,2.9v8.1h-2.1L767.8,29.5L767.8,29.5z"/>
		<path id="XMLID_376_" class="st0" d="M775,29.5h2.2l2.4,7.1c0.4,1.2,0.8,2.5,1.2,3.7h0.1c0.4-1.2,0.8-2.5,1.1-3.7l2.4-7.1h2.1
			L782,42.1h-2.5L775,29.5z"/>
		<path id="XMLID_373_" class="st0" d="M793.6,29.2c3.2,0,5,2.3,5,5.9c0,0.4,0,0.9-0.1,1.2H790c0.2,2.7,1.8,4.4,4.2,4.4
			c1.2,0,2.2-0.4,3.1-1l0.8,1.4c-1.1,0.7-2.4,1.3-4.1,1.3c-3.4,0-6-2.5-6-6.6S790.7,29.2,793.6,29.2z M796.8,34.8c0-2.6-1.1-4-3.1-4
			c-1.8,0-3.4,1.5-3.6,4H796.8z"/>
		<path id="XMLID_371_" class="st0" d="M801.8,29.5h1.8l0.2,2.3h0.1c0.9-1.6,2.1-2.6,3.6-2.6c0.5,0,0.9,0.1,1.3,0.3l-0.4,1.9
			c-0.4-0.1-0.7-0.2-1.2-0.2c-1.1,0-2.3,0.8-3.2,2.9v8.1h-2.1L801.8,29.5L801.8,29.5z"/>
	</g>
</g>
<g id="XMLID_1016_">
	<g id="XMLID_105_">
		<line id="XMLID_108_" class="st1" x1="478.5" y1="105.7" x2="725.8" y2="105.7"/>
		<g id="XMLID_106_">
			<polygon id="XMLID_107_" class="st2" points="718.9,111.6 724.8,105.7 718.9,99.9 723.9,99.9 729.7,105.7 723.9,111.6 			"/>
		</g>
	</g>
</g>
<g id="XMLID_1010_">
	<g id="XMLID_100_">
		<line id="XMLID_103_" class="st1" x1="94.7" y1="105.7" x2="349.3" y2="105.7"/>
		<g id="XMLID_101_">
			<polygon id="XMLID_102_" class="st2" points="101.6,111.6 95.7,105.7 101.6,99.9 96.6,99.9 90.7,105.7 96.6,111.6 			"/>
		</g>
	</g>
</g>
<line id="XMLID_1009_" class="st3" x1="349.3" y1="105.7" x2="425.5" y2="105.7"/>
<line id="XMLID_1249_" class="st3" x1="439" y1="105.7" x2="478" y2="105.7"/>
<g id="XMLID_188_">
	<g id="XMLID_638_">
		<path id="XMLID_805_" class="st0" d="M364.5,17.9h5.8c3.2,0,6,1.2,6,5c0,3.7-2.9,5.3-6,5.3h-1.9V33h-4V17.9H364.5z M370.1,25
			c1.6,0,2.3-0.8,2.3-2.1c0-1.3-0.8-1.9-2.3-1.9h-1.7v4H370.1z"/>
		<path id="XMLID_802_" class="st0" d="M386.9,32.9l-2.6-5h-1.5v5h-4v-15h5.7c3.2,0,6,1.1,6,4.9c0,2.2-1,3.6-2.4,4.4l3.3,5.8
			L386.9,32.9L386.9,32.9z M382.8,24.7h1.4c1.6,0,2.4-0.7,2.4-2s-0.8-1.7-2.4-1.7h-1.4V24.7z"/>
		<path id="XMLID_799_" class="st0" d="M392.7,25.3c0-5,2.8-7.7,7-7.7s7,2.8,7,7.7c0,5-2.8,7.9-7,7.9S392.7,30.3,392.7,25.3z
			 M402.6,25.3c0-2.7-1.1-4.3-2.9-4.3s-2.9,1.6-2.9,4.3s1.1,4.4,2.9,4.4C401.5,29.8,402.6,28.1,402.6,25.3z"/>
		<path id="XMLID_797_" class="st0" d="M412,25.2l-3.8-7.3h4.4l1,2.5c0.3,0.7,0.6,1.5,1.1,2.5h0.1c0.3-1,0.6-1.8,0.9-2.5l0.9-2.5
			h4.3l-3.8,7.5l4.1,7.5h-4.4l-1.2-2.7c-0.4-0.8-0.7-1.6-1.1-2.5h-0.1c-0.3,0.9-0.6,1.7-1,2.5l-1.1,2.7H408L412,25.2z"/>
		<path id="XMLID_795_" class="st0" d="M423,17.9h9.7v3.3H427v2.4h4.9v3.3H427v2.7h6v3.3h-10V17.9z"/>
		<path id="XMLID_792_" class="st0" d="M435.8,17.9h4.4c4.6,0,7.7,2.1,7.7,7.5c0,5.3-3.1,7.6-7.5,7.6h-4.7V17.9H435.8z M440.1,29.7
			c2.2,0,3.9-0.9,3.9-4.4s-1.7-4.3-3.9-4.3h-0.2v8.7H440.1z"/>
		<path id="XMLID_789_" class="st0" d="M450.1,25.3c0-5,2.8-7.7,7-7.7s7,2.8,7,7.7c0,5-2.8,7.9-7,7.9S450.1,30.3,450.1,25.3z
			 M460,25.3c0-2.7-1.1-4.3-2.9-4.3s-2.9,1.6-2.9,4.3s1.1,4.4,2.9,4.4C458.9,29.8,460,28.1,460,25.3z"/>
		<path id="XMLID_670_" class="st0" d="M309.1,38.6h4.1l3.3,6.7l1.4,3.4h0.1c-0.2-1.6-0.5-3.9-0.5-5.7v-4.4h3.8v15h-4.1l-3.3-6.7
			l-1.4-3.4h-0.1c0.2,1.7,0.5,3.9,0.5,5.7v4.4h-3.8V38.6z"/>
		<path id="XMLID_668_" class="st0" d="M324.6,38.6h9.7V42h-5.7v2.4h4.9v3.3h-4.9v2.7h6v3.3h-10V38.6z"/>
		<path id="XMLID_666_" class="st0" d="M340.3,42h-4v-3.3h11.9V42h-4v11.7h-4V42H340.3z"/>
		<path id="XMLID_664_" class="st0" d="M349.1,38.6h4.1l0.8,6.6c0.2,1.6,0.3,3.1,0.5,4.7h0.1c0.3-1.6,0.6-3.2,0.8-4.7l1.4-6.6h3.3
			l1.4,6.6c0.3,1.5,0.6,3.1,0.8,4.7h0.1c0.2-1.6,0.3-3.2,0.5-4.7l0.8-6.6h3.8l-2.5,15h-5l-1.2-6c-0.2-1.2-0.4-2.4-0.6-3.5h-0.1
			c-0.2,1.1-0.3,2.4-0.6,3.5l-1.1,6h-5L349.1,38.6z"/>
		<path id="XMLID_661_" class="st0" d="M368.9,46.1c0-5,2.8-7.7,7-7.7s7,2.8,7,7.7c0,5-2.8,7.9-7,7.9C371.8,54,368.9,51,368.9,46.1z
			 M378.9,46.1c0-2.7-1.1-4.3-2.9-4.3s-2.9,1.6-2.9,4.3s1.1,4.4,2.9,4.4C377.7,50.5,378.9,48.8,378.9,46.1z"/>
		<path id="XMLID_658_" class="st0" d="M393.7,53.7l-2.6-5h-1.5v5h-4v-15h5.7c3.2,0,6,1.1,6,4.9c0,2.2-1,3.6-2.4,4.4l3.3,5.8h-4.5
			V53.7z M389.6,45.5h1.4c1.6,0,2.4-0.7,2.4-2s-0.8-1.7-2.4-1.7h-1.4V45.5z"/>
		<path id="XMLID_656_" class="st0" d="M400.2,38.6h4v5.6h0.1l3.8-5.6h4.4l-4.5,6.1l5.4,8.9H409l-3.3-5.8l-1.4,2v3.8h-4v-15H400.2z"
			/>
		<path id="XMLID_654_" class="st0" d="M420.9,49.1c1.1,0.9,2.4,1.5,3.5,1.5c1.2,0,1.7-0.4,1.7-1.1c0-0.7-0.8-0.9-2-1.5l-1.9-0.8
			c-1.6-0.6-3-2-3-4.2c0-2.6,2.3-4.7,5.6-4.7c1.7,0,3.6,0.6,5,2l-2,2.5c-1-0.7-1.9-1.1-3-1.1c-1,0-1.6,0.3-1.6,1s0.9,1,2.2,1.5
			l1.8,0.7c1.9,0.7,2.9,2,2.9,4.1c0,2.5-2.1,4.8-5.9,4.8c-1.9,0-4.1-0.7-5.7-2.2L420.9,49.1z"/>
		<path id="XMLID_652_" class="st0" d="M432.6,38.6h9.7V42h-5.7v2.4h4.9v3.3h-4.9v2.7h6v3.3h-10V38.6z"/>
		<path id="XMLID_650_" class="st0" d="M452.2,38.4c1.9,0,3.5,0.9,4.6,2l-2.2,2.5c-0.7-0.6-1.4-1-2.4-1c-1.8,0-3.3,1.6-3.3,4.4
			c0,2.8,1.3,4.4,3.2,4.4c1.2,0,2-0.5,2.6-1.2l2.2,2.4c-1.3,1.5-3,2.2-4.9,2.2c-3.9,0-7.3-2.5-7.3-7.7
			C444.8,41.2,448.3,38.4,452.2,38.4z"/>
		<path id="XMLID_648_" class="st0" d="M459,38.6h4v8.2c0,2.7,0.7,3.7,2.3,3.7c1.6,0,2.3-1,2.3-3.7v-8.2h3.8v7.8
			c0,5.1-1.9,7.5-6.2,7.5s-6.2-2.4-6.2-7.5L459,38.6L459,38.6z"/>
		<path id="XMLID_645_" class="st0" d="M482.7,53.7l-2.6-5h-1.5v5h-4v-15h5.7c3.2,0,6,1.1,6,4.9c0,2.2-1,3.6-2.4,4.4l3.3,5.8h-4.5
			V53.7z M478.6,45.5h1.4c1.6,0,2.4-0.7,2.4-2s-0.8-1.7-2.4-1.7h-1.4V45.5z"/>
		<path id="XMLID_643_" class="st0" d="M489.2,38.6h4v15h-4V38.6z"/>
		<path id="XMLID_641_" class="st0" d="M499.4,42h-4v-3.3h11.9V42h-4v11.7h-4V42H499.4z"/>
		<path id="XMLID_639_" class="st0" d="M512.2,48.5l-4.5-9.9h4.3l1.1,3.1c0.4,1.1,0.7,2.2,1.1,3.4h0.1c0.4-1.2,0.8-2.2,1.2-3.4
			l1.1-3.1h4.2l-4.5,9.9v5.2h-4L512.2,48.5L512.2,48.5z"/>
	</g>
</g>
<g id="XMLID_130_">
	<g id="XMLID_730_">
		<path id="XMLID_787_" class="st4" d="M500.1,118.8h1.4v4.5h5v-4.5h1.4v10.7h-1.4v-5h-5v5h-1.4V118.8z"/>
		<path id="XMLID_785_" class="st4" d="M512.9,120h-3.2v-1.1h7.8v1.1h-3.2v9.6h-1.4L512.9,120L512.9,120z"/>
		<path id="XMLID_783_" class="st4" d="M521.6,120h-3.2v-1.1h7.8v1.1H523v9.6h-1.4L521.6,120L521.6,120z"/>
		<path id="XMLID_780_" class="st4" d="M528,118.8h3.3c2.4,0,3.9,0.8,3.9,3.1c0,2.3-1.6,3.3-3.9,3.3h-1.9v4.2H528V118.8z
			 M531.1,124.2c1.9,0,2.8-0.7,2.8-2.2s-0.9-2.1-2.8-2.1h-1.7v4.3C529.4,124.2,531.1,124.2,531.1,124.2z"/>
		<path id="XMLID_778_" class="st4" d="M537.2,125c0-2.9,0.8-5.2,2.2-7.4l0.8,0.4c-1.3,2.1-1.9,4.5-1.9,7s0.6,4.9,1.9,7l-0.8,0.4
			C538,130.2,537.2,127.9,537.2,125z"/>
		<path id="XMLID_776_" class="st4" d="M542.3,127.2c0.8,0.8,1.8,1.3,3,1.3c1.4,0,2.2-0.7,2.2-1.7c0-1.1-0.8-1.4-1.8-1.9l-1.5-0.7
			c-1-0.4-2.2-1.2-2.2-2.8c0-1.6,1.4-2.8,3.4-2.8c1.3,0,2.4,0.5,3.1,1.3l-0.7,0.9c-0.7-0.6-1.5-1-2.4-1c-1.2,0-2,0.6-2,1.6
			s0.9,1.4,1.8,1.8l1.5,0.7c1.2,0.5,2.2,1.3,2.2,2.9c0,1.7-1.4,3.1-3.7,3.1c-1.5,0-2.8-0.6-3.7-1.6L542.3,127.2z"/>
		<path id="XMLID_774_" class="st4" d="M552,125c0-2.5-0.6-4.9-1.9-7l0.8-0.4c1.4,2.2,2.2,4.5,2.2,7.4s-0.8,5.2-2.2,7.4l-0.8-0.4
			C551.3,129.9,552,127.5,552,125z"/>
		<path id="XMLID_772_" class="st4" d="M555.2,131.5c0.9-0.4,1.5-1.1,1.5-2c0,0-0.1,0-0.2,0c-0.5,0-1-0.3-1-0.9c0-0.6,0.5-0.9,1-0.9
			c0.7,0,1.1,0.6,1.1,1.6c0,1.4-0.8,2.5-2.1,3.1L555.2,131.5z"/>
		<path id="XMLID_770_" class="st4" d="M563.2,127.2c0.8,0.8,1.8,1.3,3,1.3c1.4,0,2.2-0.7,2.2-1.7c0-1.1-0.8-1.4-1.8-1.9l-1.5-0.7
			c-1-0.4-2.2-1.2-2.2-2.8c0-1.6,1.4-2.8,3.4-2.8c1.3,0,2.4,0.5,3.1,1.3l-0.7,0.9c-0.7-0.6-1.5-1-2.4-1c-1.2,0-2,0.6-2,1.6
			s0.9,1.4,1.8,1.8l1.5,0.7c1.2,0.5,2.2,1.3,2.2,2.9c0,1.7-1.4,3.1-3.7,3.1c-1.5,0-2.8-0.6-3.7-1.6L563.2,127.2z"/>
		<path id="XMLID_768_" class="st4" d="M571.9,127.2c0.8,0.8,1.8,1.3,3,1.3c1.4,0,2.2-0.7,2.2-1.7c0-1.1-0.8-1.4-1.8-1.9l-1.5-0.7
			c-1-0.4-2.2-1.2-2.2-2.8c0-1.6,1.4-2.8,3.4-2.8c1.3,0,2.4,0.5,3.1,1.3l-0.7,0.9c-0.7-0.6-1.5-1-2.4-1c-1.2,0-2,0.6-2,1.6
			s0.9,1.4,1.8,1.8l1.5,0.7c1.2,0.5,2.2,1.3,2.2,2.9c0,1.7-1.4,3.1-3.7,3.1c-1.5,0-2.8-0.6-3.7-1.6L571.9,127.2z"/>
		<path id="XMLID_766_" class="st4" d="M580.4,118.8h1.4v4.5h5v-4.5h1.4v10.7h-1.4v-5h-5v5h-1.4V118.8z"/>
		<path id="XMLID_764_" class="st4" d="M590.3,131.5c0.9-0.4,1.5-1.1,1.5-2c0,0-0.1,0-0.2,0c-0.5,0-1-0.3-1-0.9c0-0.6,0.5-0.9,1-0.9
			c0.7,0,1.1,0.6,1.1,1.6c0,1.4-0.8,2.5-2.1,3.1L590.3,131.5z"/>
		<path id="XMLID_762_" class="st4" d="M598.3,118.8h1.6l2.1,5.7l0.8,2.2h0.1l0.8-2.2l2.1-5.7h1.6v10.7H606v-5.9
			c0-0.9,0.1-2.2,0.2-3.2h-0.1l-0.8,2.4l-2.1,5.6h-0.8l-2.1-5.6l-0.8-2.4h-0.1c0.1,0.9,0.2,2.2,0.2,3.2v5.9h-1.3L598.3,118.8
			L598.3,118.8z"/>
		<path id="XMLID_760_" class="st4" d="M610.2,127.2c0.8,0.8,1.8,1.3,3,1.3c1.4,0,2.2-0.7,2.2-1.7c0-1.1-0.8-1.4-1.8-1.9l-1.5-0.7
			c-1-0.4-2.2-1.2-2.2-2.8c0-1.6,1.4-2.8,3.4-2.8c1.3,0,2.4,0.5,3.1,1.3l-0.7,0.9c-0.7-0.6-1.5-1-2.4-1c-1.2,0-2,0.6-2,1.6
			s0.9,1.4,1.8,1.8l1.5,0.7c1.2,0.5,2.2,1.3,2.2,2.9c0,1.7-1.4,3.1-3.7,3.1c-1.5,0-2.8-0.6-3.7-1.6L610.2,127.2z"/>
		<path id="XMLID_756_" class="st4" d="M624.6,129.5L622,125h-1.9v4.5h-1.4v-10.7h3.4c2.2,0,3.7,0.8,3.7,3c0,1.7-0.9,2.7-2.4,3
			l2.7,4.7H624.6z M620.1,123.9h1.8c1.7,0,2.6-0.7,2.6-2.1s-0.9-1.9-2.6-1.9h-1.8V123.9z"/>
		<path id="XMLID_753_" class="st4" d="M628.1,118.8h3.3c2.4,0,3.9,0.8,3.9,3.1c0,2.3-1.6,3.3-3.9,3.3h-1.9v4.2h-1.4L628.1,118.8
			L628.1,118.8z M631.2,124.2c1.9,0,2.8-0.7,2.8-2.2s-0.9-2.1-2.8-2.1h-1.7v4.3C629.5,124.2,631.2,124.2,631.2,124.2z"/>
		<path id="XMLID_751_" class="st4" d="M641.6,118.6c1.3,0,2.3,0.6,2.9,1.3l-0.8,0.9c-0.6-0.6-1.3-1-2.1-1c-2,0-3.4,1.7-3.4,4.3
			c0,2.7,1.3,4.4,3.3,4.4c1,0,1.8-0.4,2.4-1.2l0.8,0.8c-0.8,1-1.9,1.5-3.2,1.5c-2.7,0-4.7-2.1-4.7-5.5
			C636.8,120.7,638.9,118.6,641.6,118.6z"/>
		<path id="XMLID_749_" class="st4" d="M646,131.5c0.9-0.4,1.5-1.1,1.5-2c0,0-0.1,0-0.2,0c-0.5,0-1-0.3-1-0.9c0-0.6,0.5-0.9,1-0.9
			c0.7,0,1.1,0.6,1.1,1.6c0,1.4-0.8,2.5-2.1,3.1L646,131.5z"/>
		<path id="XMLID_747_" class="st4" d="M654.1,127.2c0.8,0.8,1.8,1.3,3,1.3c1.4,0,2.2-0.7,2.2-1.7c0-1.1-0.8-1.4-1.8-1.9l-1.5-0.7
			c-1-0.4-2.2-1.2-2.2-2.8c0-1.6,1.4-2.8,3.4-2.8c1.3,0,2.4,0.5,3.1,1.3l-0.7,0.9c-0.7-0.6-1.5-1-2.4-1c-1.2,0-2,0.6-2,1.6
			s0.9,1.4,1.8,1.8l1.5,0.7c1.2,0.5,2.2,1.3,2.2,2.9c0,1.7-1.4,3.1-3.7,3.1c-1.5,0-2.8-0.6-3.7-1.6L654.1,127.2z"/>
		<path id="XMLID_745_" class="st4" d="M662.6,118.8h1.4v10.7h-1.4V118.8z"/>
		<path id="XMLID_742_" class="st4" d="M666.8,118.8h3.3c2.4,0,3.9,0.8,3.9,3.1c0,2.3-1.6,3.3-3.9,3.3h-1.9v4.2h-1.4L666.8,118.8
			L666.8,118.8z M670,124.2c1.9,0,2.8-0.7,2.8-2.2s-0.9-2.1-2.8-2.1h-1.7v4.3C668.3,124.2,670,124.2,670,124.2z"/>
		<path id="XMLID_740_" class="st4" d="M675.5,131.5c0.9-0.4,1.5-1.1,1.5-2c0,0-0.1,0-0.2,0c-0.5,0-1-0.3-1-0.9c0-0.6,0.5-0.9,1-0.9
			c0.7,0,1.1,0.6,1.1,1.6c0,1.4-0.8,2.5-2.1,3.1L675.5,131.5z"/>
		<path id="XMLID_737_" class="st4" d="M686.4,121.4c2,0,3.2,1.5,3.2,3.7c0,0.3,0,0.5,0,0.7h-5.4c0.1,1.7,1.1,2.8,2.6,2.8
			c0.8,0,1.4-0.2,2-0.6l0.5,0.9c-0.7,0.4-1.5,0.8-2.6,0.8c-2.1,0-3.8-1.5-3.8-4.1C682.8,123,684.6,121.4,686.4,121.4z M688.4,125
			c0-1.6-0.7-2.5-2-2.5c-1.1,0-2.1,0.9-2.3,2.5H688.4z"/>
		<path id="XMLID_735_" class="st4" d="M691.7,122.7h-1.2v-1l1.2-0.1l0.2-2.2h1.1v2.2h2.1v1.1H693v4.4c0,1,0.3,1.5,1.2,1.5
			c0.3,0,0.6-0.1,0.9-0.2l0.3,1c-0.4,0.1-1,0.3-1.5,0.3c-1.7,0-2.3-1.1-2.3-2.6L691.7,122.7L691.7,122.7z"/>
		<path id="XMLID_733_" class="st4" d="M700.3,121.4c1,0,1.8,0.4,2.3,0.9l-0.7,0.9c-0.5-0.4-1-0.7-1.6-0.7c-1.4,0-2.5,1.2-2.5,3.1
			c0,1.8,1,3,2.4,3c0.8,0,1.4-0.4,1.9-0.8l0.6,0.9c-0.7,0.6-1.6,1-2.6,1c-2.1,0-3.7-1.5-3.7-4.1
			C696.4,122.9,698.2,121.4,700.3,121.4z"/>
		<path id="XMLID_731_" class="st4" d="M705.2,127.7c0.5,0,1,0.4,1,1s-0.4,1-1,1c-0.5,0-1-0.4-1-1
			C704.2,128.1,704.6,127.7,705.2,127.7z"/>
	</g>
</g>
<g id="XMLID_62_">
	<g id="XMLID_671_">
		<path id="XMLID_727_" class="st4" d="M123.3,118.8h1.4v4.5h5v-4.5h1.4v10.7h-1.4v-5h-5v5h-1.4
			C123.3,129.5,123.3,118.8,123.3,118.8z"/>
		<path id="XMLID_725_" class="st4" d="M136.1,120h-3.2v-1.1h7.8v1.1h-3.2v9.6h-1.4L136.1,120L136.1,120z"/>
		<path id="XMLID_723_" class="st4" d="M144.8,120h-3.2v-1.1h7.8v1.1h-3.2v9.6h-1.4L144.8,120L144.8,120z"/>
		<path id="XMLID_720_" class="st4" d="M151.2,118.8h3.3c2.4,0,3.9,0.8,3.9,3.1c0,2.3-1.6,3.3-3.9,3.3h-1.9v4.2h-1.4L151.2,118.8
			L151.2,118.8z M154.3,124.2c1.9,0,2.8-0.7,2.8-2.2s-0.9-2.1-2.8-2.1h-1.7v4.3C152.6,124.2,154.3,124.2,154.3,124.2z"/>
		<path id="XMLID_718_" class="st4" d="M160.4,125c0-2.9,0.8-5.2,2.2-7.4l0.8,0.4c-1.3,2.1-1.9,4.5-1.9,7s0.6,4.9,1.9,7l-0.8,0.4
			C161.2,130.2,160.4,127.9,160.4,125z"/>
		<path id="XMLID_716_" class="st4" d="M165.5,127.2c0.8,0.8,1.8,1.3,3,1.3c1.4,0,2.2-0.7,2.2-1.7c0-1.1-0.8-1.4-1.8-1.9l-1.5-0.7
			c-1-0.4-2.2-1.2-2.2-2.8c0-1.6,1.4-2.8,3.4-2.8c1.3,0,2.4,0.5,3.1,1.3l-0.7,0.9c-0.7-0.6-1.5-1-2.4-1c-1.2,0-2,0.6-2,1.6
			s0.9,1.4,1.8,1.8l1.5,0.7c1.2,0.5,2.2,1.3,2.2,2.9c0,1.7-1.4,3.1-3.7,3.1c-1.5,0-2.8-0.6-3.7-1.6L165.5,127.2z"/>
		<path id="XMLID_714_" class="st4" d="M175.1,125c0-2.5-0.6-4.9-1.9-7l0.8-0.4c1.4,2.2,2.2,4.5,2.2,7.4s-0.8,5.2-2.2,7.4l-0.8-0.4
			C174.5,129.9,175.1,127.5,175.1,125z"/>
		<path id="XMLID_712_" class="st4" d="M178.3,131.5c0.9-0.4,1.5-1.1,1.5-2c0,0-0.1,0-0.2,0c-0.5,0-1-0.3-1-0.9c0-0.6,0.5-0.9,1-0.9
			c0.7,0,1.1,0.6,1.1,1.6c0,1.4-0.8,2.5-2.1,3.1L178.3,131.5z"/>
		<path id="XMLID_710_" class="st4" d="M186.4,127.2c0.8,0.8,1.8,1.3,3,1.3c1.4,0,2.2-0.7,2.2-1.7c0-1.1-0.8-1.4-1.8-1.9l-1.5-0.7
			c-1-0.4-2.2-1.2-2.2-2.8c0-1.6,1.4-2.8,3.4-2.8c1.3,0,2.4,0.5,3.1,1.3l-0.7,0.9c-0.7-0.6-1.5-1-2.4-1c-1.2,0-2,0.6-2,1.6
			s0.9,1.4,1.8,1.8l1.5,0.7c1.2,0.5,2.2,1.3,2.2,2.9c0,1.7-1.4,3.1-3.7,3.1c-1.5,0-2.8-0.6-3.7-1.6L186.4,127.2z"/>
		<path id="XMLID_708_" class="st4" d="M195,127.2c0.8,0.8,1.8,1.3,3,1.3c1.4,0,2.2-0.7,2.2-1.7c0-1.1-0.8-1.4-1.8-1.9l-1.5-0.7
			c-1-0.4-2.2-1.2-2.2-2.8c0-1.6,1.4-2.8,3.4-2.8c1.3,0,2.4,0.5,3.1,1.3l-0.7,0.9c-0.7-0.6-1.5-1-2.4-1c-1.2,0-2,0.6-2,1.6
			s0.9,1.4,1.8,1.8l1.5,0.7c1.2,0.5,2.2,1.3,2.2,2.9c0,1.7-1.4,3.1-3.7,3.1c-1.5,0-2.8-0.6-3.7-1.6L195,127.2z"/>
		<path id="XMLID_706_" class="st4" d="M203.6,118.8h1.4v4.5h5v-4.5h1.4v10.7H210v-5h-5v5h-1.4V118.8z"/>
		<path id="XMLID_704_" class="st4" d="M213.5,131.5c0.9-0.4,1.5-1.1,1.5-2c0,0-0.1,0-0.2,0c-0.5,0-1-0.3-1-0.9c0-0.6,0.5-0.9,1-0.9
			c0.7,0,1.1,0.6,1.1,1.6c0,1.4-0.8,2.5-2.1,3.1L213.5,131.5z"/>
		<path id="XMLID_702_" class="st4" d="M221.5,118.8h1.6l2.1,5.7l0.8,2.2h0.1l0.8-2.2l2.1-5.7h1.6v10.7h-1.3v-5.9
			c0-0.9,0.1-2.2,0.2-3.2h-0.1l-0.8,2.4l-2.1,5.6h-0.8l-2.1-5.6l-0.8-2.4h-0.1c0.1,0.9,0.2,2.2,0.2,3.2v5.9h-1.3L221.5,118.8
			L221.5,118.8z"/>
		<path id="XMLID_700_" class="st4" d="M233.3,127.2c0.8,0.8,1.8,1.3,3,1.3c1.4,0,2.2-0.7,2.2-1.7c0-1.1-0.8-1.4-1.8-1.9l-1.5-0.7
			c-1-0.4-2.2-1.2-2.2-2.8c0-1.6,1.4-2.8,3.4-2.8c1.3,0,2.4,0.5,3.1,1.3l-0.7,0.9c-0.7-0.6-1.5-1-2.4-1c-1.2,0-2,0.6-2,1.6
			s0.9,1.4,1.8,1.8l1.5,0.7c1.2,0.5,2.2,1.3,2.2,2.9c0,1.7-1.4,3.1-3.7,3.1c-1.5,0-2.8-0.6-3.7-1.6L233.3,127.2z"/>
		<path id="XMLID_697_" class="st4" d="M247.8,129.5l-2.6-4.5h-1.9v4.5h-1.4v-10.7h3.4c2.2,0,3.7,0.8,3.7,3c0,1.7-0.9,2.7-2.4,3
			l2.7,4.7H247.8z M243.3,123.9h1.8c1.7,0,2.6-0.7,2.6-2.1s-0.9-1.9-2.6-1.9h-1.8V123.9z"/>
		<path id="XMLID_694_" class="st4" d="M251.3,118.8h3.3c2.4,0,3.9,0.8,3.9,3.1c0,2.3-1.6,3.3-3.9,3.3h-1.9v4.2h-1.4L251.3,118.8
			L251.3,118.8z M254.4,124.2c1.9,0,2.8-0.7,2.8-2.2s-0.9-2.1-2.8-2.1h-1.7v4.3C252.7,124.2,254.4,124.2,254.4,124.2z"/>
		<path id="XMLID_692_" class="st4" d="M264.8,118.6c1.3,0,2.3,0.6,2.9,1.3l-0.8,0.9c-0.6-0.6-1.3-1-2.1-1c-2,0-3.4,1.7-3.4,4.3
			c0,2.7,1.3,4.4,3.3,4.4c1,0,1.8-0.4,2.4-1.2l0.8,0.8c-0.8,1-1.9,1.5-3.2,1.5c-2.7,0-4.7-2.1-4.7-5.5
			C260,120.7,262,118.6,264.8,118.6z"/>
		<path id="XMLID_690_" class="st4" d="M269.2,131.5c0.9-0.4,1.5-1.1,1.5-2c0,0-0.1,0-0.2,0c-0.5,0-1-0.3-1-0.9c0-0.6,0.5-0.9,1-0.9
			c0.7,0,1.1,0.6,1.1,1.6c0,1.4-0.8,2.5-2.1,3.1L269.2,131.5z"/>
		<path id="XMLID_688_" class="st4" d="M277.2,127.2c0.8,0.8,1.8,1.3,3,1.3c1.4,0,2.2-0.7,2.2-1.7c0-1.1-0.8-1.4-1.8-1.9l-1.5-0.7
			c-1-0.4-2.2-1.2-2.2-2.8c0-1.6,1.4-2.8,3.4-2.8c1.3,0,2.4,0.5,3.1,1.3l-0.7,0.9c-0.7-0.6-1.5-1-2.4-1c-1.2,0-2,0.6-2,1.6
			s0.9,1.4,1.8,1.8l1.5,0.7c1.2,0.5,2.2,1.3,2.2,2.9c0,1.7-1.4,3.1-3.7,3.1c-1.5,0-2.8-0.6-3.7-1.6L277.2,127.2z"/>
		<path id="XMLID_686_" class="st4" d="M285.8,118.8h1.4v10.7h-1.4V118.8z"/>
		<path id="XMLID_683_" class="st4" d="M290,118.8h3.3c2.4,0,3.9,0.8,3.9,3.1c0,2.3-1.6,3.3-3.9,3.3h-1.9v4.2H290V118.8z
			 M293.1,124.2c1.9,0,2.8-0.7,2.8-2.2s-0.9-2.1-2.8-2.1h-1.7v4.3C291.4,124.2,293.1,124.2,293.1,124.2z"/>
		<path id="XMLID_681_" class="st4" d="M298.7,131.5c0.9-0.4,1.5-1.1,1.5-2c0,0-0.1,0-0.2,0c-0.5,0-1-0.3-1-0.9c0-0.6,0.5-0.9,1-0.9
			c0.7,0,1.1,0.6,1.1,1.6c0,1.4-0.8,2.5-2.1,3.1L298.7,131.5z"/>
		<path id="XMLID_678_" class="st4" d="M309.6,121.4c2,0,3.2,1.5,3.2,3.7c0,0.3,0,0.5,0,0.7h-5.4c0.1,1.7,1.1,2.8,2.6,2.8
			c0.8,0,1.4-0.2,2-0.6l0.5,0.9c-0.7,0.4-1.5,0.8-2.6,0.8c-2.1,0-3.8-1.5-3.8-4.1C306,123,307.8,121.4,309.6,121.4z M311.6,125
			c0-1.6-0.7-2.5-2-2.5c-1.1,0-2.1,0.9-2.3,2.5H311.6z"/>
		<path id="XMLID_676_" class="st4" d="M314.9,122.7h-1.2v-1l1.2-0.1l0.2-2.2h1.1v2.2h2.1v1.1h-2.1v4.4c0,1,0.3,1.5,1.2,1.5
			c0.3,0,0.6-0.1,0.9-0.2l0.3,1c-0.4,0.1-1,0.3-1.5,0.3c-1.7,0-2.3-1.1-2.3-2.6L314.9,122.7L314.9,122.7z"/>
		<path id="XMLID_674_" class="st4" d="M323.4,121.4c1,0,1.8,0.4,2.3,0.9l-0.7,0.9c-0.5-0.4-1-0.7-1.6-0.7c-1.4,0-2.5,1.2-2.5,3.1
			c0,1.8,1,3,2.4,3c0.8,0,1.4-0.4,1.9-0.8l0.6,0.9c-0.7,0.6-1.6,1-2.6,1c-2.1,0-3.7-1.5-3.7-4.1
			C319.6,122.9,321.4,121.4,323.4,121.4z"/>
		<path id="XMLID_672_" class="st4" d="M328.3,127.7c0.5,0,1,0.4,1,1s-0.4,1-1,1c-0.5,0-1-0.4-1-1
			C327.4,128.1,327.8,127.7,328.3,127.7z"/>
	</g>
</g>
<g id="XMLID_1_">
	<g id="XMLID_354_">
		<path id="XMLID_367_" class="st0" d="M28.9,24.8c2,0,3.6,1,4.6,2.1l-1.2,1.4c-0.9-1-2-1.6-3.4-1.6c-3.2,0-5.4,2.6-5.4,6.9
			s2,7,5.3,7c1.6,0,2.8-0.7,3.9-1.9l1.2,1.3c-1.3,1.6-3,2.5-5.2,2.5c-4.3,0-7.5-3.3-7.5-8.8C21.3,28.1,24.5,24.8,28.9,24.8z"/>
		<path id="XMLID_365_" class="st0" d="M36.8,23.6h2.1v16.1c0,0.7,0.3,0.9,0.6,0.9c0.1,0,0.2,0,0.5-0.1l0.3,1.6
			c-0.3,0.1-0.6,0.2-1.2,0.2c-1.6,0-2.3-1-2.3-2.8C36.8,39.5,36.8,23.6,36.8,23.6z"/>
		<path id="XMLID_362_" class="st0" d="M43,25.5c0-0.8,0.6-1.4,1.5-1.4s1.5,0.5,1.5,1.4c0,0.8-0.6,1.4-1.5,1.4S43,26.3,43,25.5z
			 M43.4,29.5h2.1v12.6h-2.1V29.5z"/>
		<path id="XMLID_359_" class="st0" d="M54.5,29.2c3.2,0,5,2.3,5,5.9c0,0.4,0,0.9-0.1,1.2H51c0.2,2.7,1.8,4.4,4.2,4.4
			c1.2,0,2.2-0.4,3.1-1l0.8,1.4c-1.1,0.7-2.4,1.3-4.1,1.3c-3.4,0-6-2.5-6-6.6S51.6,29.2,54.5,29.2z M57.7,34.8c0-2.6-1.1-4-3.1-4
			c-1.8,0-3.4,1.5-3.6,4H57.7z"/>
		<path id="XMLID_357_" class="st0" d="M62.6,29.5h1.8l0.2,1.8h0.1c1.2-1.2,2.5-2.1,4.2-2.1c2.6,0,3.8,1.7,3.8,4.9v8h-2.1v-7.7
			c0-2.4-0.7-3.4-2.4-3.4c-1.3,0-2.2,0.7-3.4,1.9V42h-2.1L62.6,29.5L62.6,29.5z"/>
		<path id="XMLID_355_" class="st0" d="M77.2,31.2h-1.9v-1.6l2-0.1l0.3-3.5h1.8v3.5h3.4v1.7h-3.4v7c0,1.6,0.5,2.4,1.9,2.4
			c0.4,0,1-0.2,1.4-0.3l0.4,1.6c-0.7,0.2-1.6,0.5-2.3,0.5c-2.7,0-3.6-1.7-3.6-4.2C77.2,38.2,77.2,31.2,77.2,31.2z"/>
	</g>
</g>
<g id="Client1_9_">
	<line id="XMLID_1085_" class="st5" x1="17.1" y1="126.5" x2="15.3" y2="125.2"/>
	<path id="XMLID_1084_" class="st5" d="M15.3,125.2c-0.3-0.5-0.4-0.9-0.4-1.5"/>
	<line id="XMLID_1083_" class="st5" x1="14.9" y1="123.8" x2="14.9" y2="94.6"/>
	<path id="XMLID_1082_" class="st5" d="M14.9,94.6c0.1-2,1.3-4.3,3-5.3"/>
	<line id="XMLID_1081_" class="st5" x1="18" y1="89.3" x2="59.2" y2="65.6"/>
	<path id="XMLID_1080_" class="st5" d="M59.2,65.6c0.7-0.4,1.4-0.6,2.1-0.2"/>
	<line id="XMLID_1079_" class="st5" x1="61.3" y1="65.3" x2="63.2" y2="66.6"/>
	<path id="XMLID_1078_" class="st5" d="M63.2,66.6c-0.7-0.4-1.5-0.2-2.1,0.2"/>
	<line id="XMLID_1077_" class="st5" x1="61" y1="66.8" x2="19.8" y2="90.5"/>
	<path id="XMLID_1076_" class="st5" d="M19.8,90.5c-1.7,1.1-3,3.3-3,5.3"/>
	<line id="XMLID_1074_" class="st5" x1="16.8" y1="95.8" x2="16.7" y2="125"/>
	<path id="XMLID_1073_" class="st5" d="M16.7,125c0,0.6,0.1,1,0.4,1.5"/>
	<path id="XMLID_1072_" class="st5" d="M61,66.8c1.7-1,3-0.2,3,1.7"/>
	<line id="XMLID_1071_" class="st5" x1="64.1" y1="68.5" x2="64" y2="97.7"/>
	<path id="XMLID_1070_" class="st5" d="M64,97.7c0,2-1.4,4.3-3,5.3"/>
	<line id="XMLID_1069_" class="st5" x1="61" y1="103.1" x2="59.6" y2="103.8"/>
	<path id="XMLID_1068_" class="st5" d="M19.8,126.8c-1.7,1-3,0.2-3-1.7"/>
	<line id="XMLID_1067_" class="st5" x1="92.3" y1="120.6" x2="92.3" y2="122.8"/>
	<path id="XMLID_1066_" class="st5" d="M92.3,122.8c-0.2,0.7-0.7,1.1-1.2,1.4"/>
	<line id="XMLID_1065_" class="st5" x1="91.1" y1="124.2" x2="49.8" y2="148.1"/>
	<path id="XMLID_1064_" class="st5" d="M49.8,148.1c-0.9,0.5-1.8,0.7-2.9,0.7"/>
	<line id="XMLID_1063_" class="st5" x1="43.6" y1="148.1" x2="18.3" y2="133.4"/>
	<path id="XMLID_1062_" class="st5" d="M18.3,133.4c-0.6-0.3-1-0.7-1.2-1.4"/>
	<line id="XMLID_1061_" class="st5" x1="17" y1="132" x2="17" y2="129.7"/>
	<path id="XMLID_1060_" class="st5" d="M17,129.7c0.2,0.7,0.6,1.1,1.2,1.4"/>
	<line id="XMLID_1056_" class="st5" x1="18.3" y1="131.2" x2="43.6" y2="145.9"/>
	<path id="XMLID_1053_" class="st5" d="M46.9,146.6c1-0.1,2-0.2,2.9-0.7"/>
	<line id="XMLID_1051_" class="st5" x1="49.8" y1="145.9" x2="91.1" y2="122"/>
	<path id="XMLID_1050_" class="st5" d="M91.1,122c0.6-0.3,1-0.7,1.2-1.4"/>
	<line id="XMLID_1041_" class="st5" x1="18.3" y1="127.7" x2="59.6" y2="103.8"/>
	<path id="XMLID_1034_" class="st5" d="M59.6,103.8c1.7-1,4.4-1,6.1,0"/>
	<line id="XMLID_1033_" class="st5" x1="65.7" y1="103.8" x2="91.1" y2="118.4"/>
	<path id="XMLID_1032_" class="st5" d="M91.1,118.4c1.7,1,1.7,2.6,0,3.5"/>
	<path id="XMLID_1031_" class="st5" d="M18.3,131.2c-1.7-1-1.7-2.6,0-3.5"/>
	<polygon id="XMLID_1030_" class="st5" points="61.8,135.7 73.1,129.2 66.8,125.6 55.4,132.1 	"/>
	<path id="XMLID_1029_" class="st5" d="M23.4,128.4c12.5-7.2,25-14.5,37.6-21.7c0.9-0.5,2.4-0.5,3.3,0"/>
	<line id="XMLID_1028_" class="st5" x1="64.3" y1="106.8" x2="77.1" y2="114.2"/>
	<path id="XMLID_1020_" class="st5" d="M77.1,114.2c0.9,0.5,0.9,1.3,0,1.9c-12.5,7.2-25,14.5-37.6,21.7c-0.9,0.5-2.4,0.5-3.3,0"/>
	<line id="XMLID_1019_" class="st5" x1="36.2" y1="137.8" x2="23.4" y2="130.4"/>
	<path id="XMLID_1018_" class="st5" d="M23.4,130.4c-0.9-0.5-0.9-1.3,0-1.9"/>
	<polyline id="XMLID_1017_" class="st5" points="47,148.8 47,146.6 46.9,146.6 	"/>
	<path id="XMLID_1013_" class="st5" d="M46.9,146.6c-1.2,0-2.2-0.2-3.3-0.7"/>
	<path id="XMLID_1012_" class="st5" d="M43.6,148.1c1,0.6,2.1,0.7,3.3,0.7"/>
	<line id="XMLID_1011_" class="st5" x1="46.9" y1="148.8" x2="47" y2="148.8"/>
</g>
<g id="Server_43_">
	<path id="XMLID_1148_" class="st5" d="M810.7,115.3c-0.1,0-0.1,0-0.2,0c-0.1-0.1-0.3-0.1-0.4,0c-0.1,0-0.2,0-0.3,0.1
		c-0.2,0.1-0.3,0.1-0.4,0.2"/>
	<path id="XMLID_1147_" class="st5" d="M811.2,116.6c0-0.6-0.2-1-0.5-1.2s-0.8-0.2-1.4,0.1"/>
	<path id="XMLID_1146_" class="st5" d="M772.5,151c0,0.6,0.2,1,0.6,1.2c0.3,0.2,0.8,0.2,1.2-0.1"/>
	<polygon id="XMLID_1145_" class="st5" points="805.8,128.4 809.1,126.5 809.1,122.6 805.8,124.5 	"/>
	<polygon id="XMLID_1144_" class="st5" points="800.1,131.6 803.5,129.7 803.5,125.8 800.1,127.8 	"/>
	<path id="XMLID_1143_" class="st5" d="M810.7,97c-0.1-0.1-0.2-0.1-0.3-0.1c-0.3-0.1-0.6,0-1.1,0.3"/>
	<polyline id="XMLID_1142_" class="st5" points="809.4,97.1 794.2,105.9 774.4,117.4 	"/>
	<polyline id="XMLID_1141_" class="st5" points="773,118.8 749.4,105.1 733.9,96.2 	"/>
	<path id="XMLID_1140_" class="st5" d="M811.2,98.2c0-0.6-0.2-1-0.5-1.2s-0.8-0.2-1.4,0.1"/>
	<path id="XMLID_1139_" class="st5" d="M772.5,132.6c0,0.6,0.2,1,0.6,1.2c0.3,0.2,0.8,0.2,1.2-0.1"/>
	<polygon id="XMLID_1138_" class="st5" points="805.8,110 809.1,108.1 809.1,104.2 805.8,106.1 	"/>
	<polygon id="XMLID_1137_" class="st5" points="800.1,113.3 803.5,111.3 803.5,107.4 800.1,109.4 	"/>
	<path id="XMLID_1136_" class="st5" d="M811.2,79.5c0-0.6-0.2-1-0.5-1.2s-0.8-0.2-1.4,0.1"/>
	<path id="XMLID_1135_" class="st5" d="M772.5,113.8c0,0.6,0.2,1,0.6,1.2c0.3,0.2,0.8,0.2,1.2-0.1"/>
	<polygon id="XMLID_1134_" class="st5" points="805.8,91.3 809.1,89.4 809.1,85.4 805.8,87.4 	"/>
	<polygon id="XMLID_1133_" class="st5" points="800.1,94.6 803.5,92.6 803.5,88.7 800.1,90.7 	"/>
	<line id="XMLID_1132_" class="st5" x1="810.7" y1="115.3" x2="808.4" y2="114"/>
	<line id="XMLID_1131_" class="st5" x1="810.7" y1="115.4" x2="810.7" y2="115.3"/>
	<line id="XMLID_1130_" class="st5" x1="809.4" y1="115.5" x2="774.4" y2="135.7"/>
	<path id="XMLID_1129_" class="st5" d="M774.4,135.7c-0.6,0.3-1,0.8-1.4,1.4"/>
	<line id="XMLID_1128_" class="st5" x1="773" y1="137.1" x2="733.9" y2="114.6"/>
	<path id="XMLID_1127_" class="st5" d="M733.9,114.6c0.3-0.6,0.8-1,1.4-1.4"/>
	<line id="XMLID_1126_" class="st5" x1="735.3" y1="113.2" x2="736.3" y2="112.6"/>
	<path id="XMLID_1125_" class="st5" d="M773,137.1c-0.4,0.6-0.6,1.2-0.6,1.9"/>
	<line id="XMLID_1124_" class="st5" x1="772.5" y1="139" x2="772.5" y2="151"/>
	<line id="XMLID_1123_" class="st5" x1="774.3" y1="152.1" x2="809.4" y2="131.9"/>
	<path id="XMLID_1122_" class="st5" d="M809.4,131.9c1-0.6,1.9-2.1,1.9-3.3"/>
	<line id="XMLID_1121_" class="st5" x1="811.2" y1="128.6" x2="811.2" y2="116.6"/>
	<path id="XMLID_1120_" class="st5" d="M733.9,114.6c-0.3,0.6-0.5,1.1-0.6,1.9"/>
	<line id="XMLID_1119_" class="st5" x1="733.4" y1="116.4" x2="733.4" y2="128.4"/>
	<path id="XMLID_1118_" class="st5" d="M733.4,128.4c0.1,0.5,0.2,0.9,0.6,1.2"/>
	<line id="XMLID_1117_" class="st5" x1="733.9" y1="129.6" x2="773" y2="152.2"/>
	<line id="XMLID_1116_" class="st5" x1="808.1" y1="95.5" x2="810.7" y2="97"/>
	<path id="XMLID_1115_" class="st5" d="M774.4,117.4c-0.6,0.3-1,0.8-1.4,1.4"/>
	<path id="XMLID_1114_" class="st5" d="M733.9,96.2c0.3-0.6,0.8-1,1.4-1.4"/>
	<line id="XMLID_1113_" class="st5" x1="735.3" y1="94.8" x2="736.5" y2="94"/>
	<line id="XMLID_1112_" class="st5" x1="773" y1="118.8" x2="773" y2="118.8"/>
	<path id="XMLID_1111_" class="st5" d="M773,118.8c-0.4,0.6-0.6,1.2-0.6,1.9"/>
	<line id="XMLID_1110_" class="st5" x1="772.5" y1="120.6" x2="772.5" y2="132.6"/>
	<line id="XMLID_1109_" class="st5" x1="774.3" y1="133.7" x2="809.4" y2="113.5"/>
	<path id="XMLID_1108_" class="st5" d="M809.4,113.5c0.5-0.3,1-0.8,1.4-1.4"/>
	<line id="XMLID_1107_" class="st5" x1="810.7" y1="112.1" x2="810.7" y2="112.1"/>
	<path id="XMLID_1106_" class="st5" d="M810.7,112.1c0.3-0.6,0.5-1.2,0.5-1.9"/>
	<line id="XMLID_1105_" class="st5" x1="811.2" y1="110.2" x2="811.2" y2="98.2"/>
	<path id="XMLID_1104_" class="st5" d="M733.9,96.2c-0.3,0.6-0.5,1.2-0.6,1.9"/>
	<line id="XMLID_1103_" class="st5" x1="733.4" y1="98.1" x2="733.4" y2="110"/>
	<path id="XMLID_1102_" class="st5" d="M733.4,110c0.1,0.5,0.2,0.9,0.6,1.2"/>
	<line id="XMLID_1101_" class="st5" x1="733.9" y1="111.3" x2="773" y2="133.8"/>
	<path id="XMLID_1100_" class="st5" d="M773,133.8c-0.5-0.3-0.6-0.7-0.6-1.2"/>
	<line id="XMLID_1099_" class="st5" x1="810.7" y1="78.3" x2="771.6" y2="55.7"/>
	<path id="XMLID_1098_" class="st5" d="M771.6,55.7c-0.5-0.3-0.8-0.1-1.4,0.1"/>
	<line id="XMLID_1097_" class="st5" x1="770.3" y1="55.8" x2="735.3" y2="76"/>
	<path id="XMLID_1096_" class="st5" d="M735.3,76c-0.6,0.4-1,0.8-1.4,1.4"/>
	<line id="XMLID_1095_" class="st5" x1="733.9" y1="77.5" x2="773" y2="100.1"/>
	<path id="XMLID_1094_" class="st5" d="M773,100.1c0.3-0.6,0.6-1,1.2-1.4"/>
	<line id="XMLID_1093_" class="st5" x1="774.3" y1="98.6" x2="809.4" y2="78.4"/>
	<path id="XMLID_1092_" class="st5" d="M773,100.1c-0.4,0.6-0.6,1.2-0.6,1.9"/>
	<line id="XMLID_1091_" class="st5" x1="772.5" y1="101.9" x2="772.5" y2="113.8"/>
	<line id="XMLID_1090_" class="st5" x1="774.3" y1="114.9" x2="809.4" y2="94.7"/>
	<path id="XMLID_1089_" class="st5" d="M809.4,94.7c0.5-0.3,1-0.8,1.4-1.4"/>
	<path id="XMLID_1088_" class="st5" d="M810.7,93.3c0.3-0.6,0.5-1.2,0.5-1.9"/>
	<line id="XMLID_1087_" class="st5" x1="811.2" y1="91.4" x2="811.2" y2="79.5"/>
	<path id="XMLID_1086_" class="st5" d="M733.9,77.5c-0.3,0.6-0.5,1.1-0.6,1.9"/>
	<line id="XMLID_1042_" class="st5" x1="733.4" y1="79.3" x2="733.4" y2="91.3"/>
	<path id="XMLID_1027_" class="st5" d="M733.4,91.3c0.1,0.5,0.2,0.9,0.6,1.2"/>
	<line id="XMLID_1026_" class="st5" x1="733.9" y1="92.5" x2="773" y2="115.1"/>
	<path id="XMLID_1025_" class="st5" d="M773,115.1c-0.5-0.3-0.6-0.7-0.6-1.2"/>
	<line id="XMLID_1024_" class="st5" x1="775.9" y1="105.9" x2="796.9" y2="93.8"/>
	<line id="XMLID_1023_" class="st5" x1="775.9" y1="124.7" x2="796.9" y2="112.5"/>
	<line id="XMLID_1022_" class="st5" x1="775.9" y1="143" x2="796.9" y2="130.9"/>
</g>
<g id="PNS_14_">
	<path id="XMLID_1180_" class="st6" d="M382.9,154.7L372,167.6l21.9,51.2l21.8,12.6l-21.8-51.1l21.8,12.6l-5.8,7l11,25.5l16.7-19.9
		L426.7,180l-15.6-9l-6.2-3.6l-3.6-8.5l-14.6-8.4L382.9,154.7z"/>
	<path id="XMLID_1177_" class="st6" d="M420.8,225.3l16.5-9.7l16.7-19.9l-4-9.3l-6.9-16.2l-21.9-12.7l-3.6-8.5l-14.6-8.4l-16.5,9.7
		 M432,218.7l1.2,2.6l-17.6,10.1"/>
	<line id="XMLID_1176_" class="st6" x1="401.2" y1="158.9" x2="417.7" y2="149.1"/>
	<line id="XMLID_1174_" class="st6" x1="404.8" y1="167.4" x2="421.3" y2="157.6"/>
	<line id="XMLID_1173_" class="st6" x1="426.7" y1="180" x2="443.2" y2="170.2"/>
</g>
<rect id="XMLID_1043_" x="349.6" y="68.5" class="st7" width="128.9" height="172.6"/>
<g id="Search_2_">
	<path id="XMLID_1248_" class="st5" d="M431.5,107.5c-0.1-0.5-0.3-0.9-0.5-1.4c-0.2-0.6-0.4-1.2-0.7-1.8c-0.2-0.5-0.4-1-0.6-1.4
		c-0.6-1.4-1.3-2.7-2.1-4c-0.3-0.5-0.7-1.2-1-1.7c-0.2-0.3-0.4-0.7-0.7-1c-0.3-0.5-0.7-1-1-1.5c-1-1.5-2.1-2.8-3.3-4
		c-0.4-0.4-0.7-0.8-1.2-1.2c-0.8-0.8-1.6-1.5-2.4-2.2c-0.5-0.5-1.2-1-1.8-1.4c-0.8-0.6-1.7-1.2-2.5-1.7c-1.2-0.7-2.4-1.2-3.5-1.6
		c-0.4-0.1-0.7-0.2-1.2-0.4c-0.4-0.1-0.7-0.2-1.1-0.3c-1-0.2-2.1-0.4-3-0.4"/>
	<polyline id="XMLID_1247_" class="st5" points="429.2,129.6 435.7,125.9 435.8,125.9 	"/>
	<path id="XMLID_1246_" class="st5" d="M408.4,78.4c1.9-0.6,3.9-0.7,5.8-0.3c2.2,0.4,4.2,1.3,6.2,2.4l0.5,0.3
		c1.9,1.2,3.7,2.5,5.4,4.2c4.1,3.9,7.6,9,10,14.3c1.5,3.2,2.5,6.5,3.1,9.7c0.2,1.1,0.4,2.2,0.4,3.4c0.2,2.4,0.1,5-0.6,7.4
		c-0.5,1.9-1.3,3.8-2.7,5.3c-0.1,0.2-0.7,0.7-0.8,0.8"/>
	<polyline id="XMLID_1245_" class="st5" points="408.4,78.4 408.1,78.5 405.2,80.2 401.4,82.3 	"/>
	<path id="XMLID_1244_" class="st5" d="M426.1,120.5c-0.4,0-0.8-0.1-1.3-0.1c-3-0.6-5.5-2.2-7.7-4.1c-3-2.7-5.2-5.7-7-9.3
		c-1.5-2.8-2.4-5.6-2.9-8.8c-0.3-2.4-0.3-4.5,0.3-6.8c0.2-0.5,0.4-1.1,0.6-1.6"/>
	<path id="XMLID_1242_" class="st5" d="M395.3,107.1c0.4-0.2,0.7-0.3,1.1-0.4c-1.3-3.8-2.1-7.6-2.1-11.2c0-6.2,2.2-10.6,5.7-12.6
		c0.4-0.2,0.9-0.5,1.4-0.7c0.3-0.1,0.6-0.2,0.9-0.2c0.2-0.1,0.4-0.1,0.5-0.1c0.3-0.1,0.6-0.1,0.9-0.2c0.4-0.1,0.8-0.1,1.2-0.1"/>
	<path id="XMLID_1241_" class="st5" d="M433.3,116.3c0,0.1,0,0.2,0,0.2c0.1,0.5,0.1,1.1,0.1,1.6s0,0.9-0.1,1.4c0,0.3,0,0.6-0.1,0.9
		c0,0.4-0.1,0.7-0.1,1c-0.1,0.5-0.2,1.1-0.3,1.6c-0.1,0.3-0.1,0.5-0.2,0.8c0,0.1-0.1,0.2-0.1,0.2l0,0c-0.7,2.4-1.8,4.2-3.3,5.6
		c-0.5,0.4-1,0.8-1.6,1.2c-1.3,0.7-2.7,1.2-4.3,1.3c-2.8,0.2-6.1-0.7-9.5-2.6c-3.2-1.8-6.1-4.4-8.7-7.3c-0.2,0.3-0.5,0.5-0.9,0.8
		l-14.4,8.3c-0.5,0.3-1,0.4-1.6,0.4c-2.4,0-5.4-2.2-7.4-5.6c-2.5-4.3-2.5-9,0-10.4l14.4-8.3"/>
	<path id="XMLID_1240_" class="st5" d="M405.2,81.7c1,0,2,0.1,3,0.4c0.4,0.1,0.7,0.2,1.1,0.3c0.4,0.1,0.7,0.2,1.2,0.4
		c1.1,0.4,2.3,1,3.5,1.6c0.8,0.5,1.8,1.1,2.5,1.7c0.6,0.4,1.2,0.9,1.8,1.4c0.8,0.7,1.6,1.4,2.4,2.2c0.4,0.4,0.8,0.8,1.2,1.2
		c1.2,1.2,2.3,2.6,3.3,4c0.4,0.5,0.7,1,1,1.5c0.2,0.3,0.4,0.7,0.7,1c0.4,0.5,0.7,1.1,1,1.7c0.7,1.3,1.5,2.7,2.1,4
		c0.2,0.5,0.4,1,0.6,1.4c0.2,0.6,0.5,1.2,0.7,1.8c0.2,0.5,0.4,0.9,0.5,1.4c0.1,0.3,0.2,0.6,0.3,1c0.4,1.5,0.8,2.9,1,4.3
		c0.1,0.5,0.2,1,0.2,1.5c0.1,0.5,0.1,1,0.2,1.5c0,0.1,0.1,0.3,0.1,0.5"/>
	<path id="XMLID_1239_" class="st5" d="M405.2,89.9c-7,3.3-5.4,13.9-1.2,22s13.2,14.4,18.8,11.9c5.6-2.5,6.4-11.6,0.6-22.4
		S408.4,88.4,405.2,89.9z"/>
</g>
</svg>
