<?xml version="1.0" encoding="utf-8"?>
<!-- Generator: Adobe Illustrator 24.0.1, SVG Export Plug-In . SVG Version: 6.00 Build 0)  -->
<svg version="1.1" xmlns="http://www.w3.org/2000/svg" xmlns:xlink="http://www.w3.org/1999/xlink" x="0px" y="0px"
	 viewBox="0 0 413.6 92.9" style="enable-background:new 0 0 413.6 92.9;" xml:space="preserve">
<style type="text/css">
	.st0{fill:#FFFFFF;}
	.st1{font-family:'HelveticaNeue';}
	.st2{font-size:2.5208px;}
</style>
<g id="Layer_1">
</g>
<g id="OI">
	<g>
		<g>
			<g>
				<path class="st0" d="M307,73.4h1.6V79c0.9-1.2,2.1-1.9,3.6-1.9c2.8,0,4.7,2.2,4.7,5.6c0,3.4-2,5.6-4.7,5.6
					c-1.5,0-2.8-0.8-3.6-1.8V88H307V73.4z M311.8,86.8c2.2,0,3.4-1.7,3.4-4.1s-1.3-4.1-3.4-4.1c-1.3,0-2.6,0.8-3.2,1.7v4.8
					C309.2,86.1,310.5,86.8,311.8,86.8z"/>
				<path class="st0" d="M320.2,90.9c0.7,0,1.2-0.2,1.6-1.1l0.7-1.6L318,77.4h1.8l3.5,8.7l3.5-8.7h1.8l-5.3,12.8
					c-0.6,1.5-1.7,2.1-3.1,2.2c-0.4,0-0.9-0.1-1.2-0.2l0.3-1.5C319.5,90.8,319.9,90.9,320.2,90.9z"/>
			</g>
			<g>
				<text transform="matrix(1 0 0 1 411.3027 70.8485)" class="st0 st1 st2">®</text>
				<path class="st0" d="M352.6,87.5c0.2,0.2,0.5,0.2,0.8,0c0.2-0.1,0.4-0.3,0.6-0.6c0.3-0.2,0.5-0.5,0.6-0.7
					c0.2-0.3,0.2-0.7-0.1-0.9l-1.7-1.2c0,0-0.3,0.4-0.9,1c-0.6,0.6-1.1,1-1.1,1L352.6,87.5z"/>
				<path class="st0" d="M370.8,82c0,4.2-3.1,6.3-6.5,6.3c-3.5,0-6.5-2-6.5-6.3v-8c0-0.3,0.3-0.6,0.6-0.6h1.7v8.4
					c0,3,1.8,4.4,4.2,4.4c2.5,0,4.2-1.4,4.2-4.4v-8.4h1.7c0.3,0,0.6,0.3,0.6,0.6V82z"/>
				<path class="st0" d="M387,80.7l0,0.2c0,0.3-0.3,0.6-0.6,0.6h-10.9c0.3,3.1,2.5,4.7,5.1,4.7c1.6,0,3-0.5,4.1-1.4
					c0.2-0.2,0.6-0.1,0.8,0.1l0.8,1.1c-1.8,1.7-3.8,2.2-5.9,2.2c-4.2,0-7.2-3-7.2-7.4c0-4.4,3-7.4,7.1-7.4
					C384.2,73.3,387,76.3,387,80.7 M375.5,79.7h9.2c-0.3-2.7-2-4.4-4.5-4.4C377.6,75.3,375.9,77.1,375.5,79.7"/>
				<path class="st0" d="M399.9,76.1c-0.2,0.3-0.5,0.4-0.8,0.2c-1-0.5-2.6-1-4.2-1c-2,0-3.4,0.9-3.4,2.3c0,1.2,1,1.8,2.9,2l1.7,0.2
					c3,0.4,4.8,1.6,4.8,4c0,2.7-2.4,4.4-6.3,4.4c-1.8,0-4.2-0.5-6-1.8l0.7-1.1c0.2-0.3,0.6-0.4,0.9-0.2c1,0.7,2.4,1.2,4.4,1.2
					c2.4,0,3.9-0.8,3.9-2.3c0-1.1-1-1.8-3-2.1l-1.7-0.2c-3.2-0.4-4.7-1.8-4.7-4c0-2.7,2.3-4.3,5.7-4.3c2,0,3.8,0.5,5.2,1.2
					c0.3,0.2,0.4,0.5,0.2,0.8L399.9,76.1z"/>
				<path class="st0" d="M412.5,85.6c-0.2-0.3-0.5-0.4-0.8-0.2c-0.7,0.4-1.6,0.7-2.5,0.7c-1.7,0-2.8-1-2.8-3.2v-7.5h3.8
					c0.3,0,0.6-0.3,0.6-0.6v-1.5h-4.4v-3.7c0-0.3-0.3-0.6-0.6-0.6h-1.6v4.3h-0.9c-0.4,0-0.7,0.3-0.7,0.7v1.4h1.6v7.5
					c0,3.6,1.8,5.3,4.9,5.3c1.8,0,3.2-0.6,4.2-1.4L412.5,85.6z"/>
				<path class="st0" d="M355.2,77.1c-0.2-5.9-5.2-10.5-11.1-10.3c-0.3,0-0.7,0-1,0.1c-5.4,0.7-9.5,5.4-9.3,11
					c0.2,5.9,5.2,10.5,11.1,10.3c2.2-0.1,4.2-0.8,5.9-2.1l-1.6-1.2c-0.2-0.1-0.4-0.1-0.6,0c-1.3,0.7-2.7,1.1-4.3,1.1
					c-4.3-0.1-7.9-3.6-8.1-7.9c-0.2-5,4-9.1,9-8.7c4,0.4,7.3,3.6,7.5,7.7c0.1,2-0.4,3.8-1.4,5.3c-0.2,0.3-0.1,0.6,0.1,0.8l1.4,1
					C354.5,82.1,355.3,79.7,355.2,77.1"/>
			</g>
		</g>
		<g>
			<g>
				<g>
					<path class="st0" d="M64.8,18c0-0.6,0.5-1,1.1-1h0.9c0.6,0,1,0.4,1.4,0.9l22.1,21.3h0.1V18.6c0-0.6,0.5-1.1,1.1-1.1h6.9
						c0.6,0,1.1,0.5,1.1,1.1v38.8c0,0.7-0.5,1-1.1,1h-0.6c-0.6,0-1-0.2-1.4-0.6L73.9,35.2h-0.1v21.5c0,0.6-0.5,1.1-1.1,1.1h-6.9
						c-0.6,0-1.1-0.5-1.1-1.1L64.8,18"/>
					<path class="st0" d="M106.5,18.6c0-0.6,0.5-1.1,1.1-1.1h23.9c0.6,0,1.1,0.5,1.1,1.1v6.3c0,0.6-0.5,1.1-1.1,1.1h-16v7.1h13.1
						c0.6,0,1.1,0.5,1.1,1.1v6.3c0,0.6-0.5,1.1-1.1,1.1h-13.1v7.8h16c0.6,0,1.1,0.5,1.1,1.1v6.3c0,0.6-0.5,1.1-1.1,1.1h-23.9
						c-0.6,0-1.1-0.5-1.1-1.1V18.6"/>
					<path class="st0" d="M161.2,18.4c0-0.6,0.5-1.1,1.1-1.1h6.9c0.6,0,1.1,0.5,1.1,1.1v38.2c0,0.6-0.5,1.1-1.1,1.1h-6.9
						c-0.6,0-1.1-0.5-1.1-1.1V18.4"/>
					<path class="st0" d="M177.7,18.4c0-0.6,0.5-1.1,1-1.1h14.1c11.1,0,20.2,9.1,20.2,20.1c0,11.2-9.1,20.2-20.2,20.2h-14.1
						c-0.6,0-1-0.5-1-1.1V18.4 M192.7,49.2c6.5,0,10.7-5.1,10.7-11.7c0-6.5-4.2-11.6-10.7-11.6h-6.1v23.3H192.7z"/>
					<path class="st0" d="M219.2,18.4c0-0.6,0.5-1.1,1.1-1.1h23.9c0.6,0,1.1,0.5,1.1,1.1v6.3c0,0.6-0.5,1.1-1.1,1.1h-16V33h13.1
						c0.6,0,1.1,0.5,1.1,1.1v6.3c0,0.6-0.5,1.1-1.1,1.1h-13.1v7.8h16c0.6,0,1.1,0.5,1.1,1.1v6.3c0,0.6-0.5,1.1-1.1,1.1h-23.9
						c-0.6,0-1.1-0.5-1.1-1.1V18.4"/>
					<path class="st0" d="M251.4,17.8c0-0.6,0.5-1,1.1-1h0.9c0.6,0,1,0.4,1.4,0.9l22.1,21.3h0.1V18.4c0-0.6,0.5-1.1,1.1-1.1h6.9
						c0.6,0,1.1,0.5,1.1,1.1v38.8c0,0.7-0.5,1-1.1,1h-0.6c-0.6,0-1-0.2-1.4-0.6l-22.4-22.5h-0.1v21.5c0,0.6-0.5,1.1-1.1,1.1h-6.9
						c-0.6,0-1.1-0.5-1.1-1.1L251.4,17.8"/>
					<path class="st0" d="M302.9,25.8h-8.2c-0.6,0-1.1-0.5-1.1-1.1v-6.3c0-0.6,0.5-1.1,1.1-1.1h25.6c0.6,0,1.1,0.5,1.1,1.1v6.3
						c0,0.6-0.5,1.1-1.1,1.1H312v30.8c0,0.6-0.5,1.1-1.1,1.1H304c-0.6,0-1.1-0.5-1.1-1.1V25.8"/>
					<path class="st0" d="M328.8,18.4c0-0.6,0.5-1.1,1.1-1.1h6.9c0.6,0,1.1,0.5,1.1,1.1v38.2c0,0.6-0.5,1.1-1.1,1.1h-6.9
						c-0.6,0-1.1-0.5-1.1-1.1V18.4"/>
					<path class="st0" d="M354.4,25.8h-8.2c-0.6,0-1.1-0.5-1.1-1.1v-6.3c0-0.6,0.5-1.1,1.1-1.1h25.6c0.6,0,1.1,0.5,1.1,1.1v6.3
						c0,0.6-0.5,1.1-1.1,1.1h-8.2v30.8c0,0.6-0.5,1.1-1.1,1.1h-6.9c-0.6,0-1.1-0.5-1.1-1.1V25.8"/>
					<path class="st0" d="M390.8,38.3L378,19.1c-0.5-0.7,0-1.7,0.9-1.7h7.5c0.5,0,0.8,0.3,0.9,0.5l8,11.8l8-11.8
						c0.2-0.2,0.4-0.5,0.9-0.5h7.5c0.9,0,1.4,0.9,0.9,1.7l-12.9,19.2v18.4c0,0.6-0.5,1.1-1.1,1.1h-6.9c-0.6,0-1.1-0.5-1.1-1.1V38.3"
						/>
				</g>
			</g>
			<g>
				<g>
					<path class="st0" d="M52.8,64.4c-10,5.9-22.3,6-32.4,0.2C10.4,58.9,4.1,48.2,4,36.7l-3.6,0c0.1,12.9,7,24.7,18.2,31
						c11.2,6.3,24.9,6.2,36-0.3L52.8,64.4z"/>
					<path class="st0" d="M20,8.5L20,8.5c10-5.9,22.3-6,32.4-0.2l1.8-3.1C43-1.2,29.3-1.1,18.2,5.4v0C7.1,11.9,0.3,23.8,0.4,36.7
						l3.6,0C3.9,25.1,10,14.3,20,8.5z"/>
				</g>
				<path class="st0" d="M36.4,7.6c10.3,0,19.8,5.5,24.9,14.4l-3.1,1.8C53.7,16,45.4,11.2,36.4,11.2V7.6"/>
				<g>
					<path class="st0" d="M61.4,50.8L58.2,49c-4.5,7.8-12.8,12.6-21.8,12.6S19.1,56.8,14.6,49l-3.1,1.8c5.1,8.9,14.7,14.4,24.9,14.4
						l0,0h0l0,0l0,0C46.7,65.2,56.2,59.7,61.4,50.8z"/>
					<path class="st0" d="M14.6,23.8L11.5,22c-5.1,8.9-5.1,19.9,0,28.8l3.1-1.8C10.1,41.2,10.1,31.6,14.6,23.8z"/>
				</g>
				<path class="st0" d="M36.4,14.8c7.7,0,14.8,4.1,18.7,10.8c3.9,6.7,3.9,14.9,0,21.6C51.3,53.9,44.1,58,36.4,58
					c-7.7,0-14.8-4.1-18.7-10.8c-3.9-6.7-3.9-14.9,0-21.6C21.6,18.9,28.7,14.8,36.4,14.8 M25.5,30.1c-2.3,3.9-2.3,8.7,0,12.6
					c2.3,3.9,6.4,6.3,10.9,6.3c4.5,0,8.7-2.4,10.9-6.3c2.3-3.9,2.3-8.7,0-12.6c-2.3-3.9-6.4-6.3-10.9-6.3
					C31.9,23.8,27.8,26.2,25.5,30.1z"/>
			</g>
		</g>
	</g>
</g>
</svg>
