<svg width="150" height="151" viewBox="0 0 150 151" fill="none" xmlns="http://www.w3.org/2000/svg">
<g clip-path="url(#clip0)">
<path d="M142.5 97.71H127.5V90.21C127.497 84.2434 125.126 78.522 120.907 74.303C116.688 70.084 110.967 67.7126 105 67.71H82.5V52.71H97.5C99.4891 52.71 101.397 51.9198 102.803 50.5133C104.21 49.1067 105 47.1991 105 45.21V7.70996C105 5.72084 104.21 3.81318 102.803 2.40666C101.397 1.00014 99.4891 0.209961 97.5 0.209961H52.5C50.5109 0.209961 48.6032 1.00014 47.1967 2.40666C45.7902 3.81318 45 5.72084 45 7.70996V45.21C45 47.1991 45.7902 49.1067 47.1967 50.5133C48.6032 51.9198 50.5109 52.71 52.5 52.71H67.5V67.71H45C39.0343 67.7153 33.3144 70.0875 29.0959 74.3059C24.8775 78.5243 22.5053 84.2442 22.5 90.21V97.71H7.5C5.51088 97.71 3.60322 98.5001 2.1967 99.9067C0.790176 101.313 0 103.221 0 105.21V142.71C0 144.699 0.790176 146.607 2.1967 148.013C3.60322 149.42 5.51088 150.21 7.5 150.21H52.5C54.4891 150.21 56.3968 149.42 57.8033 148.013C59.2098 146.607 60 144.699 60 142.71V105.21C60 103.221 59.2098 101.313 57.8033 99.9067C56.3968 98.5001 54.4891 97.71 52.5 97.71H37.5V90.21C37.5053 88.2225 38.2971 86.3179 39.7025 84.9125C41.1079 83.5071 43.0125 82.7152 45 82.71H105C106.989 82.71 108.897 83.5001 110.303 84.9067C111.71 86.3132 112.5 88.2208 112.5 90.21V97.71H97.5C95.5109 97.71 93.6032 98.5001 92.1967 99.9067C90.7902 101.313 90 103.221 90 105.21V142.71C90 144.699 90.7902 146.607 92.1967 148.013C93.6032 149.42 95.5109 150.21 97.5 150.21H142.5C144.489 150.21 146.397 149.42 147.803 148.013C149.21 146.607 150 144.699 150 142.71V105.21C150 103.221 149.21 101.313 147.803 99.9067C146.397 98.5001 144.489 97.71 142.5 97.71ZM60 37.71V15.21H90V37.71H60ZM45 135.21H15V112.71H45V135.21ZM135 135.21H105V112.71H135V135.21Z" fill="white"/>
</g>
<defs>
<clipPath id="clip0">
<rect width="150" height="150" fill="white" transform="translate(0 0.209961)"/>
</clipPath>
</defs>
</svg>
