<svg width="151" height="151" viewBox="0 0 151 151" fill="none" xmlns="http://www.w3.org/2000/svg">
<g clip-path="url(#clip0)">
<path d="M13.7796 51.4716H116.293V57.8812H129.112V45.072C129.118 45.0323 129.118 44.9918 129.112 44.9521C129.096 44.2083 128.947 43.4733 128.672 42.7822C128.612 42.6022 128.512 42.4422 128.432 42.2622C128.327 42.0037 128.203 41.753 128.062 41.5123L102.454 3.06484C101.864 2.18109 101.063 1.45794 100.124 0.960482C99.1847 0.46302 98.1367 0.206853 97.0741 0.215034H32.9983C31.9441 0.21512 30.9062 0.475236 29.9765 0.972333C29.0469 1.46943 28.2542 2.18816 27.6687 3.06484L2.0404 41.5123C1.89916 41.753 1.77551 42.0037 1.67042 42.2622C1.59043 42.4422 1.49043 42.6022 1.42044 42.7822C1.15 43.4748 1.00116 44.2088 0.980469 44.9521C0.980469 44.9521 0.980469 45.022 0.980469 45.072V121.957C0.980469 123.657 1.65576 125.287 2.85779 126.489C4.05982 127.691 5.69012 128.366 7.39004 128.366H58.6266V115.547H13.7796V51.4716ZM110.773 38.6625H71.4558V13.0342H93.6543L110.773 38.6625ZM36.4581 13.0342H58.6566V38.7125H19.3392L36.4581 13.0342Z" fill="white"/>
<path d="M150.981 141.146L130.183 120.337C134.58 113.694 136.353 105.655 135.159 97.7792C133.964 89.9031 129.887 82.7513 123.718 77.711C117.549 72.6706 109.729 70.1009 101.772 70.5004C93.8162 70.8999 86.292 74.24 80.6591 79.873C75.0262 85.5059 71.686 93.0301 71.2866 100.986C70.8871 108.942 73.4567 116.763 78.4971 122.932C83.5374 129.101 90.6893 133.178 98.5654 134.372C106.441 135.567 114.48 133.794 121.123 129.396L141.922 150.205L150.981 141.146ZM84.2556 102.708C84.2517 98.903 85.3768 95.1822 87.4886 92.0167C89.6004 88.8513 92.6039 86.3836 96.1189 84.9261C99.6339 83.4685 103.502 83.0866 107.234 83.8287C110.967 84.5709 114.395 86.4036 117.085 89.095C119.775 91.7864 121.606 95.2154 122.346 98.9479C123.086 102.68 122.702 106.549 121.243 110.063C119.783 113.577 117.314 116.579 114.147 118.689C110.981 120.8 107.26 121.923 103.454 121.917C98.3657 121.901 93.4901 119.872 89.8928 116.273C86.2954 112.674 84.2688 107.797 84.2556 102.708V102.708Z" fill="#29AAE1"/>
</g>
<defs>
<clipPath id="clip0">
<rect width="150" height="150" fill="white" transform="translate(0.980469 0.209961)"/>
</clipPath>
</defs>
</svg>
