<svg width="571" height="368" viewBox="0 0 571 368" fill="none" xmlns="http://www.w3.org/2000/svg">
<g clip-path="url(#clip0)">
<path d="M201.888 224.472L176.714 218.688L175.367 189.417L201.037 195.023L201.888 224.472Z" stroke="white" stroke-miterlimit="10"/>
<path d="M201.037 195.023L219.226 184.84L194.23 179.553L175.367 189.417L201.037 195.023Z" stroke="white" stroke-miterlimit="10"/>
<path d="M209.367 196.726L210.537 226.175L236.739 232.49L235.888 202.367L209.367 196.726Z" stroke="white" stroke-miterlimit="10"/>
<path d="M235.888 202.367L253.758 191.972L227.379 186.366L209.367 196.726L235.888 202.367Z" stroke="white" stroke-miterlimit="10"/>
<path d="M236.742 232.491L254.611 221.066L253.76 191.972L235.891 202.367L236.742 232.491Z" stroke="white" stroke-miterlimit="10"/>
<path d="M254.93 227.559L255.958 255.801L238.265 268.397L237.592 238.77L254.93 227.559Z" stroke="white" stroke-miterlimit="10"/>
<path d="M237.591 238.77L211.07 232.632L212.24 261.584L238.265 268.397L237.591 238.77Z" stroke="white" stroke-miterlimit="10"/>
<path d="M203.767 259.527L202.916 230.787L177.211 224.827L178.913 253.069L203.767 259.527Z" stroke="white" stroke-miterlimit="10"/>
<path d="M203.766 259.527L211.743 254.098" stroke="white" stroke-miterlimit="10"/>
<path d="M202.918 230.787L210.541 226.175" stroke="white" stroke-miterlimit="10"/>
<path d="M211.07 232.632L218.551 228.055" stroke="white" stroke-miterlimit="10"/>
<path d="M177.211 224.826L184.692 220.569" stroke="white" stroke-miterlimit="10"/>
<path d="M201.887 224.472L210.219 219.362" stroke="white" stroke-miterlimit="10"/>
<path d="M219.227 184.84L219.404 190.801" stroke="white" stroke-miterlimit="10"/>
<path d="M254.93 227.559L247.271 225.678" stroke="white" stroke-miterlimit="10"/>
<path d="M362.892 117.604C362.892 117.604 309.673 108.769 303.716 107.74C297.76 106.711 289.428 96.6704 293.186 84.9263C296.944 73.1822 310.205 78.7881 310.205 78.7881C310.205 78.7881 309.176 56.8257 328.074 56.1515C345.767 55.5129 350.872 75.7368 350.872 75.7368C350.872 75.7368 358.85 76.2335 363.282 82.7265C367.714 89.184 367.714 95.4995 367.714 95.4995C367.714 95.4995 376.719 99.9346 375.018 110.295C373.28 120.691 362.892 117.604 362.892 117.604Z" stroke="white" stroke-miterlimit="10"/>
<path d="M298.398 78.4686L310.524 73.3594" stroke="white" stroke-miterlimit="10"/>
<path d="M321.408 57.3222L340.873 49.3036C340.873 49.3036 349.489 47.707 356.899 53.3839C364.309 59.0608 366.65 68.0728 366.65 68.0728C366.65 68.0728 373.422 67.8245 378.953 74.9916C384.484 82.1586 383.385 87.4452 383.385 87.4452C383.385 87.4452 390.759 91.632 390.157 99.1538C389.554 106.676 385.831 108.272 385.831 108.272L370.301 117.284" stroke="white" stroke-miterlimit="10"/>
<path d="M367.643 95.4997L383.349 87.4102" stroke="white" stroke-miterlimit="10"/>
<path d="M350.801 75.7719L366.614 68.0371" stroke="white" stroke-miterlimit="10"/>
<path d="M472.166 166L500.708 171.357L500.885 166.425" stroke="white" stroke-miterlimit="10"/>
<path d="M472.732 146.911L501.451 152.02L501.274 156.988" stroke="white" stroke-miterlimit="10"/>
<path d="M501.168 159.578L500.99 163.977" stroke="white" stroke-miterlimit="10"/>
<path d="M467.237 145.953L439.795 141.057" stroke="white" stroke-miterlimit="10"/>
<path d="M407.707 139.673V135.38L434.299 140.099" stroke="white" stroke-miterlimit="10"/>
<path d="M501.453 152.02L511.806 142.511L484.079 138.076L472.734 146.911L472.592 151.665" stroke="white" stroke-miterlimit="10"/>
<path d="M439.404 155.143L466.811 160.181L466.669 164.971L439.262 159.791L439.404 155.143Z" stroke="white" stroke-miterlimit="10"/>
<path d="M500.708 171.357L511.167 161.032V156.81L500.885 166.425L472.308 161.21L472.166 166" stroke="white" stroke-miterlimit="10"/>
<path d="M439.368 150.423L434.227 154.22L407.777 149.359L407.813 153.865L434.192 158.832L434.227 154.22" stroke="white" stroke-miterlimit="10"/>
<path d="M466.882 157.733L439.475 152.73L439.616 148.259L467.024 153.297L466.882 157.733Z" stroke="white" stroke-miterlimit="10"/>
<path d="M511.806 142.511V147.337L501.275 156.987L472.592 151.665" stroke="white" stroke-miterlimit="10"/>
<path d="M472.379 158.761L500.992 163.977L511.309 154.22V149.785L501.169 159.577L472.521 154.291L472.379 158.761Z" stroke="white" stroke-miterlimit="10"/>
<path d="M467.095 150.636L439.688 145.563L439.794 141.057L451.671 132.399L478.405 136.834L467.236 145.953L467.095 150.636Z" stroke="white" stroke-miterlimit="10"/>
<path d="M407.778 146.947L407.742 142.37L434.263 147.266L434.228 151.807L407.778 146.947Z" stroke="white" stroke-miterlimit="10"/>
<path d="M407.707 135.38L419.904 127.219L446.495 131.193L434.299 140.099L434.263 144.569L407.707 139.673" stroke="white" stroke-miterlimit="10"/>
<path d="M446.496 131.193V136.125" stroke="white" stroke-miterlimit="10"/>
<path d="M434.264 144.569L446.496 136.125" stroke="white" stroke-miterlimit="10"/>
<path d="M434.264 147.266L439.724 143.15" stroke="white" stroke-miterlimit="10"/>
<path d="M434.229 151.807L442.561 146.237" stroke="white" stroke-miterlimit="10"/>
<path d="M434.193 158.833L442.206 153.262" stroke="white" stroke-miterlimit="10"/>
<path d="M466.67 164.971L473.619 159.045" stroke="white" stroke-miterlimit="10"/>
<path d="M466.812 160.181L472.379 155.462" stroke="white" stroke-miterlimit="10"/>
<path d="M466.883 157.733L473.868 151.878" stroke="white" stroke-miterlimit="10"/>
<path d="M472.52 154.291L475.072 152.126" stroke="white" stroke-miterlimit="10"/>
<path d="M467.023 153.297L472.625 148.437" stroke="white" stroke-miterlimit="10"/>
<path d="M467.096 150.636L478.654 141.411L478.406 136.834" stroke="white" stroke-miterlimit="10"/>
<path d="M472.307 161.209L474.718 159.293" stroke="white" stroke-miterlimit="10"/>
<path d="M511.309 149.785L509.465 149.43" stroke="white" stroke-miterlimit="10"/>
<path d="M511.166 156.81L508.826 156.455" stroke="white" stroke-miterlimit="10"/>
<path d="M476.916 142.511H478.157" stroke="white" stroke-miterlimit="10"/>
<path d="M407.742 142.369L411.004 140.312" stroke="white" stroke-miterlimit="10"/>
<path d="M407.777 149.359L410.649 147.585" stroke="white" stroke-miterlimit="10"/>
<path d="M309.105 319.843C309.105 319.843 373.173 337.229 380.548 339.074C387.922 340.919 392.39 342.657 397.07 337.087C401.75 331.552 399.304 319.205 390.298 314.663C390.298 314.663 390.794 304.196 383.774 297.42C376.754 290.643 372.677 289.543 368.493 288.656C368.493 288.656 366.153 275.705 353.956 267.935C341.759 260.165 333.002 260.91 324.28 265.239C315.522 269.567 315.168 282.269 316.019 286.208C316.019 286.208 308.147 281.028 299.496 284.717C290.845 288.407 292.121 299.158 294.462 306.29C296.802 313.421 306.162 319.098 309.105 319.843Z" stroke="white" stroke-miterlimit="10"/>
<path d="M299.496 284.718L320.557 268.077" stroke="white" stroke-miterlimit="10"/>
<path d="M326.123 264.103L344.099 249.556C344.099 249.556 353.105 242.886 366.152 248.563C379.2 254.24 385.617 266.8 385.972 271.98C385.972 271.98 395.722 273.328 400.863 280.247C406.004 287.166 407.777 291.849 407.281 297.491C407.281 297.491 413.557 299.832 415.294 307.602C417.031 315.373 414.443 318.318 413.308 319.701C412.174 321.085 397.034 337.087 397.034 337.087" stroke="white" stroke-miterlimit="10"/>
<path d="M390.299 314.663L407.282 297.526" stroke="white" stroke-miterlimit="10"/>
<path d="M368.492 288.656L385.972 272.016" stroke="white" stroke-miterlimit="10"/>
<path d="M306.305 108.379L285.635 117.746L327.189 124.771L327.295 132.506" stroke="white" stroke-miterlimit="10"/>
<path d="M322.011 134.848L321.975 127.468L270.529 119.201L299 105.576" stroke="white" stroke-miterlimit="10"/>
<path d="M253.83 202.757L290.137 178.985L296.625 180.405" stroke="white" stroke-miterlimit="10"/>
<path d="M384.023 168.661L411.076 173.664L431.038 158.265" stroke="white" stroke-miterlimit="10"/>
<path d="M385.725 171.996L432.313 181.115L455.076 163.232" stroke="white" stroke-miterlimit="10"/>
<path d="M387.533 175.721L451.921 188.352L477.52 167.064" stroke="white" stroke-miterlimit="10"/>
<path d="M370.551 202.935L429.407 215.353L379.557 259.03" stroke="white" stroke-miterlimit="10"/>
<path d="M368.707 205.631L419.87 217.34L376.295 255.411" stroke="white" stroke-miterlimit="10"/>
<path d="M366.438 208.931L410.154 218.759L371.969 251.827" stroke="white" stroke-miterlimit="10"/>
<path d="M163.275 207.902L0.640625 171.64L357.82 28.5472L501.451 45.7553L392.212 110.862L390.971 16.271L425.966 0.304688L427.172 115.155L570.128 137.402L455.465 250.94L544.388 272.37" stroke="white" stroke-width="0.25" stroke-miterlimit="10"/>
<path d="M344.349 230.539L318.147 176.75L344.349 182.037L337.364 193.426L350.305 220.675L370.692 187.643L356.935 159.897L330.415 154.788L325.983 145.598L308.964 142.547L292.654 171.818L318.679 224.401L344.349 230.539Z" stroke="#17A697" stroke-width="2" stroke-miterlimit="10"/>
<path d="M350.306 220.675L366.438 208.931L387.534 175.721L374.097 148.863L348.072 144.073L343.321 135.238L326.338 132.329L308.965 142.547" stroke="#17A697" stroke-width="2" stroke-miterlimit="10"/>
<path d="M325.982 145.598L343.32 135.238" stroke="#17A697" stroke-width="2" stroke-miterlimit="10"/>
<path d="M330.414 154.788L348.071 144.073" stroke="#17A697" stroke-width="2" stroke-miterlimit="10"/>
<path d="M356.936 159.897L374.096 148.862" stroke="#17A697" stroke-width="2" stroke-miterlimit="10"/>
<path d="M370.691 187.643L387.533 175.721" stroke="#17A697" stroke-width="2" stroke-miterlimit="10"/>
<path d="M344.348 230.539L360.835 217.766L359.31 214.041" stroke="#17A697" stroke-width="2" stroke-miterlimit="10"/>
</g>
<path d="M251.342 21.9023H248.293V19.7734H256.909V21.9023H253.859V30.9143H251.342V21.9023Z" fill="#17A697"/>
<path d="M258.186 21.9023H264.284V23.8538H260.667V25.4149H263.752V27.2244H260.667V28.963H264.461V30.9144H258.186V21.9023Z" fill="#17A697"/>
<path d="M265.984 26.4439C265.984 23.3925 268.183 21.6895 270.665 21.6895C271.835 21.6895 272.898 22.2217 273.572 22.8958L272.225 24.386C271.728 23.9602 271.303 23.7473 270.7 23.7473C269.495 23.7473 268.537 24.7053 268.537 26.3729C268.537 28.1114 269.353 29.0339 270.629 29.0339C271.374 29.0339 271.905 28.7146 272.331 28.3243L273.678 29.779C272.863 30.666 271.728 31.0918 270.523 31.0918C268.041 31.0918 265.984 29.5661 265.984 26.4439Z" fill="#17A697"/>
<path d="M275.346 21.9023H277.863V25.202H280.806V21.9023H283.323V30.9144H280.806V27.4018H277.863V30.9144H275.346V21.9023Z" fill="#17A697"/>
<path d="M285.912 21.9023H288.429L290.557 25.8407L291.55 27.9695H291.62C291.514 27.0115 291.301 25.4859 291.301 24.386V21.9023H293.606V30.9144H291.16L288.961 26.9761L287.969 24.8472H287.898C288.004 25.8762 288.217 27.3309 288.217 28.4308V30.9144H285.912V21.9023Z" fill="#17A697"/>
<path d="M295.697 26.3374C295.697 23.357 297.505 21.6895 300.165 21.6895C302.788 21.6895 304.597 23.357 304.597 26.3374C304.597 29.3178 302.788 31.0918 300.165 31.0918C297.505 31.0918 295.697 29.3178 295.697 26.3374ZM302.044 26.3374C302.044 24.6698 301.335 23.7473 300.165 23.7473C298.959 23.7473 298.25 24.7053 298.25 26.3374C298.25 27.9695 298.959 29.0339 300.165 29.0339C301.335 29.0339 302.044 28.005 302.044 26.3374Z" fill="#17A697"/>
<path d="M306.725 21.9023H309.242V28.8565H312.823V30.9144H306.725V21.9023Z" fill="#17A697"/>
<path d="M313.779 26.3374C313.779 23.357 315.588 21.6895 318.247 21.6895C320.87 21.6895 322.679 23.357 322.679 26.3374C322.679 29.3178 320.87 31.0918 318.247 31.0918C315.588 31.0918 313.779 29.3178 313.779 26.3374ZM320.09 26.3374C320.09 24.6698 319.381 23.7473 318.211 23.7473C317.006 23.7473 316.297 24.7053 316.297 26.3374C316.297 27.9695 317.006 29.0339 318.211 29.0339C319.381 29.0339 320.09 28.005 320.09 26.3374Z" fill="#17A697"/>
<path d="M324.238 26.4439C324.238 23.3925 326.437 21.6895 329.06 21.6895C330.408 21.6895 331.436 22.2571 332.109 22.8958L330.762 24.3505C330.301 23.9247 329.84 23.7118 329.096 23.7118C327.748 23.7118 326.791 24.6698 326.791 26.4439C326.791 28.076 327.536 29.0694 329.202 29.0694C329.557 29.0694 329.876 28.9985 330.088 28.8565V27.4373H328.635V25.6988H332.287V29.9919C331.578 30.6306 330.337 31.0918 329.025 31.0918C326.366 31.0918 324.238 29.5661 324.238 26.4439Z" fill="#17A697"/>
<path d="M335.868 27.7915L333.031 21.8662H335.655L336.364 23.7112C336.577 24.3853 336.825 25.024 337.073 25.7336H337.144C337.392 25.024 337.64 24.4208 337.889 23.7112L338.598 21.8662H341.186L338.35 27.7915V30.8783H335.832V27.7915H335.868Z" fill="#17A697"/>
<path d="M248.646 38.8618C248.646 35.1718 251.093 33.043 253.894 33.043C255.312 33.043 256.482 33.7171 257.227 34.4977L255.915 36.0943C255.348 35.5621 254.745 35.2073 253.965 35.2073C252.44 35.2073 251.235 36.5555 251.235 38.7908C251.235 41.0616 252.298 42.4098 253.929 42.4098C254.851 42.4098 255.56 41.9486 256.092 41.3809L257.404 42.942C256.482 44.0065 255.241 44.5742 253.823 44.5742C250.987 44.5742 248.646 42.6227 248.646 38.8618Z" fill="#17A697"/>
<path d="M258.539 39.8198C258.539 36.8395 260.347 35.1719 263.006 35.1719C265.63 35.1719 267.438 36.8395 267.438 39.8198C267.438 42.8002 265.63 44.5742 263.006 44.5742C260.383 44.5742 258.539 42.8002 258.539 39.8198ZM264.886 39.8198C264.886 38.1522 264.177 37.2297 263.006 37.2297C261.801 37.2297 261.092 38.1877 261.092 39.8198C261.092 41.4519 261.801 42.5164 263.006 42.5164C264.177 42.5164 264.886 41.4874 264.886 39.8198Z" fill="#17A697"/>
<path d="M268.998 39.1816H273.182V40.9557H268.998V39.1816Z" fill="#17A697"/>
<path d="M274.672 39.8198C274.672 36.8395 276.48 35.1719 279.139 35.1719C281.763 35.1719 283.571 36.8395 283.571 39.8198C283.571 42.8002 281.763 44.5742 279.139 44.5742C276.516 44.5742 274.672 42.8002 274.672 39.8198ZM281.018 39.8198C281.018 38.1522 280.309 37.2297 279.139 37.2297C277.934 37.2297 277.225 38.1877 277.225 39.8198C277.225 41.4519 277.934 42.5164 279.139 42.5164C280.309 42.5164 281.018 41.4874 281.018 39.8198Z" fill="#17A697"/>
<path d="M285.699 35.3848H289.351C291.408 35.3848 293.145 36.0944 293.145 38.4006C293.145 40.6359 291.337 41.5229 289.351 41.5229H288.217V44.3613H285.699V35.3848ZM289.245 39.8198C290.238 39.8198 290.769 39.3231 290.769 38.5425C290.769 37.7265 290.273 37.3717 289.245 37.3717H288.217V39.8553H289.245V39.8198Z" fill="#17A697"/>
<path d="M295.059 35.3848H301.157V37.3362H297.54V38.8973H300.625V40.7069H297.54V42.4454H301.334V44.3968H295.059V35.3848Z" fill="#17A697"/>
<path d="M303.568 35.3848H307.149C309.206 35.3848 310.943 36.0589 310.943 38.3297C310.943 40.352 309.206 41.4165 307.185 41.4165H306.086V44.3968H303.568V35.3848ZM306.972 39.6779C308.036 39.6779 308.568 39.2167 308.568 38.4716C308.568 37.6555 307.965 37.3362 306.972 37.3362H306.086V39.6779H306.972ZM306.759 40.7423L308.851 40.0682L311.439 44.3614H308.816L306.759 40.7423Z" fill="#17A697"/>
<path d="M314.737 35.3848H317.716L320.623 44.3968H317.999L316.9 40.0682C316.688 39.2167 316.475 38.1168 316.227 37.2298H316.156C315.943 38.1168 315.73 39.1812 315.517 40.0682L314.383 44.3968H311.83L314.737 35.3848ZM313.887 40.7069H318.531V42.5164H313.887V40.7069Z" fill="#17A697"/>
<path d="M322.927 37.4072H320.445V35.3848H327.962V37.4426H325.48V44.3968H322.963V37.4072H322.927Z" fill="#17A697"/>
<path d="M329.664 35.3848H332.181V44.3968H329.664V35.3848Z" fill="#17A697"/>
<path d="M334.236 39.8198C334.236 36.8395 336.045 35.1719 338.704 35.1719C341.327 35.1719 343.136 36.8395 343.136 39.8198C343.136 42.8002 341.327 44.5742 338.704 44.5742C336.08 44.5742 334.236 42.8002 334.236 39.8198ZM340.583 39.8198C340.583 38.1522 339.874 37.2297 338.704 37.2297C337.498 37.2297 336.789 38.1877 336.789 39.8198C336.789 41.4519 337.498 42.5164 338.704 42.5164C339.874 42.5164 340.583 41.4874 340.583 39.8198Z" fill="#17A697"/>
<path d="M345.264 35.3848H347.781L349.908 39.3231L350.901 41.4519H350.972C350.866 40.494 350.653 38.9683 350.653 37.8684V35.3848H352.958V44.3968H350.511L348.313 40.4585L347.32 38.3297H347.249C347.356 39.3586 347.568 40.8133 347.568 41.9132V44.3968H345.264V35.3848Z" fill="#17A697"/>
<path d="M354.873 43.2969L356.079 41.6293C356.929 42.268 357.816 42.6583 358.702 42.6583C359.411 42.6583 359.766 42.339 359.766 41.8777C359.766 41.381 359.305 41.1681 358.667 40.9197L357.709 40.5649C356.504 40.1037 355.369 39.3941 355.369 37.9748C355.369 36.2718 356.788 35.1719 358.915 35.1719C360.369 35.1719 361.432 35.7396 362.212 36.3427L360.971 37.9394C360.298 37.4781 359.589 37.1233 358.844 37.1233C358.206 37.1233 357.851 37.3717 357.851 37.8684C357.851 38.2587 358.277 38.507 358.95 38.7554L359.872 39.0747C361.184 39.536 362.248 40.1037 362.248 41.7003C362.248 43.3324 360.901 44.6097 358.56 44.6097C357.178 44.5742 355.759 44.042 354.873 43.2969Z" fill="#17A697"/>
<path d="M94.5938 165.421C94.5938 161.731 97.0402 159.603 99.8412 159.603C101.259 159.603 102.429 160.277 103.174 161.057L101.862 162.654C101.295 162.122 100.692 161.767 99.9121 161.767C98.3875 161.767 97.182 163.115 97.182 165.35C97.182 167.621 98.2457 168.969 99.8766 168.969C100.798 168.969 101.508 168.508 102.039 167.94L103.351 169.502C102.429 170.566 101.188 171.134 99.7703 171.134C96.9693 171.098 94.5938 169.147 94.5938 165.421Z" fill="#17A697"/>
<path d="M104.52 166.379C104.52 163.399 106.328 161.731 108.987 161.731C111.611 161.731 113.419 163.399 113.419 166.379C113.419 169.36 111.611 171.134 108.987 171.134C106.328 171.098 104.52 169.36 104.52 166.379ZM110.866 166.379C110.866 164.712 110.157 163.789 108.987 163.789C107.781 163.789 107.072 164.747 107.072 166.379C107.072 168.047 107.781 169.076 108.987 169.076C110.157 169.076 110.866 168.012 110.866 166.379Z" fill="#17A697"/>
<path d="M114.805 169.856L116.01 168.189C116.861 168.828 117.748 169.218 118.634 169.218C119.343 169.218 119.698 168.899 119.698 168.437C119.698 167.941 119.237 167.728 118.598 167.479L117.641 167.124C116.436 166.663 115.301 165.954 115.301 164.534C115.301 162.831 116.719 161.731 118.847 161.731C120.3 161.731 121.364 162.299 122.144 162.902L120.903 164.499C120.229 164.038 119.52 163.683 118.776 163.683C118.138 163.683 117.783 163.931 117.783 164.428C117.783 164.818 118.208 165.067 118.882 165.315L119.804 165.634C121.116 166.096 122.179 166.663 122.179 168.26C122.179 169.892 120.832 171.169 118.492 171.169C117.109 171.098 115.727 170.602 114.805 169.856Z" fill="#17A697"/>
<path d="M125.369 163.967H122.887V161.909H130.403V163.967H127.921V170.921H125.404V163.967H125.369Z" fill="#17A697"/>
<path d="M132.035 166.735V161.909H134.517V166.876C134.517 168.473 135.013 169.041 136.006 169.041C137.034 169.041 137.46 168.473 137.46 166.876V161.909H139.835V166.735C139.835 169.821 138.524 171.099 135.935 171.099C133.453 171.099 132.035 169.821 132.035 166.735Z" fill="#17A697"/>
<path d="M142.457 161.909H145.01L146.428 165.564L146.96 167.089H147.031L147.563 165.564L148.945 161.909H151.498V170.921H149.265V168.402C149.265 167.48 149.477 165.954 149.584 165.031H149.513L148.662 167.125L147.385 170.212H146.57L145.293 167.125L144.478 165.031H144.407C144.513 165.954 144.726 167.48 144.726 168.402V170.921H142.492V161.909H142.457Z" fill="#17A697"/>
<path d="M154.09 161.909H160.188V163.861H156.572V165.422H159.656V167.231H156.572V168.97H160.365V170.921H154.09V161.909Z" fill="#17A697"/>
<path d="M162.598 161.909H166.179C168.235 161.909 169.972 162.583 169.972 164.854C169.972 166.876 168.235 167.941 166.214 167.941H165.115V170.921H162.598V161.909ZM166.001 166.238C167.065 166.238 167.597 165.777 167.597 165.031C167.597 164.215 166.994 163.896 166.001 163.896H165.115V166.238H166.001ZM165.789 167.302L167.881 166.628L170.469 170.921H167.845L165.789 167.302Z" fill="#17A697"/>
<path d="M171.25 169.856L172.455 168.189C173.306 168.828 174.193 169.218 175.079 169.218C175.788 169.218 176.143 168.899 176.143 168.437C176.143 167.941 175.682 167.728 175.044 167.479L174.086 167.124C172.881 166.663 171.746 165.954 171.746 164.534C171.746 162.831 173.165 161.731 175.292 161.731C176.746 161.731 177.809 162.299 178.589 162.902L177.348 164.499C176.675 164.038 175.966 163.683 175.221 163.683C174.583 163.683 174.228 163.931 174.228 164.428C174.228 164.818 174.654 165.067 175.327 165.315L176.249 165.634C177.561 166.096 178.625 166.663 178.625 168.26C178.625 169.892 177.277 171.169 174.937 171.169C173.555 171.098 172.172 170.602 171.25 169.856Z" fill="#17A697"/>
<path d="M183.055 167.94C183.055 164.321 188.231 164.286 188.231 162.121C188.231 161.589 187.983 161.27 187.487 161.27C186.919 161.27 186.494 161.731 186.494 162.512C186.494 164.286 188.905 166.663 191.139 168.047C192.06 168.614 192.947 169.005 193.691 169.111L193.089 171.133C191.989 170.921 190.784 170.388 189.649 169.643C186.884 167.798 184.402 164.747 184.402 162.547C184.402 160.986 185.572 159.638 187.416 159.638C189.082 159.638 190.146 160.631 190.146 162.157C190.146 165.102 185.43 165.811 185.43 167.834C185.43 168.685 186.104 169.253 187.061 169.253C187.841 169.253 188.657 168.792 189.366 168.118C190.252 167.266 190.926 166.095 191.316 164.676H193.585C193.089 166.344 192.273 167.869 191.068 169.253C190.004 170.388 188.586 171.169 186.707 171.169C184.331 171.098 183.055 169.643 183.055 167.94Z" fill="#17A697"/>
<path d="M95.125 173.298H102.074V175.391H97.6423V177.626H101.436V179.72H97.6423V182.274H102.252V184.368H95.125V173.298Z" fill="#17A697"/>
<path d="M104.449 175.391H107.002L108.42 179.046L108.952 180.571H109.023L109.555 179.046L110.938 175.391H113.49V184.403H111.257V181.884C111.257 180.962 111.469 179.436 111.576 178.513H111.505L110.654 180.607L109.378 183.694H108.562L107.286 180.607L106.47 178.513H106.399C106.506 179.436 106.718 180.962 106.718 181.884V184.403H104.485V175.391H104.449Z" fill="#17A697"/>
<path d="M116.113 175.391H119.765C121.822 175.391 123.559 176.101 123.559 178.407C123.559 180.642 121.751 181.529 119.765 181.529H118.631V184.368H116.113V175.391ZM119.694 179.826C120.687 179.826 121.219 179.329 121.219 178.549C121.219 177.733 120.723 177.378 119.694 177.378H118.666V179.862H119.694V179.826Z" fill="#17A697"/>
<path d="M125.512 175.391H128.029V182.345H131.575V184.403H125.477V175.391H125.512Z" fill="#17A697"/>
<path d="M132.531 179.862C132.531 176.881 134.339 175.214 136.999 175.214C139.622 175.214 141.431 176.881 141.431 179.862C141.431 182.842 139.622 184.616 136.999 184.616C134.339 184.581 132.531 182.842 132.531 179.862ZM138.878 179.862C138.878 178.194 138.169 177.272 136.999 177.272C135.793 177.272 135.084 178.23 135.084 179.862C135.084 181.529 135.793 182.558 136.999 182.558C138.169 182.558 138.878 181.494 138.878 179.862Z" fill="#17A697"/>
<path d="M144.622 181.316L141.785 175.391H144.409L145.118 177.236C145.331 177.91 145.579 178.549 145.827 179.258H145.898C146.146 178.549 146.394 177.946 146.643 177.236L147.352 175.391H149.94L147.104 181.316V184.403H144.586V181.316H144.622Z" fill="#17A697"/>
<path d="M151.145 175.391H157.243V177.343H153.626V178.904H156.711V180.713H153.626V182.452H157.456V184.403H151.18V175.391H151.145Z" fill="#17A697"/>
<path d="M159.656 175.391H165.755V177.343H162.138V178.904H165.223V180.713H162.138V182.452H165.932V184.403H159.656V175.391Z" fill="#17A697"/>
<path d="M167.418 183.339L168.623 181.671C169.474 182.31 170.361 182.7 171.247 182.7C171.956 182.7 172.311 182.381 172.311 181.92C172.311 181.423 171.85 181.21 171.212 180.962L170.254 180.607C169.049 180.146 167.914 179.436 167.914 178.017C167.914 176.314 169.333 175.214 171.46 175.214C172.914 175.214 173.977 175.782 174.757 176.385L173.516 177.981C172.843 177.52 172.134 177.165 171.389 177.165C170.751 177.165 170.396 177.414 170.396 177.91C170.396 178.301 170.822 178.549 171.495 178.797L172.417 179.117C173.729 179.578 174.793 180.146 174.793 181.742C174.793 183.374 173.445 184.652 171.105 184.652C169.723 184.581 168.34 184.084 167.418 183.339Z" fill="#17A697"/>
<path d="M372.389 342.931H376.183C378.629 342.931 380.579 343.818 380.579 346.514C380.579 349.14 378.594 350.275 376.254 350.275H374.871V354.036H372.354V342.931H372.389ZM376.147 348.288C377.53 348.288 378.168 347.685 378.168 346.514C378.168 345.343 377.424 344.953 376.076 344.953H374.906V348.288H376.147Z" fill="#17A697"/>
<path d="M382.494 349.849V345.024H384.976V349.991C384.976 351.588 385.472 352.156 386.465 352.156C387.493 352.156 387.919 351.588 387.919 349.991V345.024H390.294V349.849C390.294 352.936 388.983 354.213 386.394 354.213C383.877 354.249 382.494 352.972 382.494 349.849Z" fill="#17A697"/>
<path d="M392.883 345.024H396.287C398.272 345.024 399.903 345.485 399.903 347.295C399.903 348.04 399.442 348.962 398.343 349.211V349.282C399.655 349.53 400.328 350.204 400.328 351.41C400.328 353.255 398.627 354.036 396.57 354.036H392.883V345.024ZM396.287 348.643C397.208 348.643 397.598 348.253 397.598 347.685C397.598 347.082 397.173 346.869 396.287 346.869H395.365V348.643H396.287ZM396.393 352.226C397.421 352.226 397.917 351.836 397.917 351.198C397.917 350.559 397.421 350.204 396.393 350.204H395.4V352.226H396.393Z" fill="#17A697"/>
<path d="M402.172 345.024H404.689V351.978H408.27V354.036H402.172V345.024Z" fill="#17A697"/>
<path d="M410.186 345.024H412.703V354.036H410.186V345.024Z" fill="#17A697"/>
<path d="M414.795 349.601C414.795 346.549 416.993 344.846 419.475 344.846C420.645 344.846 421.709 345.378 422.382 346.053L421.035 347.543C420.539 347.117 420.113 346.904 419.51 346.904C418.305 346.904 417.348 347.862 417.348 349.53C417.348 351.268 418.163 352.191 419.44 352.191C420.184 352.191 420.716 351.871 421.141 351.481L422.489 352.936C421.673 353.823 420.539 354.249 419.333 354.249C416.851 354.249 414.795 352.723 414.795 349.601Z" fill="#17A697"/>
<path d="M427.025 349.601C427.025 346.549 429.224 344.846 431.706 344.846C432.876 344.846 433.939 345.378 434.613 346.053L433.266 347.543C432.769 347.117 432.344 346.904 431.741 346.904C430.535 346.904 429.578 347.862 429.578 349.53C429.578 351.268 430.394 352.191 431.67 352.191C432.415 352.191 432.946 351.871 433.372 351.481L434.719 352.936C433.904 353.823 432.769 354.249 431.564 354.249C429.117 354.249 427.025 352.723 427.025 349.601Z" fill="#17A697"/>
<path d="M436.422 345.024H438.939V351.978H442.52V354.036H436.422V345.024Z" fill="#17A697"/>
<path d="M443.441 349.494C443.441 346.514 445.25 344.846 447.909 344.846C450.533 344.846 452.341 346.514 452.341 349.494C452.341 352.474 450.533 354.249 447.909 354.249C445.285 354.249 443.441 352.474 443.441 349.494ZM449.788 349.494C449.788 347.827 449.079 346.904 447.909 346.904C446.703 346.904 445.994 347.862 445.994 349.494C445.994 351.126 446.703 352.191 447.909 352.191C449.079 352.191 449.788 351.162 449.788 349.494Z" fill="#17A697"/>
<path d="M454.398 349.849V345.024H456.88V349.991C456.88 351.588 457.377 352.156 458.369 352.156C459.398 352.156 459.823 351.588 459.823 349.991V345.024H462.199V349.849C462.199 352.936 460.887 354.213 458.299 354.213C455.781 354.249 454.398 352.972 454.398 349.849Z" fill="#17A697"/>
<path d="M464.785 345.024H467.586C470.458 345.024 472.55 346.23 472.55 349.459C472.55 352.723 470.458 354.001 467.728 354.001H464.75V345.024H464.785ZM467.764 352.085C469.182 352.085 469.997 351.339 469.997 349.494C469.997 347.649 469.182 346.975 467.764 346.975H467.303V352.085H467.764Z" fill="#17A697"/>
<path d="M371.68 366.1L373.133 364.361C373.913 365.036 374.942 365.532 375.863 365.532C376.927 365.532 377.424 365.106 377.424 364.468C377.424 363.758 376.785 363.545 375.828 363.155L374.374 362.552C373.24 362.091 372.141 361.133 372.141 359.536C372.141 357.691 373.772 356.236 376.076 356.236C377.353 356.236 378.7 356.733 379.657 357.691L378.381 359.288C377.636 358.72 376.963 358.401 376.076 358.401C375.225 358.401 374.658 358.755 374.658 359.394C374.658 360.068 375.367 360.317 376.36 360.707L377.778 361.275C379.125 361.807 379.976 362.729 379.976 364.29C379.976 366.135 378.452 367.732 375.793 367.732C374.339 367.732 372.814 367.164 371.68 366.1Z" fill="#17A697"/>
<path d="M381.855 358.506H387.954V360.458H384.373V362.019H387.457V363.828H384.373V365.567H388.167V367.518H381.891V358.506H381.855Z" fill="#17A697"/>
<path d="M390.365 358.506H393.946C396.003 358.506 397.74 359.18 397.74 361.451C397.74 363.474 396.003 364.538 393.982 364.538H392.883V367.518H390.365V358.506ZM393.769 362.835C394.833 362.835 395.364 362.374 395.364 361.629C395.364 360.813 394.762 360.493 393.769 360.493H392.883V362.835H393.769ZM393.556 363.899L395.648 363.225L398.236 367.518H395.613L393.556 363.899Z" fill="#17A697"/>
<path d="M398.484 358.506H401.073L402.101 362.409C402.349 363.367 402.562 364.254 402.81 365.283H402.881C403.164 364.29 403.342 363.367 403.59 362.409L404.583 358.506H407.1L404.299 367.518H401.321L398.484 358.506Z" fill="#17A697"/>
<path d="M408.27 358.506H410.787V367.518H408.27V358.506Z" fill="#17A697"/>
<path d="M412.844 363.083C412.844 360.032 415.042 358.329 417.524 358.329C418.694 358.329 419.758 358.861 420.431 359.535L419.084 361.025C418.588 360.599 418.162 360.386 417.559 360.386C416.354 360.386 415.397 361.344 415.397 363.012C415.397 364.751 416.212 365.673 417.488 365.673C418.233 365.673 418.765 365.354 419.19 364.963L420.538 366.418C419.722 367.305 418.588 367.731 417.382 367.731C414.936 367.731 412.844 366.205 412.844 363.083Z" fill="#17A697"/>
<path d="M422.24 358.506H428.339V360.458H424.722V362.019H427.807V363.828H424.722V365.567H428.516V367.518H422.24V358.506Z" fill="#17A697"/>
<path d="M430.004 366.454L431.209 364.786C432.06 365.425 432.947 365.815 433.833 365.815C434.542 365.815 434.897 365.496 434.897 365.034C434.897 364.538 434.436 364.325 433.798 364.076L432.84 363.722C431.635 363.26 430.5 362.551 430.5 361.132C430.5 359.429 431.919 358.329 434.046 358.329C435.5 358.329 436.563 358.896 437.343 359.499L436.102 361.096C435.429 360.635 434.72 360.28 433.975 360.28C433.337 360.28 432.982 360.528 432.982 361.025C432.982 361.415 433.408 361.664 434.081 361.912L435.003 362.231C436.315 362.693 437.379 363.26 437.379 364.857C437.379 366.489 436.031 367.766 433.691 367.766C432.309 367.731 430.926 367.199 430.004 366.454Z" fill="#17A697"/>
<path d="M464.254 103.473H466.771V114.578H464.254V103.473Z" fill="#17A697"/>
<path d="M469.359 105.566H471.877L474.004 109.505L474.997 111.634H475.068C474.961 110.676 474.749 109.15 474.749 108.05V105.566H477.053V114.578H474.607L472.409 110.64L471.416 108.511H471.345C471.451 109.54 471.664 110.995 471.664 112.095V114.578H469.359V105.566Z" fill="#17A697"/>
<path d="M481.308 107.624H478.826V105.566H486.343V107.624H483.861V114.578H481.344V107.624H481.308Z" fill="#17A697"/>
<path d="M488.045 105.566H494.143V107.518H490.527V109.079H493.611V110.888H490.527V112.627H494.321V114.578H488.045V105.566Z" fill="#17A697"/>
<path d="M496.555 105.566H500.136C502.192 105.566 503.929 106.241 503.929 108.511C503.929 110.534 502.192 111.598 500.171 111.598H499.072V114.578H496.555V105.566ZM499.958 109.895C501.022 109.895 501.554 109.434 501.554 108.689C501.554 107.873 500.951 107.553 499.958 107.553H499.072V109.895H499.958ZM499.746 110.959L501.838 110.285L504.426 114.578H501.802L499.746 110.959Z" fill="#17A697"/>
<path d="M506.092 105.566H508.609L510.736 109.505L511.729 111.634H511.8C511.694 110.676 511.481 109.15 511.481 108.05V105.566H513.786V114.578H511.339L509.141 110.64L508.148 108.511H508.077C508.184 109.54 508.396 110.995 508.396 112.095V114.578H506.092V105.566Z" fill="#17A697"/>
<path d="M517.898 105.566H520.876L523.783 114.578H521.16L520.06 110.25C519.848 109.398 519.635 108.298 519.387 107.411H519.316C519.103 108.298 518.89 109.363 518.678 110.25L517.543 114.578H514.99L517.898 105.566ZM517.047 110.924H521.691V112.733H517.047V110.924Z" fill="#17A697"/>
<path d="M524.953 105.566H527.47V112.521H531.051V114.578H524.953V105.566Z" fill="#17A697"/>
<path d="M463.545 126.677L464.999 124.939C465.779 125.613 466.807 126.109 467.729 126.109C468.792 126.109 469.289 125.684 469.289 125.045C469.289 124.335 468.651 124.122 467.693 123.732L466.24 123.129C465.105 122.668 464.006 121.71 464.006 120.113C464.006 118.268 465.637 116.813 467.941 116.813C469.218 116.813 470.565 117.31 471.522 118.268L470.246 119.865C469.501 119.297 468.828 118.978 467.941 118.978C467.09 118.978 466.523 119.333 466.523 119.971C466.523 120.645 467.232 120.894 468.225 121.284L469.643 121.852C470.991 122.384 471.842 123.306 471.842 124.868C471.842 126.713 470.317 128.309 467.658 128.309C466.204 128.274 464.68 127.706 463.545 126.677Z" fill="#17A697"/>
<path d="M473.721 119.049H479.819V121H476.203V122.561H479.287V124.371H476.203V126.109H479.996V128.061H473.721V119.049Z" fill="#17A697"/>
<path d="M482.195 119.049H485.776C487.833 119.049 489.57 119.723 489.57 121.994C489.57 124.016 487.833 125.081 485.812 125.081H484.713V128.061H482.195V119.049ZM485.634 123.377C486.698 123.377 487.23 122.916 487.23 122.171C487.23 121.355 486.627 121.036 485.634 121.036H484.748V123.377H485.634ZM485.422 124.442L487.514 123.768L490.102 128.061H487.478L485.422 124.442Z" fill="#17A697"/>
<path d="M490.314 119.049H492.903L493.931 122.952C494.179 123.91 494.392 124.797 494.64 125.826H494.711C494.995 124.832 495.172 123.91 495.42 122.952L496.413 119.049H498.93L496.129 128.061H493.151L490.314 119.049Z" fill="#17A697"/>
<path d="M500.1 119.049H502.617V128.061H500.1V119.049Z" fill="#17A697"/>
<path d="M504.709 123.625C504.709 120.574 506.907 118.871 509.389 118.871C510.559 118.871 511.623 119.403 512.296 120.077L510.949 121.568C510.453 121.142 510.027 120.929 509.425 120.929C508.219 120.929 507.262 121.887 507.262 123.555C507.262 125.293 508.077 126.216 509.354 126.216C510.098 126.216 510.63 125.896 511.056 125.506L512.403 126.961C511.587 127.848 510.453 128.273 509.247 128.273C506.801 128.273 504.709 126.748 504.709 123.625Z" fill="#17A697"/>
<path d="M514.068 119.049H520.167V121H516.55V122.561H519.635V124.371H516.55V126.109H520.344V128.061H514.068V119.049Z" fill="#17A697"/>
<path d="M521.869 126.996L523.075 125.329C523.926 125.967 524.812 126.357 525.698 126.357C526.407 126.357 526.762 126.038 526.762 125.577C526.762 125.08 526.301 124.867 525.663 124.619L524.706 124.264C523.5 123.803 522.365 123.093 522.365 121.674C522.365 119.971 523.784 118.871 525.911 118.871C527.365 118.871 528.428 119.439 529.208 120.042L527.967 121.639C527.294 121.177 526.585 120.823 525.84 120.823C525.202 120.823 524.847 121.071 524.847 121.568C524.847 121.958 525.273 122.206 525.947 122.455L526.868 122.774C528.18 123.235 529.244 123.803 529.244 125.4C529.244 127.032 527.897 128.309 525.556 128.309C524.174 128.273 522.791 127.741 521.869 126.996Z" fill="#17A697"/>
<path d="M243.756 165.988H244.997C246.096 165.988 246.77 166.343 246.77 167.372C246.77 168.33 246.131 168.791 245.032 168.791H244.11V170.92H243.756V165.988ZM244.961 168.507C245.954 168.507 246.45 168.188 246.45 167.372C246.45 166.556 245.954 166.308 244.926 166.308H244.11V168.543H244.961V168.507Z" fill="white"/>
<path d="M247.551 168.437C247.551 166.876 248.402 165.918 249.643 165.918C250.21 165.918 250.671 166.202 250.919 166.521L250.706 166.734C250.458 166.415 250.068 166.237 249.643 166.237C248.579 166.237 247.905 167.089 247.905 168.473C247.905 169.821 248.579 170.708 249.607 170.708C250.104 170.708 250.494 170.495 250.848 170.105L251.061 170.318C250.671 170.743 250.245 171.027 249.607 171.027C248.402 170.992 247.551 169.998 247.551 168.437Z" fill="white"/>
<path d="M252.053 165.989H252.407V170.921H252.053V165.989Z" fill="white"/>
<path d="M253.436 168.898H255.067V169.182H253.436V168.898Z" fill="white"/>
<path d="M256.059 165.989H257.193C258.718 165.989 259.427 166.947 259.427 168.437C259.427 169.928 258.718 170.921 257.193 170.921H256.059V165.989ZM257.158 170.637C258.505 170.637 259.072 169.75 259.072 168.473C259.072 167.196 258.505 166.309 257.158 166.309H256.413V170.637H257.158Z" fill="white"/>
<path d="M260.172 170.282L260.385 170.034C260.739 170.424 261.236 170.708 261.838 170.708C262.583 170.708 263.044 170.318 263.044 169.715C263.044 169.111 262.654 168.899 262.157 168.686L261.413 168.366C260.987 168.189 260.42 167.87 260.42 167.16C260.42 166.45 261.023 165.954 261.838 165.954C262.441 165.954 262.902 166.237 263.221 166.557L263.008 166.77C262.725 166.45 262.335 166.273 261.838 166.273C261.2 166.273 260.739 166.628 260.739 167.16C260.739 167.728 261.236 167.941 261.59 168.118L262.335 168.437C262.867 168.686 263.363 168.969 263.363 169.75C263.363 170.495 262.76 171.063 261.803 171.063C261.129 170.992 260.562 170.708 260.172 170.282Z" fill="white"/>
<path d="M263.965 170.282L264.178 170.034C264.532 170.424 265.028 170.708 265.631 170.708C266.376 170.708 266.837 170.318 266.837 169.715C266.837 169.111 266.447 168.899 265.95 168.686L265.206 168.366C264.78 168.189 264.213 167.87 264.213 167.16C264.213 166.45 264.816 165.954 265.631 165.954C266.234 165.954 266.695 166.237 267.014 166.557L266.801 166.77C266.518 166.45 266.128 166.273 265.631 166.273C264.993 166.273 264.532 166.628 264.532 167.16C264.532 167.728 265.029 167.941 265.383 168.118L266.128 168.437C266.659 168.686 267.156 168.969 267.156 169.75C267.156 170.495 266.553 171.063 265.596 171.063C264.922 170.992 264.355 170.708 263.965 170.282Z" fill="white"/>
<path d="M268.148 139.343H268.503V144.239H268.148V139.343Z" fill="white"/>
<path d="M269.957 139.343H271.198C272.297 139.343 272.971 139.698 272.971 140.727C272.971 141.684 272.333 142.146 271.233 142.146H270.312V144.275H269.957V139.343ZM271.127 141.826C272.12 141.826 272.616 141.507 272.616 140.691C272.616 139.875 272.12 139.627 271.092 139.627H270.276V141.862H271.127V141.826Z" fill="white"/>
<path d="M275.027 140.691L275.524 140.656H276.658V140.939H275.027V140.691ZM275.524 139.875C275.524 139.165 275.843 138.811 276.41 138.811C276.587 138.811 276.765 138.846 276.942 138.917L276.836 139.201C276.694 139.13 276.552 139.094 276.41 139.094C276.02 139.094 275.843 139.378 275.843 139.91V144.275H275.524V139.875Z" fill="white"/>
<path d="M277.297 139.52C277.297 139.343 277.439 139.236 277.581 139.236C277.758 139.236 277.864 139.343 277.864 139.52C277.864 139.698 277.722 139.804 277.581 139.804C277.439 139.804 277.297 139.662 277.297 139.52ZM277.439 140.656H277.758V144.239H277.439V140.656Z" fill="white"/>
<path d="M279.141 143.778V138.882H279.46V143.814C279.46 143.956 279.531 144.062 279.602 144.062C279.637 144.062 279.672 144.062 279.743 144.062L279.814 144.346C279.743 144.381 279.672 144.381 279.566 144.381C279.282 144.346 279.141 144.168 279.141 143.778Z" fill="white"/>
<path d="M280.983 143.246V140.94H280.416V140.691L280.983 140.656L281.019 139.627H281.302V140.656H282.331V140.94H281.302V143.281C281.302 143.743 281.409 144.062 281.905 144.062C282.047 144.062 282.224 143.991 282.366 143.956L282.437 144.239C282.224 144.31 282.012 144.381 281.87 144.381C281.196 144.346 280.983 143.885 280.983 143.246Z" fill="white"/>
<path d="M282.863 142.465C282.863 141.294 283.608 140.584 284.423 140.584C285.274 140.584 285.806 141.188 285.806 142.252C285.806 142.359 285.806 142.429 285.771 142.536H283.218C283.218 143.423 283.75 144.097 284.565 144.097C284.955 144.097 285.274 143.955 285.522 143.778L285.664 144.026C285.381 144.204 285.062 144.381 284.53 144.381C283.608 144.345 282.863 143.636 282.863 142.465ZM285.487 142.217C285.487 141.294 285.062 140.833 284.423 140.833C283.821 140.833 283.289 141.33 283.182 142.217H285.487Z" fill="white"/>
<path d="M286.764 140.655H287.047L287.083 141.33C287.331 140.904 287.685 140.584 288.111 140.584C288.253 140.584 288.359 140.584 288.466 140.655L288.395 140.939C288.288 140.904 288.217 140.868 288.076 140.868C287.756 140.868 287.366 141.117 287.083 141.791V144.239H286.764V140.655Z" fill="white"/>
<path d="M288.996 139.52C288.996 139.343 289.138 139.236 289.28 139.236C289.457 139.236 289.563 139.343 289.563 139.52C289.563 139.698 289.422 139.804 289.28 139.804C289.102 139.804 288.996 139.662 288.996 139.52ZM289.102 140.656H289.422V144.239H289.102V140.656Z" fill="white"/>
<path d="M290.805 140.655H291.088L291.124 141.223C291.478 140.868 291.868 140.584 292.365 140.584C293.109 140.584 293.428 141.046 293.428 141.968V144.274H293.109V142.039C293.109 141.294 292.861 140.904 292.294 140.904C291.868 140.904 291.549 141.117 291.124 141.578V144.274H290.805V140.655Z" fill="white"/>
<path d="M294.457 144.984C294.457 144.665 294.67 144.346 294.989 144.133V144.097C294.812 143.991 294.67 143.814 294.67 143.53C294.67 143.21 294.918 142.997 295.06 142.856V142.82C294.847 142.643 294.599 142.288 294.599 141.827C294.599 141.082 295.166 140.549 295.84 140.549C296.017 140.549 296.194 140.585 296.301 140.656H297.506V140.94H296.691C296.939 141.152 297.081 141.472 297.081 141.827C297.081 142.572 296.549 143.104 295.84 143.104C295.627 143.104 295.414 143.033 295.237 142.962C295.095 143.104 294.953 143.246 294.953 143.494C294.953 143.743 295.095 143.955 295.627 143.955H296.407C297.223 143.955 297.577 144.204 297.577 144.771C297.577 145.375 296.903 145.978 295.875 145.978C295.024 145.978 294.457 145.588 294.457 144.984ZM297.293 144.807C297.293 144.417 297.01 144.275 296.478 144.275H295.698C295.627 144.275 295.45 144.275 295.273 144.204C294.953 144.417 294.812 144.701 294.812 144.949C294.812 145.41 295.237 145.694 295.982 145.694C296.797 145.694 297.293 145.233 297.293 144.807ZM296.797 141.827C296.797 141.223 296.372 140.833 295.875 140.833C295.379 140.833 294.953 141.223 294.953 141.827C294.953 142.43 295.379 142.82 295.875 142.82C296.372 142.82 296.797 142.43 296.797 141.827Z" fill="white"/>
<path d="M450.177 204.06H448.617V203.776H452.092V204.06H450.532V208.672H450.177V204.06Z" fill="white"/>
<path d="M452.588 205.089H452.872L452.907 205.763C453.155 205.337 453.51 205.018 453.935 205.018C454.077 205.018 454.183 205.018 454.29 205.089L454.219 205.372C454.112 205.337 454.042 205.301 453.9 205.301C453.581 205.301 453.191 205.55 452.907 206.224V208.672H452.588V205.089Z" fill="white"/>
<path d="M454.539 207.785C454.539 207.005 455.248 206.614 456.844 206.437C456.844 205.905 456.702 205.301 455.993 205.301C455.496 205.301 455.106 205.55 454.858 205.727L454.716 205.479C454.965 205.301 455.461 205.018 456.064 205.018C456.915 205.018 457.198 205.621 457.198 206.401V208.672H456.915L456.879 208.211C456.525 208.495 456.064 208.779 455.603 208.779C455.035 208.743 454.539 208.459 454.539 207.785ZM456.844 207.892V206.685C455.39 206.863 454.858 207.182 454.858 207.75C454.858 208.246 455.213 208.459 455.603 208.459C456.064 208.459 456.418 208.282 456.844 207.892Z" fill="white"/>
<path d="M458.014 205.124L458.51 205.088H461.63V205.372H458.014V205.124ZM458.51 204.414C458.51 203.669 458.865 203.279 459.467 203.279C459.645 203.279 459.893 203.314 460.07 203.421L459.964 203.705C459.786 203.634 459.609 203.598 459.467 203.598C459.042 203.598 458.829 203.918 458.829 204.485V208.708H458.51V204.414ZM460.496 204.272C460.496 203.563 460.815 203.208 461.382 203.208C461.559 203.208 461.737 203.243 461.914 203.314L461.807 203.598C461.666 203.527 461.524 203.492 461.382 203.492C460.992 203.492 460.815 203.776 460.815 204.308V208.672H460.496V204.272Z" fill="white"/>
<path d="M462.268 203.918C462.268 203.741 462.409 203.634 462.551 203.634C462.728 203.634 462.835 203.741 462.835 203.918C462.835 204.096 462.693 204.202 462.551 204.202C462.409 204.237 462.268 204.096 462.268 203.918ZM462.409 205.089H462.728V208.673H462.409V205.089Z" fill="white"/>
<path d="M463.828 206.862C463.828 205.656 464.608 204.982 465.459 204.982C465.955 204.982 466.275 205.195 466.523 205.408L466.345 205.621C466.097 205.408 465.849 205.23 465.495 205.23C464.75 205.23 464.183 205.869 464.183 206.827C464.183 207.785 464.679 208.424 465.459 208.424C465.849 208.424 466.168 208.246 466.416 207.998L466.594 208.246C466.275 208.53 465.92 208.707 465.459 208.707C464.502 208.743 463.828 208.069 463.828 206.862Z" fill="white"/>
<path d="M468.65 206.862C468.65 205.656 469.43 204.982 470.281 204.982C470.778 204.982 471.097 205.195 471.345 205.408L471.168 205.621C470.92 205.408 470.671 205.23 470.317 205.23C469.572 205.23 469.005 205.869 469.005 206.827C469.005 207.785 469.501 208.424 470.281 208.424C470.671 208.424 470.99 208.246 471.239 207.998L471.416 208.246C471.097 208.53 470.742 208.707 470.281 208.707C469.36 208.743 468.65 208.069 468.65 206.862Z" fill="white"/>
<path d="M471.877 206.862C471.877 205.656 472.622 204.982 473.472 204.982C474.323 204.982 475.068 205.656 475.068 206.862C475.068 208.033 474.323 208.743 473.472 208.743C472.622 208.743 471.877 208.069 471.877 206.862ZM474.713 206.862C474.713 205.904 474.182 205.266 473.437 205.266C472.728 205.266 472.161 205.904 472.161 206.862C472.161 207.82 472.692 208.459 473.437 208.459C474.182 208.459 474.713 207.82 474.713 206.862Z" fill="white"/>
<path d="M476.131 205.089H476.414L476.45 205.656C476.804 205.301 477.194 205.018 477.691 205.018C478.435 205.018 478.755 205.479 478.755 206.401V208.708H478.435V206.401C478.435 205.656 478.187 205.266 477.62 205.266C477.195 205.266 476.875 205.479 476.45 205.94V208.637H476.131V205.089Z" fill="white"/>
<path d="M480.173 207.679V205.373H479.605V205.124L480.173 205.089L480.208 204.06H480.492V205.089H481.52V205.373H480.492V207.715C480.492 208.176 480.598 208.495 481.095 208.495C481.236 208.495 481.414 208.424 481.556 208.389L481.626 208.673C481.414 208.743 481.201 208.814 481.059 208.814C480.385 208.743 480.173 208.318 480.173 207.679Z" fill="white"/>
<path d="M482.441 205.089H482.725L482.761 205.763C483.009 205.337 483.363 205.018 483.789 205.018C483.931 205.018 484.037 205.018 484.143 205.089L484.072 205.372C483.966 205.337 483.895 205.301 483.753 205.301C483.434 205.301 483.044 205.55 482.761 206.224V208.672H482.441V205.089Z" fill="white"/>
<path d="M484.428 206.862C484.428 205.656 485.172 204.982 486.023 204.982C486.874 204.982 487.619 205.656 487.619 206.862C487.619 208.033 486.874 208.743 486.023 208.743C485.172 208.743 484.428 208.069 484.428 206.862ZM487.264 206.862C487.264 205.904 486.732 205.266 485.988 205.266C485.279 205.266 484.711 205.904 484.711 206.862C484.711 207.82 485.243 208.459 485.988 208.459C486.732 208.459 487.264 207.82 487.264 206.862Z" fill="white"/>
<path d="M488.682 208.176V203.279H489.001V208.211C489.001 208.353 489.072 208.459 489.143 208.459C489.178 208.459 489.213 208.459 489.284 208.459L489.355 208.743C489.284 208.779 489.213 208.779 489.107 208.779C488.823 208.743 488.682 208.566 488.682 208.176Z" fill="white"/>
<path d="M467.764 181.67H468.118V186.283H470.387V186.567H467.799V181.67H467.764Z" fill="white"/>
<path d="M470.848 184.794C470.848 183.587 471.592 182.913 472.443 182.913C473.294 182.913 474.039 183.587 474.039 184.794C474.039 185.964 473.294 186.674 472.443 186.674C471.592 186.674 470.848 186 470.848 184.794ZM473.684 184.794C473.684 183.836 473.152 183.197 472.408 183.197C471.699 183.197 471.131 183.836 471.131 184.794C471.131 185.752 471.663 186.39 472.408 186.39C473.152 186.39 473.684 185.752 473.684 184.794Z" fill="white"/>
<path d="M474.82 187.313C474.82 186.993 475.033 186.674 475.352 186.461V186.425C475.175 186.319 475.033 186.142 475.033 185.858C475.033 185.538 475.281 185.326 475.423 185.184V185.148C475.21 184.971 474.962 184.616 474.962 184.155C474.962 183.41 475.529 182.877 476.203 182.877C476.38 182.877 476.558 182.913 476.664 182.984H477.869V183.268H477.054C477.302 183.481 477.444 183.8 477.444 184.155C477.444 184.9 476.912 185.432 476.203 185.432C475.99 185.432 475.778 185.361 475.6 185.29C475.459 185.432 475.317 185.574 475.317 185.822C475.317 186.071 475.459 186.284 475.99 186.284H476.77C477.586 186.284 477.94 186.532 477.94 187.1C477.94 187.703 477.267 188.306 476.239 188.306C475.388 188.306 474.82 187.916 474.82 187.313ZM477.657 187.135C477.657 186.745 477.373 186.603 476.841 186.603H476.061C475.99 186.603 475.813 186.603 475.636 186.532C475.317 186.745 475.175 187.029 475.175 187.277C475.175 187.738 475.6 188.022 476.345 188.022C477.125 188.058 477.657 187.596 477.657 187.135ZM477.16 184.19C477.16 183.587 476.735 183.197 476.239 183.197C475.742 183.197 475.317 183.587 475.317 184.19C475.317 184.793 475.742 185.184 476.239 185.184C476.735 185.184 477.16 184.793 477.16 184.19Z" fill="white"/>
<path d="M478.436 187.313C478.436 186.993 478.648 186.674 478.967 186.461V186.425C478.79 186.319 478.648 186.142 478.648 185.858C478.648 185.538 478.896 185.326 479.038 185.184V185.148C478.826 184.971 478.577 184.616 478.577 184.155C478.577 183.41 479.145 182.877 479.818 182.877C479.996 182.877 480.173 182.913 480.279 182.984H481.485V183.268H480.669C480.917 183.481 481.059 183.8 481.059 184.155C481.059 184.9 480.527 185.432 479.818 185.432C479.606 185.432 479.393 185.361 479.216 185.29C479.074 185.432 478.932 185.574 478.932 185.822C478.932 186.071 479.074 186.284 479.606 186.284H480.386C481.201 186.284 481.556 186.532 481.556 187.1C481.556 187.703 480.882 188.306 479.854 188.306C479.003 188.306 478.436 187.916 478.436 187.313ZM481.272 187.135C481.272 186.745 480.988 186.603 480.456 186.603H479.676C479.606 186.603 479.428 186.603 479.251 186.532C478.932 186.745 478.79 187.029 478.79 187.277C478.79 187.738 479.216 188.022 479.96 188.022C480.74 188.058 481.272 187.596 481.272 187.135ZM480.776 184.19C480.776 183.587 480.35 183.197 479.854 183.197C479.357 183.197 478.932 183.587 478.932 184.19C478.932 184.793 479.357 185.184 479.854 185.184C480.35 185.184 480.776 184.793 480.776 184.19Z" fill="white"/>
<path d="M482.23 181.848C482.23 181.671 482.372 181.564 482.514 181.564C482.656 181.564 482.798 181.671 482.798 181.848C482.798 182.026 482.656 182.132 482.514 182.132C482.372 182.132 482.23 182.026 482.23 181.848ZM482.372 183.019H482.691V186.603H482.372V183.019Z" fill="white"/>
<path d="M484.074 183.019H484.358L484.393 183.587C484.748 183.232 485.138 182.948 485.634 182.948C486.379 182.948 486.698 183.409 486.698 184.332V186.638H486.379V184.403C486.379 183.658 486.131 183.268 485.563 183.268C485.138 183.268 484.819 183.48 484.393 183.942V186.638H484.074V183.019Z" fill="white"/>
<path d="M487.725 187.313C487.725 186.993 487.937 186.674 488.256 186.461V186.425C488.079 186.319 487.937 186.142 487.937 185.858C487.937 185.538 488.186 185.326 488.327 185.184V185.148C488.115 184.971 487.866 184.616 487.866 184.155C487.866 183.41 488.434 182.877 489.107 182.877C489.285 182.877 489.462 182.913 489.568 182.984H490.774V183.268H489.958C490.207 183.481 490.348 183.8 490.348 184.155C490.348 184.9 489.817 185.432 489.107 185.432C488.895 185.432 488.682 185.361 488.505 185.29C488.363 185.432 488.221 185.574 488.221 185.822C488.221 186.071 488.363 186.284 488.895 186.284H489.675C490.49 186.284 490.845 186.532 490.845 187.1C490.845 187.703 490.171 188.306 489.143 188.306C488.292 188.306 487.725 187.916 487.725 187.313ZM490.561 187.135C490.561 186.745 490.277 186.603 489.746 186.603H488.966C488.895 186.603 488.717 186.603 488.54 186.532C488.221 186.745 488.079 187.029 488.079 187.277C488.079 187.738 488.505 188.022 489.249 188.022C490.029 188.058 490.561 187.596 490.561 187.135ZM490.065 184.19C490.065 183.587 489.639 183.197 489.143 183.197C488.646 183.197 488.221 183.587 488.221 184.19C488.221 184.793 488.646 185.184 489.143 185.184C489.639 185.184 490.065 184.793 490.065 184.19Z" fill="white"/>
<path d="M445.463 193.061H445.817V197.673H448.087V197.957H445.498V193.061H445.463Z" fill="white"/>
<path d="M448.547 196.218C448.547 195.012 449.291 194.338 450.142 194.338C450.993 194.338 451.738 195.012 451.738 196.218C451.738 197.389 450.993 198.099 450.142 198.099C449.291 198.099 448.547 197.389 448.547 196.218ZM451.383 196.218C451.383 195.26 450.852 194.622 450.107 194.622C449.398 194.622 448.831 195.26 448.831 196.218C448.831 197.176 449.362 197.815 450.107 197.815C450.852 197.779 451.383 197.141 451.383 196.218Z" fill="white"/>
<path d="M452.447 197.105C452.447 196.325 453.156 195.935 454.752 195.757C454.752 195.225 454.61 194.622 453.901 194.622C453.405 194.622 453.015 194.87 452.766 195.048L452.625 194.799C452.873 194.622 453.369 194.338 453.972 194.338C454.823 194.338 455.106 194.941 455.106 195.722V197.992H454.823L454.787 197.531C454.433 197.815 453.972 198.099 453.511 198.099C452.908 198.063 452.447 197.779 452.447 197.105ZM454.752 197.212V196.005C453.298 196.183 452.766 196.502 452.766 197.07C452.766 197.567 453.121 197.78 453.511 197.78C453.936 197.78 454.326 197.602 454.752 197.212Z" fill="white"/>
<path d="M456.064 196.218C456.064 195.047 456.809 194.338 457.66 194.338C458.085 194.338 458.369 194.515 458.724 194.763V194.089V192.599H459.043V197.957H458.759L458.724 197.495C458.44 197.779 458.05 198.063 457.554 198.063C456.632 198.063 456.064 197.424 456.064 196.218ZM458.724 197.212V195.083C458.334 194.763 458.05 194.622 457.695 194.622C456.986 194.622 456.455 195.331 456.455 196.218C456.455 197.176 456.88 197.815 457.625 197.815C457.979 197.779 458.334 197.566 458.724 197.212Z" fill="white"/>
<path d="M462.233 197.638L462.163 197.992H461.879V192.635H462.198V194.196V194.906C462.553 194.586 462.978 194.338 463.439 194.338C464.396 194.338 464.857 195.047 464.857 196.147C464.857 197.354 464.113 198.063 463.297 198.063C462.943 198.063 462.553 197.886 462.233 197.638ZM464.538 196.147C464.538 195.26 464.219 194.622 463.404 194.622C463.049 194.622 462.659 194.835 462.233 195.225V197.354C462.623 197.673 463.013 197.815 463.297 197.815C464.006 197.779 464.538 197.105 464.538 196.147Z" fill="white"/>
<path d="M465.566 197.105C465.566 196.325 466.276 195.935 467.871 195.757C467.871 195.225 467.729 194.622 467.02 194.622C466.524 194.622 466.134 194.87 465.886 195.048L465.744 194.799C465.992 194.622 466.488 194.338 467.091 194.338C467.942 194.338 468.226 194.941 468.226 195.722V197.992H467.942L467.906 197.531C467.552 197.815 467.091 198.099 466.63 198.099C466.027 198.063 465.566 197.779 465.566 197.105ZM467.871 197.212V196.005C466.417 196.183 465.886 196.502 465.886 197.07C465.886 197.567 466.24 197.78 466.63 197.78C467.056 197.78 467.446 197.602 467.871 197.212Z" fill="white"/>
<path d="M469.467 197.495V192.599H469.786V197.531C469.786 197.673 469.857 197.779 469.928 197.779C469.963 197.779 469.999 197.779 470.07 197.779L470.14 198.063C470.07 198.099 469.999 198.099 469.892 198.099C469.644 198.063 469.467 197.886 469.467 197.495Z" fill="white"/>
<path d="M470.99 197.105C470.99 196.325 471.699 195.935 473.295 195.757C473.295 195.225 473.153 194.622 472.444 194.622C471.948 194.622 471.557 194.87 471.309 195.048L471.168 194.799C471.416 194.622 471.912 194.338 472.515 194.338C473.366 194.338 473.649 194.941 473.649 195.722V197.992H473.366L473.33 197.531C472.976 197.815 472.515 198.099 472.054 198.099C471.451 198.063 470.99 197.779 470.99 197.105ZM473.295 197.212V196.005C471.841 196.183 471.309 196.502 471.309 197.07C471.309 197.567 471.664 197.78 472.054 197.78C472.479 197.78 472.869 197.602 473.295 197.212Z" fill="white"/>
<path d="M474.891 194.409H475.174L475.21 194.977C475.564 194.622 475.954 194.338 476.451 194.338C477.195 194.338 477.514 194.799 477.514 195.722V198.028H477.195V195.793C477.195 195.047 476.947 194.657 476.38 194.657C475.954 194.657 475.635 194.87 475.21 195.331V198.028H474.891V194.409Z" fill="white"/>
<path d="M478.578 196.218C478.578 195.012 479.358 194.338 480.209 194.338C480.705 194.338 481.025 194.551 481.273 194.764L481.096 194.977C480.847 194.764 480.599 194.586 480.245 194.586C479.5 194.586 478.933 195.225 478.933 196.183C478.933 197.141 479.429 197.78 480.209 197.78C480.599 197.78 480.918 197.602 481.166 197.354L481.344 197.602C481.025 197.886 480.67 198.063 480.209 198.063C479.252 198.063 478.578 197.389 478.578 196.218Z" fill="white"/>
<path d="M482.088 193.237C482.088 193.06 482.23 192.954 482.372 192.954C482.549 192.954 482.655 193.06 482.655 193.237C482.655 193.415 482.513 193.521 482.372 193.521C482.23 193.557 482.088 193.415 482.088 193.237ZM482.194 194.408H482.513V197.992H482.194V194.408Z" fill="white"/>
<path d="M483.896 194.409H484.18L484.216 194.977C484.57 194.622 484.96 194.338 485.457 194.338C486.201 194.338 486.52 194.799 486.52 195.722V198.028H486.201V195.793C486.201 195.047 485.953 194.657 485.386 194.657C484.96 194.657 484.641 194.87 484.216 195.331V198.028H483.896V194.409Z" fill="white"/>
<path d="M487.584 198.702C487.584 198.383 487.797 198.064 488.116 197.851V197.815C487.939 197.709 487.797 197.531 487.797 197.247C487.797 196.928 488.045 196.715 488.187 196.573V196.538C487.974 196.36 487.726 196.006 487.726 195.544C487.726 194.799 488.293 194.267 488.967 194.267C489.144 194.267 489.321 194.303 489.428 194.374H490.633V194.657H489.818C490.066 194.87 490.208 195.19 490.208 195.544C490.208 196.289 489.676 196.822 488.967 196.822C488.754 196.822 488.541 196.751 488.364 196.68C488.222 196.822 488.08 196.964 488.08 197.212C488.08 197.46 488.222 197.673 488.754 197.673H489.534C490.35 197.673 490.704 197.922 490.704 198.489C490.704 199.092 490.03 199.696 489.002 199.696C488.151 199.696 487.584 199.305 487.584 198.702ZM490.385 198.525C490.385 198.134 490.101 197.993 489.569 197.993H488.789C488.719 197.993 488.541 197.993 488.364 197.922C488.045 198.134 487.903 198.418 487.903 198.667C487.903 199.128 488.329 199.412 489.073 199.412C489.889 199.447 490.385 198.986 490.385 198.525ZM489.924 195.58C489.924 194.977 489.499 194.586 489.002 194.586C488.506 194.586 488.08 194.977 488.08 195.58C488.08 196.183 488.506 196.573 489.002 196.573C489.463 196.573 489.924 196.183 489.924 195.58Z" fill="white"/>
<path d="M269.249 128.416H269.603L271.341 133.312H270.986L269.993 130.438C269.781 129.87 269.639 129.338 269.461 128.735H269.426C269.249 129.338 269.071 129.835 268.894 130.438L267.901 133.312H267.547L269.249 128.416ZM268.291 131.36H270.49V131.644H268.291V131.36Z" fill="white"/>
<path d="M271.943 131.431V128.415H272.298V131.395C272.298 132.708 272.901 133.098 273.61 133.098C274.319 133.098 274.957 132.708 274.957 131.395V128.415H275.276V131.431C275.276 132.957 274.461 133.418 273.61 133.418C272.759 133.418 271.943 132.957 271.943 131.431Z" fill="white"/>
<path d="M277.722 128.699H276.162V128.415H279.637V128.699H278.077V133.311H277.722V128.699Z" fill="white"/>
<path d="M280.594 128.415H280.948V130.579H283.572V128.415H283.927V133.311H283.572V130.863H280.948V133.311H280.594V128.415Z" fill="white"/>
<path d="M409.652 260.581H410.007V262.745H412.631V260.581H412.985V265.477H412.631V263.029H410.007V265.477H409.652V260.581Z" fill="white"/>
<path d="M414.402 260.58H414.757V265.476H414.402V260.58Z" fill="white"/>
<path d="M416.211 260.58H417.452C418.551 260.58 419.225 260.935 419.225 261.964C419.225 262.922 418.586 263.383 417.487 263.383H416.565V265.512H416.211V260.58ZM417.381 263.099C418.374 263.099 418.87 262.78 418.87 261.964C418.87 261.148 418.374 260.899 417.345 260.899H416.53V263.135H417.381V263.099Z" fill="white"/>
<path d="M420.964 260.58H421.318L423.055 265.476H422.701L421.708 262.602C421.495 262.035 421.354 261.503 421.176 260.899H421.141C420.964 261.503 420.786 261.999 420.609 262.602L419.616 265.476H419.262L420.964 260.58ZM420.042 263.525H422.24V263.809H420.042V263.525Z" fill="white"/>
<path d="M424.827 260.58H425.181L426.919 265.476H426.564L425.571 262.602C425.359 262.035 425.217 261.503 425.04 260.899H425.004C424.827 261.503 424.65 261.999 424.472 262.602L423.48 265.476H423.125L424.827 260.58ZM423.905 263.525H426.103V263.809H423.905V263.525Z" fill="white"/>
<path d="M267.191 134.979H287.188V122.277" stroke="white" stroke-width="0.25" stroke-miterlimit="10"/>
<path d="M267.582 146.616H299.35V120.609" stroke="white" stroke-width="0.25" stroke-miterlimit="10"/>
<path d="M243.047 172.943H267.759V193.841" stroke="white" stroke-width="0.25" stroke-miterlimit="10"/>
<path d="M391.889 248.481V267.286H428.089" stroke="white" stroke-width="0.25" stroke-miterlimit="10"/>
<path d="M410.396 254.726C410.396 253.165 411.283 252.207 412.559 252.207C413.233 252.207 413.623 252.526 413.907 252.81L413.694 253.023C413.446 252.739 413.091 252.526 412.559 252.526C411.425 252.526 410.751 253.377 410.751 254.761C410.751 256.109 411.425 256.996 412.524 256.996C412.949 256.996 413.375 256.854 413.623 256.642V255.116H412.453V254.832H413.942V256.784C413.623 257.103 413.127 257.351 412.488 257.351C411.247 257.28 410.396 256.287 410.396 254.726Z" fill="white"/>
<path d="M415.219 252.277H416.353C417.878 252.277 418.587 253.235 418.587 254.726C418.587 256.216 417.878 257.209 416.353 257.209H415.219V252.277ZM416.318 256.89C417.665 256.89 418.232 256.003 418.232 254.726C418.232 253.448 417.665 252.561 416.318 252.561H415.573V256.89H416.318Z" fill="white"/>
<path d="M419.721 252.277H420.962C422.061 252.277 422.734 252.632 422.734 253.661C422.734 254.619 422.096 255.08 420.997 255.08H420.075V257.209H419.721V252.277ZM420.891 254.796C421.884 254.796 422.38 254.477 422.38 253.661C422.38 252.845 421.884 252.597 420.855 252.597H420.04V254.832H420.891V254.796Z" fill="white"/>
<path d="M423.799 252.277H425.217C426.21 252.277 426.848 252.632 426.848 253.59C426.848 254.477 426.21 254.938 425.217 254.938H424.153V257.209H423.799V252.277ZM425.111 254.655C425.962 254.655 426.458 254.3 426.458 253.59C426.458 252.845 425.962 252.597 425.111 252.597H424.153V254.69H425.111V254.655ZM425.146 254.832L425.465 254.726L426.919 257.174H426.529L425.146 254.832Z" fill="white"/>
<path d="M394.371 240.143V258.983H428.089" stroke="white" stroke-width="0.25" stroke-miterlimit="10"/>
<path d="M411.779 243.973H413.02C414.119 243.973 414.793 244.328 414.793 245.357C414.793 246.315 414.155 246.776 413.056 246.776H412.134V248.869H411.779V243.973ZM412.949 246.492C413.942 246.492 414.438 246.173 414.438 245.357C414.438 244.541 413.942 244.292 412.914 244.292H412.098V246.528H412.949V246.492Z" fill="white"/>
<path d="M415.432 248.233L415.644 247.985C415.999 248.375 416.495 248.659 417.098 248.659C417.843 248.659 418.304 248.268 418.304 247.665C418.304 247.062 417.914 246.849 417.417 246.636L416.673 246.317C416.247 246.14 415.68 245.82 415.68 245.111C415.68 244.401 416.283 243.904 417.098 243.904C417.701 243.904 418.162 244.188 418.481 244.507L418.268 244.72C417.984 244.401 417.594 244.224 417.098 244.224C416.46 244.224 415.999 244.578 415.999 245.111C415.999 245.678 416.495 245.891 416.85 246.069L417.594 246.388C418.126 246.636 418.623 246.92 418.623 247.701C418.623 248.446 418.02 249.013 417.063 249.013C416.353 248.978 415.786 248.659 415.432 248.233Z" fill="white"/>
<path d="M419.686 243.975H420.82C422.345 243.975 423.054 244.933 423.054 246.423C423.054 247.913 422.345 248.907 420.82 248.907H419.686V243.975ZM420.785 248.588C422.132 248.588 422.699 247.701 422.699 246.423C422.699 245.146 422.132 244.259 420.785 244.259H420.04V248.588H420.785Z" fill="white"/>
<path d="M423.764 248.694C425.324 247.097 426.104 246.21 426.104 245.394C426.104 244.791 425.785 244.33 425.076 244.33C424.65 244.33 424.26 244.578 423.976 244.968L423.764 244.756C424.118 244.365 424.544 244.046 425.111 244.046C425.962 244.046 426.458 244.578 426.458 245.394C426.458 246.352 425.607 247.239 424.26 248.658C424.508 248.658 424.792 248.623 425.076 248.623H426.706V248.907H423.799V248.694H423.764Z" fill="white"/>
<path d="M396.854 230.422V250.681H428.09" stroke="white" stroke-width="0.25" stroke-miterlimit="10"/>
<path d="M425.961 162.192V211.368H489.994" stroke="white" stroke-width="0.25" stroke-miterlimit="10"/>
<path d="M436.918 177.414V200.405H490.491" stroke="white" stroke-width="0.25" stroke-miterlimit="10"/>
<path d="M465.033 177.307V189.689H490.49" stroke="white" stroke-width="0.25" stroke-miterlimit="10"/>
<defs>
<clipPath id="clip0">
<rect width="569.701" height="367.118" fill="white" transform="translate(0.5 0.234375)"/>
</clipPath>
</defs>
</svg>
