<svg width="570" height="368" viewBox="0 0 570 368" fill="none" xmlns="http://www.w3.org/2000/svg">
<g clip-path="url(#clip0)">
<path d="M201.388 224.472L176.214 218.688L174.867 189.417L200.537 195.023L201.388 224.472Z" stroke="white" stroke-miterlimit="10"/>
<path d="M200.537 195.023L218.726 184.84L193.73 179.553L174.867 189.417L200.537 195.023Z" stroke="white" stroke-miterlimit="10"/>
<path d="M208.869 196.726L210.039 226.175L236.241 232.49L235.39 202.367L208.869 196.726Z" stroke="white" stroke-miterlimit="10"/>
<path d="M235.39 202.367L253.26 191.972L226.881 186.366L208.869 196.726L235.39 202.367Z" stroke="white" stroke-miterlimit="10"/>
<path d="M236.241 232.491L254.11 221.066L253.259 191.972L235.39 202.367L236.241 232.491Z" stroke="white" stroke-miterlimit="10"/>
<path d="M254.43 227.559L255.458 255.801L237.765 268.397L237.092 238.77L254.43 227.559Z" stroke="white" stroke-miterlimit="10"/>
<path d="M237.092 238.77L210.571 232.632L211.741 261.584L237.766 268.397L237.092 238.77Z" stroke="white" stroke-miterlimit="10"/>
<path d="M203.267 259.527L202.416 230.787L176.711 224.827L178.413 253.069L203.267 259.527Z" stroke="white" stroke-miterlimit="10"/>
<path d="M203.268 259.527L211.245 254.098" stroke="white" stroke-miterlimit="10"/>
<path d="M202.416 230.787L210.039 226.175" stroke="white" stroke-miterlimit="10"/>
<path d="M210.571 232.632L218.052 228.055" stroke="white" stroke-miterlimit="10"/>
<path d="M176.711 224.826L184.192 220.569" stroke="white" stroke-miterlimit="10"/>
<path d="M201.388 224.472L209.72 219.362" stroke="white" stroke-miterlimit="10"/>
<path d="M218.726 184.84L218.903 190.801" stroke="white" stroke-miterlimit="10"/>
<path d="M254.43 227.559L246.771 225.678" stroke="white" stroke-miterlimit="10"/>
<path d="M362.392 117.604C362.392 117.604 309.173 108.769 303.216 107.74C297.26 106.711 288.928 96.6704 292.686 84.9263C296.444 73.1822 309.705 78.7881 309.705 78.7881C309.705 78.7881 308.676 56.8257 327.574 56.1515C345.267 55.5129 350.372 75.7368 350.372 75.7368C350.372 75.7368 358.35 76.2335 362.782 82.7265C367.214 89.184 367.214 95.4995 367.214 95.4995C367.214 95.4995 376.219 99.9346 374.518 110.295C372.78 120.691 362.392 117.604 362.392 117.604Z" stroke="white" stroke-miterlimit="10"/>
<path d="M297.898 78.4686L310.024 73.3594" stroke="white" stroke-miterlimit="10"/>
<path d="M320.908 57.3222L340.373 49.3036C340.373 49.3036 348.989 47.707 356.399 53.3839C363.809 59.0608 366.15 68.0728 366.15 68.0728C366.15 68.0728 372.922 67.8245 378.453 74.9916C383.984 82.1586 382.885 87.4452 382.885 87.4452C382.885 87.4452 390.259 91.632 389.657 99.1538C389.054 106.676 385.331 108.272 385.331 108.272L369.801 117.284" stroke="white" stroke-miterlimit="10"/>
<path d="M367.143 95.4997L382.849 87.4102" stroke="white" stroke-miterlimit="10"/>
<path d="M350.301 75.7719L366.114 68.0371" stroke="white" stroke-miterlimit="10"/>
<path d="M471.666 166L500.208 171.358L500.385 166.426" stroke="white" stroke-miterlimit="10"/>
<path d="M472.233 146.912L500.952 152.021L500.775 156.988" stroke="white" stroke-miterlimit="10"/>
<path d="M500.669 159.578L500.492 163.978" stroke="white" stroke-miterlimit="10"/>
<path d="M466.737 145.954L439.295 141.058" stroke="white" stroke-miterlimit="10"/>
<path d="M407.208 139.673V135.38L433.8 140.099" stroke="white" stroke-miterlimit="10"/>
<path d="M500.953 152.021L511.306 142.512L483.579 138.077L472.234 146.912L472.092 151.666" stroke="white" stroke-miterlimit="10"/>
<path d="M438.906 155.143L466.313 160.181L466.171 164.971L438.764 159.791L438.906 155.143Z" stroke="white" stroke-miterlimit="10"/>
<path d="M500.208 171.358L510.667 161.033V156.811L500.385 166.426L471.808 161.21L471.666 166" stroke="white" stroke-miterlimit="10"/>
<path d="M438.87 150.424L433.729 154.22L407.279 149.359L407.315 153.865L433.694 158.833L433.729 154.22" stroke="white" stroke-miterlimit="10"/>
<path d="M466.384 157.733L438.977 152.73L439.118 148.26L466.525 153.298L466.384 157.733Z" stroke="white" stroke-miterlimit="10"/>
<path d="M511.306 142.512V147.337L500.775 156.988L472.092 151.666" stroke="white" stroke-miterlimit="10"/>
<path d="M471.879 158.762L500.492 163.977L510.809 154.22V149.785L500.669 159.578L472.021 154.291L471.879 158.762Z" stroke="white" stroke-miterlimit="10"/>
<path d="M466.597 150.636L439.189 145.563L439.296 141.057L451.173 132.399L477.907 136.834L466.738 145.953L466.597 150.636Z" stroke="white" stroke-miterlimit="10"/>
<path d="M407.279 146.947L407.243 142.37L433.764 147.266L433.729 151.808L407.279 146.947Z" stroke="white" stroke-miterlimit="10"/>
<path d="M407.208 135.38L419.405 127.22L445.996 131.194L433.8 140.099L433.764 144.57L407.208 139.673" stroke="white" stroke-miterlimit="10"/>
<path d="M445.996 131.193V136.125" stroke="white" stroke-miterlimit="10"/>
<path d="M433.765 144.569L445.997 136.125" stroke="white" stroke-miterlimit="10"/>
<path d="M433.765 147.266L439.225 143.15" stroke="white" stroke-miterlimit="10"/>
<path d="M433.729 151.808L442.061 146.237" stroke="white" stroke-miterlimit="10"/>
<path d="M433.693 158.833L441.706 153.263" stroke="white" stroke-miterlimit="10"/>
<path d="M466.171 164.971L473.12 159.046" stroke="white" stroke-miterlimit="10"/>
<path d="M466.312 160.181L471.879 155.462" stroke="white" stroke-miterlimit="10"/>
<path d="M466.384 157.733L473.369 151.879" stroke="white" stroke-miterlimit="10"/>
<path d="M472.021 154.291L474.573 152.127" stroke="white" stroke-miterlimit="10"/>
<path d="M466.525 153.298L472.127 148.437" stroke="white" stroke-miterlimit="10"/>
<path d="M466.596 150.637L478.154 141.412L477.906 136.835" stroke="white" stroke-miterlimit="10"/>
<path d="M471.809 161.21L474.22 159.294" stroke="white" stroke-miterlimit="10"/>
<path d="M510.81 149.786L508.966 149.431" stroke="white" stroke-miterlimit="10"/>
<path d="M510.667 156.81L508.327 156.456" stroke="white" stroke-miterlimit="10"/>
<path d="M476.418 142.512H477.659" stroke="white" stroke-miterlimit="10"/>
<path d="M407.243 142.37L410.505 140.312" stroke="white" stroke-miterlimit="10"/>
<path d="M407.279 149.36L410.151 147.585" stroke="white" stroke-miterlimit="10"/>
<path d="M308.606 319.843C308.606 319.843 372.674 337.229 380.049 339.074C387.423 340.919 391.891 342.657 396.571 337.087C401.251 331.552 398.805 319.205 389.799 314.663C389.799 314.663 390.295 304.196 383.275 297.42C376.255 290.643 372.178 289.543 367.994 288.656C367.994 288.656 365.654 275.705 353.457 267.935C341.26 260.165 332.503 260.91 323.781 265.239C315.023 269.567 314.669 282.269 315.52 286.208C315.52 286.208 307.648 281.028 298.997 284.717C290.346 288.407 291.622 299.158 293.962 306.29C296.303 313.421 305.663 319.098 308.606 319.843Z" stroke="white" stroke-miterlimit="10"/>
<path d="M298.997 284.718L320.058 268.077" stroke="white" stroke-miterlimit="10"/>
<path d="M325.624 264.103L343.6 249.556C343.6 249.556 352.606 242.886 365.653 248.563C378.701 254.24 385.118 266.8 385.473 271.98C385.473 271.98 395.223 273.328 400.364 280.247C405.505 287.166 407.278 291.849 406.782 297.491C406.782 297.491 413.058 299.832 414.795 307.602C416.532 315.373 413.944 318.318 412.809 319.701C411.675 321.085 396.535 337.087 396.535 337.087" stroke="white" stroke-miterlimit="10"/>
<path d="M389.799 314.663L406.782 297.526" stroke="white" stroke-miterlimit="10"/>
<path d="M367.994 288.656L385.474 272.016" stroke="white" stroke-miterlimit="10"/>
<path d="M305.804 108.379L285.134 117.746L326.688 124.771L326.794 132.506" stroke="white" stroke-miterlimit="10"/>
<path d="M321.512 134.848L321.476 127.468L270.03 119.201L298.501 105.576" stroke="white" stroke-miterlimit="10"/>
<path d="M253.33 202.757L289.637 178.985L296.125 180.405" stroke="white" stroke-miterlimit="10"/>
<path d="M383.523 168.661L410.576 173.664L430.538 158.265" stroke="white" stroke-miterlimit="10"/>
<path d="M385.225 171.996L431.813 181.115L454.576 163.232" stroke="white" stroke-miterlimit="10"/>
<path d="M387.033 175.721L451.421 188.352L477.02 167.064" stroke="white" stroke-miterlimit="10"/>
<path d="M370.05 202.935L428.906 215.353L379.056 259.03" stroke="white" stroke-miterlimit="10"/>
<path d="M368.206 205.631L419.369 217.34L375.794 255.411" stroke="white" stroke-miterlimit="10"/>
<path d="M365.938 208.931L409.654 218.759L371.469 251.827" stroke="white" stroke-miterlimit="10"/>
<path d="M162.775 207.902L0.139648 171.64L357.319 28.5472L500.95 45.7553L391.711 110.862L390.47 16.271L425.465 0.304688L426.671 115.155L569.628 137.402L454.964 250.94L543.887 272.37" stroke="white" stroke-width="0.25" stroke-miterlimit="10"/>
<path d="M343.849 230.539L317.647 176.75L343.849 182.037L336.864 193.426L349.805 220.675L370.192 187.643L356.435 159.897L329.915 154.788L325.483 145.598L308.464 142.547L292.154 171.818L318.179 224.401L343.849 230.539Z" stroke="#17A697" stroke-width="2" stroke-miterlimit="10"/>
<path d="M349.805 220.675L365.937 208.931L387.033 175.721L373.596 148.862L347.571 144.072L342.82 135.238L325.837 132.328L308.464 142.547" stroke="#17A697" stroke-width="2" stroke-miterlimit="10"/>
<path d="M325.482 145.598L342.82 135.237" stroke="#17A697" stroke-width="2" stroke-miterlimit="10"/>
<path d="M329.914 154.787L347.571 144.072" stroke="#17A697" stroke-width="2" stroke-miterlimit="10"/>
<path d="M356.436 159.896L373.596 148.862" stroke="#17A697" stroke-width="2" stroke-miterlimit="10"/>
<path d="M370.192 187.642L387.034 175.721" stroke="#17A697" stroke-width="2" stroke-miterlimit="10"/>
<path d="M343.849 230.538L360.336 217.765L358.811 214.04" stroke="#17A697" stroke-width="2" stroke-miterlimit="10"/>
</g>
<path d="M250.842 21.9023H247.793V19.7734H256.409V21.9023H253.359V30.9143H250.842V21.9023Z" fill="#17A697"/>
<path d="M257.685 21.9023H263.783V23.8538H260.166V25.4149H263.251V27.2244H260.166V28.963H263.96V30.9144H257.685V21.9023Z" fill="#17A697"/>
<path d="M265.485 26.4439C265.485 23.3925 267.684 21.6895 270.166 21.6895C271.336 21.6895 272.399 22.2217 273.073 22.8958L271.726 24.386C271.229 23.9602 270.804 23.7473 270.201 23.7473C268.995 23.7473 268.038 24.7053 268.038 26.3729C268.038 28.1114 268.854 29.0339 270.13 29.0339C270.875 29.0339 271.406 28.7146 271.832 28.3243L273.179 29.779C272.364 30.666 271.229 31.0918 270.024 31.0918C267.542 31.0918 265.485 29.5661 265.485 26.4439Z" fill="#17A697"/>
<path d="M274.846 21.9023H277.363V25.202H280.306V21.9023H282.823V30.9144H280.306V27.4018H277.363V30.9144H274.846V21.9023Z" fill="#17A697"/>
<path d="M285.411 21.9023H287.928L290.056 25.8407L291.049 27.9695H291.12C291.013 27.0115 290.8 25.4859 290.8 24.386V21.9023H293.105V30.9144H290.659L288.46 26.9761L287.468 24.8472H287.397C287.503 25.8762 287.716 27.3309 287.716 28.4308V30.9144H285.411V21.9023Z" fill="#17A697"/>
<path d="M295.197 26.3374C295.197 23.357 297.005 21.6895 299.665 21.6895C302.288 21.6895 304.097 23.357 304.097 26.3374C304.097 29.3178 302.288 31.0918 299.665 31.0918C297.005 31.0918 295.197 29.3178 295.197 26.3374ZM301.544 26.3374C301.544 24.6698 300.835 23.7473 299.665 23.7473C298.459 23.7473 297.75 24.7053 297.75 26.3374C297.75 27.9695 298.459 29.0339 299.665 29.0339C300.835 29.0339 301.544 28.005 301.544 26.3374Z" fill="#17A697"/>
<path d="M306.224 21.9023H308.741V28.8565H312.322V30.9144H306.224V21.9023Z" fill="#17A697"/>
<path d="M313.279 26.3374C313.279 23.357 315.088 21.6895 317.747 21.6895C320.37 21.6895 322.179 23.357 322.179 26.3374C322.179 29.3178 320.37 31.0918 317.747 31.0918C315.088 31.0918 313.279 29.3178 313.279 26.3374ZM319.59 26.3374C319.59 24.6698 318.881 23.7473 317.711 23.7473C316.506 23.7473 315.797 24.7053 315.797 26.3374C315.797 27.9695 316.506 29.0339 317.711 29.0339C318.881 29.0339 319.59 28.005 319.59 26.3374Z" fill="#17A697"/>
<path d="M323.738 26.4439C323.738 23.3925 325.937 21.6895 328.56 21.6895C329.908 21.6895 330.936 22.2571 331.609 22.8958L330.262 24.3505C329.801 23.9247 329.34 23.7118 328.596 23.7118C327.248 23.7118 326.291 24.6698 326.291 26.4439C326.291 28.076 327.036 29.0694 328.702 29.0694C329.057 29.0694 329.376 28.9985 329.588 28.8565V27.4373H328.135V25.6988H331.787V29.9919C331.078 30.6306 329.837 31.0918 328.525 31.0918C325.866 31.0918 323.738 29.5661 323.738 26.4439Z" fill="#17A697"/>
<path d="M335.368 27.7915L332.531 21.8662H335.155L335.864 23.7112C336.077 24.3853 336.325 25.024 336.573 25.7336H336.644C336.892 25.024 337.14 24.4208 337.389 23.7112L338.098 21.8662H340.686L337.85 27.7915V30.8783H335.332V27.7915H335.368Z" fill="#17A697"/>
<path d="M248.147 38.8618C248.147 35.1718 250.594 33.043 253.395 33.043C254.813 33.043 255.983 33.7171 256.728 34.4977L255.416 36.0943C254.849 35.5621 254.246 35.2073 253.466 35.2073C251.941 35.2073 250.736 36.5555 250.736 38.7908C250.736 41.0616 251.799 42.4098 253.43 42.4098C254.352 42.4098 255.061 41.9486 255.593 41.3809L256.905 42.942C255.983 44.0065 254.742 44.5742 253.324 44.5742C250.488 44.5742 248.147 42.6227 248.147 38.8618Z" fill="#17A697"/>
<path d="M258.039 39.8198C258.039 36.8395 259.847 35.1719 262.506 35.1719C265.13 35.1719 266.938 36.8395 266.938 39.8198C266.938 42.8002 265.13 44.5742 262.506 44.5742C259.883 44.5742 258.039 42.8002 258.039 39.8198ZM264.386 39.8198C264.386 38.1522 263.677 37.2297 262.506 37.2297C261.301 37.2297 260.592 38.1877 260.592 39.8198C260.592 41.4519 261.301 42.5164 262.506 42.5164C263.677 42.5164 264.386 41.4874 264.386 39.8198Z" fill="#17A697"/>
<path d="M268.499 39.1816H272.683V40.9557H268.499V39.1816Z" fill="#17A697"/>
<path d="M274.172 39.8198C274.172 36.8395 275.98 35.1719 278.639 35.1719C281.263 35.1719 283.071 36.8395 283.071 39.8198C283.071 42.8002 281.263 44.5742 278.639 44.5742C276.016 44.5742 274.172 42.8002 274.172 39.8198ZM280.518 39.8198C280.518 38.1522 279.809 37.2297 278.639 37.2297C277.434 37.2297 276.725 38.1877 276.725 39.8198C276.725 41.4519 277.434 42.5164 278.639 42.5164C279.809 42.5164 280.518 41.4874 280.518 39.8198Z" fill="#17A697"/>
<path d="M285.198 35.3848H288.85C290.907 35.3848 292.644 36.0944 292.644 38.4006C292.644 40.6359 290.836 41.5229 288.85 41.5229H287.716V44.3613H285.198V35.3848ZM288.744 39.8198C289.737 39.8198 290.268 39.3231 290.268 38.5425C290.268 37.7265 289.772 37.3717 288.744 37.3717H287.716V39.8553H288.744V39.8198Z" fill="#17A697"/>
<path d="M294.559 35.3848H300.657V37.3362H297.04V38.8973H300.125V40.7069H297.04V42.4454H300.834V44.3968H294.559V35.3848Z" fill="#17A697"/>
<path d="M303.068 35.3848H306.649C308.706 35.3848 310.443 36.0589 310.443 38.3297C310.443 40.352 308.706 41.4165 306.685 41.4165H305.586V44.3968H303.068V35.3848ZM306.472 39.6779C307.536 39.6779 308.068 39.2167 308.068 38.4716C308.068 37.6555 307.465 37.3362 306.472 37.3362H305.586V39.6779H306.472ZM306.259 40.7423L308.351 40.0682L310.939 44.3614H308.316L306.259 40.7423Z" fill="#17A697"/>
<path d="M314.236 35.3848H317.215L320.122 44.3968H317.498L316.399 40.0682C316.187 39.2167 315.974 38.1168 315.726 37.2298H315.655C315.442 38.1168 315.229 39.1812 315.016 40.0682L313.882 44.3968H311.329L314.236 35.3848ZM313.386 40.7069H318.03V42.5164H313.386V40.7069Z" fill="#17A697"/>
<path d="M322.427 37.4072H319.945V35.3848H327.462V37.4426H324.98V44.3968H322.463V37.4072H322.427Z" fill="#17A697"/>
<path d="M329.163 35.3848H331.68V44.3968H329.163V35.3848Z" fill="#17A697"/>
<path d="M333.737 39.8198C333.737 36.8395 335.546 35.1719 338.205 35.1719C340.828 35.1719 342.637 36.8395 342.637 39.8198C342.637 42.8002 340.828 44.5742 338.205 44.5742C335.581 44.5742 333.737 42.8002 333.737 39.8198ZM340.084 39.8198C340.084 38.1522 339.375 37.2297 338.205 37.2297C336.999 37.2297 336.29 38.1877 336.29 39.8198C336.29 41.4519 336.999 42.5164 338.205 42.5164C339.375 42.5164 340.084 41.4874 340.084 39.8198Z" fill="#17A697"/>
<path d="M344.764 35.3848H347.281L349.408 39.3231L350.401 41.4519H350.472C350.366 40.494 350.153 38.9683 350.153 37.8684V35.3848H352.458V44.3968H350.011L347.813 40.4585L346.82 38.3297H346.749C346.856 39.3586 347.068 40.8133 347.068 41.9132V44.3968H344.764V35.3848Z" fill="#17A697"/>
<path d="M354.372 43.2969L355.578 41.6293C356.429 42.268 357.315 42.6583 358.201 42.6583C358.91 42.6583 359.265 42.339 359.265 41.8777C359.265 41.381 358.804 41.1681 358.166 40.9197L357.209 40.5649C356.003 40.1037 354.868 39.3941 354.868 37.9748C354.868 36.2718 356.287 35.1719 358.414 35.1719C359.868 35.1719 360.931 35.7396 361.711 36.3427L360.47 37.9394C359.797 37.4781 359.088 37.1233 358.343 37.1233C357.705 37.1233 357.35 37.3717 357.35 37.8684C357.35 38.2587 357.776 38.507 358.449 38.7554L359.371 39.0747C360.683 39.536 361.747 40.1037 361.747 41.7003C361.747 43.3324 360.4 44.6097 358.059 44.6097C356.677 44.5742 355.258 44.042 354.372 43.2969Z" fill="#17A697"/>
<path d="M94.0928 165.421C94.0928 161.731 96.5392 159.603 99.3402 159.603C100.758 159.603 101.928 160.277 102.673 161.057L101.361 162.654C100.794 162.122 100.191 161.767 99.4111 161.767C97.8865 161.767 96.681 163.115 96.681 165.35C96.681 167.621 97.7447 168.969 99.3757 168.969C100.298 168.969 101.007 168.508 101.538 167.94L102.85 169.502C101.928 170.566 100.688 171.134 99.2693 171.134C96.4683 171.098 94.0928 169.147 94.0928 165.421Z" fill="#17A697"/>
<path d="M104.021 166.379C104.021 163.399 105.829 161.731 108.488 161.731C111.112 161.731 112.92 163.399 112.92 166.379C112.92 169.36 111.112 171.134 108.488 171.134C105.829 171.098 104.021 169.36 104.021 166.379ZM110.367 166.379C110.367 164.712 109.658 163.789 108.488 163.789C107.282 163.789 106.573 164.747 106.573 166.379C106.573 168.047 107.282 169.076 108.488 169.076C109.658 169.076 110.367 168.012 110.367 166.379Z" fill="#17A697"/>
<path d="M114.303 169.856L115.508 168.189C116.359 168.828 117.246 169.218 118.132 169.218C118.841 169.218 119.196 168.899 119.196 168.437C119.196 167.941 118.735 167.728 118.096 167.479L117.139 167.124C115.934 166.663 114.799 165.954 114.799 164.534C114.799 162.831 116.217 161.731 118.345 161.731C119.798 161.731 120.862 162.299 121.642 162.902L120.401 164.499C119.727 164.038 119.018 163.683 118.274 163.683C117.636 163.683 117.281 163.931 117.281 164.428C117.281 164.818 117.706 165.067 118.38 165.315L119.302 165.634C120.614 166.096 121.678 166.663 121.678 168.26C121.678 169.892 120.33 171.169 117.99 171.169C116.607 171.098 115.225 170.602 114.303 169.856Z" fill="#17A697"/>
<path d="M124.868 163.967H122.386V161.909H129.902V163.967H127.42V170.921H124.903V163.967H124.868Z" fill="#17A697"/>
<path d="M131.533 166.735V161.909H134.015V166.876C134.015 168.473 134.511 169.041 135.504 169.041C136.532 169.041 136.958 168.473 136.958 166.876V161.909H139.333V166.735C139.333 169.821 138.022 171.099 135.433 171.099C132.951 171.099 131.533 169.821 131.533 166.735Z" fill="#17A697"/>
<path d="M141.958 161.909H144.511L145.929 165.564L146.461 167.089H146.532L147.064 165.564L148.446 161.909H150.999V170.921H148.765V168.402C148.765 167.48 148.978 165.954 149.085 165.031H149.014L148.163 167.125L146.886 170.212H146.071L144.794 167.125L143.979 165.031H143.908C144.014 165.954 144.227 167.48 144.227 168.402V170.921H141.993V161.909H141.958Z" fill="#17A697"/>
<path d="M153.587 161.909H159.685V163.861H156.069V165.422H159.153V167.231H156.069V168.97H159.863V170.921H153.587V161.909Z" fill="#17A697"/>
<path d="M162.097 161.909H165.678C167.734 161.909 169.471 162.583 169.471 164.854C169.471 166.876 167.734 167.941 165.713 167.941H164.614V170.921H162.097V161.909ZM165.5 166.238C166.564 166.238 167.096 165.777 167.096 165.031C167.096 164.215 166.493 163.896 165.5 163.896H164.614V166.238H165.5ZM165.288 167.302L167.38 166.628L169.968 170.921H167.344L165.288 167.302Z" fill="#17A697"/>
<path d="M170.747 169.856L171.953 168.189C172.803 168.828 173.69 169.218 174.576 169.218C175.285 169.218 175.64 168.899 175.64 168.437C175.64 167.941 175.179 167.728 174.541 167.479L173.584 167.124C172.378 166.663 171.243 165.954 171.243 164.534C171.243 162.831 172.662 161.731 174.789 161.731C176.243 161.731 177.306 162.299 178.086 162.902L176.845 164.499C176.172 164.038 175.463 163.683 174.718 163.683C174.08 163.683 173.725 163.931 173.725 164.428C173.725 164.818 174.151 165.067 174.824 165.315L175.746 165.634C177.058 166.096 178.122 166.663 178.122 168.26C178.122 169.892 176.775 171.169 174.434 171.169C173.052 171.098 171.669 170.602 170.747 169.856Z" fill="#17A697"/>
<path d="M182.555 167.94C182.555 164.321 187.731 164.286 187.731 162.121C187.731 161.589 187.483 161.27 186.987 161.27C186.419 161.27 185.994 161.731 185.994 162.512C185.994 164.286 188.405 166.663 190.639 168.047C191.56 168.614 192.447 169.005 193.191 169.111L192.589 171.133C191.489 170.921 190.284 170.388 189.149 169.643C186.384 167.798 183.902 164.747 183.902 162.547C183.902 160.986 185.072 159.638 186.916 159.638C188.582 159.638 189.646 160.631 189.646 162.157C189.646 165.102 184.93 165.811 184.93 167.834C184.93 168.685 185.604 169.253 186.561 169.253C187.341 169.253 188.157 168.792 188.866 168.118C189.752 167.266 190.426 166.095 190.816 164.676H193.085C192.589 166.344 191.773 167.869 190.568 169.253C189.504 170.388 188.086 171.169 186.207 171.169C183.831 171.098 182.555 169.643 182.555 167.94Z" fill="#17A697"/>
<path d="M94.624 173.298H101.573V175.391H97.1414V177.626H100.935V179.72H97.1414V182.274H101.751V184.368H94.624V173.298Z" fill="#17A697"/>
<path d="M103.949 175.391H106.502L107.92 179.046L108.452 180.571H108.523L109.055 179.046L110.438 175.391H112.99V184.403H110.757V181.884C110.757 180.962 110.969 179.436 111.076 178.513H111.005L110.154 180.607L108.878 183.694H108.062L106.786 180.607L105.97 178.513H105.899C106.006 179.436 106.218 180.962 106.218 181.884V184.403H103.985V175.391H103.949Z" fill="#17A697"/>
<path d="M115.614 175.391H119.266C121.323 175.391 123.06 176.101 123.06 178.407C123.06 180.642 121.252 181.529 119.266 181.529H118.132V184.368H115.614V175.391ZM119.195 179.826C120.188 179.826 120.72 179.329 120.72 178.549C120.72 177.733 120.223 177.378 119.195 177.378H118.167V179.862H119.195V179.826Z" fill="#17A697"/>
<path d="M125.01 175.391H127.527V182.345H131.073V184.403H124.975V175.391H125.01Z" fill="#17A697"/>
<path d="M132.03 179.862C132.03 176.881 133.838 175.214 136.498 175.214C139.121 175.214 140.93 176.881 140.93 179.862C140.93 182.842 139.121 184.616 136.498 184.616C133.838 184.581 132.03 182.842 132.03 179.862ZM138.377 179.862C138.377 178.194 137.668 177.272 136.498 177.272C135.292 177.272 134.583 178.23 134.583 179.862C134.583 181.529 135.292 182.558 136.498 182.558C137.668 182.558 138.377 181.494 138.377 179.862Z" fill="#17A697"/>
<path d="M144.121 181.316L141.284 175.391H143.908L144.617 177.236C144.83 177.91 145.078 178.549 145.326 179.258H145.397C145.645 178.549 145.893 177.946 146.142 177.236L146.851 175.391H149.439L146.603 181.316V184.403H144.085V181.316H144.121Z" fill="#17A697"/>
<path d="M150.645 175.391H156.743V177.343H153.126V178.904H156.211V180.713H153.126V182.452H156.956V184.403H150.68V175.391H150.645Z" fill="#17A697"/>
<path d="M159.153 175.391H165.252V177.343H161.635V178.904H164.72V180.713H161.635V182.452H165.429V184.403H159.153V175.391Z" fill="#17A697"/>
<path d="M166.918 183.339L168.123 181.671C168.974 182.31 169.861 182.7 170.747 182.7C171.456 182.7 171.811 182.381 171.811 181.92C171.811 181.423 171.35 181.21 170.712 180.962L169.754 180.607C168.549 180.146 167.414 179.436 167.414 178.017C167.414 176.314 168.833 175.214 170.96 175.214C172.414 175.214 173.477 175.782 174.257 176.385L173.016 177.981C172.343 177.52 171.634 177.165 170.889 177.165C170.251 177.165 169.896 177.414 169.896 177.91C169.896 178.301 170.322 178.549 170.995 178.797L171.917 179.117C173.229 179.578 174.293 180.146 174.293 181.742C174.293 183.374 172.945 184.652 170.605 184.652C169.223 184.581 167.84 184.084 166.918 183.339Z" fill="#17A697"/>
<path d="M371.888 342.931H375.682C378.128 342.931 380.078 343.818 380.078 346.514C380.078 349.14 378.093 350.275 375.753 350.275H374.37V354.036H371.853V342.931H371.888ZM375.646 348.288C377.029 348.288 377.667 347.685 377.667 346.514C377.667 345.343 376.923 344.953 375.575 344.953H374.405V348.288H375.646Z" fill="#17A697"/>
<path d="M381.992 349.849V345.024H384.474V349.991C384.474 351.588 384.97 352.156 385.963 352.156C386.991 352.156 387.417 351.588 387.417 349.991V345.024H389.792V349.849C389.792 352.936 388.481 354.213 385.892 354.213C383.375 354.249 381.992 352.972 381.992 349.849Z" fill="#17A697"/>
<path d="M392.381 345.024H395.785C397.77 345.024 399.401 345.485 399.401 347.295C399.401 348.04 398.94 348.962 397.841 349.211V349.282C399.153 349.53 399.827 350.204 399.827 351.41C399.827 353.255 398.125 354.036 396.068 354.036H392.381V345.024ZM395.785 348.643C396.706 348.643 397.096 348.253 397.096 347.685C397.096 347.082 396.671 346.869 395.785 346.869H394.863V348.643H395.785ZM395.891 352.226C396.919 352.226 397.416 351.836 397.416 351.198C397.416 350.559 396.919 350.204 395.891 350.204H394.898V352.226H395.891Z" fill="#17A697"/>
<path d="M401.671 345.024H404.188V351.978H407.769V354.036H401.671V345.024Z" fill="#17A697"/>
<path d="M409.684 345.024H412.201V354.036H409.684V345.024Z" fill="#17A697"/>
<path d="M414.293 349.601C414.293 346.549 416.491 344.846 418.973 344.846C420.143 344.846 421.207 345.378 421.88 346.053L420.533 347.543C420.037 347.117 419.611 346.904 419.009 346.904C417.803 346.904 416.846 347.862 416.846 349.53C416.846 351.268 417.661 352.191 418.938 352.191C419.682 352.191 420.214 351.871 420.639 351.481L421.987 352.936C421.171 353.823 420.037 354.249 418.831 354.249C416.349 354.249 414.293 352.723 414.293 349.601Z" fill="#17A697"/>
<path d="M426.525 349.601C426.525 346.549 428.724 344.846 431.206 344.846C432.376 344.846 433.439 345.378 434.113 346.053L432.766 347.543C432.269 347.117 431.844 346.904 431.241 346.904C430.035 346.904 429.078 347.862 429.078 349.53C429.078 351.268 429.894 352.191 431.17 352.191C431.915 352.191 432.446 351.871 432.872 351.481L434.219 352.936C433.404 353.823 432.269 354.249 431.064 354.249C428.617 354.249 426.525 352.723 426.525 349.601Z" fill="#17A697"/>
<path d="M435.921 345.024H438.438V351.978H442.019V354.036H435.921V345.024Z" fill="#17A697"/>
<path d="M442.941 349.494C442.941 346.514 444.75 344.846 447.409 344.846C450.033 344.846 451.841 346.514 451.841 349.494C451.841 352.474 450.033 354.249 447.409 354.249C444.785 354.249 442.941 352.474 442.941 349.494ZM449.288 349.494C449.288 347.827 448.579 346.904 447.409 346.904C446.203 346.904 445.494 347.862 445.494 349.494C445.494 351.126 446.203 352.191 447.409 352.191C448.579 352.191 449.288 351.162 449.288 349.494Z" fill="#17A697"/>
<path d="M453.896 349.849V345.024H456.378V349.991C456.378 351.588 456.875 352.156 457.867 352.156C458.896 352.156 459.321 351.588 459.321 349.991V345.024H461.697V349.849C461.697 352.936 460.385 354.213 457.797 354.213C455.279 354.249 453.896 352.972 453.896 349.849Z" fill="#17A697"/>
<path d="M464.285 345.024H467.086C469.958 345.024 472.05 346.23 472.05 349.459C472.05 352.723 469.958 354.001 467.228 354.001H464.25V345.024H464.285ZM467.264 352.085C468.682 352.085 469.497 351.339 469.497 349.494C469.497 347.649 468.682 346.975 467.264 346.975H466.803V352.085H467.264Z" fill="#17A697"/>
<path d="M371.179 366.1L372.632 364.361C373.412 365.036 374.441 365.532 375.362 365.532C376.426 365.532 376.923 365.106 376.923 364.468C376.923 363.758 376.284 363.545 375.327 363.155L373.873 362.552C372.739 362.091 371.64 361.133 371.64 359.536C371.64 357.691 373.271 356.236 375.575 356.236C376.852 356.236 378.199 356.733 379.156 357.691L377.88 359.288C377.135 358.72 376.462 358.401 375.575 358.401C374.724 358.401 374.157 358.755 374.157 359.394C374.157 360.068 374.866 360.317 375.859 360.707L377.277 361.275C378.624 361.807 379.475 362.729 379.475 364.29C379.475 366.135 377.951 367.732 375.292 367.732C373.838 367.732 372.313 367.164 371.179 366.1Z" fill="#17A697"/>
<path d="M381.354 358.506H387.453V360.458H383.872V362.019H386.956V363.828H383.872V365.567H387.666V367.518H381.39V358.506H381.354Z" fill="#17A697"/>
<path d="M389.864 358.506H393.445C395.502 358.506 397.239 359.18 397.239 361.451C397.239 363.474 395.502 364.538 393.481 364.538H392.382V367.518H389.864V358.506ZM393.268 362.835C394.332 362.835 394.863 362.374 394.863 361.629C394.863 360.813 394.261 360.493 393.268 360.493H392.382V362.835H393.268ZM393.055 363.899L395.147 363.225L397.735 367.518H395.112L393.055 363.899Z" fill="#17A697"/>
<path d="M397.983 358.506H400.572L401.6 362.409C401.848 363.367 402.061 364.254 402.309 365.283H402.38C402.663 364.29 402.841 363.367 403.089 362.409L404.082 358.506H406.599L403.798 367.518H400.82L397.983 358.506Z" fill="#17A697"/>
<path d="M407.77 358.506H410.287V367.518H407.77V358.506Z" fill="#17A697"/>
<path d="M412.343 363.083C412.343 360.032 414.541 358.329 417.023 358.329C418.193 358.329 419.257 358.861 419.93 359.535L418.583 361.025C418.087 360.599 417.661 360.386 417.058 360.386C415.853 360.386 414.896 361.344 414.896 363.012C414.896 364.751 415.711 365.673 416.987 365.673C417.732 365.673 418.264 365.354 418.689 364.963L420.037 366.418C419.221 367.305 418.087 367.731 416.881 367.731C414.435 367.731 412.343 366.205 412.343 363.083Z" fill="#17A697"/>
<path d="M421.738 358.506H427.837V360.458H424.22V362.019H427.305V363.828H424.22V365.567H428.014V367.518H421.738V358.506Z" fill="#17A697"/>
<path d="M429.503 366.454L430.708 364.786C431.559 365.425 432.446 365.815 433.332 365.815C434.041 365.815 434.396 365.496 434.396 365.034C434.396 364.538 433.935 364.325 433.297 364.076L432.339 363.722C431.134 363.26 429.999 362.551 429.999 361.132C429.999 359.429 431.418 358.329 433.545 358.329C434.999 358.329 436.062 358.896 436.842 359.499L435.601 361.096C434.928 360.635 434.219 360.28 433.474 360.28C432.836 360.28 432.481 360.528 432.481 361.025C432.481 361.415 432.907 361.664 433.58 361.912L434.502 362.231C435.814 362.693 436.878 363.26 436.878 364.857C436.878 366.489 435.53 367.766 433.19 367.766C431.808 367.731 430.425 367.199 429.503 366.454Z" fill="#17A697"/>
<path d="M463.753 103.473H466.27V114.578H463.753V103.473Z" fill="#17A697"/>
<path d="M468.858 105.566H471.376L473.503 109.505L474.496 111.634H474.567C474.46 110.676 474.248 109.15 474.248 108.05V105.566H476.552V114.578H474.106L471.908 110.64L470.915 108.511H470.844C470.95 109.54 471.163 110.995 471.163 112.095V114.578H468.858V105.566Z" fill="#17A697"/>
<path d="M480.807 107.624H478.325V105.566H485.842V107.624H483.36V114.578H480.843V107.624H480.807Z" fill="#17A697"/>
<path d="M487.544 105.566H493.642V107.518H490.026V109.079H493.11V110.888H490.026V112.627H493.82V114.578H487.544V105.566Z" fill="#17A697"/>
<path d="M496.054 105.566H499.635C501.691 105.566 503.428 106.241 503.428 108.511C503.428 110.534 501.691 111.598 499.67 111.598H498.571V114.578H496.054V105.566ZM499.457 109.895C500.521 109.895 501.053 109.434 501.053 108.689C501.053 107.873 500.45 107.553 499.457 107.553H498.571V109.895H499.457ZM499.245 110.959L501.337 110.285L503.925 114.578H501.301L499.245 110.959Z" fill="#17A697"/>
<path d="M505.591 105.566H508.108L510.235 109.505L511.228 111.634H511.299C511.193 110.676 510.98 109.15 510.98 108.05V105.566H513.285V114.578H510.838L508.64 110.64L507.647 108.511H507.576C507.683 109.54 507.895 110.995 507.895 112.095V114.578H505.591V105.566Z" fill="#17A697"/>
<path d="M517.398 105.566H520.376L523.283 114.578H520.66L519.56 110.25C519.348 109.398 519.135 108.298 518.887 107.411H518.816C518.603 108.298 518.39 109.363 518.178 110.25L517.043 114.578H514.49L517.398 105.566ZM516.547 110.924H521.191V112.733H516.547V110.924Z" fill="#17A697"/>
<path d="M524.453 105.566H526.97V112.521H530.551V114.578H524.453V105.566Z" fill="#17A697"/>
<path d="M463.044 126.677L464.498 124.939C465.278 125.613 466.306 126.109 467.228 126.109C468.291 126.109 468.788 125.684 468.788 125.045C468.788 124.335 468.15 124.122 467.192 123.732L465.739 123.129C464.604 122.668 463.505 121.71 463.505 120.113C463.505 118.268 465.136 116.813 467.44 116.813C468.717 116.813 470.064 117.31 471.021 118.268L469.745 119.865C469 119.297 468.327 118.978 467.44 118.978C466.589 118.978 466.022 119.333 466.022 119.971C466.022 120.645 466.731 120.894 467.724 121.284L469.142 121.852C470.49 122.384 471.341 123.306 471.341 124.868C471.341 126.713 469.816 128.309 467.157 128.309C465.703 128.274 464.179 127.706 463.044 126.677Z" fill="#17A697"/>
<path d="M473.22 119.049H479.318V121H475.702V122.561H478.786V124.371H475.702V126.109H479.495V128.061H473.22V119.049Z" fill="#17A697"/>
<path d="M481.693 119.049H485.274C487.331 119.049 489.068 119.723 489.068 121.994C489.068 124.016 487.331 125.081 485.31 125.081H484.211V128.061H481.693V119.049ZM485.133 123.377C486.196 123.377 486.728 122.916 486.728 122.171C486.728 121.355 486.125 121.036 485.133 121.036H484.246V123.377H485.133ZM484.92 124.442L487.012 123.768L489.6 128.061H486.976L484.92 124.442Z" fill="#17A697"/>
<path d="M489.813 119.049H492.402L493.43 122.952C493.678 123.91 493.891 124.797 494.139 125.826H494.21C494.494 124.832 494.671 123.91 494.919 122.952L495.912 119.049H498.429L495.628 128.061H492.65L489.813 119.049Z" fill="#17A697"/>
<path d="M499.599 119.049H502.116V128.061H499.599V119.049Z" fill="#17A697"/>
<path d="M504.208 123.625C504.208 120.574 506.406 118.871 508.888 118.871C510.058 118.871 511.122 119.403 511.796 120.077L510.448 121.568C509.952 121.142 509.526 120.929 508.924 120.929C507.718 120.929 506.761 121.887 506.761 123.555C506.761 125.293 507.576 126.216 508.853 126.216C509.597 126.216 510.129 125.896 510.555 125.506L511.902 126.961C511.086 127.848 509.952 128.273 508.746 128.273C506.3 128.273 504.208 126.748 504.208 123.625Z" fill="#17A697"/>
<path d="M513.568 119.049H519.667V121H516.05V122.561H519.135V124.371H516.05V126.109H519.844V128.061H513.568V119.049Z" fill="#17A697"/>
<path d="M521.368 126.996L522.574 125.329C523.425 125.967 524.311 126.357 525.197 126.357C525.906 126.357 526.261 126.038 526.261 125.577C526.261 125.08 525.8 124.867 525.162 124.619L524.205 124.264C522.999 123.803 521.865 123.093 521.865 121.674C521.865 119.971 523.283 118.871 525.41 118.871C526.864 118.871 527.927 119.439 528.707 120.042L527.466 121.639C526.793 121.177 526.084 120.823 525.339 120.823C524.701 120.823 524.346 121.071 524.346 121.568C524.346 121.958 524.772 122.206 525.446 122.455L526.367 122.774C527.679 123.235 528.743 123.803 528.743 125.4C528.743 127.032 527.396 128.309 525.056 128.309C523.673 128.273 522.29 127.741 521.368 126.996Z" fill="#17A697"/>
<path d="M243.255 165.988H244.496C245.595 165.988 246.269 166.343 246.269 167.372C246.269 168.33 245.63 168.791 244.531 168.791H243.609V170.92H243.255V165.988ZM244.46 168.507C245.453 168.507 245.949 168.188 245.949 167.372C245.949 166.556 245.453 166.308 244.425 166.308H243.609V168.543H244.46V168.507Z" fill="white"/>
<path d="M247.049 168.437C247.049 166.876 247.9 165.918 249.141 165.918C249.708 165.918 250.169 166.202 250.417 166.521L250.204 166.734C249.956 166.415 249.566 166.237 249.141 166.237C248.077 166.237 247.403 167.089 247.403 168.473C247.403 169.821 248.077 170.708 249.105 170.708C249.602 170.708 249.992 170.495 250.346 170.105L250.559 170.318C250.169 170.743 249.743 171.027 249.105 171.027C247.9 170.992 247.049 169.998 247.049 168.437Z" fill="white"/>
<path d="M251.552 165.989H251.906V170.921H251.552V165.989Z" fill="white"/>
<path d="M252.935 168.898H254.566V169.182H252.935V168.898Z" fill="white"/>
<path d="M255.558 165.989H256.692C258.217 165.989 258.926 166.947 258.926 168.437C258.926 169.928 258.217 170.921 256.692 170.921H255.558V165.989ZM256.657 170.637C258.004 170.637 258.571 169.75 258.571 168.473C258.571 167.196 258.004 166.309 256.657 166.309H255.912V170.637H256.657Z" fill="white"/>
<path d="M259.671 170.282L259.884 170.034C260.238 170.424 260.735 170.708 261.337 170.708C262.082 170.708 262.543 170.318 262.543 169.715C262.543 169.111 262.153 168.899 261.656 168.686L260.912 168.366C260.486 168.189 259.919 167.87 259.919 167.16C259.919 166.45 260.522 165.954 261.337 165.954C261.94 165.954 262.401 166.237 262.72 166.557L262.507 166.77C262.224 166.45 261.834 166.273 261.337 166.273C260.699 166.273 260.238 166.628 260.238 167.16C260.238 167.728 260.735 167.941 261.089 168.118L261.834 168.437C262.366 168.686 262.862 168.969 262.862 169.75C262.862 170.495 262.259 171.063 261.302 171.063C260.628 170.992 260.061 170.708 259.671 170.282Z" fill="white"/>
<path d="M263.465 170.282L263.678 170.034C264.032 170.424 264.528 170.708 265.131 170.708C265.876 170.708 266.337 170.318 266.337 169.715C266.337 169.111 265.947 168.899 265.45 168.686L264.706 168.366C264.28 168.189 263.713 167.87 263.713 167.16C263.713 166.45 264.316 165.954 265.131 165.954C265.734 165.954 266.195 166.237 266.514 166.557L266.301 166.77C266.018 166.45 265.628 166.273 265.131 166.273C264.493 166.273 264.032 166.628 264.032 167.16C264.032 167.728 264.529 167.941 264.883 168.118L265.628 168.437C266.159 168.686 266.656 168.969 266.656 169.75C266.656 170.495 266.053 171.063 265.096 171.063C264.422 170.992 263.855 170.708 263.465 170.282Z" fill="white"/>
<path d="M267.647 139.343H268.002V144.239H267.647V139.343Z" fill="white"/>
<path d="M269.456 139.343H270.697C271.796 139.343 272.47 139.698 272.47 140.727C272.47 141.684 271.832 142.146 270.732 142.146H269.811V144.275H269.456V139.343ZM270.626 141.826C271.619 141.826 272.115 141.507 272.115 140.691C272.115 139.875 271.619 139.627 270.591 139.627H269.775V141.862H270.626V141.826Z" fill="white"/>
<path d="M274.525 140.691L275.022 140.656H276.156V140.939H274.525V140.691ZM275.022 139.875C275.022 139.165 275.341 138.811 275.908 138.811C276.085 138.811 276.263 138.846 276.44 138.917L276.334 139.201C276.192 139.13 276.05 139.094 275.908 139.094C275.518 139.094 275.341 139.378 275.341 139.91V144.275H275.022V139.875Z" fill="white"/>
<path d="M276.795 139.52C276.795 139.343 276.937 139.236 277.079 139.236C277.256 139.236 277.362 139.343 277.362 139.52C277.362 139.698 277.22 139.804 277.079 139.804C276.937 139.804 276.795 139.662 276.795 139.52ZM276.937 140.656H277.256V144.239H276.937V140.656Z" fill="white"/>
<path d="M278.639 143.778V138.882H278.958V143.814C278.958 143.956 279.029 144.062 279.1 144.062C279.135 144.062 279.17 144.062 279.241 144.062L279.312 144.346C279.241 144.381 279.17 144.381 279.064 144.381C278.78 144.346 278.639 144.168 278.639 143.778Z" fill="white"/>
<path d="M280.482 143.246V140.94H279.915V140.691L280.482 140.656L280.518 139.627H280.801V140.656H281.83V140.94H280.801V143.281C280.801 143.743 280.908 144.062 281.404 144.062C281.546 144.062 281.723 143.991 281.865 143.956L281.936 144.239C281.723 144.31 281.511 144.381 281.369 144.381C280.695 144.346 280.482 143.885 280.482 143.246Z" fill="white"/>
<path d="M282.361 142.464C282.361 141.294 283.106 140.584 283.921 140.584C284.772 140.584 285.304 141.187 285.304 142.252C285.304 142.358 285.304 142.429 285.269 142.535H282.716C282.716 143.422 283.248 144.097 284.063 144.097C284.453 144.097 284.772 143.955 285.021 143.777L285.162 144.026C284.879 144.203 284.56 144.38 284.028 144.38C283.106 144.345 282.361 143.635 282.361 142.464ZM284.985 142.216C284.985 141.294 284.56 140.832 283.921 140.832C283.319 140.832 282.787 141.329 282.68 142.216H284.985Z" fill="white"/>
<path d="M286.262 140.655H286.545L286.581 141.329C286.829 140.903 287.184 140.584 287.609 140.584C287.751 140.584 287.857 140.584 287.964 140.655L287.893 140.939C287.786 140.903 287.715 140.868 287.574 140.868C287.254 140.868 286.864 141.116 286.581 141.79V144.238H286.262V140.655Z" fill="white"/>
<path d="M288.495 139.52C288.495 139.343 288.637 139.236 288.779 139.236C288.956 139.236 289.062 139.343 289.062 139.52C289.062 139.698 288.921 139.804 288.779 139.804C288.601 139.804 288.495 139.662 288.495 139.52ZM288.601 140.656H288.921V144.239H288.601V140.656Z" fill="white"/>
<path d="M290.304 140.655H290.587L290.623 141.223C290.977 140.868 291.367 140.584 291.864 140.584C292.608 140.584 292.927 141.045 292.927 141.968V144.274H292.608V142.039C292.608 141.294 292.36 140.903 291.793 140.903C291.367 140.903 291.048 141.116 290.623 141.577V144.274H290.304V140.655Z" fill="white"/>
<path d="M293.956 144.984C293.956 144.665 294.169 144.345 294.488 144.132V144.097C294.311 143.99 294.169 143.813 294.169 143.529C294.169 143.21 294.417 142.997 294.559 142.855V142.82C294.346 142.642 294.098 142.287 294.098 141.826C294.098 141.081 294.665 140.549 295.339 140.549C295.516 140.549 295.693 140.584 295.8 140.655H297.005V140.939H296.19C296.438 141.152 296.58 141.471 296.58 141.826C296.58 142.571 296.048 143.103 295.339 143.103C295.126 143.103 294.913 143.032 294.736 142.962C294.594 143.103 294.452 143.245 294.452 143.494C294.452 143.742 294.594 143.955 295.126 143.955H295.906C296.722 143.955 297.076 144.203 297.076 144.771C297.076 145.374 296.402 145.977 295.374 145.977C294.523 145.977 293.956 145.587 293.956 144.984ZM296.792 144.806C296.792 144.416 296.509 144.274 295.977 144.274H295.197C295.126 144.274 294.949 144.274 294.772 144.203C294.452 144.416 294.311 144.7 294.311 144.948C294.311 145.41 294.736 145.694 295.481 145.694C296.296 145.694 296.792 145.232 296.792 144.806ZM296.296 141.826C296.296 141.223 295.871 140.833 295.374 140.833C294.878 140.833 294.452 141.223 294.452 141.826C294.452 142.429 294.878 142.82 295.374 142.82C295.871 142.82 296.296 142.429 296.296 141.826Z" fill="white"/>
<path d="M449.677 204.06H448.117V203.776H451.592V204.06H450.032V208.672H449.677V204.06Z" fill="white"/>
<path d="M452.089 205.089H452.372L452.408 205.763C452.656 205.337 453.011 205.018 453.436 205.018C453.578 205.018 453.684 205.018 453.791 205.089L453.72 205.372C453.613 205.337 453.543 205.301 453.401 205.301C453.082 205.301 452.692 205.55 452.408 206.224V208.672H452.089V205.089Z" fill="white"/>
<path d="M454.039 207.785C454.039 207.005 454.748 206.614 456.344 206.437C456.344 205.905 456.202 205.301 455.493 205.301C454.996 205.301 454.606 205.55 454.358 205.727L454.216 205.479C454.465 205.301 454.961 205.018 455.564 205.018C456.415 205.018 456.698 205.621 456.698 206.401V208.672H456.415L456.379 208.211C456.025 208.495 455.564 208.779 455.103 208.779C454.535 208.743 454.039 208.459 454.039 207.785ZM456.344 207.892V206.685C454.89 206.863 454.358 207.182 454.358 207.75C454.358 208.246 454.713 208.459 455.103 208.459C455.564 208.459 455.918 208.282 456.344 207.892Z" fill="white"/>
<path d="M457.514 205.124L458.01 205.088H461.13V205.372H457.514V205.124ZM458.01 204.414C458.01 203.669 458.365 203.279 458.967 203.279C459.145 203.279 459.393 203.314 459.57 203.421L459.464 203.705C459.286 203.634 459.109 203.598 458.967 203.598C458.542 203.598 458.329 203.918 458.329 204.485V208.708H458.01V204.414ZM459.996 204.272C459.996 203.563 460.315 203.208 460.882 203.208C461.059 203.208 461.237 203.243 461.414 203.314L461.307 203.598C461.166 203.527 461.024 203.492 460.882 203.492C460.492 203.492 460.315 203.776 460.315 204.308V208.672H459.996V204.272Z" fill="white"/>
<path d="M461.768 203.918C461.768 203.741 461.909 203.634 462.051 203.634C462.228 203.634 462.335 203.741 462.335 203.918C462.335 204.096 462.193 204.202 462.051 204.202C461.909 204.237 461.768 204.096 461.768 203.918ZM461.909 205.089H462.228V208.673H461.909V205.089Z" fill="white"/>
<path d="M463.328 206.862C463.328 205.656 464.108 204.982 464.959 204.982C465.455 204.982 465.775 205.195 466.023 205.408L465.845 205.621C465.597 205.408 465.349 205.23 464.995 205.23C464.25 205.23 463.683 205.869 463.683 206.827C463.683 207.785 464.179 208.424 464.959 208.424C465.349 208.424 465.668 208.246 465.916 207.998L466.094 208.246C465.775 208.53 465.42 208.707 464.959 208.707C464.002 208.743 463.328 208.069 463.328 206.862Z" fill="white"/>
<path d="M468.149 206.862C468.149 205.656 468.929 204.982 469.78 204.982C470.277 204.982 470.596 205.195 470.844 205.408L470.667 205.621C470.419 205.408 470.17 205.23 469.816 205.23C469.071 205.23 468.504 205.869 468.504 206.827C468.504 207.785 469 208.424 469.78 208.424C470.17 208.424 470.49 208.246 470.738 207.998L470.915 208.246C470.596 208.53 470.241 208.707 469.78 208.707C468.859 208.743 468.149 208.069 468.149 206.862Z" fill="white"/>
<path d="M471.376 206.862C471.376 205.656 472.121 204.982 472.971 204.982C473.822 204.982 474.567 205.656 474.567 206.862C474.567 208.033 473.822 208.743 472.971 208.743C472.121 208.743 471.376 208.069 471.376 206.862ZM474.212 206.862C474.212 205.904 473.681 205.266 472.936 205.266C472.227 205.266 471.66 205.904 471.66 206.862C471.66 207.82 472.191 208.459 472.936 208.459C473.681 208.459 474.212 207.82 474.212 206.862Z" fill="white"/>
<path d="M475.631 205.089H475.914L475.95 205.656C476.304 205.301 476.694 205.018 477.191 205.018C477.935 205.018 478.255 205.479 478.255 206.401V208.708H477.935V206.401C477.935 205.656 477.687 205.266 477.12 205.266C476.695 205.266 476.375 205.479 475.95 205.94V208.637H475.631V205.089Z" fill="white"/>
<path d="M479.673 207.679V205.373H479.105V205.124L479.673 205.089L479.708 204.06H479.992V205.089H481.02V205.373H479.992V207.715C479.992 208.176 480.098 208.495 480.595 208.495C480.736 208.495 480.914 208.424 481.056 208.389L481.126 208.673C480.914 208.743 480.701 208.814 480.559 208.814C479.885 208.743 479.673 208.318 479.673 207.679Z" fill="white"/>
<path d="M481.941 205.089H482.225L482.261 205.763C482.509 205.337 482.863 205.018 483.289 205.018C483.431 205.018 483.537 205.018 483.643 205.089L483.572 205.372C483.466 205.337 483.395 205.301 483.253 205.301C482.934 205.301 482.544 205.55 482.261 206.224V208.672H481.941V205.089Z" fill="white"/>
<path d="M483.928 206.862C483.928 205.656 484.672 204.982 485.523 204.982C486.374 204.982 487.119 205.656 487.119 206.862C487.119 208.033 486.374 208.743 485.523 208.743C484.672 208.743 483.928 208.069 483.928 206.862ZM486.764 206.862C486.764 205.904 486.232 205.266 485.488 205.266C484.779 205.266 484.211 205.904 484.211 206.862C484.211 207.82 484.743 208.459 485.488 208.459C486.232 208.459 486.764 207.82 486.764 206.862Z" fill="white"/>
<path d="M488.182 208.176V203.279H488.501V208.211C488.501 208.353 488.572 208.459 488.643 208.459C488.678 208.459 488.713 208.459 488.784 208.459L488.855 208.743C488.784 208.779 488.713 208.779 488.607 208.779C488.323 208.743 488.182 208.566 488.182 208.176Z" fill="white"/>
<path d="M467.263 181.67H467.617V186.283H469.886V186.567H467.298V181.67H467.263Z" fill="white"/>
<path d="M470.348 184.794C470.348 183.587 471.092 182.913 471.943 182.913C472.794 182.913 473.539 183.587 473.539 184.794C473.539 185.964 472.794 186.674 471.943 186.674C471.092 186.674 470.348 186 470.348 184.794ZM473.184 184.794C473.184 183.836 472.652 183.197 471.908 183.197C471.199 183.197 470.631 183.836 470.631 184.794C470.631 185.752 471.163 186.39 471.908 186.39C472.652 186.39 473.184 185.752 473.184 184.794Z" fill="white"/>
<path d="M474.318 187.313C474.318 186.993 474.531 186.674 474.85 186.461V186.425C474.673 186.319 474.531 186.142 474.531 185.858C474.531 185.538 474.779 185.326 474.921 185.184V185.148C474.708 184.971 474.46 184.616 474.46 184.155C474.46 183.41 475.027 182.877 475.701 182.877C475.878 182.877 476.056 182.913 476.162 182.984H477.367V183.268H476.552C476.8 183.481 476.942 183.8 476.942 184.155C476.942 184.9 476.41 185.432 475.701 185.432C475.488 185.432 475.276 185.361 475.098 185.29C474.957 185.432 474.815 185.574 474.815 185.822C474.815 186.071 474.957 186.284 475.488 186.284H476.268C477.084 186.284 477.438 186.532 477.438 187.1C477.438 187.703 476.765 188.306 475.737 188.306C474.886 188.306 474.318 187.916 474.318 187.313ZM477.155 187.135C477.155 186.745 476.871 186.603 476.339 186.603H475.559C475.488 186.603 475.311 186.603 475.134 186.532C474.815 186.745 474.673 187.029 474.673 187.277C474.673 187.738 475.098 188.022 475.843 188.022C476.623 188.058 477.155 187.596 477.155 187.135ZM476.658 184.19C476.658 183.587 476.233 183.197 475.737 183.197C475.24 183.197 474.815 183.587 474.815 184.19C474.815 184.793 475.24 185.184 475.737 185.184C476.233 185.184 476.658 184.793 476.658 184.19Z" fill="white"/>
<path d="M477.936 187.313C477.936 186.993 478.148 186.674 478.467 186.461V186.425C478.29 186.319 478.148 186.142 478.148 185.858C478.148 185.538 478.396 185.326 478.538 185.184V185.148C478.326 184.971 478.077 184.616 478.077 184.155C478.077 183.41 478.645 182.877 479.318 182.877C479.496 182.877 479.673 182.913 479.779 182.984H480.985V183.268H480.169C480.417 183.481 480.559 183.8 480.559 184.155C480.559 184.9 480.027 185.432 479.318 185.432C479.106 185.432 478.893 185.361 478.716 185.29C478.574 185.432 478.432 185.574 478.432 185.822C478.432 186.071 478.574 186.284 479.106 186.284H479.886C480.701 186.284 481.056 186.532 481.056 187.1C481.056 187.703 480.382 188.306 479.354 188.306C478.503 188.306 477.936 187.916 477.936 187.313ZM480.772 187.135C480.772 186.745 480.488 186.603 479.956 186.603H479.176C479.106 186.603 478.928 186.603 478.751 186.532C478.432 186.745 478.29 187.029 478.29 187.277C478.29 187.738 478.716 188.022 479.46 188.022C480.24 188.058 480.772 187.596 480.772 187.135ZM480.276 184.19C480.276 183.587 479.85 183.197 479.354 183.197C478.857 183.197 478.432 183.587 478.432 184.19C478.432 184.793 478.857 185.184 479.354 185.184C479.85 185.184 480.276 184.793 480.276 184.19Z" fill="white"/>
<path d="M481.729 181.848C481.729 181.671 481.87 181.564 482.012 181.564C482.154 181.564 482.296 181.671 482.296 181.848C482.296 182.026 482.154 182.132 482.012 182.132C481.87 182.132 481.729 182.026 481.729 181.848ZM481.87 183.019H482.189V186.603H481.87V183.019Z" fill="white"/>
<path d="M483.572 183.019H483.856L483.891 183.587C484.246 183.232 484.636 182.948 485.132 182.948C485.877 182.948 486.196 183.409 486.196 184.332V186.638H485.877V184.403C485.877 183.658 485.629 183.268 485.061 183.268C484.636 183.268 484.317 183.48 483.891 183.942V186.638H483.572V183.019Z" fill="white"/>
<path d="M487.225 187.313C487.225 186.993 487.437 186.674 487.756 186.461V186.425C487.579 186.319 487.437 186.142 487.437 185.858C487.437 185.538 487.686 185.326 487.827 185.184V185.148C487.615 184.971 487.366 184.616 487.366 184.155C487.366 183.41 487.934 182.877 488.607 182.877C488.785 182.877 488.962 182.913 489.068 182.984H490.274V183.268H489.458C489.707 183.481 489.848 183.8 489.848 184.155C489.848 184.9 489.317 185.432 488.607 185.432C488.395 185.432 488.182 185.361 488.005 185.29C487.863 185.432 487.721 185.574 487.721 185.822C487.721 186.071 487.863 186.284 488.395 186.284H489.175C489.99 186.284 490.345 186.532 490.345 187.1C490.345 187.703 489.671 188.306 488.643 188.306C487.792 188.306 487.225 187.916 487.225 187.313ZM490.061 187.135C490.061 186.745 489.777 186.603 489.246 186.603H488.466C488.395 186.603 488.217 186.603 488.04 186.532C487.721 186.745 487.579 187.029 487.579 187.277C487.579 187.738 488.005 188.022 488.749 188.022C489.529 188.058 490.061 187.596 490.061 187.135ZM489.565 184.19C489.565 183.587 489.139 183.197 488.643 183.197C488.146 183.197 487.721 183.587 487.721 184.19C487.721 184.793 488.146 185.184 488.643 185.184C489.139 185.184 489.565 184.793 489.565 184.19Z" fill="white"/>
<path d="M444.961 193.061H445.315V197.673H447.585V197.957H444.996V193.061H444.961Z" fill="white"/>
<path d="M448.046 196.218C448.046 195.012 448.79 194.338 449.641 194.338C450.492 194.338 451.237 195.012 451.237 196.218C451.237 197.389 450.492 198.099 449.641 198.099C448.79 198.099 448.046 197.389 448.046 196.218ZM450.882 196.218C450.882 195.26 450.351 194.622 449.606 194.622C448.897 194.622 448.33 195.26 448.33 196.218C448.33 197.176 448.861 197.815 449.606 197.815C450.351 197.779 450.882 197.141 450.882 196.218Z" fill="white"/>
<path d="M451.945 197.105C451.945 196.325 452.654 195.935 454.25 195.757C454.25 195.225 454.108 194.622 453.399 194.622C452.903 194.622 452.513 194.87 452.264 195.048L452.123 194.799C452.371 194.622 452.867 194.338 453.47 194.338C454.321 194.338 454.605 194.941 454.605 195.722V197.992H454.321L454.285 197.531C453.931 197.815 453.47 198.099 453.009 198.099C452.406 198.063 451.945 197.779 451.945 197.105ZM454.25 197.212V196.005C452.796 196.183 452.264 196.502 452.264 197.07C452.264 197.567 452.619 197.78 453.009 197.78C453.434 197.78 453.824 197.602 454.25 197.212Z" fill="white"/>
<path d="M455.562 196.218C455.562 195.047 456.306 194.338 457.157 194.338C457.582 194.338 457.866 194.515 458.221 194.763V194.089V192.599H458.54V197.957H458.256L458.221 197.495C457.937 197.779 457.547 198.063 457.051 198.063C456.129 198.063 455.562 197.424 455.562 196.218ZM458.221 197.212V195.083C457.831 194.763 457.547 194.622 457.193 194.622C456.483 194.622 455.952 195.331 455.952 196.218C455.952 197.176 456.377 197.815 457.122 197.815C457.476 197.779 457.831 197.566 458.221 197.212Z" fill="white"/>
<path d="M461.732 197.638L461.661 197.992H461.377V192.635H461.696V194.196V194.906C462.051 194.586 462.476 194.338 462.937 194.338C463.894 194.338 464.355 195.047 464.355 196.147C464.355 197.354 463.611 198.063 462.795 198.063C462.441 198.063 462.051 197.886 461.732 197.638ZM464.036 196.147C464.036 195.26 463.717 194.622 462.902 194.622C462.547 194.622 462.157 194.835 461.732 195.225V197.354C462.122 197.673 462.512 197.815 462.795 197.815C463.504 197.779 464.036 197.105 464.036 196.147Z" fill="white"/>
<path d="M465.064 197.105C465.064 196.325 465.774 195.935 467.369 195.757C467.369 195.225 467.227 194.622 466.518 194.622C466.022 194.622 465.632 194.87 465.384 195.048L465.242 194.799C465.49 194.622 465.986 194.338 466.589 194.338C467.44 194.338 467.724 194.941 467.724 195.722V197.992H467.44L467.405 197.531C467.05 197.815 466.589 198.099 466.128 198.099C465.525 198.063 465.064 197.779 465.064 197.105ZM467.369 197.212V196.005C465.915 196.183 465.384 196.502 465.384 197.07C465.384 197.567 465.738 197.78 466.128 197.78C466.554 197.78 466.944 197.602 467.369 197.212Z" fill="white"/>
<path d="M468.965 197.495V192.599H469.284V197.531C469.284 197.673 469.355 197.779 469.426 197.779C469.461 197.779 469.497 197.779 469.568 197.779L469.638 198.063C469.568 198.099 469.497 198.099 469.39 198.099C469.142 198.063 468.965 197.886 468.965 197.495Z" fill="white"/>
<path d="M470.489 197.105C470.489 196.325 471.198 195.935 472.794 195.757C472.794 195.225 472.652 194.622 471.943 194.622C471.447 194.622 471.057 194.87 470.808 195.048L470.667 194.799C470.915 194.622 471.411 194.338 472.014 194.338C472.865 194.338 473.148 194.941 473.148 195.722V197.992H472.865L472.829 197.531C472.475 197.815 472.014 198.099 471.553 198.099C470.95 198.063 470.489 197.779 470.489 197.105ZM472.794 197.212V196.005C471.34 196.183 470.808 196.502 470.808 197.07C470.808 197.567 471.163 197.78 471.553 197.78C471.978 197.78 472.368 197.602 472.794 197.212Z" fill="white"/>
<path d="M474.389 194.409H474.672L474.708 194.977C475.062 194.622 475.452 194.338 475.949 194.338C476.693 194.338 477.012 194.799 477.012 195.722V198.028H476.693V195.793C476.693 195.047 476.445 194.657 475.878 194.657C475.452 194.657 475.133 194.87 474.708 195.331V198.028H474.389V194.409Z" fill="white"/>
<path d="M478.076 196.218C478.076 195.012 478.856 194.338 479.707 194.338C480.204 194.338 480.523 194.551 480.771 194.764L480.594 194.977C480.345 194.764 480.097 194.586 479.743 194.586C478.998 194.586 478.431 195.225 478.431 196.183C478.431 197.141 478.927 197.78 479.707 197.78C480.097 197.78 480.416 197.602 480.664 197.354L480.842 197.602C480.523 197.886 480.168 198.063 479.707 198.063C478.75 198.063 478.076 197.389 478.076 196.218Z" fill="white"/>
<path d="M481.587 193.237C481.587 193.06 481.729 192.954 481.871 192.954C482.048 192.954 482.154 193.06 482.154 193.237C482.154 193.415 482.012 193.521 481.871 193.521C481.729 193.557 481.587 193.415 481.587 193.237ZM481.693 194.408H482.012V197.992H481.693V194.408Z" fill="white"/>
<path d="M483.395 194.409H483.678L483.714 194.977C484.068 194.622 484.458 194.338 484.955 194.338C485.699 194.338 486.018 194.799 486.018 195.722V198.028H485.699V195.793C485.699 195.047 485.451 194.657 484.884 194.657C484.458 194.657 484.139 194.87 483.714 195.331V198.028H483.395V194.409Z" fill="white"/>
<path d="M487.082 198.702C487.082 198.383 487.295 198.064 487.614 197.851V197.815C487.437 197.709 487.295 197.531 487.295 197.247C487.295 196.928 487.543 196.715 487.685 196.573V196.538C487.472 196.36 487.224 196.006 487.224 195.544C487.224 194.799 487.791 194.267 488.465 194.267C488.642 194.267 488.819 194.303 488.926 194.374H490.131V194.657H489.316C489.564 194.87 489.706 195.19 489.706 195.544C489.706 196.289 489.174 196.822 488.465 196.822C488.252 196.822 488.039 196.751 487.862 196.68C487.72 196.822 487.578 196.964 487.578 197.212C487.578 197.46 487.72 197.673 488.252 197.673H489.032C489.848 197.673 490.202 197.922 490.202 198.489C490.202 199.092 489.528 199.696 488.5 199.696C487.649 199.696 487.082 199.305 487.082 198.702ZM489.883 198.525C489.883 198.134 489.599 197.993 489.068 197.993H488.288C488.217 197.993 488.039 197.993 487.862 197.922C487.543 198.134 487.401 198.418 487.401 198.667C487.401 199.128 487.827 199.412 488.571 199.412C489.387 199.447 489.883 198.986 489.883 198.525ZM489.422 195.58C489.422 194.977 488.997 194.586 488.5 194.586C488.004 194.586 487.578 194.977 487.578 195.58C487.578 196.183 488.004 196.573 488.5 196.573C488.961 196.573 489.422 196.183 489.422 195.58Z" fill="white"/>
<path d="M268.747 128.415H269.101L270.839 133.311H270.484L269.491 130.437C269.279 129.87 269.137 129.338 268.96 128.734H268.924C268.747 129.338 268.57 129.834 268.392 130.437L267.399 133.311H267.045L268.747 128.415ZM267.789 131.36H269.988V131.644H267.789V131.36Z" fill="white"/>
<path d="M271.441 131.431V128.415H271.796V131.395C271.796 132.708 272.399 133.098 273.108 133.098C273.817 133.098 274.455 132.708 274.455 131.395V128.415H274.774V131.431C274.774 132.957 273.959 133.418 273.108 133.418C272.257 133.418 271.441 132.957 271.441 131.431Z" fill="white"/>
<path d="M277.22 128.699H275.66V128.415H279.135V128.699H277.575V133.311H277.22V128.699Z" fill="white"/>
<path d="M280.093 128.415H280.447V130.579H283.071V128.415H283.426V133.311H283.071V130.863H280.447V133.311H280.093V128.415Z" fill="white"/>
<path d="M409.151 260.581H409.506V262.745H412.13V260.581H412.484V265.477H412.13V263.029H409.506V265.477H409.151V260.581Z" fill="white"/>
<path d="M413.902 260.58H414.257V265.476H413.902V260.58Z" fill="white"/>
<path d="M415.711 260.58H416.952C418.051 260.58 418.725 260.935 418.725 261.964C418.725 262.922 418.086 263.383 416.987 263.383H416.065V265.512H415.711V260.58ZM416.881 263.099C417.874 263.099 418.37 262.78 418.37 261.964C418.37 261.148 417.874 260.899 416.845 260.899H416.03V263.135H416.881V263.099Z" fill="white"/>
<path d="M420.462 260.58H420.816L422.553 265.476H422.199L421.206 262.602C420.993 262.035 420.852 261.503 420.674 260.899H420.639C420.462 261.503 420.284 261.999 420.107 262.602L419.114 265.476H418.76L420.462 260.58ZM419.54 263.525H421.738V263.809H419.54V263.525Z" fill="white"/>
<path d="M424.326 260.58H424.68L426.418 265.476H426.063L425.07 262.602C424.858 262.035 424.716 261.503 424.539 260.899H424.503C424.326 261.503 424.149 261.999 423.971 262.602L422.979 265.476H422.624L424.326 260.58ZM423.404 263.525H425.602V263.809H423.404V263.525Z" fill="white"/>
<path d="M266.69 134.979H286.687V122.277" stroke="white" stroke-width="0.25" stroke-miterlimit="10"/>
<path d="M267.08 146.617H298.848V120.609" stroke="white" stroke-width="0.25" stroke-miterlimit="10"/>
<path d="M242.545 172.943H267.257V193.841" stroke="white" stroke-width="0.25" stroke-miterlimit="10"/>
<path d="M391.388 248.481V267.286H427.588" stroke="white" stroke-width="0.25" stroke-miterlimit="10"/>
<path d="M409.896 254.726C409.896 253.165 410.782 252.207 412.058 252.207C412.732 252.207 413.122 252.526 413.406 252.81L413.193 253.023C412.945 252.739 412.59 252.526 412.058 252.526C410.924 252.526 410.25 253.377 410.25 254.761C410.25 256.109 410.924 256.996 412.023 256.996C412.448 256.996 412.874 256.854 413.122 256.642V255.116H411.952V254.832H413.441V256.784C413.122 257.103 412.626 257.351 411.987 257.351C410.746 257.28 409.896 256.287 409.896 254.726Z" fill="white"/>
<path d="M414.718 252.277H415.852C417.377 252.277 418.086 253.235 418.086 254.726C418.086 256.216 417.377 257.209 415.852 257.209H414.718V252.277ZM415.817 256.89C417.164 256.89 417.731 256.003 417.731 254.726C417.731 253.448 417.164 252.561 415.817 252.561H415.072V256.89H415.817Z" fill="white"/>
<path d="M419.221 252.277H420.462C421.561 252.277 422.234 252.632 422.234 253.661C422.234 254.619 421.596 255.08 420.497 255.08H419.575V257.209H419.221V252.277ZM420.391 254.796C421.384 254.796 421.88 254.477 421.88 253.661C421.88 252.845 421.384 252.597 420.355 252.597H419.54V254.832H420.391V254.796Z" fill="white"/>
<path d="M423.298 252.277H424.716C425.709 252.277 426.347 252.632 426.347 253.59C426.347 254.477 425.709 254.938 424.716 254.938H423.652V257.209H423.298V252.277ZM424.61 254.655C425.461 254.655 425.957 254.3 425.957 253.59C425.957 252.845 425.461 252.597 424.61 252.597H423.652V254.69H424.61V254.655ZM424.645 254.832L424.964 254.726L426.418 257.174H426.028L424.645 254.832Z" fill="white"/>
<path d="M393.87 240.143V258.983H427.588" stroke="white" stroke-width="0.25" stroke-miterlimit="10"/>
<path d="M411.278 243.973H412.519C413.618 243.973 414.292 244.328 414.292 245.357C414.292 246.315 413.654 246.776 412.555 246.776H411.633V248.869H411.278V243.973ZM412.448 246.492C413.441 246.492 413.937 246.173 413.937 245.357C413.937 244.541 413.441 244.292 412.413 244.292H411.597V246.528H412.448V246.492Z" fill="white"/>
<path d="M414.93 248.233L415.142 247.985C415.497 248.375 415.993 248.659 416.596 248.659C417.341 248.659 417.802 248.268 417.802 247.665C417.802 247.062 417.412 246.849 416.915 246.636L416.171 246.317C415.745 246.14 415.178 245.82 415.178 245.111C415.178 244.401 415.781 243.904 416.596 243.904C417.199 243.904 417.66 244.188 417.979 244.507L417.766 244.72C417.483 244.401 417.093 244.224 416.596 244.224C415.958 244.224 415.497 244.578 415.497 245.111C415.497 245.678 415.993 245.891 416.348 246.069L417.092 246.388C417.624 246.636 418.121 246.92 418.121 247.701C418.121 248.446 417.518 249.013 416.561 249.013C415.852 248.978 415.284 248.659 414.93 248.233Z" fill="white"/>
<path d="M419.185 243.975H420.319C421.844 243.975 422.553 244.933 422.553 246.423C422.553 247.913 421.844 248.907 420.319 248.907H419.185V243.975ZM420.284 248.588C421.631 248.588 422.198 247.701 422.198 246.423C422.198 245.146 421.631 244.259 420.284 244.259H419.539V248.588H420.284Z" fill="white"/>
<path d="M423.263 248.694C424.823 247.097 425.603 246.21 425.603 245.394C425.603 244.791 425.284 244.33 424.575 244.33C424.149 244.33 423.759 244.578 423.475 244.968L423.263 244.756C423.617 244.365 424.043 244.046 424.61 244.046C425.461 244.046 425.957 244.578 425.957 245.394C425.957 246.352 425.106 247.239 423.759 248.658C424.007 248.658 424.291 248.623 424.575 248.623H426.206V248.907H423.298V248.694H423.263Z" fill="white"/>
<path d="M396.352 230.422V250.681H427.588" stroke="white" stroke-width="0.25" stroke-miterlimit="10"/>
<path d="M425.461 162.192V211.368H489.494" stroke="white" stroke-width="0.25" stroke-miterlimit="10"/>
<path d="M436.417 177.414V200.405H489.99" stroke="white" stroke-width="0.25" stroke-miterlimit="10"/>
<path d="M464.533 177.307V189.689H489.99" stroke="white" stroke-width="0.25" stroke-miterlimit="10"/>
<defs>
<clipPath id="clip0">
<rect width="569.701" height="367.118" fill="white" transform="translate(0 0.234375)"/>
</clipPath>
</defs>
</svg>
