<svg width="150" height="151" viewBox="0 0 150 151" fill="none" xmlns="http://www.w3.org/2000/svg">
<g clip-path="url(#clip0)">
<path d="M40.9916 54.8127C40.9916 63.8301 44.5737 72.4781 50.9499 78.8543C57.3262 85.2306 65.9742 88.8127 74.9916 88.8127C84.0089 88.8127 92.657 85.2306 99.0332 78.8543C105.409 72.4781 108.992 63.8301 108.992 54.8127V49.6127L125.382 16.8327L75.0016 0.0327148L24.6016 16.8327L40.9916 49.6127V54.8127ZM74.9916 75.2127C69.5828 75.2074 64.397 73.0564 60.5724 69.2318C56.7478 65.4073 54.5969 60.2215 54.5916 54.8127H95.4116C95.4036 60.2224 93.2504 65.4081 89.4242 69.2325C85.598 73.0568 80.4113 75.2074 75.0016 75.2127H74.9916ZM74.9916 14.3727L106.212 24.7727L98.0016 41.2027H52.0016L43.7816 24.7727L74.9916 14.3727Z" fill="white"/>
<path d="M74.9998 95.6226C42.9598 95.6226 20.5898 112.403 20.5898 136.423V150.033H129.41V136.423C129.41 112.403 107.09 95.6226 74.9998 95.6226ZM72.7098 109.293L63.7098 136.423H34.1898C34.1898 120.933 49.9298 109.983 72.7098 109.293ZM86.3398 136.423L77.3398 109.293C100.12 109.983 115.86 120.933 115.86 136.423H86.3398Z" fill="white"/>
<path d="M74.9998 39.5025C75.7903 39.5017 76.5701 39.3205 77.2798 38.9725L90.8898 32.1625L86.3198 23.0425L74.9998 28.7025L63.6798 23.0425L59.0898 32.1625L72.6898 38.9725C73.409 39.3239 74.1994 39.5053 74.9998 39.5025Z" fill="#29AAE1"/>
</g>
<defs>
<clipPath id="clip0">
<rect width="150" height="150" fill="white" transform="translate(0 0.0327148)"/>
</clipPath>
</defs>
</svg>
