<?xml version="1.0" encoding="utf-8"?>
<!-- Generator: Adobe Illustrator 25.0.1, SVG Export Plug-In . SVG Version: 6.00 Build 0)  -->
<svg version="1.1" id="Layer_1" xmlns="http://www.w3.org/2000/svg" xmlns:xlink="http://www.w3.org/1999/xlink" x="0px" y="0px"
	 viewBox="0 0 916 233" style="enable-background:new 0 0 916 233;" xml:space="preserve">
<style type="text/css">
	.st0{fill:#153F6C;}
	.st1{fill:#FFFFFF;}
	.st2{fill:#4C97FE;}
	.st3{fill:none;stroke:#FFFFFF;stroke-linecap:round;stroke-linejoin:round;stroke-miterlimit:22.9256;}
	.st4{fill:none;stroke:#153F6C;stroke-width:5;stroke-linejoin:round;stroke-miterlimit:22.9256;}
	.st5{fill:none;stroke:#4C97FE;stroke-width:2.1705;stroke-linejoin:round;stroke-miterlimit:10;}
	.st6{fill:none;stroke:#4C97FE;stroke-width:2.46;stroke-linejoin:round;stroke-miterlimit:10;}
	.st7{opacity:0.52;}
	.st8{fill:none;stroke:#4C97FE;stroke-width:2.8939;}
	.st9{fill:none;stroke:#4C97FE;stroke-width:2.8939;stroke-dasharray:8.1975,8.1975;}
	.st10{fill:none;stroke:#4C97FE;stroke-width:2.8939;stroke-dasharray:8.2427,8.2427;}
</style>
<g id="XMLID_383_">
	<g id="XMLID_656_">
		<path id="XMLID_685_" class="st0" d="M706.2,72.9h1.9v3.3h2.9v-3.3h1.9v8.5H711v-3.5h-2.9v3.5h-1.9L706.2,72.9L706.2,72.9z"/>
		<path id="XMLID_683_" class="st0" d="M716.6,74.5h-2.3v-1.6h6.6v1.6h-2.3v6.9h-1.9L716.6,74.5L716.6,74.5z"/>
		<path id="XMLID_681_" class="st0" d="M723.8,74.5h-2.3v-1.6h6.6v1.6h-2.3v6.9h-1.9L723.8,74.5L723.8,74.5z"/>
		<path id="XMLID_678_" class="st0" d="M729.3,72.9h3.1c1.8,0,3.3,0.7,3.3,2.7s-1.5,2.9-3.3,2.9h-1.2v2.9h-1.9L729.3,72.9
			L729.3,72.9z M732.3,77c1.1,0,1.6-0.5,1.6-1.4s-0.5-1.2-1.6-1.2h-1.1V77H732.3z"/>
		<path id="XMLID_676_" class="st0" d="M706.2,86.9h1.9v8.5h-1.9V86.9z"/>
		<path id="XMLID_674_" class="st0" d="M710.1,86.9h2l1.4,3.8l0.5,1.5h0.1l0.5-1.5l1.4-3.8h2v8.5h-1.8v-3.1c0-0.8,0.2-2.1,0.2-2.9
			h-0.1l-0.7,2l-1.3,3.3h-0.8l-1.3-3.3l-0.7-2h-0.1c0.1,0.8,0.2,2.1,0.2,2.9v3.1h-1.8v-8.5H710.1z"/>
		<path id="XMLID_671_" class="st0" d="M724,93.4h-2.6l-0.5,2H719l2.7-8.5h2.3l2.7,8.5h-2L724,93.4z M723.6,91.9l-0.2-0.8
			c-0.2-0.8-0.5-1.8-0.7-2.7h-0.1c-0.2,0.9-0.4,1.9-0.7,2.7l-0.2,0.8H723.6z"/>
		<path id="XMLID_668_" class="st0" d="M727.4,86.9h3.1c1.8,0,3.3,0.7,3.3,2.7s-1.5,2.9-3.3,2.9h-1.2v2.9h-1.9L727.4,86.9
			L727.4,86.9z M730.4,91c1.1,0,1.6-0.5,1.6-1.4s-0.5-1.2-1.6-1.2h-1.1V91H730.4z"/>
		<path id="XMLID_665_" class="st0" d="M706.2,100.9h3.1c1.8,0,3.3,0.7,3.3,2.7s-1.5,2.9-3.3,2.9h-1.2v2.9h-1.9L706.2,100.9
			L706.2,100.9z M709.2,105c1.1,0,1.6-0.5,1.6-1.4s-0.5-1.2-1.6-1.2h-1.1v2.6H709.2z"/>
		<path id="XMLID_662_" class="st0" d="M713.6,105.1c0-2.8,1.6-4.4,3.8-4.4c2.3,0,3.8,1.6,3.8,4.4s-1.6,4.4-3.8,4.4
			C715.2,109.5,713.6,107.9,713.6,105.1z M719.4,105.1c0-1.7-0.7-2.7-1.9-2.7c-1.1,0-1.9,1-1.9,2.7s0.7,2.8,1.9,2.8
			C718.6,107.9,719.4,106.8,719.4,105.1z"/>
		<path id="XMLID_659_" class="st0" d="M722.9,100.9h3.1c1.8,0,3.3,0.7,3.3,2.7s-1.5,2.9-3.3,2.9h-1.2v2.9h-1.9L722.9,100.9
			L722.9,100.9z M725.9,105c1.1,0,1.6-0.5,1.6-1.4s-0.5-1.2-1.6-1.2h-1.1v2.6H725.9z"/>
		<path id="XMLID_657_" class="st0" d="M731,107.1c0.5,0.5,1.1,0.8,1.8,0.8c0.8,0,1.3-0.4,1.3-1c0-0.7-0.4-1.2-2.2-1.2v-1.4
			c1.5,0,1.9-0.4,1.9-1.1c0-0.6-0.4-0.9-1-0.9s-1,0.3-1.5,0.7l-1-1.2c0.8-0.6,1.6-1.1,2.6-1.1c1.7,0,2.8,0.8,2.8,2.3
			c0,0.9-0.5,1.5-1.4,1.8v0.1c0.9,0.3,1.6,0.9,1.6,2c0,1.5-1.4,2.4-3.1,2.4c-1.3,0-2.3-0.5-2.9-1.2L731,107.1z"/>
	</g>
</g>
<g id="XMLID_332_">
	<g id="XMLID_881_">
		<path id="XMLID_930_" class="st1" d="M563.6,166.3h-3.4v-1.2h8.2v1.2H565v10h-1.4V166.3z"/>
		<path id="XMLID_928_" class="st1" d="M570.3,165.1h1.4v9.9h4.9v1.2h-6.3L570.3,165.1L570.3,165.1z"/>
		<path id="XMLID_926_" class="st1" d="M578.5,173.8c0.8,0.8,1.9,1.4,3.1,1.4c1.5,0,2.3-0.7,2.3-1.8s-0.8-1.5-1.9-2l-1.6-0.7
			c-1-0.4-2.3-1.2-2.3-2.9s1.5-3,3.5-3c1.3,0,2.5,0.6,3.3,1.4l-0.7,0.9c-0.7-0.6-1.5-1.1-2.5-1.1c-1.3,0-2.1,0.6-2.1,1.6
			c0,1.1,1,1.5,1.9,1.9l1.6,0.7c1.3,0.6,2.3,1.3,2.3,3c0,1.8-1.5,3.2-3.8,3.2c-1.6,0-2.9-0.6-3.9-1.6L578.5,173.8z"/>
		<path id="XMLID_924_" class="st1" d="M590.8,175.1h2.5v-8h-2v-0.9c1-0.2,1.7-0.4,2.3-0.8h1.1v9.7h2.2v1.2h-6.1V175.1z"/>
		<path id="XMLID_922_" class="st1" d="M600,174.3c0.5,0,1,0.4,1,1.1c0,0.6-0.5,1.1-1,1.1c-0.6,0-1-0.4-1-1.1S599.5,174.3,600,174.3
			z"/>
		<path id="XMLID_920_" class="st1" d="M603.3,174c0.6,0.7,1.5,1.3,2.8,1.3s2.2-0.8,2.2-2c0-1.3-0.9-2.2-3.5-2.2V170
			c2.3,0,3.1-0.9,3.1-2s-0.7-1.7-1.9-1.7c-0.9,0-1.7,0.5-2.3,1.1l-0.7-0.9c0.8-0.8,1.8-1.4,3.1-1.4c1.9,0,3.2,1,3.2,2.8
			c0,1.3-0.8,2.1-2,2.6v0.1c1.3,0.3,2.3,1.3,2.3,2.8c0,1.9-1.6,3.1-3.6,3.1c-1.7,0-2.8-0.7-3.6-1.5L603.3,174z"/>
		<path id="XMLID_917_" class="st1" d="M564.4,184.8c2,0,3.8,1.6,3.8,4.4c0,2.7-1.8,4.3-3.8,4.3s-3.8-1.6-3.8-4.3
			C560.6,186.3,562.4,184.8,564.4,184.8z M564.4,192.3c1.4,0,2.4-1.3,2.4-3.2s-1-3.2-2.4-3.2s-2.4,1.3-2.4,3.2
			S563,192.3,564.4,192.3z"/>
		<path id="XMLID_914_" class="st1" d="M571.8,193.9v2.8h-1.4V185h1.2l0.1,1h0.1c0.7-0.6,1.7-1.2,2.6-1.2c2.1,0,3.3,1.6,3.3,4.2
			c0,2.8-1.7,4.5-3.6,4.5c-0.8,0-1.5-0.4-2.3-1L571.8,193.9z M573.8,192.3c1.4,0,2.4-1.2,2.4-3.3c0-1.8-0.6-3-2.2-3
			c-0.7,0-1.4,0.4-2.2,1.1v4.3C572.6,192,573.3,192.3,573.8,192.3z"/>
		<path id="XMLID_911_" class="st1" d="M581.3,193.9v2.8h-1.4V185h1.2l0.1,1h0.1c0.7-0.6,1.7-1.2,2.6-1.2c2.1,0,3.3,1.6,3.3,4.2
			c0,2.8-1.7,4.5-3.6,4.5c-0.8,0-1.5-0.4-2.3-1L581.3,193.9z M583.3,192.3c1.4,0,2.4-1.2,2.4-3.3c0-1.8-0.6-3-2.2-3
			c-0.7,0-1.4,0.4-2.2,1.1v4.3C582,192,582.7,192.3,583.3,192.3z"/>
		<path id="XMLID_908_" class="st1" d="M592.5,184.8c2,0,3.8,1.6,3.8,4.4c0,2.7-1.8,4.3-3.8,4.3s-3.8-1.6-3.8-4.3
			C588.7,186.3,590.5,184.8,592.5,184.8z M592.5,192.3c1.4,0,2.4-1.3,2.4-3.2s-1-3.2-2.4-3.2s-2.4,1.3-2.4,3.2
			S591.1,192.3,592.5,192.3z"/>
		<path id="XMLID_906_" class="st1" d="M598.5,185h1.2l0.1,1.5h0.1c0.6-1,1.4-1.7,2.3-1.7c0.4,0,0.6,0.1,0.9,0.2l-0.3,1.2
			c-0.3-0.1-0.5-0.1-0.8-0.1c-0.7,0-1.5,0.5-2.1,1.9v5.3h-1.4V185z"/>
		<path id="XMLID_904_" class="st1" d="M604.6,186.1h-1.2V185l1.3-0.1l0.2-2.3h1.2v2.3h2.2v1.1h-2.2v4.6c0,1,0.3,1.6,1.3,1.6
			c0.3,0,0.7-0.1,0.9-0.2l0.3,1.1c-0.5,0.2-1,0.3-1.5,0.3c-1.8,0-2.4-1.1-2.4-2.8L604.6,186.1L604.6,186.1z"/>
		<path id="XMLID_902_" class="st1" d="M610,185h1.4v5c0,1.5,0.5,2.2,1.5,2.2c0.8,0,1.4-0.4,2.2-1.4V185h1.4v8.3h-1.2l-0.1-1.3h-0.1
			c-0.8,0.9-1.6,1.5-2.7,1.5c-1.8,0-2.5-1.1-2.5-3.2L610,185L610,185z"/>
		<path id="XMLID_900_" class="st1" d="M619.4,185h1.2l0.1,1.2h0.1c0.8-0.8,1.6-1.4,2.8-1.4c1.7,0,2.5,1.1,2.5,3.2v5.2h-1.4v-5
			c0-1.5-0.5-2.2-1.6-2.2c-0.8,0-1.4,0.4-2.3,1.3v6h-1.4L619.4,185L619.4,185z"/>
		<path id="XMLID_897_" class="st1" d="M628.4,182.4c0-0.5,0.4-0.9,1-0.9s1,0.4,1,0.9s-0.4,0.9-1,0.9S628.4,182.9,628.4,182.4z
			 M628.7,185h1.4v8.3h-1.4V185z"/>
		<path id="XMLID_895_" class="st1" d="M632.7,191.4c0.7,0.6,1.4,1,2.4,1c1.1,0,1.6-0.6,1.6-1.3c0-0.8-1-1.2-1.9-1.6
			c-1.2-0.4-2.5-1-2.5-2.4c0-1.3,1.1-2.3,2.8-2.3c1,0,1.9,0.4,2.6,0.9l-0.7,0.9c-0.6-0.4-1.2-0.7-1.9-0.7c-1,0-1.5,0.6-1.5,1.2
			c0,0.8,0.9,1.1,1.8,1.4c1.2,0.4,2.5,0.9,2.5,2.5c0,1.3-1.1,2.5-3,2.5c-1.2,0-2.3-0.5-3.1-1.1L632.7,191.4z"/>
		<path id="XMLID_893_" class="st1" d="M640.2,186.1H639V185l1.3-0.1l0.2-2.3h1.2v2.3h2.2v1.1h-2.2v4.6c0,1,0.3,1.6,1.3,1.6
			c0.3,0,0.7-0.1,0.9-0.2l0.3,1.1c-0.5,0.2-1,0.3-1.5,0.3c-1.8,0-2.4-1.1-2.4-2.8L640.2,186.1L640.2,186.1z"/>
		<path id="XMLID_890_" class="st1" d="M645.5,182.4c0-0.5,0.4-0.9,1-0.9s1,0.4,1,0.9s-0.4,0.9-1,0.9S645.5,182.9,645.5,182.4z
			 M645.7,185h1.4v8.3h-1.4V185z"/>
		<path id="XMLID_888_" class="st1" d="M653.3,184.8c1.1,0,1.9,0.5,2.4,1l-0.7,0.9c-0.5-0.4-1-0.7-1.7-0.7c-1.5,0-2.6,1.3-2.6,3.2
			s1,3.2,2.5,3.2c0.8,0,1.4-0.4,1.9-0.8l0.6,0.9c-0.7,0.7-1.7,1.1-2.7,1.1c-2.2,0-3.9-1.6-3.9-4.3
			C649.3,186.3,651.2,184.8,653.3,184.8z"/>
		<path id="XMLID_886_" class="st1" d="M663.5,183.3h-3.4v-1.2h8.2v1.2h-3.4v10h-1.4L663.5,183.3L663.5,183.3z"/>
		<path id="XMLID_884_" class="st1" d="M670.2,182.1h1.4v9.9h4.9v1.2h-6.3L670.2,182.1L670.2,182.1z"/>
		<path id="XMLID_882_" class="st1" d="M678.5,190.8c0.8,0.8,1.9,1.4,3.1,1.4c1.5,0,2.3-0.7,2.3-1.8s-0.8-1.5-1.9-2l-1.6-0.7
			c-1-0.4-2.3-1.2-2.3-2.9s1.5-3,3.5-3c1.3,0,2.5,0.6,3.3,1.4l-0.7,0.9c-0.7-0.6-1.5-1.1-2.5-1.1c-1.3,0-2.1,0.6-2.1,1.6
			c0,1.1,1,1.5,1.9,1.9l1.6,0.7c1.3,0.6,2.3,1.3,2.3,3c0,1.8-1.5,3.2-3.8,3.2c-1.6,0-2.9-0.6-3.9-1.6L678.5,190.8z"/>
	</g>
</g>
<g id="XMLID_313_">
	<path id="XMLID_314_" class="st2" d="M779.8,195h1.4v11.2h-1.4V195z"/>
	<path id="XMLID_316_" class="st2" d="M784.1,197.9h1.2l0.1,1.2h0.1c0.8-0.8,1.6-1.4,2.8-1.4c1.7,0,2.5,1.1,2.5,3.2v5.2h-1.4v-5
		c0-1.5-0.5-2.2-1.6-2.2c-0.9,0-1.4,0.4-2.3,1.3v6h-1.4L784.1,197.9L784.1,197.9z"/>
	<path id="XMLID_318_" class="st2" d="M793.6,199h-1.2v-1.1l1.3-0.1l0.2-2.3h1.2v2.3h2.2v1.1H795v4.6c0,1,0.3,1.6,1.3,1.6
		c0.3,0,0.7-0.1,0.9-0.2l0.3,1.1c-0.5,0.2-1,0.3-1.5,0.3c-1.8,0-2.4-1.1-2.4-2.8V199z"/>
	<path id="XMLID_320_" class="st2" d="M802.2,197.7c2.1,0,3.3,1.5,3.3,3.9c0,0.3,0,0.6-0.1,0.8h-5.6c0.1,1.8,1.2,2.9,2.8,2.9
		c0.8,0,1.4-0.3,2.1-0.6l0.5,0.9c-0.7,0.5-1.6,0.8-2.7,0.8c-2.2,0-4-1.6-4-4.3C798.5,199.3,800.4,197.7,802.2,197.7z M804.3,201.4
		c0-1.7-0.7-2.6-2-2.6c-1.2,0-2.2,1-2.4,2.6H804.3z"/>
	<path id="XMLID_323_" class="st2" d="M807.6,197.9h1.2l0.1,1.5h0.1c0.6-1,1.4-1.7,2.3-1.7c0.4,0,0.6,0.1,0.9,0.2l-0.3,1.2
		c-0.3-0.1-0.5-0.1-0.8-0.1c-0.7,0-1.5,0.5-2.1,1.9v5.3h-1.4V197.9z"/>
	<path id="XMLID_325_" class="st2" d="M813.5,197.9h1.2l0.1,1.2h0.1c0.8-0.8,1.6-1.4,2.8-1.4c1.7,0,2.5,1.1,2.5,3.2v5.2h-1.4v-5
		c0-1.5-0.5-2.2-1.6-2.2c-0.9,0-1.4,0.4-2.3,1.3v6h-1.4L813.5,197.9L813.5,197.9z"/>
	<path id="XMLID_327_" class="st2" d="M825.9,197.7c2.1,0,3.3,1.5,3.3,3.9c0,0.3,0,0.6-0.1,0.8h-5.6c0.1,1.8,1.2,2.9,2.8,2.9
		c0.8,0,1.4-0.3,2.1-0.6l0.5,0.9c-0.7,0.5-1.6,0.8-2.7,0.8c-2.2,0-4-1.6-4-4.3C822.2,199.3,824,197.7,825.9,197.7z M827.9,201.4
		c0-1.7-0.7-2.6-2-2.6c-1.2,0-2.2,1-2.4,2.6H827.9z"/>
	<path id="XMLID_330_" class="st2" d="M831.4,199h-1.2v-1.1l1.3-0.1l0.2-2.3h1.2v2.3h2.2v1.1h-2.2v4.6c0,1,0.3,1.6,1.3,1.6
		c0.3,0,0.7-0.1,0.9-0.2l0.3,1.1c-0.5,0.2-1,0.3-1.5,0.3c-1.8,0-2.4-1.1-2.4-2.8L831.4,199L831.4,199z"/>
</g>
<g id="XMLID_1_">
	<ellipse id="XMLID_790_" class="st3" cx="576.4" cy="122.7" rx="8.6" ry="29.5"/>
	<g id="XMLID_778_">
		<path id="XMLID_789_" class="st3" d="M576.4,152.1L576.4,152.1L576.4,152.1z"/>
		<path id="XMLID_788_" class="st3" d="M576.4,152.1h101.7c4.8,0,8.6-13.2,8.6-29.5s-3.9-29.5-8.6-29.5H576.4"/>
		<path id="XMLID_785_" class="st3" d="M576.4,93.2c4.8,0,8.6,13.2,8.6,29.5s-3.9,29.5-8.6,29.5"/>
		<path id="XMLID_784_" class="st3" d="M576.4,93.2L576.4,93.2L576.4,93.2z"/>
	</g>
	<ellipse id="XMLID_777_" class="st3" cx="576.4" cy="122.7" rx="5.8" ry="22.1"/>
</g>
<line id="XMLID_752_" class="st4" x1="686.8" y1="122.7" x2="754.4" y2="122.7"/>
<g id="XMLID_282_">
	<g id="XMLID_624_">
		<path id="XMLID_653_" class="st0" d="M382.3,72.9h1.9v3.3h2.9v-3.3h1.9v8.5h-1.9v-3.5h-2.9v3.5h-1.9V72.9z"/>
		<path id="XMLID_651_" class="st0" d="M392.7,74.5h-2.3v-1.6h6.6v1.6h-2.3v6.9h-1.9v-6.9H392.7z"/>
		<path id="XMLID_649_" class="st0" d="M399.9,74.5h-2.3v-1.6h6.6v1.6h-2.3v6.9H400v-6.9H399.9z"/>
		<path id="XMLID_646_" class="st0" d="M405.4,72.9h3.1c1.8,0,3.3,0.7,3.3,2.7s-1.5,2.9-3.3,2.9h-1.2v2.9h-1.9V72.9z M408.4,77
			c1.1,0,1.6-0.5,1.6-1.4s-0.5-1.2-1.6-1.2h-1.1V77H408.4z"/>
		<path id="XMLID_644_" class="st0" d="M382.3,86.9h1.9v8.5h-1.9V86.9z"/>
		<path id="XMLID_642_" class="st0" d="M386.2,86.9h2l1.4,3.8l0.5,1.5h0.1l0.5-1.5l1.4-3.8h2v8.5h-1.8v-3.1c0-0.8,0.2-2.1,0.2-2.9
			h-0.1l-0.7,2l-1.3,3.3h-0.8l-1.3-3.3l-0.7-2h-0.1c0.1,0.8,0.2,2.1,0.2,2.9v3.1h-1.8v-8.5H386.2z"/>
		<path id="XMLID_639_" class="st0" d="M400,93.4h-2.6l-0.5,2H395l2.7-8.5h2.3l2.7,8.5h-2L400,93.4z M399.7,91.9l-0.2-0.8
			c-0.2-0.8-0.5-1.8-0.7-2.7h-0.1c-0.2,0.9-0.4,1.9-0.7,2.7l-0.2,0.8H399.7z"/>
		<path id="XMLID_636_" class="st0" d="M403.5,86.9h3.1c1.8,0,3.3,0.7,3.3,2.7s-1.5,2.9-3.3,2.9h-1.2v2.9h-1.9V86.9z M406.5,91
			c1.1,0,1.6-0.5,1.6-1.4s-0.5-1.2-1.6-1.2h-1.1V91H406.5z"/>
		<path id="XMLID_633_" class="st0" d="M382.3,100.9h3.1c1.8,0,3.3,0.7,3.3,2.7s-1.5,2.9-3.3,2.9h-1.2v2.9h-1.9V100.9z M385.2,105
			c1.1,0,1.6-0.5,1.6-1.4s-0.5-1.2-1.6-1.2h-1.1v2.6H385.2z"/>
		<path id="XMLID_630_" class="st0" d="M389.7,105.1c0-2.8,1.6-4.4,3.8-4.4c2.3,0,3.8,1.6,3.8,4.4s-1.6,4.4-3.8,4.4
			C391.3,109.5,389.7,107.9,389.7,105.1z M395.5,105.1c0-1.7-0.7-2.7-1.9-2.7c-1.1,0-1.9,1-1.9,2.7s0.7,2.8,1.9,2.8
			C394.7,107.9,395.5,106.8,395.5,105.1z"/>
		<path id="XMLID_627_" class="st0" d="M399,100.9h3.1c1.8,0,3.3,0.7,3.3,2.7s-1.5,2.9-3.3,2.9h-1.2v2.9H399V100.9z M402,105
			c1.1,0,1.6-0.5,1.6-1.4s-0.5-1.2-1.6-1.2h-1.1v2.6H402z"/>
		<path id="XMLID_625_" class="st0" d="M407.1,107.1c0.5,0.5,1.1,0.8,1.8,0.8c0.8,0,1.3-0.4,1.3-1c0-0.7-0.4-1.2-2.2-1.2v-1.4
			c1.5,0,1.9-0.4,1.9-1.1c0-0.6-0.4-0.9-1-0.9s-1,0.3-1.5,0.7l-1-1.2c0.8-0.6,1.6-1.1,2.6-1.1c1.7,0,2.8,0.8,2.8,2.3
			c0,0.9-0.5,1.5-1.4,1.8v0.1c0.9,0.3,1.6,0.9,1.6,2c0,1.5-1.4,2.4-3.1,2.4c-1.3,0-2.3-0.5-2.9-1.2L407.1,107.1z"/>
	</g>
</g>
<g id="XMLID_169_">
	<g id="XMLID_1283_">
		<path id="XMLID_1393_" class="st1" d="M240.4,52.8c2.1,0,3.3,1.5,3.3,3.9c0,0.3,0,0.6-0.1,0.8H238c0.1,1.8,1.2,2.9,2.8,2.9
			c0.8,0,1.4-0.3,2.1-0.6l0.5,0.9c-0.7,0.5-1.6,0.8-2.7,0.8c-2.2,0-4-1.6-4-4.3C236.7,54.4,238.5,52.8,240.4,52.8z M242.5,56.5
			c0-1.7-0.7-2.6-2-2.6c-1.2,0-2.2,1-2.4,2.6H242.5z"/>
		<path id="XMLID_1390_" class="st1" d="M250.4,56c0-1.1-0.4-2.1-1.7-2.1c-1,0-1.8,0.4-2.5,0.9l-0.6-1c0.8-0.5,1.9-1.1,3.2-1.1
			c2,0,2.9,1.3,2.9,3.4v5.1h-1.2l-0.1-1l0,0c-0.8,0.6-1.7,1.2-2.7,1.2c-1.4,0-2.4-0.9-2.4-2.3C245.3,57.3,246.9,56.4,250.4,56z
			 M248.1,60.3c0.8,0,1.5-0.4,2.3-1.1v-2.3c-2.8,0.3-3.7,1-3.7,2.1C246.7,59.9,247.3,60.3,248.1,60.3z"/>
		<path id="XMLID_1388_" class="st1" d="M254.4,53h1.2l0.1,1.5h0.1c0.6-1,1.4-1.7,2.3-1.7c0.4,0,0.6,0.1,0.9,0.2l-0.3,1.2
			c-0.3-0.1-0.5-0.1-0.8-0.1c-0.7,0-1.5,0.5-2.1,1.9v5.3h-1.4L254.4,53L254.4,53z"/>
		<path id="XMLID_1386_" class="st1" d="M260.3,49.1h1.4v10.5c0,0.4,0.2,0.6,0.4,0.6c0.1,0,0.2,0,0.3,0l0.2,1.1
			c-0.2,0.1-0.4,0.1-0.8,0.1c-1.1,0-1.5-0.7-1.5-1.9V49.1z"/>
		<path id="XMLID_1384_" class="st1" d="M264.7,63.6c0.9,0,1.5-0.7,1.9-1.8l0.2-0.6l-3.3-8.3h1.4l1.7,4.6c0.3,0.7,0.5,1.6,0.8,2.3
			h0.1c0.2-0.7,0.5-1.6,0.7-2.3l1.5-4.6h1.4l-3.1,8.9c-0.6,1.6-1.4,2.9-3.1,2.9c-0.4,0-0.7-0.1-1-0.2l0.3-1.1
			C264.3,63.5,264.5,63.6,264.7,63.6z"/>
		<path id="XMLID_1382_" class="st1" d="M278.5,51.3h-3.4v-1.2h8.2v1.2h-3.4v10h-1.4L278.5,51.3L278.5,51.3z"/>
		<path id="XMLID_1380_" class="st1" d="M285.1,50.1h1.4V60h4.9v1.2h-6.3V50.1z"/>
		<path id="XMLID_1378_" class="st1" d="M293.4,58.8c0.8,0.8,1.9,1.4,3.1,1.4c1.5,0,2.3-0.7,2.3-1.8s-0.8-1.5-1.9-2l-1.6-0.7
			c-1-0.4-2.3-1.2-2.3-2.9s1.5-3,3.5-3c1.3,0,2.5,0.6,3.3,1.4l-0.7,0.9c-0.7-0.6-1.5-1.1-2.5-1.1c-1.3,0-2.1,0.6-2.1,1.6
			c0,1.1,1,1.5,1.9,1.9l1.6,0.7c1.3,0.6,2.3,1.3,2.3,3c0,1.8-1.5,3.2-3.8,3.2c-1.6,0-2.9-0.6-3.9-1.6L293.4,58.8z"/>
		<path id="XMLID_1375_" class="st1" d="M238.7,78.9v2.8h-1.4V70h1.2l0.1,1h0.1c0.7-0.6,1.7-1.2,2.6-1.2c2.1,0,3.3,1.6,3.3,4.2
			c0,2.8-1.7,4.5-3.6,4.5c-0.8,0-1.5-0.4-2.3-1L238.7,78.9z M240.7,77.3c1.4,0,2.4-1.2,2.4-3.3c0-1.8-0.6-3-2.2-3
			c-0.7,0-1.4,0.4-2.2,1.1v4.3C239.4,77,240.2,77.3,240.7,77.3z"/>
		<path id="XMLID_1373_" class="st1" d="M246.7,66.1h1.4v10.5c0,0.4,0.2,0.6,0.4,0.6c0.1,0,0.2,0,0.3,0l0.2,1.1
			c-0.2,0.1-0.4,0.1-0.8,0.1c-1.1,0-1.5-0.7-1.5-1.9L246.7,66.1L246.7,66.1z"/>
		<path id="XMLID_1370_" class="st1" d="M255.7,73c0-1.1-0.4-2.1-1.7-2.1c-1,0-1.8,0.4-2.5,0.9l-0.6-1c0.8-0.5,1.9-1.1,3.2-1.1
			c2,0,2.9,1.3,2.9,3.4v5.1h-1l-0.1-1l0,0c-0.8,0.6-1.7,1.2-2.7,1.2c-1.4,0-2.4-0.9-2.4-2.3C250.7,74.3,252.2,73.4,255.7,73z
			 M253.5,77.3c0.8,0,1.5-0.4,2.3-1.1v-2.3c-2.8,0.3-3.7,1-3.7,2.1C252,76.9,252.7,77.3,253.5,77.3z"/>
		<path id="XMLID_1367_" class="st1" d="M259.5,67.4c0-0.5,0.4-0.9,1-0.9s1,0.4,1,0.9s-0.4,0.9-1,0.9S259.5,67.9,259.5,67.4z
			 M259.8,70h1.4v8.3h-1.4V70z"/>
		<path id="XMLID_1365_" class="st1" d="M264,70h1.2l0.1,1.2h0.1c0.8-0.8,1.6-1.4,2.8-1.4c1.7,0,2.5,1.1,2.5,3.2v5.2h-1.4v-5
			c0-1.5-0.5-2.2-1.6-2.2c-0.8,0-1.4,0.4-2.3,1.3v6H264V70z"/>
		<path id="XMLID_1363_" class="st1" d="M276.9,71.1h-1.2V70h1.3l0.2-2.3h1.2V70h2.2v1.1h-2.2v4.6c0,1,0.3,1.6,1.3,1.6
			c0.3,0,0.7-0.1,0.9-0.2l0.3,1.1c-0.5,0.2-1,0.3-1.5,0.3c-1.8,0-2.4-1.1-2.4-2.8v-4.6H276.9z"/>
		<path id="XMLID_1360_" class="st1" d="M285.5,69.8c2.1,0,3.3,1.5,3.3,3.9c0,0.3,0,0.6-0.1,0.8h-5.6c0.1,1.8,1.2,2.9,2.8,2.9
			c0.8,0,1.4-0.3,2.1-0.6l0.5,0.9c-0.7,0.5-1.6,0.8-2.7,0.8c-2.2,0-4-1.6-4-4.3C281.8,71.4,283.6,69.8,285.5,69.8z M287.6,73.5
			c0-1.7-0.7-2.6-2-2.6c-1.2,0-2.2,1-2.4,2.6H287.6z"/>
		<path id="XMLID_1358_" class="st1" d="M292.4,73.9l-2.5-3.9h1.5l1.1,1.8c0.3,0.4,0.5,0.9,0.8,1.4h0.1c0.2-0.5,0.5-0.9,0.7-1.4
			l1-1.8h1.5l-2.5,4.1l2.7,4.2h-1.5l-1.2-1.9c-0.3-0.5-0.6-1-0.9-1.5h-0.1c-0.3,0.5-0.6,1-0.8,1.5l-1.1,1.9h-1.5L292.4,73.9z"/>
		<path id="XMLID_1356_" class="st1" d="M298.7,71.1h-1.2V70l1.3-0.1l0.2-2.3h1.2V70h2.2v1.1h-2.2v4.6c0,1,0.3,1.6,1.3,1.6
			c0.3,0,0.7-0.1,0.9-0.2l0.3,1.1c-0.5,0.2-1,0.3-1.5,0.3c-1.8,0-2.4-1.1-2.4-2.8L298.7,71.1L298.7,71.1z"/>
		<path id="XMLID_1354_" class="st1" d="M237.3,161.1h1.4v10.5c0,0.4,0.2,0.6,0.4,0.6c0.1,0,0.2,0,0.3,0l0.2,1.1
			c-0.2,0.1-0.4,0.1-0.8,0.1c-1.1,0-1.5-0.7-1.5-1.9L237.3,161.1L237.3,161.1z"/>
		<path id="XMLID_1351_" class="st1" d="M244.7,164.8c2.1,0,3.3,1.5,3.3,3.9c0,0.3,0,0.6-0.1,0.8h-5.6c0.1,1.8,1.2,2.9,2.8,2.9
			c0.8,0,1.4-0.3,2.1-0.6l0.5,0.9c-0.7,0.5-1.6,0.8-2.7,0.8c-2.2,0-4-1.6-4-4.3C241,166.4,242.8,164.8,244.7,164.8z M246.8,168.5
			c0-1.7-0.7-2.6-2-2.6c-1.2,0-2.2,1-2.4,2.6H246.8z"/>
		<path id="XMLID_1347_" class="st1" d="M250.6,172.9L250.6,172.9c-0.4-0.3-0.7-0.8-0.7-1.4c0-0.7,0.5-1.2,0.9-1.5v-0.1
			c-0.5-0.4-1.1-1.2-1.1-2.2c0-1.8,1.4-2.9,3.1-2.9c0.5,0,0.9,0.1,1.2,0.2h2.9v1.1h-1.7c0.4,0.4,0.7,1,0.7,1.7c0,1.8-1.3,2.9-3,2.9
			c-0.4,0-0.9-0.1-1.2-0.3c-0.3,0.3-0.5,0.5-0.5,1s0.3,0.9,1.5,0.9h1.6c1.9,0,2.9,0.6,2.9,2c0,1.5-1.6,2.9-4.2,2.9
			c-2,0-3.4-0.8-3.4-2.2C249.4,174.1,249.9,173.4,250.6,172.9z M253.1,176.1c1.6,0,2.6-0.8,2.6-1.7c0-0.8-0.6-1-1.7-1h-1.4
			c-0.3,0-0.7,0-1.1-0.1c-0.6,0.4-0.9,0.9-0.9,1.4C250.7,175.5,251.6,176.1,253.1,176.1z M254.6,167.7c0-1.2-0.8-1.9-1.8-1.9
			s-1.8,0.7-1.8,1.9s0.8,2,1.8,2S254.6,168.9,254.6,167.7z"/>
		<path id="XMLID_1344_" class="st1" d="M263.3,168c0-1.1-0.4-2.1-1.7-2.1c-1,0-1.8,0.4-2.5,0.9l-0.6-1c0.8-0.5,1.9-1.1,3.2-1.1
			c2,0,2.9,1.3,2.9,3.4v5.1h-1.2l-0.1-1l0,0c-0.8,0.6-1.7,1.2-2.7,1.2c-1.4,0-2.4-0.9-2.4-2.3C258.2,169.3,259.8,168.4,263.3,168z
			 M261,172.3c0.8,0,1.5-0.4,2.3-1.1v-2.3c-2.8,0.3-3.7,1-3.7,2.1C259.6,171.9,260.2,172.3,261,172.3z"/>
		<path id="XMLID_1342_" class="st1" d="M270.7,164.8c1.1,0,1.9,0.5,2.4,1l-0.7,0.9c-0.5-0.4-1-0.7-1.7-0.7c-1.5,0-2.6,1.3-2.6,3.2
			s1,3.2,2.5,3.2c0.8,0,1.4-0.4,1.9-0.8l0.6,0.9c-0.7,0.7-1.7,1.1-2.7,1.1c-2.2,0-3.9-1.6-3.9-4.3
			C266.7,166.3,268.6,164.8,270.7,164.8z"/>
		<path id="XMLID_1340_" class="st1" d="M275.2,175.6c0.9,0,1.5-0.7,1.9-1.8l0.2-0.6l-3.3-8.3h1.4l1.7,4.6c0.3,0.7,0.5,1.6,0.8,2.3
			h0.1c0.2-0.7,0.5-1.6,0.7-2.3l1.5-4.6h1.4l-3.1,8.9c-0.6,1.6-1.4,2.9-3.1,2.9c-0.4,0-0.7-0.1-1-0.2l0.3-1.1
			C274.7,175.5,274.9,175.6,275.2,175.6z"/>
		<path id="XMLID_1338_" class="st1" d="M286.6,170.8c0.8,0.8,1.9,1.4,3.1,1.4c1.5,0,2.3-0.7,2.3-1.8s-0.8-1.5-1.9-2l-1.6-0.7
			c-1-0.4-2.3-1.2-2.3-2.9s1.5-3,3.5-3c1.3,0,2.5,0.6,3.3,1.4l-0.7,0.9c-0.7-0.6-1.5-1.1-2.5-1.1c-1.3,0-2.1,0.6-2.1,1.6
			c0,1.1,1,1.5,1.9,1.9l1.6,0.7c1.3,0.6,2.3,1.3,2.3,3c0,1.8-1.5,3.2-3.8,3.2c-1.6,0-2.9-0.6-3.9-1.6L286.6,170.8z"/>
		<path id="XMLID_1336_" class="st1" d="M295.6,170.8c0.8,0.8,1.9,1.4,3.1,1.4c1.5,0,2.3-0.7,2.3-1.8s-0.8-1.5-1.9-2l-1.6-0.7
			c-1-0.4-2.3-1.2-2.3-2.9s1.5-3,3.5-3c1.3,0,2.5,0.6,3.3,1.4l-0.7,0.9c-0.7-0.6-1.5-1.1-2.5-1.1c-1.3,0-2.1,0.6-2.1,1.6
			c0,1.1,1,1.5,1.9,1.9l1.6,0.7c1.3,0.6,2.3,1.3,2.3,3c0,1.8-1.5,3.2-3.8,3.2c-1.6,0-2.9-0.6-3.9-1.6L295.6,170.8z"/>
		<path id="XMLID_1334_" class="st1" d="M304.5,162.1h1.4v9.9h4.9v1.2h-6.3V162.1z"/>
		<path id="XMLID_1332_" class="st1" d="M239.7,180.3h-3.4v-1.2h8.2v1.2h-3.4v10h-1.4L239.7,180.3L239.7,180.3z"/>
		<path id="XMLID_1330_" class="st1" d="M246.4,179.1h1.4v9.9h4.9v1.2h-6.3L246.4,179.1L246.4,179.1z"/>
		<path id="XMLID_1328_" class="st1" d="M254.6,187.8c0.8,0.8,1.9,1.4,3.1,1.4c1.5,0,2.3-0.7,2.3-1.8s-0.8-1.5-1.9-2l-1.6-0.7
			c-1-0.4-2.3-1.2-2.3-2.9s1.5-3,3.5-3c1.3,0,2.5,0.6,3.3,1.4l-0.7,0.9c-0.7-0.6-1.5-1.1-2.5-1.1c-1.3,0-2.1,0.6-2.1,1.6
			c0,1.1,1,1.5,1.9,1.9l1.6,0.7c1.3,0.6,2.3,1.3,2.3,3c0,1.8-1.5,3.2-3.8,3.2c-1.6,0-2.9-0.6-3.9-1.6L254.6,187.8z"/>
		<path id="XMLID_1326_" class="st1" d="M266.9,189.1h2.5v-8h-2v-0.9c1-0.2,1.7-0.4,2.3-0.8h1.1v9.7h2.2v1.2h-6.1V189.1z"/>
		<path id="XMLID_1324_" class="st1" d="M276.1,188.3c0.5,0,1,0.4,1,1.1c0,0.6-0.5,1.1-1,1.1c-0.6,0-1-0.4-1-1.1
			S275.5,188.3,276.1,188.3z"/>
		<path id="XMLID_1322_" class="st1" d="M279.4,188c0.6,0.7,1.5,1.3,2.8,1.3s2.2-0.8,2.2-2c0-1.3-0.9-2.2-3.5-2.2V184
			c2.3,0,3.1-0.9,3.1-2s-0.7-1.7-1.9-1.7c-0.9,0-1.7,0.5-2.3,1.1l-0.7-0.9c0.8-0.8,1.8-1.4,3.1-1.4c1.9,0,3.2,1,3.2,2.8
			c0,1.3-0.8,2.1-2,2.6v0.1c1.3,0.3,2.3,1.3,2.3,2.8c0,1.9-1.6,3.1-3.6,3.1c-1.7,0-2.8-0.7-3.6-1.5L279.4,188z"/>
		<path id="XMLID_1319_" class="st1" d="M240.5,198.8c2,0,3.8,1.6,3.8,4.4c0,2.7-1.8,4.3-3.8,4.3s-3.8-1.6-3.8-4.3
			C236.7,200.3,238.5,198.8,240.5,198.8z M240.5,206.3c1.4,0,2.4-1.3,2.4-3.2s-1-3.2-2.4-3.2s-2.4,1.3-2.4,3.2
			S239.1,206.3,240.5,206.3z"/>
		<path id="XMLID_1316_" class="st1" d="M247.9,207.9v2.8h-1.4V199h1.2l0.1,1h0.1c0.7-0.6,1.7-1.2,2.6-1.2c2.1,0,3.3,1.6,3.3,4.2
			c0,2.8-1.7,4.5-3.6,4.5c-0.8,0-1.5-0.4-2.3-1L247.9,207.9z M249.9,206.3c1.4,0,2.4-1.2,2.4-3.3c0-1.8-0.6-3-2.2-3
			c-0.7,0-1.4,0.4-2.2,1.1v4.3C248.7,206,249.4,206.3,249.9,206.3z"/>
		<path id="XMLID_1313_" class="st1" d="M257.3,207.9v2.8h-1.4V199h1.2l0.1,1h0.1c0.7-0.6,1.7-1.2,2.6-1.2c2.1,0,3.3,1.6,3.3,4.2
			c0,2.8-1.7,4.5-3.6,4.5c-0.8,0-1.5-0.4-2.3-1L257.3,207.9z M259.4,206.3c1.4,0,2.4-1.2,2.4-3.3c0-1.8-0.6-3-2.2-3
			c-0.7,0-1.4,0.4-2.2,1.1v4.3C258.1,206,258.8,206.3,259.4,206.3z"/>
		<path id="XMLID_1310_" class="st1" d="M268.6,198.8c2,0,3.8,1.6,3.8,4.4c0,2.7-1.8,4.3-3.8,4.3s-3.8-1.6-3.8-4.3
			C264.8,200.3,266.6,198.8,268.6,198.8z M268.6,206.3c1.4,0,2.4-1.3,2.4-3.2s-1-3.2-2.4-3.2s-2.4,1.3-2.4,3.2
			S267.2,206.3,268.6,206.3z"/>
		<path id="XMLID_1308_" class="st1" d="M274.6,199h1.2l0.1,1.5h0.1c0.6-1,1.4-1.7,2.3-1.7c0.4,0,0.6,0.1,0.9,0.2l-0.3,1.2
			c-0.3-0.1-0.5-0.1-0.8-0.1c-0.7,0-1.5,0.5-2.1,1.9v5.3h-1.4L274.6,199L274.6,199z"/>
		<path id="XMLID_1306_" class="st1" d="M280.7,200.1h-1.2V199l1.3-0.1l0.2-2.3h1.2v2.3h2.2v1.1h-2.2v4.6c0,1,0.3,1.6,1.3,1.6
			c0.3,0,0.7-0.1,0.9-0.2l0.3,1.1c-0.5,0.2-1,0.3-1.5,0.3c-1.8,0-2.4-1.1-2.4-2.8L280.7,200.1L280.7,200.1z"/>
		<path id="XMLID_1304_" class="st1" d="M286.1,199h1.4v5c0,1.5,0.5,2.2,1.5,2.2c0.9,0,1.4-0.4,2.2-1.4V199h1.4v8.3h-1.2l-0.1-1.3
			h-0.1c-0.8,0.9-1.6,1.5-2.7,1.5c-1.8,0-2.5-1.1-2.5-3.2V199H286.1z"/>
		<path id="XMLID_1302_" class="st1" d="M295.5,199h1.2l0.1,1.2h0.1c0.8-0.8,1.6-1.4,2.8-1.4c1.7,0,2.5,1.1,2.5,3.2v5.2h-1.4v-5
			c0-1.5-0.5-2.2-1.6-2.2c-0.8,0-1.4,0.4-2.3,1.3v6h-1.4L295.5,199L295.5,199z"/>
		<path id="XMLID_1299_" class="st1" d="M304.5,196.4c0-0.5,0.4-0.9,1-0.9s1,0.4,1,0.9s-0.4,0.9-1,0.9S304.5,196.9,304.5,196.4z
			 M304.8,199h1.4v8.3h-1.4V199z"/>
		<path id="XMLID_1297_" class="st1" d="M308.7,205.4c0.7,0.6,1.4,1,2.4,1c1.1,0,1.6-0.6,1.6-1.3c0-0.8-1-1.2-1.9-1.6
			c-1.2-0.4-2.5-1-2.5-2.4c0-1.3,1.1-2.3,2.8-2.3c1,0,1.9,0.4,2.6,0.9l-0.7,0.9c-0.6-0.4-1.2-0.7-1.9-0.7c-1,0-1.5,0.6-1.5,1.2
			c0,0.8,0.9,1.1,1.8,1.4c1.2,0.4,2.5,0.9,2.5,2.5c0,1.3-1.1,2.5-3,2.5c-1.2,0-2.3-0.5-3.1-1.1L308.7,205.4z"/>
		<path id="XMLID_1295_" class="st1" d="M316.3,200.1h-1.2V199l1.3-0.1l0.2-2.3h1.2v2.3h2.2v1.1h-2.2v4.6c0,1,0.3,1.6,1.3,1.6
			c0.3,0,0.7-0.1,0.9-0.2l0.3,1.1c-0.5,0.2-1,0.3-1.5,0.3c-1.8,0-2.4-1.1-2.4-2.8L316.3,200.1L316.3,200.1z"/>
		<path id="XMLID_1292_" class="st1" d="M321.6,196.4c0-0.5,0.4-0.9,1-0.9s1,0.4,1,0.9s-0.4,0.9-1,0.9S321.6,196.9,321.6,196.4z
			 M321.8,199h1.4v8.3h-1.4V199z"/>
		<path id="XMLID_1290_" class="st1" d="M329.4,198.8c1.1,0,1.9,0.5,2.4,1l-0.7,0.9c-0.5-0.4-1-0.7-1.7-0.7c-1.5,0-2.6,1.3-2.6,3.2
			s1,3.2,2.5,3.2c0.8,0,1.4-0.4,1.9-0.8l0.6,0.9c-0.7,0.7-1.7,1.1-2.7,1.1c-2.2,0-3.9-1.6-3.9-4.3
			C325.4,200.3,327.3,198.8,329.4,198.8z"/>
		<path id="XMLID_1288_" class="st1" d="M339.6,197.3h-3.4v-1.2h8.2v1.2H341v10h-1.4V197.3z"/>
		<path id="XMLID_1286_" class="st1" d="M346.3,196.1h1.4v9.9h4.9v1.2h-6.3V196.1z"/>
		<path id="XMLID_1284_" class="st1" d="M354.5,204.8c0.8,0.8,1.9,1.4,3.1,1.4c1.5,0,2.3-0.7,2.3-1.8s-0.8-1.5-1.9-2l-1.6-0.7
			c-1-0.4-2.3-1.2-2.3-2.9s1.5-3,3.5-3c1.3,0,2.5,0.6,3.3,1.4l-0.7,0.9c-0.7-0.6-1.5-1.1-2.5-1.1c-1.3,0-2.1,0.6-2.1,1.6
			c0,1.1,1,1.5,1.9,1.9l1.6,0.7c1.3,0.6,2.3,1.3,2.3,3c0,1.8-1.5,3.2-3.8,3.2c-1.6,0-2.9-0.6-3.9-1.6L354.5,204.8z"/>
	</g>
</g>
<g id="XMLID_2_">
	<ellipse id="XMLID_794_" class="st3" cx="252.5" cy="122.7" rx="8.6" ry="29.5"/>
	<g id="XMLID_748_">
		<path id="XMLID_793_" class="st3" d="M252.5,152.1L252.5,152.1L252.5,152.1z"/>
		<path id="XMLID_776_" class="st3" d="M252.5,152.1h101.7c4.8,0,8.6-13.2,8.6-29.5s-3.9-29.5-8.6-29.5H252.5"/>
		<path id="XMLID_751_" class="st3" d="M252.5,93.2c4.8,0,8.6,13.2,8.6,29.5s-3.9,29.5-8.6,29.5"/>
		<path id="XMLID_749_" class="st3" d="M252.5,93.2L252.5,93.2L252.5,93.2z"/>
	</g>
	<ellipse id="XMLID_734_" class="st3" cx="252.5" cy="122.7" rx="5.8" ry="22.1"/>
</g>
<line id="XMLID_687_" class="st4" x1="362.8" y1="122.7" x2="433.1" y2="122.7"/>
<line id="XMLID_808_" class="st4" x1="187.3" y1="122.7" x2="258.3" y2="122.7"/>
<line id="XMLID_806_" class="st4" x1="507.5" y1="122.7" x2="582.2" y2="122.7"/>
<g id="Cloud_13_">
	<g id="XMLID_686_">
		<path id="XMLID_731_" class="st5" d="M818.8,67.8l-5-2.8l-0.7-0.4c-7.1-3.1-15.4-0.6-21.7,3.1c-16.2,9.5-29,30-32.1,48.3
			c-0.2,1.3-0.4,2.5-0.5,3.8"/>
		<path id="XMLID_730_" class="st5" d="M758.8,119.9l-1.1,0.8c-9,7.1-16.1,19.3-18.1,30.5c-1.1,5.9-1.1,13.4,2.7,18.3
			c0.9,1.3,2,2.2,3.4,3.1l23.9,13.7l0,0"/>
		<path id="XMLID_729_" class="st5" d="M883.9,81.9L860,68.2l-0.7-0.4c-2.2-0.9-4.8-1.1-7.2-0.6l-1.1,0.2l-10.4-6l-0.6-0.2
			c-1.4-0.6-3-0.9-4.5-0.9c-6.1-0.1-12.2,3.7-16.7,7.6"/>
		<path id="XMLID_702_" class="st5" d="M868.2,137.3c12.8-7.3,23.2-25.3,23.3-40.1c0-13.7-9-20-20.7-14.7
			c-3.1-8.7-11.7-11.2-21.9-5.4c-2.2,1.4-4.5,3.1-6.6,5c-6-6.4-15.8-7.1-26.9-0.6c-16.8,9.7-30.6,32.1-32.7,52.1
			c-11.2,8.3-19.7,24.3-19.7,37.7c0,14.8,10.4,20.7,23.2,13.4L868.2,137.3"/>
		<line id="XMLID_701_" class="st5" x1="758.7" y1="119.8" x2="782.6" y2="133.5"/>
		<line id="XMLID_698_" class="st5" x1="818.9" y1="67.8" x2="842.5" y2="81.5"/>
		<line id="XMLID_697_" class="st5" x1="851" y1="67.3" x2="864.5" y2="75.3"/>
	</g>
</g>
<g id="PNS_11_">
	<path id="XMLID_805_" class="st6" d="M437.9,93.2l-11.6,13.7l23.3,54.4l23.2,13.4l-23.2-54.4l23.2,13.4l-6.2,7.4l11.7,27.2
		l17.8-21.1l-11.6-27.1l-16.6-9.6l-6.6-3.8l-3.9-9.1l-15.5-9L437.9,93.2z"/>
	<path id="XMLID_802_" class="st6" d="M478.2,168.3l17.5-10.4l17.8-21.1l-4.2-9.9l-7.4-17.2l-23.3-13.5l-3.9-9.1l-15.5-9l-17.5,10.4
		 M490.1,161.3l1.3,2.8l-18.7,10.8"/>
	<line id="XMLID_801_" class="st6" x1="457.4" y1="97.6" x2="474.9" y2="87.1"/>
	<line id="XMLID_800_" class="st6" x1="461.2" y1="106.6" x2="478.7" y2="96.2"/>
	<line id="XMLID_796_" class="st6" x1="484.4" y1="120" x2="502" y2="109.7"/>
</g>
<g id="XMLID_127_" class="st7">
	<g id="XMLID_62_">
		<line id="XMLID_67_" class="st8" x1="585.1" y1="122.7" x2="589.4" y2="122.7"/>
		<line id="XMLID_66_" class="st9" x1="597.6" y1="122.7" x2="675.5" y2="122.7"/>
		<line id="XMLID_65_" class="st8" x1="679.6" y1="122.7" x2="683.9" y2="122.7"/>
	</g>
</g>
<g id="XMLID_121_" class="st7">
	<g id="XMLID_58_">
		<line id="XMLID_64_" class="st8" x1="261.1" y1="122.7" x2="265.5" y2="122.7"/>
		<line id="XMLID_63_" class="st10" x1="273.7" y1="122.7" x2="352" y2="122.7"/>
		<line id="XMLID_60_" class="st8" x1="356.2" y1="122.7" x2="360.5" y2="122.7"/>
	</g>
</g>
<g id="XMLID_11_">
	<g id="XMLID_781_">
		<path id="XMLID_846_" class="st1" d="M38.7,113.3h1.5l1.2,6.1c0.2,1.2,0.4,2.4,0.7,3.6h0.1c0.2-1.2,0.5-2.4,0.8-3.6l1.5-6.1h1.3
			l1.5,6.1c0.3,1.2,0.5,2.4,0.8,3.6h0.1c0.2-1.2,0.4-2.4,0.6-3.6l1.2-6.1h1.4L49,124.5h-1.7l-1.7-6.7c-0.2-0.9-0.4-1.7-0.5-2.5H45
			c-0.2,0.9-0.4,1.7-0.6,2.5l-1.7,6.7H41L38.7,113.3z"/>
		<path id="XMLID_843_" class="st1" d="M56.1,116c2.1,0,3.3,1.5,3.3,3.9c0,0.3,0,0.6-0.1,0.8h-5.6c0.1,1.8,1.2,2.9,2.8,2.9
			c0.8,0,1.4-0.3,2.1-0.6l0.5,0.9c-0.7,0.5-1.6,0.9-2.7,0.9c-2.2,0-4-1.6-4-4.3C52.4,117.7,54.2,116,56.1,116z M58.2,119.8
			c0-1.7-0.7-2.6-2-2.6c-1.2,0-2.2,1-2.4,2.6H58.2z"/>
		<path id="XMLID_840_" class="st1" d="M61.5,112.4h1.4v3.3v1.5c0.7-0.7,1.7-1.2,2.6-1.2c2.1,0,3.3,1.6,3.3,4.2
			c0,2.8-1.7,4.5-3.6,4.5c-0.8,0-1.6-0.4-2.4-1h-0.1l-0.1,0.8h-1.1C61.5,124.5,61.5,112.4,61.5,112.4z M64.9,123.5
			c1.4,0,2.4-1.2,2.4-3.3c0-1.8-0.6-3-2.2-3c-0.7,0-1.4,0.4-2.2,1.1v4.3C63.6,123.3,64.3,123.5,64.9,123.5z"/>
		<path id="XMLID_838_" class="st1" d="M70.7,122.6c0.7,0.6,1.4,1,2.4,1c1.1,0,1.6-0.6,1.6-1.3c0-0.9-1-1.2-1.9-1.6
			c-1.2-0.4-2.5-1-2.5-2.4c0-1.3,1.1-2.3,2.8-2.3c1,0,1.9,0.4,2.6,0.9l-0.7,0.9c-0.6-0.4-1.2-0.7-1.9-0.7c-1,0-1.5,0.6-1.5,1.2
			c0,0.8,0.9,1.1,1.8,1.4c1.2,0.4,2.5,0.9,2.5,2.5c0,1.3-1.1,2.5-3,2.5c-1.2,0-2.3-0.5-3.1-1.1L70.7,122.6z"/>
		<path id="XMLID_835_" class="st1" d="M81.1,116c2.1,0,3.3,1.5,3.3,3.9c0,0.3,0,0.6-0.1,0.8h-5.6c0.1,1.8,1.2,2.9,2.8,2.9
			c0.8,0,1.4-0.3,2.1-0.6l0.5,0.9c-0.7,0.5-1.6,0.9-2.7,0.9c-2.2,0-4-1.6-4-4.3C77.4,117.7,79.2,116,81.1,116z M83.2,119.8
			c0-1.7-0.7-2.6-2-2.6c-1.2,0-2.2,1-2.4,2.6H83.2z"/>
		<path id="XMLID_833_" class="st1" d="M86.4,116.2h1.2l0.1,1.5h0.1c0.6-1,1.4-1.7,2.3-1.7c0.4,0,0.6,0.1,0.9,0.2l-0.3,1.2
			c-0.3-0.1-0.5-0.1-0.8-0.1c-0.7,0-1.5,0.5-2.1,1.9v5.3h-1.4C86.4,124.5,86.4,116.2,86.4,116.2z"/>
		<path id="XMLID_831_" class="st1" d="M91.2,116.2h1.4l1.6,4.7c0.2,0.8,0.5,1.6,0.8,2.4l0,0c0.2-0.8,0.5-1.6,0.7-2.4l1.6-4.7h1.4
			l-2.9,8.3h-1.6L91.2,116.2z"/>
		<path id="XMLID_828_" class="st1" d="M103.4,116c2.1,0,3.3,1.5,3.3,3.9c0,0.3,0,0.6-0.1,0.8H101c0.1,1.8,1.2,2.9,2.8,2.9
			c0.8,0,1.4-0.3,2.1-0.6l0.5,0.9c-0.7,0.5-1.6,0.9-2.7,0.9c-2.2,0-4-1.6-4-4.3C99.7,117.7,101.5,116,103.4,116z M105.4,119.8
			c0-1.7-0.7-2.6-2-2.6c-1.2,0-2.2,1-2.4,2.6H105.4z"/>
		<path id="XMLID_826_" class="st1" d="M108.7,116.2h1.2l0.1,1.5h0.1c0.6-1,1.4-1.7,2.3-1.7c0.4,0,0.6,0.1,0.9,0.2l-0.3,1.2
			c-0.3-0.1-0.5-0.1-0.8-0.1c-0.7,0-1.5,0.5-2.1,1.9v5.3h-1.4C108.7,124.5,108.7,116.2,108.7,116.2z"/>
		<path id="XMLID_824_" class="st1" d="M114,126.6c1-0.4,1.5-1.2,1.5-2.1c-0.1,0-0.1,0-0.2,0c-0.5,0-1-0.3-1-1c0-0.6,0.5-1,1-1
			c0.7,0,1.2,0.6,1.2,1.6c0,1.5-0.8,2.6-2.2,3.2L114,126.6z"/>
		<path id="XMLID_822_" class="st1" d="M39.8,130.3h1.7l2.2,6l0.8,2.3h0.1l0.8-2.3l2.1-6h1.7v11.2h-1.3v-6.1c0-1,0.1-2.3,0.2-3.3H48
			l-0.9,2.5l-2.1,5.8h-0.8l-2.1-5.8l-0.9-2.5H41c0.1,1,0.2,2.3,0.2,3.3v6.1h-1.3v-11.2H39.8z"/>
		<path id="XMLID_819_" class="st1" d="M56.7,136.3c0-1.1-0.4-2.1-1.7-2.1c-1,0-1.8,0.4-2.5,0.9l-0.6-1c0.8-0.5,1.9-1.1,3.2-1.1
			c2,0,2.9,1.3,2.9,3.4v5.1h-1.2l-0.1-1l0,0c-0.8,0.6-1.7,1.2-2.7,1.2c-1.4,0-2.4-0.9-2.4-2.3C51.6,137.6,53.2,136.7,56.7,136.3z
			 M54.4,140.6c0.8,0,1.5-0.4,2.3-1.1v-2.3c-2.8,0.3-3.7,1-3.7,2.1C53,140.2,53.6,140.6,54.4,140.6z"/>
		<path id="XMLID_816_" class="st1" d="M60.5,130.6c0-0.5,0.4-0.9,1-0.9s1,0.4,1,0.9s-0.4,0.9-1,0.9S60.5,131.2,60.5,130.6z
			 M60.7,133.2h1.4v8.3h-1.4V133.2z"/>
		<path id="XMLID_814_" class="st1" d="M64.9,129.4h1.4v10.5c0,0.4,0.2,0.6,0.4,0.6c0.1,0,0.2,0,0.3,0l0.2,1.1
			c-0.2,0.1-0.4,0.1-0.8,0.1c-1.1,0-1.5-0.7-1.5-1.9V129.4z"/>
		<path id="XMLID_812_" class="st1" d="M72.5,139.6c0.7,0.6,1.4,1,2.4,1c1.1,0,1.6-0.6,1.6-1.3c0-0.9-1-1.2-1.9-1.6
			c-1.2-0.4-2.5-1-2.5-2.4c0-1.3,1.1-2.3,2.8-2.3c1,0,1.9,0.4,2.6,0.9l-0.7,0.9c-0.6-0.4-1.2-0.7-1.9-0.7c-1,0-1.5,0.6-1.5,1.2
			c0,0.8,0.9,1.1,1.8,1.4c1.2,0.4,2.5,0.9,2.5,2.5c0,1.3-1.1,2.5-3,2.5c-1.2,0-2.3-0.5-3.1-1.1L72.5,139.6z"/>
		<path id="XMLID_809_" class="st1" d="M82.9,133c2.1,0,3.3,1.5,3.3,3.9c0,0.3,0,0.6-0.1,0.8h-5.6c0.1,1.8,1.2,2.9,2.8,2.9
			c0.8,0,1.4-0.3,2.1-0.6l0.5,0.9c-0.7,0.5-1.6,0.9-2.7,0.9c-2.2,0-4-1.6-4-4.3C79.2,134.7,81,133,82.9,133z M85,136.8
			c0-1.7-0.7-2.6-2-2.6c-1.2,0-2.2,1-2.4,2.6H85z"/>
		<path id="XMLID_799_" class="st1" d="M88.2,133.2h1.2l0.1,1.5h0.1c0.6-1,1.4-1.7,2.3-1.7c0.4,0,0.6,0.1,0.9,0.2l-0.3,1.2
			c-0.3-0.1-0.5-0.1-0.8-0.1c-0.7,0-1.5,0.5-2.1,1.9v5.3h-1.4C88.2,141.5,88.2,133.2,88.2,133.2z"/>
		<path id="XMLID_797_" class="st1" d="M92.9,133.2h1.4l1.6,4.7c0.2,0.8,0.5,1.6,0.8,2.4h0.1c0.2-0.8,0.5-1.6,0.7-2.4l1.6-4.7h1.4
			l-2.9,8.3H96L92.9,133.2z"/>
		<path id="XMLID_791_" class="st1" d="M105.2,133c2.1,0,3.3,1.5,3.3,3.9c0,0.3,0,0.6-0.1,0.8h-5.6c0.1,1.8,1.2,2.9,2.8,2.9
			c0.8,0,1.4-0.3,2.1-0.6l0.5,0.9c-0.7,0.5-1.6,0.9-2.7,0.9c-2.2,0-4-1.6-4-4.3C101.5,134.7,103.3,133,105.2,133z M107.2,136.8
			c0-1.7-0.7-2.6-2-2.6c-1.2,0-2.2,1-2.4,2.6H107.2z"/>
		<path id="XMLID_786_" class="st1" d="M110.5,133.2h1.2l0.1,1.5h0.1c0.6-1,1.4-1.7,2.3-1.7c0.4,0,0.6,0.1,0.9,0.2l-0.3,1.2
			c-0.3-0.1-0.5-0.1-0.8-0.1c-0.7,0-1.5,0.5-2.1,1.9v5.3h-1.4C110.5,141.5,110.5,133.2,110.5,133.2z"/>
		<path id="XMLID_782_" class="st1" d="M116.2,139.6c0.7,0.6,1.4,1,2.4,1c1.1,0,1.6-0.6,1.6-1.3c0-0.9-1-1.2-1.9-1.6
			c-1.2-0.4-2.5-1-2.5-2.4c0-1.3,1.1-2.3,2.8-2.3c1,0,1.9,0.4,2.6,0.9l-0.7,0.9c-0.6-0.4-1.2-0.7-1.9-0.7c-1,0-1.5,0.6-1.5,1.2
			c0,0.8,0.9,1.1,1.8,1.4c1.2,0.4,2.5,0.9,2.5,2.5c0,1.3-1.1,2.5-3,2.5c-1.2,0-2.3-0.5-3.1-1.1L116.2,139.6z"/>
	</g>
</g>
<g id="XMLID_31_">
	<g id="Mail_5_">
		<path id="XMLID_85_" class="st3" d="M181.4,86.9C181.4,86.9,181.4,87,181.4,86.9c0.4,0.2,0.7,0.7,0.7,1.3 M182.1,90.9v19.3
			 M181.5,112.2c-0.4,0.7-0.9,1.2-1.5,1.6 M180,113.8L148.4,132 M146.8,132.1l-6.7-3.8 M139.6,127.1c0-7.3,0-14.7,0-22 M141.7,101.5
			l31.6-18.3 M173.3,83.3c0.5-0.3,0.9-0.4,1.4-0.2 M139.6,105v2.7 M141.7,101.5c-1.2,0.7-2,2.2-2.1,3.5 M139.6,105l6.7,3.9
			 M148.4,105.4L180,87.1 M180,87.1c0.4-0.2,0.9-0.4,1.3-0.2 M181.3,86.9L181.3,86.9 M146.3,111.6l-6.7-3.9 M139.6,107.7
			c0,6.5,0,12.9,0,19.4c0,0.5,0.1,0.9,0.6,1.2 M181.5,112.2c0.4-0.6,0.6-1.3,0.6-1.9 M171,107l-5.2,7.5 M164.2,116.1
			c-0.6,0.3-1.1,0.4-1.6,0.3 M146.3,130.9c0,0.6,0.3,1,0.6,1.2c0.4,0.2,0.9,0.2,1.5-0.1 M180,113.8c0.6-0.3,1.1-0.9,1.5-1.6
			 M146.3,111.6v16.7l0,0v2.7l11.1-16.1l-1.5-0.5L146.3,111.6L146.3,111.6z M182.1,90.9l-9.6,13.9L171,107l11.1,3.3 M146.3,108.9
			v2.7 M146.3,111.6c16.2,4.8,0.5,0.1,16.3,4.8c0.5,0.1,1,0,1.6-0.3s1.1-0.9,1.6-1.6 M182.1,88.2c0-0.6-0.3-1-0.6-1.2
			c-0.4-0.2-0.9-0.2-1.5,0.1 M182.1,90.9v-2.7l-16.8,24.4 M165.3,112.6c-0.3,0.5-0.7,0.8-1.1,1c-0.4,0.2-0.8,0.3-1.1,0.2
			 M163.1,113.9l-16.9-5v2.7 M140.1,103.4c-0.3,0.5-0.4,1.1-0.5,1.7 M146.3,108.9c0-0.6,0.2-1.1,0.5-1.7l0.2-0.3
			c0.4-0.6,0.9-1.2,1.5-1.6 M174.7,83.1l6.7,3.8"/>
	</g>
	<g id="XMLID_32_">
		<path id="XMLID_84_" class="st3" d="M197.9,129.9c0-0.5-0.1-0.9-0.4-1c-0.3-0.1-0.7-0.1-1.1,0.1"/>
		<path id="XMLID_83_" class="st3" d="M164.6,159.4c0,0.5,0.1,0.9,0.5,1c0.3,0.1,0.6,0.1,1.1-0.1"/>
		<polygon id="XMLID_82_" class="st3" points="193.2,140 196.1,138.3 196.1,135 193.2,136.7 		"/>
		<polygon id="XMLID_81_" class="st3" points="188.4,142.8 191.2,141.1 191.2,137.8 188.4,139.4 		"/>
		<line id="XMLID_80_" class="st3" x1="197.5" y1="128.8" x2="176" y2="116.4"/>
		<line id="XMLID_79_" class="st3" x1="139.5" y1="123" x2="132.7" y2="126.9"/>
		<path id="XMLID_78_" class="st3" d="M132.7,126.9c-0.6,0.3-0.8,0.7-1.1,1.2"/>
		<line id="XMLID_77_" class="st3" x1="131.5" y1="128.1" x2="165.1" y2="147.5"/>
		<path id="XMLID_76_" class="st3" d="M165.1,147.5c0.3-0.5,0.6-0.9,1.1-1.2"/>
		<line id="XMLID_75_" class="st3" x1="166.2" y1="146.3" x2="196.3" y2="128.9"/>
		<path id="XMLID_74_" class="st3" d="M165.1,147.5c-0.3,0.5-0.5,1.1-0.5,1.6"/>
		<line id="XMLID_73_" class="st3" x1="164.6" y1="149.1" x2="164.6" y2="159.4"/>
		<line id="XMLID_71_" class="st3" x1="166.2" y1="160.3" x2="196.3" y2="143"/>
		<path id="XMLID_69_" class="st3" d="M196.3,143c0.4-0.2,0.8-0.7,1.1-1.2"/>
		<path id="XMLID_59_" class="st3" d="M197.5,141.7c0.3-0.5,0.4-1.1,0.4-1.6"/>
		<line id="XMLID_57_" class="st3" x1="197.9" y1="140.1" x2="197.9" y2="129.9"/>
		<path id="XMLID_56_" class="st3" d="M131.5,128.1c-0.3,0.5-0.4,0.9-0.5,1.6"/>
		<line id="XMLID_37_" class="st3" x1="131" y1="129.7" x2="131" y2="140"/>
		<path id="XMLID_36_" class="st3" d="M131,140c0,0.4,0.1,0.8,0.5,1"/>
		<line id="XMLID_35_" class="st3" x1="131.5" y1="141" x2="165.1" y2="160.4"/>
		<path id="XMLID_34_" class="st3" d="M165.1,160.4c-0.4-0.2-0.5-0.6-0.5-1"/>
		<line id="XMLID_33_" class="st3" x1="167.5" y1="152.6" x2="185.6" y2="142.1"/>
	</g>
</g>
</svg>
