<svg width="772" height="426" viewBox="0 0 772 426" fill="none" xmlns="http://www.w3.org/2000/svg">
<path d="M611.881 325.517C611.139 325.517 610.44 325.391 609.782 325.14C609.125 324.877 608.545 324.494 608.043 323.992C607.553 323.489 607.164 322.867 606.877 322.126C606.59 321.372 606.447 320.505 606.447 319.524C606.447 318.555 606.596 317.694 606.895 316.94C607.194 316.174 607.595 315.528 608.097 315.002C608.599 314.476 609.185 314.075 609.854 313.8C610.524 313.525 611.229 313.387 611.97 313.387C612.724 313.387 613.399 313.543 613.997 313.854C614.595 314.153 615.091 314.506 615.485 314.912L614.086 316.599C613.788 316.324 613.471 316.103 613.136 315.935C612.813 315.756 612.443 315.666 612.024 315.666C611.63 315.666 611.253 315.756 610.894 315.935C610.548 316.103 610.243 316.348 609.98 316.671C609.729 316.994 609.525 317.389 609.37 317.855C609.226 318.322 609.155 318.848 609.155 319.434C609.155 320.642 609.412 321.581 609.926 322.251C610.44 322.909 611.127 323.238 611.988 323.238C612.466 323.238 612.891 323.136 613.262 322.933C613.644 322.718 613.979 322.455 614.266 322.143L615.665 323.794C614.684 324.943 613.423 325.517 611.881 325.517Z" fill="#6B9AC4"/>
<path d="M617.441 325.302V315.827H621.189C621.727 315.827 622.241 315.875 622.731 315.971C623.221 316.067 623.646 316.234 624.004 316.473C624.375 316.713 624.668 317.03 624.883 317.424C625.098 317.819 625.206 318.316 625.206 318.914C625.206 319.56 625.05 320.11 624.74 320.564C624.441 321.019 624.04 321.378 623.538 321.641L625.744 325.302H622.964L621.189 322.161H620.077V325.302H617.441ZM620.077 320.367H621.045C621.595 320.367 622.008 320.253 622.283 320.026C622.57 319.787 622.713 319.47 622.713 319.075C622.713 318.645 622.564 318.34 622.265 318.16C621.966 317.981 621.547 317.891 621.009 317.891H620.077V320.367Z" fill="#6B9AC4"/>
<path d="M627.493 325.302V315.827H630.129V325.302H627.493Z" fill="#6B9AC4"/>
<path d="M634.591 325.302V317.981H631.955V315.827H639.863V317.981H637.227V325.302H634.591Z" fill="#6B9AC4"/>
<path d="M641.696 325.302V315.827H644.333V325.302H641.696Z" fill="#6B9AC4"/>
<path d="M651.305 325.517C650.659 325.517 650.043 325.415 649.458 325.212C648.884 325.008 648.382 324.709 647.951 324.315C647.521 323.908 647.174 323.4 646.911 322.789C646.66 322.179 646.534 321.462 646.534 320.636C646.534 319.835 646.666 319.123 646.929 318.501C647.204 317.879 647.569 317.353 648.023 316.922C648.477 316.491 648.997 316.168 649.583 315.953C650.181 315.726 650.809 315.612 651.466 315.612C652.1 315.612 652.68 315.738 653.206 315.989C653.732 316.228 654.174 316.521 654.533 316.868L653.098 318.447C652.847 318.22 652.596 318.052 652.345 317.945C652.106 317.837 651.819 317.783 651.484 317.783C651.173 317.783 650.874 317.849 650.587 317.981C650.312 318.1 650.073 318.28 649.87 318.519C649.667 318.746 649.505 319.033 649.386 319.38C649.266 319.727 649.206 320.116 649.206 320.547C649.206 321.468 649.404 322.167 649.798 322.646C650.205 323.112 650.743 323.346 651.412 323.346C651.807 323.346 652.148 323.274 652.435 323.13C652.733 322.987 652.99 322.807 653.206 322.592L654.64 324.135C654.21 324.602 653.708 324.949 653.134 325.176C652.56 325.403 651.95 325.517 651.305 325.517Z" fill="#6B9AC4"/>
<path d="M658.757 320.726L658.577 321.462H660.424L660.227 320.726C660.108 320.271 659.988 319.781 659.869 319.255C659.761 318.716 659.641 318.214 659.51 317.747H659.438C659.331 318.226 659.217 318.728 659.097 319.255C658.99 319.781 658.876 320.271 658.757 320.726ZM654.919 325.302L657.968 315.827H661.106L664.173 325.302H661.411L660.909 323.364H658.093L657.591 325.302H654.919Z" fill="#6B9AC4"/>
<path d="M665.427 325.302V315.827H668.063V323.148H671.829V325.302H665.427Z" fill="#6B9AC4"/>
<path d="M680.632 325.517C679.879 325.517 679.156 325.397 678.462 325.158C677.781 324.907 677.195 324.584 676.705 324.189L677.96 322.413C678.403 322.748 678.857 323.011 679.323 323.202C679.79 323.394 680.268 323.489 680.758 323.489C681.141 323.489 681.415 323.417 681.583 323.274C681.762 323.118 681.852 322.921 681.852 322.682C681.852 322.431 681.744 322.233 681.529 322.09C681.314 321.934 681.039 321.791 680.704 321.659L679.7 321.282C679.377 321.163 679.066 321.025 678.767 320.87C678.468 320.714 678.205 320.529 677.978 320.313C677.751 320.086 677.566 319.835 677.422 319.56C677.291 319.273 677.225 318.944 677.225 318.573C677.225 318.13 677.315 317.723 677.494 317.353C677.673 316.982 677.924 316.671 678.247 316.42C678.582 316.156 678.977 315.953 679.431 315.809C679.885 315.666 680.393 315.594 680.955 315.594C681.732 315.594 682.402 315.72 682.964 315.971C683.526 316.222 684.016 316.503 684.434 316.814L683.143 318.501C682.796 318.262 682.432 318.064 682.049 317.909C681.679 317.741 681.29 317.658 680.883 317.658C680.561 317.658 680.31 317.723 680.13 317.855C679.951 317.975 679.861 318.166 679.861 318.429C679.861 318.645 679.963 318.818 680.166 318.95C680.381 319.081 680.662 319.213 681.009 319.344L681.995 319.703C682.342 319.823 682.665 319.96 682.964 320.116C683.275 320.259 683.544 320.439 683.771 320.654C683.998 320.858 684.177 321.109 684.309 321.408C684.44 321.695 684.506 322.048 684.506 322.466C684.506 322.897 684.416 323.298 684.237 323.669C684.07 324.04 683.819 324.362 683.484 324.638C683.149 324.913 682.743 325.128 682.264 325.284C681.786 325.439 681.242 325.517 680.632 325.517Z" fill="#6B9AC4"/>
<path d="M687.983 325.302V322.054L684.971 315.827H687.768L688.521 317.747C688.641 318.118 688.761 318.471 688.88 318.806C689.012 319.129 689.143 319.482 689.275 319.865H689.346C689.478 319.482 689.609 319.129 689.741 318.806C689.872 318.471 690.004 318.118 690.135 317.747L690.889 315.827H693.615L690.62 322.054V325.302H687.983Z" fill="#6B9AC4"/>
<path d="M697.725 325.517C696.972 325.517 696.249 325.397 695.555 325.158C694.874 324.907 694.288 324.584 693.798 324.189L695.053 322.413C695.495 322.748 695.95 323.011 696.416 323.202C696.882 323.394 697.361 323.489 697.851 323.489C698.233 323.489 698.508 323.417 698.676 323.274C698.855 323.118 698.945 322.921 698.945 322.682C698.945 322.431 698.837 322.233 698.622 322.09C698.407 321.934 698.132 321.791 697.797 321.659L696.793 321.282C696.47 321.163 696.159 321.025 695.86 320.87C695.561 320.714 695.298 320.529 695.071 320.313C694.844 320.086 694.659 319.835 694.515 319.56C694.384 319.273 694.318 318.944 694.318 318.573C694.318 318.13 694.408 317.723 694.587 317.353C694.766 316.982 695.017 316.671 695.34 316.42C695.675 316.156 696.069 315.953 696.524 315.809C696.978 315.666 697.486 315.594 698.048 315.594C698.825 315.594 699.495 315.72 700.057 315.971C700.619 316.222 701.109 316.503 701.527 316.814L700.236 318.501C699.889 318.262 699.525 318.064 699.142 317.909C698.771 317.741 698.383 317.658 697.976 317.658C697.654 317.658 697.402 317.723 697.223 317.855C697.044 317.975 696.954 318.166 696.954 318.429C696.954 318.645 697.056 318.818 697.259 318.95C697.474 319.081 697.755 319.213 698.102 319.344L699.088 319.703C699.435 319.823 699.758 319.96 700.057 320.116C700.367 320.259 700.636 320.439 700.864 320.654C701.091 320.858 701.27 321.109 701.402 321.408C701.533 321.695 701.599 322.048 701.599 322.466C701.599 322.897 701.509 323.298 701.33 323.669C701.162 324.04 700.911 324.362 700.577 324.638C700.242 324.913 699.835 325.128 699.357 325.284C698.879 325.439 698.335 325.517 697.725 325.517Z" fill="#6B9AC4"/>
<path d="M704.941 325.302V317.981H702.305V315.827H710.214V317.981H707.577V325.302H704.941Z" fill="#6B9AC4"/>
<path d="M712.047 325.302V315.827H718.485V317.873H714.683V319.524H717.947V321.444H714.683V323.256H718.664V325.302H712.047Z" fill="#6B9AC4"/>
<path d="M720.996 325.302V315.827H723.686L725.174 319.685L725.748 321.282H725.82L726.412 319.685L727.846 315.827H730.519V325.302H728.151V322.646C728.151 322.407 728.163 322.132 728.187 321.821C728.211 321.51 728.241 321.193 728.277 320.87C728.313 320.535 728.349 320.212 728.385 319.901C728.42 319.59 728.456 319.314 728.492 319.075H728.42L727.524 321.3L726.179 324.548H725.318L723.973 321.3L723.094 319.075H723.022C723.058 319.314 723.094 319.59 723.13 319.901C723.166 320.212 723.202 320.535 723.238 320.87C723.273 321.193 723.303 321.51 723.327 321.821C723.351 322.132 723.363 322.407 723.363 322.646V325.302H720.996Z" fill="#6B9AC4"/>
<path d="M736.447 325.517C735.694 325.517 734.97 325.397 734.277 325.158C733.595 324.907 733.01 324.584 732.519 324.189L733.775 322.413C734.217 322.748 734.671 323.011 735.138 323.202C735.604 323.394 736.082 323.489 736.572 323.489C736.955 323.489 737.23 323.417 737.397 323.274C737.577 323.118 737.666 322.921 737.666 322.682C737.666 322.431 737.559 322.233 737.344 322.09C737.128 321.934 736.853 321.791 736.519 321.659L735.514 321.282C735.191 321.163 734.881 321.025 734.582 320.87C734.283 320.714 734.02 320.529 733.793 320.313C733.566 320.086 733.38 319.835 733.237 319.56C733.105 319.273 733.039 318.944 733.039 318.573C733.039 318.13 733.129 317.723 733.309 317.353C733.488 316.982 733.739 316.671 734.062 316.42C734.396 316.156 734.791 315.953 735.245 315.809C735.7 315.666 736.208 315.594 736.77 315.594C737.547 315.594 738.216 315.72 738.778 315.971C739.34 316.222 739.83 316.503 740.249 316.814L738.958 318.501C738.611 318.262 738.246 318.064 737.864 317.909C737.493 317.741 737.104 317.658 736.698 317.658C736.375 317.658 736.124 317.723 735.945 317.855C735.765 317.975 735.676 318.166 735.676 318.429C735.676 318.645 735.777 318.818 735.981 318.95C736.196 319.081 736.477 319.213 736.823 319.344L737.81 319.703C738.156 319.823 738.479 319.96 738.778 320.116C739.089 320.259 739.358 320.439 739.585 320.654C739.812 320.858 739.992 321.109 740.123 321.408C740.255 321.695 740.32 322.048 740.32 322.466C740.32 322.897 740.231 323.298 740.052 323.669C739.884 324.04 739.633 324.362 739.298 324.638C738.964 324.913 738.557 325.128 738.079 325.284C737.601 325.439 737.057 325.517 736.447 325.517Z" fill="#6B9AC4"/>
<path d="M445.241 92.5989L443.071 80.8999H445.779L446.586 86.3726C446.657 86.9826 446.735 87.5987 446.819 88.2207C446.902 88.8308 446.98 89.4469 447.052 90.0689H447.124C447.243 89.4469 447.357 88.8308 447.464 88.2207C447.584 87.5987 447.703 86.9826 447.823 86.3726L449.078 80.8999H451.32L452.575 86.3726C452.695 86.9707 452.808 87.5808 452.916 88.2028C453.036 88.8129 453.155 89.4349 453.275 90.0689H453.346C453.43 89.4349 453.508 88.8129 453.58 88.2028C453.663 87.5927 453.747 86.9826 453.831 86.3726L454.638 80.8999H457.166L455.086 92.5989H451.768L450.621 87.2877C450.525 86.8331 450.435 86.3786 450.352 85.924C450.28 85.4575 450.214 85.0089 450.154 84.5782H450.083C450.011 85.0089 449.933 85.4575 449.849 85.924C449.778 86.3786 449.694 86.8331 449.598 87.2877L448.504 92.5989H445.241Z" fill="#6B9AC4"/>
<path d="M458.789 92.5989V83.1248H465.227V85.1704H461.425V86.8212H464.689V88.7411H461.425V90.5534H465.406V92.5989H458.789Z" fill="#6B9AC4"/>
<path d="M467.738 92.5989V83.1248H471.307C471.833 83.1248 472.323 83.1607 472.777 83.2325C473.244 83.3043 473.65 83.4299 473.997 83.6093C474.344 83.7887 474.613 84.034 474.804 84.345C475.007 84.644 475.109 85.0268 475.109 85.4933C475.109 85.6967 475.079 85.906 475.019 86.1214C474.959 86.3247 474.858 86.5221 474.714 86.7135C474.583 86.8929 474.415 87.0544 474.212 87.198C474.009 87.3415 473.764 87.4492 473.477 87.5209V87.5927C474.158 87.7363 474.672 87.9875 475.019 88.3463C475.378 88.6932 475.557 89.1897 475.557 89.8356C475.557 90.3261 475.449 90.7448 475.234 91.0917C475.031 91.4386 474.75 91.7257 474.391 91.9529C474.033 92.1802 473.614 92.3477 473.136 92.4554C472.658 92.5511 472.15 92.5989 471.612 92.5989H467.738ZM470.374 86.9109H471.343C471.845 86.9109 472.198 86.8212 472.401 86.6417C472.604 86.4503 472.706 86.2051 472.706 85.906C472.706 85.595 472.592 85.3737 472.365 85.2421C472.138 85.1106 471.797 85.0448 471.343 85.0448H470.374V86.9109ZM470.374 90.679H471.432C472.496 90.679 473.028 90.3141 473.028 89.5844C473.028 88.9026 472.496 88.5617 471.432 88.5617H470.374V90.679Z" fill="#6B9AC4"/>
<path d="M484.292 92.8142C483.539 92.8142 482.816 92.6946 482.122 92.4554C481.441 92.2042 480.855 91.8812 480.365 91.4864L481.62 89.71C482.063 90.045 482.517 90.3081 482.983 90.4995C483.449 90.6909 483.928 90.7866 484.418 90.7866C484.8 90.7866 485.075 90.7149 485.243 90.5713C485.422 90.4158 485.512 90.2184 485.512 89.9792C485.512 89.728 485.404 89.5306 485.189 89.3871C484.974 89.2315 484.699 89.088 484.364 88.9564L483.36 88.5796C483.037 88.46 482.726 88.3224 482.427 88.1669C482.128 88.0114 481.865 87.826 481.638 87.6107C481.411 87.3834 481.226 87.1322 481.082 86.857C480.951 86.5699 480.885 86.241 480.885 85.8702C480.885 85.4276 480.975 85.0208 481.154 84.65C481.333 84.2792 481.584 83.9682 481.907 83.717C482.242 83.4538 482.637 83.2504 483.091 83.1069C483.545 82.9633 484.053 82.8916 484.615 82.8916C485.392 82.8916 486.062 83.0172 486.624 83.2684C487.186 83.5196 487.676 83.8007 488.094 84.1117L486.803 85.7984C486.456 85.5591 486.092 85.3618 485.709 85.2063C485.338 85.0388 484.95 84.955 484.543 84.955C484.221 84.955 483.97 85.0208 483.79 85.1524C483.611 85.272 483.521 85.4634 483.521 85.7266C483.521 85.9419 483.623 86.1154 483.826 86.247C484.041 86.3785 484.322 86.5101 484.669 86.6417L485.655 87.0006C486.002 87.1202 486.325 87.2578 486.624 87.4133C486.935 87.5568 487.204 87.7363 487.431 87.9516C487.658 88.1549 487.837 88.4062 487.969 88.7052C488.1 88.9923 488.166 89.3452 488.166 89.7639C488.166 90.1945 488.076 90.5952 487.897 90.9661C487.73 91.3369 487.479 91.6599 487.144 91.935C486.809 92.2101 486.403 92.4255 485.924 92.581C485.446 92.7365 484.902 92.8142 484.292 92.8142Z" fill="#6B9AC4"/>
<path d="M490.155 92.5989V83.1248H496.593V85.1704H492.791V86.8212H496.055V88.7411H492.791V90.5534H496.772V92.5989H490.155Z" fill="#6B9AC4"/>
<path d="M499.104 92.5989V83.1248H502.852C503.39 83.1248 503.904 83.1727 504.395 83.2684C504.885 83.3641 505.309 83.5315 505.668 83.7708C506.038 84.01 506.331 84.327 506.547 84.7218C506.762 85.1165 506.869 85.613 506.869 86.2111C506.869 86.857 506.714 87.4073 506.403 87.8619C506.104 88.3164 505.704 88.6753 505.202 88.9385L507.407 92.5989H504.628L502.852 89.4588H501.74V92.5989H499.104ZM501.74 87.6645H502.709C503.259 87.6645 503.671 87.5508 503.946 87.3236C504.233 87.0843 504.377 86.7673 504.377 86.3726C504.377 85.9419 504.227 85.6369 503.928 85.4575C503.629 85.278 503.211 85.1883 502.673 85.1883H501.74V87.6645Z" fill="#6B9AC4"/>
<path d="M510.591 92.5989L507.65 83.1248H510.376L511.452 87.2518C511.584 87.7542 511.709 88.2506 511.829 88.7411C511.948 89.2196 512.074 89.728 512.205 90.2663H512.277C512.421 89.7399 512.546 89.2315 512.654 88.7411C512.773 88.2506 512.899 87.7542 513.03 87.2518L514.07 83.1248H516.707L513.748 92.5989H510.591Z" fill="#6B9AC4"/>
<path d="M517.966 92.5989V83.1248H524.404V85.1704H520.602V86.8212H523.866V88.7411H520.602V90.5534H524.583V92.5989H517.966Z" fill="#6B9AC4"/>
<path d="M526.915 92.5989V83.1248H530.663C531.201 83.1248 531.715 83.1727 532.205 83.2684C532.696 83.3641 533.12 83.5315 533.479 83.7708C533.849 84.01 534.142 84.327 534.357 84.7218C534.573 85.1165 534.68 85.613 534.68 86.2111C534.68 86.857 534.525 87.4073 534.214 87.8619C533.915 88.3164 533.515 88.6753 533.012 88.9385L535.218 92.5989H532.439L530.663 89.4588H529.551V92.5989H526.915ZM529.551 87.6645H530.52C531.07 87.6645 531.482 87.5508 531.757 87.3236C532.044 87.0843 532.188 86.7673 532.188 86.3726C532.188 85.9419 532.038 85.6369 531.739 85.4575C531.44 85.278 531.022 85.1883 530.484 85.1883H529.551V87.6645Z" fill="#6B9AC4"/>
<path d="M539.967 92.8142C539.213 92.8142 538.49 92.6946 537.797 92.4554C537.115 92.2042 536.529 91.8812 536.039 91.4864L537.295 89.71C537.737 90.045 538.191 90.3081 538.658 90.4995C539.124 90.6909 539.602 90.7866 540.092 90.7866C540.475 90.7866 540.75 90.7149 540.917 90.5713C541.096 90.4158 541.186 90.2184 541.186 89.9792C541.186 89.728 541.079 89.5306 540.863 89.3871C540.648 89.2315 540.373 89.088 540.038 88.9564L539.034 88.5796C538.711 88.46 538.401 88.3224 538.102 88.1669C537.803 88.0114 537.54 87.826 537.313 87.6107C537.085 87.3834 536.9 87.1322 536.757 86.857C536.625 86.5699 536.559 86.241 536.559 85.8702C536.559 85.4276 536.649 85.0208 536.828 84.65C537.008 84.2792 537.259 83.9682 537.582 83.717C537.916 83.4538 538.311 83.2504 538.765 83.1069C539.219 82.9633 539.728 82.8916 540.289 82.8916C541.067 82.8916 541.736 83.0172 542.298 83.2684C542.86 83.5196 543.35 83.8007 543.769 84.1117L542.477 85.7984C542.131 85.5591 541.766 85.3618 541.383 85.2063C541.013 85.0388 540.624 84.955 540.218 84.955C539.895 84.955 539.644 85.0208 539.465 85.1524C539.285 85.272 539.196 85.4634 539.196 85.7266C539.196 85.9419 539.297 86.1154 539.5 86.247C539.716 86.3785 539.997 86.5101 540.343 86.6417L541.33 87.0006C541.676 87.1202 541.999 87.2578 542.298 87.4133C542.609 87.5568 542.878 87.7363 543.105 87.9516C543.332 88.1549 543.512 88.4062 543.643 88.7052C543.775 88.9923 543.84 89.3452 543.84 89.7639C543.84 90.1945 543.751 90.5952 543.571 90.9661C543.404 91.3369 543.153 91.6599 542.818 91.935C542.483 92.2101 542.077 92.4255 541.599 92.581C541.12 92.7365 540.576 92.8142 539.967 92.8142Z" fill="#6B9AC4"/>
<path d="M545.811 96.0799L545.273 94.6803C545.943 94.4411 546.451 94.1301 546.798 93.7473C547.144 93.3645 547.312 92.9458 547.3 92.4912H547.156C546.738 92.4912 546.367 92.3656 546.044 92.1144C545.722 91.8513 545.56 91.4804 545.56 91.002C545.56 90.5474 545.722 90.1825 546.044 89.9074C546.367 89.6323 546.756 89.4947 547.21 89.4947C547.808 89.4947 548.262 89.716 548.573 90.1586C548.884 90.5893 549.039 91.1993 549.039 91.9888C549.039 92.9817 548.764 93.831 548.214 94.5368C547.664 95.2545 546.863 95.7689 545.811 96.0799Z" fill="#6B9AC4"/>
<path d="M446.39 108.86V97.161H449.277L451.16 102.365C451.279 102.711 451.393 103.07 451.501 103.441C451.608 103.8 451.722 104.159 451.841 104.518H451.913C452.033 104.159 452.14 103.8 452.236 103.441C452.343 103.07 452.457 102.711 452.577 102.365L454.424 97.161H457.293V108.86H454.89V104.572C454.89 104.285 454.902 103.968 454.926 103.621C454.95 103.274 454.98 102.927 455.016 102.58C455.051 102.221 455.087 101.874 455.123 101.539C455.159 101.192 455.195 100.875 455.231 100.588H455.159L454.208 103.369L452.541 107.837H451.088L449.42 103.369L448.488 100.588H448.416C448.452 100.875 448.488 101.192 448.524 101.539C448.559 101.874 448.595 102.221 448.631 102.58C448.667 102.927 448.697 103.274 448.721 103.621C448.745 103.968 448.757 104.285 448.757 104.572V108.86H446.39Z" fill="#6B9AC4"/>
<path d="M462.399 104.285L462.22 105.02H464.067L463.87 104.285C463.75 103.83 463.631 103.339 463.511 102.813C463.403 102.275 463.284 101.772 463.152 101.306H463.081C462.973 101.784 462.859 102.287 462.74 102.813C462.632 103.339 462.519 103.83 462.399 104.285ZM458.561 108.86L461.61 99.386H464.748L467.815 108.86H465.053L464.551 106.922H461.736L461.233 108.86H458.561Z" fill="#6B9AC4"/>
<path d="M469.069 108.86V99.386H471.705V108.86H469.069Z" fill="#6B9AC4"/>
<path d="M474.463 108.86V99.386H477.099V106.707H480.865V108.86H474.463Z" fill="#6B9AC4"/>
<path d="M489.669 109.075C488.916 109.075 488.192 108.956 487.499 108.717C486.817 108.465 486.232 108.142 485.741 107.748L486.997 105.971C487.439 106.306 487.893 106.569 488.36 106.761C488.826 106.952 489.304 107.048 489.794 107.048C490.177 107.048 490.452 106.976 490.619 106.832C490.799 106.677 490.888 106.48 490.888 106.24C490.888 105.989 490.781 105.792 490.566 105.648C490.35 105.493 490.075 105.349 489.741 105.218L488.736 104.841C488.414 104.721 488.103 104.584 487.804 104.428C487.505 104.273 487.242 104.087 487.015 103.872C486.788 103.645 486.602 103.393 486.459 103.118C486.327 102.831 486.262 102.502 486.262 102.131C486.262 101.689 486.351 101.282 486.531 100.911C486.71 100.54 486.961 100.229 487.284 99.9781C487.618 99.7149 488.013 99.5116 488.467 99.368C488.922 99.2245 489.43 99.1527 489.992 99.1527C490.769 99.1527 491.438 99.2783 492 99.5295C492.562 99.7807 493.052 100.062 493.471 100.373L492.18 102.06C491.833 101.82 491.468 101.623 491.086 101.467C490.715 101.3 490.326 101.216 489.92 101.216C489.597 101.216 489.346 101.282 489.167 101.414C488.987 101.533 488.898 101.725 488.898 101.988C488.898 102.203 488.999 102.377 489.203 102.508C489.418 102.64 489.699 102.771 490.046 102.903L491.032 103.262C491.379 103.381 491.701 103.519 492 103.674C492.311 103.818 492.58 103.997 492.807 104.213C493.034 104.416 493.214 104.667 493.345 104.966C493.477 105.253 493.543 105.606 493.543 106.025C493.543 106.456 493.453 106.856 493.274 107.227C493.106 107.598 492.855 107.921 492.52 108.196C492.186 108.471 491.779 108.687 491.301 108.842C490.823 108.998 490.279 109.075 489.669 109.075Z" fill="#6B9AC4"/>
<path d="M495.531 108.86V99.386H501.97V101.432H498.168V103.082H501.432V105.002H498.168V106.815H502.149V108.86H495.531Z" fill="#6B9AC4"/>
<path d="M504.481 108.86V99.386H508.229C508.767 99.386 509.281 99.4338 509.771 99.5295C510.261 99.6252 510.686 99.7927 511.044 100.032C511.415 100.271 511.708 100.588 511.923 100.983C512.138 101.378 512.246 101.874 512.246 102.472C512.246 103.118 512.09 103.668 511.78 104.123C511.481 104.578 511.08 104.936 510.578 105.2L512.784 108.86H510.004L508.229 105.72H507.117V108.86H504.481ZM507.117 103.926H508.085C508.635 103.926 509.048 103.812 509.323 103.585C509.61 103.345 509.753 103.028 509.753 102.634C509.753 102.203 509.604 101.898 509.305 101.719C509.006 101.539 508.587 101.449 508.049 101.449H507.117V103.926Z" fill="#6B9AC4"/>
<path d="M515.968 108.86L513.027 99.386H515.753L516.829 103.513C516.96 104.015 517.086 104.512 517.205 105.002C517.325 105.481 517.45 105.989 517.582 106.527H517.654C517.797 106.001 517.923 105.493 518.03 105.002C518.15 104.512 518.275 104.015 518.407 103.513L519.447 99.386H522.083L519.124 108.86H515.968Z" fill="#6B9AC4"/>
<path d="M523.342 108.86V99.386H529.78V101.432H525.979V103.082H529.242V105.002H525.979V106.815H529.96V108.86H523.342Z" fill="#6B9AC4"/>
<path d="M532.292 108.86V99.386H536.04C536.578 99.386 537.092 99.4338 537.582 99.5295C538.072 99.6252 538.497 99.7927 538.855 100.032C539.226 100.271 539.519 100.588 539.734 100.983C539.949 101.378 540.057 101.874 540.057 102.472C540.057 103.118 539.901 103.668 539.591 104.123C539.292 104.578 538.891 104.936 538.389 105.2L540.595 108.86H537.815L536.04 105.72H534.928V108.86H532.292ZM534.928 103.926H535.896C536.446 103.926 536.859 103.812 537.134 103.585C537.421 103.345 537.564 103.028 537.564 102.634C537.564 102.203 537.415 101.898 537.116 101.719C536.817 101.539 536.398 101.449 535.86 101.449H534.928V103.926Z" fill="#6B9AC4"/>
<path d="M545.343 109.075C544.59 109.075 543.867 108.956 543.173 108.717C542.492 108.465 541.906 108.142 541.416 107.748L542.671 105.971C543.113 106.306 543.568 106.569 544.034 106.761C544.5 106.952 544.979 107.048 545.469 107.048C545.851 107.048 546.126 106.976 546.294 106.832C546.473 106.677 546.563 106.48 546.563 106.24C546.563 105.989 546.455 105.792 546.24 105.648C546.025 105.493 545.75 105.349 545.415 105.218L544.411 104.841C544.088 104.721 543.777 104.584 543.478 104.428C543.179 104.273 542.916 104.087 542.689 103.872C542.462 103.645 542.277 103.393 542.133 103.118C542.002 102.831 541.936 102.502 541.936 102.131C541.936 101.689 542.026 101.282 542.205 100.911C542.384 100.54 542.635 100.229 542.958 99.9781C543.293 99.7149 543.687 99.5116 544.142 99.368C544.596 99.2245 545.104 99.1527 545.666 99.1527C546.443 99.1527 547.113 99.2783 547.675 99.5295C548.236 99.7807 548.727 100.062 549.145 100.373L547.854 102.06C547.507 101.82 547.143 101.623 546.76 101.467C546.389 101.3 546.001 101.216 545.594 101.216C545.271 101.216 545.02 101.282 544.841 101.414C544.662 101.533 544.572 101.725 544.572 101.988C544.572 102.203 544.674 102.377 544.877 102.508C545.092 102.64 545.373 102.771 545.72 102.903L546.706 103.262C547.053 103.381 547.376 103.519 547.675 103.674C547.985 103.818 548.254 103.997 548.482 104.213C548.709 104.416 548.888 104.667 549.02 104.966C549.151 105.253 549.217 105.606 549.217 106.025C549.217 106.456 549.127 106.856 548.948 107.227C548.78 107.598 548.529 107.921 548.195 108.196C547.86 108.471 547.453 108.687 546.975 108.842C546.497 108.998 545.953 109.075 545.343 109.075Z" fill="#6B9AC4"/>
<path d="M219.734 418.943V407.244H223.733C224.343 407.244 224.905 407.292 225.419 407.388C225.945 407.472 226.399 407.627 226.782 407.854C227.177 408.082 227.481 408.381 227.697 408.751C227.924 409.122 228.037 409.589 228.037 410.151C228.037 410.414 228.002 410.677 227.93 410.941C227.858 411.204 227.756 411.449 227.625 411.676C227.493 411.904 227.332 412.107 227.141 412.286C226.961 412.466 226.752 412.597 226.513 412.681V412.753C226.812 412.825 227.087 412.938 227.338 413.094C227.589 413.237 227.81 413.423 228.002 413.65C228.193 413.877 228.342 414.146 228.45 414.457C228.557 414.757 228.611 415.103 228.611 415.498C228.611 416.096 228.492 416.611 228.253 417.041C228.025 417.472 227.703 417.831 227.284 418.118C226.878 418.393 226.399 418.602 225.85 418.746C225.3 418.878 224.708 418.943 224.074 418.943H219.734ZM222.37 411.927H223.608C224.253 411.927 224.72 411.802 225.007 411.551C225.306 411.299 225.455 410.965 225.455 410.546C225.455 410.091 225.306 409.768 225.007 409.577C224.708 409.385 224.247 409.29 223.626 409.29H222.37V411.927ZM222.37 416.898H223.859C225.306 416.898 226.029 416.371 226.029 415.319C226.029 414.804 225.85 414.44 225.491 414.224C225.132 413.997 224.588 413.883 223.859 413.883H222.37V416.898Z" fill="#6B9AC4"/>
<path d="M230.592 418.943V409.469H234.34C234.878 409.469 235.393 409.517 235.883 409.613C236.373 409.708 236.797 409.876 237.156 410.115C237.527 410.354 237.82 410.671 238.035 411.066C238.25 411.461 238.358 411.957 238.358 412.555C238.358 413.201 238.202 413.752 237.891 414.206C237.592 414.661 237.192 415.02 236.69 415.283L238.896 418.943H236.116L234.34 415.803H233.229V418.943H230.592ZM233.229 414.009H234.197C234.747 414.009 235.159 413.895 235.434 413.668C235.721 413.429 235.865 413.112 235.865 412.717C235.865 412.286 235.715 411.981 235.416 411.802C235.118 411.622 234.699 411.533 234.161 411.533H233.229V414.009Z" fill="#6B9AC4"/>
<path d="M243.134 414.368L242.955 415.103H244.802L244.605 414.368C244.485 413.913 244.366 413.423 244.246 412.896C244.139 412.358 244.019 411.856 243.887 411.389H243.816C243.708 411.868 243.595 412.37 243.475 412.896C243.367 413.423 243.254 413.913 243.134 414.368ZM239.297 418.943L242.345 409.469H245.484L248.55 418.943H245.788L245.286 417.005H242.471L241.969 418.943H239.297Z" fill="#6B9AC4"/>
<path d="M249.804 418.943V409.469H252.458L254.7 413.596L255.74 415.857H255.812C255.776 415.606 255.74 415.325 255.704 415.014C255.669 414.691 255.633 414.362 255.597 414.027C255.573 413.692 255.549 413.357 255.525 413.022C255.501 412.687 255.489 412.37 255.489 412.071V409.469H257.91V418.943H255.328L252.996 414.798L251.974 412.555H251.902C251.962 413.106 252.028 413.728 252.1 414.422C252.183 415.103 252.225 415.743 252.225 416.342V418.943H249.804Z" fill="#6B9AC4"/>
<path d="M264.894 419.159C264.249 419.159 263.633 419.057 263.047 418.854C262.473 418.65 261.971 418.351 261.541 417.956C261.11 417.55 260.764 417.041 260.501 416.431C260.25 415.821 260.124 415.103 260.124 414.278C260.124 413.477 260.256 412.765 260.519 412.143C260.794 411.521 261.158 410.994 261.613 410.564C262.067 410.133 262.587 409.81 263.173 409.595C263.77 409.368 264.398 409.254 265.056 409.254C265.689 409.254 266.269 409.379 266.795 409.631C267.321 409.87 267.764 410.163 268.122 410.51L266.688 412.089C266.437 411.862 266.186 411.694 265.934 411.587C265.695 411.479 265.408 411.425 265.074 411.425C264.763 411.425 264.464 411.491 264.177 411.622C263.902 411.742 263.663 411.921 263.46 412.161C263.256 412.388 263.095 412.675 262.975 413.022C262.856 413.369 262.796 413.758 262.796 414.188C262.796 415.109 262.993 415.809 263.388 416.288C263.794 416.754 264.332 416.987 265.002 416.987C265.396 416.987 265.737 416.916 266.024 416.772C266.323 416.629 266.58 416.449 266.795 416.234L268.23 417.777C267.8 418.244 267.297 418.59 266.724 418.818C266.15 419.045 265.54 419.159 264.894 419.159Z" fill="#6B9AC4"/>
<path d="M269.997 418.943V409.469H272.633V412.95H275.736V409.469H278.39V418.943H275.736V415.229H272.633V418.943H269.997Z" fill="#6B9AC4"/>
<path d="M288.886 419.159C288.181 419.159 287.541 419.045 286.967 418.818C286.393 418.59 285.897 418.267 285.479 417.849C285.06 417.418 284.737 416.892 284.51 416.27C284.283 415.648 284.17 414.942 284.17 414.152C284.17 413.363 284.283 412.669 284.51 412.071C284.737 411.461 285.06 410.947 285.479 410.528C285.897 410.109 286.393 409.792 286.967 409.577C287.541 409.362 288.181 409.254 288.886 409.254C289.58 409.254 290.213 409.362 290.787 409.577C291.361 409.792 291.851 410.109 292.258 410.528C292.676 410.947 292.999 411.461 293.226 412.071C293.453 412.681 293.567 413.375 293.567 414.152C293.567 414.942 293.453 415.648 293.226 416.27C292.999 416.892 292.676 417.418 292.258 417.849C291.851 418.267 291.361 418.59 290.787 418.818C290.213 419.045 289.58 419.159 288.886 419.159ZM288.886 416.987C289.496 416.987 289.974 416.736 290.321 416.234C290.679 415.731 290.859 415.038 290.859 414.152C290.859 413.279 290.679 412.609 290.321 412.143C289.974 411.664 289.496 411.425 288.886 411.425C288.252 411.425 287.756 411.664 287.398 412.143C287.051 412.609 286.878 413.279 286.878 414.152C286.878 415.038 287.051 415.731 287.398 416.234C287.756 416.736 288.252 416.987 288.886 416.987Z" fill="#6B9AC4"/>
<path d="M295.776 418.943V409.469H302.268V411.622H298.413V413.524H301.73V415.498H298.413V418.943H295.776Z" fill="#6B9AC4"/>
<path d="M304.305 418.943V409.469H310.797V411.622H306.941V413.524H310.259V415.498H306.941V418.943H304.305Z" fill="#6B9AC4"/>
<path d="M312.834 418.943V409.469H315.47V418.943H312.834Z" fill="#6B9AC4"/>
<path d="M322.443 419.159C321.797 419.159 321.181 419.057 320.595 418.854C320.022 418.65 319.519 418.351 319.089 417.956C318.659 417.55 318.312 417.041 318.049 416.431C317.798 415.821 317.672 415.103 317.672 414.278C317.672 413.477 317.804 412.765 318.067 412.143C318.342 411.521 318.706 410.994 319.161 410.564C319.615 410.133 320.135 409.81 320.721 409.595C321.319 409.368 321.946 409.254 322.604 409.254C323.238 409.254 323.817 409.379 324.344 409.631C324.87 409.87 325.312 410.163 325.671 410.51L324.236 412.089C323.985 411.862 323.734 411.694 323.483 411.587C323.244 411.479 322.957 411.425 322.622 411.425C322.311 411.425 322.012 411.491 321.725 411.622C321.45 411.742 321.211 411.921 321.008 412.161C320.805 412.388 320.643 412.675 320.524 413.022C320.404 413.369 320.344 413.758 320.344 414.188C320.344 415.109 320.542 415.809 320.936 416.288C321.343 416.754 321.881 416.987 322.55 416.987C322.945 416.987 323.285 416.916 323.572 416.772C323.871 416.629 324.128 416.449 324.344 416.234L325.778 417.777C325.348 418.244 324.846 418.59 324.272 418.818C323.698 419.045 323.088 419.159 322.443 419.159Z" fill="#6B9AC4"/>
<path d="M327.545 418.943V409.469H333.983V411.515H330.181V413.166H333.445V415.086H330.181V416.898H334.163V418.943H327.545Z" fill="#6B9AC4"/>
<path d="M339.669 419.159C338.915 419.159 338.192 419.039 337.499 418.8C336.817 418.549 336.231 418.226 335.741 417.831L336.997 416.054C337.439 416.389 337.893 416.653 338.36 416.844C338.826 417.035 339.304 417.131 339.794 417.131C340.177 417.131 340.452 417.059 340.619 416.916C340.798 416.76 340.888 416.563 340.888 416.324C340.888 416.072 340.781 415.875 340.565 415.731C340.35 415.576 340.075 415.432 339.74 415.301L338.736 414.924C338.413 414.804 338.102 414.667 337.804 414.511C337.505 414.356 337.242 414.17 337.015 413.955C336.787 413.728 336.602 413.477 336.459 413.201C336.327 412.914 336.261 412.585 336.261 412.215C336.261 411.772 336.351 411.365 336.53 410.994C336.71 410.624 336.961 410.313 337.284 410.061C337.618 409.798 338.013 409.595 338.467 409.451C338.921 409.308 339.43 409.236 339.991 409.236C340.769 409.236 341.438 409.362 342 409.613C342.562 409.864 343.052 410.145 343.471 410.456L342.179 412.143C341.833 411.904 341.468 411.706 341.085 411.551C340.715 411.383 340.326 411.299 339.92 411.299C339.597 411.299 339.346 411.365 339.167 411.497C338.987 411.616 338.898 411.808 338.898 412.071C338.898 412.286 338.999 412.46 339.202 412.591C339.418 412.723 339.699 412.855 340.045 412.986L341.032 413.345C341.378 413.465 341.701 413.602 342 413.758C342.311 413.901 342.58 414.081 342.807 414.296C343.034 414.499 343.214 414.751 343.345 415.05C343.477 415.337 343.542 415.69 343.542 416.108C343.542 416.539 343.453 416.94 343.273 417.31C343.106 417.681 342.855 418.004 342.52 418.279C342.185 418.555 341.779 418.77 341.301 418.925C340.822 419.081 340.278 419.159 339.669 419.159Z" fill="#6B9AC4"/>
<path d="M125.012 276.733C124.223 276.733 123.499 276.596 122.842 276.321C122.196 276.034 121.64 275.627 121.174 275.101C120.708 274.574 120.343 273.934 120.08 273.181C119.829 272.427 119.703 271.572 119.703 270.615C119.703 269.658 119.829 268.808 120.08 268.067C120.343 267.313 120.708 266.685 121.174 266.183C121.64 265.668 122.196 265.28 122.842 265.016C123.499 264.741 124.223 264.604 125.012 264.604C125.801 264.604 126.518 264.741 127.164 265.016C127.821 265.28 128.383 265.668 128.85 266.183C129.316 266.697 129.675 267.331 129.926 268.085C130.189 268.826 130.32 269.67 130.32 270.615C130.32 271.572 130.189 272.427 129.926 273.181C129.675 273.934 129.316 274.574 128.85 275.101C128.383 275.627 127.821 276.034 127.164 276.321C126.518 276.596 125.801 276.733 125.012 276.733ZM125.012 274.455C125.813 274.455 126.446 274.114 126.913 273.432C127.379 272.738 127.612 271.799 127.612 270.615C127.612 269.442 127.379 268.527 126.913 267.869C126.446 267.211 125.813 266.883 125.012 266.883C124.211 266.883 123.577 267.211 123.111 267.869C122.645 268.527 122.411 269.442 122.411 270.615C122.411 271.799 122.645 272.738 123.111 273.432C123.577 274.114 124.211 274.455 125.012 274.455Z" fill="#6B9AC4"/>
<path d="M132.519 276.518V267.044H139.011V269.197H135.155V271.099H138.473V273.073H135.155V276.518H132.519Z" fill="#6B9AC4"/>
<path d="M141.048 276.518V267.044H147.539V269.197H143.684V271.099H147.001V273.073H143.684V276.518H141.048Z" fill="#6B9AC4"/>
<path d="M149.576 276.518V267.044H152.213V276.518H149.576Z" fill="#6B9AC4"/>
<path d="M159.185 276.733C158.539 276.733 157.924 276.632 157.338 276.428C156.764 276.225 156.262 275.926 155.831 275.531C155.401 275.124 155.054 274.616 154.791 274.006C154.54 273.396 154.415 272.678 154.415 271.853C154.415 271.051 154.546 270.34 154.809 269.718C155.084 269.096 155.449 268.569 155.903 268.139C156.357 267.708 156.877 267.385 157.463 267.17C158.061 266.942 158.689 266.829 159.346 266.829C159.98 266.829 160.56 266.954 161.086 267.206C161.612 267.445 162.054 267.738 162.413 268.085L160.978 269.664C160.727 269.436 160.476 269.269 160.225 269.161C159.986 269.054 159.699 269 159.364 269C159.053 269 158.754 269.066 158.468 269.197C158.193 269.317 157.953 269.496 157.75 269.736C157.547 269.963 157.386 270.25 157.266 270.597C157.146 270.944 157.087 271.332 157.087 271.763C157.087 272.684 157.284 273.384 157.678 273.862C158.085 274.329 158.623 274.562 159.292 274.562C159.687 274.562 160.028 274.491 160.315 274.347C160.614 274.203 160.871 274.024 161.086 273.809L162.521 275.352C162.09 275.818 161.588 276.165 161.014 276.392C160.44 276.62 159.83 276.733 159.185 276.733Z" fill="#6B9AC4"/>
<path d="M164.288 276.518V267.044H170.726V269.09H166.924V270.74H170.188V272.66H166.924V274.473H170.905V276.518H164.288Z" fill="#6B9AC4"/>
<path d="M176.827 276.518V267.044H179.481L181.723 271.171L182.763 273.432H182.835C182.799 273.181 182.763 272.9 182.727 272.589C182.691 272.266 182.655 271.937 182.619 271.602C182.596 271.267 182.572 270.932 182.548 270.597C182.524 270.262 182.512 269.945 182.512 269.646V267.044H184.933V276.518H182.35L180.019 272.373L178.997 270.13H178.925C178.985 270.681 179.051 271.303 179.122 271.996C179.206 272.678 179.248 273.318 179.248 273.916V276.518H176.827Z" fill="#6B9AC4"/>
<path d="M187.703 276.518V267.044H194.141V269.09H190.339V270.74H193.603V272.66H190.339V274.473H194.32V276.518H187.703Z" fill="#6B9AC4"/>
<path d="M198.215 276.518V269.197H195.579V267.044H203.488V269.197H200.852V276.518H198.215Z" fill="#6B9AC4"/>
<path d="M206.002 276.518L204.191 267.062H206.773L207.383 271.189C207.443 271.691 207.503 272.188 207.563 272.678C207.622 273.157 207.682 273.647 207.742 274.15H207.814C207.909 273.647 208.005 273.151 208.101 272.66C208.208 272.17 208.31 271.679 208.405 271.189L209.41 267.062H211.526L212.494 271.189C212.59 271.667 212.692 272.158 212.799 272.66C212.907 273.151 213.008 273.647 213.104 274.15H213.176C213.235 273.647 213.295 273.151 213.355 272.66C213.415 272.17 213.475 271.679 213.534 271.189L214.144 267.062H216.547L214.826 276.518H211.651L210.773 272.768C210.629 272.014 210.51 271.279 210.414 270.561H210.342C210.282 270.908 210.223 271.273 210.163 271.655C210.115 272.026 210.043 272.397 209.948 272.768L209.123 276.518H206.002Z" fill="#6B9AC4"/>
<path d="M222.178 276.733C221.473 276.733 220.833 276.62 220.26 276.392C219.686 276.165 219.19 275.842 218.771 275.424C218.353 274.993 218.03 274.467 217.803 273.845C217.576 273.223 217.462 272.517 217.462 271.727C217.462 270.938 217.576 270.244 217.803 269.646C218.03 269.036 218.353 268.521 218.771 268.103C219.19 267.684 219.686 267.367 220.26 267.152C220.833 266.936 221.473 266.829 222.178 266.829C222.872 266.829 223.506 266.936 224.079 267.152C224.653 267.367 225.143 267.684 225.55 268.103C225.968 268.521 226.291 269.036 226.518 269.646C226.746 270.256 226.859 270.95 226.859 271.727C226.859 272.517 226.746 273.223 226.518 273.845C226.291 274.467 225.968 274.993 225.55 275.424C225.143 275.842 224.653 276.165 224.079 276.392C223.506 276.62 222.872 276.733 222.178 276.733ZM222.178 274.562C222.788 274.562 223.266 274.311 223.613 273.809C223.972 273.306 224.151 272.612 224.151 271.727C224.151 270.854 223.972 270.184 223.613 269.718C223.266 269.239 222.788 269 222.178 269C221.545 269 221.049 269.239 220.69 269.718C220.343 270.184 220.17 270.854 220.17 271.727C220.17 272.612 220.343 273.306 220.69 273.809C221.049 274.311 221.545 274.562 222.178 274.562Z" fill="#6B9AC4"/>
<path d="M229.069 276.518V267.044H232.817C233.355 267.044 233.869 267.092 234.359 267.188C234.849 267.283 235.274 267.451 235.632 267.69C236.003 267.929 236.296 268.246 236.511 268.641C236.726 269.036 236.834 269.532 236.834 270.13C236.834 270.776 236.678 271.327 236.368 271.781C236.069 272.236 235.668 272.594 235.166 272.858L237.372 276.518H234.592L232.817 273.378H231.705V276.518H229.069ZM231.705 271.584H232.673C233.223 271.584 233.636 271.47 233.911 271.243C234.198 271.004 234.341 270.687 234.341 270.292C234.341 269.861 234.192 269.556 233.893 269.377C233.594 269.197 233.175 269.107 232.637 269.107H231.705V271.584Z" fill="#6B9AC4"/>
<path d="M239.121 276.518V267.044H241.757V270.525H241.829L244.412 267.044H247.263L244.268 270.92L247.801 276.518H244.985L242.762 272.732L241.757 273.88V276.518H239.121Z" fill="#6B9AC4"/>
<path d="M252.243 276.733C251.49 276.733 250.766 276.614 250.073 276.375C249.392 276.123 248.806 275.8 248.316 275.406L249.571 273.629C250.013 273.964 250.468 274.227 250.934 274.419C251.4 274.61 251.878 274.706 252.368 274.706C252.751 274.706 253.026 274.634 253.193 274.49C253.373 274.335 253.462 274.138 253.462 273.898C253.462 273.647 253.355 273.45 253.14 273.306C252.924 273.151 252.649 273.007 252.315 272.876L251.31 272.499C250.988 272.379 250.677 272.242 250.378 272.086C250.079 271.931 249.816 271.745 249.589 271.53C249.362 271.303 249.176 271.051 249.033 270.776C248.901 270.489 248.836 270.16 248.836 269.789C248.836 269.347 248.925 268.94 249.105 268.569C249.284 268.198 249.535 267.887 249.858 267.636C250.193 267.373 250.587 267.17 251.041 267.026C251.496 266.883 252.004 266.811 252.566 266.811C253.343 266.811 254.012 266.936 254.574 267.188C255.136 267.439 255.626 267.72 256.045 268.031L254.754 269.718C254.407 269.478 254.042 269.281 253.66 269.125C253.289 268.958 252.901 268.874 252.494 268.874C252.171 268.874 251.92 268.94 251.741 269.072C251.561 269.191 251.472 269.383 251.472 269.646C251.472 269.861 251.573 270.035 251.777 270.166C251.992 270.298 252.273 270.429 252.62 270.561L253.606 270.92C253.953 271.039 254.275 271.177 254.574 271.332C254.885 271.476 255.154 271.655 255.381 271.871C255.608 272.074 255.788 272.325 255.919 272.624C256.051 272.911 256.117 273.264 256.117 273.683C256.117 274.114 256.027 274.514 255.848 274.885C255.68 275.256 255.429 275.579 255.094 275.854C254.76 276.129 254.353 276.345 253.875 276.5C253.397 276.656 252.853 276.733 252.243 276.733Z" fill="#6B9AC4"/>
<path d="M278.596 14.6576V2.9585H281.232V12.4326H285.859V14.6576H278.596Z" fill="#6B9AC4"/>
<path d="M287.878 14.6576V5.18347H294.316V7.22901H290.514V8.8798H293.778V10.7997H290.514V12.612H294.495V14.6576H287.878Z" fill="#6B9AC4"/>
<path d="M301.117 14.8729C300.424 14.8729 299.772 14.7712 299.163 14.5678C298.553 14.3645 298.021 14.0654 297.567 13.6707C297.112 13.264 296.754 12.7556 296.491 12.1455C296.228 11.5354 296.096 10.8177 296.096 9.99228C296.096 9.19081 296.228 8.47906 296.491 7.85703C296.766 7.23499 297.13 6.70865 297.585 6.27801C298.051 5.84737 298.589 5.52439 299.199 5.30907C299.82 5.08179 300.478 4.96815 301.171 4.96815C301.889 4.96815 302.51 5.09973 303.036 5.3629C303.562 5.61411 304.005 5.90718 304.363 6.24213L302.947 7.8032C302.696 7.57591 302.439 7.40844 302.175 7.30078C301.912 7.18116 301.584 7.12135 301.189 7.12135C300.484 7.12135 299.904 7.36658 299.45 7.85703C298.995 8.34748 298.768 9.05923 298.768 9.99228C298.768 10.8536 298.971 11.5354 299.378 12.0378C299.796 12.5283 300.442 12.7735 301.315 12.7735C301.697 12.7735 302.008 12.6898 302.247 12.5223V11.033H300.723V9.20278H304.561V13.7066C304.19 14.0535 303.7 14.3346 303.09 14.5499C302.48 14.7652 301.823 14.8729 301.117 14.8729Z" fill="#6B9AC4"/>
<path d="M309.334 10.082L309.155 10.8177H311.002L310.805 10.082C310.685 9.62744 310.565 9.13698 310.446 8.61065C310.338 8.07235 310.219 7.56993 310.087 7.10341H310.016C309.908 7.5819 309.794 8.08431 309.675 8.61065C309.567 9.13698 309.454 9.62744 309.334 10.082ZM305.496 14.6576L308.545 5.18347H311.683L314.75 14.6576H311.988L311.486 12.7197H308.671L308.168 14.6576H305.496Z" fill="#6B9AC4"/>
<path d="M320.218 14.8729C319.573 14.8729 318.957 14.7712 318.371 14.5678C317.797 14.3645 317.295 14.0654 316.865 13.6707C316.434 13.264 316.088 12.7556 315.825 12.1455C315.574 11.5354 315.448 10.8177 315.448 9.99228C315.448 9.19081 315.58 8.47906 315.843 7.85703C316.118 7.23499 316.482 6.70865 316.937 6.27801C317.391 5.84737 317.911 5.52439 318.497 5.30907C319.095 5.08179 319.722 4.96815 320.38 4.96815C321.013 4.96815 321.593 5.09375 322.119 5.34496C322.645 5.5842 323.088 5.87728 323.446 6.22418L322.012 7.8032C321.761 7.57591 321.51 7.40844 321.259 7.30078C321.019 7.19312 320.732 7.13929 320.398 7.13929C320.087 7.13929 319.788 7.20508 319.501 7.33667C319.226 7.45629 318.987 7.63573 318.784 7.87497C318.58 8.10225 318.419 8.38935 318.3 8.73625C318.18 9.08315 318.12 9.47193 318.12 9.90257C318.12 10.8237 318.317 11.5234 318.712 12.0019C319.118 12.4685 319.656 12.7017 320.326 12.7017C320.721 12.7017 321.061 12.63 321.348 12.4864C321.647 12.3429 321.904 12.1634 322.119 11.9481L323.554 13.4912C323.124 13.9578 322.621 14.3047 322.048 14.5319C321.474 14.7592 320.864 14.8729 320.218 14.8729Z" fill="#6B9AC4"/>
<path d="M326.81 14.6576V11.4098L323.797 5.18347H326.594L327.348 7.10341C327.467 7.47424 327.587 7.82712 327.706 8.16206C327.838 8.48504 327.969 8.83793 328.101 9.22072H328.172C328.304 8.83793 328.435 8.48504 328.567 8.16206C328.699 7.82712 328.83 7.47424 328.962 7.10341L329.715 5.18347H332.441L329.446 11.4098V14.6576H326.81Z" fill="#6B9AC4"/>
<path d="M340.457 14.8729C339.704 14.8729 338.98 14.7532 338.287 14.514C337.605 14.2628 337.02 13.9398 336.529 13.5451L337.785 11.7687C338.227 12.1036 338.681 12.3668 339.148 12.5582C339.614 12.7496 340.092 12.8453 340.582 12.8453C340.965 12.8453 341.24 12.7735 341.407 12.63C341.587 12.4744 341.676 12.2771 341.676 12.0378C341.676 11.7866 341.569 11.5892 341.353 11.4457C341.138 11.2902 340.863 11.1466 340.528 11.0151L339.524 10.6382C339.201 10.5186 338.891 10.3811 338.592 10.2255C338.293 10.07 338.03 9.88462 337.803 9.6693C337.575 9.44202 337.39 9.19081 337.247 8.91568C337.115 8.62859 337.049 8.29963 337.049 7.9288C337.049 7.4862 337.139 7.07948 337.318 6.70865C337.498 6.33782 337.749 6.02681 338.072 5.7756C338.406 5.51243 338.801 5.30907 339.255 5.16553C339.71 5.02198 340.218 4.95021 340.78 4.95021C341.557 4.95021 342.226 5.07581 342.788 5.32702C343.35 5.57822 343.84 5.85934 344.259 6.17035L342.967 7.85703C342.621 7.61778 342.256 7.4204 341.873 7.2649C341.503 7.09742 341.114 7.01369 340.708 7.01369C340.385 7.01369 340.134 7.07948 339.955 7.21107C339.775 7.33069 339.686 7.52208 339.686 7.78525C339.686 8.00057 339.787 8.17403 339.99 8.30561C340.206 8.43719 340.487 8.56878 340.833 8.70036L341.82 9.05923C342.166 9.17885 342.489 9.31642 342.788 9.47193C343.099 9.61547 343.368 9.79491 343.595 10.0102C343.822 10.2136 344.002 10.4648 344.133 10.7638C344.265 11.0509 344.33 11.4038 344.33 11.8225C344.33 12.2531 344.241 12.6539 344.061 13.0247C343.894 13.3955 343.643 13.7185 343.308 13.9936C342.973 14.2688 342.567 14.4841 342.089 14.6396C341.61 14.7951 341.066 14.8729 340.457 14.8729Z" fill="#6B9AC4"/>
<path d="M347.808 14.6576V11.4098L344.795 5.18347H347.593L348.346 7.10341C348.465 7.47424 348.585 7.82712 348.704 8.16206C348.836 8.48504 348.967 8.83793 349.099 9.22072H349.171C349.302 8.83793 349.434 8.48504 349.565 8.16206C349.697 7.82712 349.828 7.47424 349.96 7.10341L350.713 5.18347H353.439L350.444 11.4098V14.6576H347.808Z" fill="#6B9AC4"/>
<path d="M357.55 14.8729C356.796 14.8729 356.073 14.7532 355.38 14.514C354.698 14.2628 354.112 13.9398 353.622 13.5451L354.878 11.7687C355.32 12.1036 355.774 12.3668 356.24 12.5582C356.707 12.7496 357.185 12.8453 357.675 12.8453C358.058 12.8453 358.333 12.7735 358.5 12.63C358.679 12.4744 358.769 12.2771 358.769 12.0378C358.769 11.7866 358.661 11.5892 358.446 11.4457C358.231 11.2902 357.956 11.1466 357.621 11.0151L356.617 10.6382C356.294 10.5186 355.983 10.3811 355.685 10.2255C355.386 10.07 355.123 9.88462 354.895 9.6693C354.668 9.44202 354.483 9.19081 354.34 8.91568C354.208 8.62859 354.142 8.29963 354.142 7.9288C354.142 7.4862 354.232 7.07948 354.411 6.70865C354.591 6.33782 354.842 6.02681 355.164 5.7756C355.499 5.51243 355.894 5.30907 356.348 5.16553C356.802 5.02198 357.31 4.95021 357.872 4.95021C358.65 4.95021 359.319 5.07581 359.881 5.32702C360.443 5.57822 360.933 5.85934 361.352 6.17035L360.06 7.85703C359.714 7.61778 359.349 7.4204 358.966 7.2649C358.596 7.09742 358.207 7.01369 357.801 7.01369C357.478 7.01369 357.227 7.07948 357.047 7.21107C356.868 7.33069 356.778 7.52208 356.778 7.78525C356.778 8.00057 356.88 8.17403 357.083 8.30561C357.299 8.43719 357.579 8.56878 357.926 8.70036L358.913 9.05923C359.259 9.17885 359.582 9.31642 359.881 9.47193C360.192 9.61547 360.461 9.79491 360.688 10.0102C360.915 10.2136 361.094 10.4648 361.226 10.7638C361.357 11.0509 361.423 11.4038 361.423 11.8225C361.423 12.2531 361.334 12.6539 361.154 13.0247C360.987 13.3955 360.736 13.7185 360.401 13.9936C360.066 14.2688 359.66 14.4841 359.182 14.6396C358.703 14.7951 358.159 14.8729 357.55 14.8729Z" fill="#6B9AC4"/>
<path d="M364.766 14.6576V7.33667H362.129V5.18347H370.038V7.33667H367.402V14.6576H364.766Z" fill="#6B9AC4"/>
<path d="M371.871 14.6576V5.18347H378.309V7.22901H374.507V8.8798H377.771V10.7997H374.507V12.612H378.488V14.6576H371.871Z" fill="#6B9AC4"/>
<path d="M380.82 14.6576V5.18347H383.51L384.999 9.04129L385.573 10.6382H385.644L386.236 9.04129L387.671 5.18347H390.343V14.6576H387.976V12.0019C387.976 11.7627 387.988 11.4876 388.012 11.1765C388.035 10.8655 388.065 10.5485 388.101 10.2255C388.137 9.8906 388.173 9.56762 388.209 9.25661C388.245 8.94559 388.281 8.67046 388.316 8.43121H388.245L387.348 10.6562L386.003 13.9039H385.142L383.797 10.6562L382.918 8.43121H382.847C382.883 8.67046 382.918 8.94559 382.954 9.25661C382.99 9.56762 383.026 9.8906 383.062 10.2255C383.098 10.5485 383.128 10.8655 383.152 11.1765C383.176 11.4876 383.187 11.7627 383.187 12.0019V14.6576H380.82Z" fill="#6B9AC4"/>
<path d="M396.271 14.8729C395.518 14.8729 394.795 14.7532 394.101 14.514C393.42 14.2628 392.834 13.9398 392.344 13.5451L393.599 11.7687C394.041 12.1036 394.496 12.3668 394.962 12.5582C395.428 12.7496 395.907 12.8453 396.397 12.8453C396.779 12.8453 397.054 12.7735 397.222 12.63C397.401 12.4744 397.491 12.2771 397.491 12.0378C397.491 11.7866 397.383 11.5892 397.168 11.4457C396.953 11.2902 396.678 11.1466 396.343 11.0151L395.339 10.6382C395.016 10.5186 394.705 10.3811 394.406 10.2255C394.107 10.07 393.844 9.88462 393.617 9.6693C393.39 9.44202 393.205 9.19081 393.061 8.91568C392.93 8.62859 392.864 8.29963 392.864 7.9288C392.864 7.4862 392.953 7.07948 393.133 6.70865C393.312 6.33782 393.563 6.02681 393.886 5.7756C394.221 5.51243 394.615 5.30907 395.07 5.16553C395.524 5.02198 396.032 4.95021 396.594 4.95021C397.371 4.95021 398.041 5.07581 398.603 5.32702C399.164 5.57822 399.655 5.85934 400.073 6.17035L398.782 7.85703C398.435 7.61778 398.071 7.4204 397.688 7.2649C397.317 7.09742 396.929 7.01369 396.522 7.01369C396.199 7.01369 395.948 7.07948 395.769 7.21107C395.59 7.33069 395.5 7.52208 395.5 7.78525C395.5 8.00057 395.602 8.17403 395.805 8.30561C396.02 8.43719 396.301 8.56878 396.648 8.70036L397.634 9.05923C397.981 9.17885 398.304 9.31642 398.603 9.47193C398.913 9.61547 399.182 9.79491 399.41 10.0102C399.637 10.2136 399.816 10.4648 399.948 10.7638C400.079 11.0509 400.145 11.4038 400.145 11.8225C400.145 12.2531 400.055 12.6539 399.876 13.0247C399.708 13.3955 399.457 13.7185 399.123 13.9936C398.788 14.2688 398.381 14.4841 397.903 14.6396C397.425 14.7951 396.881 14.8729 396.271 14.8729Z" fill="#6B9AC4"/>
<path d="M669.455 15.779V4.07995H672.091V15.779H669.455Z" fill="#6B9AC4"/>
<path d="M674.849 15.779V6.30493H677.503L679.745 10.4319L680.785 12.6928H680.856C680.821 12.4415 680.785 12.1604 680.749 11.8494C680.713 11.5264 680.677 11.1975 680.641 10.8625C680.617 10.5276 680.593 10.1927 680.57 9.85771C680.546 9.52277 680.534 9.20577 680.534 8.90671V6.30493H682.955V15.779H680.372L678.041 11.6341L677.019 9.39118H676.947C677.007 9.94144 677.072 10.5635 677.144 11.2573C677.228 11.9391 677.27 12.5791 677.27 13.1772V15.779H674.849Z" fill="#6B9AC4"/>
<path d="M687.428 15.779V8.45813H684.792V6.30493H692.701V8.45813H690.064V15.779H687.428Z" fill="#6B9AC4"/>
<path d="M694.533 15.779V6.30493H700.972V8.35047H697.17V10.0013H700.434V11.9212H697.17V13.7335H701.151V15.779H694.533Z" fill="#6B9AC4"/>
<path d="M703.483 15.779V6.30493H707.231C707.769 6.30493 708.283 6.35278 708.773 6.44847C709.263 6.54417 709.688 6.71164 710.046 6.95089C710.417 7.19013 710.71 7.50713 710.925 7.90188C711.14 8.29664 711.248 8.79307 711.248 9.39118C711.248 10.0371 711.093 10.5874 710.782 11.042C710.483 11.4965 710.082 11.8554 709.58 12.1186L711.786 15.779H709.006L707.231 12.6389H706.119V15.779H703.483ZM706.119 10.8446H707.087C707.637 10.8446 708.05 10.731 708.325 10.5037C708.612 10.2644 708.755 9.94742 708.755 9.55267C708.755 9.12203 708.606 8.81699 708.307 8.63756C708.008 8.45813 707.589 8.36841 707.052 8.36841H706.119V10.8446Z" fill="#6B9AC4"/>
<path d="M713.535 15.779V6.30493H716.189L718.431 10.4319L719.471 12.6928H719.543C719.507 12.4415 719.471 12.1604 719.435 11.8494C719.4 11.5264 719.364 11.1975 719.328 10.8625C719.304 10.5276 719.28 10.1927 719.256 9.85771C719.232 9.52277 719.22 9.20577 719.22 8.90671V6.30493H721.641V15.779H719.059L716.727 11.6341L715.705 9.39118H715.633C715.693 9.94144 715.759 10.5635 715.831 11.2573C715.914 11.9391 715.956 12.5791 715.956 13.1772V15.779H713.535Z" fill="#6B9AC4"/>
<path d="M724.411 15.779V6.30493H730.849V8.35047H727.047V10.0013H730.311V11.9212H727.047V13.7335H731.028V15.779H724.411Z" fill="#6B9AC4"/>
<path d="M734.924 15.779V8.45813H732.288V6.30493H740.196V8.45813H737.56V15.779H734.924Z" fill="#6B9AC4"/>
<g clip-path="url(#clip0)">
<path d="M538.753 127.628L576.657 143.528L613.487 127.628V119.678L576.122 103.318L538.753 119.371V127.628Z" stroke="white" stroke-miterlimit="10"/>
<path d="M538.753 119.371L576.811 135.731L613.487 119.678" stroke="white" stroke-miterlimit="10"/>
<path d="M576.657 143.528L576.811 135.731" stroke="white" stroke-miterlimit="10"/>
<path d="M543.577 129.65L538.753 132.213V139.627L576.657 155.606L613.487 139.627V131.449L609.408 129.387" stroke="white" stroke-miterlimit="10"/>
<path d="M538.753 132.213L576.811 147.81L613.487 131.449" stroke="white" stroke-miterlimit="10"/>
<path d="M576.811 147.81L576.657 155.606" stroke="white" stroke-miterlimit="10"/>
<path d="M543.608 152.701L576.657 167.531L613.486 150.929V142.997L609.083 141.54" stroke="white" stroke-miterlimit="10"/>
<path d="M543.288 141.54L539.1 143.527V143.874" stroke="white" stroke-miterlimit="10"/>
<path d="M539.1 143.527L576.657 159.603L613.487 142.997" stroke="white" stroke-miterlimit="10"/>
<path d="M576.657 159.603V167.53" stroke="white" stroke-miterlimit="10"/>
<path d="M542.731 150.31L557.032 143.874" stroke="white" stroke-miterlimit="10"/>
<path d="M523.461 181.109L535.495 175.985L534.539 173.361L537.758 171.931L545.498 157.874L540.617 144.528L530.373 140.118L528.706 135.709L521.913 132.849L510.243 137.973L503.213 150.244L513.458 176.818L523.461 181.109Z" stroke="#6B9AC4" stroke-width="2" stroke-miterlimit="10"/>
<path d="M510.243 137.973L516.913 140.886L518.663 145.26L528.754 149.63L533.763 162.99L526.053 176.823" stroke="#6B9AC4" stroke-width="2" stroke-miterlimit="10"/>
<path d="M523.461 181.109L513.655 154.562L523.461 158.694L520.887 163.468L526.053 176.823L534.539 173.361" stroke="#6B9AC4" stroke-width="2" stroke-miterlimit="10"/>
<path d="M533.763 162.99L545.499 157.874" stroke="#6B9AC4" stroke-width="2" stroke-miterlimit="10"/>
<path d="M528.755 149.63L540.617 144.528" stroke="#6B9AC4" stroke-width="2" stroke-miterlimit="10"/>
<path d="M518.664 145.261L530.373 140.119" stroke="#6B9AC4" stroke-width="2" stroke-miterlimit="10"/>
<path d="M516.913 140.886L528.706 135.709" stroke="#6B9AC4" stroke-width="2" stroke-miterlimit="10"/>
<path d="M572.522 213.427L579.718 200.357L574.837 187.011L564.593 182.601L562.926 178.196L556.138 175.336L544.463 180.46L537.438 192.732L547.678 219.306L555.681 222.737" stroke="#6B9AC4" stroke-width="2" stroke-miterlimit="10"/>
<path d="M544.464 180.46L551.139 183.374L552.884 187.748L562.979 192.118L567.983 205.477L560.743 218.472" stroke="#6B9AC4" stroke-width="2" stroke-miterlimit="10"/>
<path d="M556.467 220.301L547.88 197.048L557.686 201.181L555.111 205.95L560.063 218.761" stroke="#6B9AC4" stroke-width="2" stroke-miterlimit="10"/>
<path d="M567.983 205.477L579.719 200.357" stroke="#6B9AC4" stroke-width="2" stroke-miterlimit="10"/>
<path d="M562.979 192.118L574.838 187.011" stroke="#6B9AC4" stroke-width="2" stroke-miterlimit="10"/>
<path d="M552.884 187.748L564.593 182.602" stroke="#6B9AC4" stroke-width="2" stroke-miterlimit="10"/>
<path d="M551.138 183.373L562.926 178.196" stroke="#6B9AC4" stroke-width="2" stroke-miterlimit="10"/>
<path d="M352.112 135.977L364.141 130.852L363.19 128.233L366.408 126.803L374.149 112.742L369.263 99.3954L359.023 94.9861L357.352 90.5768L350.564 87.7163L338.894 92.8407L331.864 105.116L342.108 131.686L352.112 135.977Z" stroke="#6B9AC4" stroke-width="2" stroke-miterlimit="10"/>
<path d="M338.894 92.8408L345.564 95.754L347.314 100.128L357.405 104.502L362.413 117.857L354.703 131.691" stroke="#6B9AC4" stroke-width="2" stroke-miterlimit="10"/>
<path d="M352.112 135.976L342.306 109.429L352.112 113.562L349.538 118.335L354.704 131.69L363.19 128.233" stroke="#6B9AC4" stroke-width="2" stroke-miterlimit="10"/>
<path d="M362.414 117.857L374.149 112.741" stroke="#6B9AC4" stroke-width="2" stroke-miterlimit="10"/>
<path d="M357.405 104.502L369.264 99.3955" stroke="#6B9AC4" stroke-width="2" stroke-miterlimit="10"/>
<path d="M347.314 100.128L359.023 94.9863" stroke="#6B9AC4" stroke-width="2" stroke-miterlimit="10"/>
<path d="M345.564 95.7537L357.352 90.5767" stroke="#6B9AC4" stroke-width="2" stroke-miterlimit="10"/>
<path d="M228.647 250.991L240.676 245.866L239.724 243.243L242.939 241.812L250.684 227.751L245.798 214.409L235.554 210L233.887 205.591L227.098 202.73L215.424 207.854L208.399 220.126L218.643 246.7L228.647 250.991Z" stroke="#6B9AC4" stroke-width="2" stroke-miterlimit="10"/>
<path d="M215.425 207.854L222.099 210.768L223.849 215.142L233.94 219.512L238.948 232.871L231.239 246.704" stroke="#6B9AC4" stroke-width="2" stroke-miterlimit="10"/>
<path d="M228.646 250.991L218.84 224.443L228.646 228.576L226.072 233.345L231.238 246.704L239.724 243.243" stroke="#6B9AC4" stroke-width="2" stroke-miterlimit="10"/>
<path d="M238.948 232.871L250.684 227.751" stroke="#6B9AC4" stroke-width="2" stroke-miterlimit="10"/>
<path d="M233.94 219.512L245.798 214.409" stroke="#6B9AC4" stroke-width="2" stroke-miterlimit="10"/>
<path d="M223.849 215.142L235.554 210" stroke="#6B9AC4" stroke-width="2" stroke-miterlimit="10"/>
<path d="M222.099 210.767L233.887 205.59" stroke="#6B9AC4" stroke-width="2" stroke-miterlimit="10"/>
<path d="M352.633 336.697L364.663 331.573L363.711 328.953L366.926 327.523L374.666 313.462L369.785 300.116L359.541 295.706L357.874 291.297L351.085 288.437L339.411 293.561L332.385 305.837L342.626 332.406L352.633 336.697Z" stroke="#6B9AC4" stroke-width="2" stroke-miterlimit="10"/>
<path d="M339.411 293.561L346.082 296.479L347.832 300.848L357.927 305.222L362.931 318.577L355.221 332.411" stroke="#6B9AC4" stroke-width="2" stroke-miterlimit="10"/>
<path d="M352.633 336.697L342.827 310.149L352.633 314.287L350.059 319.056L355.221 332.411L363.711 328.954" stroke="#6B9AC4" stroke-width="2" stroke-miterlimit="10"/>
<path d="M362.931 318.577L374.666 313.462" stroke="#6B9AC4" stroke-width="2" stroke-miterlimit="10"/>
<path d="M357.927 305.223L369.785 300.116" stroke="#6B9AC4" stroke-width="2" stroke-miterlimit="10"/>
<path d="M347.831 300.848L359.54 295.707" stroke="#6B9AC4" stroke-width="2" stroke-miterlimit="10"/>
<path d="M346.082 296.478L357.874 291.297" stroke="#6B9AC4" stroke-width="2" stroke-miterlimit="10"/>
<path d="M398.084 356.541L410.114 351.416L409.162 348.797L412.377 347.367L420.122 333.306L415.236 319.959L404.996 315.55L403.325 311.141L396.536 308.28L384.862 313.405L377.837 325.68L388.081 352.254L398.084 356.541Z" stroke="#6B9AC4" stroke-width="2" stroke-miterlimit="10"/>
<path d="M384.863 313.405L391.537 316.322L393.287 320.692L403.378 325.066L408.386 338.421L400.677 352.254" stroke="#6B9AC4" stroke-width="2" stroke-miterlimit="10"/>
<path d="M398.084 356.541L388.278 329.993L398.084 334.13L395.51 338.899L400.676 352.254L409.162 348.797" stroke="#6B9AC4" stroke-width="2" stroke-miterlimit="10"/>
<path d="M408.386 338.421L420.122 333.306" stroke="#6B9AC4" stroke-width="2" stroke-miterlimit="10"/>
<path d="M403.378 325.066L415.236 319.959" stroke="#6B9AC4" stroke-width="2" stroke-miterlimit="10"/>
<path d="M393.287 320.692L404.996 315.55" stroke="#6B9AC4" stroke-width="2" stroke-miterlimit="10"/>
<path d="M391.537 316.323L403.325 311.141" stroke="#6B9AC4" stroke-width="2" stroke-miterlimit="10"/>
<path d="M441.957 374.84L453.986 369.716L453.035 367.092L456.249 365.662L463.994 351.601L459.108 338.254L448.864 333.845L447.197 329.44L440.409 326.58L428.734 331.704L421.709 343.975L431.953 370.549L441.957 374.84Z" stroke="#6B9AC4" stroke-width="2" stroke-miterlimit="10"/>
<path d="M428.735 331.704L435.41 334.617L437.155 338.987L447.25 343.361L452.254 356.721L444.549 370.554" stroke="#6B9AC4" stroke-width="2" stroke-miterlimit="10"/>
<path d="M441.957 374.84L432.151 348.292L441.957 352.425L439.383 357.194L444.549 370.554L453.035 367.092" stroke="#6B9AC4" stroke-width="2" stroke-miterlimit="10"/>
<path d="M452.254 356.721L463.994 351.601" stroke="#6B9AC4" stroke-width="2" stroke-miterlimit="10"/>
<path d="M447.25 343.361L459.109 338.254" stroke="#6B9AC4" stroke-width="2" stroke-miterlimit="10"/>
<path d="M437.155 338.987L448.864 333.845" stroke="#6B9AC4" stroke-width="2" stroke-miterlimit="10"/>
<path d="M435.409 334.617L447.197 329.44" stroke="#6B9AC4" stroke-width="2" stroke-miterlimit="10"/>
<path d="M135.678 246.704L98.1869 230.313V183.364L135.678 167.223L172.736 183.364V230.313L135.678 246.704Z" stroke="white" stroke-miterlimit="10"/>
<path d="M98.1869 183.364L135.464 199.281L172.736 183.364" stroke="white" stroke-miterlimit="10"/>
<path d="M135.678 246.704L135.463 199.282" stroke="white" stroke-miterlimit="10"/>
<path d="M143.818 170.769V163.516L181.02 147.345L217.424 163.301V206.964" stroke="white" stroke-miterlimit="10"/>
<path d="M212.1 213.663L180.621 227.277L172.736 223.254" stroke="white" stroke-miterlimit="10"/>
<path d="M143.818 163.516L180.621 179.973L217.424 163.301" stroke="white" stroke-miterlimit="10"/>
<path d="M180.621 227.277V179.973" stroke="white" stroke-miterlimit="10"/>
<path d="M123.969 172.265V162.499L86.3677 145.84L49.4243 162.196V209.456L86.6966 225.663L98.1866 220.473" stroke="white" stroke-miterlimit="10"/>
<path d="M49.4243 162.196L86.6966 178.403L123.969 162.499" stroke="white" stroke-miterlimit="10"/>
<path d="M86.6967 178.402V225.663" stroke="white" stroke-miterlimit="10"/>
<path d="M74.5884 151.056V141.141L37.1626 124.785L0.219238 141.295V188.704L37.4038 204.608L49.4245 199.282" stroke="white" stroke-miterlimit="10"/>
<path d="M0.219238 141.294L37.4038 157.501L74.5884 141.141" stroke="white" stroke-miterlimit="10"/>
<path d="M37.4041 157.501V204.608" stroke="white" stroke-miterlimit="10"/>
<path d="M45.1796 128.286V121.604L81.9783 105.397L119.676 121.753V131.449" stroke="white" stroke-miterlimit="10"/>
<path d="M168.745 152.679V142.659L131.337 126.298L94.6959 142.808V149.529" stroke="white" stroke-miterlimit="10"/>
<path d="M45.1796 121.604L82.4256 137.96L119.676 121.753" stroke="white" stroke-miterlimit="10"/>
<path d="M94.6959 142.808L131.718 159.015L168.745 142.659" stroke="white" stroke-miterlimit="10"/>
<path d="M82.4257 137.96V147.581" stroke="white" stroke-miterlimit="10"/>
<path d="M131.719 159.015V168.93" stroke="white" stroke-miterlimit="10"/>
<path d="M172.736 200.365L210.557 216.357" stroke="white" stroke-miterlimit="10"/>
<path d="M440.642 353.303L409.943 365.961" stroke="white" stroke-miterlimit="10"/>
<path d="M396.769 335.008L365.518 347.235" stroke="white" stroke-miterlimit="10"/>
<path d="M351.318 315.164L320.843 327.738" stroke="white" stroke-miterlimit="10"/>
<path d="M324.697 335.315V329.199L287.254 313.295L250.113 329.199V337.302L287.403 353.72L295.209 350.175" stroke="white" stroke-miterlimit="10"/>
<path d="M339.06 375.371L376.964 391.271L413.798 375.371V367.421L376.429 351.061L339.06 367.114V375.371Z" stroke="white" stroke-miterlimit="10"/>
<path d="M413.798 367.421L377.117 383.475L339.06 367.114" stroke="white" stroke-miterlimit="10"/>
<path d="M376.964 391.271L377.117 383.475" stroke="white" stroke-miterlimit="10"/>
<path d="M343.889 377.398L339.06 379.96V387.375L376.964 403.353L413.798 387.375V379.192L409.715 377.135" stroke="white" stroke-miterlimit="10"/>
<path d="M339.06 379.96L377.117 395.552L413.798 379.192" stroke="white" stroke-miterlimit="10"/>
<path d="M377.117 395.553L376.964 403.354" stroke="white" stroke-miterlimit="10"/>
<path d="M343.595 389.283L339.411 391.271V398.422L376.964 415.274L413.798 398.672V390.74L409.39 389.283" stroke="white" stroke-miterlimit="10"/>
<path d="M339.411 391.271L376.964 407.346L413.798 390.74" stroke="white" stroke-miterlimit="10"/>
<path d="M376.964 407.346V415.274" stroke="white" stroke-miterlimit="10"/>
<path d="M369.368 354.092V348.696L332.048 332.151L295.209 348.292V356.497L332.289 372.502L339.06 369.137" stroke="white" stroke-miterlimit="10"/>
<path d="M369.368 348.696L332.289 364.298L295.209 348.292" stroke="white" stroke-miterlimit="10"/>
<path d="M332.289 364.298V372.502" stroke="white" stroke-miterlimit="10"/>
<path d="M299.507 358.348L295.209 360.801V368.4L332.289 384.47L339.06 381.11" stroke="white" stroke-miterlimit="10"/>
<path d="M295.209 360.801L332.289 376.302L339.06 373.441" stroke="white" stroke-miterlimit="10"/>
<path d="M332.289 376.301V384.47" stroke="white" stroke-miterlimit="10"/>
<path d="M299.332 370.186L295.209 372.502V379.899L332.289 396.172L339.411 392.539" stroke="white" stroke-miterlimit="10"/>
<path d="M295.209 372.502L332.289 388.371L339.06 385.142" stroke="white" stroke-miterlimit="10"/>
<path d="M332.289 388.371V396.171" stroke="white" stroke-miterlimit="10"/>
<path d="M324.697 329.199L287.403 345.2L250.113 329.199" stroke="white" stroke-miterlimit="10"/>
<path d="M287.404 345.199V353.719" stroke="white" stroke-miterlimit="10"/>
<path d="M254.609 339.281L250.113 341.431V348.828L287.403 365.64L295.209 362.143" stroke="white" stroke-miterlimit="10"/>
<path d="M250.113 341.431L287.403 357.436L295.209 353.965" stroke="white" stroke-miterlimit="10"/>
<path d="M287.404 365.64V357.436" stroke="white" stroke-miterlimit="10"/>
<path d="M254.859 350.969L250.113 353.022V360.801L287.403 376.92L295.209 373.305" stroke="white" stroke-miterlimit="10"/>
<path d="M250.113 353.022L287.403 369.027L295.209 365.64" stroke="white" stroke-miterlimit="10"/>
<path d="M287.404 369.027V376.92" stroke="white" stroke-miterlimit="10"/>
<path d="M630.266 226.755V220.639L592.822 204.739L555.682 220.639V228.742L592.971 245.16L600.778 241.615" stroke="white" stroke-miterlimit="10"/>
<path d="M644.632 266.811L682.532 282.715L719.365 266.811V258.861L681.997 242.501L644.632 258.559V266.811Z" stroke="white" stroke-miterlimit="10"/>
<path d="M644.632 258.559L682.685 274.919L719.365 258.862" stroke="white" stroke-miterlimit="10"/>
<path d="M682.532 282.715L682.685 274.919" stroke="white" stroke-miterlimit="10"/>
<path d="M649.456 268.838L644.632 271.4V278.815L682.532 294.793L719.365 278.815V270.637L715.283 268.575" stroke="white" stroke-miterlimit="10"/>
<path d="M644.632 271.401L682.685 286.997L719.365 270.637" stroke="white" stroke-miterlimit="10"/>
<path d="M682.685 286.997L682.532 294.793" stroke="white" stroke-miterlimit="10"/>
<path d="M649.163 280.728L644.979 282.715V289.866L682.532 306.718L719.366 290.112V282.184L714.959 280.728" stroke="white" stroke-miterlimit="10"/>
<path d="M644.979 282.715L682.532 298.786L719.366 282.185" stroke="white" stroke-miterlimit="10"/>
<path d="M682.532 298.786V306.718" stroke="white" stroke-miterlimit="10"/>
<path d="M674.941 245.537V240.136L637.616 223.596L600.778 239.733V247.937L637.857 263.942L644.632 260.581" stroke="white" stroke-miterlimit="10"/>
<path d="M600.778 239.732L637.857 255.737L674.941 240.136" stroke="white" stroke-miterlimit="10"/>
<path d="M637.857 255.738V263.942" stroke="white" stroke-miterlimit="10"/>
<path d="M605.075 249.793L600.778 252.241V259.84L637.857 275.911L644.632 272.55" stroke="white" stroke-miterlimit="10"/>
<path d="M600.778 252.241L637.857 267.741L644.632 264.885" stroke="white" stroke-miterlimit="10"/>
<path d="M637.857 267.741V275.91" stroke="white" stroke-miterlimit="10"/>
<path d="M604.9 261.625L600.778 263.942V271.339L637.857 287.612L644.979 283.983" stroke="white" stroke-miterlimit="10"/>
<path d="M600.778 263.942L637.857 279.811L644.632 276.586" stroke="white" stroke-miterlimit="10"/>
<path d="M637.857 279.811V287.612" stroke="white" stroke-miterlimit="10"/>
<path d="M555.682 220.639L592.971 236.64L630.266 220.639" stroke="white" stroke-miterlimit="10"/>
<path d="M592.972 236.64V245.16" stroke="white" stroke-miterlimit="10"/>
<path d="M560.177 230.721L555.682 232.875V240.272L592.971 257.085L600.778 253.588" stroke="white" stroke-miterlimit="10"/>
<path d="M555.682 232.875L592.971 248.88L600.778 245.405" stroke="white" stroke-miterlimit="10"/>
<path d="M592.972 257.084V248.88" stroke="white" stroke-miterlimit="10"/>
<path d="M560.431 242.414L555.682 244.462V252.241L592.971 268.36L600.778 264.745" stroke="white" stroke-miterlimit="10"/>
<path d="M555.682 244.462L592.971 260.467L600.778 257.084" stroke="white" stroke-miterlimit="10"/>
<path d="M592.972 260.467V268.36" stroke="white" stroke-miterlimit="10"/>
<path d="M734.57 219.806L771.408 236.144V243.769L734.57 260.116L697.14 243.769V236.144L734.57 219.806Z" stroke="white" stroke-miterlimit="10"/>
<path d="M697.14 236.144L734.57 252.245L771.408 236.144" stroke="white" stroke-miterlimit="10"/>
<path d="M734.57 252.245V260.116" stroke="white" stroke-miterlimit="10"/>
<path d="M766.729 245.844L771.409 248.117V256.181L734.57 272.686L719.366 265.666" stroke="white" stroke-miterlimit="10"/>
<path d="M702.219 245.984L697.14 248.038V249.13" stroke="white" stroke-miterlimit="10"/>
<path d="M697.14 248.038L734.57 264.42L771.408 248.117" stroke="white" stroke-miterlimit="10"/>
<path d="M734.57 264.42V272.686" stroke="white" stroke-miterlimit="10"/>
<path d="M767.339 258.001L771.409 259.739V267.697L734.57 283.996L719.366 277.214" stroke="white" stroke-miterlimit="10"/>
<path d="M716.787 267.926L734.57 276.196L771.409 259.739" stroke="white" stroke-miterlimit="10"/>
<path d="M734.57 283.996V276.196" stroke="white" stroke-miterlimit="10"/>
<path d="M727.361 222.951V217.072L689.922 200.922L652.886 217.072V225.259L690.124 241.33L697.141 237.82" stroke="white" stroke-miterlimit="10"/>
<path d="M652.886 217.072L690.124 233.139L727.361 217.072" stroke="white" stroke-miterlimit="10"/>
<path d="M690.123 233.139V241.33" stroke="white" stroke-miterlimit="10"/>
<path d="M657.526 227.264L652.886 228.988V230.361" stroke="white" stroke-miterlimit="10"/>
<path d="M652.886 228.988L690.124 245.16L697.14 241.988" stroke="white" stroke-miterlimit="10"/>
<path d="M690.123 246.06V245.16" stroke="white" stroke-miterlimit="10"/>
<path d="M682.44 204.187V198.005L645.641 181.636L607.926 198.005V205.946L645.185 222.385L652.886 218.59" stroke="white" stroke-miterlimit="10"/>
<path d="M607.926 198.005L645.185 214.304L682.44 198.005" stroke="white" stroke-miterlimit="10"/>
<path d="M645.186 214.304V222.385" stroke="white" stroke-miterlimit="10"/>
<path d="M612.671 208.039L607.926 210.158V211.154" stroke="white" stroke-miterlimit="10"/>
<path d="M607.926 210.158L645.185 226.04L652.886 222.736" stroke="white" stroke-miterlimit="10"/>
<path d="M645.186 226.04V226.948" stroke="white" stroke-miterlimit="10"/>
<path d="M218.753 51.1611V45.0452L181.31 29.1455L144.169 45.0452V53.1486L181.463 69.5659L189.265 66.021" stroke="white" stroke-miterlimit="10"/>
<path d="M233.12 91.2174L271.019 107.121L307.853 91.2174V83.2676L270.484 66.9072L233.12 82.9648V91.2174Z" stroke="white" stroke-miterlimit="10"/>
<path d="M233.12 82.9653L271.173 99.3213L307.853 83.2681" stroke="white" stroke-miterlimit="10"/>
<path d="M271.02 107.121L271.173 99.3208" stroke="white" stroke-miterlimit="10"/>
<path d="M237.944 93.2442L233.12 95.8064V103.221L271.019 119.2L307.853 103.221V95.043L303.77 92.981" stroke="white" stroke-miterlimit="10"/>
<path d="M233.12 95.8068L271.173 111.404L307.853 95.0435" stroke="white" stroke-miterlimit="10"/>
<path d="M271.173 111.403L271.02 119.2" stroke="white" stroke-miterlimit="10"/>
<path d="M237.65 105.134L233.467 107.121V114.273L271.02 131.124L307.853 114.518V106.59L303.446 105.134" stroke="white" stroke-miterlimit="10"/>
<path d="M233.467 107.122L271.02 123.192L307.853 106.591" stroke="white" stroke-miterlimit="10"/>
<path d="M271.02 123.192V131.125" stroke="white" stroke-miterlimit="10"/>
<path d="M263.428 69.9434V64.5426L226.103 48.0024L189.265 64.139V72.3433L226.344 88.3483L233.12 84.9876" stroke="white" stroke-miterlimit="10"/>
<path d="M189.265 64.1387L226.344 80.1436L263.428 64.5423" stroke="white" stroke-miterlimit="10"/>
<path d="M226.344 80.144V88.3483" stroke="white" stroke-miterlimit="10"/>
<path d="M193.563 74.1992L189.265 76.6473V84.2462L226.344 100.317L233.12 96.9563" stroke="white" stroke-miterlimit="10"/>
<path d="M189.265 76.647L226.344 92.1474L233.12 89.2912" stroke="white" stroke-miterlimit="10"/>
<path d="M226.344 92.1475V100.317" stroke="white" stroke-miterlimit="10"/>
<path d="M193.387 86.0317L189.265 88.3482V95.7453L226.344 112.018L233.466 108.39" stroke="white" stroke-miterlimit="10"/>
<path d="M189.265 88.3481L226.344 104.217L233.12 100.992" stroke="white" stroke-miterlimit="10"/>
<path d="M226.344 104.217V112.018" stroke="white" stroke-miterlimit="10"/>
<path d="M144.169 45.0454L181.463 61.046L218.753 45.0454" stroke="white" stroke-miterlimit="10"/>
<path d="M181.464 61.0459V69.5661" stroke="white" stroke-miterlimit="10"/>
<path d="M148.664 55.1274L144.169 57.2816V64.6786L181.463 81.4909L189.265 77.9942" stroke="white" stroke-miterlimit="10"/>
<path d="M144.169 57.2817L181.463 73.2867L189.265 69.8119" stroke="white" stroke-miterlimit="10"/>
<path d="M181.464 81.4909V73.2866" stroke="white" stroke-miterlimit="10"/>
<path d="M148.919 66.8198L144.169 68.8687V76.6474L181.463 92.7664L189.265 89.1513" stroke="white" stroke-miterlimit="10"/>
<path d="M144.169 68.8687L181.463 84.8736L189.265 81.491" stroke="white" stroke-miterlimit="10"/>
<path d="M181.464 84.8735V92.7663" stroke="white" stroke-miterlimit="10"/>
<path d="M323.058 44.2119L359.896 60.5503V68.1755L323.058 84.5226L285.628 68.1755V60.5503L323.058 44.2119Z" stroke="white" stroke-miterlimit="10"/>
<path d="M285.628 60.5498L323.058 76.6513L359.896 60.5498" stroke="white" stroke-miterlimit="10"/>
<path d="M323.058 76.6519V84.5227" stroke="white" stroke-miterlimit="10"/>
<path d="M355.217 70.2505L359.896 72.5231V80.587L323.058 97.0921L307.853 90.0724" stroke="white" stroke-miterlimit="10"/>
<path d="M290.706 70.3906L285.628 72.4439V73.5363" stroke="white" stroke-miterlimit="10"/>
<path d="M285.628 72.4443L323.058 88.8266L359.896 72.5233" stroke="white" stroke-miterlimit="10"/>
<path d="M323.058 88.8267V97.0924" stroke="white" stroke-miterlimit="10"/>
<path d="M332.329 104.3L323.058 108.402L307.853 101.62" stroke="white" stroke-miterlimit="10"/>
<path d="M355.826 82.4077L359.896 84.1451V92.0993L358.225 92.8408" stroke="white" stroke-miterlimit="10"/>
<path d="M351.252 88.0058L359.896 84.145" stroke="white" stroke-miterlimit="10"/>
<path d="M305.275 92.332L323.058 100.602L338.363 93.7667" stroke="white" stroke-miterlimit="10"/>
<path d="M323.058 108.403V100.602" stroke="white" stroke-miterlimit="10"/>
<path d="M315.848 47.3574V41.4784L278.409 25.3286L241.374 41.4784V49.6651L278.611 65.7359L285.628 62.226" stroke="white" stroke-miterlimit="10"/>
<path d="M241.374 41.4785L278.611 57.5449L315.848 41.4785" stroke="white" stroke-miterlimit="10"/>
<path d="M278.611 57.5449V65.7361" stroke="white" stroke-miterlimit="10"/>
<path d="M246.014 51.6699L241.374 53.3941V54.7674" stroke="white" stroke-miterlimit="10"/>
<path d="M241.374 53.3945L278.611 69.5662L285.628 66.3942" stroke="white" stroke-miterlimit="10"/>
<path d="M278.611 70.4658V69.5664" stroke="white" stroke-miterlimit="10"/>
<path d="M270.928 28.5928V22.4111L234.129 6.04199L196.414 22.4111V30.3521L233.673 46.7914L241.374 42.9964" stroke="white" stroke-miterlimit="10"/>
<path d="M196.414 22.4111L233.673 38.71L270.928 22.4111" stroke="white" stroke-miterlimit="10"/>
<path d="M233.673 38.71V46.7914" stroke="white" stroke-miterlimit="10"/>
<path d="M201.159 32.4448L196.414 34.5639V35.5598" stroke="white" stroke-miterlimit="10"/>
<path d="M196.414 34.564L233.673 50.4461L241.374 47.1424" stroke="white" stroke-miterlimit="10"/>
<path d="M233.673 50.4458V51.354" stroke="white" stroke-miterlimit="10"/>
<path d="M613.487 137.254C613.487 137.254 660.986 157.378 670.354 161.428C679.717 165.477 685.501 162.933 688.505 155.066C691.509 147.2 688.966 133.068 678.331 123.421C678.331 123.421 679.37 107.297 671.626 97.3468C663.881 87.4007 658.947 84.391 651.584 81.0391C651.584 81.0391 651.158 64.7314 637.98 50.3892C624.802 36.0471 609.075 31.9976 597.397 39.1709C585.718 46.3441 586.876 70.2857 586.876 70.2857C586.876 70.2857 577.035 57.602 564.098 66.1222C552.419 73.8132 556.813 97.3467 564.098 108.482" stroke="white" stroke-miterlimit="10"/>
<path d="M647.944 16.5759C658.539 13.983 671.055 18.8266 681.861 30.5846C695.04 44.9267 695.465 61.2344 695.465 61.2344C702.824 64.5907 707.758 67.596 715.507 77.5421C723.252 87.4881 722.212 103.616 722.212 103.616C732.847 113.264 735.391 127.395 732.387 135.262C731.145 138.513 729.431 140.851 727.181 142.194L682.971 162.182" stroke="white" stroke-miterlimit="10"/>
<path d="M599.607 37.9688L647.944 16.5762" stroke="white" stroke-miterlimit="10"/>
<path d="M567.132 64.4721L588.178 55.2412" stroke="white" stroke-miterlimit="10"/>
<path d="M651.584 81.0388L695.465 61.2388" stroke="white" stroke-miterlimit="10"/>
<path d="M678.331 123.42L722.212 103.62" stroke="white" stroke-miterlimit="10"/>
<path d="M491.552 172.681L522.514 159.111" stroke="white" stroke-miterlimit="10"/>
<path d="M612.066 119.055L623.288 113.97" stroke="white" stroke-miterlimit="10"/>
<path d="M366.86 226.47L298.481 255.523L244.404 232.871" stroke="white" stroke-miterlimit="10"/>
<path d="M366.101 119.2L379.38 125.452" stroke="white" stroke-miterlimit="10"/>
<path d="M490.526 169.874L538.473 189.564" stroke="white" stroke-miterlimit="10"/>
<path d="M573.198 205.477L582.368 209.215" stroke="white" stroke-miterlimit="10"/>
<path d="M298.482 255.523L485.019 332.678L461.644 343.362" stroke="white" stroke-miterlimit="10"/>
<path d="M417.543 325.066L441.304 314.598" stroke="white" stroke-miterlimit="10"/>
<path d="M372.092 305.222L394.563 295.263" stroke="white" stroke-miterlimit="10"/>
<path d="M421.073 287.339L465.367 268.474L461.858 258.822L473.699 253.557L502.205 201.787L484.224 152.649L446.509 136.415L440.369 120.182L415.372 109.653L372.394 128.518L346.52 173.708L384.235 271.545L421.073 287.339Z" stroke="#6B9AC4" stroke-width="2" stroke-miterlimit="10"/>
<path d="M372.394 128.519L396.962 139.25L403.4 155.347L440.558 171.449L458.995 220.626L430.612 271.558" stroke="#6B9AC4" stroke-width="2" stroke-miterlimit="10"/>
<path d="M421.073 287.339L384.963 189.599L421.073 204.818L411.592 222.381L430.612 271.558L461.858 258.822" stroke="#6B9AC4" stroke-width="2" stroke-miterlimit="10"/>
<path d="M458.994 220.626L502.205 201.787" stroke="#6B9AC4" stroke-width="2" stroke-miterlimit="10"/>
<path d="M440.558 171.448L484.224 152.648" stroke="#6B9AC4" stroke-width="2" stroke-miterlimit="10"/>
<path d="M403.4 155.347L446.509 136.416" stroke="#6B9AC4" stroke-width="2" stroke-miterlimit="10"/>
<path d="M396.962 139.25L440.369 120.183" stroke="#6B9AC4" stroke-width="2" stroke-miterlimit="10"/>
</g>
<defs>
<clipPath id="clip0">
<rect width="771.628" height="425.408" fill="white" transform="translate(0 0.195801)"/>
</clipPath>
</defs>
</svg>
