<svg width="185" height="46" viewBox="0 0 185 46" fill="none" xmlns="http://www.w3.org/2000/svg">
<path d="M61.2557 16.5386H66.3065L67.3049 15.5901V11.737L66.3652 10.7886H61.3144V16.5386H61.2557ZM58.4954 24.6004V8.35815H67.5398L69.9477 10.7886V16.5386L67.5398 18.969H61.1969V24.5411H58.4954V24.6004Z" fill="white"/>
<path d="M79.2858 16.1829H84.6303L85.57 15.2344V11.737L84.6303 10.7886H79.2858V16.1829ZM76.5255 24.6004V8.35815H85.8636L88.2715 10.7886V16.1829L86.0398 18.4355L88.7414 24.6004H85.7461L83.2207 18.6133H79.2858V24.6004H76.5255Z" fill="white"/>
<path d="M99.3128 22.17H104.657L105.597 21.2216V11.7963L104.657 10.8478H99.3128L98.3731 11.7963V21.2216L99.3128 22.17ZM98.0207 24.6004L95.6128 22.17V10.7886L98.0207 8.35815H105.891L108.299 10.7886V22.1107L105.891 24.5411H98.0207V24.6004Z" fill="white"/>
<path d="M113.995 24.6004L118.694 16.1829L114.054 8.35815H117.167L120.808 14.6417H121.278L124.919 8.35815H128.032L123.392 16.1829L128.091 24.6004H124.978L121.278 17.8427H120.808L117.167 24.6004H113.995Z" fill="white"/>
<path d="M134.433 24.6004V8.35815H145.416V10.8478H137.135V14.8195H144.711V17.3092H137.135V22.0515H145.416V24.6004H134.433Z" fill="white"/>
<path d="M155.341 22.17H160.627L162.565 20.2138V12.6855L160.627 10.7293H155.341V22.17ZM152.64 24.6004V8.35815H161.919L165.325 11.7963V21.2216L161.919 24.6597H152.64V24.6004Z" fill="white"/>
<path d="M175.955 22.17H181.3L182.239 21.2216V11.7963L181.3 10.8478H175.955L175.016 11.7963V21.2216L175.955 22.17ZM174.722 24.6004L172.314 22.17V10.7886L174.722 8.35815H182.592L185 10.7886V22.1107L182.592 24.5411H174.722V24.6004Z" fill="white"/>
<path d="M60.6684 39.7758H62.489L61.7255 36.9898H61.4906L60.6684 39.7758ZM58.4954 42.3248L60.4922 35.8042H62.6065L64.6033 42.3248H63.135L62.7239 40.9021H60.316L59.9049 42.3248H58.4954Z" fill="#17A697"/>
<path d="M71.0634 39.0645H72.9428L73.2952 38.7088V37.2862L72.9428 36.9305H71.0634V39.0645ZM69.7126 42.3248V35.8042H73.7063L74.7047 36.8119V39.1831L73.7063 40.1908H71.0634V42.3248H69.7126Z" fill="#17A697"/>
<path d="M79.5793 42.3246V41.1983H80.2841V36.9896H79.5793V35.8633H82.2809V36.9896H81.5762V41.1983H82.2809V42.3246H79.5793Z" fill="#17A697"/>
<path d="M94.2032 42.3246V41.1983H97.4921L97.7857 40.8427V39.8942L97.4921 39.5385L94.908 39.5978L93.9683 38.5901V36.8117L94.908 35.8633H98.8429V36.9896H95.6714L95.3191 37.3452V38.0566L95.6714 38.4123H98.1968L99.1365 39.42V41.3762L98.1968 42.3246H94.2032Z" fill="#17A697"/>
<path d="M104.599 42.3246V35.8633H109.297V36.9896H106.008V38.4123H108.945V39.5385H106.008V41.1391H109.297V42.3246H104.599Z" fill="#17A697"/>
<path d="M115.522 42.3246L114.583 41.3762V36.8117L115.522 35.8633H118.694L119.634 36.7525L118.753 37.6416L118.107 36.9303H116.286L115.934 37.286V40.9019L116.286 41.2576H118.165L118.811 40.5463L119.692 41.3762L118.753 42.3246H115.522Z" fill="#17A697"/>
<path d="M125.859 42.3246L124.86 41.3762V35.8633H126.27V40.9019L126.622 41.2576H128.56L128.913 40.9019V35.8633H130.264V41.3762L129.265 42.3246H125.859Z" fill="#17A697"/>
<path d="M137.194 38.9459H139.191L139.543 38.5903V37.2862L139.191 36.9305H137.194V38.9459ZM135.843 42.3248V35.8042H139.895L140.894 36.8119V39.0645L140.072 39.8944L141.129 42.3841H139.66L138.721 40.0722H137.194V42.3841H135.843V42.3248Z" fill="#17A697"/>
<path d="M146.238 42.3246V41.1983H146.943V36.9896H146.238V35.8633H148.94V36.9896H148.294L148.235 41.1983H148.94V42.3246H146.238Z" fill="#17A697"/>
<path d="M155.635 42.3246V36.9896H153.873V35.8633H158.806V36.9896H156.986V42.3246H155.635Z" fill="#17A697"/>
<path d="M165.56 42.3246V40.0128L165.267 39.7164L163.387 35.8633H164.973L166.148 38.7679H166.382L167.557 35.8633H169.143L167.263 39.7164L166.911 40.0128V42.3246H165.56Z" fill="#17A697"/>
<path fill-rule="evenodd" clip-rule="evenodd" d="M10.454 0H20.9079L23.4921 4.62371H27.9556H39.173L46.9841 18.3763L35.0032 39.5387L27.1333 25.7861L31.3032 18.3763H15.681L31.3032 46H15.681L0 18.3763L7.81111 4.62371L10.454 0Z" fill="#17A697"/>
</svg>
