<svg width="185" height="45" viewBox="0 0 185 45" fill="none" xmlns="http://www.w3.org/2000/svg">
<path d="M60.8712 15.4849H65.9011L66.9242 14.5438V10.694L65.9864 9.75296H60.9564V15.4849H60.8712ZM58.1431 23.4412V7.27197H67.2652L69.6523 9.66741V15.3993L67.2652 17.7948H60.9564V23.3556H58.1431V23.4412Z" fill="white"/>
<path d="M78.9447 15.1427H84.3156L85.2534 14.2016V10.694L84.3156 9.75296H78.9447V15.1427ZM76.2166 23.4412V7.27197H85.5944L87.9815 9.66741V15.0571L85.7649 17.2815L88.493 23.4412H85.4239L82.8663 17.4526H78.9447V23.4412H76.2166Z" fill="white"/>
<path d="M99.0643 21.0456H104.435L105.373 20.1046V10.6939L104.435 9.75286H99.0643L98.1265 10.6939V20.1046L99.0643 21.0456ZM97.7855 23.4411L95.3984 21.0456V9.75286L97.7855 7.35742H105.714L108.101 9.75286V21.0456L105.714 23.4411H97.7855Z" fill="white"/>
<path d="M113.813 23.4412L118.502 15.0571L113.813 7.27197H116.968L120.634 13.6028H121.145L124.726 7.27197H127.88L123.191 15.0571L127.966 23.4412H124.811L121.145 16.7682H120.634L116.968 23.4412H113.813Z" fill="white"/>
<path d="M134.274 23.4412V7.27197H145.272V9.83851H137.002V13.7739H144.59V16.2549H137.002V20.9602H145.272V23.4412H134.274Z" fill="white"/>
<path d="M155.246 21.0457H160.532L162.493 19.0781V11.5495L160.532 9.58186H155.246V21.0457ZM152.518 23.4412V7.27197H161.811L165.221 10.694V20.1047L161.811 23.5267H152.518V23.4412Z" fill="white"/>
<path d="M175.963 21.0456H181.334L182.272 20.1046V10.6939L181.334 9.75286H175.963L175.025 10.6939V20.1046L175.963 21.0456ZM174.599 23.4411L172.212 21.0456V9.75286L174.599 7.35742H182.528L184.915 9.75286V21.0456L182.528 23.4411H174.599Z" fill="white"/>
<path fill-rule="evenodd" clip-rule="evenodd" d="M10.2304 0H20.5461L23.1037 4.53422H27.5369H38.5346L46.2926 17.9658L34.4424 38.7548L26.7696 25.2376L30.8618 17.9658H15.4309L30.8618 45H15.4309L0 17.9658L7.67281 4.53422L10.2304 0Z" fill="#6B9AC4"/>
<path d="M130.779 44.5723V42.2624L130.438 42.0058L128.562 38.156H130.097L131.291 41.0647H131.546L132.74 38.156H134.274L132.399 42.0058L132.058 42.2624V44.5723H130.779ZM120.804 44.5723V39.2681H119.014V38.0704H123.959V39.2681H122.168V44.5723H120.804ZM111.426 44.5723V43.4601H112.109V39.2681H111.426V38.156H114.155V39.2681H113.387V43.4601H114.069V44.5723H111.426ZM102.304 41.1503H104.265L104.606 40.8081V39.5248L104.265 39.1826H102.304V41.1503ZM100.94 44.5723V38.0704H105.032L105.97 39.0115V41.2358L105.118 42.0058L106.141 44.4868H104.691L103.754 42.1769H102.304V44.4868H100.94V44.5723ZM90.8804 44.5723L89.9426 43.6312V38.156H91.3067V43.2035L91.6477 43.5457H93.6085L93.9495 43.2035V38.156H95.3136V43.6312L94.3758 44.5723H90.8804ZM80.5647 44.5723L79.6269 43.6312V39.097L80.5647 38.156H83.7191L84.6569 39.097L83.8044 39.9525L83.1223 39.2681H81.332L80.991 39.5248V43.1179L81.332 43.4601H83.2076L83.8896 42.7757L84.7422 43.6312L83.8044 44.5723H80.5647ZM69.6523 44.5723V38.0704H74.3412V39.2681H71.0163V40.637H74.0002V41.7491H71.0163V43.3746H74.3412V44.5723H69.6523ZM59.1661 44.5723V43.3746H62.491L62.832 43.0324V42.0913L62.491 41.7491H59.9334L58.9956 40.7225V38.9259L59.9334 37.9849H63.8551V39.1826H60.7007L60.3597 39.5248V40.2092L60.7007 40.5514H63.2583L64.1961 41.4925V43.6312L63.2583 44.5723H59.1661ZM123.703 36.1027V29.6008H125.067V32.5096L127.454 29.6008H128.989L126.687 32.424L128.989 36.1027H127.454L125.834 33.4506L125.067 34.3917V36.1027H123.703ZM114.41 32.6807H116.371L116.712 32.3385V31.0552L116.371 30.713H114.41V32.6807ZM113.046 36.1027V29.6008H117.138L118.076 30.5419V32.7662L117.224 33.5362L118.247 36.0172H116.797L115.86 33.7073H114.325V36.0172H113.046V36.1027ZM103.839 34.9906H105.8L106.141 34.6484V31.0552L105.8 30.713H103.839L103.498 31.0552V34.6484L103.839 34.9906ZM103.072 36.1027L102.134 35.1617V30.6274L103.072 29.6864H106.567L107.59 30.6274V35.0761L106.567 36.0172H103.072V36.1027ZM90.3689 36.1027L88.9196 29.6008H90.4541L91.3067 34.905H91.5624L92.415 29.6008H93.779L94.6315 34.905H94.8873L95.7398 29.6008H97.2744L95.8251 36.1027H93.779L93.1822 32.5951L92.5855 36.1027H90.3689ZM81.2468 36.1027V30.7985H79.4564V29.6008H84.4011V30.7985H82.6108V36.1027H81.2468ZM69.9081 36.1027V29.6008H74.597V30.7985H71.2721V32.1674H74.256V33.2795H71.2721V34.905H74.597V36.1027H69.9081ZM58.9956 36.1027V29.6008H60.5302L62.9173 33.7928V29.6008H64.2813V36.1027H62.9173L60.5302 31.9107H60.2744V36.1027H58.9956Z" fill="#6B9AC4"/>
</svg>
