<svg width="181" height="200" viewBox="0 0 181 200" fill="none" xmlns="http://www.w3.org/2000/svg">
<g clip-path="url(#clip0)">
<g opacity="0.8">
<path d="M97.9933 200L48.6041 171.445L48.5 171.231L0.775879 59.4508L24.742 31.0308L33.1225 21.1754L65.5671 39.9117L73.366 58.4701L120.949 85.9462L121.053 86.1546L144.928 142.014L107.586 186.486L83.0994 129.548L95.4773 114.642L50.5875 88.6981L97.9933 200ZM49.7488 170.501L95.11 196.739L47.6981 85.4253L97.6137 114.262L84.7094 129.756L107.972 183.911L143.312 141.842L119.866 86.9943L72.2886 59.5182L64.4407 40.9536L33.4347 23.0203L25.7827 32.0053L2.37362 59.7572L49.7488 170.501Z" fill="white"/>
<path d="M96.7749 199.16L96.0832 197.941L133.749 176.213L131.662 171.862L108.118 185.824L107.42 184.641L143.177 163.398L179.178 120.526L155.732 65.6778L108.149 38.2017L100.325 19.6065L69.1603 1.5996L33.6488 22.7077L32.9509 21.488L69.1603 -6.10352e-05L101.403 18.632L109.263 37.2272L156.816 64.7033L156.914 64.9117L180.776 120.771L144.083 164.477L132.88 171.126L135.561 176.771L96.7749 199.16Z" fill="white"/>
<path d="M100.503 18.5488L64.6284 39.8329L65.3368 41.0298L101.212 19.7457L100.503 18.5488Z" fill="white"/>
<path d="M108.319 37.1124L72.4441 58.3965L73.1525 59.5934L109.027 38.3093L108.319 37.1124Z" fill="white"/>
<path d="M155.914 64.6185L120.039 85.9025L120.747 87.0994L156.622 65.8154L155.914 64.6185Z" fill="white"/>
</g>
</g>
<defs>
<clipPath id="clip0">
<rect width="180" height="200" fill="white" transform="translate(0.775879)"/>
</clipPath>
</defs>
</svg>
