<svg width="151" height="151" viewBox="0 0 151 151" fill="none" xmlns="http://www.w3.org/2000/svg">
<g clip-path="url(#clip0)">
<path d="M35.301 29.2198C40.4997 23.9708 46.6904 19.808 53.5129 16.9736C60.3353 14.1392 67.6533 12.6899 75.041 12.7098C89.9546 12.7257 104.253 18.6571 114.798 29.2026C125.344 39.7481 131.275 54.0463 131.291 68.9598H143.791C143.77 50.7327 136.52 33.2582 123.631 20.3696C110.743 7.4811 93.2682 0.231016 75.041 0.209843C66.0108 0.180024 57.0651 1.94912 48.726 5.41388C40.3869 8.87864 32.8214 13.9697 26.471 20.3898L12.541 6.45984V43.9598H50.041L35.301 29.2198Z" fill="white"/>
<path d="M114.791 121.2C109.592 126.451 103.4 130.615 96.5752 133.45C89.7508 136.284 82.4306 137.732 75.041 137.71C60.1275 137.694 45.8293 131.763 35.2838 121.217C24.7383 110.672 18.8069 96.3735 18.791 81.46H6.29102C6.31219 99.6871 13.5623 117.162 26.4508 130.05C39.3393 142.939 56.8139 150.189 75.041 150.21C84.0712 150.24 93.0169 148.471 101.356 145.006C109.695 141.541 117.261 136.45 123.611 130.03L137.541 143.96V106.46H100.041L114.791 121.2Z" fill="white"/>
<path d="M75.041 31.46C70.0698 31.4653 65.3038 33.4424 61.7886 36.9576C58.2735 40.4727 56.2963 45.2388 56.291 50.21V56.46C54.6334 56.46 53.0437 57.1184 51.8716 58.2905C50.6995 59.4626 50.041 61.0524 50.041 62.71V100.21C50.041 101.868 50.6995 103.457 51.8716 104.629C53.0437 105.801 54.6334 106.46 56.291 106.46H93.791C95.4486 106.46 97.0383 105.801 98.2104 104.629C99.3825 103.457 100.041 101.868 100.041 100.21V62.71C100.041 61.0524 99.3825 59.4626 98.2104 58.2905C97.0383 57.1184 95.4486 56.46 93.791 56.46V50.21C93.7857 45.2388 91.8086 40.4727 88.2934 36.9576C84.7783 33.4424 80.0122 31.4653 75.041 31.46V31.46ZM87.541 93.96H62.541V68.96H87.541V93.96ZM68.791 56.46V50.21C68.791 48.5524 69.4495 46.9626 70.6216 45.7905C71.7937 44.6184 73.3834 43.96 75.041 43.96C76.6986 43.96 78.2883 44.6184 79.4604 45.7905C80.6325 46.9626 81.291 48.5524 81.291 50.21V56.46H68.791Z" fill="#29AAE1"/>
</g>
<defs>
<clipPath id="clip0">
<rect width="150" height="150" fill="white" transform="translate(0.0410156 0.209961)"/>
</clipPath>
</defs>
</svg>
