<svg width="150" height="151" viewBox="0 0 150 151" fill="none" xmlns="http://www.w3.org/2000/svg">
<g clip-path="url(#clip0)">
<path d="M106.25 50.0327H81.25V62.5327H106.25V50.0327Z" fill="white"/>
<path d="M62.5 50.0327H18.75V62.5327H62.5V50.0327Z" fill="white"/>
<path d="M50 68.7827H18.75V81.2827H50V68.7827Z" fill="white"/>
<path d="M12.5 43.7827H112.5V62.5327H125V12.5327C124.995 9.21913 123.676 6.04278 121.333 3.69972C118.99 1.35666 115.814 0.0380039 112.5 0.0327148H12.5C9.18642 0.0380039 6.01007 1.35666 3.66701 3.69972C1.32395 6.04278 0.00528905 9.21913 0 12.5327V87.5327C0.00528905 90.8463 1.32395 94.0227 3.66701 96.3657C6.01007 98.7088 9.18642 100.027 12.5 100.033H75V87.5327H12.5V43.7827ZM112.5 12.5327V31.2827H12.5V12.5327H112.5Z" fill="white"/>
<path d="M143.75 93.7827C143.75 87.1523 141.116 80.7935 136.428 76.105C131.739 71.4166 125.38 68.7827 118.75 68.7827C112.12 68.7827 105.761 71.4166 101.072 76.105C96.3839 80.7935 93.75 87.1523 93.75 93.7827C92.0924 93.7827 90.5027 94.4412 89.3306 95.6133C88.1585 96.7854 87.5 98.3751 87.5 100.033V143.783C87.5 145.44 88.1585 147.03 89.3306 148.202C90.5027 149.374 92.0924 150.033 93.75 150.033H143.75C145.408 150.033 146.997 149.374 148.169 148.202C149.342 147.03 150 145.44 150 143.783V100.033C150 98.3751 149.342 96.7854 148.169 95.6133C146.997 94.4412 145.408 93.7827 143.75 93.7827ZM118.75 81.2827C122.064 81.288 125.24 82.6067 127.583 84.9497C129.926 87.2928 131.245 90.4691 131.25 93.7827H106.25C106.255 90.4691 107.574 87.2928 109.917 84.9497C112.26 82.6067 115.436 81.288 118.75 81.2827ZM137.5 137.533H100V106.283H137.5V137.533Z" fill="#29AAE1"/>
</g>
<defs>
<clipPath id="clip0">
<rect width="150" height="150" fill="white" transform="translate(0 0.0327148)"/>
</clipPath>
</defs>
</svg>
