<svg width="150" height="151" viewBox="0 0 150 151" fill="none" xmlns="http://www.w3.org/2000/svg">
<path d="M136.364 6.85107H13.6364C10.0198 6.85107 6.55131 8.28776 3.994 10.8451C1.43668 13.4024 0 16.8708 0 20.4874V129.578C0 133.195 1.43668 136.663 3.994 139.221C6.55131 141.778 10.0198 143.215 13.6364 143.215H136.364C139.98 143.215 143.449 141.778 146.006 139.221C148.563 136.663 150 133.195 150 129.578V20.4874C150 16.8708 148.563 13.4024 146.006 10.8451C143.449 8.28776 139.98 6.85107 136.364 6.85107ZM136.364 34.1238H81.8182V20.4874H136.364V34.1238ZM47.7273 34.1238V20.4874H68.1818V34.1238H47.7273ZM136.355 47.7602V75.0329H129.545C128.65 75.0322 127.764 75.2085 126.937 75.5518C126.11 75.895 125.359 76.3984 124.727 77.0329L115.909 85.842L93.4546 63.3965C92.7771 62.7172 91.9637 62.1888 91.0678 61.8458C90.1718 61.5027 89.2135 61.3529 88.2556 61.4062C87.2977 61.4594 86.3619 61.7144 85.5094 62.1546C84.657 62.5947 83.9071 63.21 83.3091 63.9602L60.8 92.0965L45.7273 77.0329C45.0949 76.3996 44.3438 75.8972 43.5171 75.5544C42.6903 75.2116 41.8041 75.0351 40.9091 75.0351C40.0141 75.0351 39.1279 75.2116 38.3011 75.5544C37.4744 75.8972 36.7233 76.3996 36.0909 77.0329L24.4455 88.6693H13.6364V47.7602H136.355ZM34.0909 20.4874V34.1238H13.6364V20.4874H34.0909ZM13.6364 129.578V102.306H27.2727C29.0791 102.306 30.812 101.59 32.0909 100.315L40.9091 91.4965L56.5455 107.133C57.8266 108.405 59.558 109.121 61.3636 109.124H61.7364C62.6954 109.07 63.6325 108.815 64.4862 108.375C65.34 107.935 66.0912 107.32 66.6909 106.569L89.2 78.4238L111.091 100.315C112.37 101.589 114.103 102.305 115.909 102.305C117.715 102.305 119.448 101.589 120.727 100.315L132.373 88.6693H136.345V129.578H13.6364Z" fill="white"/>
</svg>
