<svg width="151" height="151" viewBox="0 0 151 151" fill="none" xmlns="http://www.w3.org/2000/svg">
<g clip-path="url(#clip0)">
<path d="M12.541 111.209V39.2094H120.541V51.2093C124.604 51.2147 128.646 51.8064 132.541 52.9661V15.2094C132.538 12.0276 131.273 8.97687 129.023 6.72699C126.773 4.47711 123.723 3.21202 120.541 3.20947H12.541C9.35995 3.21455 6.31066 4.48046 4.06133 6.72979C1.812 8.97912 0.546093 12.0284 0.541016 15.2094V111.209C0.546093 114.39 1.812 117.44 4.06133 119.689C6.31066 121.938 9.35995 123.204 12.541 123.209H91.1744C87.6387 119.744 84.743 115.682 82.6208 111.209H12.541ZM42.5409 27.2094V15.2094H60.5409V27.2094H42.5409ZM120.541 27.2094H72.5408V15.2094H120.541V27.2094ZM30.5409 15.2094V27.2094H12.541V15.2094H30.5409Z" fill="white"/>
<path d="M150.54 93.2094C150.567 88.0893 149.282 83.0477 146.809 78.5645C144.335 74.0814 140.756 70.3058 136.411 67.5973C132.066 64.8888 127.1 63.3375 121.985 63.0909C116.871 62.8444 111.779 63.911 107.193 66.189C102.608 68.4671 98.6818 71.8809 95.7888 76.1054C92.8958 80.3299 91.1321 85.2245 90.6657 90.3234C90.1993 95.4223 91.0457 100.556 93.1243 105.235C95.2029 109.914 98.4445 113.984 102.541 117.056V141.209C102.54 142.396 102.892 143.556 103.551 144.543C104.211 145.53 105.148 146.299 106.244 146.754C107.341 147.208 108.547 147.327 109.711 147.095C110.875 146.863 111.945 146.292 112.784 145.452L120.541 137.696L128.297 145.452C129.425 146.574 130.95 147.205 132.541 147.209C133.327 147.207 134.106 147.054 134.835 146.758C135.932 146.304 136.87 145.534 137.53 144.546C138.19 143.558 138.541 142.397 138.541 141.209V117.056C142.253 114.284 145.27 110.686 147.352 106.547C149.435 102.409 150.526 97.8425 150.54 93.2094ZM120.541 111.209C116.981 111.209 113.5 110.154 110.54 108.176C107.58 106.198 105.273 103.387 103.911 100.098C102.548 96.8086 102.192 93.1894 102.886 89.6978C103.581 86.2061 105.295 82.9988 107.813 80.4815C110.33 77.9642 113.537 76.2498 117.029 75.5553C120.521 74.8608 124.14 75.2172 127.429 76.5796C130.718 77.942 133.529 80.2491 135.507 83.2092C137.485 86.1692 138.541 89.6493 138.541 93.2094C138.535 97.9817 136.637 102.557 133.263 105.932C129.888 109.306 125.313 111.204 120.541 111.209V111.209Z" fill="#29AAE1"/>
</g>
<defs>
<clipPath id="clip0">
<rect width="150" height="150" fill="white" transform="translate(0.541016 0.209961)"/>
</clipPath>
</defs>
</svg>
