<?xml version="1.0" encoding="utf-8"?>
<!-- Generator: Adobe Illustrator 25.0.1, SVG Export Plug-In . SVG Version: 6.00 Build 0)  -->
<svg version="1.1" id="Layer_1" xmlns="http://www.w3.org/2000/svg" xmlns:xlink="http://www.w3.org/1999/xlink" x="0px" y="0px"
	 viewBox="0 0 363.9 440.3" style="enable-background:new 0 0 363.9 440.3;" xml:space="preserve">
<style type="text/css">
	.st0{fill:#4C97FE;}
	.st1{fill:#FFFFFF;}
	.st2{fill:none;stroke:#153F6C;stroke-width:5;stroke-linejoin:round;stroke-miterlimit:22.9256;}
	.st3{fill:none;stroke:#FFFFFF;stroke-linecap:round;stroke-linejoin:round;stroke-miterlimit:22.9256;}
	.st4{fill:none;stroke:#4C97FE;stroke-linecap:round;stroke-linejoin:round;stroke-miterlimit:22.9256;}
	.st5{fill:none;stroke:#4C97FE;stroke-width:2.46;stroke-linejoin:round;stroke-miterlimit:10;}
	.st6{fill:none;stroke:#4C97FE;stroke-width:0.8829;stroke-miterlimit:10;}
</style>
<g id="XMLID_77_">
	<g id="XMLID_357_">
		<path id="XMLID_426_" class="st0" d="M120.1,36.3c1.7,0,3.1,0.8,4,1.8l-1,1.2c-0.8-0.8-1.7-1.4-2.9-1.4c-2.8,0-4.6,2.3-4.6,5.9
			c0,3.7,1.7,6,4.5,6c1.4,0,2.4-0.6,3.3-1.6l1,1.1c-1.1,1.3-2.6,2.1-4.4,2.1c-3.7,0-6.4-2.8-6.4-7.5S116.4,36.3,120.1,36.3z"/>
		<path id="XMLID_424_" class="st0" d="M126.9,40.3h1.5l0.2,1.9h0.1c0.7-1.4,1.8-2.2,3.1-2.2c0.5,0,0.8,0.1,1.2,0.2l-0.4,1.6
			c-0.4-0.1-0.6-0.2-1-0.2c-0.9,0-2,0.7-2.7,2.5V51h-1.8V40.3H126.9z"/>
		<path id="XMLID_421_" class="st0" d="M134.2,36.9c0-0.7,0.6-1.2,1.3-1.2s1.3,0.5,1.3,1.2s-0.6,1.2-1.3,1.2
			C134.8,38.1,134.2,37.6,134.2,36.9z M134.5,40.3h1.8v10.8h-1.8V40.3z"/>
		<path id="XMLID_419_" class="st0" d="M140.3,41.8h-1.6v-1.4l1.7-0.1l0.2-3h1.5v3h2.9v1.5h-2.9v6c0,1.3,0.4,2.1,1.7,2.1
			c0.4,0,0.9-0.2,1.2-0.3l0.4,1.4c-0.6,0.2-1.3,0.4-2,0.4c-2.3,0-3.1-1.5-3.1-3.6L140.3,41.8L140.3,41.8z"/>
		<path id="XMLID_416_" class="st0" d="M147.1,36.9c0-0.7,0.6-1.2,1.3-1.2s1.3,0.5,1.3,1.2s-0.6,1.2-1.3,1.2
			C147.7,38.1,147.1,37.6,147.1,36.9z M147.5,40.3h1.8v10.8h-1.8V40.3z"/>
		<path id="XMLID_414_" class="st0" d="M157.3,40.1c1.4,0,2.4,0.6,3.1,1.3l-0.9,1.2c-0.6-0.6-1.3-1-2.2-1c-1.9,0-3.4,1.7-3.4,4.2
			s1.4,4.1,3.3,4.1c1,0,1.9-0.5,2.5-1.1l0.8,1.2c-1,0.9-2.2,1.4-3.5,1.4c-2.9,0-5-2.1-5-5.6C152.1,42.1,154.5,40.1,157.3,40.1z"/>
		<path id="XMLID_411_" class="st0" d="M169.1,44.3c0-1.4-0.5-2.7-2.2-2.7c-1.3,0-2.4,0.6-3.2,1.2l-0.7-1.3c1-0.6,2.5-1.4,4.2-1.4
			c2.6,0,3.7,1.7,3.7,4.4v6.6h-1.5l-0.2-1.3l0,0c-1,0.8-2.2,1.5-3.6,1.5c-1.8,0-3.2-1.1-3.2-3.1C162.5,45.9,164.5,44.8,169.1,44.3z
			 M166.2,49.9c1,0,1.9-0.5,2.9-1.4v-3c-3.6,0.4-4.8,1.3-4.8,2.7C164.3,49.4,165.1,49.9,166.2,49.9z"/>
		<path id="XMLID_409_" class="st0" d="M174.4,35.3h1.8V49c0,0.6,0.2,0.8,0.5,0.8c0.1,0,0.2,0,0.4,0l0.2,1.4c-0.2,0.1-0.6,0.2-1,0.2
			c-1.4,0-1.9-0.9-1.9-2.4V35.3z"/>
		<path id="XMLID_407_" class="st0" d="M184.2,48.6c0.9,0.8,1.9,1.3,3.2,1.3c1.4,0,2.1-0.8,2.1-1.7c0-1.1-1.3-1.6-2.5-2
			c-1.5-0.6-3.2-1.3-3.2-3.1c0-1.7,1.4-3.1,3.7-3.1c1.4,0,2.5,0.6,3.3,1.2l-0.9,1.2c-0.7-0.6-1.5-1-2.5-1c-1.4,0-2,0.7-2,1.5
			c0,1,1.2,1.4,2.4,1.9c1.5,0.6,3.3,1.2,3.3,3.3c0,1.7-1.4,3.2-3.9,3.2c-1.5,0-3-0.6-4-1.5L184.2,48.6z"/>
		<path id="XMLID_405_" class="st0" d="M193.8,54.2c1.2,0,2-1,2.4-2.3l0.2-0.8l-4.3-10.8h1.9l2.2,6c0.3,0.9,0.7,2,1,3h0.1
			c0.3-1,0.6-2.1,0.9-3l1.9-6h1.8L198,52c-0.8,2.1-1.9,3.7-4,3.7c-0.5,0-0.9-0.1-1.3-0.2l0.4-1.4C193.2,54.1,193.6,54.2,193.8,54.2z
			"/>
		<path id="XMLID_403_" class="st0" d="M203.8,48.6c0.9,0.8,1.9,1.3,3.2,1.3c1.4,0,2.1-0.8,2.1-1.7c0-1.1-1.3-1.6-2.5-2
			c-1.5-0.6-3.2-1.3-3.2-3.1c0-1.7,1.4-3.1,3.7-3.1c1.4,0,2.5,0.6,3.3,1.2l-0.9,1.2c-0.7-0.6-1.5-1-2.5-1c-1.4,0-2,0.7-2,1.5
			c0,1,1.2,1.4,2.4,1.9c1.5,0.6,3.3,1.2,3.3,3.3c0,1.7-1.4,3.2-3.9,3.2c-1.5,0-3-0.6-4-1.5L203.8,48.6z"/>
		<path id="XMLID_401_" class="st0" d="M213.7,41.8h-1.6v-1.4l1.7-0.1l0.2-3h1.5v3h2.9v1.5h-2.9v6c0,1.3,0.4,2.1,1.7,2.1
			c0.4,0,0.9-0.2,1.2-0.3l0.4,1.4c-0.6,0.2-1.3,0.4-2,0.4c-2.3,0-3.1-1.5-3.1-3.6L213.7,41.8L213.7,41.8z"/>
		<path id="XMLID_362_" class="st0" d="M224.9,40.1c2.7,0,4.3,2,4.3,5c0,0.4,0,0.7-0.1,1h-7.3c0.1,2.3,1.5,3.8,3.6,3.8
			c1,0,1.9-0.3,2.7-0.8l0.6,1.2c-0.9,0.6-2.1,1.1-3.5,1.1c-2.9,0-5.2-2.1-5.2-5.6C220,42.2,222.4,40.1,224.9,40.1z M227.6,44.9
			c0-2.2-1-3.4-2.7-3.4c-1.5,0-2.9,1.2-3.1,3.4H227.6z"/>
		<path id="XMLID_360_" class="st0" d="M231.8,40.3h1.5l0.2,1.5h0.1c0.9-1,2.1-1.8,3.3-1.8c1.6,0,2.5,0.8,3,2.1
			c1.1-1.2,2.2-2.1,3.5-2.1c2.2,0,3.3,1.5,3.3,4.2V51h-1.8v-6.6c0-2-0.6-2.9-2-2.9c-0.8,0-1.7,0.6-2.7,1.7V51h-1.8v-6.6
			c0-2-0.6-2.9-2-2.9c-0.8,0-1.7,0.6-2.7,1.7V51h-1.8V40.3H231.8z"/>
		<path id="XMLID_358_" class="st0" d="M249.9,48.6c0.9,0.8,1.9,1.3,3.2,1.3c1.4,0,2.1-0.8,2.1-1.7c0-1.1-1.3-1.6-2.5-2
			c-1.5-0.6-3.2-1.3-3.2-3.1c0-1.7,1.4-3.1,3.7-3.1c1.4,0,2.5,0.6,3.3,1.2l-0.9,1.2c-0.7-0.6-1.5-1-2.5-1c-1.4,0-2,0.7-2,1.5
			c0,1,1.2,1.4,2.4,1.9c1.5,0.6,3.3,1.2,3.3,3.3c0,1.7-1.4,3.2-3.9,3.2c-1.5,0-3-0.6-4-1.5L249.9,48.6z"/>
	</g>
</g>
<g id="XMLID_1_">
	<g id="XMLID_363_">
		<path id="XMLID_397_" class="st1" d="M101.6,426.4c1,1.1,2.5,1.8,4,1.8c1.9,0,3-1,3-2.4c0-1.5-1.1-1.9-2.4-2.6l-2.1-0.9
			c-1.4-0.6-2.9-1.6-2.9-3.7c0-2.2,1.9-3.9,4.6-3.9c1.7,0,3.3,0.7,4.3,1.8l-1,1.2c-0.9-0.8-2-1.4-3.3-1.4c-1.6,0-2.7,0.8-2.7,2.1
			c0,1.4,1.3,1.9,2.4,2.4l2.1,0.9c1.7,0.7,3,1.7,3,3.9c0,2.3-1.9,4.1-5,4.1c-2,0-3.8-0.8-5.1-2.1L101.6,426.4z"/>
		<path id="XMLID_395_" class="st1" d="M113.5,420.3h-1.6v-1.4l1.7-0.1l0.2-3h1.5v3h2.9v1.5h-2.9v6c0,1.3,0.4,2.1,1.7,2.1
			c0.4,0,0.9-0.2,1.2-0.3l0.4,1.4c-0.6,0.2-1.3,0.4-2,0.4c-2.3,0-3.1-1.5-3.1-3.6C113.5,426.3,113.5,420.3,113.5,420.3z"/>
		<path id="XMLID_392_" class="st1" d="M126.7,422.8c0-1.4-0.5-2.7-2.2-2.7c-1.3,0-2.4,0.6-3.2,1.2l-0.7-1.3c1-0.6,2.5-1.4,4.2-1.4
			c2.6,0,3.7,1.7,3.7,4.4v6.6H127l-0.2-1.3l0,0c-1,0.8-2.2,1.5-3.6,1.5c-1.8,0-3.2-1.1-3.2-3.1C120.1,424.5,122.2,423.3,126.7,422.8
			z M123.8,428.4c1,0,1.9-0.5,2.9-1.4v-3c-3.6,0.4-4.8,1.3-4.8,2.7C121.9,427.9,122.7,428.4,123.8,428.4z"/>
		<path id="XMLID_390_" class="st1" d="M132,418.8h1.5l0.2,1.5h0.1c1-1,2.1-1.8,3.6-1.8c2.3,0,3.3,1.5,3.3,4.2v6.8h-1.8V423
			c0-2-0.6-2.9-2-2.9c-1.1,0-1.9,0.6-2.9,1.7v7.8h-2V418.8z"/>
		<path id="XMLID_387_" class="st1" d="M148,418.6c1.2,0,2.1,0.5,3,1.2l-0.1-1.8v-4.1h1.8v15.8h-1.5l-0.2-1.3l0,0
			c-0.8,0.8-2,1.5-3.3,1.5c-2.7,0-4.5-2-4.5-5.6C143.3,420.7,145.5,418.6,148,418.6z M148.2,428.3c1,0,1.9-0.5,2.7-1.5v-5.6
			c-0.9-0.8-1.7-1.1-2.6-1.1c-1.7,0-3.1,1.7-3.1,4.1C145.2,426.8,146.3,428.3,148.2,428.3z"/>
		<path id="XMLID_384_" class="st1" d="M162.5,422.8c0-1.4-0.5-2.7-2.2-2.7c-1.3,0-2.4,0.6-3.2,1.2l-0.7-1.3c1-0.6,2.5-1.4,4.2-1.4
			c2.6,0,3.7,1.7,3.7,4.4v6.6h-1.5l-0.2-1.3l0,0c-1,0.8-2.2,1.5-3.6,1.5c-1.8,0-3.2-1.1-3.2-3.1
			C155.9,424.5,157.9,423.3,162.5,422.8z M159.5,428.4c1,0,1.9-0.5,2.9-1.4v-3c-3.6,0.4-4.8,1.3-4.8,2.7
			C157.6,427.9,158.5,428.4,159.5,428.4z"/>
		<path id="XMLID_382_" class="st1" d="M167.7,418.8h1.5l0.2,1.9h0.1c0.7-1.4,1.8-2.2,3.1-2.2c0.5,0,0.8,0.1,1.2,0.2l-0.4,1.6
			c-0.4-0.1-0.6-0.2-1-0.2c-0.9,0-2,0.7-2.7,2.5v6.9h-1.8v-10.7H167.7z"/>
		<path id="XMLID_379_" class="st1" d="M179.3,418.6c1.2,0,2.1,0.5,3,1.2l-0.1-1.8v-4.1h1.8v15.8h-1.5l-0.2-1.3h-0.1
			c-0.8,0.8-2,1.5-3.3,1.5c-2.7,0-4.5-2-4.5-5.6C174.6,420.7,176.8,418.6,179.3,418.6z M179.5,428.3c1,0,1.9-0.5,2.7-1.5v-5.6
			c-0.9-0.8-1.7-1.1-2.6-1.1c-1.7,0-3.1,1.7-3.1,4.1C176.5,426.8,177.6,428.3,179.5,428.3z"/>
		<path id="XMLID_377_" class="st1" d="M191.9,427.2c0.9,0.8,1.9,1.3,3.2,1.3c1.4,0,2.1-0.8,2.1-1.7c0-1.1-1.3-1.6-2.5-2
			c-1.5-0.6-3.2-1.3-3.2-3.1c0-1.7,1.4-3.1,3.7-3.1c1.4,0,2.5,0.6,3.3,1.2l-0.9,1.2c-0.7-0.6-1.5-1-2.5-1c-1.4,0-2,0.7-2,1.5
			c0,1,1.2,1.4,2.4,1.9c1.5,0.6,3.3,1.2,3.3,3.3c0,1.7-1.4,3.2-3.9,3.2c-1.5,0-3-0.6-4-1.5L191.9,427.2z"/>
		<path id="XMLID_375_" class="st1" d="M201.5,432.7c1.2,0,2-1,2.4-2.3l0.2-0.8l-4.3-10.8h1.9l2.2,6c0.3,0.9,0.7,2,1,3h0.1
			c0.3-1,0.6-2.1,0.9-3l1.9-6h1.8l-4.1,11.6c-0.8,2.1-1.9,3.7-4,3.7c-0.5,0-0.9-0.1-1.3-0.2l0.4-1.4
			C200.9,432.6,201.3,432.7,201.5,432.7z"/>
		<path id="XMLID_373_" class="st1" d="M211.5,427.2c0.9,0.8,1.9,1.3,3.2,1.3c1.4,0,2.1-0.8,2.1-1.7c0-1.1-1.3-1.6-2.5-2
			c-1.5-0.6-3.2-1.3-3.2-3.1c0-1.7,1.4-3.1,3.7-3.1c1.4,0,2.5,0.6,3.3,1.2l-0.9,1.2c-0.7-0.6-1.5-1-2.5-1c-1.4,0-2,0.7-2,1.5
			c0,1,1.2,1.4,2.4,1.9c1.5,0.6,3.3,1.2,3.3,3.3c0,1.7-1.4,3.2-3.9,3.2c-1.5,0-3-0.6-4-1.5L211.5,427.2z"/>
		<path id="XMLID_371_" class="st1" d="M221.4,420.3h-1.6v-1.4l1.7-0.1l0.2-3h1.5v3h2.9v1.5h-2.9v6c0,1.3,0.4,2.1,1.7,2.1
			c0.4,0,0.9-0.2,1.2-0.3l0.4,1.4c-0.6,0.2-1.3,0.4-2,0.4c-2.3,0-3.1-1.5-3.1-3.6L221.4,420.3L221.4,420.3z"/>
		<path id="XMLID_368_" class="st1" d="M232.6,418.6c2.7,0,4.3,2,4.3,5c0,0.4,0,0.7-0.1,1h-7.3c0.1,2.3,1.5,3.8,3.6,3.8
			c1,0,1.9-0.3,2.7-0.8l0.6,1.2c-0.9,0.6-2.1,1.1-3.5,1.1c-2.9,0-5.2-2.1-5.2-5.6C227.7,420.7,230.1,418.6,232.6,418.6z
			 M235.3,423.4c0-2.2-1-3.4-2.7-3.4c-1.5,0-2.9,1.2-3.1,3.4H235.3z"/>
		<path id="XMLID_366_" class="st1" d="M239.5,418.8h1.5l0.2,1.5h0.1c0.9-1,2.1-1.8,3.3-1.8c1.6,0,2.5,0.8,3,2.1
			c1.1-1.2,2.2-2.1,3.5-2.1c2.2,0,3.3,1.5,3.3,4.2v6.8h-1.8V423c0-2-0.6-2.9-2-2.9c-0.8,0-1.7,0.6-2.7,1.7v7.8h-1.8V423
			c0-2-0.6-2.9-2-2.9c-0.8,0-1.7,0.6-2.7,1.7v7.8h-1.8v-10.8H239.5z"/>
		<path id="XMLID_364_" class="st1" d="M257.6,427.2c0.9,0.8,1.9,1.3,3.2,1.3c1.4,0,2.1-0.8,2.1-1.7c0-1.1-1.3-1.6-2.5-2
			c-1.5-0.6-3.2-1.3-3.2-3.1c0-1.7,1.4-3.1,3.7-3.1c1.4,0,2.5,0.6,3.3,1.2l-0.9,1.2c-0.7-0.6-1.5-1-2.5-1c-1.4,0-2,0.7-2,1.5
			c0,1,1.2,1.4,2.4,1.9c1.5,0.6,3.3,1.2,3.3,3.3c0,1.7-1.4,3.2-3.9,3.2c-1.5,0-3-0.6-4-1.5L257.6,427.2z"/>
	</g>
</g>
<line id="XMLID_2429_" class="st2" x1="184" y1="279.6" x2="184" y2="321.3"/>
<polyline id="XMLID_2428_" class="st2" points="292.2,321.3 292.4,306.3 75.8,306.3 75.7,321.3 "/>
<line id="XMLID_791_" class="st2" x1="184" y1="190.5" x2="184" y2="150.5"/>
<polyline id="XMLID_783_" class="st2" points="292.2,150.5 292.4,165.5 75.8,165.5 75.7,150.5 "/>
<g id="Server_55_">
	<path id="XMLID_2427_" class="st3" d="M217.4,370.9c-0.1,0-0.1,0-0.2,0c-0.1-0.1-0.2-0.1-0.3,0c-0.1,0-0.2,0-0.2,0.1
		c-0.2,0.1-0.2,0.1-0.3,0.2"/>
	<path id="XMLID_2426_" class="st3" d="M217.9,372c0-0.5-0.2-0.9-0.4-1.1c-0.3-0.2-0.7-0.2-1.2,0.1"/>
	<path id="XMLID_2425_" class="st3" d="M184.4,401.7c0,0.5,0.2,0.9,0.5,1.1s0.7,0.2,1.1-0.1"/>
	<polygon id="XMLID_2424_" class="st3" points="213.2,382.2 216,380.5 216,377.2 213.2,378.9 	"/>
	<polygon id="XMLID_2423_" class="st3" points="208.2,385 211.2,383.3 211.2,380 208.2,381.7 	"/>
	<path id="XMLID_2422_" class="st3" d="M217.4,355.1c-0.1-0.1-0.2-0.1-0.2-0.1c-0.3-0.1-0.6,0-0.9,0.2"/>
	<polyline id="XMLID_2421_" class="st3" points="216.2,355.2 203.2,362.8 186.1,372.7 	"/>
	<polyline id="XMLID_2420_" class="st3" points="184.9,373.9 164.4,362.1 151.1,354.4 	"/>
	<path id="XMLID_2419_" class="st3" d="M217.9,356.2c0-0.5-0.2-0.9-0.4-1.1c-0.3-0.2-0.7-0.2-1.2,0.1"/>
	<path id="XMLID_2418_" class="st3" d="M184.4,385.8c0,0.5,0.2,0.9,0.5,1.1s0.7,0.2,1.1-0.1"/>
	<polygon id="XMLID_2417_" class="st3" points="213.2,366.3 216,364.7 216,361.3 213.2,363 	"/>
	<polygon id="XMLID_2416_" class="st3" points="208.2,369.2 211.2,367.5 211.2,364.1 208.2,365.8 	"/>
	<path id="XMLID_2415_" class="st3" d="M217.9,340c0-0.5-0.2-0.9-0.4-1.1c-0.3-0.2-0.7-0.2-1.2,0.1"/>
	<path id="XMLID_2414_" class="st3" d="M184.4,369.6c0,0.5,0.2,0.9,0.5,1.1s0.7,0.2,1.1-0.1"/>
	<polygon id="XMLID_2413_" class="st3" points="213.2,350.2 216,348.5 216,345.1 213.2,346.8 	"/>
	<polygon id="XMLID_2412_" class="st3" points="208.2,353 211.2,351.3 211.2,347.9 208.2,349.6 	"/>
	<line id="XMLID_2411_" class="st3" x1="217.4" y1="370.9" x2="215.4" y2="369.8"/>
	<line id="XMLID_2410_" class="st3" x1="217.4" y1="371" x2="217.4" y2="370.9"/>
	<line id="XMLID_2409_" class="st3" x1="216.2" y1="371.1" x2="186.1" y2="388.5"/>
	<path id="XMLID_2408_" class="st3" d="M186.1,388.5c-0.5,0.3-0.9,0.7-1.2,1.2"/>
	<line id="XMLID_2407_" class="st3" x1="184.9" y1="389.8" x2="151.1" y2="370.3"/>
	<path id="XMLID_2406_" class="st3" d="M151.1,370.3c0.3-0.5,0.7-0.9,1.2-1.2"/>
	<line id="XMLID_2405_" class="st3" x1="152.3" y1="369.1" x2="153.2" y2="368.6"/>
	<path id="XMLID_2404_" class="st3" d="M184.9,389.8c-0.3,0.5-0.5,1.1-0.5,1.6"/>
	<line id="XMLID_2403_" class="st3" x1="184.4" y1="391.4" x2="184.4" y2="401.7"/>
	<line id="XMLID_2402_" class="st3" x1="186" y1="402.7" x2="216.2" y2="385.2"/>
	<path id="XMLID_2401_" class="st3" d="M216.2,385.2c0.9-0.5,1.6-1.8,1.6-2.8"/>
	<line id="XMLID_2400_" class="st3" x1="217.9" y1="382.4" x2="217.9" y2="372"/>
	<path id="XMLID_2399_" class="st3" d="M151.1,370.3c-0.3,0.6-0.4,0.9-0.5,1.6"/>
	<line id="XMLID_2398_" class="st3" x1="150.6" y1="371.9" x2="150.6" y2="382.2"/>
	<path id="XMLID_2397_" class="st3" d="M150.6,382.2c0.1,0.4,0.2,0.8,0.5,1.1"/>
	<line id="XMLID_2396_" class="st3" x1="151.1" y1="383.3" x2="184.9" y2="402.8"/>
	<line id="XMLID_2395_" class="st3" x1="215.1" y1="353.8" x2="217.4" y2="355.1"/>
	<path id="XMLID_2394_" class="st3" d="M186.1,372.7c-0.5,0.3-0.9,0.7-1.2,1.2"/>
	<path id="XMLID_2393_" class="st3" d="M151.1,354.4c0.3-0.6,0.7-0.9,1.2-1.2"/>
	<line id="XMLID_2392_" class="st3" x1="152.3" y1="353.2" x2="153.4" y2="352.5"/>
	<line id="XMLID_2391_" class="st3" x1="184.9" y1="373.9" x2="184.9" y2="373.9"/>
	<path id="XMLID_2390_" class="st3" d="M184.9,373.9c-0.3,0.5-0.5,1.1-0.5,1.6"/>
	<line id="XMLID_2389_" class="st3" x1="184.4" y1="375.5" x2="184.4" y2="385.8"/>
	<line id="XMLID_2388_" class="st3" x1="186" y1="386.8" x2="216.2" y2="369.4"/>
	<path id="XMLID_2387_" class="st3" d="M216.2,369.4c0.4-0.3,0.9-0.7,1.2-1.2"/>
	<line id="XMLID_2386_" class="st3" x1="217.4" y1="368.1" x2="217.4" y2="368.1"/>
	<path id="XMLID_2385_" class="st3" d="M217.4,368.1c0.3-0.5,0.4-1.1,0.4-1.6"/>
	<line id="XMLID_2384_" class="st3" x1="217.9" y1="366.5" x2="217.9" y2="356.2"/>
	<path id="XMLID_2383_" class="st3" d="M151.1,354.4c-0.3,0.6-0.4,1-0.5,1.6"/>
	<line id="XMLID_2382_" class="st3" x1="150.6" y1="356.1" x2="150.6" y2="366.3"/>
	<path id="XMLID_2381_" class="st3" d="M150.6,366.3c0.1,0.4,0.2,0.8,0.5,1.1"/>
	<line id="XMLID_2380_" class="st3" x1="151.1" y1="367.4" x2="184.9" y2="386.9"/>
	<path id="XMLID_2379_" class="st3" d="M184.9,386.9c-0.4-0.3-0.5-0.6-0.5-1.1"/>
	<line id="XMLID_2378_" class="st3" x1="217.4" y1="339" x2="183.7" y2="319.5"/>
	<path id="XMLID_2377_" class="st3" d="M183.7,319.5c-0.4-0.2-0.7-0.1-1.2,0.1"/>
	<line id="XMLID_2376_" class="st3" x1="182.5" y1="319.6" x2="152.3" y2="337"/>
	<path id="XMLID_2375_" class="st3" d="M152.3,337c-0.6,0.3-0.9,0.7-1.2,1.2"/>
	<line id="XMLID_2374_" class="st3" x1="151.1" y1="338.2" x2="184.9" y2="357.7"/>
	<path id="XMLID_2373_" class="st3" d="M184.9,357.7c0.3-0.6,0.6-0.9,1.1-1.2"/>
	<line id="XMLID_2372_" class="st3" x1="186" y1="356.5" x2="216.2" y2="339.1"/>
	<path id="XMLID_2371_" class="st3" d="M184.9,357.7c-0.3,0.5-0.5,1.1-0.5,1.6"/>
	<line id="XMLID_2370_" class="st3" x1="184.4" y1="359.4" x2="184.4" y2="369.6"/>
	<line id="XMLID_2369_" class="st3" x1="186" y1="370.6" x2="216.2" y2="353.2"/>
	<path id="XMLID_2368_" class="st3" d="M216.2,353.2c0.4-0.3,0.9-0.7,1.2-1.2"/>
	<path id="XMLID_2367_" class="st3" d="M217.4,351.9c0.3-0.5,0.4-1.1,0.4-1.6"/>
	<line id="XMLID_2366_" class="st3" x1="217.9" y1="350.3" x2="217.9" y2="340"/>
	<path id="XMLID_2365_" class="st3" d="M151.1,338.2c-0.3,0.6-0.4,0.9-0.5,1.6"/>
	<line id="XMLID_2364_" class="st3" x1="150.6" y1="339.9" x2="150.6" y2="350.2"/>
	<path id="XMLID_2363_" class="st3" d="M150.6,350.2c0.1,0.4,0.2,0.8,0.5,1.1"/>
	<line id="XMLID_2362_" class="st3" x1="151.1" y1="351.3" x2="184.9" y2="370.7"/>
	<path id="XMLID_2361_" class="st3" d="M184.9,370.7c-0.4-0.3-0.5-0.6-0.5-1.1"/>
	<line id="XMLID_2360_" class="st3" x1="187.4" y1="362.8" x2="205.5" y2="352.3"/>
	<line id="XMLID_2359_" class="st3" x1="187.4" y1="379" x2="205.5" y2="368.5"/>
	<line id="XMLID_2358_" class="st3" x1="187.4" y1="394.8" x2="205.5" y2="384.3"/>
</g>
<g id="Server_54_">
	<path id="XMLID_2357_" class="st3" d="M326.4,370.9c-0.1,0-0.1,0-0.2,0c-0.1-0.1-0.2-0.1-0.3,0c-0.1,0-0.2,0-0.2,0.1
		c-0.2,0.1-0.2,0.1-0.3,0.2"/>
	<path id="XMLID_2356_" class="st3" d="M326.9,372c0-0.5-0.2-0.9-0.4-1.1c-0.3-0.2-0.7-0.2-1.2,0.1"/>
	<path id="XMLID_2355_" class="st3" d="M293.4,401.7c0,0.5,0.2,0.9,0.5,1.1s0.7,0.2,1.1-0.1"/>
	<polygon id="XMLID_2354_" class="st3" points="322.2,382.2 325,380.5 325,377.2 322.2,378.9 	"/>
	<polygon id="XMLID_2353_" class="st3" points="317.2,385 320.2,383.3 320.2,380 317.2,381.7 	"/>
	<path id="XMLID_2352_" class="st3" d="M326.4,355.1c-0.1-0.1-0.2-0.1-0.2-0.1c-0.3-0.1-0.6,0-0.9,0.2"/>
	<polyline id="XMLID_2351_" class="st3" points="325.2,355.2 312.2,362.8 295.1,372.7 	"/>
	<polyline id="XMLID_2350_" class="st3" points="293.9,373.9 273.4,362.1 260.1,354.4 	"/>
	<path id="XMLID_2349_" class="st3" d="M326.9,356.2c0-0.5-0.2-0.9-0.4-1.1c-0.3-0.2-0.7-0.2-1.2,0.1"/>
	<path id="XMLID_2348_" class="st3" d="M293.4,385.8c0,0.5,0.2,0.9,0.5,1.1s0.7,0.2,1.1-0.1"/>
	<polygon id="XMLID_2347_" class="st3" points="322.2,366.3 325,364.7 325,361.3 322.2,363 	"/>
	<polygon id="XMLID_2346_" class="st3" points="317.2,369.2 320.2,367.5 320.2,364.1 317.2,365.8 	"/>
	<path id="XMLID_2345_" class="st3" d="M326.9,340c0-0.5-0.2-0.9-0.4-1.1c-0.3-0.2-0.7-0.2-1.2,0.1"/>
	<path id="XMLID_2344_" class="st3" d="M293.4,369.6c0,0.5,0.2,0.9,0.5,1.1s0.7,0.2,1.1-0.1"/>
	<polygon id="XMLID_2343_" class="st3" points="322.2,350.2 325,348.5 325,345.1 322.2,346.8 	"/>
	<polygon id="XMLID_2342_" class="st3" points="317.2,353 320.2,351.3 320.2,347.9 317.2,349.6 	"/>
	<line id="XMLID_2341_" class="st3" x1="326.4" y1="370.9" x2="324.4" y2="369.8"/>
	<line id="XMLID_2340_" class="st3" x1="326.4" y1="371" x2="326.4" y2="370.9"/>
	<line id="XMLID_2339_" class="st3" x1="325.2" y1="371.1" x2="295.1" y2="388.5"/>
	<path id="XMLID_2338_" class="st3" d="M295.1,388.5c-0.5,0.3-0.9,0.7-1.2,1.2"/>
	<line id="XMLID_2337_" class="st3" x1="293.9" y1="389.8" x2="260.1" y2="370.3"/>
	<path id="XMLID_2336_" class="st3" d="M260.1,370.3c0.3-0.5,0.7-0.9,1.2-1.2"/>
	<line id="XMLID_2335_" class="st3" x1="261.3" y1="369.1" x2="262.2" y2="368.6"/>
	<path id="XMLID_2334_" class="st3" d="M293.9,389.8c-0.3,0.5-0.5,1.1-0.5,1.6"/>
	<line id="XMLID_2333_" class="st3" x1="293.4" y1="391.4" x2="293.4" y2="401.7"/>
	<line id="XMLID_2332_" class="st3" x1="295" y1="402.7" x2="325.2" y2="385.2"/>
	<path id="XMLID_2331_" class="st3" d="M325.2,385.2c0.9-0.5,1.6-1.8,1.6-2.8"/>
	<line id="XMLID_2330_" class="st3" x1="326.9" y1="382.4" x2="326.9" y2="372"/>
	<path id="XMLID_2329_" class="st3" d="M260.1,370.3c-0.3,0.6-0.4,0.9-0.5,1.6"/>
	<line id="XMLID_2328_" class="st3" x1="259.6" y1="371.9" x2="259.6" y2="382.2"/>
	<path id="XMLID_2327_" class="st3" d="M259.6,382.2c0.1,0.4,0.2,0.8,0.5,1.1"/>
	<line id="XMLID_2326_" class="st3" x1="260.1" y1="383.3" x2="293.9" y2="402.8"/>
	<line id="XMLID_2325_" class="st3" x1="324.1" y1="353.8" x2="326.4" y2="355.1"/>
	<path id="XMLID_2324_" class="st3" d="M295.1,372.7c-0.5,0.3-0.9,0.7-1.2,1.2"/>
	<path id="XMLID_2323_" class="st3" d="M260.1,354.4c0.3-0.6,0.7-0.9,1.2-1.2"/>
	<line id="XMLID_2322_" class="st3" x1="261.3" y1="353.2" x2="262.4" y2="352.5"/>
	<line id="XMLID_2321_" class="st3" x1="293.9" y1="373.9" x2="293.9" y2="373.9"/>
	<path id="XMLID_2320_" class="st3" d="M293.9,373.9c-0.3,0.5-0.5,1.1-0.5,1.6"/>
	<line id="XMLID_2319_" class="st3" x1="293.4" y1="375.5" x2="293.4" y2="385.8"/>
	<line id="XMLID_2318_" class="st3" x1="295" y1="386.8" x2="325.2" y2="369.4"/>
	<path id="XMLID_2317_" class="st3" d="M325.2,369.4c0.4-0.3,0.9-0.7,1.2-1.2"/>
	<line id="XMLID_2316_" class="st3" x1="326.4" y1="368.1" x2="326.4" y2="368.1"/>
	<path id="XMLID_2315_" class="st3" d="M326.4,368.1c0.3-0.5,0.4-1.1,0.4-1.6"/>
	<line id="XMLID_2314_" class="st3" x1="326.9" y1="366.5" x2="326.9" y2="356.2"/>
	<path id="XMLID_2313_" class="st3" d="M260.1,354.4c-0.3,0.6-0.4,1-0.5,1.6"/>
	<line id="XMLID_2312_" class="st3" x1="259.6" y1="356.1" x2="259.6" y2="366.3"/>
	<path id="XMLID_2311_" class="st3" d="M259.6,366.3c0.1,0.4,0.2,0.8,0.5,1.1"/>
	<line id="XMLID_2310_" class="st3" x1="260.1" y1="367.4" x2="293.9" y2="386.9"/>
	<path id="XMLID_2309_" class="st3" d="M293.9,386.9c-0.4-0.3-0.5-0.6-0.5-1.1"/>
	<line id="XMLID_2308_" class="st3" x1="326.4" y1="339" x2="292.7" y2="319.5"/>
	<path id="XMLID_2307_" class="st3" d="M292.7,319.5c-0.4-0.2-0.7-0.1-1.2,0.1"/>
	<line id="XMLID_2306_" class="st3" x1="291.5" y1="319.6" x2="261.3" y2="337"/>
	<path id="XMLID_2305_" class="st3" d="M261.3,337c-0.6,0.3-0.9,0.7-1.2,1.2"/>
	<line id="XMLID_2304_" class="st3" x1="260.1" y1="338.2" x2="293.9" y2="357.7"/>
	<path id="XMLID_2260_" class="st3" d="M293.9,357.7c0.3-0.6,0.6-0.9,1.1-1.2"/>
	<line id="XMLID_2259_" class="st3" x1="295" y1="356.5" x2="325.2" y2="339.1"/>
	<path id="XMLID_2258_" class="st3" d="M293.9,357.7c-0.3,0.5-0.5,1.1-0.5,1.6"/>
	<line id="XMLID_2257_" class="st3" x1="293.4" y1="359.4" x2="293.4" y2="369.6"/>
	<line id="XMLID_2254_" class="st3" x1="295" y1="370.6" x2="325.2" y2="353.2"/>
	<path id="XMLID_2253_" class="st3" d="M325.2,353.2c0.4-0.3,0.9-0.7,1.2-1.2"/>
	<path id="XMLID_2252_" class="st3" d="M326.4,351.9c0.3-0.5,0.4-1.1,0.4-1.6"/>
	<line id="XMLID_2251_" class="st3" x1="326.9" y1="350.3" x2="326.9" y2="340"/>
	<path id="XMLID_2250_" class="st3" d="M260.1,338.2c-0.3,0.6-0.4,0.9-0.5,1.6"/>
	<line id="XMLID_2249_" class="st3" x1="259.6" y1="339.9" x2="259.6" y2="350.2"/>
	<path id="XMLID_2248_" class="st3" d="M259.6,350.2c0.1,0.4,0.2,0.8,0.5,1.1"/>
	<line id="XMLID_2247_" class="st3" x1="260.1" y1="351.3" x2="293.9" y2="370.7"/>
	<path id="XMLID_2246_" class="st3" d="M293.9,370.7c-0.4-0.3-0.5-0.6-0.5-1.1"/>
	<line id="XMLID_2245_" class="st3" x1="296.3" y1="362.8" x2="314.5" y2="352.3"/>
	<line id="XMLID_2244_" class="st3" x1="296.3" y1="379" x2="314.5" y2="368.5"/>
	<line id="XMLID_2243_" class="st3" x1="296.3" y1="394.8" x2="314.5" y2="384.3"/>
</g>
<g id="Server_53_">
	<path id="XMLID_2242_" class="st3" d="M108.8,370.9c-0.1,0-0.1,0-0.2,0c-0.1-0.1-0.2-0.1-0.3,0c-0.1,0-0.2,0-0.2,0.1
		c-0.2,0.1-0.2,0.1-0.3,0.2"/>
	<path id="XMLID_2241_" class="st3" d="M109.3,372c0-0.5-0.2-0.9-0.4-1.1c-0.3-0.2-0.7-0.2-1.2,0.1"/>
	<path id="XMLID_2240_" class="st3" d="M75.8,401.7c0,0.5,0.2,0.9,0.5,1.1s0.7,0.2,1.1-0.1"/>
	<polygon id="XMLID_2239_" class="st3" points="104.6,382.2 107.4,380.5 107.4,377.2 104.6,378.9 	"/>
	<polygon id="XMLID_2238_" class="st3" points="99.7,385 102.6,383.3 102.6,380 99.7,381.7 	"/>
	<path id="XMLID_2237_" class="st3" d="M108.8,355.1c-0.1-0.1-0.2-0.1-0.2-0.1c-0.3-0.1-0.6,0-0.9,0.2"/>
	<polyline id="XMLID_2236_" class="st3" points="107.6,355.2 94.6,362.8 77.5,372.7 	"/>
	<polyline id="XMLID_2235_" class="st3" points="76.3,373.9 55.9,362.1 42.6,354.4 	"/>
	<path id="XMLID_2234_" class="st3" d="M109.3,356.2c0-0.5-0.2-0.9-0.4-1.1c-0.3-0.2-0.7-0.2-1.2,0.1"/>
	<path id="XMLID_2233_" class="st3" d="M75.8,385.8c0,0.5,0.2,0.9,0.5,1.1s0.7,0.2,1.1-0.1"/>
	<polygon id="XMLID_2229_" class="st3" points="104.6,366.3 107.4,364.7 107.4,361.3 104.6,363 	"/>
	<polygon id="XMLID_2222_" class="st3" points="99.7,369.2 102.6,367.5 102.6,364.1 99.7,365.8 	"/>
	<path id="XMLID_2215_" class="st3" d="M109.3,340c0-0.5-0.2-0.9-0.4-1.1c-0.3-0.2-0.7-0.2-1.2,0.1"/>
	<path id="XMLID_2189_" class="st3" d="M75.8,369.6c0,0.5,0.2,0.9,0.5,1.1s0.7,0.2,1.1-0.1"/>
	<polygon id="XMLID_2188_" class="st3" points="104.6,350.2 107.4,348.5 107.4,345.1 104.6,346.8 	"/>
	<polygon id="XMLID_2187_" class="st3" points="99.7,353 102.6,351.3 102.6,347.9 99.7,349.6 	"/>
	<line id="XMLID_2186_" class="st3" x1="108.8" y1="370.9" x2="106.8" y2="369.8"/>
	<line id="XMLID_2185_" class="st3" x1="108.8" y1="371" x2="108.8" y2="370.9"/>
	<line id="XMLID_2184_" class="st3" x1="107.6" y1="371.1" x2="77.5" y2="388.5"/>
	<path id="XMLID_2183_" class="st3" d="M77.5,388.5c-0.5,0.3-0.9,0.7-1.2,1.2"/>
	<line id="XMLID_2182_" class="st3" x1="76.3" y1="389.8" x2="42.6" y2="370.3"/>
	<path id="XMLID_2181_" class="st3" d="M42.6,370.3c0.3-0.5,0.7-0.9,1.2-1.2"/>
	<line id="XMLID_2180_" class="st3" x1="43.7" y1="369.1" x2="44.6" y2="368.6"/>
	<path id="XMLID_2179_" class="st3" d="M76.3,389.8c-0.3,0.5-0.5,1.1-0.5,1.6"/>
	<line id="XMLID_2178_" class="st3" x1="75.8" y1="391.4" x2="75.8" y2="401.7"/>
	<line id="XMLID_2177_" class="st3" x1="77.4" y1="402.7" x2="107.6" y2="385.2"/>
	<path id="XMLID_2176_" class="st3" d="M107.6,385.2c0.9-0.5,1.6-1.8,1.6-2.8"/>
	<line id="XMLID_2175_" class="st3" x1="109.3" y1="382.4" x2="109.3" y2="372"/>
	<path id="XMLID_2174_" class="st3" d="M42.6,370.3c-0.3,0.6-0.4,0.9-0.5,1.6"/>
	<line id="XMLID_2173_" class="st3" x1="42.1" y1="371.9" x2="42.1" y2="382.2"/>
	<path id="XMLID_2172_" class="st3" d="M42.1,382.2c0.1,0.4,0.2,0.8,0.5,1.1"/>
	<line id="XMLID_2171_" class="st3" x1="76.3" y1="402.8" x2="42.6" y2="383.3"/>
	<line id="XMLID_2170_" class="st3" x1="106.5" y1="353.8" x2="108.8" y2="355.1"/>
	<path id="XMLID_2169_" class="st3" d="M77.5,372.7c-0.5,0.3-0.9,0.7-1.2,1.2"/>
	<path id="XMLID_2168_" class="st3" d="M42.6,354.4c0.3-0.6,0.7-0.9,1.2-1.2"/>
	<line id="XMLID_2167_" class="st3" x1="43.7" y1="353.2" x2="44.8" y2="352.5"/>
	<line id="XMLID_2166_" class="st3" x1="76.3" y1="373.9" x2="76.3" y2="373.9"/>
	<path id="XMLID_2165_" class="st3" d="M76.3,373.9c-0.3,0.5-0.5,1.1-0.5,1.6"/>
	<line id="XMLID_2164_" class="st3" x1="75.8" y1="375.5" x2="75.8" y2="385.8"/>
	<line id="XMLID_2163_" class="st3" x1="77.4" y1="386.8" x2="107.6" y2="369.4"/>
	<path id="XMLID_2162_" class="st3" d="M107.6,369.4c0.4-0.3,0.9-0.7,1.2-1.2"/>
	<line id="XMLID_2161_" class="st3" x1="108.8" y1="368.1" x2="108.8" y2="368.1"/>
	<path id="XMLID_2160_" class="st3" d="M108.8,368.1c0.3-0.5,0.4-1.1,0.4-1.6"/>
	<line id="XMLID_2159_" class="st3" x1="109.3" y1="366.5" x2="109.3" y2="356.2"/>
	<path id="XMLID_2158_" class="st3" d="M42.6,354.4c-0.3,0.6-0.4,1-0.5,1.6"/>
	<line id="XMLID_2157_" class="st3" x1="42.1" y1="356.1" x2="42.1" y2="366.3"/>
	<path id="XMLID_2156_" class="st3" d="M42.1,366.3c0.1,0.4,0.2,0.8,0.5,1.1"/>
	<line id="XMLID_2155_" class="st3" x1="42.6" y1="367.4" x2="76.3" y2="386.9"/>
	<path id="XMLID_2154_" class="st3" d="M76.3,386.9c-0.4-0.3-0.5-0.6-0.5-1.1"/>
	<line id="XMLID_2153_" class="st3" x1="108.8" y1="339" x2="75.1" y2="319.5"/>
	<path id="XMLID_2152_" class="st3" d="M75.1,319.5c-0.4-0.2-0.7-0.1-1.2,0.1"/>
	<line id="XMLID_2151_" class="st3" x1="73.9" y1="319.6" x2="43.7" y2="337"/>
	<path id="XMLID_2149_" class="st3" d="M43.7,337c-0.6,0.3-0.9,0.7-1.2,1.2"/>
	<line id="XMLID_2148_" class="st3" x1="42.6" y1="338.2" x2="76.3" y2="357.7"/>
	<path id="XMLID_2147_" class="st3" d="M76.3,357.7c0.3-0.6,0.6-0.9,1.1-1.2"/>
	<line id="XMLID_2146_" class="st3" x1="77.4" y1="356.5" x2="107.6" y2="339.1"/>
	<path id="XMLID_2145_" class="st3" d="M76.3,357.7c-0.3,0.5-0.5,1.1-0.5,1.6"/>
	<line id="XMLID_2144_" class="st3" x1="75.8" y1="359.4" x2="75.8" y2="369.6"/>
	<line id="XMLID_2143_" class="st3" x1="77.4" y1="370.6" x2="107.6" y2="353.2"/>
	<path id="XMLID_2142_" class="st3" d="M107.6,353.2c0.4-0.3,0.9-0.7,1.2-1.2"/>
	<path id="XMLID_2141_" class="st3" d="M108.8,351.9c0.3-0.5,0.4-1.1,0.4-1.6"/>
	<line id="XMLID_2140_" class="st3" x1="109.3" y1="350.3" x2="109.3" y2="340"/>
	<path id="XMLID_2139_" class="st3" d="M42.6,338.2c-0.3,0.6-0.4,0.9-0.5,1.6"/>
	<line id="XMLID_2138_" class="st3" x1="42.1" y1="339.9" x2="42.1" y2="350.2"/>
	<path id="XMLID_2137_" class="st3" d="M42.1,350.2c0.1,0.4,0.2,0.8,0.5,1.1"/>
	<line id="XMLID_2136_" class="st3" x1="42.6" y1="351.3" x2="76.3" y2="370.7"/>
	<path id="XMLID_2135_" class="st3" d="M76.3,370.7c-0.4-0.3-0.5-0.6-0.5-1.1"/>
	<line id="XMLID_2134_" class="st3" x1="78.8" y1="362.8" x2="96.9" y2="352.3"/>
	<line id="XMLID_2133_" class="st3" x1="78.8" y1="379" x2="96.9" y2="368.5"/>
	<line id="XMLID_2132_" class="st3" x1="78.8" y1="394.8" x2="96.9" y2="384.3"/>
</g>
<g id="XMLID_2432_">
	<g id="Server_52_">
		<path id="XMLID_2127_" class="st4" d="M151.5,118.9c0.1,0,0.1,0,0.2,0c0.1-0.1,0.2-0.1,0.3,0c0.1,0,0.2,0,0.2,0.1
			c0.2,0.1,0.2,0.1,0.3,0.2"/>
		<path id="XMLID_2126_" class="st4" d="M151,120c0-0.5,0.2-0.9,0.4-1.1c0.3-0.2,0.7-0.2,1.2,0.1"/>
		<path id="XMLID_2125_" class="st4" d="M184.5,149.7c0,0.5-0.2,0.9-0.5,1.1c-0.3,0.2-0.7,0.2-1.1-0.1"/>
		<polygon id="XMLID_2124_" class="st4" points="155.7,130.2 152.8,128.5 152.8,125.2 155.7,126.9 		"/>
		<polygon id="XMLID_2123_" class="st4" points="160.6,133 157.7,131.3 157.7,128 160.6,129.7 		"/>
		<path id="XMLID_2122_" class="st4" d="M151.4,103.1c0.1-0.1,0.2-0.1,0.2-0.1c0.3-0.1,0.6,0,0.9,0.2"/>
		<polyline id="XMLID_2121_" class="st4" points="152.6,103.2 165.7,110.8 182.8,120.7 		"/>
		<polyline id="XMLID_2120_" class="st4" points="184,121.9 204.4,110.1 217.7,102.4 		"/>
		<path id="XMLID_2119_" class="st4" d="M151,104.2c0-0.5,0.2-0.9,0.4-1.1c0.3-0.2,0.7-0.2,1.2,0.1"/>
		<path id="XMLID_2118_" class="st4" d="M184.5,133.8c0,0.5-0.2,0.9-0.5,1.1c-0.3,0.2-0.7,0.2-1.1-0.1"/>
		<polygon id="XMLID_2117_" class="st4" points="155.7,114.3 152.8,112.7 152.8,109.3 155.7,111 		"/>
		<polygon id="XMLID_2116_" class="st4" points="160.6,117.2 157.7,115.5 157.7,112.1 160.6,113.8 		"/>
		<path id="XMLID_2115_" class="st4" d="M151,88c0-0.5,0.2-0.9,0.4-1.1c0.3-0.2,0.7-0.2,1.2,0.1"/>
		<path id="XMLID_2114_" class="st4" d="M184.5,117.6c0,0.5-0.2,0.9-0.5,1.1s-0.7,0.2-1.1-0.1"/>
		<polygon id="XMLID_2113_" class="st4" points="155.7,98.2 152.8,96.5 152.8,93.1 155.7,94.8 		"/>
		<polygon id="XMLID_2112_" class="st4" points="160.6,101 157.7,99.3 157.7,95.9 160.6,97.6 		"/>
		<line id="XMLID_2111_" class="st4" x1="151.5" y1="118.9" x2="153.4" y2="117.8"/>
		<line id="XMLID_2110_" class="st4" x1="151.4" y1="119" x2="151.5" y2="118.9"/>
		<line id="XMLID_2101_" class="st4" x1="152.6" y1="119.1" x2="182.8" y2="136.5"/>
		<path id="XMLID_2100_" class="st4" d="M182.8,136.5c0.5,0.3,0.9,0.7,1.2,1.2"/>
		<line id="XMLID_2096_" class="st4" x1="184" y1="137.8" x2="217.7" y2="118.3"/>
		<path id="XMLID_2095_" class="st4" d="M217.7,118.3c-0.3-0.5-0.7-0.9-1.2-1.2"/>
		<line id="XMLID_2094_" class="st4" x1="216.5" y1="117.1" x2="215.7" y2="116.6"/>
		<path id="XMLID_2093_" class="st4" d="M184,137.8c0.3,0.5,0.5,1.1,0.5,1.6"/>
		<line id="XMLID_2092_" class="st4" x1="184.5" y1="139.4" x2="184.5" y2="149.7"/>
		<line id="XMLID_2091_" class="st4" x1="182.8" y1="150.7" x2="152.6" y2="133.2"/>
		<path id="XMLID_2090_" class="st4" d="M152.6,133.2c-0.9-0.5-1.6-1.8-1.6-2.8"/>
		<line id="XMLID_2089_" class="st4" x1="151" y1="130.4" x2="151" y2="120"/>
		<path id="XMLID_2083_" class="st4" d="M217.7,118.3c0.3,0.6,0.4,0.9,0.5,1.6"/>
		<line id="XMLID_2082_" class="st4" x1="218.2" y1="119.9" x2="218.2" y2="130.2"/>
		<path id="XMLID_2081_" class="st4" d="M218.2,130.2c-0.1,0.4-0.2,0.8-0.5,1.1"/>
		<line id="XMLID_2080_" class="st4" x1="217.7" y1="131.3" x2="184" y2="150.8"/>
		<line id="XMLID_2079_" class="st4" x1="153.7" y1="101.8" x2="151.4" y2="103.1"/>
		<path id="XMLID_2078_" class="st4" d="M182.8,120.7c0.5,0.3,0.9,0.7,1.2,1.2"/>
		<path id="XMLID_2077_" class="st4" d="M217.7,102.4c-0.3-0.6-0.7-0.9-1.2-1.2"/>
		<line id="XMLID_2074_" class="st4" x1="216.5" y1="101.2" x2="215.5" y2="100.5"/>
		<line id="XMLID_2069_" class="st4" x1="184" y1="121.9" x2="184" y2="121.9"/>
		<path id="XMLID_2068_" class="st4" d="M184,121.9c0.3,0.5,0.5,1.1,0.5,1.6"/>
		<line id="XMLID_2067_" class="st4" x1="184.5" y1="123.5" x2="184.5" y2="133.8"/>
		<line id="XMLID_2066_" class="st4" x1="182.8" y1="134.8" x2="152.6" y2="117.4"/>
		<path id="XMLID_2065_" class="st4" d="M152.6,117.4c-0.4-0.3-0.9-0.7-1.2-1.2"/>
		<line id="XMLID_2063_" class="st4" x1="151.4" y1="116.1" x2="151.4" y2="116.1"/>
		<path id="XMLID_2054_" class="st4" d="M151.4,116.1c-0.3-0.5-0.4-1.1-0.4-1.6"/>
		<line id="XMLID_1477_" class="st4" x1="151" y1="114.5" x2="151" y2="104.2"/>
		<path id="XMLID_1476_" class="st4" d="M217.7,102.4c0.3,0.6,0.4,1,0.5,1.6"/>
		<line id="XMLID_1475_" class="st4" x1="218.2" y1="104.1" x2="218.2" y2="114.3"/>
		<path id="XMLID_1474_" class="st4" d="M218.2,114.3c-0.1,0.4-0.2,0.8-0.5,1.1"/>
		<line id="XMLID_1473_" class="st4" x1="217.7" y1="115.4" x2="184" y2="134.9"/>
		<path id="XMLID_1472_" class="st4" d="M184,134.9c0.4-0.3,0.5-0.6,0.5-1.1"/>
		<line id="XMLID_1471_" class="st4" x1="151.4" y1="87" x2="185.2" y2="67.5"/>
		<path id="XMLID_1470_" class="st4" d="M185.2,67.5c0.4-0.2,0.7-0.1,1.2,0.1"/>
		<line id="XMLID_1469_" class="st4" x1="186.4" y1="67.6" x2="216.5" y2="85"/>
		<path id="XMLID_1468_" class="st4" d="M216.5,85c0.6,0.3,0.9,0.7,1.2,1.2"/>
		<line id="XMLID_1467_" class="st4" x1="217.7" y1="86.2" x2="184" y2="105.7"/>
		<path id="XMLID_1466_" class="st4" d="M184,105.7c-0.3-0.6-0.6-0.9-1.1-1.2"/>
		<line id="XMLID_1465_" class="st4" x1="182.8" y1="104.5" x2="152.6" y2="87.1"/>
		<path id="XMLID_1464_" class="st4" d="M184,105.7c0.3,0.5,0.5,1.1,0.5,1.6"/>
		<line id="XMLID_1463_" class="st4" x1="184.5" y1="107.4" x2="184.5" y2="117.6"/>
		<line id="XMLID_1458_" class="st4" x1="182.8" y1="118.6" x2="152.6" y2="101.2"/>
		<path id="XMLID_1457_" class="st4" d="M152.6,101.2c-0.4-0.3-0.9-0.7-1.2-1.2"/>
		<path id="XMLID_1456_" class="st4" d="M151.4,99.9c-0.3-0.5-0.4-1.1-0.4-1.6"/>
		<line id="XMLID_1455_" class="st4" x1="151" y1="98.3" x2="151" y2="88"/>
		<path id="XMLID_1454_" class="st4" d="M217.7,86.2c0.3,0.6,0.4,0.9,0.5,1.6"/>
		<line id="XMLID_1453_" class="st4" x1="218.2" y1="87.9" x2="218.2" y2="98.2"/>
		<path id="XMLID_1452_" class="st4" d="M218.2,98.2c-0.1,0.4-0.2,0.8-0.5,1.1"/>
		<line id="XMLID_1451_" class="st4" x1="217.7" y1="99.3" x2="184" y2="118.7"/>
		<path id="XMLID_1450_" class="st4" d="M184,118.7c0.4-0.3,0.5-0.6,0.5-1.1"/>
		<line id="XMLID_1449_" class="st4" x1="181.5" y1="110.8" x2="163.3" y2="100.3"/>
		<line id="XMLID_1448_" class="st4" x1="181.5" y1="127" x2="163.3" y2="116.5"/>
		<line id="XMLID_1447_" class="st4" x1="181.5" y1="142.8" x2="163.3" y2="132.3"/>
	</g>
	<g id="Server_51_">
		<path id="XMLID_1446_" class="st4" d="M42.5,118.9c0.1,0,0.1,0,0.2,0c0.1-0.1,0.2-0.1,0.3,0c0.1,0,0.2,0,0.2,0.1
			c0.2,0.1,0.2,0.1,0.3,0.2"/>
		<path id="XMLID_1445_" class="st4" d="M42,120c0-0.5,0.2-0.9,0.4-1.1c0.3-0.2,0.7-0.2,1.2,0.1"/>
		<path id="XMLID_1444_" class="st4" d="M75.5,149.7c0,0.5-0.2,0.9-0.5,1.1c-0.3,0.2-0.7,0.2-1.1-0.1"/>
		<polygon id="XMLID_1443_" class="st4" points="46.7,130.2 43.8,128.5 43.8,125.2 46.7,126.9 		"/>
		<polygon id="XMLID_1442_" class="st4" points="51.6,133 48.7,131.3 48.7,128 51.6,129.7 		"/>
		<path id="XMLID_1441_" class="st4" d="M42.4,103.1c0.1-0.1,0.2-0.1,0.2-0.1c0.3-0.1,0.6,0,0.9,0.2"/>
		<polyline id="XMLID_1440_" class="st4" points="43.6,103.2 56.7,110.8 73.8,120.7 		"/>
		<polyline id="XMLID_1439_" class="st4" points="75,121.9 95.4,110.1 108.7,102.4 		"/>
		<path id="XMLID_1438_" class="st4" d="M42,104.2c0-0.5,0.2-0.9,0.4-1.1c0.3-0.2,0.7-0.2,1.2,0.1"/>
		<path id="XMLID_1437_" class="st4" d="M75.5,133.8c0,0.5-0.2,0.9-0.5,1.1c-0.3,0.2-0.7,0.2-1.1-0.1"/>
		<polygon id="XMLID_1436_" class="st4" points="46.7,114.3 43.8,112.7 43.8,109.3 46.7,111 		"/>
		<polygon id="XMLID_1435_" class="st4" points="51.6,117.2 48.7,115.5 48.7,112.1 51.6,113.8 		"/>
		<path id="XMLID_1434_" class="st4" d="M42,88c0-0.5,0.2-0.9,0.4-1.1c0.3-0.2,0.7-0.2,1.2,0.1"/>
		<path id="XMLID_1433_" class="st4" d="M75.5,117.6c0,0.5-0.2,0.9-0.5,1.1s-0.7,0.2-1.1-0.1"/>
		<polygon id="XMLID_1432_" class="st4" points="46.7,98.2 43.8,96.5 43.8,93.1 46.7,94.8 		"/>
		<polygon id="XMLID_1431_" class="st4" points="51.6,101 48.7,99.3 48.7,95.9 51.6,97.6 		"/>
		<line id="XMLID_1430_" class="st4" x1="42.5" y1="118.9" x2="44.4" y2="117.8"/>
		<line id="XMLID_1429_" class="st4" x1="42.4" y1="119" x2="42.5" y2="118.9"/>
		<line id="XMLID_1428_" class="st4" x1="43.6" y1="119.1" x2="73.8" y2="136.5"/>
		<path id="XMLID_1427_" class="st4" d="M73.8,136.5c0.5,0.3,0.9,0.7,1.2,1.2"/>
		<line id="XMLID_1426_" class="st4" x1="75" y1="137.8" x2="108.7" y2="118.3"/>
		<path id="XMLID_1425_" class="st4" d="M108.7,118.3c-0.3-0.5-0.7-0.9-1.2-1.2"/>
		<line id="XMLID_1424_" class="st4" x1="107.5" y1="117.1" x2="106.7" y2="116.6"/>
		<path id="XMLID_1423_" class="st4" d="M75,137.8c0.3,0.5,0.5,1.1,0.5,1.6"/>
		<line id="XMLID_1422_" class="st4" x1="75.5" y1="139.4" x2="75.5" y2="149.7"/>
		<line id="XMLID_1421_" class="st4" x1="73.8" y1="150.7" x2="43.6" y2="133.2"/>
		<path id="XMLID_1420_" class="st4" d="M43.6,133.2c-0.9-0.5-1.6-1.8-1.6-2.8"/>
		<line id="XMLID_1419_" class="st4" x1="42" y1="130.4" x2="42" y2="120"/>
		<path id="XMLID_1417_" class="st4" d="M108.7,118.3c0.3,0.6,0.4,0.9,0.5,1.6"/>
		<line id="XMLID_1416_" class="st4" x1="109.2" y1="119.9" x2="109.2" y2="130.2"/>
		<path id="XMLID_1415_" class="st4" d="M109.2,130.2c-0.1,0.4-0.2,0.8-0.5,1.1"/>
		<line id="XMLID_1414_" class="st4" x1="108.7" y1="131.3" x2="75" y2="150.8"/>
		<line id="XMLID_1412_" class="st4" x1="44.7" y1="101.8" x2="42.4" y2="103.1"/>
		<path id="XMLID_1411_" class="st4" d="M73.8,120.7c0.5,0.3,0.9,0.7,1.2,1.2"/>
		<path id="XMLID_1410_" class="st4" d="M108.7,102.4c-0.3-0.6-0.7-0.9-1.2-1.2"/>
		<line id="XMLID_1409_" class="st4" x1="107.5" y1="101.2" x2="106.5" y2="100.5"/>
		<line id="XMLID_1407_" class="st4" x1="75" y1="121.9" x2="75" y2="121.9"/>
		<path id="XMLID_1406_" class="st4" d="M75,121.9c0.3,0.5,0.5,1.1,0.5,1.6"/>
		<line id="XMLID_1405_" class="st4" x1="75.5" y1="123.5" x2="75.5" y2="133.8"/>
		<line id="XMLID_1404_" class="st4" x1="73.8" y1="134.8" x2="43.6" y2="117.4"/>
		<path id="XMLID_1402_" class="st4" d="M43.6,117.4c-0.4-0.3-0.9-0.7-1.2-1.2"/>
		<line id="XMLID_1401_" class="st4" x1="42.4" y1="116.1" x2="42.4" y2="116.1"/>
		<path id="XMLID_1400_" class="st4" d="M42.4,116.1c-0.3-0.5-0.4-1.1-0.4-1.6"/>
		<line id="XMLID_1399_" class="st4" x1="42" y1="114.5" x2="42" y2="104.2"/>
		<path id="XMLID_1398_" class="st4" d="M108.7,102.4c0.3,0.6,0.4,1,0.5,1.6"/>
		<line id="XMLID_1397_" class="st4" x1="109.2" y1="104.1" x2="109.2" y2="114.3"/>
		<path id="XMLID_1396_" class="st4" d="M109.2,114.3c-0.1,0.4-0.2,0.8-0.5,1.1"/>
		<line id="XMLID_1395_" class="st4" x1="108.7" y1="115.4" x2="75" y2="134.9"/>
		<path id="XMLID_1394_" class="st4" d="M75,134.9c0.4-0.3,0.5-0.6,0.5-1.1"/>
		<line id="XMLID_1393_" class="st4" x1="42.4" y1="87" x2="76.2" y2="67.5"/>
		<path id="XMLID_1392_" class="st4" d="M76.2,67.5c0.4-0.2,0.7-0.1,1.2,0.1"/>
		<line id="XMLID_1391_" class="st4" x1="77.4" y1="67.6" x2="107.5" y2="85"/>
		<path id="XMLID_1390_" class="st4" d="M107.5,85c0.6,0.3,0.9,0.7,1.2,1.2"/>
		<line id="XMLID_1389_" class="st4" x1="108.7" y1="86.2" x2="75" y2="105.7"/>
		<path id="XMLID_1388_" class="st4" d="M75,105.7c-0.3-0.6-0.6-0.9-1.1-1.2"/>
		<line id="XMLID_1387_" class="st4" x1="73.8" y1="104.5" x2="43.6" y2="87.1"/>
		<path id="XMLID_1386_" class="st4" d="M75,105.7c0.3,0.5,0.5,1.1,0.5,1.6"/>
		<line id="XMLID_1385_" class="st4" x1="75.5" y1="107.4" x2="75.5" y2="117.6"/>
		<line id="XMLID_1384_" class="st4" x1="73.8" y1="118.6" x2="43.6" y2="101.2"/>
		<path id="XMLID_1383_" class="st4" d="M43.6,101.2c-0.4-0.3-0.9-0.7-1.2-1.2"/>
		<path id="XMLID_1382_" class="st4" d="M42.4,99.9c-0.3-0.5-0.4-1.1-0.4-1.6"/>
		<line id="XMLID_1381_" class="st4" x1="42" y1="98.3" x2="42" y2="88"/>
		<path id="XMLID_1380_" class="st4" d="M108.7,86.2c0.3,0.6,0.4,0.9,0.5,1.6"/>
		<line id="XMLID_1379_" class="st4" x1="109.2" y1="87.9" x2="109.2" y2="98.2"/>
		<path id="XMLID_1378_" class="st4" d="M109.2,98.2c-0.1,0.4-0.2,0.8-0.5,1.1"/>
		<line id="XMLID_1377_" class="st4" x1="108.7" y1="99.3" x2="75" y2="118.7"/>
		<path id="XMLID_1376_" class="st4" d="M75,118.7c0.4-0.3,0.5-0.6,0.5-1.1"/>
		<line id="XMLID_1375_" class="st4" x1="72.5" y1="110.8" x2="54.3" y2="100.3"/>
		<line id="XMLID_1374_" class="st4" x1="72.5" y1="127" x2="54.3" y2="116.5"/>
		<line id="XMLID_1373_" class="st4" x1="72.5" y1="142.8" x2="54.3" y2="132.3"/>
	</g>
	<g id="Server_50_">
		<path id="XMLID_1372_" class="st4" d="M260.1,118.9c0.1,0,0.1,0,0.2,0c0.1-0.1,0.2-0.1,0.3,0c0.1,0,0.2,0,0.2,0.1
			c0.2,0.1,0.2,0.1,0.3,0.2"/>
		<path id="XMLID_1371_" class="st4" d="M259.6,120c0-0.5,0.2-0.9,0.4-1.1c0.3-0.2,0.7-0.2,1.2,0.1"/>
		<path id="XMLID_1370_" class="st4" d="M293,149.7c0,0.5-0.2,0.9-0.5,1.1c-0.3,0.2-0.7,0.2-1.1-0.1"/>
		<polygon id="XMLID_1369_" class="st4" points="264.3,130.2 261.4,128.5 261.4,125.2 264.3,126.9 		"/>
		<polygon id="XMLID_1368_" class="st4" points="269.2,133 266.3,131.3 266.3,128 269.2,129.7 		"/>
		<path id="XMLID_1367_" class="st4" d="M260,103.1c0.1-0.1,0.2-0.1,0.2-0.1c0.3-0.1,0.6,0,0.9,0.2"/>
		<polyline id="XMLID_1366_" class="st4" points="261.2,103.2 274.3,110.8 291.4,120.7 		"/>
		<polyline id="XMLID_1365_" class="st4" points="292.5,121.9 313,110.1 326.3,102.4 		"/>
		<path id="XMLID_1364_" class="st4" d="M259.6,104.2c0-0.5,0.2-0.9,0.4-1.1c0.3-0.2,0.7-0.2,1.2,0.1"/>
		<path id="XMLID_1363_" class="st4" d="M293,133.8c0,0.5-0.2,0.9-0.5,1.1c-0.3,0.2-0.7,0.2-1.1-0.1"/>
		<polygon id="XMLID_1362_" class="st4" points="264.3,114.3 261.4,112.7 261.4,109.3 264.3,111 		"/>
		<polygon id="XMLID_1361_" class="st4" points="269.2,117.2 266.3,115.5 266.3,112.1 269.2,113.8 		"/>
		<path id="XMLID_1360_" class="st4" d="M259.6,88c0-0.5,0.2-0.9,0.4-1.1c0.3-0.2,0.7-0.2,1.2,0.1"/>
		<path id="XMLID_1359_" class="st4" d="M293,117.6c0,0.5-0.2,0.9-0.5,1.1s-0.7,0.2-1.1-0.1"/>
		<polygon id="XMLID_1358_" class="st4" points="264.3,98.2 261.4,96.5 261.4,93.1 264.3,94.8 		"/>
		<polygon id="XMLID_1357_" class="st4" points="269.2,101 266.3,99.3 266.3,95.9 269.2,97.6 		"/>
		<line id="XMLID_1355_" class="st4" x1="260.1" y1="118.9" x2="262" y2="117.8"/>
		<line id="XMLID_1354_" class="st4" x1="260" y1="119" x2="260.1" y2="118.9"/>
		<line id="XMLID_1353_" class="st4" x1="261.2" y1="119.1" x2="291.4" y2="136.5"/>
		<path id="XMLID_1352_" class="st4" d="M291.4,136.5c0.5,0.3,0.9,0.7,1.2,1.2"/>
		<line id="XMLID_1351_" class="st4" x1="292.5" y1="137.8" x2="326.3" y2="118.3"/>
		<path id="XMLID_1350_" class="st4" d="M326.3,118.3c-0.3-0.5-0.7-0.9-1.2-1.2"/>
		<line id="XMLID_1349_" class="st4" x1="325.1" y1="117.1" x2="324.3" y2="116.6"/>
		<path id="XMLID_1348_" class="st4" d="M292.5,137.8c0.3,0.5,0.5,1.1,0.5,1.6"/>
		<line id="XMLID_1347_" class="st4" x1="293" y1="139.4" x2="293" y2="149.7"/>
		<line id="XMLID_1346_" class="st4" x1="291.4" y1="150.7" x2="261.2" y2="133.2"/>
		<path id="XMLID_1345_" class="st4" d="M261.2,133.2c-0.9-0.5-1.6-1.8-1.6-2.8"/>
		<line id="XMLID_1344_" class="st4" x1="259.6" y1="130.4" x2="259.6" y2="120"/>
		<path id="XMLID_1343_" class="st4" d="M326.3,118.3c0.3,0.6,0.4,0.9,0.5,1.6"/>
		<line id="XMLID_1342_" class="st4" x1="326.8" y1="119.9" x2="326.8" y2="130.2"/>
		<path id="XMLID_1341_" class="st4" d="M326.8,130.2c-0.1,0.4-0.2,0.8-0.5,1.1"/>
		<line id="XMLID_1340_" class="st4" x1="292.5" y1="150.8" x2="326.3" y2="131.3"/>
		<line id="XMLID_1339_" class="st4" x1="262.3" y1="101.8" x2="260" y2="103.1"/>
		<path id="XMLID_1338_" class="st4" d="M291.4,120.7c0.5,0.3,0.9,0.7,1.2,1.2"/>
		<path id="XMLID_1337_" class="st4" d="M326.3,102.4c-0.3-0.6-0.7-0.9-1.2-1.2"/>
		<line id="XMLID_1336_" class="st4" x1="325.1" y1="101.2" x2="324.1" y2="100.5"/>
		<line id="XMLID_1335_" class="st4" x1="292.5" y1="121.9" x2="292.5" y2="121.9"/>
		<path id="XMLID_1334_" class="st4" d="M292.5,121.9c0.3,0.5,0.5,1.1,0.5,1.6"/>
		<line id="XMLID_1333_" class="st4" x1="293" y1="123.5" x2="293" y2="133.8"/>
		<line id="XMLID_1332_" class="st4" x1="291.4" y1="134.8" x2="261.2" y2="117.4"/>
		<path id="XMLID_1331_" class="st4" d="M261.2,117.4c-0.4-0.3-0.9-0.7-1.2-1.2"/>
		<line id="XMLID_1330_" class="st4" x1="260" y1="116.1" x2="260" y2="116.1"/>
		<path id="XMLID_1329_" class="st4" d="M260,116.1c-0.3-0.5-0.4-1.1-0.4-1.6"/>
		<line id="XMLID_1328_" class="st4" x1="259.6" y1="114.5" x2="259.6" y2="104.2"/>
		<path id="XMLID_1327_" class="st4" d="M326.3,102.4c0.3,0.6,0.4,1,0.5,1.6"/>
		<line id="XMLID_1326_" class="st4" x1="326.8" y1="104.1" x2="326.8" y2="114.3"/>
		<path id="XMLID_1325_" class="st4" d="M326.8,114.3c-0.1,0.4-0.2,0.8-0.5,1.1"/>
		<line id="XMLID_1324_" class="st4" x1="326.3" y1="115.4" x2="292.5" y2="134.9"/>
		<path id="XMLID_1323_" class="st4" d="M292.5,134.9c0.4-0.3,0.5-0.6,0.5-1.1"/>
		<line id="XMLID_1322_" class="st4" x1="260" y1="87" x2="293.8" y2="67.5"/>
		<path id="XMLID_1321_" class="st4" d="M293.8,67.5c0.4-0.2,0.7-0.1,1.2,0.1"/>
		<line id="XMLID_1320_" class="st4" x1="294.9" y1="67.6" x2="325.1" y2="85"/>
		<path id="XMLID_1319_" class="st4" d="M325.1,85c0.6,0.3,0.9,0.7,1.2,1.2"/>
		<line id="XMLID_1318_" class="st4" x1="326.3" y1="86.2" x2="292.5" y2="105.7"/>
		<path id="XMLID_1317_" class="st4" d="M292.5,105.7c-0.3-0.6-0.6-0.9-1.1-1.2"/>
		<line id="XMLID_1316_" class="st4" x1="291.4" y1="104.5" x2="261.2" y2="87.1"/>
		<path id="XMLID_1315_" class="st4" d="M292.5,105.7c0.3,0.5,0.5,1.1,0.5,1.6"/>
		<line id="XMLID_1314_" class="st4" x1="293" y1="107.4" x2="293" y2="117.6"/>
		<line id="XMLID_1313_" class="st4" x1="291.4" y1="118.6" x2="261.2" y2="101.2"/>
		<path id="XMLID_1312_" class="st4" d="M261.2,101.2c-0.4-0.3-0.9-0.7-1.2-1.2"/>
		<path id="XMLID_1311_" class="st4" d="M260,99.9c-0.3-0.5-0.4-1.1-0.4-1.6"/>
		<line id="XMLID_1310_" class="st4" x1="259.6" y1="98.3" x2="259.6" y2="88"/>
		<path id="XMLID_1309_" class="st4" d="M326.3,86.2c0.3,0.6,0.4,0.9,0.5,1.6"/>
		<line id="XMLID_1308_" class="st4" x1="326.8" y1="87.9" x2="326.8" y2="98.2"/>
		<path id="XMLID_1307_" class="st4" d="M326.8,98.2c-0.1,0.4-0.2,0.8-0.5,1.1"/>
		<line id="XMLID_1305_" class="st4" x1="326.3" y1="99.3" x2="292.5" y2="118.7"/>
		<path id="XMLID_1304_" class="st4" d="M292.5,118.7c0.4-0.3,0.5-0.6,0.5-1.1"/>
		<line id="XMLID_1302_" class="st4" x1="290.1" y1="110.8" x2="271.9" y2="100.3"/>
		<line id="XMLID_1301_" class="st4" x1="290.1" y1="127" x2="271.9" y2="116.5"/>
		<line id="XMLID_1300_" class="st4" x1="290.1" y1="142.8" x2="271.9" y2="132.3"/>
	</g>
</g>
<g id="PNS_16_">
	<path id="XMLID_1299_" class="st5" d="M152.4,199.2L140.8,213l23.3,54.4l23.2,13.4l-23.2-54.4l23.2,13.4l-6.2,7.4l11.7,27.2
		l17.8-21.1L199,226.2l-16.6-9.6l-6.6-3.8l-3.9-9.1l-15.5-9L152.4,199.2z"/>
	<path id="XMLID_1296_" class="st5" d="M192.7,274.3l17.5-10.4l17.8-21.1l-4.2-9.9l-7.4-17.2l-23.3-13.5l-3.9-9.1l-15.5-9
		l-17.5,10.4 M204.6,267.3l1.3,2.8l-18.7,10.8"/>
	<line id="XMLID_1295_" class="st5" x1="171.9" y1="203.6" x2="189.4" y2="193.2"/>
	<line id="XMLID_1294_" class="st5" x1="175.7" y1="212.7" x2="193.2" y2="202.3"/>
	<line id="XMLID_1293_" class="st5" x1="198.9" y1="226.1" x2="216.5" y2="215.7"/>
</g>
<polyline id="XMLID_814_" class="st6" points="150,234.5 20.5,234.5 20.5,24.2 349.4,24.2 349.4,234.5 224.5,234.5 "/>
</svg>
