<?xml version="1.0" encoding="utf-8"?>
<!-- Generator: Adobe Illustrator 19.0.0, SVG Export Plug-In . SVG Version: 6.00 Build 0)  -->
<svg version="1.1" id="Layer_1" xmlns="http://www.w3.org/2000/svg" xmlns:xlink="http://www.w3.org/1999/xlink" x="0px" y="0px"
	 viewBox="0 0 29 28.7" style="enable-background:new 0 0 29 28.7;" xml:space="preserve">
<style type="text/css">
	.st0{opacity:0.4;}
	.st1{fill:#A9C6EA;}
</style>
<g id="XMLID_2949_" class="st0">
	<path id="XMLID_2954_" class="st1" d="M22.1,12l-1.6,2.2c0,0,0,0.1,0,0.1c0,3.3-2.7,6-6,6s-6-2.7-6-6c0-3.3,2.7-6,6-6
		c0.6,0,1.1,0.1,1.7,0.2l1.2-1.7c-0.3-0.1-0.6-0.2-0.9-0.3V4.3h-4v2.3c-0.9,0.2-1.7,0.6-2.5,1.1L8.5,6.2L6.4,8.3l1.5,1.5
		c-0.5,0.7-0.9,1.6-1.1,2.5H4.5v4h2.3c0.2,0.9,0.6,1.7,1.1,2.5l-1.5,1.5l2.1,2.1l1.5-1.5c0.7,0.5,1.6,0.9,2.5,1.1v2.3h4v-2.3
		c0.9-0.2,1.7-0.6,2.5-1.1l1.5,1.5l2.1-2.1l-1.5-1.5c0.5-0.7,0.9-1.6,1.1-2.5h2.3v-4h-2.3C22.2,12.2,22.2,12.1,22.1,12z"/>
	<g id="XMLID_2952_">
		<polygon id="XMLID_2953_" class="st1" points="15.7,16.7 10.9,13.1 12.1,11.5 15.3,13.9 22.7,3.7 24.3,4.9 		"/>
	</g>
</g>
</svg>
