<?xml version="1.0" encoding="utf-8"?>
<!-- Generator: Adobe Illustrator 19.0.0, SVG Export Plug-In . SVG Version: 6.00 Build 0)  -->
<svg version="1.1" id="Layer_1" xmlns="http://www.w3.org/2000/svg" xmlns:xlink="http://www.w3.org/1999/xlink" x="0px" y="0px"
	 viewBox="0 0 29 28.7" style="enable-background:new 0 0 29 28.7;" xml:space="preserve">
<style type="text/css">
	.st0{opacity:0.41;}
	.st1{fill:#A9C6EA;}
</style>
<g id="XMLID_717_" class="st0">
	<path id="XMLID_723_" class="st1" d="M12.2,22.3c0-0.6-0.4-1-1-1h-6c-0.6,0-1,0.4-1,1v2h-1v2h10v-2h-1V22.3z M6.2,24.3v-1h4v1H6.2z
		"/>
	<path id="XMLID_718_" class="st1" d="M25.5,22l1.4-1.4l-7.8-7.8l1.1-1.1l0.3,0.3c0.2,0.2,0.5,0.3,0.7,0.3c0.3,0,0.5-0.1,0.7-0.3
		l2-2c0.4-0.4,0.4-1,0-1.4l-6-6c-0.4-0.4-1-0.4-1.4,0l-2,2c-0.4,0.4-0.4,1,0,1.4l0.3,0.3l-3.6,3.6l-0.3-0.3c-0.4-0.4-1-0.4-1.4,0
		l-2,2c-0.4,0.4-0.4,1,0,1.4l6,6c0.2,0.2,0.5,0.3,0.7,0.3c0.3,0,0.5-0.1,0.7-0.3l2-2c0.4-0.4,0.4-1,0-1.4l-0.3-0.3l1.1-1.1L25.5,22z
		 M17.2,4.8l4.6,4.6l-0.6,0.6l-4.6-4.6L17.2,4.8z M14.2,16.9l-4.6-4.6l0.6-0.6l4.6,4.6L14.2,16.9z M16.2,7.8l2.6,2.6l-3.6,3.6
		l-2.6-2.6L16.2,7.8z"/>
</g>
</svg>
