<?xml version="1.0" encoding="utf-8"?>
<!-- Generator: Adobe Illustrator 19.0.0, SVG Export Plug-In . SVG Version: 6.00 Build 0)  -->
<svg version="1.1" id="Layer_1" xmlns="http://www.w3.org/2000/svg" xmlns:xlink="http://www.w3.org/1999/xlink" x="0px" y="0px"
	 viewBox="0 0 29 28.7" style="enable-background:new 0 0 29 28.7;" xml:space="preserve">
<style type="text/css">
	.st0{opacity:0.4;}
	.st1{fill:#A9C6EA;}
</style>
<g id="XMLID_726_" class="st0">
	<g id="XMLID_738_">
		<polygon id="XMLID_76_" class="st1" points="21.5,14.8 19.5,12.8 17.5,14.8 17.5,4.8 21.5,4.8 		"/>
	</g>
	<path id="XMLID_734_" class="st1" d="M23.5,6.8h-1v13h-6c-0.3,0-0.5,0.1-0.7,0.3l-0.3,0.3V10.3l1-1V6.8c-0.3,0-0.5,0.1-0.7,0.3
		l-1.3,1.3l-1.3-1.3c-0.2-0.2-0.4-0.3-0.7-0.3h-7c-0.6,0-1,0.4-1,1v13c0,0.6,0.4,1,1,1h6.6l1.7,1.7c0.2,0.2,0.5,0.3,0.7,0.3
		s0.5-0.1,0.7-0.3l1.7-1.7h6.6c0.6,0,1-0.4,1-1v-13C24.5,7.3,24.1,6.8,23.5,6.8z M13.5,20.4l-0.3-0.3c-0.2-0.2-0.4-0.3-0.7-0.3h-6
		v-11h5.6l1.4,1.4V20.4z"/>
	<g id="XMLID_732_">
		<rect id="XMLID_733_" x="9.5" y="9.8" class="st1" width="3" height="2"/>
	</g>
	<g id="XMLID_729_">
		<rect id="XMLID_731_" x="7.5" y="12.8" class="st1" width="5" height="2"/>
	</g>
	<g id="XMLID_727_">
		<rect id="XMLID_728_" x="7.5" y="15.8" class="st1" width="5" height="2"/>
	</g>
</g>
</svg>
