<?xml version="1.0" encoding="utf-8"?>
<!-- Generator: Adobe Illustrator 19.0.0, SVG Export Plug-In . SVG Version: 6.00 Build 0)  -->
<svg version="1.1" id="Layer_1" xmlns="http://www.w3.org/2000/svg" xmlns:xlink="http://www.w3.org/1999/xlink" x="0px" y="0px"
	 viewBox="0 0 29 28.7" style="enable-background:new 0 0 29 28.7;" xml:space="preserve">
<style type="text/css">
	.st0{opacity:0.4;}
	.st1{fill:#A9C6EA;}
</style>
<g id="XMLID_103_" class="st0">
	<g id="XMLID_317_">
		<g id="XMLID_797_">
			<path id="XMLID_798_" class="st1" d="M8.5,10.8c-1.7,0-3-1.3-3-3s1.3-3,3-3s3,1.3,3,3S10.2,10.8,8.5,10.8z M8.5,6.8
				c-0.6,0-1,0.4-1,1c0,0.6,0.4,1,1,1s1-0.4,1-1C9.5,7.3,9.1,6.8,8.5,6.8z"/>
		</g>
		<g id="XMLID_793_">
			<path id="XMLID_794_" class="st1" d="M10.5,24.8h-4c-0.6,0-1-0.4-1-1v-4h-1c-0.6,0-1-0.4-1-1v-3c0-2.8,2.2-5,5-5s5,2.2,5,5v3
				c0,0.6-0.4,1-1,1h-1v4C11.5,24.4,11.1,24.8,10.5,24.8z M7.5,22.8h2v-4c0-0.6,0.4-1,1-1h1v-2c0-1.7-1.3-3-3-3s-3,1.3-3,3v2h1
				c0.6,0,1,0.4,1,1V22.8z"/>
		</g>
	</g>
	<g id="XMLID_111_">
		<path id="XMLID_284_" class="st1" d="M25.5,9.8v-2h-1.1c-0.1-0.6-0.4-1.2-0.7-1.8l0.8-0.8L23,3.9l-0.8,0.8
			c-0.5-0.3-1.1-0.6-1.8-0.7V2.8h-2v1.1c-0.6,0.1-1.2,0.4-1.8,0.7L16,3.9l-1.4,1.4l0.8,0.8c-0.3,0.5-0.6,1.1-0.7,1.8h-1.1v2h1.1
			c0.1,0.6,0.4,1.2,0.7,1.8l-0.8,0.8l1.4,1.4l0.8-0.8c0.5,0.3,1.1,0.6,1.8,0.7v1.1h2v-1.1c0.6-0.1,1.2-0.4,1.8-0.7l0.8,0.8l1.4-1.4
			l-0.8-0.8c0.3-0.5,0.6-1.1,0.7-1.8H25.5z M19.5,10.8c-1.1,0-2-0.9-2-2c0-1.1,0.9-2,2-2c1.1,0,2,0.9,2,2
			C21.5,9.9,20.6,10.8,19.5,10.8z"/>
	</g>
</g>
</svg>
