<svg xmlns="http://www.w3.org/2000/svg" viewBox="0 0 1103.22 578.93"><defs><style>.cls-1,.cls-10,.cls-14,.cls-16,.cls-18,.cls-19,.cls-20,.cls-21,.cls-22,.cls-23,.cls-24,.cls-25,.cls-26,.cls-27,.cls-28,.cls-29,.cls-30,.cls-31,.cls-32,.cls-33,.cls-34,.cls-35,.cls-36,.cls-37,.cls-38,.cls-39,.cls-40,.cls-41,.cls-42,.cls-43,.cls-44,.cls-45,.cls-46,.cls-47,.cls-48{fill:none;stroke-miterlimit:10;}.cls-1,.cls-10,.cls-18,.cls-19{stroke:#cdeef7;}.cls-1{stroke-width:0.5px;}.cls-1,.cls-17{opacity:0.38;}.cls-1,.cls-3,.cls-6{isolation:isolate;}.cls-2{opacity:0.5;}.cls-4{fill:#d2f1f9;}.cls-5{fill:#173f6c;}.cls-6,.cls-9{fill:#cdeef7;}.cls-6{opacity:0.38;}.cls-7{fill:#5c82a1;}.cls-8{opacity:0.43;}.cls-10{stroke-width:0.46px;}.cls-11{opacity:0.27;}.cls-12{fill:#fff;}.cls-13{opacity:0.69;}.cls-14,.cls-16,.cls-20,.cls-21,.cls-22,.cls-23,.cls-24,.cls-25,.cls-26,.cls-27,.cls-28,.cls-29,.cls-30,.cls-31,.cls-32,.cls-33,.cls-34,.cls-35,.cls-36,.cls-37,.cls-38,.cls-39,.cls-40,.cls-41,.cls-42,.cls-43,.cls-44,.cls-45,.cls-46,.cls-47,.cls-48{stroke:#fff;}.cls-14,.cls-20,.cls-21,.cls-22,.cls-23,.cls-24,.cls-25,.cls-26,.cls-27,.cls-28,.cls-29,.cls-30,.cls-31,.cls-32,.cls-33,.cls-34,.cls-35,.cls-36,.cls-37,.cls-38,.cls-39,.cls-40,.cls-41,.cls-42,.cls-43,.cls-44,.cls-45,.cls-46,.cls-47,.cls-48{stroke-width:0.76px;}.cls-15{fill:#63d2f3;}.cls-16{stroke-width:0.91px;}.cls-18,.cls-19{stroke-width:0.54px;}.cls-19{stroke-dasharray:5.25 5.25;}.cls-20{stroke-dasharray:2.2;}.cls-21{stroke-dasharray:4.74;}.cls-22{stroke-dasharray:4.6;}.cls-23{stroke-dasharray:2.4;}.cls-24{stroke-dasharray:5.68 5.68;}.cls-25{stroke-dasharray:5.42 5.42;}.cls-26{stroke-dasharray:4.39;}.cls-27{stroke-dasharray:0.15;}.cls-28{stroke-dasharray:5.67 5.67;}.cls-29{stroke-dasharray:3.35;}.cls-30{stroke-dasharray:5.41 5.41;}.cls-31{stroke-dasharray:3.34;}.cls-32{stroke-dasharray:1.9;}.cls-33{stroke-dasharray:3.35;}.cls-34{stroke-dasharray:4.89 4.89;}.cls-35{stroke-dasharray:5.68 5.68;}.cls-36{stroke-dasharray:3.33;}.cls-37{stroke-dasharray:2.35;}.cls-38{stroke-dasharray:5.11;}.cls-39{stroke-dasharray:3.35;}.cls-40{stroke-dasharray:2.44;}.cls-41{stroke-dasharray:3.34;}.cls-42{stroke-dasharray:3.31;}.cls-43{stroke-dasharray:3.32;}.cls-44{stroke-dasharray:4.85 4.85;}.cls-45{stroke-dasharray:2.41;}.cls-46{stroke-dasharray:2.41;}.cls-47{stroke-dasharray:3.36;}.cls-48{stroke-dasharray:3.2;}</style></defs><g id="Layer_2" data-name="Layer 2"><g id="Layer_1-2" data-name="Layer 1"><polyline class="cls-1" points="754 262.01 964.4 383.61 964.4 424.21 998.9 444.21"/><polyline class="cls-1" points="895.1 304.01 999.1 363.61 999.1 404.01 1068.6 444.21"/><polyline class="cls-1" points="582.9 263.61 721.8 343.61 704.4 353.61 704.4 413.71 895.1 523.71 964.4 523.71 1060.1 578.71"/><polyline class="cls-1" points="895.1 464.11 860.6 444.21 860.1 404.21 791.1 364.01"/><line class="cls-1" x1="756.4" y1="384.01" x2="825.7" y2="424.11"/><g class="cls-2"><g class="cls-3"><path class="cls-4" d="M793,363a4.45,4.45,0,0,0-3.9,0,1.21,1.21,0,0,0,0,2.3,4.45,4.45,0,0,0,3.9,0c1.1-.6,1.1-1.6,0-2.3"/></g></g><g class="cls-2"><g class="cls-3"><path class="cls-4" d="M897,463.11a4.45,4.45,0,0,0-3.9,0,1.21,1.21,0,0,0,0,2.3,4.45,4.45,0,0,0,3.9,0,1.21,1.21,0,0,0,0-2.3"/></g></g><g class="cls-2"><g class="cls-3"><path class="cls-4" d="M827.7,422.91a4.45,4.45,0,0,0-3.9,0,1.21,1.21,0,0,0,0,2.3,4.45,4.45,0,0,0,3.9,0,1.21,1.21,0,0,0,0-2.3"/></g></g><g class="cls-2"><g class="cls-3"><path class="cls-4" d="M758.7,382.91a4.45,4.45,0,0,0-3.9,0,1.21,1.21,0,0,0,0,2.3,4.45,4.45,0,0,0,3.9,0c1.1-.7,1.1-1.7,0-2.3"/></g></g><g class="cls-2"><g class="cls-3"><path class="cls-4" d="M897,302.81a4.45,4.45,0,0,0-3.9,0,1.21,1.21,0,0,0,0,2.3,4.45,4.45,0,0,0,3.9,0c1.1-.6,1.1-1.6,0-2.3"/></g></g><g class="cls-2"><g class="cls-3"><path class="cls-4" d="M1000.8,443a4.45,4.45,0,0,0-3.9,0,1.21,1.21,0,0,0,0,2.3,4.45,4.45,0,0,0,3.9,0c1.1-.6,1.1-1.6,0-2.3"/></g></g><g class="cls-2"><g class="cls-3"><path class="cls-4" d="M756,260.81a4.45,4.45,0,0,0-3.9,0,1.21,1.21,0,0,0,0,2.3,4.45,4.45,0,0,0,3.9,0c1-.6,1-1.6,0-2.3"/></g></g><g class="cls-2"><g class="cls-3"><path class="cls-4" d="M584.9,262.51a4.45,4.45,0,0,0-3.9,0,1.21,1.21,0,0,0,0,2.3,4.45,4.45,0,0,0,3.9,0c1.1-.7,1.1-1.7,0-2.3"/></g></g><polyline class="cls-1" points="520.6 223.41 568 196.21 895.1 384.01 895.1 424.11 1103.1 544.11"/><g class="cls-3"><path class="cls-5" d="M548,247.51l-66.9-38.7L390,222.91l-24.1,52.8,66.9,38.7,91.1-14.1,24.1-52.8m-182.7,28.3h0l24.3-53.1h.1l91.5-14.2,67.3,38.9v.1l-24.2,53h-.1l-91.5,14.2-67.4-38.9m193.9-30.1L484,202.31l-102.3,15.9-27.1,59.3,75.2,43.4L532.1,305l27.1-59.3"/><path class="cls-6" d="M354.4,277.51l27.2-59.4,102.5-15.9,75.4,43.5-27.2,59.4L429.8,321l-75.4-43.5m205.3-31.9L484.1,202l-102.7,15.9h-.1l-27.2,59.6v.1l75.6,43.6,102.7-15.9h.1l27.2-59.7h0"/><path class="cls-7" d="M354.6,277.51l27.1-59.3L484,202.31l75.2,43.4L532.1,305l-102.3,15.9-75.2-43.4m204.9-31.8-75.4-43.5-102.5,15.9-27.2,59.4L429.8,321l102.5-15.9,27.2-59.4"/><path class="cls-7" d="M365.8,275.81,389.9,223l91.1-14.1,66.9,38.7-24,52.7-91.1,14.1-67-38.6m182.7-28.4-67.3-38.9-91.5,14.2h-.1l-24.2,53v.1l67.3,38.9,91.5-14.2h.1l24.2-53.1h0"/></g><g class="cls-8"><g class="cls-3"><path class="cls-9" d="M523.4,221.71a7.84,7.84,0,0,0-7,0c-1.9,1.1-1.9,2.9,0,4a7.84,7.84,0,0,0,7,0c2-1.1,2-2.9,0-4"/></g></g><path class="cls-10" d="M524.3,221.21a9.74,9.74,0,0,0-8.8,0c-2.4,1.4-2.4,3.7,0,5.1a9.74,9.74,0,0,0,8.8,0C526.8,224.91,526.8,222.61,524.3,221.21Z"/><g class="cls-2"><g class="cls-3"><path class="cls-4" d="M521.8,222.71a3.83,3.83,0,0,0-3.6,0c-1,.6-1,1.5,0,2.1a3.82,3.82,0,0,0,3.6,0c1-.6,1-1.5,0-2.1"/></g></g><g class="cls-11"><path class="cls-12" d="M455.7,297.91a2,2,0,0,1-2.1-.2h-.1l-57.2-33.1-1.6-.9a6.65,6.65,0,0,1-2.3-2.4,7.34,7.34,0,0,1-.9-3.2V238a2.34,2.34,0,0,1,.9-2.1l4.5-2.5-2.2-1.3a6.65,6.65,0,0,1-2.3-2.4,7.34,7.34,0,0,1-.9-3.2v-20a2.34,2.34,0,0,1,.9-2.1l65.7-38a2.38,2.38,0,0,1,2.3.2l58.7,33.9a5.89,5.89,0,0,1,2.3,2.4,6.71,6.71,0,0,1,1,3.2v20.1a2.81,2.81,0,0,1-1,2.1l-4.4,2.5,2.1,1.3a6.62,6.62,0,0,1,2.3,2.4,7.48,7.48,0,0,1,1,3.2v20a2.81,2.81,0,0,1-1,2.1l-3.9,2.3Z"/></g><g id="Server" class="cls-13"><path class="cls-14" d="M392.3,236a.6.6,0,0,1,.4-.1,2.6,2.6,0,0,1,1.8.4"/><polyline class="cls-14" points="394.6 236.21 420.1 250.91 453.4 270.31"/><polyline class="cls-14" points="455.7 272.71 495.5 249.61 521.4 234.71"/><path class="cls-14" d="M391.5,238.11a2.34,2.34,0,0,1,.9-2.1,2.18,2.18,0,0,1,2.3.2"/><path class="cls-14" d="M456.6,295.81a2.18,2.18,0,0,1-1,2.1,2,2,0,0,1-2.1-.2"/><polygon class="cls-14" points="400.6 257.91 395.1 254.61 395.1 248.11 400.6 251.31 400.6 257.91"/><polygon class="cls-14" points="410.2 263.41 404.5 260.01 404.5 253.51 410.2 256.81 410.2 263.41"/><path class="cls-14" d="M391.5,206.61a2.34,2.34,0,0,1,.9-2.1,2.18,2.18,0,0,1,2.3.2"/><path class="cls-14" d="M456.6,264.31a2.18,2.18,0,0,1-1,2.1,2,2,0,0,1-2.1-.2"/><polygon class="cls-14" points="400.6 226.41 395.1 223.21 395.1 216.51 400.6 219.91 400.6 226.41"/><polygon class="cls-14" points="410.2 231.91 404.5 228.61 404.5 222.01 410.2 225.31 410.2 231.91"/><line class="cls-14" x1="396.8" y1="233.51" x2="392.3" y2="236.01"/><path class="cls-14" d="M453.4,270.31a5.92,5.92,0,0,1,2.3,2.4"/><path class="cls-14" d="M521.4,234.71a5.89,5.89,0,0,0-2.3-2.4"/><line class="cls-14" x1="519.1" y1="232.31" x2="517" y2="231.01"/><line class="cls-14" x1="455.7" y1="272.51" x2="455.7" y2="272.51"/><path class="cls-14" d="M455.7,272.51a5.5,5.5,0,0,1,1,3.2"/><line class="cls-14" x1="456.6" y1="275.71" x2="456.6" y2="295.81"/><line class="cls-14" x1="453.5" y1="297.71" x2="394.6" y2="263.71"/><path class="cls-14" d="M394.6,263.71a6.65,6.65,0,0,1-2.3-2.4"/><line class="cls-14" x1="392.3" y1="261.31" x2="392.3" y2="261.31"/><path class="cls-14" d="M392.3,261.31a7.34,7.34,0,0,1-.9-3.2"/><line class="cls-14" x1="391.5" y1="258.21" x2="391.5" y2="238.11"/><path class="cls-14" d="M521.4,234.71a9.18,9.18,0,0,1,1,3.2"/><line class="cls-14" x1="522.3" y1="237.81" x2="522.3" y2="257.91"/><path class="cls-14" d="M522.3,257.91a2.81,2.81,0,0,1-1,2.1"/><line class="cls-14" x1="521.4" y1="259.91" x2="455.7" y2="297.91"/><path class="cls-14" d="M455.7,297.91a2,2,0,0,0,1-2.1"/><line class="cls-14" x1="392.3" y1="204.61" x2="458" y2="166.61"/><path class="cls-14" d="M458,166.61a2.38,2.38,0,0,1,2.3.2"/><line class="cls-14" x1="460.3" y1="166.81" x2="519.1" y2="200.71"/><path class="cls-14" d="M519.1,200.71a5.89,5.89,0,0,1,2.3,2.4"/><line class="cls-14" x1="521.4" y1="203.11" x2="455.7" y2="241.11"/><path class="cls-14" d="M455.7,241.11a5.42,5.42,0,0,0-2.1-2.4"/><line class="cls-14" x1="453.5" y1="238.71" x2="394.6" y2="204.81"/><path class="cls-14" d="M455.7,241.11a5.5,5.5,0,0,1,1,3.2"/><line class="cls-14" x1="456.6" y1="244.31" x2="456.6" y2="264.31"/><line class="cls-14" x1="453.5" y1="266.11" x2="394.6" y2="232.21"/><path class="cls-14" d="M394.6,232.21a6.65,6.65,0,0,1-2.3-2.4"/><path class="cls-14" d="M392.3,229.81a7.34,7.34,0,0,1-.9-3.2"/><line class="cls-14" x1="391.5" y1="226.61" x2="391.5" y2="206.61"/><path class="cls-14" d="M521.4,203.11a8,8,0,0,1,1,3.2"/><line class="cls-14" x1="522.3" y1="206.31" x2="522.3" y2="226.41"/><path class="cls-14" d="M522.3,226.41a2.81,2.81,0,0,1-1,2.1"/><line class="cls-14" x1="521.4" y1="228.51" x2="455.7" y2="266.31"/><path class="cls-14" d="M455.7,266.31a2,2,0,0,0,1-2.1"/><line class="cls-14" x1="450.9" y1="251.01" x2="415.5" y2="230.61"/><line class="cls-14" x1="450.9" y1="282.41" x2="415.5" y2="262.01"/></g><g class="cls-11"><path class="cls-15" d="M455.7,116.91a2,2,0,0,1-2.1-.2h-.1l-56.7-32.6-2.2-1.3a6.65,6.65,0,0,1-2.3-2.4,6.2,6.2,0,0,1-.9-3.2v-20a2.34,2.34,0,0,1,.9-2.1l65.7-38a2.38,2.38,0,0,1,2.3.2L519,51.21a5.89,5.89,0,0,1,2.3,2.4,8,8,0,0,1,1,3.2v20.1a2.81,2.81,0,0,1-1,2.1l-4.4,2.5Z"/></g><g id="Server-2" data-name="Server" class="cls-13"><path class="cls-14" d="M391.5,57.21a2.34,2.34,0,0,1,.9-2.1,2.43,2.43,0,0,1,2.3.2"/><path class="cls-14" d="M456.6,114.91a2.18,2.18,0,0,1-1,2.1,2,2,0,0,1-2.1-.2"/><polygon class="cls-14" points="400.6 77.01 395.1 73.81 395.1 67.11 400.6 70.51 400.6 77.01"/><polygon class="cls-14" points="410.2 82.51 404.5 79.21 404.5 72.61 410.2 75.91 410.2 82.51"/><line class="cls-14" x1="392.3" y1="55.21" x2="458" y2="17.21"/><path class="cls-14" d="M458,17.21a2.38,2.38,0,0,1,2.3.2"/><line class="cls-14" x1="460.3" y1="17.41" x2="519.1" y2="51.31"/><path class="cls-14" d="M519.1,51.31a5.89,5.89,0,0,1,2.3,2.4"/><line class="cls-14" x1="521.4" y1="53.71" x2="455.7" y2="91.71"/><path class="cls-14" d="M455.7,91.71a5.42,5.42,0,0,0-2.1-2.4"/><line class="cls-14" x1="453.5" y1="89.31" x2="394.6" y2="55.41"/><path class="cls-14" d="M455.7,91.71a5.5,5.5,0,0,1,1,3.2"/><line class="cls-14" x1="456.6" y1="94.91" x2="456.6" y2="114.91"/><line class="cls-14" x1="453.5" y1="116.71" x2="394.6" y2="82.81"/><path class="cls-14" d="M394.6,82.81a6.65,6.65,0,0,1-2.3-2.4"/><path class="cls-14" d="M392.3,80.41a7.34,7.34,0,0,1-.9-3.2"/><line class="cls-14" x1="391.5" y1="77.21" x2="391.5" y2="57.21"/><path class="cls-14" d="M521.4,53.71a8,8,0,0,1,1,3.2"/><line class="cls-14" x1="522.3" y1="56.91" x2="522.3" y2="77.01"/><path class="cls-14" d="M522.3,77a2.81,2.81,0,0,1-1,2.1"/><line class="cls-14" x1="521.4" y1="79.11" x2="455.7" y2="116.91"/><path class="cls-14" d="M455.7,116.91a2,2,0,0,0,1-2.1"/><line class="cls-14" x1="450.9" y1="101.61" x2="415.5" y2="81.21"/></g><polyline class="cls-16" points="491.5 48.21 519.1 20.61 640.21 20.61"/><g class="cls-3"><path class="cls-5" d="M354.6,217l-66.9-38.7-91.1,14.2-24.1,52.8L239.4,284l91.1-14.1L354.6,217M172,245.41h0l24.3-53.1h.1l91.5-14.2L355.2,217v.1l-24.2,53h-.1l-91.5,14.2L172,245.41m193.8-30.2-75.2-43.4-102.3,15.9L161.2,247l75.2,43.4,102.3-15.9,27.1-59.3"/><path class="cls-6" d="M161,247.11l27.2-59.4,102.5-15.9,75.4,43.5-27.2,59.4-102.5,15.9L161,247.11m205.4-31.9-75.6-43.7-102.7,16H188L160.8,247v.1l75.6,43.6,102.7-15.9h.1l27.2-59.6h0"/><path class="cls-7" d="M161.3,247l27.1-59.3,102.3-15.9,75.2,43.4-27.2,59.3-102.3,15.9L161.3,247m204.8-31.8-75.4-43.5-102.5,15.9L161,247l75.4,43.5,102.5-15.9,27.2-59.4"/><path class="cls-7" d="M172.5,245.31l24.1-52.8,91.1-14.1,66.9,38.7-24.1,52.8L239.4,284l-66.9-38.7m182.7-28.4L287.9,178l-91.5,14.2h-.1l-24.2,53v.1l67.3,38.9L330.9,270h.1l24.2-53.1h0"/></g><g class="cls-3"><path class="cls-5" d="M604.1,361.41l-66.9-38.7-91.1,14.1-24.2,52.9,66.9,38.7,91.1-14.1,24.2-52.9m-182.7,28.4h0l24.3-53.1h.1l91.5-14.2,67.3,38.9v.1l-24.2,53h-.1l-91.5,14.2-67.4-38.9m193.9-30.1-75.2-43.4-102.3,15.9-27.1,59.3,75.2,43.4L588.2,419l27.1-59.3"/><path class="cls-6" d="M410.4,391.51l27.2-59.4,102.5-15.9,75.4,43.5-27.2,59.4L485.8,435l-75.4-43.5m205.4-31.9L540.2,316l-102.7,15.9h-.1l-27.2,59.6v.1l75.6,43.6,102.7-15.9h.1l27.2-59.7h0"/><path class="cls-7" d="M410.7,391.51l27.1-59.3,102.3-15.9,75.2,43.4L588.2,419l-102.3,15.9-75.2-43.4m204.8-31.9-75.4-43.5L437.6,332l-27.2,59.5L485.8,435l102.5-15.9,27.2-59.5"/><path class="cls-7" d="M421.9,389.71l24.1-52.8,91.1-14.1,66.9,38.7-24.1,52.7-91,14.2-67-38.7m182.7-28.4-67.3-38.8-91.5,14.2h-.1l-24.2,53v.1l67.3,38.9,91.5-14.2h.1l24.2-53.2h0"/></g><polyline class="cls-16" points="485.8 414.61 458.2 442.21 356.9 442.21"/><g class="cls-11"><path class="cls-12" d="M578.4,351.21v20a2.81,2.81,0,0,1-1,2.1l-65.7,38a2,2,0,0,1-2.1-.2h-.1l-58.9-33.9a7.21,7.21,0,0,1-3.2-5.5v-20.1a2.46,2.46,0,0,1,.9-2.1l3.9-2.2-1.6-.9a6.65,6.65,0,0,1-2.3-2.4,7.34,7.34,0,0,1-.9-3.2v-20.3a2.34,2.34,0,0,1,.9-2.1l4.5-2.5-2.2-1.3a6.65,6.65,0,0,1-2.3-2.4,7.34,7.34,0,0,1-.9-3.2V289a2.34,2.34,0,0,1,.9-2.1l65.7-38a2.38,2.38,0,0,1,2.3.2L575,283a5.89,5.89,0,0,1,2.3,2.4,6.71,6.71,0,0,1,1,3.2v20.1a2.81,2.81,0,0,1-1,2.1l-4.4,2.5,2.1,1.3a6.62,6.62,0,0,1,2.3,2.4,7.48,7.48,0,0,1,1,3.2v20a2.81,2.81,0,0,1-1,2.1l-3.9,2.3,1.6,1a7.51,7.51,0,0,1,2.3,2.4A5.86,5.86,0,0,1,578.4,351.21Z"/></g><g id="Server-3" data-name="Server" class="cls-13"><path class="cls-14" d="M448.5,349.21h.3a.82.82,0,0,1,.7,0,.6.6,0,0,1,.4.1,2.12,2.12,0,0,1,.7.3"/><path class="cls-14" d="M447.5,351.41a2.34,2.34,0,0,1,.9-2.1,2.18,2.18,0,0,1,2.3.2"/><path class="cls-14" d="M512.7,409.11a2.18,2.18,0,0,1-1,2.1,2,2,0,0,1-2.1-.2"/><polygon class="cls-14" points="456.7 371.21 451.1 367.91 451.1 361.41 456.7 364.61 456.7 371.21"/><polygon class="cls-14" points="466.3 376.61 460.6 373.41 460.6 366.81 466.3 370.11 466.3 376.61"/><path class="cls-14" d="M448.4,318.41a.6.6,0,0,1,.4-.1,2.6,2.6,0,0,1,1.8.4"/><polyline class="cls-14" points="450.7 318.61 476.2 333.31 509.4 352.71"/><polyline class="cls-14" points="511.7 355.11 551.5 332.01 577.4 317.11"/><path class="cls-14" d="M447.5,320.51a2.34,2.34,0,0,1,.9-2.1,2.18,2.18,0,0,1,2.3.2"/><path class="cls-14" d="M512.7,378.21a2.18,2.18,0,0,1-1,2.1,2,2,0,0,1-2.1-.2"/><polygon class="cls-14" points="456.7 340.31 451.1 337.01 451.1 330.51 456.7 333.81 456.7 340.31"/><polygon class="cls-14" points="466.3 345.81 460.6 342.51 460.6 335.91 466.3 339.21 466.3 345.81"/><path class="cls-14" d="M447.5,289a2.34,2.34,0,0,1,.9-2.1,2.18,2.18,0,0,1,2.3.2"/><path class="cls-14" d="M512.7,346.71a2.18,2.18,0,0,1-1,2.1,2,2,0,0,1-2.1-.2"/><polygon class="cls-14" points="456.7 308.81 451.1 305.61 451.1 298.91 456.7 302.31 456.7 308.81"/><polygon class="cls-14" points="466.3 314.31 460.6 311.01 460.6 304.41 466.3 307.81 466.3 314.31"/><line class="cls-14" x1="448.5" y1="349.21" x2="452.3" y2="347.01"/><line class="cls-14" x1="448.4" y1="349.31" x2="448.5" y2="349.21"/><line class="cls-14" x1="450.7" y1="349.51" x2="509.4" y2="383.51"/><path class="cls-14" d="M509.4,383.51a5.92,5.92,0,0,1,2.3,2.4"/><line class="cls-14" x1="511.7" y1="385.91" x2="577.4" y2="348.01"/><path class="cls-14" d="M577.4,348a6.58,6.58,0,0,0-2.3-2.4"/><line class="cls-14" x1="575.2" y1="345.61" x2="573.5" y2="344.61"/><path class="cls-14" d="M511.7,385.91a5.5,5.5,0,0,1,1,3.2"/><line class="cls-14" x1="512.7" y1="389.01" x2="512.7" y2="409.11"/><line class="cls-14" x1="509.6" y1="411.01" x2="450.7" y2="377.11"/><path class="cls-14" d="M450.7,377.11a7.21,7.21,0,0,1-3.2-5.5"/><line class="cls-14" x1="447.5" y1="371.51" x2="447.5" y2="351.41"/><path class="cls-14" d="M577.4,348a8,8,0,0,1,1,3.2"/><line class="cls-14" x1="578.4" y1="351.11" x2="578.4" y2="371.21"/><path class="cls-14" d="M578.4,371.21a2.81,2.81,0,0,1-1,2.1"/><line class="cls-14" x1="577.4" y1="373.21" x2="511.7" y2="411.21"/><line class="cls-14" x1="452.9" y1="315.91" x2="448.4" y2="318.41"/><path class="cls-14" d="M509.4,352.71a5.92,5.92,0,0,1,2.3,2.4"/><path class="cls-14" d="M577.4,317.11a5.89,5.89,0,0,0-2.3-2.4"/><line class="cls-14" x1="575.2" y1="314.71" x2="573.1" y2="313.41"/><line class="cls-14" x1="511.7" y1="355.01" x2="511.7" y2="355.01"/><path class="cls-14" d="M511.7,355a5.5,5.5,0,0,1,1,3.2"/><line class="cls-14" x1="512.7" y1="358.11" x2="512.7" y2="378.21"/><line class="cls-14" x1="509.6" y1="380.11" x2="450.7" y2="346.21"/><path class="cls-14" d="M450.7,346.21a6.65,6.65,0,0,1-2.3-2.4"/><line class="cls-14" x1="448.4" y1="343.81" x2="448.4" y2="343.81"/><path class="cls-14" d="M448.4,343.81a7.34,7.34,0,0,1-.9-3.2"/><line class="cls-14" x1="447.5" y1="340.61" x2="447.5" y2="320.51"/><path class="cls-14" d="M577.4,317.11a9.18,9.18,0,0,1,1,3.2"/><line class="cls-14" x1="578.4" y1="320.31" x2="578.4" y2="340.31"/><path class="cls-14" d="M578.4,340.31a2.81,2.81,0,0,1-1,2.1"/><line class="cls-14" x1="577.4" y1="342.31" x2="511.7" y2="380.31"/><path class="cls-14" d="M511.7,380.31a2,2,0,0,0,1-2.1"/><line class="cls-14" x1="448.4" y1="287.01" x2="514.1" y2="249.01"/><path class="cls-14" d="M514.1,249a2.38,2.38,0,0,1,2.3.2"/><line class="cls-14" x1="516.4" y1="249.21" x2="575.2" y2="283.21"/><path class="cls-14" d="M575.2,283.21a5.89,5.89,0,0,1,2.3,2.4"/><line class="cls-14" x1="577.4" y1="285.61" x2="511.7" y2="323.51"/><path class="cls-14" d="M511.7,323.51a5.42,5.42,0,0,0-2.1-2.4"/><line class="cls-14" x1="509.6" y1="321.11" x2="450.7" y2="287.21"/><path class="cls-14" d="M511.7,323.51a5.5,5.5,0,0,1,1,3.2"/><line class="cls-14" x1="512.7" y1="326.71" x2="512.7" y2="346.71"/><line class="cls-14" x1="509.6" y1="348.51" x2="450.7" y2="314.61"/><path class="cls-14" d="M450.7,314.61a6.65,6.65,0,0,1-2.3-2.4"/><path class="cls-14" d="M448.4,312.21a7.34,7.34,0,0,1-.9-3.2"/><line class="cls-14" x1="447.5" y1="309.11" x2="447.5" y2="289.01"/><path class="cls-14" d="M577.4,285.61a8,8,0,0,1,1,3.2"/><line class="cls-14" x1="578.4" y1="288.71" x2="578.4" y2="308.81"/><path class="cls-14" d="M578.4,308.81a2.81,2.81,0,0,1-1,2.1"/><line class="cls-14" x1="577.4" y1="310.91" x2="511.7" y2="348.81"/><path class="cls-14" d="M511.7,348.81a2,2,0,0,0,1-2.1"/><line class="cls-14" x1="506.9" y1="333.41" x2="471.6" y2="313.01"/><line class="cls-14" x1="506.9" y1="364.91" x2="471.6" y2="344.41"/><line class="cls-14" x1="506.9" y1="395.81" x2="471.6" y2="375.31"/></g><g class="cls-17"><line class="cls-18" x1="391.5" y1="206.61" x2="391.5" y2="203.91"/><line class="cls-19" x1="391.5" y1="198.61" x2="391.5" y2="85.71"/><line class="cls-18" x1="391.5" y1="83.11" x2="391.5" y2="80.41"/></g><g class="cls-17"><g class="cls-3"><path class="cls-9" d="M394.2,145.31l-5.4-3.1,2.7,7.8,2.7-4.7"/></g></g><g class="cls-17"><line class="cls-18" x1="522.4" y1="204.41" x2="522.4" y2="201.71"/><line class="cls-19" x1="522.4" y1="196.51" x2="522.4" y2="83.61"/><line class="cls-18" x1="522.4" y1="80.91" x2="522.4" y2="78.21"/></g><g class="cls-17"><g class="cls-3"><path class="cls-9" d="M525.1,143.11l-5.4-3.1,2.7,7.8,2.7-4.7"/></g></g><g class="cls-17"><line class="cls-18" x1="456.1" y1="241.11" x2="456.1" y2="238.41"/><line class="cls-19" x1="456.1" y1="233.21" x2="456.1" y2="120.31"/><line class="cls-18" x1="456.1" y1="117.61" x2="456.1" y2="114.91"/></g><g class="cls-17"><g class="cls-3"><path class="cls-9" d="M458.8,179.81l-5.4-3.1,2.7,7.8,2.7-4.7"/></g></g><polyline class="cls-16" points="133 200.51 105.4 172.91 0 172.91"/><g class="cls-3"><path class="cls-5" d="M213.5,301.11l-66.9-38.7-91.1,14.1-24.1,52.8L98.3,368l91.1-14.1,24.1-52.8M30.8,329.51h0l24.3-53.1h.1l91.5-14.2,67.3,38.9v.1l-24.2,53h-.1l-91.5,14.2-67.4-38.9m193.9-30.2-75.2-43.4L47.2,271.81l-27.1,59.3,75.2,43.4,102.3-15.9,27.1-59.3"/><path class="cls-6" d="M19.9,331.21l27.2-59.4,102.5-15.9,75.4,43.5-27.2,59.4L95.3,374.71l-75.4-43.5m205.4-31.9-75.6-43.6L47,271.61h-.1l-27.2,59.5v.1l75.6,43.6,102.6-15.9h.1l27.3-59.6h0"/><path class="cls-7" d="M20.2,331.11l27.1-59.3,102.3-15.9,75.2,43.4-27.1,59.3L95.4,374.51l-75.2-43.4M225,299.31l-75.4-43.5L47.1,271.71l-27.2,59.5,75.4,43.5,102.5-15.9,27.2-59.5"/><path class="cls-7" d="M31.4,329.41l24.1-52.8,91.1-14.1,66.9,38.7L189.4,354l-91.1,14.1-66.9-38.7M214.1,301l-67.3-38.9-91.5,14.2h-.1l-24.2,53v.1l67.3,38.9,91.5-14.2h.1L214.1,301h0"/></g><g id="Server-4" data-name="Server" class="cls-13"><path class="cls-20" d="M58,288.91h.3a.82.82,0,0,1,.7,0,.6.6,0,0,1,.4.1,2.12,2.12,0,0,1,.7.3"/><path class="cls-21" d="M57,291a2.34,2.34,0,0,1,.9-2.1,2.18,2.18,0,0,1,2.3.2"/><path class="cls-22" d="M122.2,348.81a2.18,2.18,0,0,1-1,2.1,2,2,0,0,1-2.1-.2"/><polygon class="cls-14" points="66.2 310.81 60.6 307.61 60.6 301.01 66.2 304.31 66.2 310.81"/><polygon class="cls-14" points="75.7 316.31 70.1 313.01 70.1 306.51 75.7 309.71 75.7 316.31"/><path class="cls-23" d="M57.9,258.11a.6.6,0,0,1,.4-.1,2.6,2.6,0,0,1,1.8.4"/><line class="cls-14" x1="60.2" y1="258.31" x2="62.5" y2="259.71"/><polyline class="cls-24" points="67.4 262.51 85.6 273.01 114.1 289.51"/><line class="cls-14" x1="116.6" y1="291.01" x2="118.9" y2="292.31"/><line class="cls-14" x1="121.2" y1="294.71" x2="123.6" y2="293.41"/><polyline class="cls-25" points="128.2 290.61 161 271.71 182.2 259.51"/><line class="cls-14" x1="184.5" y1="258.11" x2="186.9" y2="256.81"/><path class="cls-21" d="M57,260.11a2.34,2.34,0,0,1,.9-2.1,2.18,2.18,0,0,1,2.3.2"/><path class="cls-22" d="M122.2,317.91a2.18,2.18,0,0,1-1,2.1,2,2,0,0,1-2.1-.2"/><polygon class="cls-14" points="66.2 279.91 60.6 276.71 60.6 270.11 66.2 273.41 66.2 279.91"/><polygon class="cls-14" points="75.7 285.51 70.1 282.11 70.1 275.61 75.7 278.81 75.7 285.51"/><path class="cls-21" d="M57,228.71a2.34,2.34,0,0,1,.9-2.1,2.18,2.18,0,0,1,2.3.2"/><path class="cls-22" d="M122.2,286.41a2.18,2.18,0,0,1-1,2.1,2,2,0,0,1-2.1-.2"/><polygon class="cls-14" points="66.2 248.51 60.6 245.21 60.6 238.61 66.2 242.01 66.2 248.51"/><polygon class="cls-14" points="75.7 253.91 70.1 250.71 70.1 244.01 75.7 247.41 75.7 253.91"/><line class="cls-26" x1="58" y1="288.91" x2="61.8" y2="286.71"/><line class="cls-27" x1="57.9" y1="289.01" x2="58" y2="288.91"/><line class="cls-14" x1="60.2" y1="289.21" x2="62.5" y2="290.51"/><line class="cls-28" x1="67.4" y1="293.41" x2="114.1" y2="320.31"/><line class="cls-14" x1="116.5" y1="321.81" x2="118.9" y2="323.11"/><path class="cls-29" d="M118.9,323.11a5.92,5.92,0,0,1,2.3,2.4"/><line class="cls-14" x1="121.2" y1="325.51" x2="123.6" y2="324.21"/><line class="cls-30" x1="128.3" y1="321.51" x2="182.2" y2="290.41"/><line class="cls-14" x1="184.5" y1="289.01" x2="186.9" y2="287.71"/><path class="cls-31" d="M186.9,287.71a6.58,6.58,0,0,0-2.3-2.4"/><line class="cls-32" x1="184.6" y1="285.31" x2="183" y2="284.31"/><path class="cls-33" d="M121.2,325.51a5.5,5.5,0,0,1,1,3.2"/><line class="cls-14" x1="122.2" y1="328.71" x2="122.2" y2="331.41"/><line class="cls-34" x1="122.2" y1="336.31" x2="122.2" y2="343.61"/><line class="cls-14" x1="122.2" y1="346.11" x2="122.2" y2="348.81"/><line class="cls-14" x1="119" y1="350.61" x2="116.7" y2="349.31"/><line class="cls-35" x1="111.7" y1="346.41" x2="65" y2="319.51"/><line class="cls-14" x1="62.5" y1="318.11" x2="60.2" y2="316.71"/><path class="cls-14" d="M60.2,316.71a5.74,5.74,0,0,1-1.9-1.9"/><path class="cls-14" d="M57.7,313.81a6.51,6.51,0,0,1-.6-2.6"/><line class="cls-14" x1="57" y1="311.21" x2="57" y2="308.41"/><line class="cls-34" x1="57" y1="303.51" x2="57" y2="296.21"/><line class="cls-14" x1="57" y1="293.81" x2="57" y2="291.01"/><path class="cls-36" d="M186.9,287.71a8,8,0,0,1,1,3.2"/><line class="cls-14" x1="187.9" y1="290.71" x2="187.9" y2="293.41"/><line class="cls-34" x1="187.9" y1="298.31" x2="187.9" y2="305.71"/><line class="cls-14" x1="187.9" y1="308.11" x2="187.9" y2="310.81"/><path class="cls-37" d="M187.9,310.81a2.81,2.81,0,0,1-1,2.1"/><line class="cls-14" x1="186.9" y1="312.91" x2="184.5" y2="314.31"/><line class="cls-25" x1="179.9" y1="317.01" x2="125.9" y2="348.11"/><line class="cls-14" x1="123.6" y1="349.51" x2="121.2" y2="350.91"/><line class="cls-38" x1="62.3" y1="255.61" x2="57.9" y2="258.11"/><path class="cls-29" d="M118.9,292.31a5.92,5.92,0,0,1,2.3,2.4"/><path class="cls-39" d="M186.9,256.81a5.89,5.89,0,0,0-2.3-2.4"/><line class="cls-40" x1="184.6" y1="254.41" x2="182.6" y2="253.11"/><path class="cls-33" d="M121.2,294.61a5.5,5.5,0,0,1,1,3.2"/><line class="cls-14" x1="122.2" y1="297.81" x2="122.2" y2="300.51"/><line class="cls-34" x1="122.2" y1="305.41" x2="122.2" y2="312.71"/><line class="cls-14" x1="122.2" y1="315.21" x2="122.2" y2="317.91"/><line class="cls-14" x1="119" y1="319.81" x2="116.7" y2="318.41"/><line class="cls-35" x1="111.7" y1="315.61" x2="65" y2="288.61"/><line class="cls-14" x1="62.5" y1="287.21" x2="60.2" y2="285.81"/><path class="cls-41" d="M60.2,285.81a6.65,6.65,0,0,1-2.3-2.4"/><path class="cls-42" d="M57.9,283.41a7.34,7.34,0,0,1-.9-3.2"/><line class="cls-14" x1="57" y1="280.31" x2="57" y2="277.51"/><line class="cls-34" x1="57" y1="272.61" x2="57" y2="265.31"/><line class="cls-14" x1="57" y1="262.91" x2="57" y2="260.11"/><path class="cls-43" d="M186.9,256.81a9.18,9.18,0,0,1,1,3.2"/><line class="cls-14" x1="187.9" y1="259.91" x2="187.9" y2="262.71"/><line class="cls-44" x1="187.9" y1="267.51" x2="187.9" y2="274.81"/><line class="cls-14" x1="187.9" y1="277.21" x2="187.9" y2="279.91"/><path class="cls-37" d="M187.9,279.91a2.81,2.81,0,0,1-1,2.1"/><line class="cls-14" x1="186.9" y1="282.01" x2="184.5" y2="283.41"/><line class="cls-25" x1="179.9" y1="286.11" x2="125.9" y2="317.21"/><line class="cls-14" x1="123.6" y1="318.61" x2="121.2" y2="320.01"/><path class="cls-45" d="M121.2,320a2,2,0,0,0,1-2.1"/><line class="cls-14" x1="57.9" y1="226.61" x2="60.2" y2="225.31"/><line class="cls-25" x1="64.9" y1="222.61" x2="118.9" y2="191.41"/><line class="cls-14" x1="121.2" y1="190.01" x2="123.6" y2="188.71"/><path class="cls-46" d="M123.6,188.71a2.38,2.38,0,0,1,2.3.2"/><line class="cls-14" x1="125.9" y1="188.91" x2="128.2" y2="190.21"/><line class="cls-28" x1="133.2" y1="193.11" x2="179.8" y2="220.01"/><line class="cls-14" x1="182.3" y1="221.51" x2="184.6" y2="222.81"/><path class="cls-47" d="M184.6,222.81a5.89,5.89,0,0,1,2.3,2.4"/><line class="cls-14" x1="186.9" y1="225.21" x2="184.5" y2="226.61"/><line class="cls-25" x1="179.9" y1="229.31" x2="125.9" y2="260.51"/><line class="cls-14" x1="123.6" y1="261.81" x2="121.2" y2="263.21"/><path class="cls-48" d="M121.2,263.21a5.42,5.42,0,0,0-2.1-2.4"/><line class="cls-14" x1="119" y1="260.81" x2="116.7" y2="259.41"/><line class="cls-35" x1="111.7" y1="256.61" x2="65" y2="229.61"/><line class="cls-14" x1="62.5" y1="228.21" x2="60.2" y2="226.81"/><path class="cls-33" d="M121.2,263.21a5.5,5.5,0,0,1,1,3.2"/><line class="cls-14" x1="122.2" y1="266.31" x2="122.2" y2="269.11"/><line class="cls-44" x1="122.2" y1="273.91" x2="122.2" y2="281.21"/><line class="cls-14" x1="122.2" y1="283.61" x2="122.2" y2="286.41"/><line class="cls-14" x1="119" y1="288.21" x2="116.7" y2="286.81"/><line class="cls-35" x1="111.7" y1="284.01" x2="65" y2="257.01"/><line class="cls-14" x1="62.5" y1="255.61" x2="60.2" y2="254.31"/><path class="cls-41" d="M60.2,254.31a6.65,6.65,0,0,1-2.3-2.4"/><path class="cls-42" d="M57.9,251.91a7.34,7.34,0,0,1-.9-3.2"/><line class="cls-14" x1="57" y1="248.71" x2="57" y2="246.01"/><line class="cls-44" x1="57" y1="241.11" x2="57" y2="233.91"/><line class="cls-14" x1="57" y1="231.41" x2="57" y2="228.71"/><path class="cls-36" d="M186.9,225.21a8,8,0,0,1,1,3.2"/><line class="cls-14" x1="187.9" y1="228.41" x2="187.9" y2="231.11"/><line class="cls-34" x1="187.9" y1="236.01" x2="187.9" y2="243.31"/><line class="cls-14" x1="187.9" y1="245.81" x2="187.9" y2="248.51"/><path class="cls-37" d="M187.9,248.51a2.81,2.81,0,0,1-1,2.1"/><line class="cls-14" x1="186.9" y1="250.61" x2="184.5" y2="251.91"/><line class="cls-30" x1="179.8" y1="254.61" x2="125.9" y2="285.71"/><line class="cls-14" x1="123.6" y1="287.11" x2="121.2" y2="288.41"/><path class="cls-45" d="M121.2,288.41a2,2,0,0,0,1-2.1"/><line class="cls-14" x1="116.4" y1="273.11" x2="81.1" y2="252.61"/><line class="cls-14" x1="116.4" y1="304.51" x2="81.1" y2="284.11"/><line class="cls-14" x1="116.4" y1="335.41" x2="81.1" y2="315.01"/></g><g class="cls-11"><path class="cls-15" d="M267.9,231.21a2,2,0,0,1-2.1-.2h-.1L209,198.41l-2.2-1.3a6.65,6.65,0,0,1-2.3-2.4,7.34,7.34,0,0,1-.9-3.2v-20a2.34,2.34,0,0,1,.9-2.1l65.7-38a2.38,2.38,0,0,1,2.3.2l58.7,33.9a5.89,5.89,0,0,1,2.3,2.4,8,8,0,0,1,1,3.2v20.1a2.81,2.81,0,0,1-1,2.1l-4.4,2.5Z"/></g><g id="Server-5" data-name="Server" class="cls-13"><path class="cls-14" d="M203.7,171.51a2.34,2.34,0,0,1,.9-2.1,2.43,2.43,0,0,1,2.3.2"/><path class="cls-14" d="M268.8,229.21a2.18,2.18,0,0,1-1,2.1,2,2,0,0,1-2.1-.2"/><polygon class="cls-14" points="212.8 191.31 207.3 188.11 207.3 181.41 212.8 184.81 212.8 191.31"/><polygon class="cls-14" points="222.4 196.81 216.7 193.51 216.7 186.91 222.4 190.21 222.4 196.81"/><line class="cls-14" x1="204.5" y1="169.41" x2="270.3" y2="131.51"/><path class="cls-14" d="M270.3,131.51a2.38,2.38,0,0,1,2.3.2"/><line class="cls-14" x1="272.5" y1="131.71" x2="331.3" y2="165.61"/><path class="cls-14" d="M331.3,165.61a5.89,5.89,0,0,1,2.3,2.4"/><line class="cls-14" x1="333.6" y1="168.01" x2="267.9" y2="206.01"/><path class="cls-14" d="M267.9,206a5.42,5.42,0,0,0-2.1-2.4"/><line class="cls-14" x1="265.7" y1="203.61" x2="206.8" y2="169.71"/><path class="cls-14" d="M267.9,206a5.5,5.5,0,0,1,1,3.2"/><line class="cls-14" x1="268.8" y1="209.21" x2="268.8" y2="229.21"/><line class="cls-14" x1="265.7" y1="231.01" x2="206.8" y2="197.11"/><path class="cls-14" d="M206.8,197.11a6.65,6.65,0,0,1-2.3-2.4"/><path class="cls-14" d="M204.5,194.71a7.34,7.34,0,0,1-.9-3.2"/><line class="cls-14" x1="203.7" y1="191.51" x2="203.7" y2="171.51"/><path class="cls-14" d="M333.6,168a8,8,0,0,1,1,3.2"/><line class="cls-14" x1="334.5" y1="171.21" x2="334.5" y2="191.31"/><path class="cls-14" d="M334.5,191.31a2.81,2.81,0,0,1-1,2.1"/><line class="cls-14" x1="333.6" y1="193.41" x2="267.9" y2="231.21"/><path class="cls-14" d="M267.9,231.21a2,2,0,0,0,1-2.1"/><line class="cls-14" x1="263.1" y1="215.91" x2="227.7" y2="195.41"/></g><g class="cls-11"><path class="cls-5" d="M267.9,169.81a2,2,0,0,1-2.1-.2h-.1L209,137l-2.2-1.3a6.65,6.65,0,0,1-2.3-2.4,7.34,7.34,0,0,1-.9-3.2v-20a2.34,2.34,0,0,1,.9-2.1l65.7-38a2.38,2.38,0,0,1,2.3.2l58.7,33.9a5.89,5.89,0,0,1,2.3,2.4,8,8,0,0,1,1,3.2v20.1a2.81,2.81,0,0,1-1,2.1l-4.4,2.5Z"/></g><g id="Server-6" data-name="Server" class="cls-13"><path class="cls-14" d="M203.7,110a2.34,2.34,0,0,1,.9-2.1,2.43,2.43,0,0,1,2.3.2"/><path class="cls-14" d="M268.8,167.71a2.18,2.18,0,0,1-1,2.1,2,2,0,0,1-2.1-.2"/><polygon class="cls-14" points="212.8 129.81 207.3 126.61 207.3 119.91 212.8 123.31 212.8 129.81"/><polygon class="cls-14" points="222.4 135.31 216.7 132.01 216.7 125.41 222.4 128.71 222.4 135.31"/><line class="cls-14" x1="204.5" y1="108.01" x2="270.3" y2="70.01"/><path class="cls-14" d="M270.3,70a2.38,2.38,0,0,1,2.3.2"/><line class="cls-14" x1="272.5" y1="70.21" x2="331.3" y2="104.21"/><path class="cls-14" d="M331.3,104.21a5.89,5.89,0,0,1,2.3,2.4"/><line class="cls-14" x1="333.6" y1="106.61" x2="267.9" y2="144.51"/><path class="cls-14" d="M267.9,144.51a5.42,5.42,0,0,0-2.1-2.4"/><line class="cls-14" x1="265.7" y1="142.11" x2="206.8" y2="108.21"/><path class="cls-14" d="M267.9,144.51a5.5,5.5,0,0,1,1,3.2"/><line class="cls-14" x1="268.8" y1="147.71" x2="268.8" y2="167.71"/><line class="cls-14" x1="265.7" y1="169.51" x2="206.8" y2="135.61"/><path class="cls-14" d="M206.8,135.61a6.65,6.65,0,0,1-2.3-2.4"/><path class="cls-14" d="M204.5,133.21a7.34,7.34,0,0,1-.9-3.2"/><line class="cls-14" x1="203.7" y1="130.11" x2="203.7" y2="110.01"/><path class="cls-14" d="M333.6,106.61a8,8,0,0,1,1,3.2"/><line class="cls-14" x1="334.5" y1="109.71" x2="334.5" y2="129.81"/><path class="cls-14" d="M334.5,129.81a2.81,2.81,0,0,1-1,2.1"/><line class="cls-14" x1="333.6" y1="131.91" x2="267.9" y2="169.81"/><path class="cls-14" d="M267.9,169.81a2,2,0,0,0,1-2.1"/><line class="cls-14" x1="263.1" y1="154.41" x2="227.7" y2="134.01"/></g><polyline class="cls-16" points="269.2 81.41 241.5 53.81 93 53.81"/><path class="cls-12" d="M526.18,13.48a7,7,0,0,1-2.37-.41,5.53,5.53,0,0,1-2-1.24,5.85,5.85,0,0,1-1.35-2.08,7.84,7.84,0,0,1-.5-2.91,7.59,7.59,0,0,1,.52-2.91,6.44,6.44,0,0,1,1.39-2.14A6.13,6.13,0,0,1,526.26,0a5.11,5.11,0,0,1,2.32.51,6.52,6.52,0,0,1,1.72,1.21l-1.8,2.2a5.21,5.21,0,0,0-1-.69A2.46,2.46,0,0,0,526.34,3a2.4,2.4,0,0,0-1.09.26,2.75,2.75,0,0,0-.9.74,3.57,3.57,0,0,0-.62,1.18,5.15,5.15,0,0,0-.23,1.58,4.49,4.49,0,0,0,.77,2.82,2.46,2.46,0,0,0,2,1,2.7,2.7,0,0,0,1.35-.33,4,4,0,0,0,1-.79l1.8,2.16A5.46,5.46,0,0,1,528.53,13,5.78,5.78,0,0,1,526.18,13.48Z"/><path class="cls-12" d="M536.94,13.48a6.32,6.32,0,0,1-2.47-.46,5.31,5.31,0,0,1-1.9-1.33,6,6,0,0,1-1.23-2.14,8.82,8.82,0,0,1-.44-2.87,8.62,8.62,0,0,1,.44-2.85,5.89,5.89,0,0,1,1.23-2.1,5.09,5.09,0,0,1,1.9-1.29,7.12,7.12,0,0,1,4.93,0,5.07,5.07,0,0,1,1.91,1.3,5.89,5.89,0,0,1,1.23,2.1A8.55,8.55,0,0,1,543,6.68a8.82,8.82,0,0,1-.44,2.87,6,6,0,0,1-1.23,2.14A5.26,5.26,0,0,1,539.4,13,6.38,6.38,0,0,1,536.94,13.48Zm0-3a2.09,2.09,0,0,0,1.85-1,5.08,5.08,0,0,0,.67-2.81,4.78,4.78,0,0,0-.67-2.75,2.25,2.25,0,0,0-3.7,0,4.78,4.78,0,0,0-.67,2.75,5.08,5.08,0,0,0,.67,2.81A2.09,2.09,0,0,0,536.94,10.52Z"/><path class="cls-12" d="M545.3,13.24V.24H549l2,5.32c.12.36.23.73.34,1.12s.22.77.34,1.16h.08c.12-.39.23-.77.34-1.16s.22-.76.34-1.12L554.26.24h3.68v13h-3.12V9.4c0-.33,0-.7,0-1.1s.07-.81.11-1.23.09-.83.14-1.23.1-.76.14-1.08h-.08L554.1,7.88l-1.6,4.3h-1.84l-1.6-4.3-1-3.12h-.08c0,.32.09.68.14,1.08s.1.81.14,1.23.08.83.11,1.23,0,.77,0,1.1v3.84Z"/><path class="cls-12" d="M560.82,13.24V.24h3.68l2,5.32c.12.36.23.73.34,1.12s.22.77.34,1.16h.08c.12-.39.23-.77.34-1.16s.22-.76.34-1.12L569.78.24h3.68v13h-3.12V9.4c0-.33,0-.7,0-1.1s.07-.81.11-1.23.09-.83.14-1.23.1-.76.14-1.08h-.08l-1.08,3.12-1.6,4.3h-1.84l-1.6-4.3-1-3.12h-.08c0,.32.09.68.14,1.08s.1.81.14,1.23.08.83.11,1.23,0,.77,0,1.1v3.84Z"/><path class="cls-12" d="M576.34,13.24V.24h3.44v13Z"/><path class="cls-12" d="M586.78,13.48a7.8,7.8,0,0,1-2.55-.45,6.85,6.85,0,0,1-2.37-1.41l2-2.36a6.67,6.67,0,0,0,1.51.91,3.92,3.92,0,0,0,1.53.35,2,2,0,0,0,1.13-.24.79.79,0,0,0,.35-.68.65.65,0,0,0-.12-.4,1.17,1.17,0,0,0-.35-.3,4.72,4.72,0,0,0-.55-.27l-.74-.29L585,7.66a4.58,4.58,0,0,1-1-.53,3.9,3.9,0,0,1-.84-.78,3.55,3.55,0,0,1-.57-1A3.74,3.74,0,0,1,582.34,4a3.51,3.51,0,0,1,.36-1.57,4,4,0,0,1,1-1.28,4.77,4.77,0,0,1,1.53-.87A5.78,5.78,0,0,1,587.18,0a6.59,6.59,0,0,1,2.27.42,5.56,5.56,0,0,1,2,1.32L589.78,3.9a6,6,0,0,0-1.27-.7A3.61,3.61,0,0,0,587.18,3a1.88,1.88,0,0,0-1,.22.73.73,0,0,0-.36.66.78.78,0,0,0,.51.71c.34.17.81.36,1.41.59l1.58.62A4.31,4.31,0,0,1,591.2,7.1a3.53,3.53,0,0,1,.66,2.22,3.78,3.78,0,0,1-.34,1.58,3.89,3.89,0,0,1-1,1.33,4.91,4.91,0,0,1-1.59.91A6.28,6.28,0,0,1,586.78,13.48Z"/><path class="cls-12" d="M597.66,13.48a7.8,7.8,0,0,1-2.55-.45,6.85,6.85,0,0,1-2.37-1.41l2-2.36a6.67,6.67,0,0,0,1.51.91,3.92,3.92,0,0,0,1.53.35,2,2,0,0,0,1.13-.24.79.79,0,0,0,.35-.68.65.65,0,0,0-.12-.4,1.17,1.17,0,0,0-.35-.3,4.72,4.72,0,0,0-.55-.27l-.74-.29-1.62-.68a4.58,4.58,0,0,1-1-.53,3.9,3.9,0,0,1-.84-.78,3.55,3.55,0,0,1-.57-1A3.74,3.74,0,0,1,593.22,4a3.51,3.51,0,0,1,.36-1.57,4,4,0,0,1,1-1.28,4.77,4.77,0,0,1,1.53-.87A5.78,5.78,0,0,1,598.06,0a6.59,6.59,0,0,1,2.27.42,5.56,5.56,0,0,1,2,1.32L600.66,3.9a6,6,0,0,0-1.27-.7A3.61,3.61,0,0,0,598.06,3a1.88,1.88,0,0,0-1,.22.73.73,0,0,0-.36.66.78.78,0,0,0,.51.71c.34.17.81.36,1.41.59l1.58.62a4.31,4.31,0,0,1,1.88,1.34,3.53,3.53,0,0,1,.66,2.22,3.78,3.78,0,0,1-.34,1.58,3.89,3.89,0,0,1-1,1.33,4.91,4.91,0,0,1-1.59.91A6.28,6.28,0,0,1,597.66,13.48Z"/><path class="cls-12" d="M604.82,13.24V.24h3.44v13Z"/><path class="cls-12" d="M616.62,13.48a6.32,6.32,0,0,1-2.47-.46,5.31,5.31,0,0,1-1.9-1.33A6,6,0,0,1,611,9.55a8.82,8.82,0,0,1-.44-2.87A8.62,8.62,0,0,1,611,3.83a5.89,5.89,0,0,1,1.23-2.1,5.09,5.09,0,0,1,1.9-1.29,7.12,7.12,0,0,1,4.93,0A5.07,5.07,0,0,1,621,1.74a5.89,5.89,0,0,1,1.23,2.1,8.55,8.55,0,0,1,.44,2.84,8.82,8.82,0,0,1-.44,2.87A6,6,0,0,1,621,11.69,5.26,5.26,0,0,1,619.08,13,6.38,6.38,0,0,1,616.62,13.48Zm0-3a2.09,2.09,0,0,0,1.85-1,5.08,5.08,0,0,0,.67-2.81,4.78,4.78,0,0,0-.67-2.75,2.25,2.25,0,0,0-3.7,0,4.78,4.78,0,0,0-.67,2.75,5.08,5.08,0,0,0,.67,2.81A2.09,2.09,0,0,0,616.62,10.52Z"/><path class="cls-12" d="M625,13.24V.24h3.52L631.38,6,632.62,9h.08c0-.35-.09-.73-.14-1.14s-.1-.84-.14-1.27-.08-.87-.11-1.3,0-.85,0-1.25V.24h3.28v13H632l-2.88-5.82-1.24-2.9h-.08c.08.75.17,1.56.28,2.44a20.3,20.3,0,0,1,.16,2.52v3.76Z"/><path class="cls-12" d="M100.08,46.61a7,7,0,0,1-2.37-.41,5.67,5.67,0,0,1-2-1.24,6,6,0,0,1-1.35-2.08,7.92,7.92,0,0,1-.5-2.91,7.52,7.52,0,0,1,.52-2.91,6.44,6.44,0,0,1,1.39-2.14,5.94,5.94,0,0,1,2-1.33,6.15,6.15,0,0,1,2.37-.47,5.11,5.11,0,0,1,2.32.52,6.52,6.52,0,0,1,1.72,1.21l-1.8,2.2a5.21,5.21,0,0,0-1-.69,2.46,2.46,0,0,0-1.17-.27,2.28,2.28,0,0,0-1.09.26,2.75,2.75,0,0,0-.9.74,3.57,3.57,0,0,0-.62,1.18,5.1,5.1,0,0,0-.23,1.58,4.53,4.53,0,0,0,.77,2.82,2.46,2.46,0,0,0,2,1,2.7,2.7,0,0,0,1.35-.33,4.21,4.21,0,0,0,1-.79l1.8,2.16a5.32,5.32,0,0,1-1.93,1.43A5.62,5.62,0,0,1,100.08,46.61Z"/><path class="cls-12" d="M111.08,46.61A5,5,0,0,1,107,45a7.58,7.58,0,0,1-1.33-4.93V33.37h3.44v7.12a4.72,4.72,0,0,0,.47,2.45,1.66,1.66,0,0,0,1.49.71,1.72,1.72,0,0,0,1.51-.71,4.5,4.5,0,0,0,.49-2.45V33.37h3.32v6.72A7.71,7.71,0,0,1,115.1,45,4.9,4.9,0,0,1,111.08,46.61Z"/><path class="cls-12" d="M123.12,46.61a7.8,7.8,0,0,1-2.55-.45,6.85,6.85,0,0,1-2.37-1.41l2-2.36a7.05,7.05,0,0,0,1.51.91,3.92,3.92,0,0,0,1.53.35,2,2,0,0,0,1.13-.24.79.79,0,0,0,.35-.68.63.63,0,0,0-.12-.4,1.17,1.17,0,0,0-.35-.3,2.82,2.82,0,0,0-.55-.27l-.74-.29-1.62-.68a5.05,5.05,0,0,1-1-.53,3.9,3.9,0,0,1-.84-.78,3.68,3.68,0,0,1-.57-1,3.78,3.78,0,0,1-.21-1.28A3.48,3.48,0,0,1,119,35.6a3.87,3.87,0,0,1,1-1.28,4.77,4.77,0,0,1,1.53-.87,5.54,5.54,0,0,1,2-.33,6.6,6.6,0,0,1,2.27.43,5.56,5.56,0,0,1,2,1.32L126.12,37a6,6,0,0,0-1.27-.7,3.61,3.61,0,0,0-1.33-.24,1.88,1.88,0,0,0-1,.22.71.71,0,0,0-.36.66.79.79,0,0,0,.51.71c.34.16.81.36,1.41.59l1.58.62a4.24,4.24,0,0,1,1.88,1.34,3.53,3.53,0,0,1,.66,2.22,3.81,3.81,0,0,1-.34,1.58,4,4,0,0,1-1,1.33,4.91,4.91,0,0,1-1.59.91A6.53,6.53,0,0,1,123.12,46.61Z"/><path class="cls-12" d="M132.36,46.37V36.25h-3.44V33.37h10.32v2.88H135.8V46.37Z"/><path class="cls-12" d="M146,46.61a6.51,6.51,0,0,1-2.47-.46,5.31,5.31,0,0,1-1.9-1.33,6.23,6.23,0,0,1-1.23-2.14,8.87,8.87,0,0,1-.44-2.87,8.62,8.62,0,0,1,.44-2.85,5.86,5.86,0,0,1,1.23-2.1,5.09,5.09,0,0,1,1.9-1.29,7,7,0,0,1,4.93,0,5,5,0,0,1,1.91,1.3,5.89,5.89,0,0,1,1.23,2.1,8.26,8.26,0,0,1,.44,2.84,8.6,8.6,0,0,1-.44,2.87,6.07,6.07,0,0,1-1.23,2.14,5.26,5.26,0,0,1-1.91,1.33A6.53,6.53,0,0,1,146,46.61Zm0-3a2.11,2.11,0,0,0,1.85-1,5.1,5.1,0,0,0,.67-2.81,4.76,4.76,0,0,0-.67-2.75,2.25,2.25,0,0,0-3.7,0,4.76,4.76,0,0,0-.67,2.75,5.1,5.1,0,0,0,.67,2.81A2.11,2.11,0,0,0,146,43.65Z"/><path class="cls-12" d="M154.4,46.37v-13h3.68l2,5.32c.12.36.24.73.34,1.12s.22.77.34,1.16h.08c.12-.39.23-.78.34-1.16s.22-.76.34-1.12l1.88-5.32H167v13h-3.12V42.53c0-.34,0-.7.05-1.1s.07-.81.11-1.23.09-.83.14-1.23.1-.76.14-1.08h-.08L163.2,41l-1.6,4.3h-1.84l-1.6-4.3-1-3.12H157c0,.32.09.68.14,1.08s.1.81.14,1.23.08.83.11,1.23,0,.76,0,1.1v3.84Z"/><path class="cls-12" d="M169.92,46.37v-13h3.44v13Z"/><path class="cls-12" d="M180.36,46.61a7.8,7.8,0,0,1-2.55-.45,6.85,6.85,0,0,1-2.37-1.41l2-2.36a7.05,7.05,0,0,0,1.51.91,3.92,3.92,0,0,0,1.53.35,2,2,0,0,0,1.13-.24.79.79,0,0,0,.35-.68.63.63,0,0,0-.12-.4,1.17,1.17,0,0,0-.35-.3,2.82,2.82,0,0,0-.55-.27l-.74-.29-1.62-.68a5.05,5.05,0,0,1-1-.53,3.9,3.9,0,0,1-.84-.78,3.68,3.68,0,0,1-.57-1,3.78,3.78,0,0,1-.21-1.28,3.48,3.48,0,0,1,.36-1.57,3.87,3.87,0,0,1,1-1.28,4.77,4.77,0,0,1,1.53-.87,5.54,5.54,0,0,1,1.95-.33,6.6,6.6,0,0,1,2.27.43,5.56,5.56,0,0,1,2.05,1.32L183.36,37a6,6,0,0,0-1.27-.7,3.61,3.61,0,0,0-1.33-.24,1.88,1.88,0,0,0-1,.22.71.71,0,0,0-.36.66.79.79,0,0,0,.51.71c.34.16.81.36,1.41.59l1.58.62a4.24,4.24,0,0,1,1.88,1.34,3.53,3.53,0,0,1,.66,2.22A3.81,3.81,0,0,1,185.1,44a4,4,0,0,1-1,1.33,4.91,4.91,0,0,1-1.59.91A6.53,6.53,0,0,1,180.36,46.61Z"/><path class="cls-12" d="M185.88,46.37l4-13H194l4,13h-3.64l-.64-2.76H190l-.64,2.76Zm5-6.32-.22.9h2.4l-.22-.9q-.24-.94-.48-2c-.16-.74-.32-1.43-.48-2.08h-.08c-.15.66-.3,1.36-.45,2.09S191,39.42,190.88,40.05Z"/><path class="cls-12" d="M200.08,46.37V36.25h-3.44V33.37H207v2.88h-3.44V46.37Z"/><path class="cls-12" d="M208.88,46.37v-13h3.44v13Z"/><path class="cls-12" d="M220.68,46.61a6.54,6.54,0,0,1-2.47-.46,5.31,5.31,0,0,1-1.9-1.33,6.39,6.39,0,0,1-1.23-2.14,8.87,8.87,0,0,1-.44-2.87,8.62,8.62,0,0,1,.44-2.85,6,6,0,0,1,1.23-2.1,5.09,5.09,0,0,1,1.9-1.29,7,7,0,0,1,4.93,0,4.89,4.89,0,0,1,1.91,1.3,5.89,5.89,0,0,1,1.23,2.1,8.26,8.26,0,0,1,.44,2.84,8.6,8.6,0,0,1-.44,2.87,6.07,6.07,0,0,1-1.23,2.14,5.18,5.18,0,0,1-1.91,1.33A6.49,6.49,0,0,1,220.68,46.61Zm0-3a2.1,2.1,0,0,0,1.85-1,5.1,5.1,0,0,0,.67-2.81,4.76,4.76,0,0,0-.67-2.75,2.11,2.11,0,0,0-1.85-1,2.13,2.13,0,0,0-1.85,1,4.83,4.83,0,0,0-.67,2.75,5.19,5.19,0,0,0,.67,2.81A2.12,2.12,0,0,0,220.68,43.65Z"/><path class="cls-12" d="M229,46.37v-13h3.52l2.88,5.8,1.24,2.92h.08c0-.35-.08-.73-.14-1.14s-.1-.84-.14-1.27-.08-.87-.11-1.3-.05-.85-.05-1.26V33.37h3.28v13h-3.52l-2.88-5.82L232,37.65h-.08c.08.74.18,1.56.28,2.44a20.3,20.3,0,0,1,.16,2.52v3.76Z"/><path class="cls-12" d="M1.51,140.85V127.2h4a10.18,10.18,0,0,1,2.85.38,5.68,5.68,0,0,1,2.22,1.2,5.41,5.41,0,0,1,1.43,2.1,8.12,8.12,0,0,1,.52,3.09,8.46,8.46,0,0,1-.51,3.1,5.52,5.52,0,0,1-1.41,2.15,5.61,5.61,0,0,1-2.17,1.23,8.77,8.77,0,0,1-2.72.4ZM5.12,138h.21a5.19,5.19,0,0,0,1.39-.18,2.68,2.68,0,0,0,1.12-.62,3,3,0,0,0,.75-1.22,6.12,6.12,0,0,0,.27-2,6,6,0,0,0-.27-2,2.76,2.76,0,0,0-.75-1.17,2.51,2.51,0,0,0-1.12-.58,5.64,5.64,0,0,0-1.39-.16H5.12Z"/><path class="cls-12" d="M15,140.85V127.2h8.83v3H18.61v2.14h4.45v3H18.61v2.44H24v3Z"/><path class="cls-12" d="M29.28,140.85V130.23H25.66v-3H36.5v3H32.89v10.62Z"/><path class="cls-12" d="M36,140.85l4.16-13.65h4.37l4.16,13.65H44.82L44.14,138H40.32l-.67,2.89Zm5.25-6.63-.23.94h2.52l-.23-.94c-.17-.66-.34-1.37-.5-2.14s-.34-1.5-.51-2.19h-.08c-.16.7-.31,1.43-.47,2.2S41.37,133.56,41.2,134.22Z"/><path class="cls-12" d="M49.94,140.85V127.2h3.61v13.65Z"/><path class="cls-12" d="M56.57,140.85V127.2h3.62v10.63h5.16v3Z"/><path class="cls-12" d="M67.7,140.85V127.2h8.82v3h-5.2v2.14h4.45v3H71.32v2.44h5.41v3Z"/><path class="cls-12" d="M79.38,140.85V127.2h4a10.18,10.18,0,0,1,2.85.38,5.57,5.57,0,0,1,2.21,1.2,5.32,5.32,0,0,1,1.44,2.1,8.32,8.32,0,0,1,.52,3.09,8.46,8.46,0,0,1-.51,3.1,5.44,5.44,0,0,1-3.58,3.38,8.77,8.77,0,0,1-2.72.4ZM83,138h.21a5.24,5.24,0,0,0,1.39-.18,2.68,2.68,0,0,0,1.12-.62,3,3,0,0,0,.75-1.22,6.12,6.12,0,0,0,.27-2,6,6,0,0,0-.27-2,2.76,2.76,0,0,0-.75-1.17,2.51,2.51,0,0,0-1.12-.58,5.69,5.69,0,0,0-1.39-.16H83Z"/><path class="cls-12" d="M1.51,166.05V152.4h4a10.18,10.18,0,0,1,2.85.38,5.68,5.68,0,0,1,2.22,1.2,5.41,5.41,0,0,1,1.43,2.1,8.12,8.12,0,0,1,.52,3.09,8.46,8.46,0,0,1-.51,3.1,5.52,5.52,0,0,1-1.41,2.15,5.61,5.61,0,0,1-2.17,1.23,8.77,8.77,0,0,1-2.72.4Zm3.61-2.89h.21A5.19,5.19,0,0,0,6.72,163a2.68,2.68,0,0,0,1.12-.62,3,3,0,0,0,.75-1.22,6.12,6.12,0,0,0,.27-2,6,6,0,0,0-.27-2A2.76,2.76,0,0,0,7.84,156a2.51,2.51,0,0,0-1.12-.58,5.64,5.64,0,0,0-1.39-.16H5.12Z"/><path class="cls-12" d="M15,166.05V152.4h8.83v3H18.61v2.14h4.45v3H18.61V163H24v3Z"/><path class="cls-12" d="M31,166.31a8.12,8.12,0,0,1-2.68-.48,7,7,0,0,1-2.49-1.48l2.06-2.48a7,7,0,0,0,1.58,1,4.2,4.2,0,0,0,1.61.37,2.24,2.24,0,0,0,1.19-.25.83.83,0,0,0,.36-.72.7.7,0,0,0-.12-.42,1.29,1.29,0,0,0-.37-.31,3.47,3.47,0,0,0-.58-.29l-.77-.3-1.7-.72a4.78,4.78,0,0,1-1.05-.55,4.34,4.34,0,0,1-.89-.82,3.77,3.77,0,0,1-.59-1.08,3.9,3.9,0,0,1-.23-1.35,3.77,3.77,0,0,1,.38-1.65,4.36,4.36,0,0,1,1.05-1.34,5.15,5.15,0,0,1,1.61-.91,5.84,5.84,0,0,1,2.05-.34,7,7,0,0,1,2.38.44A5.9,5.9,0,0,1,36,154l-1.8,2.27a6.23,6.23,0,0,0-1.34-.74,3.7,3.7,0,0,0-1.39-.25,2,2,0,0,0-1.05.23.75.75,0,0,0-.38.69.82.82,0,0,0,.53.75c.36.17.85.38,1.48.62l1.66.65a4.43,4.43,0,0,1,2,1.41,3.73,3.73,0,0,1,.69,2.33A4,4,0,0,1,36,163.6a3.88,3.88,0,0,1-1,1.39,5.17,5.17,0,0,1-1.66,1A6.63,6.63,0,0,1,31,166.31Z"/><path class="cls-12" d="M38.51,166.05V152.4h3.62v13.65Z"/><path class="cls-12" d="M51.45,166.31a8.2,8.2,0,0,1-2.69-.44,5.91,5.91,0,0,1-3.66-3.48,8,8,0,0,1-.54-3.06,7.9,7.9,0,0,1,.55-3.05,6.39,6.39,0,0,1,3.65-3.65,7.19,7.19,0,0,1,2.61-.48,5.87,5.87,0,0,1,2.61.54A6.51,6.51,0,0,1,55.82,154l-1.89,2.31a5.15,5.15,0,0,0-1.06-.73,3.35,3.35,0,0,0-2.66,0,3.09,3.09,0,0,0-1,.78,3.61,3.61,0,0,0-.68,1.24,5.32,5.32,0,0,0-.24,1.66,4.52,4.52,0,0,0,.86,3,3.36,3.36,0,0,0,2.71,1,2.3,2.3,0,0,0,.58-.07,1.54,1.54,0,0,0,.47-.18v-1.89h-2v-2.94h5.21v6.5a6.11,6.11,0,0,1-2,1.19A7,7,0,0,1,51.45,166.31Z"/><path class="cls-12" d="M58.72,166.05V152.4h3.69l3,6.09,1.3,3.07h.08q-.06-.54-.15-1.2c0-.43-.1-.88-.14-1.33l-.12-1.37c0-.45,0-.89,0-1.31V152.4H69.8v13.65H66.11l-3-6.11-1.3-3H61.7c.08.78.18,1.64.29,2.56a22.44,22.44,0,0,1,.17,2.64v4Z"/><path class="cls-12" d="M295.22,465.64V452h4a10.19,10.19,0,0,1,2.85.37,6,6,0,0,1,2.22,1.2,5.56,5.56,0,0,1,1.43,2.1,8.15,8.15,0,0,1,.52,3.09,8.55,8.55,0,0,1-.51,3.11,5.48,5.48,0,0,1-1.41,2.14,5.76,5.76,0,0,1-2.17,1.24,9.07,9.07,0,0,1-2.72.4Zm3.61-2.9H299a5.19,5.19,0,0,0,1.39-.18,2.68,2.68,0,0,0,1.12-.62,2.89,2.89,0,0,0,.75-1.22,6.08,6.08,0,0,0,.27-2,5.87,5.87,0,0,0-.27-1.95,2.73,2.73,0,0,0-.75-1.18,2.61,2.61,0,0,0-1.12-.58,6.16,6.16,0,0,0-1.39-.16h-.21Z"/><path class="cls-12" d="M314.46,465.89a6.71,6.71,0,0,1-2.59-.48,5.57,5.57,0,0,1-2-1.4,6.51,6.51,0,0,1-1.29-2.25,9.1,9.1,0,0,1-.46-3,8.9,8.9,0,0,1,.46-3,6.32,6.32,0,0,1,1.29-2.21,5.33,5.33,0,0,1,2-1.35,7.34,7.34,0,0,1,5.17,0,5.27,5.27,0,0,1,2,1.36,6.41,6.41,0,0,1,1.29,2.21,8.8,8.8,0,0,1,.46,3,9.1,9.1,0,0,1-.46,3,6.51,6.51,0,0,1-1.29,2.25,5.6,5.6,0,0,1-2,1.4A6.74,6.74,0,0,1,314.46,465.89Zm0-3.11a2.21,2.21,0,0,0,1.94-1.08,5.37,5.37,0,0,0,.7-2.95,5,5,0,0,0-.7-2.89,2.24,2.24,0,0,0-1.94-1,2.21,2.21,0,0,0-1.94,1,5,5,0,0,0-.71,2.89,5.36,5.36,0,0,0,.71,2.95A2.18,2.18,0,0,0,314.46,462.78Z"/><path class="cls-12" d="M329.16,465.89a7.4,7.4,0,0,1-2.49-.43,5.76,5.76,0,0,1-2.08-1.3,6.38,6.38,0,0,1-1.42-2.19,9.07,9.07,0,0,1,0-6.11,6.84,6.84,0,0,1,1.46-2.25,6.41,6.41,0,0,1,2.1-1.39,6.58,6.58,0,0,1,2.49-.49,5.37,5.37,0,0,1,2.44.54,7,7,0,0,1,1.8,1.27l-1.89,2.31a5,5,0,0,0-1-.72,2.53,2.53,0,0,0-1.22-.29,2.41,2.41,0,0,0-1.15.28,2.88,2.88,0,0,0-.94.77,3.74,3.74,0,0,0-.65,1.24,5,5,0,0,0-.25,1.66,4.68,4.68,0,0,0,.81,3,2.57,2.57,0,0,0,2.13,1,2.85,2.85,0,0,0,1.42-.35,4,4,0,0,0,1.06-.83l1.89,2.27a5.74,5.74,0,0,1-2,1.51A6,6,0,0,1,329.16,465.89Z"/><path class="cls-12" d="M340.71,465.89a5.29,5.29,0,0,1-4.28-1.67Q335,462.56,335,459V452h3.61v7.47a4.87,4.87,0,0,0,.49,2.57,1.74,1.74,0,0,0,1.57.75,1.78,1.78,0,0,0,1.58-.75,4.64,4.64,0,0,0,.52-2.57V452h3.48V459q0,3.51-1.36,5.18A5.15,5.15,0,0,1,340.71,465.89Z"/><path class="cls-12" d="M349.23,465.64V452h3.87l2.06,5.58c.12.38.24.77.35,1.18s.23.81.36,1.22H356c.13-.41.25-.82.36-1.22s.23-.8.36-1.18l2-5.58h3.87v13.65h-3.28v-4c0-.35,0-.73,0-1.15s.08-.85.12-1.29.09-.87.15-1.29.1-.8.14-1.14h-.08L358.47,460l-1.68,4.51h-1.93L353.18,460l-1.09-3.28H352c0,.34.09.72.14,1.14s.11.85.15,1.29.08.87.12,1.29.05.8.05,1.15v4Z"/><path class="cls-12" d="M365.53,465.64V452h8.82v3h-5.21v2.14h4.45v3h-4.45v2.43h5.42v3Z"/><path class="cls-12" d="M377.21,465.64V452h3.69l3,6.09,1.3,3.06h.08c0-.36-.09-.76-.15-1.19s-.1-.88-.14-1.34l-.12-1.36c0-.46,0-.9,0-1.32V452h3.44v13.65H384.6l-3-6.11-1.3-3h-.08c.08.79.18,1.64.29,2.56a22.6,22.6,0,0,1,.17,2.65v3.95Z"/><path class="cls-12" d="M393.92,465.64V455h-3.61v-3h10.84v3h-3.62v10.63Z"/><path class="cls-12" d="M400.6,465.64,404.76,452h4.37l4.15,13.65h-3.82l-.67-2.9H405l-.67,2.9Zm5.25-6.64-.23.95h2.52l-.23-.95c-.17-.66-.34-1.37-.51-2.14s-.33-1.5-.5-2.19h-.08c-.16.7-.32,1.44-.48,2.2S406,458.34,405.85,459Z"/><path class="cls-12" d="M415.51,465.64V455H411.9v-3h10.83v3h-3.61v10.63Z"/><path class="cls-12" d="M424.75,465.64V452h3.61v13.65Z"/><path class="cls-12" d="M437.14,465.89a6.71,6.71,0,0,1-2.59-.48,5.57,5.57,0,0,1-2-1.4,6.51,6.51,0,0,1-1.29-2.25,9.1,9.1,0,0,1-.46-3,8.9,8.9,0,0,1,.46-3,6.32,6.32,0,0,1,1.29-2.21,5.33,5.33,0,0,1,2-1.35,7.34,7.34,0,0,1,5.17,0,5.27,5.27,0,0,1,2,1.36,6.41,6.41,0,0,1,1.29,2.21,8.8,8.8,0,0,1,.46,3,9.1,9.1,0,0,1-.46,3,6.51,6.51,0,0,1-1.29,2.25,5.6,5.6,0,0,1-2,1.4A6.74,6.74,0,0,1,437.14,465.89Zm0-3.11a2.21,2.21,0,0,0,1.94-1.08,5.36,5.36,0,0,0,.71-2.95,5,5,0,0,0-.71-2.89,2.35,2.35,0,0,0-3.88,0,5,5,0,0,0-.71,2.89,5.36,5.36,0,0,0,.71,2.95A2.19,2.19,0,0,0,437.14,462.78Z"/><path class="cls-12" d="M445.92,465.64V452h3.69l3,6.09,1.3,3.06H454c0-.36-.09-.76-.14-1.19s-.11-.88-.15-1.34l-.12-1.36c0-.46-.05-.9-.05-1.32V452H457v13.65h-3.69l-3-6.11-1.3-3h-.08c.08.79.18,1.64.29,2.56a22.6,22.6,0,0,1,.17,2.65v3.95Z"/><path class="cls-12" d="M293.5,490.84l4.16-13.65H302l4.15,13.65h-3.82l-.67-2.9h-3.82l-.67,2.9Zm5.25-6.64-.23.95H301l-.23-.95c-.17-.66-.34-1.37-.51-2.14s-.33-1.5-.5-2.19h-.08c-.16.7-.32,1.44-.48,2.2S298.92,483.54,298.75,484.2Z"/><path class="cls-12" d="M307.49,490.84V477.19h3.69l3,6.09,1.3,3.06h.08c0-.36-.09-.76-.15-1.19s-.1-.88-.14-1.34l-.12-1.36c0-.46-.05-.9-.05-1.32v-3.94h3.44v13.65h-3.69l-3-6.11-1.3-3.05h-.08c.08.78.18,1.64.29,2.56a22.6,22.6,0,0,1,.17,2.65v3.95Z"/><path class="cls-12" d="M321.6,490.84V477.19h4a10.24,10.24,0,0,1,2.85.37,5.83,5.83,0,0,1,2.21,1.2,5.47,5.47,0,0,1,1.44,2.1,8.36,8.36,0,0,1,.51,3.09,8.56,8.56,0,0,1-.5,3.11,5.69,5.69,0,0,1-1.42,2.14,5.79,5.79,0,0,1-2.16,1.24,9.07,9.07,0,0,1-2.72.4Zm3.61-2.9h.21a5.24,5.24,0,0,0,1.39-.18,2.74,2.74,0,0,0,1.12-.62,3,3,0,0,0,.74-1.22,5.79,5.79,0,0,0,.28-2,5.59,5.59,0,0,0-.28-1.95,2.81,2.81,0,0,0-.74-1.18,2.67,2.67,0,0,0-1.12-.58,6.23,6.23,0,0,0-1.39-.16h-.21Z"/><path class="cls-12" d="M341.88,490.84V480.21h-3.61v-3h10.84v3H345.5v10.63Z"/><path class="cls-12" d="M351.12,490.84V477.19h8.82v3h-5.2v2.14h4.45v3h-4.45v2.43h5.41v3Z"/><path class="cls-12" d="M367.13,491.09a8.37,8.37,0,0,1-2.68-.47,7.19,7.19,0,0,1-2.49-1.48l2.06-2.48a6.91,6.91,0,0,0,1.58.95,4,4,0,0,0,1.61.37,2.15,2.15,0,0,0,1.19-.25.83.83,0,0,0,.36-.72.74.74,0,0,0-.12-.42,1.48,1.48,0,0,0-.37-.31,3.5,3.5,0,0,0-.58-.28c-.22-.1-.48-.2-.77-.31l-1.71-.71a5,5,0,0,1-1-.56,4.08,4.08,0,0,1-.89-.82,3.77,3.77,0,0,1-.6-1.08,4.09,4.09,0,0,1-.22-1.34,3.7,3.7,0,0,1,.38-1.65,4.25,4.25,0,0,1,1.05-1.35,5.15,5.15,0,0,1,1.61-.91,6.08,6.08,0,0,1,2.05-.34,6.81,6.81,0,0,1,2.38.45,5.83,5.83,0,0,1,2.15,1.38l-1.8,2.27a7,7,0,0,0-1.34-.74,3.9,3.9,0,0,0-1.39-.25,2,2,0,0,0-1.05.23.76.76,0,0,0-.38.7.81.81,0,0,0,.53.74c.36.18.85.38,1.48.62l1.66.65a4.57,4.57,0,0,1,2,1.41,3.73,3.73,0,0,1,.69,2.33,4,4,0,0,1-.36,1.66,3.92,3.92,0,0,1-1,1.4,5.29,5.29,0,0,1-1.67,1A6.54,6.54,0,0,1,367.13,491.09Z"/><path class="cls-12" d="M376.83,490.84V480.21h-3.61v-3h10.83v3h-3.61v10.63Z"/><path class="cls-12" d="M386.07,490.84V477.19h3.61v13.65Z"/><path class="cls-12" d="M392.7,490.84V477.19h3.7l3,6.09,1.31,3.06h.08c0-.36-.09-.76-.15-1.19s-.1-.88-.14-1.34-.09-.91-.12-1.36,0-.9,0-1.32v-3.94h3.44v13.65H400.1l-3-6.11-1.3-3.05h-.08c.08.78.18,1.64.29,2.56a22.6,22.6,0,0,1,.17,2.65v3.95Z"/><path class="cls-12" d="M413.12,491.09a8.43,8.43,0,0,1-2.69-.43,5.87,5.87,0,0,1-3.67-3.49,9,9,0,0,1,0-6.11,6.73,6.73,0,0,1,1.48-2.25,6.4,6.4,0,0,1,2.18-1.39,7.11,7.11,0,0,1,2.6-.49,5.92,5.92,0,0,1,2.62.54,6.82,6.82,0,0,1,1.83,1.27l-1.89,2.31a5.22,5.22,0,0,0-1.06-.72,3,3,0,0,0-1.37-.29,3,3,0,0,0-1.28.27,3.16,3.16,0,0,0-1,.78,3.45,3.45,0,0,0-.68,1.24,5,5,0,0,0-.25,1.66,4.45,4.45,0,0,0,.87,3,3.3,3.3,0,0,0,2.7,1,2.78,2.78,0,0,0,.58-.06,1.36,1.36,0,0,0,.47-.19v-1.89h-2V482.9h5.21v6.51a6.15,6.15,0,0,1-2,1.18A7,7,0,0,1,413.12,491.09Z"/></g></g></svg>