<?xml version="1.0" encoding="utf-8"?>
<!-- Generator: Adobe Illustrator 19.0.0, SVG Export Plug-In . SVG Version: 6.00 Build 0)  -->
<svg version="1.1" id="Layer_1" xmlns="http://www.w3.org/2000/svg" xmlns:xlink="http://www.w3.org/1999/xlink" x="0px" y="0px"
	 viewBox="0 0 29 28.7" style="enable-background:new 0 0 29 28.7;" xml:space="preserve">
<style type="text/css">
	.st0{opacity:0.4;}
	.st1{fill:#A9C6EA;}
</style>
<g id="XMLID_2963_" class="st0">
	<g id="XMLID_2977_">
		<path id="XMLID_2978_" class="st1" d="M10.5,16c0-1.6,1-2.6,2.6-2.6l0,0c1.6,0,2.6,1,2.6,2.6H10.5z"/>
	</g>
	<g id="XMLID_2975_">
		<circle id="XMLID_2976_" class="st1" cx="13.1" cy="10.8" r="1.8"/>
	</g>
	<path id="XMLID_2974_" class="st1" d="M23.1,5V4c0-0.6-0.4-1-1-1h-4c-0.6,0-1,0.4-1,1v4c0,0.6,0.4,1,1,1h4c0.6,0,1-0.4,1-1V7l3,1V4
		L23.1,5z"/>
	<path id="XMLID_2970_" class="st1" d="M23.7,22.8l-1.6-4.9V11h-2v6h-14V8h9V6h-10c-0.6,0-1,0.4-1,1v10.8l-1.6,4.9
		c-0.2,0.6-0.1,1.1,0.2,1.6S3.5,25,4.1,25h18c0.6,0,1.1-0.3,1.4-0.7S23.9,23.3,23.7,22.8z M4.5,23l1.3-4h14.6l1.3,4H4.5z"/>
	<g id="XMLID_2967_">
		<rect id="XMLID_2968_" x="11.1" y="20" class="st1" width="4" height="2"/>
	</g>
</g>
</svg>
