<?xml version="1.0" encoding="utf-8"?>
<!-- Generator: Adobe Illustrator 19.0.0, SVG Export Plug-In . SVG Version: 6.00 Build 0)  -->
<svg version="1.1" id="Layer_1" xmlns="http://www.w3.org/2000/svg" xmlns:xlink="http://www.w3.org/1999/xlink" x="0px" y="0px"
	 viewBox="0 0 29 28.7" style="enable-background:new 0 0 29 28.7;" xml:space="preserve">
<style type="text/css">
	.st0{opacity:0.4;}
	.st1{fill:#A9C6EA;}
</style>
<g id="XMLID_2910_" class="st0">
	<path id="XMLID_2928_" class="st1" d="M23.5,6.5h-7c-0.3,0-0.5,0.1-0.7,0.3l-1.3,1.3l-1.3-1.3c-0.2-0.2-0.4-0.3-0.7-0.3h-7
		c-0.6,0-1,0.4-1,1v13c0,0.6,0.4,1,1,1h6.6l1.7,1.7c0.2,0.2,0.5,0.3,0.7,0.3s0.5-0.1,0.7-0.3l1.7-1.7h6.6c0.6,0,1-0.4,1-1v-13
		C24.5,7,24.1,6.5,23.5,6.5z M12.5,19.5h-6v-11h5.6l1.4,1.4v10.2l-0.3-0.3C13,19.6,12.8,19.5,12.5,19.5z M22.5,19.5h-6
		c-0.3,0-0.5,0.1-0.7,0.3l-0.3,0.3V9.9l1.4-1.4h5.6V19.5z"/>
	<rect id="XMLID_2927_" x="9.5" y="10.5" class="st1" width="3" height="2"/>
	<rect id="XMLID_2915_" x="7.5" y="13.5" class="st1" width="5" height="2"/>
	<rect id="XMLID_2914_" x="7.5" y="16.5" class="st1" width="5" height="2"/>
	<rect id="XMLID_2913_" x="16.5" y="16.5" class="st1" width="5" height="2"/>
	<rect id="XMLID_2912_" x="16.5" y="13.5" class="st1" width="5" height="2"/>
	<rect id="XMLID_2911_" x="16.5" y="10.5" class="st1" width="3" height="2"/>
</g>
</svg>
