<?xml version="1.0" encoding="utf-8"?>
<!-- Generator: Adobe Illustrator 19.0.0, SVG Export Plug-In . SVG Version: 6.00 Build 0)  -->
<svg version="1.1" id="Layer_1" xmlns="http://www.w3.org/2000/svg" xmlns:xlink="http://www.w3.org/1999/xlink" x="0px" y="0px"
	 viewBox="0 0 29 28.7" style="enable-background:new 0 0 29 28.7;" xml:space="preserve">
<style type="text/css">
	.st0{opacity:0.4;}
	.st1{fill:#A9C6EA;}
</style>
<g id="XMLID_2934_" class="st0">
	<path id="XMLID_2938_" class="st1" d="M13.5,12.8h-6c-1.1,0-2,0.9-2,2v6c0,1.1,0.9,2,2,2h6c1.1,0,2-0.9,2-2v-6
		C15.5,13.7,14.6,12.8,13.5,12.8z M13.5,20.8h-6v-6h6L13.5,20.8z"/>
	<path id="XMLID_2937_" class="st1" d="M7.5,6.8h5v-2h-5c-1.1,0-2,0.9-2,2v4h2V6.8z"/>
	<path id="XMLID_2936_" class="st1" d="M21.5,4.8h-5v2h5v5h2v-5C23.5,5.7,22.6,4.8,21.5,4.8z"/>
	<path id="XMLID_2935_" class="st1" d="M21.5,20.8h-4v2h4c1.1,0,2-0.9,2-2v-5h-2V20.8z"/>
</g>
</svg>
