<?xml version="1.0" encoding="utf-8"?>
<!-- Generator: Adobe Illustrator 19.0.0, SVG Export Plug-In . SVG Version: 6.00 Build 0)  -->
<svg version="1.1" id="Layer_1" xmlns="http://www.w3.org/2000/svg" xmlns:xlink="http://www.w3.org/1999/xlink" x="0px" y="0px"
	 viewBox="0 0 29 28.7" style="enable-background:new 0 0 29 28.7;" xml:space="preserve">
<style type="text/css">
	.st0{opacity:0.4;}
	.st1{fill:#A9C6EA;}
</style>
<g id="XMLID_2822_" class="st0">
	<g id="XMLID_2931_">
		<g id="XMLID_2932_">
			<polygon id="XMLID_2933_" class="st1" points="16.9,16.6 13.5,14.3 13.5,9.8 15.5,9.8 15.5,13.3 18.1,15 			"/>
		</g>
	</g>
	<path id="XMLID_2825_" class="st1" d="M20,8.1l-1.8-6.2h-7.5L9,8.1c-1.5,1.5-2.5,3.5-2.5,5.8s0.9,4.3,2.5,5.8l1.8,6.2h7.5l1.8-6.2
		c1.5-1.5,2.5-3.5,2.5-5.8S21.6,9.5,20,8.1z M12.3,3.8h4.5l0.7,2.6c-0.9-0.4-1.9-0.6-3-0.6s-2.1,0.2-3,0.6L12.3,3.8z M16.7,23.8
		h-4.5l-0.7-2.6c0.9,0.4,1.9,0.6,3,0.6s2.1-0.2,3-0.6L16.7,23.8z M14.5,19.8c-3.3,0-6-2.7-6-6c0-3.3,2.7-6,6-6s6,2.7,6,6
		C20.5,17.1,17.8,19.8,14.5,19.8z"/>
</g>
</svg>
