<?xml version="1.0" encoding="utf-8"?>
<!-- Generator: Adobe Illustrator 19.0.0, SVG Export Plug-In . SVG Version: 6.00 Build 0)  -->
<svg version="1.1" id="Layer_1" xmlns="http://www.w3.org/2000/svg" xmlns:xlink="http://www.w3.org/1999/xlink" x="0px" y="0px"
	 viewBox="0 0 29 28.7" style="enable-background:new 0 0 29 28.7;" xml:space="preserve">
<style type="text/css">
	.st0{opacity:0.4;}
	.st1{fill:#A9C6EA;}
</style>
<g id="XMLID_746_" class="st0">
	<path id="XMLID_749_" class="st1" d="M10,11.3v-2h3v-2H9c-0.6,0-1,0.4-1,1v2H7v-4h7v3h2v-3h5v1h-4v2h4v3h2v-7c0-0.6-0.4-1-1-1H6
		c-0.6,0-1,0.4-1,1v6c0,0.6,0.4,1,1,1h3C9.6,12.3,10,11.9,10,11.3z"/>
	<path id="XMLID_748_" class="st1" d="M23,23.3v-7h-2v6h-5v-4h2v1h-1v2h2c0.6,0,1-0.4,1-1v-3c0-0.6-0.4-1-1-1h-3v-3h-2v9h-4v-2H8v2
		H7v-3h4v2h2v-3c0-0.6-0.4-1-1-1H7v-1H5v7c0,0.6,0.4,1,1,1h16C22.6,24.3,23,23.9,23,23.3z"/>
	<path id="XMLID_747_" class="st1" d="M13,14.3v-2h4v2c0,0.6,0.4,1,1,1h6v2l3-3l-3-3v2h-5v-2c0-0.6-0.4-1-1-1h-6c-0.6,0-1,0.4-1,1v2
		H3v2h9C12.6,15.3,13,14.9,13,14.3z"/>
</g>
</svg>
