<?xml version="1.0" encoding="utf-8"?>
<!-- Generator: Adobe Illustrator 19.0.0, SVG Export Plug-In . SVG Version: 6.00 Build 0)  -->
<svg version="1.1" id="Layer_1" xmlns="http://www.w3.org/2000/svg" xmlns:xlink="http://www.w3.org/1999/xlink" x="0px" y="0px"
	 viewBox="0 0 29 28.7" style="enable-background:new 0 0 29 28.7;" xml:space="preserve">
<style type="text/css">
	.st0{opacity:0.4;}
	.st1{fill:#A9C6EA;}
</style>
<g id="XMLID_730_" class="st0">
	<g id="XMLID_740_">
		<path id="XMLID_742_" class="st1" d="M14.5,25.8c-9.9,0-10-16.3-10-17C4.5,8.5,4.7,8.1,5,8l9-5c0.3-0.2,0.7-0.2,1,0l9,5
			c0.3,0.2,0.5,0.5,0.5,0.9C24.5,9.5,24.4,25.8,14.5,25.8z M6.5,9.4c0.1,2.8,1,14.4,8,14.4s7.9-11.7,8-14.4l-8-4.4L6.5,9.4z"/>
	</g>
	<g id="XMLID_737_">
		<polygon id="XMLID_739_" class="st1" points="14.8,19.7 9.8,15.8 11.3,13.8 14.2,16 18.4,9.2 20.6,10.5 		"/>
	</g>
</g>
</svg>
