<?xml version="1.0" encoding="utf-8"?>
<!-- Generator: Adobe Illustrator 19.0.0, SVG Export Plug-In . SVG Version: 6.00 Build 0)  -->
<svg version="1.1" id="Layer_1" xmlns="http://www.w3.org/2000/svg" xmlns:xlink="http://www.w3.org/1999/xlink" x="0px" y="0px"
	 viewBox="0 0 29 28.7" style="enable-background:new 0 0 29 28.7;" xml:space="preserve">
<style type="text/css">
	.st0{opacity:0.41;fill:#A9C6EA;}
</style>
<path id="XMLID_713_" class="st0" d="M22.5,4.3h-16c-1.1,0-2,0.9-2,2v10c0,1.1,0.9,2,2,2h5.6l-6,6h2.8l4.6-4.6v4.6h2v-4.6l4.6,4.6
	h2.8l-6-6h5.6c1.1,0,2-0.9,2-2v-10C24.5,5.2,23.6,4.3,22.5,4.3z M22.5,6.3v0.6l-5,5l-1.3-1.3c-0.4-0.4-1-0.4-1.4,0l-1.3,1.3
	l-2.3-2.3c-0.4-0.4-1-0.4-1.4,0l-1.7,1.7H6.5v-5H22.5z M6.5,16.3v-3h2c0.3,0,0.5-0.1,0.7-0.3l1.3-1.3l2.3,2.3c0.4,0.4,1,0.4,1.4,0
	l1.3-1.3l1.3,1.3c0.2,0.2,0.5,0.3,0.7,0.3c0.3,0,0.5-0.1,0.7-0.3l4.3-4.3l0,6.6H6.5z"/>
</svg>
