<?xml version="1.0" encoding="utf-8"?>
<!-- Generator: Adobe Illustrator 19.0.0, SVG Export Plug-In . SVG Version: 6.00 Build 0)  -->
<svg version="1.1" id="Layer_1" xmlns="http://www.w3.org/2000/svg" xmlns:xlink="http://www.w3.org/1999/xlink" x="0px" y="0px"
	 viewBox="0 0 1128.2 622.6" style="enable-background:new 0 0 1128.2 622.6;" xml:space="preserve">
<style type="text/css">
	.st0{opacity:0.38;fill:none;stroke:#CDEEF7;stroke-width:0.5;stroke-miterlimit:10;}
	.st1{opacity:0.5;}
	.st2{enable-background:new    ;}
	.st3{fill:#D2F1F9;}
	.st4{fill:#173F6C;}
	.st5{opacity:0.3804;fill:#CDEEF7;}
	.st6{fill:#5C82A1;}
	.st7{opacity:0.43;}
	.st8{fill:#CDEEF7;}
	.st9{fill:none;stroke:#CDEEF7;stroke-width:0.4554;stroke-miterlimit:10;}
	.st10{opacity:0.27;}
	.st11{fill:#FFFFFF;}
	.st12{opacity:0.69;}
	.st13{fill:none;stroke:#FFFFFF;stroke-width:0.7615;stroke-miterlimit:10;}
	.st14{fill:#63D2F3;}
	.st15{fill:none;stroke:#FFFFFF;stroke-width:0.9107;stroke-miterlimit:10;}
	.st16{opacity:0.38;}
	.st17{fill:none;stroke:#CDEEF7;stroke-width:0.5439;stroke-miterlimit:10;}
	.st18{fill:none;stroke:#CDEEF7;stroke-width:0.5439;stroke-miterlimit:10;stroke-dasharray:5.2519,5.2519;}
	.st19{fill:none;stroke:#FFFFFF;stroke-width:0.7615;stroke-miterlimit:10;stroke-dasharray:2.2029;}
	.st20{fill:none;stroke:#FFFFFF;stroke-width:0.7615;stroke-miterlimit:10;stroke-dasharray:4.7376;}
	.st21{fill:none;stroke:#FFFFFF;stroke-width:0.7615;stroke-miterlimit:10;stroke-dasharray:4.6015;}
	.st22{fill:none;stroke:#FFFFFF;stroke-width:0.7615;stroke-miterlimit:10;stroke-dasharray:2.4004;}
	.st23{fill:none;stroke:#FFFFFF;stroke-width:0.7615;stroke-miterlimit:10;stroke-dasharray:5.6761,5.6761;}
	.st24{fill:none;stroke:#FFFFFF;stroke-width:0.7615;stroke-miterlimit:10;stroke-dasharray:5.4173,5.4173;}
	.st25{fill:none;stroke:#FFFFFF;stroke-width:0.7615;stroke-miterlimit:10;stroke-dasharray:4.3854;}
	.st26{fill:none;stroke:#FFFFFF;stroke-width:0.7615;stroke-miterlimit:10;stroke-dasharray:0.1538;}
	.st27{fill:none;stroke:#FFFFFF;stroke-width:0.7615;stroke-miterlimit:10;stroke-dasharray:5.6712,5.6712;}
	.st28{fill:none;stroke:#FFFFFF;stroke-width:0.7615;stroke-miterlimit:10;stroke-dasharray:3.3489;}
	.st29{fill:none;stroke:#FFFFFF;stroke-width:0.7615;stroke-miterlimit:10;stroke-dasharray:5.4131,5.4131;}
	.st30{fill:none;stroke:#FFFFFF;stroke-width:0.7615;stroke-miterlimit:10;stroke-dasharray:3.3394;}
	.st31{fill:none;stroke:#FFFFFF;stroke-width:0.7615;stroke-miterlimit:10;stroke-dasharray:1.903;}
	.st32{fill:none;stroke:#FFFFFF;stroke-width:0.7615;stroke-miterlimit:10;stroke-dasharray:3.3488;}
	.st33{fill:none;stroke:#FFFFFF;stroke-width:0.7615;stroke-miterlimit:10;stroke-dasharray:4.8872,4.8872;}
	.st34{fill:none;stroke:#FFFFFF;stroke-width:0.7615;stroke-miterlimit:10;stroke-dasharray:5.6797,5.6797;}
	.st35{fill:none;stroke:#FFFFFF;stroke-width:0.7615;stroke-miterlimit:10;stroke-dasharray:3.3261;}
	.st36{fill:none;stroke:#FFFFFF;stroke-width:0.7615;stroke-miterlimit:10;stroke-dasharray:2.347;}
	.st37{fill:none;stroke:#FFFFFF;stroke-width:0.7615;stroke-miterlimit:10;stroke-dasharray:5.1142;}
	.st38{fill:none;stroke:#FFFFFF;stroke-width:0.7615;stroke-miterlimit:10;stroke-dasharray:3.3484;}
	.st39{fill:none;stroke:#FFFFFF;stroke-width:0.7615;stroke-miterlimit:10;stroke-dasharray:2.4448;}
	.st40{fill:none;}
	.st41{fill:none;stroke:#FFFFFF;stroke-width:0.7615;stroke-miterlimit:10;stroke-dasharray:3.3396;}
	.st42{fill:none;stroke:#FFFFFF;stroke-width:0.7615;stroke-miterlimit:10;stroke-dasharray:3.3056;}
	.st43{fill:none;stroke:#FFFFFF;stroke-width:0.7615;stroke-miterlimit:10;stroke-dasharray:3.3231;}
	.st44{fill:none;stroke:#FFFFFF;stroke-width:0.7615;stroke-miterlimit:10;stroke-dasharray:4.851,4.851;}
	.st45{fill:none;stroke:#FFFFFF;stroke-width:0.7615;stroke-miterlimit:10;stroke-dasharray:2.4144;}
	.st46{fill:none;stroke:#FFFFFF;stroke-width:0.7615;stroke-miterlimit:10;stroke-dasharray:2.406;}
	.st47{fill:none;stroke:#FFFFFF;stroke-width:0.7615;stroke-miterlimit:10;stroke-dasharray:3.3581;}
	.st48{fill:none;stroke:#FFFFFF;stroke-width:0.7615;stroke-miterlimit:10;stroke-dasharray:3.2027;}
</style>
<polyline id="XMLID_1477_" class="st0" points="824.1,340.5 1034.5,462.1 1034.5,502.7 1069,522.7 "/>
<polyline id="XMLID_1476_" class="st0" points="965.2,382.5 1069.2,442.1 1069.2,482.5 1138.7,522.7 "/>
<polyline id="XMLID_1475_" class="st0" points="653,342.1 791.9,422.1 774.5,432.1 774.5,492.2 965.2,602.2 1034.5,602.2 
	1130.2,657.2 "/>
<polyline id="XMLID_1474_" class="st0" points="965.2,542.6 930.7,522.7 930.2,482.7 861.2,442.5 "/>
<line id="XMLID_1473_" class="st0" x1="826.5" y1="462.5" x2="895.8" y2="502.6"/>
<g id="XMLID_1469_" class="st1">
	<g id="XMLID_1470_" class="st2">
		<g id="XMLID_1471_">
			<path id="XMLID_1472_" class="st3" d="M863.1,441.5c-1.1-0.6-2.9-0.6-3.9,0c-1.1,0.6-1.1,1.7,0,2.3c1.1,0.6,2.9,0.6,3.9,0
				C864.2,443.2,864.2,442.2,863.1,441.5"/>
		</g>
	</g>
</g>
<g id="XMLID_1465_" class="st1">
	<g id="XMLID_1466_" class="st2">
		<g id="XMLID_1467_">
			<path id="XMLID_1468_" class="st3" d="M967.1,541.6c-1.1-0.6-2.9-0.6-3.9,0c-1.1,0.6-1.1,1.7,0,2.3c1.1,0.6,2.9,0.6,3.9,0
				C968.2,543.3,968.2,542.2,967.1,541.6"/>
		</g>
	</g>
</g>
<g id="XMLID_1461_" class="st1">
	<g id="XMLID_1462_" class="st2">
		<g id="XMLID_1463_">
			<path id="XMLID_1464_" class="st3" d="M897.8,501.4c-1.1-0.6-2.9-0.6-3.9,0c-1.1,0.6-1.1,1.7,0,2.3c1.1,0.6,2.9,0.6,3.9,0
				C898.9,503.1,898.9,502,897.8,501.4"/>
		</g>
	</g>
</g>
<g id="XMLID_1457_" class="st1">
	<g id="XMLID_1458_" class="st2">
		<g id="XMLID_1459_">
			<path id="XMLID_1460_" class="st3" d="M828.8,461.4c-1.1-0.6-2.9-0.6-3.9,0c-1.1,0.6-1.1,1.7,0,2.3c1.1,0.6,2.9,0.6,3.9,0
				C829.9,463,829.9,462,828.8,461.4"/>
		</g>
	</g>
</g>
<g id="XMLID_1453_" class="st1">
	<g id="XMLID_1454_" class="st2">
		<g id="XMLID_1455_">
			<path id="XMLID_1456_" class="st3" d="M967.1,381.3c-1.1-0.6-2.9-0.6-3.9,0c-1.1,0.6-1.1,1.7,0,2.3c1.1,0.6,2.9,0.6,3.9,0
				C968.2,383,968.2,382,967.1,381.3"/>
		</g>
	</g>
</g>
<g id="XMLID_1449_" class="st1">
	<g id="XMLID_1450_" class="st2">
		<g id="XMLID_1451_">
			<path id="XMLID_1452_" class="st3" d="M1070.9,521.5c-1.1-0.6-2.9-0.6-3.9,0c-1.1,0.6-1.1,1.7,0,2.3c1.1,0.6,2.9,0.6,3.9,0
				C1072,523.2,1072,522.2,1070.9,521.5"/>
		</g>
	</g>
</g>
<g id="XMLID_1445_" class="st1">
	<g id="XMLID_1446_" class="st2">
		<g id="XMLID_1447_">
			<path id="XMLID_1448_" class="st3" d="M826.1,339.3c-1.1-0.6-2.9-0.6-3.9,0c-1.1,0.6-1.1,1.7,0,2.3c1.1,0.6,2.9,0.6,3.9,0
				C827.1,341,827.1,340,826.1,339.3"/>
		</g>
	</g>
</g>
<g id="XMLID_1441_" class="st1">
	<g id="XMLID_1442_" class="st2">
		<g id="XMLID_1443_">
			<path id="XMLID_1444_" class="st3" d="M655,341c-1.1-0.6-2.9-0.6-3.9,0c-1.1,0.6-1.1,1.7,0,2.3c1.1,0.6,2.9,0.6,3.9,0
				C656.1,342.6,656.1,341.6,655,341"/>
		</g>
	</g>
</g>
<polyline id="XMLID_1440_" class="st0" points="590.7,301.9 638.1,274.7 965.2,462.5 965.2,502.6 1173.2,622.6 "/>
<g id="XMLID_2330_">
	<g id="XMLID_2331_" class="st2">
		<g id="XMLID_2332_">
			<path id="XMLID_2342_" class="st4" d="M618.1,326l-66.9-38.7l-91.1,14.1l-24.1,52.8l66.9,38.7l91.1-14.1L618.1,326 M435.4,354.3
				L435.4,354.3l24.3-53.1l0.1,0l91.5-14.2l67.3,38.9l0,0.1l-24.2,53l-0.1,0l-91.5,14.2L435.4,354.3 M629.3,324.2l-75.2-43.4
				l-102.3,15.9L424.7,356l75.2,43.4l102.3-15.9L629.3,324.2"/>
			<path id="XMLID_2339_" class="st5" d="M424.5,356l27.2-59.4l102.5-15.9l75.4,43.5l-27.2,59.4l-102.5,15.9L424.5,356 M629.8,324.1
				l-75.6-43.6l-102.7,15.9l-0.1,0L424.2,356l0,0.1l75.6,43.6l102.7-15.9l0.1,0L629.8,324.1L629.8,324.1"/>
			<path id="XMLID_2336_" class="st6" d="M424.7,356l27.1-59.3l102.3-15.9l75.2,43.4l-27.1,59.3l-102.3,15.9L424.7,356 M629.6,324.2
				l-75.4-43.5l-102.5,15.9L424.5,356l75.4,43.5l102.5-15.9L629.6,324.2"/>
			<path id="XMLID_2333_" class="st6" d="M435.9,354.3l24.1-52.8l91.1-14.1l66.9,38.7L594,378.8l-91.1,14.1L435.9,354.3
				 M618.6,325.9L551.3,287l-91.5,14.2l-0.1,0l-24.2,53l0,0.1l67.3,38.9l91.5-14.2l0.1,0L618.6,325.9L618.6,325.9"/>
		</g>
	</g>
</g>
<g id="XMLID_2323_">
	<g id="XMLID_2324_">
		<g id="XMLID_2326_" class="st7">
			<g id="XMLID_2327_" class="st2">
				<g id="XMLID_2328_">
					<path id="XMLID_2329_" class="st8" d="M593.5,300.2c-1.9-1.1-5-1.1-7,0c-1.9,1.1-1.9,2.9,0,4c1.9,1.1,5,1.1,7,0
						C595.5,303.1,595.5,301.3,593.5,300.2"/>
				</g>
			</g>
		</g>
		<path id="XMLID_2325_" class="st9" d="M594.4,299.7c-2.4-1.4-6.4-1.4-8.8,0c-2.4,1.4-2.4,3.7,0,5.1s6.3,1.4,8.8,0
			C596.9,303.4,596.9,301.1,594.4,299.7z"/>
	</g>
</g>
<g id="XMLID_2319_" class="st1">
	<g id="XMLID_2320_" class="st2">
		<g id="XMLID_2321_">
			<path id="XMLID_2322_" class="st3" d="M591.9,301.2c-1-0.6-2.6-0.6-3.6,0c-1,0.6-1,1.5,0,2.1c1,0.6,2.6,0.6,3.6,0
				C592.9,302.7,592.9,301.8,591.9,301.2"/>
		</g>
	</g>
</g>
<g id="XMLID_2267_">
	<g id="XMLID_2316_" class="st10">
		<g id="XMLID_2317_">
			<path id="XMLID_2318_" class="st11" d="M525.8,376.4c-0.5,0.3-1.3,0.3-2.1-0.2h-0.1l-57.2-33.1l-1.6-0.9
				c-0.9-0.5-1.7-1.4-2.3-2.4c-0.5-1-0.9-2.1-0.9-3.2v-20.1c0-1,0.3-1.7,0.9-2.1l4.5-2.5l-2.2-1.3c-0.9-0.5-1.7-1.4-2.3-2.4
				c-0.5-1-0.9-2.1-0.9-3.2v-20c0-1,0.3-1.7,0.9-2.1l65.7-38c0.9-0.4,1.4-0.2,2.3,0.2l58.7,33.9c1.1,0.7,1.7,1.3,2.3,2.4
				s0.9,1.8,1,3.2v20.1c-0.1,0.9-0.3,1.5-1,2.1l-4.4,2.5l2.1,1.3c1,0.7,1.7,1.3,2.3,2.4s0.9,2,1,3.2v20c-0.1,0.9-0.3,1.5-1,2.1
				l-3.9,2.3L525.8,376.4z"/>
		</g>
	</g>
	<g id="Server_10_" class="st12">
		<path id="XMLID_2315_" class="st13" d="M462.4,314.5c0.1-0.1,0.3-0.1,0.4-0.1c0.5-0.1,1.1,0,1.8,0.4"/>
		<polyline id="XMLID_2314_" class="st13" points="464.7,314.7 490.2,329.4 523.5,348.8 		"/>
		<polyline id="XMLID_2313_" class="st13" points="525.8,351.2 565.6,328.1 591.5,313.2 		"/>
		<path id="XMLID_2312_" class="st13" d="M461.6,316.6c0-1,0.3-1.7,0.9-2.1s1.4-0.3,2.3,0.2"/>
		<path id="XMLID_2311_" class="st13" d="M526.7,374.3c0,1-0.3,1.7-1,2.1c-0.5,0.3-1.3,0.3-2.1-0.2"/>
		<polygon id="XMLID_2310_" class="st13" points="470.7,336.4 465.2,333.1 465.2,326.6 470.7,329.8 		"/>
		<polygon id="XMLID_2309_" class="st13" points="480.3,341.9 474.6,338.5 474.6,332 480.3,335.3 		"/>
		<path id="XMLID_2308_" class="st13" d="M461.6,285.1c0-1,0.3-1.7,0.9-2.1s1.4-0.3,2.3,0.2"/>
		<path id="XMLID_2307_" class="st13" d="M526.7,342.8c0,1-0.3,1.7-1,2.1c-0.5,0.3-1.3,0.3-2.1-0.2"/>
		<polygon id="XMLID_2306_" class="st13" points="470.7,304.9 465.2,301.7 465.2,295 470.7,298.4 		"/>
		<polygon id="XMLID_2305_" class="st13" points="480.3,310.4 474.6,307.1 474.6,300.5 480.3,303.8 		"/>
		<line id="XMLID_2304_" class="st13" x1="466.9" y1="312" x2="462.4" y2="314.5"/>
		<path id="XMLID_2303_" class="st13" d="M523.5,348.8c1,0.5,1.7,1.4,2.3,2.4"/>
		<path id="XMLID_2302_" class="st13" d="M591.5,313.2c-0.5-1.1-1.3-1.7-2.3-2.4"/>
		<line id="XMLID_2301_" class="st13" x1="589.2" y1="310.8" x2="587.1" y2="309.5"/>
		<line id="XMLID_2300_" class="st13" x1="525.8" y1="351" x2="525.8" y2="351"/>
		<path id="XMLID_2299_" class="st13" d="M525.8,351c0.7,1,1,2.1,1,3.2"/>
		<line id="XMLID_2298_" class="st13" x1="526.7" y1="354.2" x2="526.7" y2="374.3"/>
		<line id="XMLID_2297_" class="st13" x1="523.6" y1="376.2" x2="464.7" y2="342.2"/>
		<path id="XMLID_2296_" class="st13" d="M464.7,342.2c-0.9-0.5-1.7-1.4-2.3-2.4"/>
		<line id="XMLID_2295_" class="st13" x1="462.4" y1="339.8" x2="462.4" y2="339.8"/>
		<path id="XMLID_2294_" class="st13" d="M462.4,339.8c-0.5-1-0.9-2.1-0.9-3.2"/>
		<line id="XMLID_2293_" class="st13" x1="461.6" y1="336.7" x2="461.6" y2="316.6"/>
		<path id="XMLID_2292_" class="st13" d="M591.5,313.2c0.5,1.1,0.9,2,1,3.2"/>
		<line id="XMLID_2291_" class="st13" x1="592.4" y1="316.3" x2="592.4" y2="336.4"/>
		<path id="XMLID_2290_" class="st13" d="M592.4,336.4c-0.1,0.9-0.3,1.5-1,2.1"/>
		<line id="XMLID_2289_" class="st13" x1="591.5" y1="338.4" x2="525.8" y2="376.4"/>
		<path id="XMLID_2288_" class="st13" d="M525.8,376.4c0.9-0.5,1-1.2,1-2.1"/>
		<line id="XMLID_2287_" class="st13" x1="462.4" y1="283.1" x2="528.1" y2="245.1"/>
		<path id="XMLID_2286_" class="st13" d="M528.1,245.1c0.9-0.4,1.4-0.2,2.3,0.2"/>
		<line id="XMLID_2285_" class="st13" x1="530.4" y1="245.3" x2="589.2" y2="279.2"/>
		<path id="XMLID_2284_" class="st13" d="M589.2,279.2c1.1,0.7,1.7,1.3,2.3,2.4"/>
		<line id="XMLID_2283_" class="st13" x1="591.5" y1="281.6" x2="525.8" y2="319.6"/>
		<path id="XMLID_2282_" class="st13" d="M525.8,319.6c-0.5-1.1-1.1-1.7-2.1-2.4"/>
		<line id="XMLID_2281_" class="st13" x1="523.6" y1="317.2" x2="464.7" y2="283.3"/>
		<path id="XMLID_2280_" class="st13" d="M525.8,319.6c0.7,1,1,2.1,1,3.2"/>
		<line id="XMLID_2279_" class="st13" x1="526.7" y1="322.8" x2="526.7" y2="342.8"/>
		<line id="XMLID_2278_" class="st13" x1="523.6" y1="344.6" x2="464.7" y2="310.7"/>
		<path id="XMLID_2277_" class="st13" d="M464.7,310.7c-0.9-0.5-1.7-1.4-2.3-2.4"/>
		<path id="XMLID_2276_" class="st13" d="M462.4,308.3c-0.5-1-0.9-2.1-0.9-3.2"/>
		<line id="XMLID_2275_" class="st13" x1="461.6" y1="305.1" x2="461.6" y2="285.1"/>
		<path id="XMLID_2274_" class="st13" d="M591.5,281.6c0.5,1.1,0.9,1.8,1,3.2"/>
		<line id="XMLID_2273_" class="st13" x1="592.4" y1="284.8" x2="592.4" y2="304.9"/>
		<path id="XMLID_2272_" class="st13" d="M592.4,304.9c-0.1,0.9-0.3,1.5-1,2.1"/>
		<line id="XMLID_2271_" class="st13" x1="591.5" y1="307" x2="525.8" y2="344.8"/>
		<path id="XMLID_2270_" class="st13" d="M525.8,344.8c0.9-0.5,1-1.2,1-2.1"/>
		<line id="XMLID_2269_" class="st13" x1="521" y1="329.5" x2="485.6" y2="309.1"/>
		<line id="XMLID_2268_" class="st13" x1="521" y1="360.9" x2="485.6" y2="340.5"/>
	</g>
</g>
<g id="XMLID_2240_">
	<g id="XMLID_2264_" class="st10">
		<g id="XMLID_2265_">
			<path id="XMLID_2266_" class="st14" d="M525.8,195.4c-0.5,0.3-1.3,0.3-2.1-0.2h-0.1l-56.7-32.6l-2.2-1.3
				c-0.9-0.5-1.7-1.4-2.3-2.4s-0.9-2.1-0.9-3.2v-20c0-1,0.3-1.7,0.9-2.1l65.7-38c0.9-0.4,1.4-0.2,2.3,0.2l58.7,33.9
				c1.1,0.7,1.7,1.3,2.3,2.4c0.5,1.1,0.9,1.8,1,3.2v20.1c-0.1,0.9-0.3,1.5-1,2.1l-4.4,2.5L525.8,195.4z"/>
		</g>
	</g>
	<g id="Server_9_" class="st12">
		<path id="XMLID_2263_" class="st13" d="M461.6,135.7c0-1,0.3-1.7,0.9-2.1c0.5-0.3,1.4-0.3,2.3,0.2"/>
		<path id="XMLID_2262_" class="st13" d="M526.7,193.4c0,1-0.3,1.7-1,2.1c-0.5,0.3-1.3,0.3-2.1-0.2"/>
		<polygon id="XMLID_2261_" class="st13" points="470.7,155.5 465.2,152.3 465.2,145.6 470.7,149 		"/>
		<polygon id="XMLID_2260_" class="st13" points="480.3,161 474.6,157.7 474.6,151.1 480.3,154.4 		"/>
		<line id="XMLID_2259_" class="st13" x1="462.4" y1="133.7" x2="528.1" y2="95.7"/>
		<path id="XMLID_2258_" class="st13" d="M528.1,95.7c0.9-0.4,1.4-0.2,2.3,0.2"/>
		<line id="XMLID_2257_" class="st13" x1="530.4" y1="95.9" x2="589.2" y2="129.8"/>
		<path id="XMLID_2256_" class="st13" d="M589.2,129.8c1.1,0.7,1.7,1.3,2.3,2.4"/>
		<line id="XMLID_2255_" class="st13" x1="591.5" y1="132.2" x2="525.8" y2="170.2"/>
		<path id="XMLID_2254_" class="st13" d="M525.8,170.2c-0.5-1.1-1.1-1.7-2.1-2.4"/>
		<line id="XMLID_2253_" class="st13" x1="523.6" y1="167.8" x2="464.7" y2="133.9"/>
		<path id="XMLID_2252_" class="st13" d="M525.8,170.2c0.7,1,1,2.1,1,3.2"/>
		<line id="XMLID_2251_" class="st13" x1="526.7" y1="173.4" x2="526.7" y2="193.4"/>
		<line id="XMLID_2250_" class="st13" x1="523.6" y1="195.2" x2="464.7" y2="161.3"/>
		<path id="XMLID_2249_" class="st13" d="M464.7,161.3c-0.9-0.5-1.7-1.4-2.3-2.4"/>
		<path id="XMLID_2248_" class="st13" d="M462.4,158.9c-0.5-1-0.9-2.1-0.9-3.2"/>
		<line id="XMLID_2247_" class="st13" x1="461.6" y1="155.7" x2="461.6" y2="135.7"/>
		<path id="XMLID_2246_" class="st13" d="M591.5,132.2c0.5,1.1,0.9,1.8,1,3.2"/>
		<line id="XMLID_2245_" class="st13" x1="592.4" y1="135.4" x2="592.4" y2="155.5"/>
		<path id="XMLID_2244_" class="st13" d="M592.4,155.5c-0.1,0.9-0.3,1.5-1,2.1"/>
		<line id="XMLID_2243_" class="st13" x1="591.5" y1="157.6" x2="525.8" y2="195.4"/>
		<path id="XMLID_2242_" class="st13" d="M525.8,195.4c0.9-0.5,1-1.2,1-2.1"/>
		<line id="XMLID_2241_" class="st13" x1="521" y1="180.1" x2="485.6" y2="159.7"/>
	</g>
</g>
<polyline id="XMLID_2237_" class="st15" points="561.6,126.7 589.2,99.1 690.5,99.1 "/>
<g id="XMLID_463_">
	<g id="XMLID_756_">
		<path id="XMLID_786_" class="st11" d="M601.6,49.5h3.3v8c0,1.6,0.8,2.5,2.3,2.5c1.5,0,2.4-0.9,2.4-2.5v-8h3.3v8
			c0,3.7-2.6,5.5-5.7,5.5c-3.1,0-5.5-1.8-5.5-5.5V49.5z M603.9,46.9c0-0.8,0.6-1.4,1.4-1.4c0.8,0,1.4,0.6,1.4,1.4
			c0,0.8-0.6,1.4-1.4,1.4C604.5,48.3,603.9,47.7,603.9,46.9z M607.7,46.9c0-0.8,0.6-1.4,1.4-1.4c0.8,0,1.4,0.6,1.4,1.4
			c0,0.8-0.6,1.4-1.4,1.4C608.4,48.3,607.7,47.7,607.7,46.9z"/>
		<path id="XMLID_784_" class="st11" d="M624.4,52l-5.8,8.3h5.8v2.7h-9.5v-2.5l5.7-8.3h-5.7v-2.7h9.5V52z"/>
		<path id="XMLID_782_" class="st11" d="M634.8,52.1h-5v2.7h4.4v2.5h-4.4v2.9h5v2.6h-8.2V49.5h8.2V52.1z"/>
		<path id="XMLID_780_" class="st11" d="M636.9,49.5h3.9l3.8,9.3l3.7-9.3h3.8v13.4h-3.3v-8l-3,8h-2.6l-3-8.1v8.1h-3.3V49.5z"/>
		<path id="XMLID_776_" class="st11" d="M660.7,62.9h-6.3V49.5h6c2.7,0,4.4,1.4,4.4,3.5c0,1.6-1,2.7-2.3,3.1
			c1.6,0.3,2.6,1.7,2.6,3.2C665.2,61.5,663.5,62.9,660.7,62.9z M659.9,52.1h-2.1v2.8h2.1c1.1,0,1.7-0.5,1.7-1.4
			C661.5,52.6,661,52.1,659.9,52.1z M660.1,57.3h-2.4v3h2.4c1.1,0,1.7-0.5,1.7-1.5S661.2,57.3,660.1,57.3z"/>
		<path id="XMLID_774_" class="st11" d="M675.3,52.1h-5v2.7h4.4v2.5h-4.4v2.9h5v2.6h-8.2V49.5h8.2V52.1z"/>
		<path id="XMLID_772_" class="st11" d="M610,80.4H605v5.5h-3.3V72.5h3.3v5.3h5.1v-5.3h3.3v13.4H610V80.4z"/>
		<path id="XMLID_770_" class="st11" d="M623.9,75.1h-5v2.7h4.4v2.5h-4.4v2.9h5v2.6h-8.2V72.5h8.2V75.1z"/>
		<path id="XMLID_768_" class="st11" d="M629.3,72.5v10.9h4.3v2.5H626V72.5H629.3z"/>
		<path id="XMLID_766_" class="st11" d="M634.1,72.5h3.7l2.6,5.6l2.6-5.6h3.7l-4.6,9v4.4h-3.3v-4.4L634.1,72.5z"/>
		<path id="XMLID_764_" class="st11" d="M656.2,75.1h-5v2.7h4.4v2.5h-4.4v2.9h5v2.6H648V72.5h8.2V75.1z"/>
		<path id="XMLID_762_" class="st11" d="M667.6,75l-5.8,8.3h5.8v2.7h-9.5v-2.5l5.7-8.3h-5.7v-2.7h9.5V75z"/>
		<path id="XMLID_759_" class="st11" d="M677.9,75.1h-5v2.7h4.4v2.5H673v2.9h5v2.6h-8.2V72.5h8.2V75.1z M676,67.2v2.5l-4.6,1.9v-2.3
			L676,67.2z"/>
		<path id="XMLID_757_" class="st11" d="M684.9,86c-2.9,0-5.1-1.4-5.2-4.1h3.5c0.1,1,0.7,1.5,1.7,1.5c1,0,1.6-0.5,1.6-1.3
			c0-2.5-6.7-1.1-6.7-5.9c0-2.5,2.1-4,4.9-4c2.9,0,4.9,1.5,5,4h-3.5c-0.1-0.9-0.7-1.4-1.5-1.4c-0.8,0-1.4,0.4-1.4,1.2
			c0,2.3,6.6,1.3,6.6,5.8C689.8,84.1,688,86,684.9,86z"/>
	</g>
</g>
<g id="XMLID_2216_">
	<g id="XMLID_2217_" class="st2">
		<g id="XMLID_2218_">
			<path id="XMLID_2228_" class="st4" d="M424.7,295.5l-66.9-38.7L266.7,271l-24.1,52.8l66.9,38.7l91.1-14.1L424.7,295.5
				 M242.1,323.9L242.1,323.9l24.3-53.1l0.1,0l91.5-14.2l67.3,38.9l0,0.1l-24.2,53l-0.1,0l-91.5,14.2L242.1,323.9 M435.9,293.7
				l-75.2-43.4l-102.3,15.9l-27.1,59.3l75.2,43.4L408.8,353L435.9,293.7"/>
			<path id="XMLID_2225_" class="st5" d="M231.1,325.6l27.2-59.4l102.5-15.9l75.4,43.5l-27.2,59.4l-102.5,15.9L231.1,325.6
				 M436.5,293.7L360.9,250L258.2,266l-0.1,0l-27.2,59.5l0,0.1l75.6,43.6l102.7-15.9l0.1,0L436.5,293.7L436.5,293.7"/>
			<path id="XMLID_2222_" class="st6" d="M231.4,325.5l27.1-59.3l102.3-15.9l75.2,43.4L408.8,353l-102.3,15.9L231.4,325.5
				 M436.2,293.7l-75.4-43.5l-102.5,15.9l-27.2,59.4l75.4,43.5l102.5-15.9L436.2,293.7"/>
			<path id="XMLID_2219_" class="st6" d="M242.6,323.8l24.1-52.8l91.1-14.1l66.9,38.7l-24.1,52.8l-91.1,14.1L242.6,323.8
				 M425.3,295.4l-67.3-38.9l-91.5,14.2l-0.1,0l-24.2,53l0,0.1l67.3,38.9l91.5-14.2l0.1,0L425.3,295.4L425.3,295.4"/>
		</g>
	</g>
</g>
<g id="XMLID_2200_">
	<g id="XMLID_2201_" class="st2">
		<g id="XMLID_2202_">
			<path id="XMLID_2212_" class="st4" d="M674.2,439.9l-66.9-38.7l-91.1,14.1L492,468.2l66.9,38.7l91.1-14.1L674.2,439.9
				 M491.5,468.3L491.5,468.3l24.3-53.1l0.1,0l91.5-14.2l67.3,38.9l0,0.1l-24.2,53l-0.1,0l-91.5,14.2L491.5,468.3 M685.4,438.2
				l-75.2-43.4l-102.3,15.9L480.8,470l75.2,43.4l102.3-15.9L685.4,438.2"/>
			<path id="XMLID_2209_" class="st5" d="M480.5,470l27.2-59.4l102.5-15.9l75.4,43.5l-27.2,59.4l-102.5,15.9L480.5,470 M685.9,438.1
				l-75.6-43.6l-102.7,15.9l-0.1,0L480.3,470l0,0.1l75.6,43.6l102.7-15.9l0.1,0L685.9,438.1L685.9,438.1"/>
			<path id="XMLID_2206_" class="st6" d="M480.8,470l27.1-59.3l102.3-15.9l75.2,43.4l-27.1,59.3L556,513.4L480.8,470 M685.6,438.1
				l-75.4-43.5l-102.5,15.9L480.5,470l75.4,43.5l102.5-15.9L685.6,438.1"/>
			<path id="XMLID_2203_" class="st6" d="M492,468.2l24.1-52.8l91.1-14.1l66.9,38.7L650,492.7L559,506.9L492,468.2 M674.7,439.8
				L607.4,401l-91.5,14.2l-0.1,0l-24.2,53l0,0.1l67.3,38.9l91.5-14.2l0.1,0L674.7,439.8L674.7,439.8"/>
		</g>
	</g>
</g>
<polyline id="XMLID_2197_" class="st15" points="555.9,493.1 528.3,520.7 427,520.7 "/>
<g id="XMLID_405_">
	<g id="XMLID_957_">
		<path id="XMLID_1011_" class="st11" d="M373.4,536.8c0,4-2.8,6.7-7,6.7h-5v-13.4h5C370.7,530.1,373.4,532.8,373.4,536.8z
			 M366.2,540.6c2.5,0,3.9-1.4,3.9-3.9s-1.5-3.9-3.9-3.9h-1.5v7.8H366.2z"/>
		<path id="XMLID_1008_" class="st11" d="M381.6,543.6c-3.8,0-6.9-2.8-6.9-6.9s3.1-6.9,6.9-6.9c3.8,0,6.9,2.8,6.9,6.9
			S385.4,543.6,381.6,543.6z M381.6,540.6c2.1,0,3.5-1.5,3.5-3.9c0-2.4-1.4-3.9-3.5-3.9c-2.2,0-3.6,1.5-3.6,3.9
			C378.1,539.1,379.4,540.6,381.6,540.6z"/>
		<path id="XMLID_1006_" class="st11" d="M393.6,537.5v5.9h-3.3v-13.4h3.3v5.9l4.5-5.9h3.8l-5.2,6.6l5.4,6.8h-4L393.6,537.5z"/>
		<path id="XMLID_1004_" class="st11" d="M403.6,530.1h3.3v8c0,1.6,0.8,2.5,2.3,2.5c1.5,0,2.4-0.9,2.4-2.5v-8h3.3v8
			c0,3.7-2.6,5.5-5.7,5.5c-3.1,0-5.5-1.8-5.5-5.5V530.1z"/>
		<path id="XMLID_1002_" class="st11" d="M417.1,530.1h3.9l3.8,9.3l3.7-9.3h3.8v13.4h-3.3v-8l-3,8h-2.6l-3-8.1v8.1h-3.3V530.1z"/>
		<path id="XMLID_1000_" class="st11" d="M442.9,532.7h-5v2.7h4.4v2.5h-4.4v2.9h5v2.6h-8.2v-13.4h8.2V532.7z"/>
		<path id="XMLID_998_" class="st11" d="M457,530.1v13.4h-3.3l-5.5-8.3v8.3H445v-13.4h3.3l5.5,8.3v-8.3H457z"/>
		<path id="XMLID_996_" class="st11" d="M458.7,530.1h10.4v2.6h-3.6v10.8h-3.3v-10.8h-3.6V530.1z"/>
		<path id="XMLID_992_" class="st11" d="M479.1,541.1h-5l-0.8,2.4h-3.4l4.9-13.4h3.8l4.9,13.4h-3.5L479.1,541.1z M478.8,524.8v2.5
			l-4.6,1.9V527L478.8,524.8z M476.6,533.7l-1.6,4.9h3.3L476.6,533.7z"/>
		<path id="XMLID_990_" class="st11" d="M491,529.9c3.2,0,5.6,1.8,6.4,4.7h-3.6c-0.6-1.1-1.6-1.7-2.8-1.7c-2,0-3.4,1.5-3.4,3.9
			c0,2.4,1.4,3.9,3.4,3.9c1.2,0,2.3-0.6,2.8-1.7h3.6c-0.8,2.9-3.2,4.7-6.4,4.7c-4,0-6.7-2.8-6.7-6.8
			C484.3,532.7,487,529.9,491,529.9z"/>
		<path id="XMLID_988_" class="st11" d="M499.4,530.1h3.3v13.4h-3.3V530.1z"/>
		<path id="XMLID_984_" class="st11" d="M511.4,543.6c-3.8,0-6.9-2.8-6.9-6.9s3.1-6.9,6.9-6.9c3.8,0,6.9,2.8,6.9,6.9
			S515.2,543.6,511.4,543.6z M511.4,540.6c2.1,0,3.5-1.5,3.5-3.9c0-2.4-1.4-3.9-3.5-3.9c-2.2,0-3.6,1.5-3.6,3.9
			C507.8,539.1,509.2,540.6,511.4,540.6z M513.6,524.8v2.5l-4.6,1.9V527L513.6,524.8z"/>
		<path id="XMLID_982_" class="st11" d="M523.3,537.5v5.9h-3.3v-13.4h3.3v5.9l4.5-5.9h3.8l-5.2,6.6l5.4,6.8h-4L523.3,537.5z"/>
		<path id="XMLID_979_" class="st11" d="M417.8,555.6h-5v2.7h4.4v2.5h-4.4v2.9h5v2.6h-8.2V553h8.2V555.6z M415.8,547.8v2.5l-4.6,1.9
			V550L415.8,547.8z"/>
		<path id="XMLID_977_" class="st11" d="M424.7,566.6c-2.9,0-5.1-1.4-5.2-4.1h3.5c0.1,1,0.7,1.5,1.7,1.5c1,0,1.6-0.5,1.6-1.3
			c0-2.5-6.7-1.1-6.7-5.9c0-2.5,2.1-4,4.9-4c2.9,0,4.9,1.5,5,4h-3.5c-0.1-0.9-0.7-1.4-1.5-1.4c-0.8,0-1.4,0.4-1.4,1.2
			c0,2.3,6.6,1.3,6.6,5.8C429.6,564.7,427.9,566.6,424.7,566.6z"/>
		<path id="XMLID_975_" class="st11" d="M435,553h10.4v2.6h-3.6v10.8h-3.3v-10.8H435V553z"/>
		<path id="XMLID_973_" class="st11" d="M455.2,555.6h-5v2.7h4.4v2.5h-4.4v2.9h5v2.6H447V553h8.2V555.6z"/>
		<path id="XMLID_971_" class="st11" d="M462.2,566.6c-2.9,0-5.1-1.4-5.2-4.1h3.5c0.1,1,0.7,1.5,1.7,1.5c1,0,1.6-0.5,1.6-1.3
			c0-2.5-6.7-1.1-6.7-5.9c0-2.5,2.1-4,4.9-4c2.9,0,4.9,1.5,5,4h-3.5c-0.1-0.9-0.7-1.4-1.5-1.4c-0.8,0-1.4,0.4-1.4,1.2
			c0,2.3,6.6,1.3,6.6,5.8C467.1,564.7,465.3,566.6,462.2,566.6z"/>
		<path id="XMLID_969_" class="st11" d="M478.4,555.5l-5.8,8.3h5.8v2.7h-9.5v-2.5l5.7-8.3h-5.7V553h9.5V555.5z"/>
		<path id="XMLID_967_" class="st11" d="M479.8,553h10.4v2.6h-3.6v10.8h-3.3v-10.8h-3.6V553z"/>
		<path id="XMLID_965_" class="st11" d="M500,555.6h-5v2.7h4.4v2.5h-4.4v2.9h5v2.6h-8.2V553h8.2V555.6z"/>
		<path id="XMLID_963_" class="st11" d="M505.4,553v10.9h4.3v2.5h-7.6V553H505.4z"/>
		<path id="XMLID_960_" class="st11" d="M519.5,555.6h-5v2.7h4.4v2.5h-4.4v2.9h5v2.6h-8.2V553h8.2V555.6z M517.5,547.8v2.5l-4.6,1.9
			V550L517.5,547.8z"/>
		<path id="XMLID_958_" class="st11" d="M526.5,566.6c-2.9,0-5.1-1.4-5.2-4.1h3.5c0.1,1,0.7,1.5,1.7,1.5c1,0,1.6-0.5,1.6-1.3
			c0-2.5-6.7-1.1-6.7-5.9c0-2.5,2.1-4,4.9-4c2.9,0,4.9,1.5,5,4h-3.5c-0.1-0.9-0.7-1.4-1.5-1.4c-0.8,0-1.4,0.4-1.4,1.2
			c0,2.3,6.6,1.3,6.6,5.8C531.4,564.7,529.6,566.6,526.5,566.6z"/>
	</g>
</g>
<g id="XMLID_2085_">
	<g id="XMLID_2156_" class="st10">
		<g id="XMLID_2190_">
			<path id="XMLID_23_" class="st11" d="M648.5,429.7v20c-0.1,0.9-0.3,1.5-1,2.1l-65.7,38c-0.5,0.3-1.3,0.3-2.1-0.2h-0.1l-58.9-33.9
				c-1.7-1-3.2-3.5-3.2-5.5v-20.1c0-1,0.4-1.8,0.9-2.1l3.9-2.2l-1.6-0.9c-0.9-0.5-1.7-1.4-2.3-2.4c-0.5-1-0.9-2.1-0.9-3.2V399
				c0-1,0.3-1.7,0.9-2.1l4.5-2.5l-2.2-1.3c-0.9-0.5-1.7-1.4-2.3-2.4c-0.5-1-0.9-2.1-0.9-3.2v-20c0-1,0.3-1.7,0.9-2.1l65.7-38
				c0.9-0.4,1.4-0.2,2.3,0.2l58.7,33.9c1.1,0.7,1.7,1.3,2.3,2.4s0.9,1.8,1,3.2v20.1c-0.1,0.9-0.3,1.5-1,2.1l-4.4,2.5l2.1,1.3
				c1,0.7,1.7,1.3,2.3,2.4s0.9,2,1,3.2v20c-0.1,0.9-0.3,1.5-1,2.1l-3.9,2.3l1.6,1c1,0.7,1.7,1.4,2.3,2.4
				C648.1,427.6,648.4,428.3,648.5,429.7z"/>
		</g>
		<g id="XMLID_2189_">
		</g>
	</g>
	<g id="Server_6_" class="st12">
		<path id="XMLID_2155_" class="st13" d="M518.6,427.7c0.1,0,0.1,0,0.3,0c0.1-0.1,0.4-0.1,0.7,0c0.1,0,0.3,0,0.4,0.1
			c0.3,0.1,0.4,0.1,0.7,0.3"/>
		<path id="XMLID_2154_" class="st13" d="M517.6,429.9c0-1,0.3-1.7,0.9-2.1s1.4-0.3,2.3,0.2"/>
		<path id="XMLID_2153_" class="st13" d="M582.8,487.6c0,1-0.3,1.7-1,2.1c-0.5,0.3-1.3,0.3-2.1-0.2"/>
		<polygon id="XMLID_2152_" class="st13" points="526.8,449.7 521.2,446.4 521.2,439.9 526.8,443.1 		"/>
		<polygon id="XMLID_2151_" class="st13" points="536.4,455.1 530.7,451.9 530.7,445.3 536.4,448.6 		"/>
		<path id="XMLID_2150_" class="st13" d="M518.5,396.9c0.1-0.1,0.3-0.1,0.4-0.1c0.5-0.1,1.1,0,1.8,0.4"/>
		<polyline id="XMLID_2149_" class="st13" points="520.8,397.1 546.3,411.8 579.5,431.2 		"/>
		<polyline id="XMLID_2148_" class="st13" points="581.8,433.6 621.6,410.5 647.5,395.6 		"/>
		<path id="XMLID_2147_" class="st13" d="M517.6,399c0-1,0.3-1.7,0.9-2.1s1.4-0.3,2.3,0.2"/>
		<path id="XMLID_2146_" class="st13" d="M582.8,456.7c0,1-0.3,1.7-1,2.1c-0.5,0.3-1.3,0.3-2.1-0.2"/>
		<polygon id="XMLID_2145_" class="st13" points="526.8,418.8 521.2,415.5 521.2,409 526.8,412.3 		"/>
		<polygon id="XMLID_2144_" class="st13" points="536.4,424.3 530.7,421 530.7,414.4 536.4,417.7 		"/>
		<path id="XMLID_2143_" class="st13" d="M517.6,367.5c0-1,0.3-1.7,0.9-2.1s1.4-0.3,2.3,0.2"/>
		<path id="XMLID_2142_" class="st13" d="M582.8,425.2c0,1-0.3,1.7-1,2.1c-0.5,0.3-1.3,0.3-2.1-0.2"/>
		<polygon id="XMLID_2141_" class="st13" points="526.8,387.3 521.2,384.1 521.2,377.4 526.8,380.8 		"/>
		<polygon id="XMLID_2140_" class="st13" points="536.4,392.8 530.7,389.5 530.7,382.9 536.4,386.3 		"/>
		<line id="XMLID_2139_" class="st13" x1="518.6" y1="427.7" x2="522.4" y2="425.5"/>
		<line id="XMLID_2138_" class="st13" x1="518.5" y1="427.8" x2="518.6" y2="427.7"/>
		<line id="XMLID_2137_" class="st13" x1="520.8" y1="428" x2="579.5" y2="462"/>
		<path id="XMLID_2136_" class="st13" d="M579.5,462c1,0.5,1.7,1.4,2.3,2.4"/>
		<line id="XMLID_2135_" class="st13" x1="581.8" y1="464.4" x2="647.5" y2="426.5"/>
		<path id="XMLID_2134_" class="st13" d="M647.5,426.5c-0.5-1-1.3-1.7-2.3-2.4"/>
		<line id="XMLID_2133_" class="st13" x1="645.3" y1="424.1" x2="643.6" y2="423.1"/>
		<path id="XMLID_2132_" class="st13" d="M581.8,464.4c0.7,1,1,2.1,1,3.2"/>
		<line id="XMLID_2131_" class="st13" x1="582.8" y1="467.5" x2="582.8" y2="487.6"/>
		<line id="XMLID_2130_" class="st13" x1="579.7" y1="489.5" x2="520.8" y2="455.6"/>
		<path id="XMLID_2129_" class="st13" d="M520.8,455.6c-1.7-1-3.2-3.5-3.2-5.5"/>
		<line id="XMLID_2128_" class="st13" x1="517.6" y1="450" x2="517.6" y2="429.9"/>
		<path id="XMLID_2127_" class="st13" d="M647.5,426.5c0.5,1.1,0.9,1.8,1,3.2"/>
		<line id="XMLID_2126_" class="st13" x1="648.5" y1="429.6" x2="648.5" y2="449.7"/>
		<path id="XMLID_2125_" class="st13" d="M648.5,449.7c-0.1,0.9-0.3,1.5-1,2.1"/>
		<line id="XMLID_2124_" class="st13" x1="647.5" y1="451.7" x2="581.8" y2="489.7"/>
		<line id="XMLID_2123_" class="st13" x1="523" y1="394.4" x2="518.5" y2="396.9"/>
		<path id="XMLID_2122_" class="st13" d="M579.5,431.2c1,0.5,1.7,1.4,2.3,2.4"/>
		<path id="XMLID_2121_" class="st13" d="M647.5,395.6c-0.5-1.1-1.3-1.7-2.3-2.4"/>
		<line id="XMLID_2120_" class="st13" x1="645.3" y1="393.2" x2="643.2" y2="391.9"/>
		<line id="XMLID_2119_" class="st13" x1="581.8" y1="433.5" x2="581.8" y2="433.5"/>
		<path id="XMLID_2118_" class="st13" d="M581.8,433.5c0.7,1,1,2.1,1,3.2"/>
		<line id="XMLID_2117_" class="st13" x1="582.8" y1="436.6" x2="582.8" y2="456.7"/>
		<line id="XMLID_2116_" class="st13" x1="579.7" y1="458.6" x2="520.8" y2="424.7"/>
		<path id="XMLID_2115_" class="st13" d="M520.8,424.7c-0.9-0.5-1.7-1.4-2.3-2.4"/>
		<line id="XMLID_2114_" class="st13" x1="518.5" y1="422.3" x2="518.5" y2="422.3"/>
		<path id="XMLID_2113_" class="st13" d="M518.5,422.3c-0.5-1-0.9-2.1-0.9-3.2"/>
		<line id="XMLID_2112_" class="st13" x1="517.6" y1="419.1" x2="517.6" y2="399"/>
		<path id="XMLID_2111_" class="st13" d="M647.5,395.6c0.5,1.1,0.9,2,1,3.2"/>
		<line id="XMLID_2110_" class="st13" x1="648.5" y1="398.8" x2="648.5" y2="418.8"/>
		<path id="XMLID_2109_" class="st13" d="M648.5,418.8c-0.1,0.9-0.3,1.5-1,2.1"/>
		<line id="XMLID_2108_" class="st13" x1="647.5" y1="420.8" x2="581.8" y2="458.8"/>
		<path id="XMLID_2107_" class="st13" d="M581.8,458.8c0.9-0.5,1-1.2,1-2.1"/>
		<line id="XMLID_2106_" class="st13" x1="518.5" y1="365.5" x2="584.2" y2="327.5"/>
		<path id="XMLID_2105_" class="st13" d="M584.2,327.5c0.9-0.4,1.4-0.2,2.3,0.2"/>
		<line id="XMLID_2104_" class="st13" x1="586.5" y1="327.7" x2="645.3" y2="361.7"/>
		<path id="XMLID_2103_" class="st13" d="M645.3,361.7c1.1,0.7,1.7,1.3,2.3,2.4"/>
		<line id="XMLID_2102_" class="st13" x1="647.5" y1="364.1" x2="581.8" y2="402"/>
		<path id="XMLID_2101_" class="st13" d="M581.8,402c-0.5-1.1-1.1-1.7-2.1-2.4"/>
		<line id="XMLID_2100_" class="st13" x1="579.7" y1="399.6" x2="520.8" y2="365.7"/>
		<path id="XMLID_2099_" class="st13" d="M581.8,402c0.7,1,1,2.1,1,3.2"/>
		<line id="XMLID_2098_" class="st13" x1="582.8" y1="405.2" x2="582.8" y2="425.2"/>
		<line id="XMLID_2097_" class="st13" x1="579.7" y1="427" x2="520.8" y2="393.1"/>
		<path id="XMLID_2096_" class="st13" d="M520.8,393.1c-0.9-0.5-1.7-1.4-2.3-2.4"/>
		<path id="XMLID_2095_" class="st13" d="M518.5,390.7c-0.5-1-0.9-2.1-0.9-3.2"/>
		<line id="XMLID_2094_" class="st13" x1="517.6" y1="387.6" x2="517.6" y2="367.5"/>
		<path id="XMLID_2093_" class="st13" d="M647.5,364.1c0.5,1.1,0.9,1.8,1,3.2"/>
		<line id="XMLID_2092_" class="st13" x1="648.5" y1="367.2" x2="648.5" y2="387.3"/>
		<path id="XMLID_2091_" class="st13" d="M648.5,387.3c-0.1,0.9-0.3,1.5-1,2.1"/>
		<line id="XMLID_2090_" class="st13" x1="647.5" y1="389.4" x2="581.8" y2="427.3"/>
		<path id="XMLID_2089_" class="st13" d="M581.8,427.3c0.9-0.5,1-1.2,1-2.1"/>
		<line id="XMLID_2088_" class="st13" x1="577" y1="411.9" x2="541.7" y2="391.5"/>
		<line id="XMLID_2087_" class="st13" x1="577" y1="443.4" x2="541.7" y2="422.9"/>
		<line id="XMLID_2086_" class="st13" x1="577" y1="474.3" x2="541.7" y2="453.8"/>
	</g>
</g>
<g id="XMLID_2079_" class="st16">
	<g id="XMLID_328_">
		<line id="XMLID_333_" class="st17" x1="461.6" y1="285.1" x2="461.6" y2="282.4"/>
		<line id="XMLID_332_" class="st18" x1="461.6" y1="277.1" x2="461.6" y2="164.2"/>
		<line id="XMLID_331_" class="st17" x1="461.6" y1="161.6" x2="461.6" y2="158.9"/>
	</g>
</g>
<g id="XMLID_2074_" class="st16">
	<g id="XMLID_2075_" class="st2">
		<g id="XMLID_2076_">
			<path id="XMLID_2077_" class="st8" d="M464.3,223.8l-5.4-3.1l2.7,7.8L464.3,223.8"/>
		</g>
	</g>
</g>
<g id="XMLID_2068_" class="st16">
	<g id="XMLID_322_">
		<line id="XMLID_326_" class="st17" x1="592.5" y1="282.9" x2="592.5" y2="280.2"/>
		<line id="XMLID_324_" class="st18" x1="592.5" y1="275" x2="592.5" y2="162.1"/>
		<line id="XMLID_323_" class="st17" x1="592.5" y1="159.4" x2="592.5" y2="156.7"/>
	</g>
</g>
<g id="XMLID_2063_" class="st16">
	<g id="XMLID_2064_" class="st2">
		<g id="XMLID_2065_">
			<path id="XMLID_2066_" class="st8" d="M595.2,221.6l-5.4-3.1l2.7,7.8L595.2,221.6"/>
		</g>
	</g>
</g>
<g id="XMLID_2057_" class="st16">
	<g id="XMLID_317_">
		<line id="XMLID_320_" class="st17" x1="526.2" y1="319.6" x2="526.2" y2="316.9"/>
		<line id="XMLID_319_" class="st18" x1="526.2" y1="311.7" x2="526.2" y2="198.8"/>
		<line id="XMLID_318_" class="st17" x1="526.2" y1="196.1" x2="526.2" y2="193.4"/>
	</g>
</g>
<g id="XMLID_2052_" class="st16">
	<g id="XMLID_2053_" class="st2">
		<g id="XMLID_2054_">
			<path id="XMLID_2055_" class="st8" d="M528.9,258.3l-5.4-3.1l2.7,7.8L528.9,258.3"/>
		</g>
	</g>
</g>
<g id="XMLID_366_">
	<g id="XMLID_790_">
		<path id="XMLID_826_" class="st11" d="M76.7,205.5c3.3,0,4.9,1.9,4.9,4.2c0,1.7-0.9,3.3-3,3.9l3.1,5.3h-3.7l-2.8-5.1h-0.8v5.1
			h-3.3v-13.4H76.7z M76.5,208.2h-2v3.3h2c1.2,0,1.8-0.6,1.8-1.7C78.3,208.9,77.8,208.2,76.5,208.2z"/>
		<path id="XMLID_823_" class="st11" d="M91.9,208.1h-5v2.7h4.4v2.5H87v2.9h5v2.6h-8.2v-13.4h8.2V208.1z M90,200.3v2.5l-4.6,1.9
			v-2.3L90,200.3z"/>
		<path id="XMLID_821_" class="st11" d="M98.9,219.1c-2.9,0-5.1-1.4-5.2-4.1h3.5c0.1,1,0.7,1.5,1.7,1.5c1,0,1.6-0.5,1.6-1.3
			c0-2.5-6.7-1.1-6.7-5.9c0-2.5,2.1-4,4.9-4c2.9,0,4.9,1.5,5,4h-3.5c-0.1-0.9-0.7-1.4-1.5-1.4c-0.8,0-1.4,0.4-1.4,1.2
			c0,2.3,6.6,1.3,6.6,5.8C103.8,217.2,102,219.1,98.9,219.1z"/>
		<path id="XMLID_819_" class="st11" d="M115.1,208l-5.8,8.3h5.8v2.7h-9.5v-2.5l5.7-8.3h-5.7v-2.7h9.5V208z"/>
		<path id="XMLID_817_" class="st11" d="M120.5,205.5v10.9h4.3v2.5h-7.6v-13.4H120.5z"/>
		<path id="XMLID_815_" class="st11" d="M134.6,208.1h-5v2.7h4.4v2.5h-4.4v2.9h5v2.6h-8.2v-13.4h8.2V208.1z"/>
		<path id="XMLID_813_" class="st11" d="M136,205.5h10.4v2.6h-3.6v10.8h-3.3v-10.8H136V205.5z"/>
		<path id="XMLID_811_" class="st11" d="M156.2,208.1h-5v2.7h4.4v2.5h-4.4v2.9h5v2.6H148v-13.4h8.2V208.1z"/>
		<path id="XMLID_809_" class="st11" d="M163.2,219.1c-2.9,0-5.1-1.4-5.2-4.1h3.5c0.1,1,0.7,1.5,1.7,1.5c1,0,1.6-0.5,1.6-1.3
			c0-2.5-6.7-1.1-6.7-5.9c0-2.5,2.1-4,4.9-4c2.9,0,4.9,1.5,5,4h-3.5c-0.1-0.9-0.7-1.4-1.5-1.4c-0.8,0-1.4,0.4-1.4,1.2
			c0,2.3,6.6,1.3,6.6,5.8C168.1,217.2,166.3,219.1,163.2,219.1z"/>
		<path id="XMLID_807_" class="st11" d="M70.5,228.5h10.4v2.6h-3.6v10.8h-3.3v-10.8h-3.6V228.5z"/>
		<path id="XMLID_805_" class="st11" d="M90.8,231.1h-5v2.7h4.4v2.5h-4.4v2.9h5v2.6h-8.2v-13.4h8.2V231.1z"/>
		<path id="XMLID_802_" class="st11" d="M98.4,228.5c3.3,0,4.9,1.9,4.9,4.2c0,1.7-0.9,3.3-3,3.9l3.1,5.3h-3.7l-2.8-5.1h-0.8v5.1
			h-3.3v-13.4H98.4z M98.2,231.2h-2v3.3h2c1.2,0,1.8-0.6,1.8-1.7C100,231.8,99.4,231.2,98.2,231.2z"/>
		<path id="XMLID_800_" class="st11" d="M114.5,228.5h3.5l-4.8,13.4h-4.1l-4.8-13.4h3.5l3.3,10.1L114.5,228.5z"/>
		<path id="XMLID_798_" class="st11" d="M127.5,231.1h-5v2.7h4.4v2.5h-4.4v2.9h5v2.6h-8.2v-13.4h8.2V231.1z"/>
		<path id="XMLID_796_" class="st11" d="M138.9,231l-5.8,8.3h5.8v2.7h-9.5v-2.5l5.7-8.3h-5.7v-2.7h9.5V231z"/>
		<path id="XMLID_793_" class="st11" d="M149.3,231.1h-5v2.7h4.4v2.5h-4.4v2.9h5v2.6h-8.2v-13.4h8.2V231.1z M147.3,223.2v2.5
			l-4.6,1.9v-2.3L147.3,223.2z"/>
		<path id="XMLID_791_" class="st11" d="M156.3,242c-2.9,0-5.1-1.4-5.2-4.1h3.5c0.1,1,0.7,1.5,1.7,1.5c1,0,1.6-0.5,1.6-1.3
			c0-2.5-6.7-1.1-6.7-5.9c0-2.5,2.1-4,4.9-4c2.9,0,4.9,1.5,5,4h-3.5c-0.1-0.9-0.7-1.4-1.5-1.4c-0.8,0-1.4,0.4-1.4,1.2
			c0,2.3,6.6,1.3,6.6,5.8C161.2,240.2,159.4,242,156.3,242z"/>
	</g>
</g>
<polyline id="XMLID_2044_" class="st15" points="203.1,279 175.5,251.4 70.1,251.4 "/>
<g id="XMLID_2028_">
	<g id="XMLID_2029_" class="st2">
		<g id="XMLID_2030_">
			<path id="XMLID_2040_" class="st4" d="M283.6,379.6l-66.9-38.7l-91.1,14.1l-24.1,52.8l66.9,38.7l91.1-14.1L283.6,379.6
				 M100.9,408L100.9,408l24.3-53.1l0.1,0l91.5-14.2l67.3,38.9l0,0.1l-24.2,53l-0.1,0l-91.5,14.2L100.9,408 M294.8,377.8l-75.2-43.4
				l-102.3,15.9l-27.1,59.3l75.2,43.4l102.3-15.9L294.8,377.8"/>
			<path id="XMLID_2037_" class="st5" d="M90,409.7l27.2-59.4l102.5-15.9l75.4,43.5l-27.2,59.4l-102.5,15.9L90,409.7 M295.4,377.8
				l-75.6-43.6l-102.7,15.9l-0.1,0l-27.2,59.5l0,0.1l75.6,43.6L268,437.4l0.1,0L295.4,377.8L295.4,377.8"/>
			<path id="XMLID_2034_" class="st6" d="M90.3,409.6l27.1-59.3l102.3-15.9l75.2,43.4l-27.1,59.3L165.5,453L90.3,409.6 M295.1,377.8
				l-75.4-43.5l-102.5,15.9L90,409.7l75.4,43.5l102.5-15.9L295.1,377.8"/>
			<path id="XMLID_2031_" class="st6" d="M101.5,407.9l24.1-52.8l91.1-14.1l66.9,38.7l-24.1,52.8l-91.1,14.1L101.5,407.9
				 M284.2,379.5l-67.3-38.9l-91.5,14.2l-0.1,0l-24.2,53l0,0.1l67.3,38.9l91.5-14.2l0.1,0L284.2,379.5L284.2,379.5"/>
		</g>
	</g>
</g>
<g id="XMLID_240_">
	<g id="Server_5_" class="st12">
		<g id="XMLID_2025_">
			<path id="XMLID_310_" class="st19" d="M128.1,367.4c0.1,0,0.1,0,0.3,0c0.1-0.1,0.4-0.1,0.7,0c0.1,0,0.3,0,0.4,0.1
				c0.3,0.1,0.4,0.1,0.7,0.3"/>
		</g>
		<g id="XMLID_2022_">
			<path id="XMLID_308_" class="st20" d="M127.1,369.5c0-1,0.3-1.7,0.9-2.1s1.4-0.3,2.3,0.2"/>
		</g>
		<g id="XMLID_2019_">
			<path id="XMLID_306_" class="st21" d="M192.3,427.3c0,1-0.3,1.7-1,2.1c-0.5,0.3-1.3,0.3-2.1-0.2"/>
		</g>
		<polygon id="XMLID_2018_" class="st13" points="136.3,389.3 130.7,386.1 130.7,379.5 136.3,382.8 		"/>
		<polygon id="XMLID_2017_" class="st13" points="145.8,394.8 140.2,391.5 140.2,385 145.8,388.2 		"/>
		<g id="XMLID_2014_">
			<path id="XMLID_294_" class="st22" d="M128,336.6c0.1-0.1,0.3-0.1,0.4-0.1c0.5-0.1,1.1,0,1.8,0.4"/>
		</g>
		<g id="XMLID_2008_">
			<g id="XMLID_302_">
				<line id="XMLID_305_" class="st13" x1="130.3" y1="336.8" x2="132.6" y2="338.2"/>
				<polyline id="XMLID_304_" class="st23" points="137.5,341 155.7,351.5 184.2,368 				"/>
				<line id="XMLID_303_" class="st13" x1="186.7" y1="369.5" x2="189" y2="370.8"/>
			</g>
		</g>
		<g id="XMLID_2002_">
			<g id="XMLID_297_">
				<line id="XMLID_300_" class="st13" x1="191.3" y1="373.2" x2="193.7" y2="371.9"/>
				<polyline id="XMLID_299_" class="st24" points="198.3,369.1 231.1,350.2 252.3,338 				"/>
				<line id="XMLID_298_" class="st13" x1="254.6" y1="336.6" x2="257" y2="335.3"/>
			</g>
		</g>
		<g id="XMLID_1999_">
			<path id="XMLID_292_" class="st20" d="M127.1,338.6c0-1,0.3-1.7,0.9-2.1s1.4-0.3,2.3,0.2"/>
		</g>
		<g id="XMLID_1996_">
			<path id="XMLID_290_" class="st21" d="M192.3,396.4c0,1-0.3,1.7-1,2.1c-0.5,0.3-1.3,0.3-2.1-0.2"/>
		</g>
		<polygon id="XMLID_1995_" class="st13" points="136.3,358.4 130.7,355.2 130.7,348.6 136.3,351.9 		"/>
		<polygon id="XMLID_1994_" class="st13" points="145.8,364 140.2,360.6 140.2,354.1 145.8,357.3 		"/>
		<g id="XMLID_1991_">
			<path id="XMLID_288_" class="st20" d="M127.1,307.2c0-1,0.3-1.7,0.9-2.1s1.4-0.3,2.3,0.2"/>
		</g>
		<g id="XMLID_1988_">
			<path id="XMLID_286_" class="st21" d="M192.3,364.9c0,1-0.3,1.7-1,2.1c-0.5,0.3-1.3,0.3-2.1-0.2"/>
		</g>
		<polygon id="XMLID_1987_" class="st13" points="136.3,327 130.7,323.7 130.7,317.1 136.3,320.5 		"/>
		<polygon id="XMLID_1986_" class="st13" points="145.8,332.4 140.2,329.2 140.2,322.5 145.8,325.9 		"/>
		<g id="XMLID_1983_">
			<line id="XMLID_284_" class="st25" x1="128.1" y1="367.4" x2="131.9" y2="365.2"/>
		</g>
		<g id="XMLID_1980_">
			<line id="XMLID_277_" class="st26" x1="128" y1="367.5" x2="128.1" y2="367.4"/>
		</g>
		<g id="XMLID_1974_">
			<g id="XMLID_280_">
				<line id="XMLID_283_" class="st13" x1="130.3" y1="367.7" x2="132.6" y2="369"/>
				<line id="XMLID_282_" class="st27" x1="137.5" y1="371.9" x2="184.2" y2="398.8"/>
				<line id="XMLID_281_" class="st13" x1="186.6" y1="400.3" x2="189" y2="401.6"/>
			</g>
		</g>
		<g id="XMLID_1971_">
			<path id="XMLID_270_" class="st28" d="M189,401.6c1,0.5,1.7,1.4,2.3,2.4"/>
		</g>
		<g id="XMLID_1965_">
			<g id="XMLID_273_">
				<line id="XMLID_276_" class="st13" x1="191.3" y1="404" x2="193.7" y2="402.7"/>
				<line id="XMLID_275_" class="st29" x1="198.4" y1="400" x2="252.3" y2="368.9"/>
				<line id="XMLID_274_" class="st13" x1="254.6" y1="367.5" x2="257" y2="366.2"/>
			</g>
		</g>
		<g id="XMLID_1962_">
			<path id="XMLID_268_" class="st30" d="M257,366.2c-0.5-1-1.3-1.7-2.3-2.4"/>
		</g>
		<g id="XMLID_1959_">
			<line id="XMLID_265_" class="st31" x1="254.7" y1="363.8" x2="253.1" y2="362.8"/>
		</g>
		<g id="XMLID_1956_">
			<path id="XMLID_216_" class="st32" d="M191.3,404c0.7,1,1,2.1,1,3.2"/>
		</g>
		<g id="XMLID_1950_">
			<g id="XMLID_261_">
				<line id="XMLID_264_" class="st13" x1="192.3" y1="407.2" x2="192.3" y2="409.9"/>
				<line id="XMLID_263_" class="st33" x1="192.3" y1="414.8" x2="192.3" y2="422.1"/>
				<line id="XMLID_262_" class="st13" x1="192.3" y1="424.6" x2="192.3" y2="427.3"/>
			</g>
		</g>
		<g id="XMLID_1944_">
			<g id="XMLID_255_">
				<line id="XMLID_259_" class="st13" x1="189.1" y1="429.1" x2="186.8" y2="427.8"/>
				<line id="XMLID_258_" class="st34" x1="181.8" y1="424.9" x2="135.1" y2="398"/>
				<line id="XMLID_256_" class="st13" x1="132.6" y1="396.6" x2="130.3" y2="395.2"/>
			</g>
		</g>
		<g id="XMLID_1939_">
			<g id="XMLID_250_">
				<path id="XMLID_252_" class="st13" d="M130.3,395.2c-0.7-0.4-1.4-1.1-1.9-1.9"/>
				<path id="XMLID_251_" class="st13" d="M127.8,392.3c-0.4-0.9-0.6-1.8-0.6-2.6"/>
			</g>
		</g>
		<g id="XMLID_1933_">
			<g id="XMLID_245_">
				<line id="XMLID_249_" class="st13" x1="127.1" y1="389.7" x2="127.1" y2="386.9"/>
				<line id="XMLID_248_" class="st33" x1="127.1" y1="382" x2="127.1" y2="374.7"/>
				<line id="XMLID_246_" class="st13" x1="127.1" y1="372.3" x2="127.1" y2="369.5"/>
			</g>
		</g>
		<g id="XMLID_1930_">
			<path id="XMLID_196_" class="st35" d="M257,366.2c0.5,1.1,0.9,1.8,1,3.2"/>
		</g>
		<g id="XMLID_1924_">
			<g id="XMLID_209_">
				<line id="XMLID_212_" class="st13" x1="258" y1="369.2" x2="258" y2="371.9"/>
				<line id="XMLID_211_" class="st33" x1="258" y1="376.8" x2="258" y2="384.2"/>
				<line id="XMLID_210_" class="st13" x1="258" y1="386.6" x2="258" y2="389.3"/>
			</g>
		</g>
		<g id="XMLID_1921_">
			<path id="XMLID_184_" class="st36" d="M258,389.3c-0.1,0.9-0.3,1.5-1,2.1"/>
		</g>
		<g id="XMLID_1915_">
			<g id="XMLID_189_">
				<line id="XMLID_193_" class="st13" x1="257" y1="391.4" x2="254.6" y2="392.8"/>
				<line id="XMLID_192_" class="st24" x1="250" y1="395.5" x2="196" y2="426.6"/>
				<line id="XMLID_190_" class="st13" x1="193.7" y1="428" x2="191.3" y2="429.4"/>
			</g>
		</g>
		<g id="XMLID_1912_">
			<line id="XMLID_182_" class="st37" x1="132.4" y1="334.1" x2="128" y2="336.6"/>
		</g>
		<g id="XMLID_1909_">
			<path id="XMLID_180_" class="st28" d="M189,370.8c1,0.5,1.7,1.4,2.3,2.4"/>
		</g>
		<g id="XMLID_1906_">
			<path id="XMLID_175_" class="st38" d="M257,335.3c-0.5-1.1-1.3-1.7-2.3-2.4"/>
		</g>
		<g id="XMLID_1903_">
			<line id="XMLID_173_" class="st39" x1="254.7" y1="332.9" x2="252.7" y2="331.6"/>
		</g>
		<g id="XMLID_1900_">
			<line id="XMLID_169_" class="st40" x1="191.3" y1="373.1" x2="191.3" y2="373.1"/>
		</g>
		<g id="XMLID_1897_">
			<path id="XMLID_154_" class="st32" d="M191.3,373.1c0.7,1,1,2.1,1,3.2"/>
		</g>
		<g id="XMLID_1891_">
			<g id="XMLID_164_">
				<line id="XMLID_168_" class="st13" x1="192.3" y1="376.3" x2="192.3" y2="379"/>
				<line id="XMLID_167_" class="st33" x1="192.3" y1="383.9" x2="192.3" y2="391.2"/>
				<line id="XMLID_165_" class="st13" x1="192.3" y1="393.7" x2="192.3" y2="396.4"/>
			</g>
		</g>
		<g id="XMLID_1885_">
			<g id="XMLID_157_">
				<line id="XMLID_161_" class="st13" x1="189.1" y1="398.3" x2="186.8" y2="396.9"/>
				<line id="XMLID_160_" class="st34" x1="181.8" y1="394.1" x2="135.1" y2="367.1"/>
				<line id="XMLID_159_" class="st13" x1="132.6" y1="365.7" x2="130.3" y2="364.3"/>
			</g>
		</g>
		<g id="XMLID_1882_">
			<path id="XMLID_152_" class="st41" d="M130.3,364.3c-0.9-0.5-1.7-1.4-2.3-2.4"/>
		</g>
		<g id="XMLID_1878_">
			<line id="XMLID_149_" class="st40" x1="128" y1="361.9" x2="128" y2="361.9"/>
		</g>
		<g id="XMLID_1870_">
			<path id="XMLID_142_" class="st42" d="M128,361.9c-0.5-1-0.9-2.1-0.9-3.2"/>
		</g>
		<g id="XMLID_1864_">
			<g id="XMLID_145_">
				<line id="XMLID_148_" class="st13" x1="127.1" y1="358.8" x2="127.1" y2="356"/>
				<line id="XMLID_147_" class="st33" x1="127.1" y1="351.1" x2="127.1" y2="343.8"/>
				<line id="XMLID_146_" class="st13" x1="127.1" y1="341.4" x2="127.1" y2="338.6"/>
			</g>
		</g>
		<g id="XMLID_1861_">
			<path id="XMLID_135_" class="st43" d="M257,335.3c0.5,1.1,0.9,2,1,3.2"/>
		</g>
		<g id="XMLID_1855_">
			<g id="XMLID_138_">
				<line id="XMLID_141_" class="st13" x1="258" y1="338.4" x2="258" y2="341.2"/>
				<line id="XMLID_140_" class="st44" x1="258" y1="346" x2="258" y2="353.3"/>
				<line id="XMLID_139_" class="st13" x1="258" y1="355.7" x2="258" y2="358.4"/>
			</g>
		</g>
		<g id="XMLID_1852_">
			<path id="XMLID_128_" class="st36" d="M258,358.4c-0.1,0.9-0.3,1.5-1,2.1"/>
		</g>
		<g id="XMLID_1846_">
			<g id="XMLID_131_">
				<line id="XMLID_134_" class="st13" x1="257" y1="360.5" x2="254.6" y2="361.9"/>
				<line id="XMLID_133_" class="st24" x1="250" y1="364.6" x2="196" y2="395.7"/>
				<line id="XMLID_132_" class="st13" x1="193.7" y1="397.1" x2="191.3" y2="398.5"/>
			</g>
		</g>
		<g id="XMLID_1842_">
			<path id="XMLID_121_" class="st45" d="M191.3,398.5c0.9-0.5,1-1.2,1-2.1"/>
		</g>
		<g id="XMLID_1836_">
			<g id="XMLID_124_">
				<line id="XMLID_127_" class="st13" x1="128" y1="305.1" x2="130.3" y2="303.8"/>
				<line id="XMLID_126_" class="st24" x1="135" y1="301.1" x2="189" y2="269.9"/>
				<line id="XMLID_125_" class="st13" x1="191.3" y1="268.5" x2="193.7" y2="267.2"/>
			</g>
		</g>
		<g id="XMLID_1833_">
			<path id="XMLID_114_" class="st46" d="M193.7,267.2c0.9-0.4,1.4-0.2,2.3,0.2"/>
		</g>
		<g id="XMLID_1827_">
			<g id="XMLID_117_">
				<line id="XMLID_120_" class="st13" x1="196" y1="267.4" x2="198.3" y2="268.7"/>
				<line id="XMLID_119_" class="st27" x1="203.3" y1="271.6" x2="249.9" y2="298.5"/>
				<line id="XMLID_118_" class="st13" x1="252.4" y1="300" x2="254.7" y2="301.3"/>
			</g>
		</g>
		<g id="XMLID_1824_">
			<path id="XMLID_107_" class="st47" d="M254.7,301.3c1.1,0.7,1.7,1.3,2.3,2.4"/>
		</g>
		<g id="XMLID_1818_">
			<g id="XMLID_110_">
				<line id="XMLID_113_" class="st13" x1="257" y1="303.7" x2="254.6" y2="305.1"/>
				<line id="XMLID_112_" class="st24" x1="250" y1="307.8" x2="196" y2="339"/>
				<line id="XMLID_111_" class="st13" x1="193.7" y1="340.3" x2="191.3" y2="341.7"/>
			</g>
		</g>
		<g id="XMLID_1815_">
			<path id="XMLID_100_" class="st48" d="M191.3,341.7c-0.5-1.1-1.1-1.7-2.1-2.4"/>
		</g>
		<g id="XMLID_1797_">
			<g id="XMLID_103_">
				<line id="XMLID_106_" class="st13" x1="189.1" y1="339.3" x2="186.8" y2="337.9"/>
				<line id="XMLID_105_" class="st34" x1="181.8" y1="335.1" x2="135.1" y2="308.1"/>
				<line id="XMLID_104_" class="st13" x1="132.6" y1="306.7" x2="130.3" y2="305.3"/>
			</g>
		</g>
		<g id="XMLID_1794_">
			<path id="XMLID_88_" class="st32" d="M191.3,341.7c0.7,1,1,2.1,1,3.2"/>
		</g>
		<g id="XMLID_1788_">
			<g id="XMLID_96_">
				<line id="XMLID_99_" class="st13" x1="192.3" y1="344.8" x2="192.3" y2="347.6"/>
				<line id="XMLID_98_" class="st44" x1="192.3" y1="352.4" x2="192.3" y2="359.7"/>
				<line id="XMLID_97_" class="st13" x1="192.3" y1="362.1" x2="192.3" y2="364.9"/>
			</g>
		</g>
		<g id="XMLID_1782_">
			<g id="XMLID_91_">
				<line id="XMLID_94_" class="st13" x1="189.1" y1="366.7" x2="186.8" y2="365.3"/>
				<line id="XMLID_93_" class="st34" x1="181.8" y1="362.5" x2="135.1" y2="335.5"/>
				<line id="XMLID_92_" class="st13" x1="132.6" y1="334.1" x2="130.3" y2="332.8"/>
			</g>
		</g>
		<g id="XMLID_1779_">
			<path id="XMLID_86_" class="st41" d="M130.3,332.8c-0.9-0.5-1.7-1.4-2.3-2.4"/>
		</g>
		<g id="XMLID_1776_">
			<path id="XMLID_79_" class="st42" d="M128,330.4c-0.5-1-0.9-2.1-0.9-3.2"/>
		</g>
		<g id="XMLID_1310_">
			<g id="XMLID_82_">
				<line id="XMLID_85_" class="st13" x1="127.1" y1="327.2" x2="127.1" y2="324.5"/>
				<line id="XMLID_84_" class="st44" x1="127.1" y1="319.6" x2="127.1" y2="312.4"/>
				<line id="XMLID_83_" class="st13" x1="127.1" y1="309.9" x2="127.1" y2="307.2"/>
			</g>
		</g>
		<g id="XMLID_929_">
			<path id="XMLID_32_" class="st35" d="M257,303.7c0.5,1.1,0.9,1.8,1,3.2"/>
		</g>
		<g id="XMLID_267_">
			<g id="XMLID_72_">
				<line id="XMLID_76_" class="st13" x1="258" y1="306.9" x2="258" y2="309.6"/>
				<line id="XMLID_75_" class="st33" x1="258" y1="314.5" x2="258" y2="321.8"/>
				<line id="XMLID_74_" class="st13" x1="258" y1="324.3" x2="258" y2="327"/>
			</g>
		</g>
		<g id="XMLID_257_">
			<path id="XMLID_63_" class="st36" d="M258,327c-0.1,0.9-0.3,1.5-1,2.1"/>
		</g>
		<g id="XMLID_247_">
			<g id="XMLID_67_">
				<line id="XMLID_70_" class="st13" x1="257" y1="329.1" x2="254.6" y2="330.4"/>
				<line id="XMLID_69_" class="st29" x1="249.9" y1="333.1" x2="196" y2="364.2"/>
				<line id="XMLID_68_" class="st13" x1="193.7" y1="365.6" x2="191.3" y2="366.9"/>
			</g>
		</g>
		<g id="XMLID_244_">
			<path id="XMLID_34_" class="st45" d="M191.3,366.9c0.9-0.5,1-1.2,1-2.1"/>
		</g>
		<line id="XMLID_243_" class="st13" x1="186.5" y1="351.6" x2="151.2" y2="331.1"/>
		<line id="XMLID_242_" class="st13" x1="186.5" y1="383" x2="151.2" y2="362.6"/>
		<line id="XMLID_241_" class="st13" x1="186.5" y1="413.9" x2="151.2" y2="393.5"/>
	</g>
</g>
<g id="XMLID_206_">
	<g id="XMLID_237_" class="st10">
		<g id="XMLID_238_">
			<path id="XMLID_239_" class="st14" d="M338,309.7c-0.5,0.3-1.3,0.3-2.1-0.2h-0.1l-56.7-32.6l-2.2-1.3c-0.9-0.5-1.7-1.4-2.3-2.4
				c-0.5-1-0.9-2.1-0.9-3.2v-20c0-1,0.3-1.7,0.9-2.1l65.7-38c0.9-0.4,1.4-0.2,2.3,0.2l58.7,33.9c1.1,0.7,1.7,1.3,2.3,2.4
				c0.5,1.1,0.9,1.8,1,3.2v20.1c-0.1,0.9-0.3,1.5-1,2.1l-4.4,2.5L338,309.7z"/>
		</g>
	</g>
	<g id="Server_2_" class="st12">
		<path id="XMLID_236_" class="st13" d="M273.8,250c0-1,0.3-1.7,0.9-2.1c0.5-0.3,1.4-0.3,2.3,0.2"/>
		<path id="XMLID_235_" class="st13" d="M338.9,307.7c0,1-0.3,1.7-1,2.1c-0.5,0.3-1.3,0.3-2.1-0.2"/>
		<polygon id="XMLID_234_" class="st13" points="282.9,269.8 277.4,266.6 277.4,259.9 282.9,263.3 		"/>
		<polygon id="XMLID_233_" class="st13" points="292.5,275.3 286.8,272 286.8,265.4 292.5,268.7 		"/>
		<line id="XMLID_232_" class="st13" x1="274.6" y1="247.9" x2="340.4" y2="210"/>
		<path id="XMLID_231_" class="st13" d="M340.4,210c0.9-0.4,1.4-0.2,2.3,0.2"/>
		<line id="XMLID_230_" class="st13" x1="342.6" y1="210.2" x2="401.4" y2="244.1"/>
		<path id="XMLID_229_" class="st13" d="M401.4,244.1c1.1,0.7,1.7,1.3,2.3,2.4"/>
		<line id="XMLID_228_" class="st13" x1="403.7" y1="246.5" x2="338" y2="284.5"/>
		<path id="XMLID_227_" class="st13" d="M338,284.5c-0.5-1.1-1.1-1.7-2.1-2.4"/>
		<line id="XMLID_226_" class="st13" x1="335.8" y1="282.1" x2="276.9" y2="248.2"/>
		<path id="XMLID_225_" class="st13" d="M338,284.5c0.7,1,1,2.1,1,3.2"/>
		<line id="XMLID_224_" class="st13" x1="338.9" y1="287.7" x2="338.9" y2="307.7"/>
		<line id="XMLID_223_" class="st13" x1="335.8" y1="309.5" x2="276.9" y2="275.6"/>
		<path id="XMLID_222_" class="st13" d="M276.9,275.6c-0.9-0.5-1.7-1.4-2.3-2.4"/>
		<path id="XMLID_221_" class="st13" d="M274.6,273.2c-0.5-1-0.9-2.1-0.9-3.2"/>
		<line id="XMLID_218_" class="st13" x1="273.8" y1="270" x2="273.8" y2="250"/>
		<path id="XMLID_217_" class="st13" d="M403.7,246.5c0.5,1.1,0.9,1.8,1,3.2"/>
		<line id="XMLID_215_" class="st13" x1="404.6" y1="249.7" x2="404.6" y2="269.8"/>
		<path id="XMLID_214_" class="st13" d="M404.6,269.8c-0.1,0.9-0.3,1.5-1,2.1"/>
		<line id="XMLID_213_" class="st13" x1="403.7" y1="271.9" x2="338" y2="309.7"/>
		<path id="XMLID_208_" class="st13" d="M338,309.7c0.9-0.5,1-1.2,1-2.1"/>
		<line id="XMLID_207_" class="st13" x1="333.2" y1="294.4" x2="297.8" y2="273.9"/>
	</g>
</g>
<g id="XMLID_31_">
	<g id="XMLID_203_" class="st10">
		<g id="XMLID_204_">
			<path id="XMLID_205_" class="st4" d="M338,248.3c-0.5,0.3-1.3,0.3-2.1-0.2h-0.1l-56.7-32.6l-2.2-1.3c-0.9-0.5-1.7-1.4-2.3-2.4
				c-0.5-1-0.9-2.1-0.9-3.2v-20c0-1,0.3-1.7,0.9-2.1l65.7-38c0.9-0.4,1.4-0.2,2.3,0.2l58.7,33.9c1.1,0.7,1.7,1.3,2.3,2.4
				c0.5,1.1,0.9,1.8,1,3.2v20.1c-0.1,0.9-0.3,1.5-1,2.1l-4.4,2.5L338,248.3z"/>
		</g>
	</g>
	<g id="Server_1_" class="st12">
		<path id="XMLID_202_" class="st13" d="M273.8,188.5c0-1,0.3-1.7,0.9-2.1c0.5-0.3,1.4-0.3,2.3,0.2"/>
		<path id="XMLID_201_" class="st13" d="M338.9,246.2c0,1-0.3,1.7-1,2.1c-0.5,0.3-1.3,0.3-2.1-0.2"/>
		<polygon id="XMLID_200_" class="st13" points="282.9,208.3 277.4,205.1 277.4,198.4 282.9,201.8 		"/>
		<polygon id="XMLID_197_" class="st13" points="292.5,213.8 286.8,210.5 286.8,203.9 292.5,207.2 		"/>
		<line id="XMLID_195_" class="st13" x1="274.6" y1="186.5" x2="340.4" y2="148.5"/>
		<path id="XMLID_194_" class="st13" d="M340.4,148.5c0.9-0.4,1.4-0.2,2.3,0.2"/>
		<line id="XMLID_191_" class="st13" x1="342.6" y1="148.7" x2="401.4" y2="182.7"/>
		<path id="XMLID_187_" class="st13" d="M401.4,182.7c1.1,0.7,1.7,1.3,2.3,2.4"/>
		<line id="XMLID_186_" class="st13" x1="403.7" y1="185.1" x2="338" y2="223"/>
		<path id="XMLID_179_" class="st13" d="M338,223c-0.5-1.1-1.1-1.7-2.1-2.4"/>
		<line id="XMLID_178_" class="st13" x1="335.8" y1="220.6" x2="276.9" y2="186.7"/>
		<path id="XMLID_176_" class="st13" d="M338,223c0.7,1,1,2.1,1,3.2"/>
		<line id="XMLID_170_" class="st13" x1="338.9" y1="226.2" x2="338.9" y2="246.2"/>
		<line id="XMLID_166_" class="st13" x1="335.8" y1="248" x2="276.9" y2="214.1"/>
		<path id="XMLID_163_" class="st13" d="M276.9,214.1c-0.9-0.5-1.7-1.4-2.3-2.4"/>
		<path id="XMLID_64_" class="st13" d="M274.6,211.7c-0.5-1-0.9-2.1-0.9-3.2"/>
		<line id="XMLID_62_" class="st13" x1="273.8" y1="208.6" x2="273.8" y2="188.5"/>
		<path id="XMLID_61_" class="st13" d="M403.7,185.1c0.5,1.1,0.9,1.8,1,3.2"/>
		<line id="XMLID_60_" class="st13" x1="404.6" y1="188.2" x2="404.6" y2="208.3"/>
		<path id="XMLID_58_" class="st13" d="M404.6,208.3c-0.1,0.9-0.3,1.5-1,2.1"/>
		<line id="XMLID_37_" class="st13" x1="403.7" y1="210.4" x2="338" y2="248.3"/>
		<path id="XMLID_36_" class="st13" d="M338,248.3c0.9-0.5,1-1.2,1-2.1"/>
		<line id="XMLID_35_" class="st13" x1="333.2" y1="232.9" x2="297.8" y2="212.5"/>
	</g>
</g>
<g id="XMLID_1_">
	<g id="XMLID_702_">
		<path id="XMLID_731_" class="st11" d="M170.6,111.2H181v2.6h-3.6v10.8h-3.3v-10.8h-3.6V111.2z"/>
		<path id="XMLID_729_" class="st11" d="M190.9,113.8h-5v2.7h4.4v2.5h-4.4v2.9h5v2.6h-8.2v-13.4h8.2V113.8z"/>
		<path id="XMLID_727_" class="st11" d="M197.9,124.7c-2.9,0-5.1-1.4-5.2-4.1h3.5c0.1,1,0.7,1.5,1.7,1.5c1,0,1.6-0.5,1.6-1.3
			c0-2.5-6.7-1.1-6.7-5.9c0-2.5,2.1-4,4.9-4c2.9,0,4.9,1.5,5,4H199c-0.1-0.9-0.7-1.4-1.5-1.4c-0.8,0-1.4,0.4-1.4,1.2
			c0,2.3,6.6,1.3,6.6,5.8C202.8,122.9,201,124.7,197.9,124.7z"/>
		<path id="XMLID_725_" class="st11" d="M204,111.2h10.4v2.6h-3.6v10.8h-3.3v-10.8H204V111.2z"/>
		<path id="XMLID_722_" class="st11" d="M221.6,111.2c3.3,0,4.9,1.9,4.9,4.2c0,1.7-0.9,3.3-3,3.9l3.1,5.3h-3.7l-2.8-5.1h-0.8v5.1
			h-3.3v-13.4H221.6z M221.4,113.9h-2v3.3h2c1.2,0,1.8-0.6,1.8-1.7C223.2,114.6,222.6,113.9,221.4,113.9z"/>
		<path id="XMLID_720_" class="st11" d="M236.8,113.8h-5v2.7h4.4v2.5h-4.4v2.9h5v2.6h-8.2v-13.4h8.2V113.8z"/>
		<path id="XMLID_718_" class="st11" d="M243.7,124.7c-2.9,0-5.1-1.4-5.2-4.1h3.5c0.1,1,0.7,1.5,1.7,1.5c1,0,1.6-0.5,1.6-1.3
			c0-2.5-6.7-1.1-6.7-5.9c0-2.5,2.1-4,4.9-4c2.9,0,4.9,1.5,5,4h-3.5c-0.1-0.9-0.7-1.4-1.5-1.4c-0.8,0-1.4,0.4-1.4,1.2
			c0,2.3,6.6,1.3,6.6,5.8C248.6,122.9,246.9,124.7,243.7,124.7z"/>
		<path id="XMLID_716_" class="st11" d="M259.9,113.7l-5.8,8.3h5.8v2.7h-9.5v-2.5l5.7-8.3h-5.7v-2.7h9.5V113.7z"/>
		<path id="XMLID_713_" class="st11" d="M270.4,122.2h-5l-0.8,2.4h-3.4l4.9-13.4h3.8l4.9,13.4h-3.5L270.4,122.2z M267.9,114.8
			l-1.6,4.9h3.3L267.9,114.8z"/>
		<path id="XMLID_709_" class="st11" d="M282.4,124.6h-6.3v-13.4h6c2.7,0,4.4,1.4,4.4,3.5c0,1.6-1,2.7-2.3,3.1
			c1.6,0.3,2.6,1.7,2.6,3.2C286.8,123.2,285.2,124.6,282.4,124.6z M281.6,113.8h-2.1v2.8h2.1c1.1,0,1.7-0.5,1.7-1.4
			C283.2,114.3,282.6,113.8,281.6,113.8z M281.8,119h-2.4v3h2.4c1.1,0,1.7-0.5,1.7-1.5S282.9,119,281.8,119z"/>
		<path id="XMLID_705_" class="st11" d="M297.1,122.2h-5l-0.8,2.4h-3.4l4.9-13.4h3.8l4.9,13.4h-3.5L297.1,122.2z M296.8,105.9v2.5
			l-4.6,1.9v-2.3L296.8,105.9z M294.6,114.8l-1.6,4.9h3.3L294.6,114.8z"/>
		<path id="XMLID_703_" class="st11" d="M307.7,124.7c-2.9,0-5.1-1.4-5.2-4.1h3.5c0.1,1,0.7,1.5,1.7,1.5c1,0,1.6-0.5,1.6-1.3
			c0-2.5-6.7-1.1-6.7-5.9c0-2.5,2.1-4,4.9-4c2.9,0,4.9,1.5,5,4h-3.5c-0.1-0.9-0.7-1.4-1.5-1.4c-0.8,0-1.4,0.4-1.4,1.2
			c0,2.3,6.6,1.3,6.6,5.8C312.6,122.9,310.8,124.7,307.7,124.7z"/>
	</g>
</g>
<polyline id="XMLID_20_" class="st15" points="339.3,159.9 311.6,132.3 172.2,132.3 "/>
</svg>
