<?xml version="1.0" encoding="utf-8"?>
<!-- Generator: Adobe Illustrator 19.0.0, SVG Export Plug-In . SVG Version: 6.00 Build 0)  -->
<svg version="1.1" id="Layer_1" xmlns="http://www.w3.org/2000/svg" xmlns:xlink="http://www.w3.org/1999/xlink" x="0px" y="0px"
	 viewBox="0 0 29 28.7" style="enable-background:new 0 0 29 28.7;" xml:space="preserve">
<style type="text/css">
	.st0{opacity:0.41;}
	.st1{fill:#A9C6EA;}
</style>
<g id="XMLID_650_" class="st0">
	<g id="XMLID_131_">
		<path id="XMLID_134_" class="st1" d="M23.5,4.3h-18c-1.1,0-2,0.9-2,2v16c0,1.1,0.9,2,2,2h18c1.1,0,2-0.9,2-2v-16
			C25.5,5.2,24.6,4.3,23.5,4.3z M23.5,8.3h-8v-2h8L23.5,8.3z M10.5,8.3v-2h3v2H10.5z M8.5,6.3v2h-3v-2H8.5z M5.5,22.3v-12h18l0,12
			H5.5z"/>
		<rect id="XMLID_133_" x="15.5" y="17.3" class="st1" width="5" height="2"/>
		<polygon id="XMLID_132_" class="st1" points="8.8,14 11.1,16.3 8.8,18.6 10.2,20 13.9,16.3 10.2,12.6 		"/>
	</g>
</g>
</svg>
