<svg width="40" height="59" viewBox="0 0 40 59" fill="none" xmlns="http://www.w3.org/2000/svg">
<g clip-path="url(#clip0)">
<path d="M38.2958 0H27.0376L20.1077 3.13438L19.9941 3.08828V30.9635H27.6851L39.784 8.93066C39.9203 8.67715 39.9998 8.38906 39.9998 8.08945V1.72852C39.9998 0.77207 39.2387 0 38.2958 0Z" fill="#16497D"/>
<path d="M12.9622 0H1.70406C0.761147 0 0 0.77207 0 1.72852V8.08945C0 8.38906 0.0795229 8.67715 0.215848 8.93066L12.3147 30.952H19.9943V3.08828L12.9622 0Z" fill="#64D2F3"/>
<path d="M12.9619 0V32.1389H20.0054L21.6867 16.951L19.994 0H12.9619Z" fill="#00AEEF"/>
<path d="M19.9941 0H27.0376V32.1389H19.9941V0Z" fill="#00AEEF"/>
<path d="M4.94141 43.7199C4.94141 52.1435 11.6895 59 19.9939 59L21.6753 44.4804L19.9939 28.4398C11.6895 28.4398 4.94141 35.2963 4.94141 43.7199Z" fill="white"/>
<path d="M19.9941 28.4398V59C28.2986 59 35.058 52.1435 35.058 43.7199C35.058 35.2963 28.31 28.4398 19.9941 28.4398Z" fill="#E6E6E6"/>
</g>
<defs>
<clipPath id="clip0">
<rect width="40" height="59" fill="white"/>
</clipPath>
</defs>
</svg>
