<svg width="587" height="205" viewBox="0 0 587 205" fill="none" xmlns="http://www.w3.org/2000/svg">
<path d="M69.9157 139.98C107.869 139.98 138.636 109.176 138.636 71.1763C138.636 33.1769 107.869 2.37231 69.9157 2.37231C31.9627 2.37231 1.1958 33.1769 1.1958 71.1763C1.1958 109.176 31.9627 139.98 69.9157 139.98Z" stroke="#00AEEF" stroke-miterlimit="10"/>
<path d="M46.6173 81.6049L45.3643 80.7424" stroke="white" stroke-linecap="round" stroke-linejoin="round"/>
<path d="M45.3643 80.7422C45.1785 80.4352 45.0834 80.0818 45.0902 79.7229" stroke="white" stroke-linecap="round" stroke-linejoin="round"/>
<path d="M45.0903 79.7228V59.3364" stroke="white" stroke-linecap="round" stroke-linejoin="round"/>
<path d="M45.0903 59.3366C45.1329 58.6001 45.3461 57.8837 45.7131 57.2441C46.0801 56.6044 46.5908 56.0591 47.2048 55.6514" stroke="white" stroke-linecap="round" stroke-linejoin="round"/>
<path d="M47.2437 55.6118L75.9455 39.0283" stroke="white" stroke-linecap="round" stroke-linejoin="round"/>
<path d="M75.9458 39.0285C76.1566 38.8705 76.4063 38.7725 76.6682 38.7449C76.9301 38.7172 77.1947 38.7611 77.4338 38.8717" stroke="white" stroke-linecap="round" stroke-linejoin="round"/>
<path d="M77.4336 38.9109L78.7258 39.7734" stroke="white" stroke-linecap="round" stroke-linejoin="round"/>
<path d="M78.7258 39.7735C78.4867 39.6629 78.2221 39.6191 77.9602 39.6467C77.6983 39.6743 77.4486 39.7723 77.2378 39.9304" stroke="white" stroke-linecap="round" stroke-linejoin="round"/>
<path d="M77.1989 39.8911L48.4971 56.4746" stroke="white" stroke-linecap="round" stroke-linejoin="round"/>
<path d="M48.4968 56.4746C47.8802 56.8797 47.3676 57.4243 47.0002 58.0645C46.6329 58.7047 46.4212 59.4225 46.3823 60.1598" stroke="white" stroke-linecap="round" stroke-linejoin="round"/>
<path d="M46.3824 60.199L46.3433 80.5853" stroke="white" stroke-linecap="round" stroke-linejoin="round"/>
<path d="M46.3431 80.5854C46.3363 80.9443 46.4314 81.2978 46.6172 81.6048" stroke="white" stroke-linecap="round" stroke-linejoin="round"/>
<path d="M77.1987 39.8909C78.3734 39.2244 79.3132 39.7733 79.3132 41.1062" stroke="white" stroke-linecap="round" stroke-linejoin="round"/>
<path d="M79.3521 41.1455L79.313 61.5319" stroke="white" stroke-linecap="round" stroke-linejoin="round"/>
<path d="M79.3132 61.532C79.2706 62.2684 79.0574 62.9848 78.6904 63.6245C78.3234 64.2641 77.8127 64.8094 77.1987 65.2172" stroke="white" stroke-linecap="round" stroke-linejoin="round"/>
<path d="M77.1986 65.2566L76.2197 65.7271" stroke="white" stroke-linecap="round" stroke-linejoin="round"/>
<path d="M48.4577 81.7617C47.283 82.4282 46.3433 81.9186 46.3433 80.5464" stroke="white" stroke-linecap="round" stroke-linejoin="round"/>
<path d="M99.0479 77.4883V79.0565" stroke="white" stroke-linecap="round" stroke-linejoin="round"/>
<path d="M99.048 79.0564C98.8959 79.481 98.5878 79.8315 98.1865 80.0365" stroke="white" stroke-linecap="round" stroke-linejoin="round"/>
<path d="M98.1865 80.0366L69.3672 96.6986" stroke="white" stroke-linecap="round" stroke-linejoin="round"/>
<path d="M69.3671 96.6985C68.7524 97.0277 68.0672 97.2025 67.3701 97.2081" stroke="white" stroke-linecap="round" stroke-linejoin="round"/>
<path d="M65.0992 96.6984L47.4004 86.4268" stroke="white" stroke-linecap="round" stroke-linejoin="round"/>
<path d="M47.4005 86.4269C46.9992 86.2219 46.6912 85.8713 46.5391 85.4468" stroke="white" stroke-linecap="round" stroke-linejoin="round"/>
<path d="M46.5391 85.4468V83.8787" stroke="white" stroke-linecap="round" stroke-linejoin="round"/>
<path d="M46.5391 83.8787C46.6012 84.0957 46.7108 84.2962 46.8597 84.4657C47.0087 84.6352 47.1934 84.7694 47.4005 84.8588" stroke="white" stroke-linecap="round" stroke-linejoin="round"/>
<path d="M47.4004 84.8979L65.0992 95.1303" stroke="white" stroke-linecap="round" stroke-linejoin="round"/>
<path d="M67.3701 95.64C68.0665 95.6292 68.7505 95.4546 69.3671 95.1304" stroke="white" stroke-linecap="round" stroke-linejoin="round"/>
<path d="M69.3672 95.1302L98.1865 78.4683" stroke="white" stroke-linecap="round" stroke-linejoin="round"/>
<path d="M98.1865 78.4684C98.5878 78.2634 98.8959 77.9128 99.048 77.4883" stroke="white" stroke-linecap="round" stroke-linejoin="round"/>
<path d="M47.4004 82.389L76.2197 65.7271" stroke="white" stroke-linecap="round" stroke-linejoin="round"/>
<path d="M76.2197 65.727C76.8832 65.3983 77.6135 65.2273 78.3538 65.2273C79.094 65.2273 79.8243 65.3983 80.4878 65.727" stroke="white" stroke-linecap="round" stroke-linejoin="round"/>
<path d="M80.4878 65.7271L98.1866 75.9986" stroke="white" stroke-linecap="round" stroke-linejoin="round"/>
<path d="M98.1865 75.9985C99.3612 76.665 99.3612 77.802 98.1865 78.4684" stroke="white" stroke-linecap="round" stroke-linejoin="round"/>
<path d="M47.4006 84.8976C46.2259 84.2311 46.2259 83.0942 47.4006 82.4277" stroke="white" stroke-linecap="round" stroke-linejoin="round"/>
<path d="M77.7856 88.0341L85.6561 83.4472L81.2314 80.9773L73.3218 85.525L77.7856 88.0341Z" stroke="white" stroke-linecap="round" stroke-linejoin="round"/>
<path d="M51.0029 82.9767L77.1987 67.8045C77.552 67.6305 77.9405 67.54 78.3343 67.54C78.728 67.54 79.1165 67.6305 79.4698 67.8045" stroke="white" stroke-linecap="round" stroke-linejoin="round"/>
<path d="M79.4697 67.8438L88.3974 73.0187" stroke="white" stroke-linecap="round" stroke-linejoin="round"/>
<path d="M88.3975 73.0188C89.024 73.3716 89.024 73.9989 88.3975 74.3518C79.6656 79.4091 70.9337 84.4535 62.2017 89.4847C61.8484 89.6587 61.4599 89.7492 61.0662 89.7492C60.6725 89.7492 60.284 89.6587 59.9307 89.4847" stroke="white" stroke-linecap="round" stroke-linejoin="round"/>
<path d="M59.9306 89.4846L51.0029 84.3096" stroke="white" stroke-linecap="round" stroke-linejoin="round"/>
<path d="M51.0026 84.31C50.3761 83.9572 50.3761 83.3691 51.0026 82.9771" stroke="white" stroke-linecap="round" stroke-linejoin="round"/>
<path d="M67.4093 97.2083V95.6401H67.3701" stroke="white" stroke-linecap="round" stroke-linejoin="round"/>
<path d="M67.3702 95.64C66.5817 95.6723 65.7985 95.4966 65.0991 95.1304" stroke="white" stroke-linecap="round" stroke-linejoin="round"/>
<path d="M65.0991 96.6985C65.8 97.0606 66.582 97.2361 67.3702 97.2081" stroke="white" stroke-linecap="round" stroke-linejoin="round"/>
<path d="M67.3701 97.208H67.4089" stroke="white" stroke-linecap="round" stroke-linejoin="round"/>
<path d="M293.892 138.804C331.845 138.804 362.612 107.999 362.612 70C362.612 32.0006 331.845 1.19604 293.892 1.19604C255.939 1.19604 225.172 32.0006 225.172 70C225.172 107.999 255.939 138.804 293.892 138.804Z" stroke="#00AEEF" stroke-miterlimit="10"/>
<path d="M322.816 60.7506L295.211 45.5L273.91 57.7318L301.515 72.9824L322.816 60.7506Z" stroke="white" stroke-linecap="round" stroke-linejoin="round"/>
<path d="M273.91 59.1038V57.7317L301.515 72.9823V80.4311L300.34 79.7646" stroke="white" stroke-linecap="round" stroke-linejoin="round"/>
<path d="M322.816 60.7502L301.515 72.9821V80.4309L322.816 68.1991V60.7502Z" stroke="white" stroke-linecap="round" stroke-linejoin="round"/>
<path d="M300.34 73.6881L272.735 58.4375L266 62.3188L293.605 77.5693L300.34 73.6881Z" stroke="white" stroke-linecap="round" stroke-linejoin="round"/>
<path d="M293.605 77.5692L266 62.3186V69.8851L293.605 85.1357V77.5692Z" stroke="white" stroke-linecap="round" stroke-linejoin="round"/>
<path d="M300.34 73.6877L293.605 77.569V85.1355L300.301 81.2542L300.34 73.6877Z" stroke="white" stroke-linecap="round" stroke-linejoin="round"/>
<path d="M320.78 69.3752L322.816 70.5122L301.515 82.744L299.596 81.6855" stroke="white" stroke-linecap="round" stroke-linejoin="round"/>
<path d="M299.596 81.6858L301.515 82.7443V90.1932L300.34 89.5267" stroke="white" stroke-linecap="round" stroke-linejoin="round"/>
<path d="M322.816 70.5127L301.515 82.7445V90.1934L322.816 77.9616V70.5127Z" stroke="white" stroke-linecap="round" stroke-linejoin="round"/>
<path d="M298.422 82.3521L300.34 83.4499L293.605 87.3311L266 72.0413L267.919 70.9436" stroke="white" stroke-linecap="round" stroke-linejoin="round"/>
<path d="M293.605 87.3313L266 72.0415V79.6472L293.605 94.8977V87.3313Z" stroke="white" stroke-linecap="round" stroke-linejoin="round"/>
<path d="M300.34 83.4502L293.605 87.3315V94.8979L300.301 91.0167L300.34 83.4502Z" stroke="white" stroke-linecap="round" stroke-linejoin="round"/>
<path d="M517.084 138.804C555.037 138.804 585.804 107.999 585.804 70C585.804 32.0006 555.037 1.19604 517.084 1.19604C479.131 1.19604 448.364 32.0006 448.364 70C448.364 107.999 479.131 138.804 517.084 138.804Z" stroke="#00AEEF" stroke-miterlimit="10"/>
<path d="M540.148 75.5672H540.03C539.994 75.5476 539.954 75.5374 539.913 75.5374C539.872 75.5374 539.831 75.5476 539.795 75.5672C539.74 75.5613 539.685 75.5752 539.639 75.6064C539.55 75.6211 539.469 75.6621 539.404 75.724" stroke="white" stroke-linecap="round" stroke-linejoin="round"/>
<path d="M540.5 76.351C540.515 76.2105 540.494 76.0685 540.439 75.9383C540.384 75.8081 540.298 75.6938 540.187 75.6061C540.056 75.5412 539.91 75.5141 539.765 75.5279C539.619 75.5418 539.481 75.596 539.365 75.6845" stroke="white" stroke-linecap="round" stroke-linejoin="round"/>
<path d="M517.045 97.1689C517.029 97.3136 517.053 97.4599 517.115 97.5915C517.178 97.7231 517.275 97.8347 517.397 97.9138C517.515 97.9769 517.649 98.0032 517.781 97.9892C517.914 97.9752 518.039 97.9216 518.141 97.8354" stroke="white" stroke-linecap="round" stroke-linejoin="round"/>
<path d="M537.211 83.4862L539.208 82.31V79.9578L537.211 81.1339V83.4862Z" stroke="white" stroke-linecap="round" stroke-linejoin="round"/>
<path d="M533.765 85.4466L535.801 84.2705V81.9182L533.765 83.0944V85.4466Z" stroke="white" stroke-linecap="round" stroke-linejoin="round"/>
<path d="M540.187 64.4723C540.141 64.4412 540.086 64.4273 540.03 64.4331C539.797 64.3979 539.558 64.454 539.365 64.59" stroke="white" stroke-linecap="round" stroke-linejoin="round"/>
<path d="M539.364 64.5505L530.202 69.8432L518.22 76.7824" stroke="white" stroke-linecap="round" stroke-linejoin="round"/>
<path d="M517.398 77.6449L503.066 69.3727L493.747 64.0017" stroke="white" stroke-linecap="round" stroke-linejoin="round"/>
<path d="M540.5 65.2172C540.515 65.0767 540.494 64.9347 540.439 64.8045C540.384 64.6743 540.298 64.56 540.187 64.4723C540.056 64.4074 539.91 64.3803 539.765 64.3942C539.619 64.408 539.481 64.4622 539.365 64.5507" stroke="white" stroke-linecap="round" stroke-linejoin="round"/>
<path d="M517.045 86.0347C517.029 86.1793 517.053 86.3257 517.115 86.4572C517.178 86.5888 517.275 86.7004 517.397 86.7796C517.515 86.8426 517.649 86.8689 517.781 86.8549C517.914 86.8409 518.039 86.7873 518.141 86.7011" stroke="white" stroke-linecap="round" stroke-linejoin="round"/>
<path d="M537.211 72.3521L539.208 71.176V68.8237L537.211 69.9999V72.3521Z" stroke="white" stroke-linecap="round" stroke-linejoin="round"/>
<path d="M533.765 74.3123L535.801 73.1362V70.7839L533.765 71.9601V74.3123Z" stroke="white" stroke-linecap="round" stroke-linejoin="round"/>
<path d="M540.5 53.8478C540.515 53.7073 540.494 53.5653 540.439 53.4351C540.384 53.3049 540.298 53.1906 540.187 53.1029C540.056 53.038 539.91 53.0109 539.765 53.0248C539.619 53.0386 539.481 53.0929 539.365 53.1814" stroke="white" stroke-linecap="round" stroke-linejoin="round"/>
<path d="M517.045 74.665C517.029 74.8097 517.053 74.956 517.115 75.0876C517.178 75.2191 517.275 75.3308 517.397 75.4099C517.515 75.473 517.649 75.4992 517.781 75.4853C517.914 75.4713 518.039 75.4177 518.141 75.3315" stroke="white" stroke-linecap="round" stroke-linejoin="round"/>
<path d="M537.211 61.0222L539.208 59.8461V57.4546L537.211 58.6699V61.0222Z" stroke="white" stroke-linecap="round" stroke-linejoin="round"/>
<path d="M533.765 62.9824L535.801 61.8063V59.4148L533.765 60.5909V62.9824Z" stroke="white" stroke-linecap="round" stroke-linejoin="round"/>
<path d="M540.148 75.567L538.777 74.783" stroke="white" stroke-linecap="round" stroke-linejoin="round"/>
<path d="M540.186 75.6057L540.147 75.5669" stroke="white" stroke-linecap="round" stroke-linejoin="round"/>
<path d="M539.364 75.6848L518.22 87.9166" stroke="white" stroke-linecap="round" stroke-linejoin="round"/>
<path d="M518.22 87.9165C517.871 88.1219 517.586 88.4206 517.397 88.779" stroke="white" stroke-linecap="round" stroke-linejoin="round"/>
<path d="M517.398 88.7788L493.747 75.0964" stroke="white" stroke-linecap="round" stroke-linejoin="round"/>
<path d="M493.747 75.0966C493.947 74.7462 494.229 74.4501 494.569 74.2341" stroke="white" stroke-linecap="round" stroke-linejoin="round"/>
<path d="M494.569 74.2732L495.157 73.9204" stroke="white" stroke-linecap="round" stroke-linejoin="round"/>
<path d="M517.398 88.7788C517.17 89.1143 517.048 89.5101 517.045 89.9157" stroke="white" stroke-linecap="round" stroke-linejoin="round"/>
<path d="M517.045 89.916V97.1689" stroke="white" stroke-linecap="round" stroke-linejoin="round"/>
<path d="M518.181 97.8352L539.364 85.5642" stroke="white" stroke-linecap="round" stroke-linejoin="round"/>
<path d="M539.365 85.5644C539.699 85.3449 539.976 85.0493 540.173 84.7016C540.371 84.354 540.483 83.9644 540.5 83.5649" stroke="white" stroke-linecap="round" stroke-linejoin="round"/>
<path d="M540.5 83.6039V76.3511" stroke="white" stroke-linecap="round" stroke-linejoin="round"/>
<path d="M493.747 75.0964C493.548 75.445 493.428 75.8331 493.395 76.2334" stroke="white" stroke-linecap="round" stroke-linejoin="round"/>
<path d="M493.395 76.2334V83.4862" stroke="white" stroke-linecap="round" stroke-linejoin="round"/>
<path d="M493.395 83.4863C493.399 83.628 493.433 83.7672 493.494 83.8953C493.554 84.0234 493.641 84.1377 493.747 84.2312" stroke="white" stroke-linecap="round" stroke-linejoin="round"/>
<path d="M493.747 84.2314L517.398 97.9138" stroke="white" stroke-linecap="round" stroke-linejoin="round"/>
<path d="M538.582 63.5706L540.187 64.4723" stroke="white" stroke-linecap="round" stroke-linejoin="round"/>
<path d="M518.22 76.7822C517.871 76.9876 517.586 77.2863 517.397 77.6447" stroke="white" stroke-linecap="round" stroke-linejoin="round"/>
<path d="M493.747 64.0017C493.936 63.6432 494.221 63.3446 494.569 63.1392" stroke="white" stroke-linecap="round" stroke-linejoin="round"/>
<path d="M494.569 63.1394L495.313 62.6689" stroke="white" stroke-linecap="round" stroke-linejoin="round"/>
<path d="M517.398 77.645C517.17 77.9806 517.048 78.3763 517.045 78.7819" stroke="white" stroke-linecap="round" stroke-linejoin="round"/>
<path d="M517.045 78.7815V86.0343" stroke="white" stroke-linecap="round" stroke-linejoin="round"/>
<path d="M518.181 86.7012L539.364 74.4302" stroke="white" stroke-linecap="round" stroke-linejoin="round"/>
<path d="M539.365 74.4301C539.705 74.2137 539.987 73.9177 540.187 73.5676" stroke="white" stroke-linecap="round" stroke-linejoin="round"/>
<path d="M540.187 73.6067C540.386 73.2605 540.494 72.8692 540.5 72.4697" stroke="white" stroke-linecap="round" stroke-linejoin="round"/>
<path d="M540.5 72.4699V65.217" stroke="white" stroke-linecap="round" stroke-linejoin="round"/>
<path d="M493.747 64.0017C493.554 64.3528 493.434 64.7397 493.395 65.1386" stroke="white" stroke-linecap="round" stroke-linejoin="round"/>
<path d="M493.395 65.0996V72.3524" stroke="white" stroke-linecap="round" stroke-linejoin="round"/>
<path d="M493.395 72.3523C493.399 72.494 493.433 72.6331 493.494 72.7612C493.554 72.8893 493.641 73.0037 493.747 73.0972" stroke="white" stroke-linecap="round" stroke-linejoin="round"/>
<path d="M493.747 73.0972L517.398 86.7796" stroke="white" stroke-linecap="round" stroke-linejoin="round"/>
<path d="M517.398 86.7796C517.272 86.7043 517.171 86.5933 517.108 86.4607C517.046 86.3281 517.024 86.1798 517.045 86.0347" stroke="white" stroke-linecap="round" stroke-linejoin="round"/>
<path d="M540.187 53.1423L516.536 39.46" stroke="white" stroke-linecap="round" stroke-linejoin="round"/>
<path d="M516.536 39.4599C516.405 39.3949 516.259 39.3679 516.114 39.3817C515.969 39.3956 515.83 39.4498 515.714 39.5383" stroke="white" stroke-linecap="round" stroke-linejoin="round"/>
<path d="M515.714 39.5381L494.569 51.7699" stroke="white" stroke-linecap="round" stroke-linejoin="round"/>
<path d="M494.569 51.77C494.212 51.9651 493.925 52.2665 493.747 52.6325" stroke="white" stroke-linecap="round" stroke-linejoin="round"/>
<path d="M493.747 52.6323L517.398 66.3147" stroke="white" stroke-linecap="round" stroke-linejoin="round"/>
<path d="M517.397 66.3147C517.557 65.961 517.815 65.6613 518.141 65.4521" stroke="white" stroke-linecap="round" stroke-linejoin="round"/>
<path d="M518.181 65.4524L539.364 53.1814" stroke="white" stroke-linecap="round" stroke-linejoin="round"/>
<path d="M517.398 66.3149C517.17 66.6505 517.048 67.0463 517.045 67.4519" stroke="white" stroke-linecap="round" stroke-linejoin="round"/>
<path d="M517.045 67.4517V74.6653" stroke="white" stroke-linecap="round" stroke-linejoin="round"/>
<path d="M518.181 75.3317L539.364 63.0999" stroke="white" stroke-linecap="round" stroke-linejoin="round"/>
<path d="M539.365 63.0998C539.705 62.8834 539.987 62.5873 540.187 62.2373" stroke="white" stroke-linecap="round" stroke-linejoin="round"/>
<path d="M540.187 62.2375C540.386 61.8913 540.494 61.5001 540.5 61.1006" stroke="white" stroke-linecap="round" stroke-linejoin="round"/>
<path d="M540.5 61.1007V53.8479" stroke="white" stroke-linecap="round" stroke-linejoin="round"/>
<path d="M493.747 52.6323C493.548 52.9809 493.428 53.369 493.395 53.7693" stroke="white" stroke-linecap="round" stroke-linejoin="round"/>
<path d="M493.395 53.7693V61.0221" stroke="white" stroke-linecap="round" stroke-linejoin="round"/>
<path d="M493.395 61.0225C493.399 61.1641 493.433 61.3033 493.494 61.4314C493.554 61.5595 493.641 61.6738 493.747 61.7673" stroke="white" stroke-linecap="round" stroke-linejoin="round"/>
<path d="M493.747 61.7671L517.398 75.4103" stroke="white" stroke-linecap="round" stroke-linejoin="round"/>
<path d="M517.398 75.4099C517.272 75.3347 517.171 75.2237 517.108 75.0911C517.046 74.9585 517.024 74.8102 517.045 74.665" stroke="white" stroke-linecap="round" stroke-linejoin="round"/>
<path d="M519.12 69.8434L531.846 62.4729" stroke="white" stroke-linecap="round" stroke-linejoin="round"/>
<path d="M519.12 81.2125L531.846 73.842" stroke="white" stroke-linecap="round" stroke-linejoin="round"/>
<path d="M519.12 92.3465L531.846 84.9761" stroke="white" stroke-linecap="round" stroke-linejoin="round"/>
<path d="M365.94 67.6477H438.987" stroke="#00AEEF" stroke-width="3" stroke-miterlimit="10"/>
<path d="M445.624 67.6479L436.273 71.4743L438.493 67.6479L436.273 63.8254L445.624 67.6479Z" fill="#00AEEF"/>
<path d="M141.964 67.2559H215.011" stroke="#00AEEF" stroke-width="3" stroke-miterlimit="10"/>
<path d="M221.647 67.2556L212.297 71.0819L214.517 67.2556L212.297 63.4331L221.647 67.2556Z" fill="#00AEEF"/>
<path d="M25.7754 175.356C25.7754 174.722 25.5342 174.231 25.0518 173.884C24.5778 173.528 23.7441 173.224 22.5508 172.97C21.3659 172.716 20.4222 172.411 19.7197 172.056C19.0257 171.7 18.5094 171.277 18.1709 170.786C17.8408 170.295 17.6758 169.711 17.6758 169.034C17.6758 167.909 18.1497 166.956 19.0977 166.178C20.054 165.399 21.2728 165.01 22.7539 165.01C24.3112 165.01 25.5723 165.412 26.5371 166.216C27.5104 167.02 27.9971 168.048 27.9971 169.301H25.6357C25.6357 168.658 25.3607 168.103 24.8105 167.638C24.2689 167.172 23.5833 166.939 22.7539 166.939C21.8991 166.939 21.2305 167.126 20.748 167.498C20.2656 167.87 20.0244 168.357 20.0244 168.958C20.0244 169.525 20.2487 169.952 20.6973 170.24C21.1458 170.528 21.9541 170.803 23.1221 171.065C24.2985 171.328 25.2507 171.641 25.9785 172.005C26.7064 172.369 27.2438 172.809 27.5908 173.325C27.9463 173.833 28.124 174.455 28.124 175.191C28.124 176.419 27.6331 177.405 26.6514 178.149C25.6696 178.886 24.3958 179.254 22.8301 179.254C21.7298 179.254 20.7565 179.059 19.9102 178.67C19.0638 178.281 18.3994 177.739 17.917 177.045C17.443 176.342 17.2061 175.585 17.2061 174.772H19.5547C19.597 175.56 19.9102 176.186 20.4941 176.651C21.0866 177.108 21.8652 177.337 22.8301 177.337C23.7188 177.337 24.4297 177.159 24.9629 176.804C25.5046 176.44 25.7754 175.957 25.7754 175.356ZM35.6777 175.56L38.877 165.264H41.3906L35.8682 181.12C35.0133 183.405 33.6549 184.548 31.793 184.548L31.3486 184.51L30.4727 184.345V182.44L31.1074 182.491C31.903 182.491 32.5208 182.33 32.9609 182.009C33.4095 181.687 33.7777 181.099 34.0654 180.244L34.5859 178.848L29.6855 165.264H32.25L35.6777 175.56ZM51.4961 175.356C51.4961 174.722 51.2549 174.231 50.7725 173.884C50.2985 173.528 49.4648 173.224 48.2715 172.97C47.0866 172.716 46.1429 172.411 45.4404 172.056C44.7464 171.7 44.2301 171.277 43.8916 170.786C43.5615 170.295 43.3965 169.711 43.3965 169.034C43.3965 167.909 43.8704 166.956 44.8184 166.178C45.7747 165.399 46.9935 165.01 48.4746 165.01C50.0319 165.01 51.293 165.412 52.2578 166.216C53.2311 167.02 53.7178 168.048 53.7178 169.301H51.3564C51.3564 168.658 51.0814 168.103 50.5312 167.638C49.9896 167.172 49.304 166.939 48.4746 166.939C47.6198 166.939 46.9512 167.126 46.4688 167.498C45.9863 167.87 45.7451 168.357 45.7451 168.958C45.7451 169.525 45.9694 169.952 46.418 170.24C46.8665 170.528 47.6748 170.803 48.8428 171.065C50.0192 171.328 50.9714 171.641 51.6992 172.005C52.4271 172.369 52.9645 172.809 53.3115 173.325C53.667 173.833 53.8447 174.455 53.8447 175.191C53.8447 176.419 53.3538 177.405 52.3721 178.149C51.3903 178.886 50.1165 179.254 48.5508 179.254C47.4505 179.254 46.4772 179.059 45.6309 178.67C44.7845 178.281 44.1201 177.739 43.6377 177.045C43.1637 176.342 42.9268 175.585 42.9268 174.772H45.2754C45.3177 175.56 45.6309 176.186 46.2148 176.651C46.8073 177.108 47.5859 177.337 48.5508 177.337C49.4395 177.337 50.1504 177.159 50.6836 176.804C51.2253 176.44 51.4961 175.957 51.4961 175.356ZM59.4561 179H57.1074V159.5H59.4561V179ZM62.6045 172.005C62.6045 170.659 62.8669 169.449 63.3916 168.374C63.9248 167.299 64.6611 166.47 65.6006 165.886C66.5485 165.302 67.6276 165.01 68.8379 165.01C70.7083 165.01 72.2191 165.657 73.3701 166.952C74.5296 168.247 75.1094 169.969 75.1094 172.119V172.284C75.1094 173.621 74.8512 174.823 74.335 175.89C73.8271 176.948 73.0951 177.773 72.1387 178.365C71.1908 178.958 70.099 179.254 68.8633 179.254C67.0013 179.254 65.4906 178.606 64.3311 177.312C63.18 176.017 62.6045 174.303 62.6045 172.17V172.005ZM64.9658 172.284C64.9658 173.808 65.3171 175.031 66.0195 175.953C66.7305 176.876 67.6784 177.337 68.8633 177.337C70.0566 177.337 71.0046 176.871 71.707 175.94C72.4095 175.001 72.7607 173.689 72.7607 172.005C72.7607 170.498 72.401 169.28 71.6816 168.349C70.9707 167.409 70.0228 166.939 68.8379 166.939C67.6784 166.939 66.7432 167.401 66.0322 168.323C65.3213 169.246 64.9658 170.566 64.9658 172.284ZM77.4961 172.018C77.4961 169.876 77.9912 168.175 78.9814 166.914C79.9717 165.645 81.2835 165.01 82.917 165.01C84.5928 165.01 85.9004 165.602 86.8398 166.787L86.9541 165.264H89.0996V178.67C89.0996 180.447 88.5706 181.848 87.5127 182.872C86.4632 183.896 85.0498 184.408 83.2725 184.408C82.2822 184.408 81.3132 184.197 80.3652 183.773C79.4173 183.35 78.6937 182.771 78.1943 182.034L79.4131 180.625C80.4202 181.869 81.6517 182.491 83.1074 182.491C84.25 182.491 85.1387 182.17 85.7734 181.526C86.4167 180.883 86.7383 179.978 86.7383 178.81V177.629C85.7988 178.712 84.5166 179.254 82.8916 179.254C81.2835 179.254 79.9801 178.606 78.9814 177.312C77.9912 176.017 77.4961 174.252 77.4961 172.018ZM79.8574 172.284C79.8574 173.833 80.1748 175.052 80.8096 175.94C81.4443 176.821 82.333 177.261 83.4756 177.261C84.9567 177.261 86.0443 176.588 86.7383 175.242V168.971C86.0189 167.659 84.9398 167.003 83.501 167.003C82.3584 167.003 81.4655 167.447 80.8223 168.336C80.179 169.225 79.8574 170.541 79.8574 172.284ZM97.542 172.106H91.3467V170.189H97.542V172.106ZM102.062 165.264L102.138 166.99C103.187 165.67 104.558 165.01 106.251 165.01C109.154 165.01 110.618 166.647 110.644 169.923V179H108.295V169.91C108.286 168.92 108.058 168.188 107.609 167.714C107.169 167.24 106.479 167.003 105.54 167.003C104.778 167.003 104.11 167.206 103.534 167.612C102.959 168.019 102.51 168.552 102.188 169.212V179H99.8398V165.264H102.062ZM113.627 172.018C113.627 169.876 114.122 168.175 115.112 166.914C116.103 165.645 117.414 165.01 119.048 165.01C120.724 165.01 122.031 165.602 122.971 166.787L123.085 165.264H125.23V178.67C125.23 180.447 124.701 181.848 123.644 182.872C122.594 183.896 121.181 184.408 119.403 184.408C118.413 184.408 117.444 184.197 116.496 183.773C115.548 183.35 114.825 182.771 114.325 182.034L115.544 180.625C116.551 181.869 117.783 182.491 119.238 182.491C120.381 182.491 121.27 182.17 121.904 181.526C122.548 180.883 122.869 179.978 122.869 178.81V177.629C121.93 178.712 120.647 179.254 119.022 179.254C117.414 179.254 116.111 178.606 115.112 177.312C114.122 176.017 113.627 174.252 113.627 172.018ZM115.988 172.284C115.988 173.833 116.306 175.052 116.94 175.94C117.575 176.821 118.464 177.261 119.606 177.261C121.088 177.261 122.175 176.588 122.869 175.242V168.971C122.15 167.659 121.071 167.003 119.632 167.003C118.489 167.003 117.596 167.447 116.953 168.336C116.31 169.225 115.988 170.541 115.988 172.284Z" fill="#E6E6E6"/>
<path d="M246.775 173.356C246.775 172.722 246.534 172.231 246.052 171.884C245.578 171.528 244.744 171.224 243.551 170.97C242.366 170.716 241.422 170.411 240.72 170.056C240.026 169.7 239.509 169.277 239.171 168.786C238.841 168.295 238.676 167.711 238.676 167.034C238.676 165.909 239.15 164.956 240.098 164.178C241.054 163.399 242.273 163.01 243.754 163.01C245.311 163.01 246.572 163.412 247.537 164.216C248.51 165.02 248.997 166.048 248.997 167.301H246.636C246.636 166.658 246.361 166.103 245.811 165.638C245.269 165.172 244.583 164.939 243.754 164.939C242.899 164.939 242.23 165.126 241.748 165.498C241.266 165.87 241.024 166.357 241.024 166.958C241.024 167.525 241.249 167.952 241.697 168.24C242.146 168.528 242.954 168.803 244.122 169.065C245.299 169.328 246.251 169.641 246.979 170.005C247.706 170.369 248.244 170.809 248.591 171.325C248.946 171.833 249.124 172.455 249.124 173.191C249.124 174.419 248.633 175.405 247.651 176.149C246.67 176.886 245.396 177.254 243.83 177.254C242.73 177.254 241.757 177.059 240.91 176.67C240.064 176.281 239.399 175.739 238.917 175.045C238.443 174.342 238.206 173.585 238.206 172.772H240.555C240.597 173.56 240.91 174.186 241.494 174.651C242.087 175.108 242.865 175.337 243.83 175.337C244.719 175.337 245.43 175.159 245.963 174.804C246.505 174.44 246.775 173.957 246.775 173.356ZM256.678 173.56L259.877 163.264H262.391L256.868 179.12C256.013 181.405 254.655 182.548 252.793 182.548L252.349 182.51L251.473 182.345V180.44L252.107 180.491C252.903 180.491 253.521 180.33 253.961 180.009C254.41 179.687 254.778 179.099 255.065 178.244L255.586 176.848L250.686 163.264H253.25L256.678 173.56ZM272.496 173.356C272.496 172.722 272.255 172.231 271.772 171.884C271.299 171.528 270.465 171.224 269.271 170.97C268.087 170.716 267.143 170.411 266.44 170.056C265.746 169.7 265.23 169.277 264.892 168.786C264.562 168.295 264.396 167.711 264.396 167.034C264.396 165.909 264.87 164.956 265.818 164.178C266.775 163.399 267.993 163.01 269.475 163.01C271.032 163.01 272.293 163.412 273.258 164.216C274.231 165.02 274.718 166.048 274.718 167.301H272.356C272.356 166.658 272.081 166.103 271.531 165.638C270.99 165.172 270.304 164.939 269.475 164.939C268.62 164.939 267.951 165.126 267.469 165.498C266.986 165.87 266.745 166.357 266.745 166.958C266.745 167.525 266.969 167.952 267.418 168.24C267.867 168.528 268.675 168.803 269.843 169.065C271.019 169.328 271.971 169.641 272.699 170.005C273.427 170.369 273.965 170.809 274.312 171.325C274.667 171.833 274.845 172.455 274.845 173.191C274.845 174.419 274.354 175.405 273.372 176.149C272.39 176.886 271.117 177.254 269.551 177.254C268.451 177.254 267.477 177.059 266.631 176.67C265.785 176.281 265.12 175.739 264.638 175.045C264.164 174.342 263.927 173.585 263.927 172.772H266.275C266.318 173.56 266.631 174.186 267.215 174.651C267.807 175.108 268.586 175.337 269.551 175.337C270.439 175.337 271.15 175.159 271.684 174.804C272.225 174.44 272.496 173.957 272.496 173.356ZM280.456 177H278.107V157.5H280.456V177ZM283.604 170.005C283.604 168.659 283.867 167.449 284.392 166.374C284.925 165.299 285.661 164.47 286.601 163.886C287.549 163.302 288.628 163.01 289.838 163.01C291.708 163.01 293.219 163.657 294.37 164.952C295.53 166.247 296.109 167.969 296.109 170.119V170.284C296.109 171.621 295.851 172.823 295.335 173.89C294.827 174.948 294.095 175.773 293.139 176.365C292.191 176.958 291.099 177.254 289.863 177.254C288.001 177.254 286.491 176.606 285.331 175.312C284.18 174.017 283.604 172.303 283.604 170.17V170.005ZM285.966 170.284C285.966 171.808 286.317 173.031 287.02 173.953C287.73 174.876 288.678 175.337 289.863 175.337C291.057 175.337 292.005 174.871 292.707 173.94C293.41 173.001 293.761 171.689 293.761 170.005C293.761 168.498 293.401 167.28 292.682 166.349C291.971 165.409 291.023 164.939 289.838 164.939C288.678 164.939 287.743 165.401 287.032 166.323C286.321 167.246 285.966 168.566 285.966 170.284ZM298.496 170.018C298.496 167.876 298.991 166.175 299.981 164.914C300.972 163.645 302.284 163.01 303.917 163.01C305.593 163.01 306.9 163.602 307.84 164.787L307.954 163.264H310.1V176.67C310.1 178.447 309.571 179.848 308.513 180.872C307.463 181.896 306.05 182.408 304.272 182.408C303.282 182.408 302.313 182.197 301.365 181.773C300.417 181.35 299.694 180.771 299.194 180.034L300.413 178.625C301.42 179.869 302.652 180.491 304.107 180.491C305.25 180.491 306.139 180.17 306.773 179.526C307.417 178.883 307.738 177.978 307.738 176.81V175.629C306.799 176.712 305.517 177.254 303.892 177.254C302.284 177.254 300.98 176.606 299.981 175.312C298.991 174.017 298.496 172.252 298.496 170.018ZM300.857 170.284C300.857 171.833 301.175 173.052 301.81 173.94C302.444 174.821 303.333 175.261 304.476 175.261C305.957 175.261 307.044 174.588 307.738 173.242V166.971C307.019 165.659 305.94 165.003 304.501 165.003C303.358 165.003 302.465 165.447 301.822 166.336C301.179 167.225 300.857 168.541 300.857 170.284ZM318.542 170.106H312.347V168.189H318.542V170.106ZM323.062 163.264L323.138 164.99C324.187 163.67 325.558 163.01 327.251 163.01C330.154 163.01 331.618 164.647 331.644 167.923V177H329.295V167.91C329.286 166.92 329.058 166.188 328.609 165.714C328.169 165.24 327.479 165.003 326.54 165.003C325.778 165.003 325.11 165.206 324.534 165.612C323.959 166.019 323.51 166.552 323.188 167.212V177H320.84V163.264H323.062ZM334.627 170.018C334.627 167.876 335.122 166.175 336.112 164.914C337.103 163.645 338.414 163.01 340.048 163.01C341.724 163.01 343.031 163.602 343.971 164.787L344.085 163.264H346.23V176.67C346.23 178.447 345.701 179.848 344.644 180.872C343.594 181.896 342.181 182.408 340.403 182.408C339.413 182.408 338.444 182.197 337.496 181.773C336.548 181.35 335.825 180.771 335.325 180.034L336.544 178.625C337.551 179.869 338.783 180.491 340.238 180.491C341.381 180.491 342.27 180.17 342.904 179.526C343.548 178.883 343.869 177.978 343.869 176.81V175.629C342.93 176.712 341.647 177.254 340.022 177.254C338.414 177.254 337.111 176.606 336.112 175.312C335.122 174.017 334.627 172.252 334.627 170.018ZM336.988 170.284C336.988 171.833 337.306 173.052 337.94 173.94C338.575 174.821 339.464 175.261 340.606 175.261C342.088 175.261 343.175 174.588 343.869 173.242V166.971C343.15 165.659 342.071 165.003 340.632 165.003C339.489 165.003 338.596 165.447 337.953 166.336C337.31 167.225 336.988 168.541 336.988 170.284Z" fill="#E6E6E6"/>
<path d="M469.775 172.356C469.775 171.722 469.534 171.231 469.052 170.884C468.578 170.528 467.744 170.224 466.551 169.97C465.366 169.716 464.422 169.411 463.72 169.056C463.026 168.7 462.509 168.277 462.171 167.786C461.841 167.295 461.676 166.711 461.676 166.034C461.676 164.909 462.15 163.956 463.098 163.178C464.054 162.399 465.273 162.01 466.754 162.01C468.311 162.01 469.572 162.412 470.537 163.216C471.51 164.02 471.997 165.048 471.997 166.301H469.636C469.636 165.658 469.361 165.103 468.811 164.638C468.269 164.172 467.583 163.939 466.754 163.939C465.899 163.939 465.23 164.126 464.748 164.498C464.266 164.87 464.024 165.357 464.024 165.958C464.024 166.525 464.249 166.952 464.697 167.24C465.146 167.528 465.954 167.803 467.122 168.065C468.299 168.328 469.251 168.641 469.979 169.005C470.706 169.369 471.244 169.809 471.591 170.325C471.946 170.833 472.124 171.455 472.124 172.191C472.124 173.419 471.633 174.405 470.651 175.149C469.67 175.886 468.396 176.254 466.83 176.254C465.73 176.254 464.757 176.059 463.91 175.67C463.064 175.281 462.399 174.739 461.917 174.045C461.443 173.342 461.206 172.585 461.206 171.772H463.555C463.597 172.56 463.91 173.186 464.494 173.651C465.087 174.108 465.865 174.337 466.83 174.337C467.719 174.337 468.43 174.159 468.963 173.804C469.505 173.44 469.775 172.957 469.775 172.356ZM479.678 172.56L482.877 162.264H485.391L479.868 178.12C479.013 180.405 477.655 181.548 475.793 181.548L475.349 181.51L474.473 181.345V179.44L475.107 179.491C475.903 179.491 476.521 179.33 476.961 179.009C477.41 178.687 477.778 178.099 478.065 177.244L478.586 175.848L473.686 162.264H476.25L479.678 172.56ZM495.496 172.356C495.496 171.722 495.255 171.231 494.772 170.884C494.299 170.528 493.465 170.224 492.271 169.97C491.087 169.716 490.143 169.411 489.44 169.056C488.746 168.7 488.23 168.277 487.892 167.786C487.562 167.295 487.396 166.711 487.396 166.034C487.396 164.909 487.87 163.956 488.818 163.178C489.775 162.399 490.993 162.01 492.475 162.01C494.032 162.01 495.293 162.412 496.258 163.216C497.231 164.02 497.718 165.048 497.718 166.301H495.356C495.356 165.658 495.081 165.103 494.531 164.638C493.99 164.172 493.304 163.939 492.475 163.939C491.62 163.939 490.951 164.126 490.469 164.498C489.986 164.87 489.745 165.357 489.745 165.958C489.745 166.525 489.969 166.952 490.418 167.24C490.867 167.528 491.675 167.803 492.843 168.065C494.019 168.328 494.971 168.641 495.699 169.005C496.427 169.369 496.965 169.809 497.312 170.325C497.667 170.833 497.845 171.455 497.845 172.191C497.845 173.419 497.354 174.405 496.372 175.149C495.39 175.886 494.117 176.254 492.551 176.254C491.451 176.254 490.477 176.059 489.631 175.67C488.785 175.281 488.12 174.739 487.638 174.045C487.164 173.342 486.927 172.585 486.927 171.772H489.275C489.318 172.56 489.631 173.186 490.215 173.651C490.807 174.108 491.586 174.337 492.551 174.337C493.439 174.337 494.15 174.159 494.684 173.804C495.225 173.44 495.496 172.957 495.496 172.356ZM503.456 176H501.107V156.5H503.456V176ZM506.604 169.005C506.604 167.659 506.867 166.449 507.392 165.374C507.925 164.299 508.661 163.47 509.601 162.886C510.549 162.302 511.628 162.01 512.838 162.01C514.708 162.01 516.219 162.657 517.37 163.952C518.53 165.247 519.109 166.969 519.109 169.119V169.284C519.109 170.621 518.851 171.823 518.335 172.89C517.827 173.948 517.095 174.773 516.139 175.365C515.191 175.958 514.099 176.254 512.863 176.254C511.001 176.254 509.491 175.606 508.331 174.312C507.18 173.017 506.604 171.303 506.604 169.17V169.005ZM508.966 169.284C508.966 170.808 509.317 172.031 510.02 172.953C510.73 173.876 511.678 174.337 512.863 174.337C514.057 174.337 515.005 173.871 515.707 172.94C516.41 172.001 516.761 170.689 516.761 169.005C516.761 167.498 516.401 166.28 515.682 165.349C514.971 164.409 514.023 163.939 512.838 163.939C511.678 163.939 510.743 164.401 510.032 165.323C509.321 166.246 508.966 167.566 508.966 169.284ZM521.496 169.018C521.496 166.876 521.991 165.175 522.981 163.914C523.972 162.645 525.284 162.01 526.917 162.01C528.593 162.01 529.9 162.602 530.84 163.787L530.954 162.264H533.1V175.67C533.1 177.447 532.571 178.848 531.513 179.872C530.463 180.896 529.05 181.408 527.272 181.408C526.282 181.408 525.313 181.197 524.365 180.773C523.417 180.35 522.694 179.771 522.194 179.034L523.413 177.625C524.42 178.869 525.652 179.491 527.107 179.491C528.25 179.491 529.139 179.17 529.773 178.526C530.417 177.883 530.738 176.978 530.738 175.81V174.629C529.799 175.712 528.517 176.254 526.892 176.254C525.284 176.254 523.98 175.606 522.981 174.312C521.991 173.017 521.496 171.252 521.496 169.018ZM523.857 169.284C523.857 170.833 524.175 172.052 524.81 172.94C525.444 173.821 526.333 174.261 527.476 174.261C528.957 174.261 530.044 173.588 530.738 172.242V165.971C530.019 164.659 528.94 164.003 527.501 164.003C526.358 164.003 525.465 164.447 524.822 165.336C524.179 166.225 523.857 167.541 523.857 169.284ZM541.542 169.106H535.347V167.189H541.542V169.106ZM546.062 162.264L546.138 163.99C547.187 162.67 548.558 162.01 550.251 162.01C553.154 162.01 554.618 163.647 554.644 166.923V176H552.295V166.91C552.286 165.92 552.058 165.188 551.609 164.714C551.169 164.24 550.479 164.003 549.54 164.003C548.778 164.003 548.11 164.206 547.534 164.612C546.959 165.019 546.51 165.552 546.188 166.212V176H543.84V162.264H546.062ZM557.627 169.018C557.627 166.876 558.122 165.175 559.112 163.914C560.103 162.645 561.414 162.01 563.048 162.01C564.724 162.01 566.031 162.602 566.971 163.787L567.085 162.264H569.23V175.67C569.23 177.447 568.701 178.848 567.644 179.872C566.594 180.896 565.181 181.408 563.403 181.408C562.413 181.408 561.444 181.197 560.496 180.773C559.548 180.35 558.825 179.771 558.325 179.034L559.544 177.625C560.551 178.869 561.783 179.491 563.238 179.491C564.381 179.491 565.27 179.17 565.904 178.526C566.548 177.883 566.869 176.978 566.869 175.81V174.629C565.93 175.712 564.647 176.254 563.022 176.254C561.414 176.254 560.111 175.606 559.112 174.312C558.122 173.017 557.627 171.252 557.627 169.018ZM559.988 169.284C559.988 170.833 560.306 172.052 560.94 172.94C561.575 173.821 562.464 174.261 563.606 174.261C565.088 174.261 566.175 173.588 566.869 172.242V165.971C566.15 164.659 565.071 164.003 563.632 164.003C562.489 164.003 561.596 164.447 560.953 165.336C560.31 166.225 559.988 167.541 559.988 169.284Z" fill="#E6E6E6"/>
<path d="M27.62 199V187.192H29.114V193.114H29.168L34.082 187.192H35.774L32.084 191.692L36.35 199H34.676L31.148 192.862L29.114 195.256V199H27.62ZM39.4658 199.216C38.9018 199.216 38.4998 199.048 38.2598 198.712C38.0198 198.376 37.8998 197.884 37.8998 197.236V186.184H39.3758V197.344C39.3758 197.584 39.4178 197.752 39.5018 197.848C39.5858 197.944 39.6818 197.992 39.7898 197.992C39.8378 197.992 39.8798 197.992 39.9158 197.992C39.9638 197.992 40.0298 197.98 40.1138 197.956L40.3118 199.072C40.2158 199.12 40.1018 199.156 39.9698 199.18C39.8378 199.204 39.6698 199.216 39.4658 199.216ZM42.4877 199V190.252H43.9637V199H42.4877ZM43.2437 188.452C42.9557 188.452 42.7097 188.362 42.5057 188.182C42.3137 188.002 42.2177 187.774 42.2177 187.498C42.2177 187.21 42.3137 186.982 42.5057 186.814C42.7097 186.634 42.9557 186.544 43.2437 186.544C43.5317 186.544 43.7717 186.634 43.9637 186.814C44.1677 186.982 44.2697 187.21 44.2697 187.498C44.2697 187.774 44.1677 188.002 43.9637 188.182C43.7717 188.362 43.5317 188.452 43.2437 188.452ZM50.4634 199.216C49.8754 199.216 49.3234 199.114 48.8074 198.91C48.3034 198.694 47.8594 198.394 47.4754 198.01C47.1034 197.614 46.8094 197.134 46.5934 196.57C46.3774 196.006 46.2694 195.364 46.2694 194.644C46.2694 193.924 46.3774 193.282 46.5934 192.718C46.8214 192.142 47.1154 191.656 47.4754 191.26C47.8474 190.864 48.2674 190.564 48.7354 190.36C49.2034 190.144 49.6894 190.036 50.1934 190.036C50.7454 190.036 51.2374 190.132 51.6694 190.324C52.1134 190.516 52.4794 190.792 52.7674 191.152C53.0674 191.512 53.2954 191.944 53.4514 192.448C53.6074 192.952 53.6854 193.516 53.6854 194.14C53.6854 194.296 53.6794 194.452 53.6674 194.608C53.6674 194.752 53.6554 194.878 53.6314 194.986H47.7274C47.7874 195.922 48.0754 196.666 48.5914 197.218C49.1194 197.758 49.8034 198.028 50.6434 198.028C51.0634 198.028 51.4474 197.968 51.7954 197.848C52.1554 197.716 52.4974 197.548 52.8214 197.344L53.3434 198.316C52.9594 198.556 52.5334 198.766 52.0654 198.946C51.5974 199.126 51.0634 199.216 50.4634 199.216ZM47.7094 193.924H52.3894C52.3894 193.036 52.1974 192.364 51.8134 191.908C51.4414 191.44 50.9134 191.206 50.2294 191.206C49.9174 191.206 49.6174 191.266 49.3294 191.386C49.0534 191.506 48.8014 191.686 48.5734 191.926C48.3454 192.154 48.1534 192.436 47.9974 192.772C47.8534 193.108 47.7574 193.492 47.7094 193.924ZM55.8471 199V190.252H57.0711L57.1971 191.512H57.2511C57.6711 191.092 58.1091 190.744 58.5651 190.468C59.0331 190.18 59.5731 190.036 60.1851 190.036C61.1091 190.036 61.7811 190.324 62.2011 190.9C62.6331 191.476 62.8491 192.328 62.8491 193.456V199H61.3731V193.654C61.3731 192.826 61.2411 192.232 60.9771 191.872C60.7131 191.5 60.2931 191.314 59.7171 191.314C59.2611 191.314 58.8591 191.428 58.5111 191.656C58.1631 191.884 57.7671 192.22 57.3231 192.664V199H55.8471ZM67.9768 199.216C67.3528 199.216 66.7588 199.102 66.1948 198.874C65.6308 198.646 65.1388 198.358 64.7188 198.01L65.4568 197.02C65.8408 197.332 66.2308 197.584 66.6268 197.776C67.0348 197.968 67.5028 198.064 68.0308 198.064C68.6068 198.064 69.0388 197.932 69.3268 197.668C69.6148 197.404 69.7588 197.08 69.7588 196.696C69.7588 196.468 69.6988 196.27 69.5788 196.102C69.4588 195.934 69.3028 195.79 69.1108 195.67C68.9308 195.538 68.7208 195.424 68.4808 195.328C68.2408 195.232 68.0008 195.136 67.7608 195.04C67.4488 194.932 67.1368 194.812 66.8248 194.68C66.5128 194.536 66.2308 194.368 65.9788 194.176C65.7388 193.972 65.5408 193.738 65.3848 193.474C65.2288 193.21 65.1508 192.892 65.1508 192.52C65.1508 192.172 65.2168 191.848 65.3488 191.548C65.4928 191.236 65.6908 190.972 65.9428 190.756C66.2068 190.528 66.5248 190.354 66.8968 190.234C67.2688 190.102 67.6888 190.036 68.1568 190.036C68.7088 190.036 69.2128 190.132 69.6688 190.324C70.1368 190.516 70.5388 190.75 70.8748 191.026L70.1728 191.962C69.8728 191.734 69.5608 191.548 69.2368 191.404C68.9128 191.26 68.5588 191.188 68.1748 191.188C67.6228 191.188 67.2148 191.314 66.9508 191.566C66.6988 191.818 66.5728 192.112 66.5728 192.448C66.5728 192.652 66.6268 192.832 66.7348 192.988C66.8428 193.132 66.9868 193.264 67.1668 193.384C67.3468 193.492 67.5508 193.594 67.7788 193.69C68.0188 193.774 68.2648 193.864 68.5168 193.96C68.8288 194.08 69.1408 194.206 69.4528 194.338C69.7768 194.47 70.0648 194.638 70.3168 194.842C70.5688 195.034 70.7728 195.274 70.9288 195.562C71.0968 195.85 71.1808 196.198 71.1808 196.606C71.1808 196.966 71.1088 197.302 70.9648 197.614C70.8328 197.926 70.6288 198.202 70.3528 198.442C70.0888 198.682 69.7528 198.868 69.3448 199C68.9488 199.144 68.4928 199.216 67.9768 199.216ZM76.8354 199V190.252H78.0594L78.1854 191.512H78.2394C78.6234 191.092 79.0374 190.744 79.4814 190.468C79.9374 190.18 80.4294 190.036 80.9574 190.036C81.6294 190.036 82.1514 190.186 82.5234 190.486C82.9074 190.774 83.1894 191.182 83.3694 191.71C83.8254 191.206 84.2814 190.804 84.7374 190.504C85.2054 190.192 85.7094 190.036 86.2494 190.036C87.1494 190.036 87.8154 190.324 88.2474 190.9C88.6914 191.476 88.9134 192.328 88.9134 193.456V199H87.4374V193.654C87.4374 192.826 87.3054 192.232 87.0414 191.872C86.7774 191.5 86.3694 191.314 85.8174 191.314C85.1574 191.314 84.4254 191.764 83.6214 192.664V199H82.1454V193.654C82.1454 192.826 82.0134 192.232 81.7494 191.872C81.4854 191.5 81.0714 191.314 80.5074 191.314C79.8474 191.314 79.1154 191.764 78.3114 192.664V199H76.8354ZM95.1612 199.216C94.6212 199.216 94.1052 199.114 93.6132 198.91C93.1332 198.706 92.7072 198.412 92.3352 198.028C91.9632 197.632 91.6632 197.152 91.4352 196.588C91.2192 196.012 91.1112 195.364 91.1112 194.644C91.1112 193.912 91.2192 193.264 91.4352 192.7C91.6632 192.124 91.9632 191.638 92.3352 191.242C92.7072 190.846 93.1332 190.546 93.6132 190.342C94.1052 190.138 94.6212 190.036 95.1612 190.036C95.7012 190.036 96.2112 190.138 96.6912 190.342C97.1832 190.546 97.6152 190.846 97.9872 191.242C98.3592 191.638 98.6532 192.124 98.8692 192.7C99.0972 193.264 99.2112 193.912 99.2112 194.644C99.2112 195.364 99.0972 196.012 98.8692 196.588C98.6532 197.152 98.3592 197.632 97.9872 198.028C97.6152 198.412 97.1832 198.706 96.6912 198.91C96.2112 199.114 95.7012 199.216 95.1612 199.216ZM95.1612 197.992C95.5332 197.992 95.8752 197.914 96.1872 197.758C96.4992 197.59 96.7632 197.362 96.9792 197.074C97.2072 196.774 97.3812 196.42 97.5012 196.012C97.6212 195.604 97.6812 195.148 97.6812 194.644C97.6812 194.14 97.6212 193.684 97.5012 193.276C97.3812 192.856 97.2072 192.496 96.9792 192.196C96.7632 191.896 96.4992 191.668 96.1872 191.512C95.8752 191.344 95.5332 191.26 95.1612 191.26C94.7892 191.26 94.4472 191.344 94.1352 191.512C93.8232 191.668 93.5532 191.896 93.3252 192.196C93.1092 192.496 92.9412 192.856 92.8212 193.276C92.7012 193.684 92.6412 194.14 92.6412 194.644C92.6412 195.148 92.7012 195.604 92.8212 196.012C92.9412 196.42 93.1092 196.774 93.3252 197.074C93.5532 197.362 93.8232 197.59 94.1352 197.758C94.4472 197.914 94.7892 197.992 95.1612 197.992ZM94.9092 188.686L94.1532 187.948L96.6912 184.942L97.7352 185.932L94.9092 188.686ZM104.503 199.216C103.399 199.216 102.517 198.82 101.857 198.028C101.209 197.236 100.885 196.108 100.885 194.644C100.885 193.936 100.987 193.3 101.191 192.736C101.407 192.16 101.689 191.674 102.037 191.278C102.385 190.882 102.787 190.576 103.243 190.36C103.699 190.144 104.179 190.036 104.683 190.036C105.187 190.036 105.625 190.126 105.997 190.306C106.369 190.486 106.747 190.732 107.131 191.044L107.059 189.55V186.184H108.553V199H107.329L107.203 197.974H107.149C106.801 198.31 106.399 198.604 105.943 198.856C105.499 199.096 105.019 199.216 104.503 199.216ZM104.827 197.974C105.235 197.974 105.619 197.878 105.979 197.686C106.339 197.482 106.699 197.176 107.059 196.768V192.196C106.687 191.86 106.327 191.626 105.979 191.494C105.643 191.35 105.295 191.278 104.935 191.278C104.587 191.278 104.257 191.362 103.945 191.53C103.645 191.686 103.381 191.914 103.153 192.214C102.925 192.502 102.745 192.85 102.613 193.258C102.481 193.666 102.415 194.122 102.415 194.626C102.415 195.682 102.625 196.504 103.045 197.092C103.465 197.68 104.059 197.974 104.827 197.974Z" fill="#E6E6E6"/>
<path d="M252.62 197.5V185.692H256.31C256.91 185.692 257.462 185.752 257.966 185.872C258.482 185.98 258.92 186.166 259.28 186.43C259.652 186.694 259.94 187.036 260.144 187.456C260.348 187.876 260.45 188.392 260.45 189.004C260.45 189.928 260.21 190.666 259.73 191.218C259.25 191.77 258.602 192.148 257.786 192.352L260.792 197.5H259.1L256.256 192.514H254.114V197.5H252.62ZM254.114 191.29H256.094C257.018 191.29 257.726 191.104 258.218 190.732C258.71 190.348 258.956 189.772 258.956 189.004C258.956 188.224 258.71 187.678 258.218 187.366C257.726 187.054 257.018 186.898 256.094 186.898H254.114V191.29ZM266.094 197.716C265.506 197.716 264.954 197.614 264.438 197.41C263.934 197.194 263.49 196.894 263.106 196.51C262.734 196.114 262.44 195.634 262.224 195.07C262.008 194.506 261.9 193.864 261.9 193.144C261.9 192.424 262.008 191.782 262.224 191.218C262.452 190.642 262.746 190.156 263.106 189.76C263.478 189.364 263.898 189.064 264.366 188.86C264.834 188.644 265.32 188.536 265.824 188.536C266.376 188.536 266.868 188.632 267.3 188.824C267.744 189.016 268.11 189.292 268.398 189.652C268.698 190.012 268.926 190.444 269.082 190.948C269.238 191.452 269.316 192.016 269.316 192.64C269.316 192.796 269.31 192.952 269.298 193.108C269.298 193.252 269.286 193.378 269.262 193.486H263.358C263.418 194.422 263.706 195.166 264.222 195.718C264.75 196.258 265.434 196.528 266.274 196.528C266.694 196.528 267.078 196.468 267.426 196.348C267.786 196.216 268.128 196.048 268.452 195.844L268.974 196.816C268.59 197.056 268.164 197.266 267.696 197.446C267.228 197.626 266.694 197.716 266.094 197.716ZM263.34 192.424H268.02C268.02 191.536 267.828 190.864 267.444 190.408C267.072 189.94 266.544 189.706 265.86 189.706C265.548 189.706 265.248 189.766 264.96 189.886C264.684 190.006 264.432 190.186 264.204 190.426C263.976 190.654 263.784 190.936 263.628 191.272C263.484 191.608 263.388 191.992 263.34 192.424ZM273.044 197.716C272.48 197.716 272.078 197.548 271.838 197.212C271.598 196.876 271.478 196.384 271.478 195.736V184.684H272.954V195.844C272.954 196.084 272.996 196.252 273.08 196.348C273.164 196.444 273.26 196.492 273.368 196.492C273.416 196.492 273.458 196.492 273.494 196.492C273.542 196.492 273.608 196.48 273.692 196.456L273.89 197.572C273.794 197.62 273.68 197.656 273.548 197.68C273.416 197.704 273.248 197.716 273.044 197.716ZM278.082 197.716C277.35 197.716 276.738 197.5 276.246 197.068C275.766 196.636 275.526 196.024 275.526 195.232C275.526 194.272 275.952 193.54 276.804 193.036C277.656 192.52 279.018 192.16 280.89 191.956C280.89 191.68 280.86 191.41 280.8 191.146C280.752 190.882 280.662 190.648 280.53 190.444C280.398 190.24 280.212 190.078 279.972 189.958C279.744 189.826 279.45 189.76 279.09 189.76C278.586 189.76 278.112 189.856 277.668 190.048C277.224 190.24 276.828 190.456 276.48 190.696L275.904 189.67C276.312 189.406 276.81 189.154 277.398 188.914C277.986 188.662 278.634 188.536 279.342 188.536C280.41 188.536 281.184 188.866 281.664 189.526C282.144 190.174 282.384 191.044 282.384 192.136V197.5H281.16L281.034 196.456H280.98C280.56 196.804 280.11 197.104 279.63 197.356C279.15 197.596 278.634 197.716 278.082 197.716ZM278.514 196.528C278.934 196.528 279.33 196.432 279.702 196.24C280.074 196.036 280.47 195.742 280.89 195.358V192.928C280.158 193.024 279.54 193.138 279.036 193.27C278.544 193.402 278.142 193.558 277.83 193.738C277.53 193.918 277.308 194.128 277.164 194.368C277.032 194.596 276.966 194.848 276.966 195.124C276.966 195.628 277.116 195.988 277.416 196.204C277.716 196.42 278.082 196.528 278.514 196.528ZM285.28 201.262C285.076 201.262 284.89 201.244 284.722 201.208C284.554 201.184 284.398 201.142 284.254 201.082L284.542 199.912C284.638 199.936 284.746 199.96 284.866 199.984C284.986 200.02 285.1 200.038 285.208 200.038C285.712 200.038 286.12 199.858 286.432 199.498C286.756 199.15 287.008 198.706 287.188 198.166L287.386 197.518L283.876 188.752H285.406L287.188 193.594C287.32 193.978 287.458 194.386 287.602 194.818C287.758 195.238 287.902 195.652 288.034 196.06H288.106C288.238 195.664 288.364 195.25 288.484 194.818C288.604 194.386 288.724 193.978 288.844 193.594L290.41 188.752H291.85L288.556 198.22C288.4 198.652 288.226 199.054 288.034 199.426C287.842 199.798 287.614 200.116 287.35 200.38C287.086 200.656 286.786 200.872 286.45 201.028C286.114 201.184 285.724 201.262 285.28 201.262ZM297.142 197.5V188.752H298.366L298.492 190.012H298.546C298.93 189.592 299.344 189.244 299.788 188.968C300.244 188.68 300.736 188.536 301.264 188.536C301.936 188.536 302.458 188.686 302.83 188.986C303.214 189.274 303.496 189.682 303.676 190.21C304.132 189.706 304.588 189.304 305.044 189.004C305.512 188.692 306.016 188.536 306.556 188.536C307.456 188.536 308.122 188.824 308.554 189.4C308.998 189.976 309.22 190.828 309.22 191.956V197.5H307.744V192.154C307.744 191.326 307.612 190.732 307.348 190.372C307.084 190 306.676 189.814 306.124 189.814C305.464 189.814 304.732 190.264 303.928 191.164V197.5H302.452V192.154C302.452 191.326 302.32 190.732 302.056 190.372C301.792 190 301.378 189.814 300.814 189.814C300.154 189.814 299.422 190.264 298.618 191.164V197.5H297.142ZM315.468 197.716C314.928 197.716 314.412 197.614 313.92 197.41C313.44 197.206 313.014 196.912 312.642 196.528C312.27 196.132 311.97 195.652 311.742 195.088C311.526 194.512 311.418 193.864 311.418 193.144C311.418 192.412 311.526 191.764 311.742 191.2C311.97 190.624 312.27 190.138 312.642 189.742C313.014 189.346 313.44 189.046 313.92 188.842C314.412 188.638 314.928 188.536 315.468 188.536C316.008 188.536 316.518 188.638 316.998 188.842C317.49 189.046 317.922 189.346 318.294 189.742C318.666 190.138 318.96 190.624 319.176 191.2C319.404 191.764 319.518 192.412 319.518 193.144C319.518 193.864 319.404 194.512 319.176 195.088C318.96 195.652 318.666 196.132 318.294 196.528C317.922 196.912 317.49 197.206 316.998 197.41C316.518 197.614 316.008 197.716 315.468 197.716ZM315.468 196.492C315.84 196.492 316.182 196.414 316.494 196.258C316.806 196.09 317.07 195.862 317.286 195.574C317.514 195.274 317.688 194.92 317.808 194.512C317.928 194.104 317.988 193.648 317.988 193.144C317.988 192.64 317.928 192.184 317.808 191.776C317.688 191.356 317.514 190.996 317.286 190.696C317.07 190.396 316.806 190.168 316.494 190.012C316.182 189.844 315.84 189.76 315.468 189.76C315.096 189.76 314.754 189.844 314.442 190.012C314.13 190.168 313.86 190.396 313.632 190.696C313.416 190.996 313.248 191.356 313.128 191.776C313.008 192.184 312.948 192.64 312.948 193.144C312.948 193.648 313.008 194.104 313.128 194.512C313.248 194.92 313.416 195.274 313.632 195.574C313.86 195.862 314.13 196.09 314.442 196.258C314.754 196.414 315.096 196.492 315.468 196.492ZM315.216 187.186L314.46 186.448L316.998 183.442L318.042 184.432L315.216 187.186ZM324.81 197.716C323.706 197.716 322.824 197.32 322.164 196.528C321.516 195.736 321.192 194.608 321.192 193.144C321.192 192.436 321.294 191.8 321.498 191.236C321.714 190.66 321.996 190.174 322.344 189.778C322.692 189.382 323.094 189.076 323.55 188.86C324.006 188.644 324.486 188.536 324.99 188.536C325.494 188.536 325.932 188.626 326.304 188.806C326.676 188.986 327.054 189.232 327.438 189.544L327.366 188.05V184.684H328.86V197.5H327.636L327.51 196.474H327.456C327.108 196.81 326.706 197.104 326.25 197.356C325.806 197.596 325.326 197.716 324.81 197.716ZM325.134 196.474C325.542 196.474 325.926 196.378 326.286 196.186C326.646 195.982 327.006 195.676 327.366 195.268V190.696C326.994 190.36 326.634 190.126 326.286 189.994C325.95 189.85 325.602 189.778 325.242 189.778C324.894 189.778 324.564 189.862 324.252 190.03C323.952 190.186 323.688 190.414 323.46 190.714C323.232 191.002 323.052 191.35 322.92 191.758C322.788 192.166 322.722 192.622 322.722 193.126C322.722 194.182 322.932 195.004 323.352 195.592C323.772 196.18 324.366 196.474 325.134 196.474Z" fill="#E6E6E6"/>
<path d="M469.896 196.216C469.068 196.216 468.3 196.06 467.592 195.748C466.884 195.436 466.272 195.01 465.756 194.47L466.656 193.426C467.076 193.87 467.568 194.23 468.132 194.506C468.708 194.77 469.302 194.902 469.914 194.902C470.694 194.902 471.3 194.728 471.732 194.38C472.164 194.02 472.38 193.552 472.38 192.976C472.38 192.676 472.326 192.424 472.218 192.22C472.122 192.004 471.984 191.824 471.804 191.68C471.636 191.524 471.432 191.386 471.192 191.266C470.952 191.146 470.694 191.02 470.418 190.888L468.726 190.15C468.45 190.03 468.168 189.886 467.88 189.718C467.592 189.55 467.334 189.346 467.106 189.106C466.878 188.866 466.692 188.584 466.548 188.26C466.404 187.924 466.332 187.54 466.332 187.108C466.332 186.664 466.422 186.25 466.602 185.866C466.794 185.482 467.052 185.152 467.376 184.876C467.712 184.588 468.102 184.366 468.546 184.21C469.002 184.054 469.5 183.976 470.04 183.976C470.748 183.976 471.402 184.114 472.002 184.39C472.602 184.654 473.112 185.002 473.532 185.434L472.722 186.406C472.362 186.058 471.96 185.788 471.516 185.596C471.084 185.392 470.592 185.29 470.04 185.29C469.38 185.29 468.846 185.446 468.438 185.758C468.042 186.058 467.844 186.478 467.844 187.018C467.844 187.306 467.898 187.552 468.006 187.756C468.126 187.948 468.282 188.122 468.474 188.278C468.666 188.422 468.876 188.554 469.104 188.674C469.332 188.782 469.566 188.884 469.806 188.98L471.48 189.7C471.816 189.844 472.134 190.012 472.434 190.204C472.734 190.384 472.992 190.6 473.208 190.852C473.424 191.092 473.592 191.38 473.712 191.716C473.844 192.04 473.91 192.418 473.91 192.85C473.91 193.318 473.814 193.756 473.622 194.164C473.442 194.572 473.178 194.932 472.83 195.244C472.482 195.544 472.062 195.784 471.57 195.964C471.078 196.132 470.52 196.216 469.896 196.216ZM475.173 196V195.208L479.781 188.458H475.677V187.252H481.653V188.044L477.045 194.794H481.797V196H475.173ZM487.108 196.216C486.52 196.216 485.968 196.114 485.452 195.91C484.948 195.694 484.504 195.394 484.12 195.01C483.748 194.614 483.454 194.134 483.238 193.57C483.022 193.006 482.914 192.364 482.914 191.644C482.914 190.924 483.022 190.282 483.238 189.718C483.466 189.142 483.76 188.656 484.12 188.26C484.492 187.864 484.912 187.564 485.38 187.36C485.848 187.144 486.334 187.036 486.838 187.036C487.39 187.036 487.882 187.132 488.314 187.324C488.758 187.516 489.124 187.792 489.412 188.152C489.712 188.512 489.94 188.944 490.096 189.448C490.252 189.952 490.33 190.516 490.33 191.14C490.33 191.296 490.324 191.452 490.312 191.608C490.312 191.752 490.3 191.878 490.276 191.986H484.372C484.432 192.922 484.72 193.666 485.236 194.218C485.764 194.758 486.448 195.028 487.288 195.028C487.708 195.028 488.092 194.968 488.44 194.848C488.8 194.716 489.142 194.548 489.466 194.344L489.988 195.316C489.604 195.556 489.178 195.766 488.71 195.946C488.242 196.126 487.708 196.216 487.108 196.216ZM484.354 190.924H489.034C489.034 190.036 488.842 189.364 488.458 188.908C488.086 188.44 487.558 188.206 486.874 188.206C486.562 188.206 486.262 188.266 485.974 188.386C485.698 188.506 485.446 188.686 485.218 188.926C484.99 189.154 484.798 189.436 484.642 189.772C484.498 190.108 484.402 190.492 484.354 190.924ZM492.492 196V187.252H493.716L493.842 188.836H493.896C494.196 188.284 494.556 187.846 494.976 187.522C495.408 187.198 495.876 187.036 496.38 187.036C496.728 187.036 497.04 187.096 497.316 187.216L497.028 188.512C496.884 188.464 496.752 188.428 496.632 188.404C496.512 188.38 496.362 188.368 496.182 188.368C495.81 188.368 495.42 188.518 495.012 188.818C494.616 189.118 494.268 189.64 493.968 190.384V196H492.492ZM501.079 196L497.929 187.252H499.459L501.115 192.22C501.247 192.652 501.379 193.084 501.511 193.516C501.655 193.948 501.793 194.374 501.925 194.794H501.997C502.129 194.374 502.261 193.948 502.393 193.516C502.525 193.084 502.657 192.652 502.789 192.22L504.445 187.252H505.903L502.807 196H501.079ZM511.067 196.216C510.479 196.216 509.927 196.114 509.411 195.91C508.907 195.694 508.463 195.394 508.079 195.01C507.707 194.614 507.413 194.134 507.197 193.57C506.981 193.006 506.873 192.364 506.873 191.644C506.873 190.924 506.981 190.282 507.197 189.718C507.425 189.142 507.719 188.656 508.079 188.26C508.451 187.864 508.871 187.564 509.339 187.36C509.807 187.144 510.293 187.036 510.797 187.036C511.349 187.036 511.841 187.132 512.273 187.324C512.717 187.516 513.083 187.792 513.371 188.152C513.671 188.512 513.899 188.944 514.055 189.448C514.211 189.952 514.289 190.516 514.289 191.14C514.289 191.296 514.283 191.452 514.271 191.608C514.271 191.752 514.259 191.878 514.235 191.986H508.331C508.391 192.922 508.679 193.666 509.195 194.218C509.723 194.758 510.407 195.028 511.247 195.028C511.667 195.028 512.051 194.968 512.399 194.848C512.759 194.716 513.101 194.548 513.425 194.344L513.947 195.316C513.563 195.556 513.137 195.766 512.669 195.946C512.201 196.126 511.667 196.216 511.067 196.216ZM508.313 190.924H512.993C512.993 190.036 512.801 189.364 512.417 188.908C512.045 188.44 511.517 188.206 510.833 188.206C510.521 188.206 510.221 188.266 509.933 188.386C509.657 188.506 509.405 188.686 509.177 188.926C508.949 189.154 508.757 189.436 508.601 189.772C508.457 190.108 508.361 190.492 508.313 190.924ZM516.451 196V187.252H517.675L517.801 188.836H517.855C518.155 188.284 518.515 187.846 518.935 187.522C519.367 187.198 519.835 187.036 520.339 187.036C520.687 187.036 520.999 187.096 521.275 187.216L520.987 188.512C520.843 188.464 520.711 188.428 520.591 188.404C520.471 188.38 520.321 188.368 520.141 188.368C519.769 188.368 519.379 188.518 518.971 188.818C518.575 189.118 518.227 189.64 517.927 190.384V196H516.451ZM526.294 196V187.252H527.518L527.644 188.512H527.698C528.082 188.092 528.496 187.744 528.94 187.468C529.396 187.18 529.888 187.036 530.416 187.036C531.088 187.036 531.61 187.186 531.982 187.486C532.366 187.774 532.648 188.182 532.828 188.71C533.284 188.206 533.74 187.804 534.196 187.504C534.664 187.192 535.168 187.036 535.708 187.036C536.608 187.036 537.274 187.324 537.706 187.9C538.15 188.476 538.372 189.328 538.372 190.456V196H536.896V190.654C536.896 189.826 536.764 189.232 536.5 188.872C536.236 188.5 535.828 188.314 535.276 188.314C534.616 188.314 533.884 188.764 533.08 189.664V196H531.604V190.654C531.604 189.826 531.472 189.232 531.208 188.872C530.944 188.5 530.53 188.314 529.966 188.314C529.306 188.314 528.574 188.764 527.77 189.664V196H526.294ZM544.62 196.216C544.08 196.216 543.564 196.114 543.072 195.91C542.592 195.706 542.166 195.412 541.794 195.028C541.422 194.632 541.122 194.152 540.894 193.588C540.678 193.012 540.57 192.364 540.57 191.644C540.57 190.912 540.678 190.264 540.894 189.7C541.122 189.124 541.422 188.638 541.794 188.242C542.166 187.846 542.592 187.546 543.072 187.342C543.564 187.138 544.08 187.036 544.62 187.036C545.16 187.036 545.67 187.138 546.15 187.342C546.642 187.546 547.074 187.846 547.446 188.242C547.818 188.638 548.112 189.124 548.328 189.7C548.556 190.264 548.67 190.912 548.67 191.644C548.67 192.364 548.556 193.012 548.328 193.588C548.112 194.152 547.818 194.632 547.446 195.028C547.074 195.412 546.642 195.706 546.15 195.91C545.67 196.114 545.16 196.216 544.62 196.216ZM544.62 194.992C544.992 194.992 545.334 194.914 545.646 194.758C545.958 194.59 546.222 194.362 546.438 194.074C546.666 193.774 546.84 193.42 546.96 193.012C547.08 192.604 547.14 192.148 547.14 191.644C547.14 191.14 547.08 190.684 546.96 190.276C546.84 189.856 546.666 189.496 546.438 189.196C546.222 188.896 545.958 188.668 545.646 188.512C545.334 188.344 544.992 188.26 544.62 188.26C544.248 188.26 543.906 188.344 543.594 188.512C543.282 188.668 543.012 188.896 542.784 189.196C542.568 189.496 542.4 189.856 542.28 190.276C542.16 190.684 542.1 191.14 542.1 191.644C542.1 192.148 542.16 192.604 542.28 193.012C542.4 193.42 542.568 193.774 542.784 194.074C543.012 194.362 543.282 194.59 543.594 194.758C543.906 194.914 544.248 194.992 544.62 194.992ZM544.368 185.686L543.612 184.948L546.15 181.942L547.194 182.932L544.368 185.686ZM553.962 196.216C552.858 196.216 551.976 195.82 551.316 195.028C550.668 194.236 550.344 193.108 550.344 191.644C550.344 190.936 550.446 190.3 550.65 189.736C550.866 189.16 551.148 188.674 551.496 188.278C551.844 187.882 552.246 187.576 552.702 187.36C553.158 187.144 553.638 187.036 554.142 187.036C554.646 187.036 555.084 187.126 555.456 187.306C555.828 187.486 556.206 187.732 556.59 188.044L556.518 186.55V183.184H558.012V196H556.788L556.662 194.974H556.608C556.26 195.31 555.858 195.604 555.402 195.856C554.958 196.096 554.478 196.216 553.962 196.216ZM554.286 194.974C554.694 194.974 555.078 194.878 555.438 194.686C555.798 194.482 556.158 194.176 556.518 193.768V189.196C556.146 188.86 555.786 188.626 555.438 188.494C555.102 188.35 554.754 188.278 554.394 188.278C554.046 188.278 553.716 188.362 553.404 188.53C553.104 188.686 552.84 188.914 552.612 189.214C552.384 189.502 552.204 189.85 552.072 190.258C551.94 190.666 551.874 191.122 551.874 191.626C551.874 192.682 552.084 193.504 552.504 194.092C552.924 194.68 553.518 194.974 554.286 194.974Z" fill="#E6E6E6"/>
</svg>
