<svg width="585" height="208" viewBox="0 0 585 208" fill="none" xmlns="http://www.w3.org/2000/svg">
<g clip-path="url(#clip0)">
<path d="M68.9152 139.48C106.868 139.48 137.635 108.676 137.635 70.6762C137.635 32.6768 106.868 1.87219 68.9152 1.87219C30.9623 1.87219 0.195312 32.6768 0.195312 70.6762C0.195312 108.676 30.9623 139.48 68.9152 139.48Z" stroke="#00AEEF" stroke-miterlimit="10"/>
<path d="M45.6182 81.1049L44.3652 80.2424" stroke="white" stroke-linecap="round" stroke-linejoin="round"/>
<path d="M44.3643 80.2421C44.1785 79.9351 44.0834 79.5817 44.0902 79.2228" stroke="white" stroke-linecap="round" stroke-linejoin="round"/>
<path d="M44.0898 79.2229V58.8365" stroke="white" stroke-linecap="round" stroke-linejoin="round"/>
<path d="M44.0898 58.8366C44.1324 58.1001 44.3456 57.3837 44.7126 56.7441C45.0796 56.1044 45.5903 55.5591 46.2043 55.1514" stroke="white" stroke-linecap="round" stroke-linejoin="round"/>
<path d="M46.2441 55.112L74.9459 38.5284" stroke="white" stroke-linecap="round" stroke-linejoin="round"/>
<path d="M74.9453 38.5285C75.1562 38.3705 75.4058 38.2725 75.6677 38.2449C75.9297 38.2172 76.1942 38.2611 76.4333 38.3717" stroke="white" stroke-linecap="round" stroke-linejoin="round"/>
<path d="M76.4336 38.4109L77.7258 39.2734" stroke="white" stroke-linecap="round" stroke-linejoin="round"/>
<path d="M77.7262 39.2735C77.4871 39.1629 77.2226 39.1191 76.9607 39.1467C76.6987 39.1743 76.4491 39.2723 76.2383 39.4304" stroke="white" stroke-linecap="round" stroke-linejoin="round"/>
<path d="M76.1979 39.391L47.4961 55.9745" stroke="white" stroke-linecap="round" stroke-linejoin="round"/>
<path d="M47.4973 55.9745C46.8807 56.3795 46.368 56.9242 46.0007 57.5644C45.6334 58.2046 45.4217 58.9224 45.3828 59.6597" stroke="white" stroke-linecap="round" stroke-linejoin="round"/>
<path d="M45.3829 59.6991L45.3438 80.0855" stroke="white" stroke-linecap="round" stroke-linejoin="round"/>
<path d="M45.3441 80.0854C45.3373 80.4443 45.4324 80.7978 45.6182 81.1048" stroke="white" stroke-linecap="round" stroke-linejoin="round"/>
<path d="M76.1992 39.3909C77.3739 38.7244 78.3137 39.2733 78.3137 40.6062" stroke="white" stroke-linecap="round" stroke-linejoin="round"/>
<path d="M78.3517 40.6456L78.3125 61.032" stroke="white" stroke-linecap="round" stroke-linejoin="round"/>
<path d="M78.3137 61.032C78.2711 61.7684 78.0579 62.4848 77.6909 63.1245C77.3239 63.7641 76.8132 64.3094 76.1992 64.7172" stroke="white" stroke-linecap="round" stroke-linejoin="round"/>
<path d="M76.1977 64.7565L75.2188 65.2269" stroke="white" stroke-linecap="round" stroke-linejoin="round"/>
<path d="M47.4582 81.2617C46.2835 81.9282 45.3438 81.4186 45.3438 80.0464" stroke="white" stroke-linecap="round" stroke-linejoin="round"/>
<path d="M98.0488 76.9883V78.5565" stroke="white" stroke-linecap="round" stroke-linejoin="round"/>
<path d="M98.047 78.5563C97.8949 78.9808 97.5868 79.3314 97.1855 79.5364" stroke="white" stroke-linecap="round" stroke-linejoin="round"/>
<path d="M97.1865 79.5366L68.3672 96.1986" stroke="white" stroke-linecap="round" stroke-linejoin="round"/>
<path d="M68.3681 96.1985C67.7534 96.5277 67.0681 96.7025 66.3711 96.7081" stroke="white" stroke-linecap="round" stroke-linejoin="round"/>
<path d="M64.0992 96.1985L46.4004 85.9269" stroke="white" stroke-linecap="round" stroke-linejoin="round"/>
<path d="M46.4005 85.9269C45.9992 85.7219 45.6912 85.3713 45.5391 84.9468" stroke="white" stroke-linecap="round" stroke-linejoin="round"/>
<path d="M45.5391 84.947V83.3788" stroke="white" stroke-linecap="round" stroke-linejoin="round"/>
<path d="M45.5391 83.3788C45.6012 83.5958 45.7108 83.7963 45.8597 83.9658C46.0087 84.1353 46.1934 84.2696 46.4005 84.3589" stroke="white" stroke-linecap="round" stroke-linejoin="round"/>
<path d="M46.4004 84.3979L64.0992 94.6303" stroke="white" stroke-linecap="round" stroke-linejoin="round"/>
<path d="M66.3711 95.14C67.0674 95.1292 67.7515 94.9546 68.3681 94.6304" stroke="white" stroke-linecap="round" stroke-linejoin="round"/>
<path d="M68.3672 94.6303L97.1865 77.9684" stroke="white" stroke-linecap="round" stroke-linejoin="round"/>
<path d="M97.1855 77.9684C97.5868 77.7634 97.8949 77.4128 98.047 76.9883" stroke="white" stroke-linecap="round" stroke-linejoin="round"/>
<path d="M46.4004 81.8889L75.2197 65.2269" stroke="white" stroke-linecap="round" stroke-linejoin="round"/>
<path d="M75.2188 65.2268C75.8822 64.8982 76.6125 64.7272 77.3528 64.7272C78.093 64.7272 78.8233 64.8982 79.4868 65.2268" stroke="white" stroke-linecap="round" stroke-linejoin="round"/>
<path d="M79.4883 65.2269L97.1871 75.4985" stroke="white" stroke-linecap="round" stroke-linejoin="round"/>
<path d="M97.1855 75.4985C98.3602 76.165 98.3602 77.302 97.1855 77.9684" stroke="white" stroke-linecap="round" stroke-linejoin="round"/>
<path d="M46.4006 84.3976C45.2259 83.7311 45.2259 82.5942 46.4006 81.9277" stroke="white" stroke-linecap="round" stroke-linejoin="round"/>
<path d="M76.7861 87.5341L84.6566 82.9472L80.2319 80.4773L72.3223 85.025L76.7861 87.5341Z" stroke="white" stroke-linecap="round" stroke-linejoin="round"/>
<path d="M50.002 82.4767L76.1977 67.3045C76.5511 67.1305 76.9395 67.04 77.3333 67.04C77.727 67.04 78.1155 67.1305 78.4688 67.3045" stroke="white" stroke-linecap="round" stroke-linejoin="round"/>
<path d="M78.4688 67.3438L87.3965 72.5187" stroke="white" stroke-linecap="round" stroke-linejoin="round"/>
<path d="M87.3966 72.5188C88.0231 72.8716 88.0231 73.4989 87.3966 73.8518C78.6646 78.9091 69.9327 83.9535 61.2008 88.9847C60.8475 89.1587 60.459 89.2492 60.0652 89.2492C59.6715 89.2492 59.283 89.1587 58.9297 88.9847" stroke="white" stroke-linecap="round" stroke-linejoin="round"/>
<path d="M58.9297 88.9847L50.002 83.8097" stroke="white" stroke-linecap="round" stroke-linejoin="round"/>
<path d="M50.0031 83.8099C49.3766 83.457 49.3766 82.869 50.0031 82.4769" stroke="white" stroke-linecap="round" stroke-linejoin="round"/>
<path d="M66.4103 96.7082V95.14H66.3711" stroke="white" stroke-linecap="round" stroke-linejoin="round"/>
<path d="M66.3707 95.14C65.5821 95.1723 64.7989 94.9966 64.0996 94.6304" stroke="white" stroke-linecap="round" stroke-linejoin="round"/>
<path d="M64.0996 96.1985C64.8004 96.5606 65.5825 96.7361 66.3707 96.7081" stroke="white" stroke-linecap="round" stroke-linejoin="round"/>
<path d="M66.3711 96.7081H66.4099" stroke="white" stroke-linecap="round" stroke-linejoin="round"/>
<path d="M292.892 138.304C330.845 138.304 361.612 107.499 361.612 69.5C361.612 31.5006 330.845 0.696045 292.892 0.696045C254.939 0.696045 224.172 31.5006 224.172 69.5C224.172 107.499 254.939 138.304 292.892 138.304Z" stroke="#00AEEF" stroke-miterlimit="10"/>
<path d="M321.817 60.2506L294.211 45L272.91 57.2318L300.516 72.4824L321.817 60.2506Z" stroke="white" stroke-linecap="round" stroke-linejoin="round"/>
<path d="M272.91 58.604V57.2318L300.516 72.4824V79.9312L299.341 79.2648" stroke="white" stroke-linecap="round" stroke-linejoin="round"/>
<path d="M321.817 60.2504L300.516 72.4822V79.931L321.817 67.6992V60.2504Z" stroke="white" stroke-linecap="round" stroke-linejoin="round"/>
<path d="M299.34 73.1881L271.735 57.9375L265 61.8188L292.605 77.0693L299.34 73.1881Z" stroke="white" stroke-linecap="round" stroke-linejoin="round"/>
<path d="M292.605 77.0692L265 61.8186V69.3851L292.605 84.6357V77.0692Z" stroke="white" stroke-linecap="round" stroke-linejoin="round"/>
<path d="M299.34 73.1879L292.605 77.0691V84.6356L299.301 80.7543L299.34 73.1879Z" stroke="white" stroke-linecap="round" stroke-linejoin="round"/>
<path d="M319.779 68.8754L321.816 70.0123L300.514 82.2441L298.596 81.1856" stroke="white" stroke-linecap="round" stroke-linejoin="round"/>
<path d="M298.596 81.1858L300.514 82.2443V89.6932L299.34 89.0267" stroke="white" stroke-linecap="round" stroke-linejoin="round"/>
<path d="M321.817 70.0127L300.516 82.2445V89.6934L321.817 77.4616V70.0127Z" stroke="white" stroke-linecap="round" stroke-linejoin="round"/>
<path d="M297.422 81.8521L299.34 82.9499L292.605 86.8311L265 71.5413L266.919 70.4436" stroke="white" stroke-linecap="round" stroke-linejoin="round"/>
<path d="M292.605 86.8313L265 71.5415V79.1472L292.605 94.3977V86.8313Z" stroke="white" stroke-linecap="round" stroke-linejoin="round"/>
<path d="M299.34 82.9502L292.605 86.8315V94.3979L299.301 90.5167L299.34 82.9502Z" stroke="white" stroke-linecap="round" stroke-linejoin="round"/>
<path d="M516.085 138.304C554.038 138.304 584.805 107.499 584.805 69.5C584.805 31.5006 554.038 0.696045 516.085 0.696045C478.132 0.696045 447.365 31.5006 447.365 69.5C447.365 107.499 478.132 138.304 516.085 138.304Z" stroke="#00AEEF" stroke-miterlimit="10"/>
<path d="M539.148 75.067H539.031C538.995 75.0475 538.954 75.0372 538.913 75.0372C538.872 75.0372 538.832 75.0475 538.796 75.067C538.741 75.0612 538.685 75.0751 538.639 75.1062C538.551 75.121 538.469 75.1619 538.404 75.2239" stroke="white" stroke-linecap="round" stroke-linejoin="round"/>
<path d="M539.501 75.851C539.515 75.7105 539.494 75.5685 539.44 75.4383C539.385 75.3081 539.298 75.1938 539.188 75.1061C539.057 75.0412 538.911 75.0141 538.765 75.0279C538.62 75.0418 538.481 75.096 538.365 75.1845" stroke="white" stroke-linecap="round" stroke-linejoin="round"/>
<path d="M516.046 96.6689C516.03 96.8136 516.054 96.9599 516.116 97.0915C516.179 97.2231 516.276 97.3347 516.398 97.4138C516.516 97.4769 516.65 97.5032 516.782 97.4892C516.915 97.4752 517.04 97.4216 517.142 97.3354" stroke="white" stroke-linecap="round" stroke-linejoin="round"/>
<path d="M536.211 82.9862L538.208 81.81V79.4578L536.211 80.6339V82.9862Z" stroke="white" stroke-linecap="round" stroke-linejoin="round"/>
<path d="M532.766 84.9466L534.802 83.7705V81.4182L532.766 82.5944V84.9466Z" stroke="white" stroke-linecap="round" stroke-linejoin="round"/>
<path d="M539.187 63.9723C539.142 63.9412 539.086 63.9273 539.031 63.9331C538.797 63.8979 538.559 63.954 538.365 64.09" stroke="white" stroke-linecap="round" stroke-linejoin="round"/>
<path d="M538.365 64.0505L529.203 69.3432L517.221 76.2824" stroke="white" stroke-linecap="round" stroke-linejoin="round"/>
<path d="M516.397 77.1449L502.065 68.8727L492.746 63.5017" stroke="white" stroke-linecap="round" stroke-linejoin="round"/>
<path d="M539.501 64.7171C539.515 64.5766 539.494 64.4346 539.44 64.3044C539.385 64.1742 539.298 64.0599 539.188 63.9722C539.057 63.9073 538.911 63.8802 538.765 63.894C538.62 63.9079 538.481 63.9621 538.365 64.0506" stroke="white" stroke-linecap="round" stroke-linejoin="round"/>
<path d="M516.046 85.5347C516.03 85.6793 516.054 85.8257 516.116 85.9572C516.179 86.0888 516.276 86.2004 516.398 86.2796C516.516 86.3426 516.65 86.3689 516.782 86.3549C516.915 86.3409 517.04 86.2873 517.142 86.2011" stroke="white" stroke-linecap="round" stroke-linejoin="round"/>
<path d="M536.211 71.8523L538.208 70.6761V68.3239L536.211 69.5V71.8523Z" stroke="white" stroke-linecap="round" stroke-linejoin="round"/>
<path d="M532.766 73.8125L534.802 72.6363V70.2841L532.766 71.4602V73.8125Z" stroke="white" stroke-linecap="round" stroke-linejoin="round"/>
<path d="M539.501 53.348C539.515 53.2074 539.494 53.0655 539.44 52.9352C539.385 52.805 539.298 52.6908 539.188 52.6031C539.057 52.5381 538.911 52.511 538.765 52.5249C538.62 52.5387 538.481 52.593 538.365 52.6815" stroke="white" stroke-linecap="round" stroke-linejoin="round"/>
<path d="M516.046 74.1652C516.03 74.3098 516.054 74.4561 516.116 74.5877C516.179 74.7193 516.276 74.8309 516.398 74.91C516.516 74.9731 516.65 74.9994 516.782 74.9854C516.915 74.9714 517.04 74.9178 517.142 74.8316" stroke="white" stroke-linecap="round" stroke-linejoin="round"/>
<path d="M536.211 60.5222L538.208 59.3461V56.9546L536.211 58.1699V60.5222Z" stroke="white" stroke-linecap="round" stroke-linejoin="round"/>
<path d="M532.766 62.4824L534.802 61.3063V58.9148L532.766 60.0909V62.4824Z" stroke="white" stroke-linecap="round" stroke-linejoin="round"/>
<path d="M539.148 75.067L537.777 74.283" stroke="white" stroke-linecap="round" stroke-linejoin="round"/>
<path d="M539.187 75.1057L539.148 75.0669" stroke="white" stroke-linecap="round" stroke-linejoin="round"/>
<path d="M538.365 75.1847L517.221 87.4165" stroke="white" stroke-linecap="round" stroke-linejoin="round"/>
<path d="M517.221 87.4165C516.872 87.6219 516.587 87.9206 516.398 88.279" stroke="white" stroke-linecap="round" stroke-linejoin="round"/>
<path d="M516.397 88.2789L492.746 74.5966" stroke="white" stroke-linecap="round" stroke-linejoin="round"/>
<path d="M492.746 74.5968C492.946 74.2463 493.228 73.9502 493.568 73.7343" stroke="white" stroke-linecap="round" stroke-linejoin="round"/>
<path d="M493.568 73.7732L494.156 73.4204" stroke="white" stroke-linecap="round" stroke-linejoin="round"/>
<path d="M516.397 88.2788C516.17 88.6143 516.047 89.0101 516.045 89.4157" stroke="white" stroke-linecap="round" stroke-linejoin="round"/>
<path d="M516.045 89.4159V96.6687" stroke="white" stroke-linecap="round" stroke-linejoin="round"/>
<path d="M517.182 97.3352L538.365 85.0642" stroke="white" stroke-linecap="round" stroke-linejoin="round"/>
<path d="M538.365 85.0644C538.699 84.8449 538.976 84.5493 539.174 84.2016C539.371 83.854 539.483 83.4644 539.501 83.0649" stroke="white" stroke-linecap="round" stroke-linejoin="round"/>
<path d="M539.5 83.1038V75.851" stroke="white" stroke-linecap="round" stroke-linejoin="round"/>
<path d="M492.747 74.5966C492.548 74.9452 492.428 75.3333 492.395 75.7335" stroke="white" stroke-linecap="round" stroke-linejoin="round"/>
<path d="M492.395 75.7334V82.9862" stroke="white" stroke-linecap="round" stroke-linejoin="round"/>
<path d="M492.395 82.9862C492.399 83.1279 492.433 83.267 492.494 83.3951C492.554 83.5232 492.641 83.6376 492.747 83.7311" stroke="white" stroke-linecap="round" stroke-linejoin="round"/>
<path d="M492.746 83.7314L516.397 97.4138" stroke="white" stroke-linecap="round" stroke-linejoin="round"/>
<path d="M537.582 63.0704L539.187 63.9721" stroke="white" stroke-linecap="round" stroke-linejoin="round"/>
<path d="M517.221 76.2823C516.872 76.4877 516.587 76.7864 516.398 77.1449" stroke="white" stroke-linecap="round" stroke-linejoin="round"/>
<path d="M492.746 63.5017C492.935 63.1432 493.22 62.8446 493.568 62.6392" stroke="white" stroke-linecap="round" stroke-linejoin="round"/>
<path d="M493.568 62.6394L494.312 62.1689" stroke="white" stroke-linecap="round" stroke-linejoin="round"/>
<path d="M516.397 77.1449C516.17 77.4804 516.047 77.8762 516.045 78.2818" stroke="white" stroke-linecap="round" stroke-linejoin="round"/>
<path d="M516.045 78.2816V85.5345" stroke="white" stroke-linecap="round" stroke-linejoin="round"/>
<path d="M517.182 86.2013L538.365 73.9303" stroke="white" stroke-linecap="round" stroke-linejoin="round"/>
<path d="M538.365 73.9302C538.705 73.7138 538.987 73.4178 539.187 73.0677" stroke="white" stroke-linecap="round" stroke-linejoin="round"/>
<path d="M539.188 73.1068C539.387 72.7606 539.494 72.3693 539.501 71.9698" stroke="white" stroke-linecap="round" stroke-linejoin="round"/>
<path d="M539.5 71.9699V64.717" stroke="white" stroke-linecap="round" stroke-linejoin="round"/>
<path d="M492.747 63.5017C492.554 63.8528 492.434 64.2397 492.395 64.6386" stroke="white" stroke-linecap="round" stroke-linejoin="round"/>
<path d="M492.395 64.5996V71.8524" stroke="white" stroke-linecap="round" stroke-linejoin="round"/>
<path d="M492.395 71.8523C492.399 71.994 492.433 72.1331 492.494 72.2612C492.554 72.3893 492.641 72.5037 492.747 72.5972" stroke="white" stroke-linecap="round" stroke-linejoin="round"/>
<path d="M492.746 72.5972L516.397 86.2796" stroke="white" stroke-linecap="round" stroke-linejoin="round"/>
<path d="M516.398 86.2796C516.272 86.2043 516.171 86.0933 516.108 85.9607C516.046 85.8281 516.024 85.6798 516.045 85.5347" stroke="white" stroke-linecap="round" stroke-linejoin="round"/>
<path d="M539.186 52.6422L515.535 38.9598" stroke="white" stroke-linecap="round" stroke-linejoin="round"/>
<path d="M515.537 38.9597C515.406 38.8948 515.26 38.8677 515.115 38.8816C514.97 38.8954 514.831 38.9497 514.715 39.0382" stroke="white" stroke-linecap="round" stroke-linejoin="round"/>
<path d="M514.713 39.0381L493.568 51.2699" stroke="white" stroke-linecap="round" stroke-linejoin="round"/>
<path d="M493.568 51.2699C493.211 51.4649 492.924 51.7664 492.746 52.1324" stroke="white" stroke-linecap="round" stroke-linejoin="round"/>
<path d="M492.746 52.1322L516.397 65.8146" stroke="white" stroke-linecap="round" stroke-linejoin="round"/>
<path d="M516.398 65.8147C516.558 65.461 516.816 65.1613 517.142 64.9521" stroke="white" stroke-linecap="round" stroke-linejoin="round"/>
<path d="M517.182 64.9524L538.365 52.6814" stroke="white" stroke-linecap="round" stroke-linejoin="round"/>
<path d="M516.397 65.8149C516.17 66.1505 516.047 66.5463 516.045 66.9519" stroke="white" stroke-linecap="round" stroke-linejoin="round"/>
<path d="M516.045 66.9517V74.1653" stroke="white" stroke-linecap="round" stroke-linejoin="round"/>
<path d="M517.182 74.8317L538.365 62.5999" stroke="white" stroke-linecap="round" stroke-linejoin="round"/>
<path d="M538.365 62.5998C538.705 62.3834 538.987 62.0873 539.187 61.7373" stroke="white" stroke-linecap="round" stroke-linejoin="round"/>
<path d="M539.188 61.7375C539.387 61.3913 539.494 61.0001 539.501 60.6006" stroke="white" stroke-linecap="round" stroke-linejoin="round"/>
<path d="M539.5 60.6007V53.3479" stroke="white" stroke-linecap="round" stroke-linejoin="round"/>
<path d="M492.747 52.1322C492.548 52.4808 492.428 52.8689 492.395 53.2691" stroke="white" stroke-linecap="round" stroke-linejoin="round"/>
<path d="M492.395 53.2693V60.5221" stroke="white" stroke-linecap="round" stroke-linejoin="round"/>
<path d="M492.395 60.5223C492.399 60.664 492.433 60.8032 492.494 60.9313C492.554 61.0594 492.641 61.1737 492.747 61.2672" stroke="white" stroke-linecap="round" stroke-linejoin="round"/>
<path d="M492.746 61.2671L516.397 74.9103" stroke="white" stroke-linecap="round" stroke-linejoin="round"/>
<path d="M516.398 74.91C516.272 74.8348 516.171 74.7238 516.108 74.5912C516.046 74.4586 516.024 74.3103 516.045 74.1652" stroke="white" stroke-linecap="round" stroke-linejoin="round"/>
<path d="M518.121 69.3434L530.847 61.9729" stroke="white" stroke-linecap="round" stroke-linejoin="round"/>
<path d="M518.121 80.7125L530.847 73.342" stroke="white" stroke-linecap="round" stroke-linejoin="round"/>
<path d="M518.121 91.8464L530.847 84.476" stroke="white" stroke-linecap="round" stroke-linejoin="round"/>
<path d="M364.939 67.1477H437.986" stroke="#00AEEF" stroke-width="3" stroke-miterlimit="10"/>
<path d="M444.624 67.1478L435.273 70.9741L437.494 67.1478L435.273 63.3253L444.624 67.1478Z" fill="#00AEEF"/>
<path d="M140.963 66.7559H214.01" stroke="#00AEEF" stroke-width="3" stroke-miterlimit="10"/>
<path d="M220.647 66.7557L211.297 70.582L213.517 66.7557L211.297 62.9332L220.647 66.7557Z" fill="#00AEEF"/>
<path d="M24.7754 174.856C24.7754 174.222 24.5342 173.731 24.0518 173.384C23.5778 173.028 22.7441 172.724 21.5508 172.47C20.3659 172.216 19.4222 171.911 18.7197 171.556C18.0257 171.2 17.5094 170.777 17.1709 170.286C16.8408 169.795 16.6758 169.211 16.6758 168.534C16.6758 167.409 17.1497 166.456 18.0977 165.678C19.054 164.899 20.2728 164.51 21.7539 164.51C23.3112 164.51 24.5723 164.912 25.5371 165.716C26.5104 166.52 26.9971 167.548 26.9971 168.801H24.6357C24.6357 168.158 24.3607 167.603 23.8105 167.138C23.2689 166.672 22.5833 166.439 21.7539 166.439C20.8991 166.439 20.2305 166.626 19.748 166.998C19.2656 167.37 19.0244 167.857 19.0244 168.458C19.0244 169.025 19.2487 169.452 19.6973 169.74C20.1458 170.028 20.9541 170.303 22.1221 170.565C23.2985 170.828 24.2507 171.141 24.9785 171.505C25.7064 171.869 26.2438 172.309 26.5908 172.825C26.9463 173.333 27.124 173.955 27.124 174.691C27.124 175.919 26.6331 176.905 25.6514 177.649C24.6696 178.386 23.3958 178.754 21.8301 178.754C20.7298 178.754 19.7565 178.559 18.9102 178.17C18.0638 177.781 17.3994 177.239 16.917 176.545C16.443 175.842 16.2061 175.085 16.2061 174.272H18.5547C18.597 175.06 18.9102 175.686 19.4941 176.151C20.0866 176.608 20.8652 176.837 21.8301 176.837C22.7188 176.837 23.4297 176.659 23.9629 176.304C24.5046 175.94 24.7754 175.457 24.7754 174.856ZM34.6777 175.06L37.877 164.764H40.3906L34.8682 180.62C34.0133 182.905 32.6549 184.048 30.793 184.048L30.3486 184.01L29.4727 183.845V181.94L30.1074 181.991C30.903 181.991 31.5208 181.83 31.9609 181.509C32.4095 181.187 32.7777 180.599 33.0654 179.744L33.5859 178.348L28.6855 164.764H31.25L34.6777 175.06ZM50.4961 174.856C50.4961 174.222 50.2549 173.731 49.7725 173.384C49.2985 173.028 48.4648 172.724 47.2715 172.47C46.0866 172.216 45.1429 171.911 44.4404 171.556C43.7464 171.2 43.2301 170.777 42.8916 170.286C42.5615 169.795 42.3965 169.211 42.3965 168.534C42.3965 167.409 42.8704 166.456 43.8184 165.678C44.7747 164.899 45.9935 164.51 47.4746 164.51C49.0319 164.51 50.293 164.912 51.2578 165.716C52.2311 166.52 52.7178 167.548 52.7178 168.801H50.3564C50.3564 168.158 50.0814 167.603 49.5312 167.138C48.9896 166.672 48.304 166.439 47.4746 166.439C46.6198 166.439 45.9512 166.626 45.4688 166.998C44.9863 167.37 44.7451 167.857 44.7451 168.458C44.7451 169.025 44.9694 169.452 45.418 169.74C45.8665 170.028 46.6748 170.303 47.8428 170.565C49.0192 170.828 49.9714 171.141 50.6992 171.505C51.4271 171.869 51.9645 172.309 52.3115 172.825C52.667 173.333 52.8447 173.955 52.8447 174.691C52.8447 175.919 52.3538 176.905 51.3721 177.649C50.3903 178.386 49.1165 178.754 47.5508 178.754C46.4505 178.754 45.4772 178.559 44.6309 178.17C43.7845 177.781 43.1201 177.239 42.6377 176.545C42.1637 175.842 41.9268 175.085 41.9268 174.272H44.2754C44.3177 175.06 44.6309 175.686 45.2148 176.151C45.8073 176.608 46.5859 176.837 47.5508 176.837C48.4395 176.837 49.1504 176.659 49.6836 176.304C50.2253 175.94 50.4961 175.457 50.4961 174.856ZM58.4561 178.5H56.1074V159H58.4561V178.5ZM61.6045 171.505C61.6045 170.159 61.8669 168.949 62.3916 167.874C62.9248 166.799 63.6611 165.97 64.6006 165.386C65.5485 164.802 66.6276 164.51 67.8379 164.51C69.7083 164.51 71.2191 165.157 72.3701 166.452C73.5296 167.747 74.1094 169.469 74.1094 171.619V171.784C74.1094 173.121 73.8512 174.323 73.335 175.39C72.8271 176.448 72.0951 177.273 71.1387 177.865C70.1908 178.458 69.099 178.754 67.8633 178.754C66.0013 178.754 64.4906 178.106 63.3311 176.812C62.18 175.517 61.6045 173.803 61.6045 171.67V171.505ZM63.9658 171.784C63.9658 173.308 64.3171 174.531 65.0195 175.453C65.7305 176.376 66.6784 176.837 67.8633 176.837C69.0566 176.837 70.0046 176.371 70.707 175.44C71.4095 174.501 71.7607 173.189 71.7607 171.505C71.7607 169.998 71.401 168.78 70.6816 167.849C69.9707 166.909 69.0228 166.439 67.8379 166.439C66.6784 166.439 65.7432 166.901 65.0322 167.823C64.3213 168.746 63.9658 170.066 63.9658 171.784ZM76.4961 171.518C76.4961 169.376 76.9912 167.675 77.9814 166.414C78.9717 165.145 80.2835 164.51 81.917 164.51C83.5928 164.51 84.9004 165.102 85.8398 166.287L85.9541 164.764H88.0996V178.17C88.0996 179.947 87.5706 181.348 86.5127 182.372C85.4632 183.396 84.0498 183.908 82.2725 183.908C81.2822 183.908 80.3132 183.697 79.3652 183.273C78.4173 182.85 77.6937 182.271 77.1943 181.534L78.4131 180.125C79.4202 181.369 80.6517 181.991 82.1074 181.991C83.25 181.991 84.1387 181.67 84.7734 181.026C85.4167 180.383 85.7383 179.478 85.7383 178.31V177.129C84.7988 178.212 83.5166 178.754 81.8916 178.754C80.2835 178.754 78.9801 178.106 77.9814 176.812C76.9912 175.517 76.4961 173.752 76.4961 171.518ZM78.8574 171.784C78.8574 173.333 79.1748 174.552 79.8096 175.44C80.4443 176.321 81.333 176.761 82.4756 176.761C83.9567 176.761 85.0443 176.088 85.7383 174.742V168.471C85.0189 167.159 83.9398 166.503 82.501 166.503C81.3584 166.503 80.4655 166.947 79.8223 167.836C79.179 168.725 78.8574 170.041 78.8574 171.784ZM96.542 171.606H90.3467V169.689H96.542V171.606ZM101.062 164.764L101.138 166.49C102.187 165.17 103.558 164.51 105.251 164.51C108.154 164.51 109.618 166.147 109.644 169.423V178.5H107.295V169.41C107.286 168.42 107.058 167.688 106.609 167.214C106.169 166.74 105.479 166.503 104.54 166.503C103.778 166.503 103.11 166.706 102.534 167.112C101.959 167.519 101.51 168.052 101.188 168.712V178.5H98.8398V164.764H101.062ZM112.627 171.518C112.627 169.376 113.122 167.675 114.112 166.414C115.103 165.145 116.414 164.51 118.048 164.51C119.724 164.51 121.031 165.102 121.971 166.287L122.085 164.764H124.23V178.17C124.23 179.947 123.701 181.348 122.644 182.372C121.594 183.396 120.181 183.908 118.403 183.908C117.413 183.908 116.444 183.697 115.496 183.273C114.548 182.85 113.825 182.271 113.325 181.534L114.544 180.125C115.551 181.369 116.783 181.991 118.238 181.991C119.381 181.991 120.27 181.67 120.904 181.026C121.548 180.383 121.869 179.478 121.869 178.31V177.129C120.93 178.212 119.647 178.754 118.022 178.754C116.414 178.754 115.111 178.106 114.112 176.812C113.122 175.517 112.627 173.752 112.627 171.518ZM114.988 171.784C114.988 173.333 115.306 174.552 115.94 175.44C116.575 176.321 117.464 176.761 118.606 176.761C120.088 176.761 121.175 176.088 121.869 174.742V168.471C121.15 167.159 120.071 166.503 118.632 166.503C117.489 166.503 116.596 166.947 115.953 167.836C115.31 168.725 114.988 170.041 114.988 171.784Z" fill="#E6E6E6"/>
<path d="M245.775 172.856C245.775 172.222 245.534 171.731 245.052 171.384C244.578 171.028 243.744 170.724 242.551 170.47C241.366 170.216 240.422 169.911 239.72 169.556C239.026 169.2 238.509 168.777 238.171 168.286C237.841 167.795 237.676 167.211 237.676 166.534C237.676 165.409 238.15 164.456 239.098 163.678C240.054 162.899 241.273 162.51 242.754 162.51C244.311 162.51 245.572 162.912 246.537 163.716C247.51 164.52 247.997 165.548 247.997 166.801H245.636C245.636 166.158 245.361 165.603 244.811 165.138C244.269 164.672 243.583 164.439 242.754 164.439C241.899 164.439 241.23 164.626 240.748 164.998C240.266 165.37 240.024 165.857 240.024 166.458C240.024 167.025 240.249 167.452 240.697 167.74C241.146 168.028 241.954 168.303 243.122 168.565C244.299 168.828 245.251 169.141 245.979 169.505C246.706 169.869 247.244 170.309 247.591 170.825C247.946 171.333 248.124 171.955 248.124 172.691C248.124 173.919 247.633 174.905 246.651 175.649C245.67 176.386 244.396 176.754 242.83 176.754C241.73 176.754 240.757 176.559 239.91 176.17C239.064 175.781 238.399 175.239 237.917 174.545C237.443 173.842 237.206 173.085 237.206 172.272H239.555C239.597 173.06 239.91 173.686 240.494 174.151C241.087 174.608 241.865 174.837 242.83 174.837C243.719 174.837 244.43 174.659 244.963 174.304C245.505 173.94 245.775 173.457 245.775 172.856ZM255.678 173.06L258.877 162.764H261.391L255.868 178.62C255.013 180.905 253.655 182.048 251.793 182.048L251.349 182.01L250.473 181.845V179.94L251.107 179.991C251.903 179.991 252.521 179.83 252.961 179.509C253.41 179.187 253.778 178.599 254.065 177.744L254.586 176.348L249.686 162.764H252.25L255.678 173.06ZM271.496 172.856C271.496 172.222 271.255 171.731 270.772 171.384C270.299 171.028 269.465 170.724 268.271 170.47C267.087 170.216 266.143 169.911 265.44 169.556C264.746 169.2 264.23 168.777 263.892 168.286C263.562 167.795 263.396 167.211 263.396 166.534C263.396 165.409 263.87 164.456 264.818 163.678C265.775 162.899 266.993 162.51 268.475 162.51C270.032 162.51 271.293 162.912 272.258 163.716C273.231 164.52 273.718 165.548 273.718 166.801H271.356C271.356 166.158 271.081 165.603 270.531 165.138C269.99 164.672 269.304 164.439 268.475 164.439C267.62 164.439 266.951 164.626 266.469 164.998C265.986 165.37 265.745 165.857 265.745 166.458C265.745 167.025 265.969 167.452 266.418 167.74C266.867 168.028 267.675 168.303 268.843 168.565C270.019 168.828 270.971 169.141 271.699 169.505C272.427 169.869 272.965 170.309 273.312 170.825C273.667 171.333 273.845 171.955 273.845 172.691C273.845 173.919 273.354 174.905 272.372 175.649C271.39 176.386 270.117 176.754 268.551 176.754C267.451 176.754 266.477 176.559 265.631 176.17C264.785 175.781 264.12 175.239 263.638 174.545C263.164 173.842 262.927 173.085 262.927 172.272H265.275C265.318 173.06 265.631 173.686 266.215 174.151C266.807 174.608 267.586 174.837 268.551 174.837C269.439 174.837 270.15 174.659 270.684 174.304C271.225 173.94 271.496 173.457 271.496 172.856ZM279.456 176.5H277.107V157H279.456V176.5ZM282.604 169.505C282.604 168.159 282.867 166.949 283.392 165.874C283.925 164.799 284.661 163.97 285.601 163.386C286.549 162.802 287.628 162.51 288.838 162.51C290.708 162.51 292.219 163.157 293.37 164.452C294.53 165.747 295.109 167.469 295.109 169.619V169.784C295.109 171.121 294.851 172.323 294.335 173.39C293.827 174.448 293.095 175.273 292.139 175.865C291.191 176.458 290.099 176.754 288.863 176.754C287.001 176.754 285.491 176.106 284.331 174.812C283.18 173.517 282.604 171.803 282.604 169.67V169.505ZM284.966 169.784C284.966 171.308 285.317 172.531 286.02 173.453C286.73 174.376 287.678 174.837 288.863 174.837C290.057 174.837 291.005 174.371 291.707 173.44C292.41 172.501 292.761 171.189 292.761 169.505C292.761 167.998 292.401 166.78 291.682 165.849C290.971 164.909 290.023 164.439 288.838 164.439C287.678 164.439 286.743 164.901 286.032 165.823C285.321 166.746 284.966 168.066 284.966 169.784ZM297.496 169.518C297.496 167.376 297.991 165.675 298.981 164.414C299.972 163.145 301.284 162.51 302.917 162.51C304.593 162.51 305.9 163.102 306.84 164.287L306.954 162.764H309.1V176.17C309.1 177.947 308.571 179.348 307.513 180.372C306.463 181.396 305.05 181.908 303.272 181.908C302.282 181.908 301.313 181.697 300.365 181.273C299.417 180.85 298.694 180.271 298.194 179.534L299.413 178.125C300.42 179.369 301.652 179.991 303.107 179.991C304.25 179.991 305.139 179.67 305.773 179.026C306.417 178.383 306.738 177.478 306.738 176.31V175.129C305.799 176.212 304.517 176.754 302.892 176.754C301.284 176.754 299.98 176.106 298.981 174.812C297.991 173.517 297.496 171.752 297.496 169.518ZM299.857 169.784C299.857 171.333 300.175 172.552 300.81 173.44C301.444 174.321 302.333 174.761 303.476 174.761C304.957 174.761 306.044 174.088 306.738 172.742V166.471C306.019 165.159 304.94 164.503 303.501 164.503C302.358 164.503 301.465 164.947 300.822 165.836C300.179 166.725 299.857 168.041 299.857 169.784ZM317.542 169.606H311.347V167.689H317.542V169.606ZM322.062 162.764L322.138 164.49C323.187 163.17 324.558 162.51 326.251 162.51C329.154 162.51 330.618 164.147 330.644 167.423V176.5H328.295V167.41C328.286 166.42 328.058 165.688 327.609 165.214C327.169 164.74 326.479 164.503 325.54 164.503C324.778 164.503 324.11 164.706 323.534 165.112C322.959 165.519 322.51 166.052 322.188 166.712V176.5H319.84V162.764H322.062ZM333.627 169.518C333.627 167.376 334.122 165.675 335.112 164.414C336.103 163.145 337.414 162.51 339.048 162.51C340.724 162.51 342.031 163.102 342.971 164.287L343.085 162.764H345.23V176.17C345.23 177.947 344.701 179.348 343.644 180.372C342.594 181.396 341.181 181.908 339.403 181.908C338.413 181.908 337.444 181.697 336.496 181.273C335.548 180.85 334.825 180.271 334.325 179.534L335.544 178.125C336.551 179.369 337.783 179.991 339.238 179.991C340.381 179.991 341.27 179.67 341.904 179.026C342.548 178.383 342.869 177.478 342.869 176.31V175.129C341.93 176.212 340.647 176.754 339.022 176.754C337.414 176.754 336.111 176.106 335.112 174.812C334.122 173.517 333.627 171.752 333.627 169.518ZM335.988 169.784C335.988 171.333 336.306 172.552 336.94 173.44C337.575 174.321 338.464 174.761 339.606 174.761C341.088 174.761 342.175 174.088 342.869 172.742V166.471C342.15 165.159 341.071 164.503 339.632 164.503C338.489 164.503 337.596 164.947 336.953 165.836C336.31 166.725 335.988 168.041 335.988 169.784Z" fill="#E6E6E6"/>
<path d="M468.775 171.856C468.775 171.222 468.534 170.731 468.052 170.384C467.578 170.028 466.744 169.724 465.551 169.47C464.366 169.216 463.422 168.911 462.72 168.556C462.026 168.2 461.509 167.777 461.171 167.286C460.841 166.795 460.676 166.211 460.676 165.534C460.676 164.409 461.15 163.456 462.098 162.678C463.054 161.899 464.273 161.51 465.754 161.51C467.311 161.51 468.572 161.912 469.537 162.716C470.51 163.52 470.997 164.548 470.997 165.801H468.636C468.636 165.158 468.361 164.603 467.811 164.138C467.269 163.672 466.583 163.439 465.754 163.439C464.899 163.439 464.23 163.626 463.748 163.998C463.266 164.37 463.024 164.857 463.024 165.458C463.024 166.025 463.249 166.452 463.697 166.74C464.146 167.028 464.954 167.303 466.122 167.565C467.299 167.828 468.251 168.141 468.979 168.505C469.706 168.869 470.244 169.309 470.591 169.825C470.946 170.333 471.124 170.955 471.124 171.691C471.124 172.919 470.633 173.905 469.651 174.649C468.67 175.386 467.396 175.754 465.83 175.754C464.73 175.754 463.757 175.559 462.91 175.17C462.064 174.781 461.399 174.239 460.917 173.545C460.443 172.842 460.206 172.085 460.206 171.272H462.555C462.597 172.06 462.91 172.686 463.494 173.151C464.087 173.608 464.865 173.837 465.83 173.837C466.719 173.837 467.43 173.659 467.963 173.304C468.505 172.94 468.775 172.457 468.775 171.856ZM478.678 172.06L481.877 161.764H484.391L478.868 177.62C478.013 179.905 476.655 181.048 474.793 181.048L474.349 181.01L473.473 180.845V178.94L474.107 178.991C474.903 178.991 475.521 178.83 475.961 178.509C476.41 178.187 476.778 177.599 477.065 176.744L477.586 175.348L472.686 161.764H475.25L478.678 172.06ZM494.496 171.856C494.496 171.222 494.255 170.731 493.772 170.384C493.299 170.028 492.465 169.724 491.271 169.47C490.087 169.216 489.143 168.911 488.44 168.556C487.746 168.2 487.23 167.777 486.892 167.286C486.562 166.795 486.396 166.211 486.396 165.534C486.396 164.409 486.87 163.456 487.818 162.678C488.775 161.899 489.993 161.51 491.475 161.51C493.032 161.51 494.293 161.912 495.258 162.716C496.231 163.52 496.718 164.548 496.718 165.801H494.356C494.356 165.158 494.081 164.603 493.531 164.138C492.99 163.672 492.304 163.439 491.475 163.439C490.62 163.439 489.951 163.626 489.469 163.998C488.986 164.37 488.745 164.857 488.745 165.458C488.745 166.025 488.969 166.452 489.418 166.74C489.867 167.028 490.675 167.303 491.843 167.565C493.019 167.828 493.971 168.141 494.699 168.505C495.427 168.869 495.965 169.309 496.312 169.825C496.667 170.333 496.845 170.955 496.845 171.691C496.845 172.919 496.354 173.905 495.372 174.649C494.39 175.386 493.117 175.754 491.551 175.754C490.451 175.754 489.477 175.559 488.631 175.17C487.785 174.781 487.12 174.239 486.638 173.545C486.164 172.842 485.927 172.085 485.927 171.272H488.275C488.318 172.06 488.631 172.686 489.215 173.151C489.807 173.608 490.586 173.837 491.551 173.837C492.439 173.837 493.15 173.659 493.684 173.304C494.225 172.94 494.496 172.457 494.496 171.856ZM502.456 175.5H500.107V156H502.456V175.5ZM505.604 168.505C505.604 167.159 505.867 165.949 506.392 164.874C506.925 163.799 507.661 162.97 508.601 162.386C509.549 161.802 510.628 161.51 511.838 161.51C513.708 161.51 515.219 162.157 516.37 163.452C517.53 164.747 518.109 166.469 518.109 168.619V168.784C518.109 170.121 517.851 171.323 517.335 172.39C516.827 173.448 516.095 174.273 515.139 174.865C514.191 175.458 513.099 175.754 511.863 175.754C510.001 175.754 508.491 175.106 507.331 173.812C506.18 172.517 505.604 170.803 505.604 168.67V168.505ZM507.966 168.784C507.966 170.308 508.317 171.531 509.02 172.453C509.73 173.376 510.678 173.837 511.863 173.837C513.057 173.837 514.005 173.371 514.707 172.44C515.41 171.501 515.761 170.189 515.761 168.505C515.761 166.998 515.401 165.78 514.682 164.849C513.971 163.909 513.023 163.439 511.838 163.439C510.678 163.439 509.743 163.901 509.032 164.823C508.321 165.746 507.966 167.066 507.966 168.784ZM520.496 168.518C520.496 166.376 520.991 164.675 521.981 163.414C522.972 162.145 524.284 161.51 525.917 161.51C527.593 161.51 528.9 162.102 529.84 163.287L529.954 161.764H532.1V175.17C532.1 176.947 531.571 178.348 530.513 179.372C529.463 180.396 528.05 180.908 526.272 180.908C525.282 180.908 524.313 180.697 523.365 180.273C522.417 179.85 521.694 179.271 521.194 178.534L522.413 177.125C523.42 178.369 524.652 178.991 526.107 178.991C527.25 178.991 528.139 178.67 528.773 178.026C529.417 177.383 529.738 176.478 529.738 175.31V174.129C528.799 175.212 527.517 175.754 525.892 175.754C524.284 175.754 522.98 175.106 521.981 173.812C520.991 172.517 520.496 170.752 520.496 168.518ZM522.857 168.784C522.857 170.333 523.175 171.552 523.81 172.44C524.444 173.321 525.333 173.761 526.476 173.761C527.957 173.761 529.044 173.088 529.738 171.742V165.471C529.019 164.159 527.94 163.503 526.501 163.503C525.358 163.503 524.465 163.947 523.822 164.836C523.179 165.725 522.857 167.041 522.857 168.784ZM540.542 168.606H534.347V166.689H540.542V168.606ZM545.062 161.764L545.138 163.49C546.187 162.17 547.558 161.51 549.251 161.51C552.154 161.51 553.618 163.147 553.644 166.423V175.5H551.295V166.41C551.286 165.42 551.058 164.688 550.609 164.214C550.169 163.74 549.479 163.503 548.54 163.503C547.778 163.503 547.11 163.706 546.534 164.112C545.959 164.519 545.51 165.052 545.188 165.712V175.5H542.84V161.764H545.062ZM556.627 168.518C556.627 166.376 557.122 164.675 558.112 163.414C559.103 162.145 560.414 161.51 562.048 161.51C563.724 161.51 565.031 162.102 565.971 163.287L566.085 161.764H568.23V175.17C568.23 176.947 567.701 178.348 566.644 179.372C565.594 180.396 564.181 180.908 562.403 180.908C561.413 180.908 560.444 180.697 559.496 180.273C558.548 179.85 557.825 179.271 557.325 178.534L558.544 177.125C559.551 178.369 560.783 178.991 562.238 178.991C563.381 178.991 564.27 178.67 564.904 178.026C565.548 177.383 565.869 176.478 565.869 175.31V174.129C564.93 175.212 563.647 175.754 562.022 175.754C560.414 175.754 559.111 175.106 558.112 173.812C557.122 172.517 556.627 170.752 556.627 168.518ZM558.988 168.784C558.988 170.333 559.306 171.552 559.94 172.44C560.575 173.321 561.464 173.761 562.606 173.761C564.088 173.761 565.175 173.088 565.869 171.742V165.471C565.15 164.159 564.071 163.503 562.632 163.503C561.489 163.503 560.596 163.947 559.953 164.836C559.31 165.725 558.988 167.041 558.988 168.784Z" fill="#E6E6E6"/>
<path d="M31.084 198.716C30.34 198.716 29.656 198.578 29.032 198.302C28.408 198.026 27.862 197.63 27.394 197.114C26.938 196.586 26.578 195.944 26.314 195.188C26.062 194.42 25.936 193.556 25.936 192.596C25.936 191.648 26.068 190.796 26.332 190.04C26.596 189.284 26.962 188.642 27.43 188.114C27.898 187.586 28.45 187.184 29.086 186.908C29.722 186.62 30.418 186.476 31.174 186.476C31.894 186.476 32.524 186.626 33.064 186.926C33.616 187.214 34.066 187.55 34.414 187.934L33.604 188.906C33.292 188.57 32.938 188.3 32.542 188.096C32.146 187.892 31.696 187.79 31.192 187.79C30.628 187.79 30.118 187.904 29.662 188.132C29.206 188.348 28.816 188.666 28.492 189.086C28.168 189.494 27.916 189.992 27.736 190.58C27.568 191.168 27.484 191.828 27.484 192.56C27.484 193.304 27.568 193.976 27.736 194.576C27.916 195.164 28.162 195.668 28.474 196.088C28.786 196.508 29.164 196.832 29.608 197.06C30.064 197.288 30.574 197.402 31.138 197.402C31.714 197.402 32.218 197.288 32.65 197.06C33.082 196.82 33.49 196.49 33.874 196.07L34.702 197.006C34.234 197.546 33.706 197.966 33.118 198.266C32.53 198.566 31.852 198.716 31.084 198.716ZM38.3252 198.716C37.7612 198.716 37.3592 198.548 37.1192 198.212C36.8792 197.876 36.7592 197.384 36.7592 196.736V185.684H38.2352V196.844C38.2352 197.084 38.2772 197.252 38.3612 197.348C38.4452 197.444 38.5412 197.492 38.6492 197.492C38.6972 197.492 38.7392 197.492 38.7752 197.492C38.8232 197.492 38.8892 197.48 38.9732 197.456L39.1712 198.572C39.0752 198.62 38.9612 198.656 38.8292 198.68C38.6972 198.704 38.5292 198.716 38.3252 198.716ZM41.3471 198.5V189.752H42.8231V198.5H41.3471ZM42.1031 187.952C41.8151 187.952 41.5691 187.862 41.3651 187.682C41.1731 187.502 41.0771 187.274 41.0771 186.998C41.0771 186.71 41.1731 186.482 41.3651 186.314C41.5691 186.134 41.8151 186.044 42.1031 186.044C42.3911 186.044 42.6311 186.134 42.8231 186.314C43.0271 186.482 43.1291 186.71 43.1291 186.998C43.1291 187.274 43.0271 187.502 42.8231 187.682C42.6311 187.862 42.3911 187.952 42.1031 187.952ZM49.3228 198.716C48.7348 198.716 48.1828 198.614 47.6668 198.41C47.1628 198.194 46.7188 197.894 46.3348 197.51C45.9628 197.114 45.6688 196.634 45.4528 196.07C45.2368 195.506 45.1288 194.864 45.1288 194.144C45.1288 193.424 45.2368 192.782 45.4528 192.218C45.6808 191.642 45.9748 191.156 46.3348 190.76C46.7068 190.364 47.1268 190.064 47.5948 189.86C48.0628 189.644 48.5488 189.536 49.0528 189.536C49.6048 189.536 50.0968 189.632 50.5288 189.824C50.9728 190.016 51.3388 190.292 51.6268 190.652C51.9268 191.012 52.1548 191.444 52.3108 191.948C52.4668 192.452 52.5448 193.016 52.5448 193.64C52.5448 193.796 52.5388 193.952 52.5268 194.108C52.5268 194.252 52.5148 194.378 52.4908 194.486H46.5868C46.6468 195.422 46.9348 196.166 47.4508 196.718C47.9788 197.258 48.6628 197.528 49.5028 197.528C49.9228 197.528 50.3068 197.468 50.6548 197.348C51.0148 197.216 51.3568 197.048 51.6808 196.844L52.2028 197.816C51.8188 198.056 51.3928 198.266 50.9248 198.446C50.4568 198.626 49.9228 198.716 49.3228 198.716ZM46.5688 193.424H51.2488C51.2488 192.536 51.0568 191.864 50.6728 191.408C50.3008 190.94 49.7728 190.706 49.0888 190.706C48.7768 190.706 48.4768 190.766 48.1888 190.886C47.9128 191.006 47.6608 191.186 47.4328 191.426C47.2048 191.654 47.0128 191.936 46.8568 192.272C46.7128 192.608 46.6168 192.992 46.5688 193.424ZM54.7065 198.5V189.752H55.9305L56.0565 191.012H56.1105C56.5305 190.592 56.9685 190.244 57.4245 189.968C57.8925 189.68 58.4325 189.536 59.0445 189.536C59.9685 189.536 60.6405 189.824 61.0605 190.4C61.4925 190.976 61.7085 191.828 61.7085 192.956V198.5H60.2325V193.154C60.2325 192.326 60.1005 191.732 59.8365 191.372C59.5725 191 59.1525 190.814 58.5765 190.814C58.1205 190.814 57.7185 190.928 57.3705 191.156C57.0225 191.384 56.6265 191.72 56.1825 192.164V198.5H54.7065ZM67.3042 198.716C66.8362 198.716 66.4402 198.644 66.1162 198.5C65.8042 198.356 65.5462 198.158 65.3422 197.906C65.1502 197.654 65.0122 197.348 64.9282 196.988C64.8442 196.628 64.8022 196.232 64.8022 195.8V190.958H63.5062V189.842L64.8742 189.752L65.0542 187.304H66.2962V189.752H68.6542V190.958H66.2962V195.818C66.2962 196.358 66.3922 196.778 66.5842 197.078C66.7882 197.366 67.1422 197.51 67.6462 197.51C67.8022 197.51 67.9702 197.486 68.1502 197.438C68.3302 197.39 68.4922 197.336 68.6362 197.276L68.9242 198.392C68.6842 198.476 68.4202 198.548 68.1322 198.608C67.8562 198.68 67.5802 198.716 67.3042 198.716ZM74.2358 198.5V189.752H75.4598L75.5858 191.012H75.6398C76.0238 190.592 76.4378 190.244 76.8818 189.968C77.3378 189.68 77.8298 189.536 78.3578 189.536C79.0298 189.536 79.5518 189.686 79.9238 189.986C80.3078 190.274 80.5898 190.682 80.7698 191.21C81.2258 190.706 81.6818 190.304 82.1378 190.004C82.6058 189.692 83.1098 189.536 83.6498 189.536C84.5498 189.536 85.2158 189.824 85.6478 190.4C86.0918 190.976 86.3138 191.828 86.3138 192.956V198.5H84.8378V193.154C84.8378 192.326 84.7058 191.732 84.4418 191.372C84.1778 191 83.7698 190.814 83.2178 190.814C82.5578 190.814 81.8258 191.264 81.0218 192.164V198.5H79.5458V193.154C79.5458 192.326 79.4138 191.732 79.1498 191.372C78.8858 191 78.4718 190.814 77.9078 190.814C77.2478 190.814 76.5158 191.264 75.7118 192.164V198.5H74.2358ZM92.5616 198.716C92.0216 198.716 91.5056 198.614 91.0136 198.41C90.5336 198.206 90.1076 197.912 89.7356 197.528C89.3636 197.132 89.0636 196.652 88.8356 196.088C88.6196 195.512 88.5116 194.864 88.5116 194.144C88.5116 193.412 88.6196 192.764 88.8356 192.2C89.0636 191.624 89.3636 191.138 89.7356 190.742C90.1076 190.346 90.5336 190.046 91.0136 189.842C91.5056 189.638 92.0216 189.536 92.5616 189.536C93.1016 189.536 93.6116 189.638 94.0916 189.842C94.5836 190.046 95.0156 190.346 95.3876 190.742C95.7596 191.138 96.0536 191.624 96.2696 192.2C96.4976 192.764 96.6116 193.412 96.6116 194.144C96.6116 194.864 96.4976 195.512 96.2696 196.088C96.0536 196.652 95.7596 197.132 95.3876 197.528C95.0156 197.912 94.5836 198.206 94.0916 198.41C93.6116 198.614 93.1016 198.716 92.5616 198.716ZM92.5616 197.492C92.9336 197.492 93.2756 197.414 93.5876 197.258C93.8996 197.09 94.1636 196.862 94.3796 196.574C94.6076 196.274 94.7816 195.92 94.9016 195.512C95.0216 195.104 95.0816 194.648 95.0816 194.144C95.0816 193.64 95.0216 193.184 94.9016 192.776C94.7816 192.356 94.6076 191.996 94.3796 191.696C94.1636 191.396 93.8996 191.168 93.5876 191.012C93.2756 190.844 92.9336 190.76 92.5616 190.76C92.1896 190.76 91.8476 190.844 91.5356 191.012C91.2236 191.168 90.9536 191.396 90.7256 191.696C90.5096 191.996 90.3416 192.356 90.2216 192.776C90.1016 193.184 90.0416 193.64 90.0416 194.144C90.0416 194.648 90.1016 195.104 90.2216 195.512C90.3416 195.92 90.5096 196.274 90.7256 196.574C90.9536 196.862 91.2236 197.09 91.5356 197.258C91.8476 197.414 92.1896 197.492 92.5616 197.492ZM101.903 198.716C100.799 198.716 99.9175 198.32 99.2575 197.528C98.6095 196.736 98.2855 195.608 98.2855 194.144C98.2855 193.436 98.3875 192.8 98.5915 192.236C98.8075 191.66 99.0895 191.174 99.4375 190.778C99.7855 190.382 100.187 190.076 100.643 189.86C101.099 189.644 101.579 189.536 102.083 189.536C102.587 189.536 103.025 189.626 103.397 189.806C103.769 189.986 104.147 190.232 104.531 190.544L104.459 189.05V185.684H105.953V198.5H104.729L104.603 197.474H104.549C104.201 197.81 103.799 198.104 103.343 198.356C102.899 198.596 102.419 198.716 101.903 198.716ZM102.227 197.474C102.635 197.474 103.019 197.378 103.379 197.186C103.739 196.982 104.099 196.676 104.459 196.268V191.696C104.087 191.36 103.727 191.126 103.379 190.994C103.043 190.85 102.695 190.778 102.335 190.778C101.987 190.778 101.657 190.862 101.345 191.03C101.045 191.186 100.781 191.414 100.553 191.714C100.325 192.002 100.145 192.35 100.013 192.758C99.8815 193.166 99.8155 193.622 99.8155 194.126C99.8155 195.182 100.025 196.004 100.445 196.592C100.865 197.18 101.459 197.474 102.227 197.474ZM112.446 198.716C111.858 198.716 111.306 198.614 110.79 198.41C110.286 198.194 109.842 197.894 109.458 197.51C109.086 197.114 108.792 196.634 108.576 196.07C108.36 195.506 108.252 194.864 108.252 194.144C108.252 193.424 108.36 192.782 108.576 192.218C108.804 191.642 109.098 191.156 109.458 190.76C109.83 190.364 110.25 190.064 110.718 189.86C111.186 189.644 111.672 189.536 112.176 189.536C112.728 189.536 113.22 189.632 113.652 189.824C114.096 190.016 114.462 190.292 114.75 190.652C115.05 191.012 115.278 191.444 115.434 191.948C115.59 192.452 115.668 193.016 115.668 193.64C115.668 193.796 115.662 193.952 115.65 194.108C115.65 194.252 115.638 194.378 115.614 194.486H109.71C109.77 195.422 110.058 196.166 110.574 196.718C111.102 197.258 111.786 197.528 112.626 197.528C113.046 197.528 113.43 197.468 113.778 197.348C114.138 197.216 114.48 197.048 114.804 196.844L115.326 197.816C114.942 198.056 114.516 198.266 114.048 198.446C113.58 198.626 113.046 198.716 112.446 198.716ZM109.692 193.424H114.372C114.372 192.536 114.18 191.864 113.796 191.408C113.424 190.94 112.896 190.706 112.212 190.706C111.9 190.706 111.6 190.766 111.312 190.886C111.036 191.006 110.784 191.186 110.556 191.426C110.328 191.654 110.136 191.936 109.98 192.272C109.836 192.608 109.74 192.992 109.692 193.424Z" fill="#E6E6E6"/>
<path d="M251.62 197V185.192H255.31C255.91 185.192 256.462 185.252 256.966 185.372C257.482 185.48 257.92 185.666 258.28 185.93C258.652 186.194 258.94 186.536 259.144 186.956C259.348 187.376 259.45 187.892 259.45 188.504C259.45 189.428 259.21 190.166 258.73 190.718C258.25 191.27 257.602 191.648 256.786 191.852L259.792 197H258.1L255.256 192.014H253.114V197H251.62ZM253.114 190.79H255.094C256.018 190.79 256.726 190.604 257.218 190.232C257.71 189.848 257.956 189.272 257.956 188.504C257.956 187.724 257.71 187.178 257.218 186.866C256.726 186.554 256.018 186.398 255.094 186.398H253.114V190.79ZM265.094 197.216C264.506 197.216 263.954 197.114 263.438 196.91C262.934 196.694 262.49 196.394 262.106 196.01C261.734 195.614 261.44 195.134 261.224 194.57C261.008 194.006 260.9 193.364 260.9 192.644C260.9 191.924 261.008 191.282 261.224 190.718C261.452 190.142 261.746 189.656 262.106 189.26C262.478 188.864 262.898 188.564 263.366 188.36C263.834 188.144 264.32 188.036 264.824 188.036C265.376 188.036 265.868 188.132 266.3 188.324C266.744 188.516 267.11 188.792 267.398 189.152C267.698 189.512 267.926 189.944 268.082 190.448C268.238 190.952 268.316 191.516 268.316 192.14C268.316 192.296 268.31 192.452 268.298 192.608C268.298 192.752 268.286 192.878 268.262 192.986H262.358C262.418 193.922 262.706 194.666 263.222 195.218C263.75 195.758 264.434 196.028 265.274 196.028C265.694 196.028 266.078 195.968 266.426 195.848C266.786 195.716 267.128 195.548 267.452 195.344L267.974 196.316C267.59 196.556 267.164 196.766 266.696 196.946C266.228 197.126 265.694 197.216 265.094 197.216ZM262.34 191.924H267.02C267.02 191.036 266.828 190.364 266.444 189.908C266.072 189.44 265.544 189.206 264.86 189.206C264.548 189.206 264.248 189.266 263.96 189.386C263.684 189.506 263.432 189.686 263.204 189.926C262.976 190.154 262.784 190.436 262.628 190.772C262.484 191.108 262.388 191.492 262.34 191.924ZM272.044 197.216C271.48 197.216 271.078 197.048 270.838 196.712C270.598 196.376 270.478 195.884 270.478 195.236V184.184H271.954V195.344C271.954 195.584 271.996 195.752 272.08 195.848C272.164 195.944 272.26 195.992 272.368 195.992C272.416 195.992 272.458 195.992 272.494 195.992C272.542 195.992 272.608 195.98 272.692 195.956L272.89 197.072C272.794 197.12 272.68 197.156 272.548 197.18C272.416 197.204 272.248 197.216 272.044 197.216ZM277.082 197.216C276.35 197.216 275.738 197 275.246 196.568C274.766 196.136 274.526 195.524 274.526 194.732C274.526 193.772 274.952 193.04 275.804 192.536C276.656 192.02 278.018 191.66 279.89 191.456C279.89 191.18 279.86 190.91 279.8 190.646C279.752 190.382 279.662 190.148 279.53 189.944C279.398 189.74 279.212 189.578 278.972 189.458C278.744 189.326 278.45 189.26 278.09 189.26C277.586 189.26 277.112 189.356 276.668 189.548C276.224 189.74 275.828 189.956 275.48 190.196L274.904 189.17C275.312 188.906 275.81 188.654 276.398 188.414C276.986 188.162 277.634 188.036 278.342 188.036C279.41 188.036 280.184 188.366 280.664 189.026C281.144 189.674 281.384 190.544 281.384 191.636V197H280.16L280.034 195.956H279.98C279.56 196.304 279.11 196.604 278.63 196.856C278.15 197.096 277.634 197.216 277.082 197.216ZM277.514 196.028C277.934 196.028 278.33 195.932 278.702 195.74C279.074 195.536 279.47 195.242 279.89 194.858V192.428C279.158 192.524 278.54 192.638 278.036 192.77C277.544 192.902 277.142 193.058 276.83 193.238C276.53 193.418 276.308 193.628 276.164 193.868C276.032 194.096 275.966 194.348 275.966 194.624C275.966 195.128 276.116 195.488 276.416 195.704C276.716 195.92 277.082 196.028 277.514 196.028ZM284.28 200.762C284.076 200.762 283.89 200.744 283.722 200.708C283.554 200.684 283.398 200.642 283.254 200.582L283.542 199.412C283.638 199.436 283.746 199.46 283.866 199.484C283.986 199.52 284.1 199.538 284.208 199.538C284.712 199.538 285.12 199.358 285.432 198.998C285.756 198.65 286.008 198.206 286.188 197.666L286.386 197.018L282.876 188.252H284.406L286.188 193.094C286.32 193.478 286.458 193.886 286.602 194.318C286.758 194.738 286.902 195.152 287.034 195.56H287.106C287.238 195.164 287.364 194.75 287.484 194.318C287.604 193.886 287.724 193.478 287.844 193.094L289.41 188.252H290.85L287.556 197.72C287.4 198.152 287.226 198.554 287.034 198.926C286.842 199.298 286.614 199.616 286.35 199.88C286.086 200.156 285.786 200.372 285.45 200.528C285.114 200.684 284.724 200.762 284.28 200.762ZM296.142 197V188.252H297.366L297.492 189.512H297.546C297.93 189.092 298.344 188.744 298.788 188.468C299.244 188.18 299.736 188.036 300.264 188.036C300.936 188.036 301.458 188.186 301.83 188.486C302.214 188.774 302.496 189.182 302.676 189.71C303.132 189.206 303.588 188.804 304.044 188.504C304.512 188.192 305.016 188.036 305.556 188.036C306.456 188.036 307.122 188.324 307.554 188.9C307.998 189.476 308.22 190.328 308.22 191.456V197H306.744V191.654C306.744 190.826 306.612 190.232 306.348 189.872C306.084 189.5 305.676 189.314 305.124 189.314C304.464 189.314 303.732 189.764 302.928 190.664V197H301.452V191.654C301.452 190.826 301.32 190.232 301.056 189.872C300.792 189.5 300.378 189.314 299.814 189.314C299.154 189.314 298.422 189.764 297.618 190.664V197H296.142ZM314.468 197.216C313.928 197.216 313.412 197.114 312.92 196.91C312.44 196.706 312.014 196.412 311.642 196.028C311.27 195.632 310.97 195.152 310.742 194.588C310.526 194.012 310.418 193.364 310.418 192.644C310.418 191.912 310.526 191.264 310.742 190.7C310.97 190.124 311.27 189.638 311.642 189.242C312.014 188.846 312.44 188.546 312.92 188.342C313.412 188.138 313.928 188.036 314.468 188.036C315.008 188.036 315.518 188.138 315.998 188.342C316.49 188.546 316.922 188.846 317.294 189.242C317.666 189.638 317.96 190.124 318.176 190.7C318.404 191.264 318.518 191.912 318.518 192.644C318.518 193.364 318.404 194.012 318.176 194.588C317.96 195.152 317.666 195.632 317.294 196.028C316.922 196.412 316.49 196.706 315.998 196.91C315.518 197.114 315.008 197.216 314.468 197.216ZM314.468 195.992C314.84 195.992 315.182 195.914 315.494 195.758C315.806 195.59 316.07 195.362 316.286 195.074C316.514 194.774 316.688 194.42 316.808 194.012C316.928 193.604 316.988 193.148 316.988 192.644C316.988 192.14 316.928 191.684 316.808 191.276C316.688 190.856 316.514 190.496 316.286 190.196C316.07 189.896 315.806 189.668 315.494 189.512C315.182 189.344 314.84 189.26 314.468 189.26C314.096 189.26 313.754 189.344 313.442 189.512C313.13 189.668 312.86 189.896 312.632 190.196C312.416 190.496 312.248 190.856 312.128 191.276C312.008 191.684 311.948 192.14 311.948 192.644C311.948 193.148 312.008 193.604 312.128 194.012C312.248 194.42 312.416 194.774 312.632 195.074C312.86 195.362 313.13 195.59 313.442 195.758C313.754 195.914 314.096 195.992 314.468 195.992ZM323.81 197.216C322.706 197.216 321.824 196.82 321.164 196.028C320.516 195.236 320.192 194.108 320.192 192.644C320.192 191.936 320.294 191.3 320.498 190.736C320.714 190.16 320.996 189.674 321.344 189.278C321.692 188.882 322.094 188.576 322.55 188.36C323.006 188.144 323.486 188.036 323.99 188.036C324.494 188.036 324.932 188.126 325.304 188.306C325.676 188.486 326.054 188.732 326.438 189.044L326.366 187.55V184.184H327.86V197H326.636L326.51 195.974H326.456C326.108 196.31 325.706 196.604 325.25 196.856C324.806 197.096 324.326 197.216 323.81 197.216ZM324.134 195.974C324.542 195.974 324.926 195.878 325.286 195.686C325.646 195.482 326.006 195.176 326.366 194.768V190.196C325.994 189.86 325.634 189.626 325.286 189.494C324.95 189.35 324.602 189.278 324.242 189.278C323.894 189.278 323.564 189.362 323.252 189.53C322.952 189.686 322.688 189.914 322.46 190.214C322.232 190.502 322.052 190.85 321.92 191.258C321.788 191.666 321.722 192.122 321.722 192.626C321.722 193.682 321.932 194.504 322.352 195.092C322.772 195.68 323.366 195.974 324.134 195.974ZM334.352 197.216C333.764 197.216 333.212 197.114 332.696 196.91C332.192 196.694 331.748 196.394 331.364 196.01C330.992 195.614 330.698 195.134 330.482 194.57C330.266 194.006 330.158 193.364 330.158 192.644C330.158 191.924 330.266 191.282 330.482 190.718C330.71 190.142 331.004 189.656 331.364 189.26C331.736 188.864 332.156 188.564 332.624 188.36C333.092 188.144 333.578 188.036 334.082 188.036C334.634 188.036 335.126 188.132 335.558 188.324C336.002 188.516 336.368 188.792 336.656 189.152C336.956 189.512 337.184 189.944 337.34 190.448C337.496 190.952 337.574 191.516 337.574 192.14C337.574 192.296 337.568 192.452 337.556 192.608C337.556 192.752 337.544 192.878 337.52 192.986H331.616C331.676 193.922 331.964 194.666 332.48 195.218C333.008 195.758 333.692 196.028 334.532 196.028C334.952 196.028 335.336 195.968 335.684 195.848C336.044 195.716 336.386 195.548 336.71 195.344L337.232 196.316C336.848 196.556 336.422 196.766 335.954 196.946C335.486 197.126 334.952 197.216 334.352 197.216ZM331.598 191.924H336.278C336.278 191.036 336.086 190.364 335.702 189.908C335.33 189.44 334.802 189.206 334.118 189.206C333.806 189.206 333.506 189.266 333.218 189.386C332.942 189.506 332.69 189.686 332.462 189.926C332.234 190.154 332.042 190.436 331.886 190.772C331.742 191.108 331.646 191.492 331.598 191.924Z" fill="#E6E6E6"/>
<path d="M468.896 195.716C468.068 195.716 467.3 195.56 466.592 195.248C465.884 194.936 465.272 194.51 464.756 193.97L465.656 192.926C466.076 193.37 466.568 193.73 467.132 194.006C467.708 194.27 468.302 194.402 468.914 194.402C469.694 194.402 470.3 194.228 470.732 193.88C471.164 193.52 471.38 193.052 471.38 192.476C471.38 192.176 471.326 191.924 471.218 191.72C471.122 191.504 470.984 191.324 470.804 191.18C470.636 191.024 470.432 190.886 470.192 190.766C469.952 190.646 469.694 190.52 469.418 190.388L467.726 189.65C467.45 189.53 467.168 189.386 466.88 189.218C466.592 189.05 466.334 188.846 466.106 188.606C465.878 188.366 465.692 188.084 465.548 187.76C465.404 187.424 465.332 187.04 465.332 186.608C465.332 186.164 465.422 185.75 465.602 185.366C465.794 184.982 466.052 184.652 466.376 184.376C466.712 184.088 467.102 183.866 467.546 183.71C468.002 183.554 468.5 183.476 469.04 183.476C469.748 183.476 470.402 183.614 471.002 183.89C471.602 184.154 472.112 184.502 472.532 184.934L471.722 185.906C471.362 185.558 470.96 185.288 470.516 185.096C470.084 184.892 469.592 184.79 469.04 184.79C468.38 184.79 467.846 184.946 467.438 185.258C467.042 185.558 466.844 185.978 466.844 186.518C466.844 186.806 466.898 187.052 467.006 187.256C467.126 187.448 467.282 187.622 467.474 187.778C467.666 187.922 467.876 188.054 468.104 188.174C468.332 188.282 468.566 188.384 468.806 188.48L470.48 189.2C470.816 189.344 471.134 189.512 471.434 189.704C471.734 189.884 471.992 190.1 472.208 190.352C472.424 190.592 472.592 190.88 472.712 191.216C472.844 191.54 472.91 191.918 472.91 192.35C472.91 192.818 472.814 193.256 472.622 193.664C472.442 194.072 472.178 194.432 471.83 194.744C471.482 195.044 471.062 195.284 470.57 195.464C470.078 195.632 469.52 195.716 468.896 195.716ZM478.637 195.716C478.049 195.716 477.497 195.614 476.981 195.41C476.477 195.194 476.033 194.894 475.649 194.51C475.277 194.114 474.983 193.634 474.767 193.07C474.551 192.506 474.443 191.864 474.443 191.144C474.443 190.424 474.551 189.782 474.767 189.218C474.995 188.642 475.289 188.156 475.649 187.76C476.021 187.364 476.441 187.064 476.909 186.86C477.377 186.644 477.863 186.536 478.367 186.536C478.919 186.536 479.411 186.632 479.843 186.824C480.287 187.016 480.653 187.292 480.941 187.652C481.241 188.012 481.469 188.444 481.625 188.948C481.781 189.452 481.859 190.016 481.859 190.64C481.859 190.796 481.853 190.952 481.841 191.108C481.841 191.252 481.829 191.378 481.805 191.486H475.901C475.961 192.422 476.249 193.166 476.765 193.718C477.293 194.258 477.977 194.528 478.817 194.528C479.237 194.528 479.621 194.468 479.969 194.348C480.329 194.216 480.671 194.048 480.995 193.844L481.517 194.816C481.133 195.056 480.707 195.266 480.239 195.446C479.771 195.626 479.237 195.716 478.637 195.716ZM475.883 190.424H480.563C480.563 189.536 480.371 188.864 479.987 188.408C479.615 187.94 479.087 187.706 478.403 187.706C478.091 187.706 477.791 187.766 477.503 187.886C477.227 188.006 476.975 188.186 476.747 188.426C476.519 188.654 476.327 188.936 476.171 189.272C476.027 189.608 475.931 189.992 475.883 190.424ZM484.021 195.5V186.752H485.245L485.371 188.336H485.425C485.725 187.784 486.085 187.346 486.505 187.022C486.937 186.698 487.405 186.536 487.909 186.536C488.257 186.536 488.569 186.596 488.845 186.716L488.557 188.012C488.413 187.964 488.281 187.928 488.161 187.904C488.041 187.88 487.891 187.868 487.711 187.868C487.339 187.868 486.949 188.018 486.541 188.318C486.145 188.618 485.797 189.14 485.497 189.884V195.5H484.021ZM492.608 195.5L489.458 186.752H490.988L492.644 191.72C492.776 192.152 492.908 192.584 493.04 193.016C493.184 193.448 493.322 193.874 493.454 194.294H493.526C493.658 193.874 493.79 193.448 493.922 193.016C494.054 192.584 494.186 192.152 494.318 191.72L495.974 186.752H497.432L494.336 195.5H492.608ZM502.596 195.716C502.008 195.716 501.456 195.614 500.94 195.41C500.436 195.194 499.992 194.894 499.608 194.51C499.236 194.114 498.942 193.634 498.726 193.07C498.51 192.506 498.402 191.864 498.402 191.144C498.402 190.424 498.51 189.782 498.726 189.218C498.954 188.642 499.248 188.156 499.608 187.76C499.98 187.364 500.4 187.064 500.868 186.86C501.336 186.644 501.822 186.536 502.326 186.536C502.878 186.536 503.37 186.632 503.802 186.824C504.246 187.016 504.612 187.292 504.9 187.652C505.2 188.012 505.428 188.444 505.584 188.948C505.74 189.452 505.818 190.016 505.818 190.64C505.818 190.796 505.812 190.952 505.8 191.108C505.8 191.252 505.788 191.378 505.764 191.486H499.86C499.92 192.422 500.208 193.166 500.724 193.718C501.252 194.258 501.936 194.528 502.776 194.528C503.196 194.528 503.58 194.468 503.928 194.348C504.288 194.216 504.63 194.048 504.954 193.844L505.476 194.816C505.092 195.056 504.666 195.266 504.198 195.446C503.73 195.626 503.196 195.716 502.596 195.716ZM499.842 190.424H504.522C504.522 189.536 504.33 188.864 503.946 188.408C503.574 187.94 503.046 187.706 502.362 187.706C502.05 187.706 501.75 187.766 501.462 187.886C501.186 188.006 500.934 188.186 500.706 188.426C500.478 188.654 500.286 188.936 500.13 189.272C499.986 189.608 499.89 189.992 499.842 190.424ZM507.98 195.5V186.752H509.204L509.33 188.336H509.384C509.684 187.784 510.044 187.346 510.464 187.022C510.896 186.698 511.364 186.536 511.868 186.536C512.216 186.536 512.528 186.596 512.804 186.716L512.516 188.012C512.372 187.964 512.24 187.928 512.12 187.904C512 187.88 511.85 187.868 511.67 187.868C511.298 187.868 510.908 188.018 510.5 188.318C510.104 188.618 509.756 189.14 509.456 189.884V195.5H507.98ZM517.824 195.5V186.752H519.048L519.174 188.012H519.228C519.612 187.592 520.026 187.244 520.47 186.968C520.926 186.68 521.418 186.536 521.946 186.536C522.618 186.536 523.14 186.686 523.512 186.986C523.896 187.274 524.178 187.682 524.358 188.21C524.814 187.706 525.27 187.304 525.726 187.004C526.194 186.692 526.698 186.536 527.238 186.536C528.138 186.536 528.804 186.824 529.236 187.4C529.68 187.976 529.902 188.828 529.902 189.956V195.5H528.426V190.154C528.426 189.326 528.294 188.732 528.03 188.372C527.766 188 527.358 187.814 526.806 187.814C526.146 187.814 525.414 188.264 524.61 189.164V195.5H523.134V190.154C523.134 189.326 523.002 188.732 522.738 188.372C522.474 188 522.06 187.814 521.496 187.814C520.836 187.814 520.104 188.264 519.3 189.164V195.5H517.824ZM536.149 195.716C535.609 195.716 535.093 195.614 534.601 195.41C534.121 195.206 533.695 194.912 533.323 194.528C532.951 194.132 532.651 193.652 532.423 193.088C532.207 192.512 532.099 191.864 532.099 191.144C532.099 190.412 532.207 189.764 532.423 189.2C532.651 188.624 532.951 188.138 533.323 187.742C533.695 187.346 534.121 187.046 534.601 186.842C535.093 186.638 535.609 186.536 536.149 186.536C536.689 186.536 537.199 186.638 537.679 186.842C538.171 187.046 538.603 187.346 538.975 187.742C539.347 188.138 539.641 188.624 539.857 189.2C540.085 189.764 540.199 190.412 540.199 191.144C540.199 191.864 540.085 192.512 539.857 193.088C539.641 193.652 539.347 194.132 538.975 194.528C538.603 194.912 538.171 195.206 537.679 195.41C537.199 195.614 536.689 195.716 536.149 195.716ZM536.149 194.492C536.521 194.492 536.863 194.414 537.175 194.258C537.487 194.09 537.751 193.862 537.967 193.574C538.195 193.274 538.369 192.92 538.489 192.512C538.609 192.104 538.669 191.648 538.669 191.144C538.669 190.64 538.609 190.184 538.489 189.776C538.369 189.356 538.195 188.996 537.967 188.696C537.751 188.396 537.487 188.168 537.175 188.012C536.863 187.844 536.521 187.76 536.149 187.76C535.777 187.76 535.435 187.844 535.123 188.012C534.811 188.168 534.541 188.396 534.313 188.696C534.097 188.996 533.929 189.356 533.809 189.776C533.689 190.184 533.629 190.64 533.629 191.144C533.629 191.648 533.689 192.104 533.809 192.512C533.929 192.92 534.097 193.274 534.313 193.574C534.541 193.862 534.811 194.09 535.123 194.258C535.435 194.414 535.777 194.492 536.149 194.492ZM545.491 195.716C544.387 195.716 543.505 195.32 542.845 194.528C542.197 193.736 541.873 192.608 541.873 191.144C541.873 190.436 541.975 189.8 542.179 189.236C542.395 188.66 542.677 188.174 543.025 187.778C543.373 187.382 543.775 187.076 544.231 186.86C544.687 186.644 545.167 186.536 545.671 186.536C546.175 186.536 546.613 186.626 546.985 186.806C547.357 186.986 547.735 187.232 548.119 187.544L548.047 186.05V182.684H549.541V195.5H548.317L548.191 194.474H548.137C547.789 194.81 547.387 195.104 546.931 195.356C546.487 195.596 546.007 195.716 545.491 195.716ZM545.815 194.474C546.223 194.474 546.607 194.378 546.967 194.186C547.327 193.982 547.687 193.676 548.047 193.268V188.696C547.675 188.36 547.315 188.126 546.967 187.994C546.631 187.85 546.283 187.778 545.923 187.778C545.575 187.778 545.245 187.862 544.933 188.03C544.633 188.186 544.369 188.414 544.141 188.714C543.913 189.002 543.733 189.35 543.601 189.758C543.469 190.166 543.403 190.622 543.403 191.126C543.403 192.182 543.613 193.004 544.033 193.592C544.453 194.18 545.047 194.474 545.815 194.474ZM556.034 195.716C555.446 195.716 554.894 195.614 554.378 195.41C553.874 195.194 553.43 194.894 553.046 194.51C552.674 194.114 552.38 193.634 552.164 193.07C551.948 192.506 551.84 191.864 551.84 191.144C551.84 190.424 551.948 189.782 552.164 189.218C552.392 188.642 552.686 188.156 553.046 187.76C553.418 187.364 553.838 187.064 554.306 186.86C554.774 186.644 555.26 186.536 555.764 186.536C556.316 186.536 556.808 186.632 557.24 186.824C557.684 187.016 558.05 187.292 558.338 187.652C558.638 188.012 558.866 188.444 559.022 188.948C559.178 189.452 559.256 190.016 559.256 190.64C559.256 190.796 559.25 190.952 559.238 191.108C559.238 191.252 559.226 191.378 559.202 191.486H553.298C553.358 192.422 553.646 193.166 554.162 193.718C554.69 194.258 555.374 194.528 556.214 194.528C556.634 194.528 557.018 194.468 557.366 194.348C557.726 194.216 558.068 194.048 558.392 193.844L558.914 194.816C558.53 195.056 558.104 195.266 557.636 195.446C557.168 195.626 556.634 195.716 556.034 195.716ZM553.28 190.424H557.96C557.96 189.536 557.768 188.864 557.384 188.408C557.012 187.94 556.484 187.706 555.8 187.706C555.488 187.706 555.188 187.766 554.9 187.886C554.624 188.006 554.372 188.186 554.144 188.426C553.916 188.654 553.724 188.936 553.568 189.272C553.424 189.608 553.328 189.992 553.28 190.424Z" fill="#E6E6E6"/>
</g>
<defs>
<clipPath id="clip0">
<rect width="585" height="207" fill="white" transform="translate(0 0.5)"/>
</clipPath>
</defs>
</svg>
