<svg width="150" height="150" viewBox="0 0 150 150" fill="none" xmlns="http://www.w3.org/2000/svg">
<path d="M74.9955 47.73C82.5286 47.73 88.6355 41.6232 88.6355 34.09C88.6355 26.5568 82.5286 20.45 74.9955 20.45C67.4623 20.45 61.3555 26.5568 61.3555 34.09C61.3555 41.6232 67.4623 47.73 74.9955 47.73Z" fill="#29AAE1"/>
<path d="M74.9955 88.64C82.5286 88.64 88.6355 82.5331 88.6355 75C88.6355 67.4668 82.5286 61.36 74.9955 61.36C67.4623 61.36 61.3555 67.4668 61.3555 75C61.3555 82.5331 67.4623 88.64 74.9955 88.64Z" fill="#29AAE1"/>
<path d="M74.9955 129.55C82.5286 129.55 88.6355 123.443 88.6355 115.91C88.6355 108.377 82.5286 102.27 74.9955 102.27C67.4623 102.27 61.3555 108.377 61.3555 115.91C61.3555 123.443 67.4623 129.55 74.9955 129.55Z" fill="#29AAE1"/>
<path d="M136.365 6.82H107.195C106.008 4.75302 104.299 3.03465 102.238 1.83751C100.177 0.640383 97.838 0.00665568 95.4548 0H54.5448C52.1613 0.00564234 49.8214 0.638943 47.7605 1.83618C45.6996 3.03341 43.9903 4.75234 42.8048 6.82H13.6348V30.1L31.2648 47.73H13.6348V71.01L31.2648 88.64H13.6348V111.91L41.3448 139.63C42.0723 142.584 43.767 145.209 46.159 147.088C48.551 148.967 51.5029 149.992 54.5448 150H95.4548C98.4958 149.994 101.447 148.969 103.838 147.089C106.229 145.21 107.921 142.584 108.645 139.63L136.365 111.91V88.64H118.735L136.365 71.01V47.73H118.735L136.365 30.1V6.82ZM27.2748 20.5H40.9048V38.09L27.2748 24.5V20.5ZM27.2748 61.41H40.9048V78.99L27.2748 65.36V61.41ZM27.2748 102.32H40.9048V119.9L27.2748 106.27V102.32ZM54.5448 136.41V13.64H95.4548V136.36L54.5448 136.41ZM122.725 106.32L109.135 119.9V102.27H122.775L122.725 106.32ZM122.725 65.41L109.135 78.99V61.36H122.775L122.725 65.41ZM122.725 24.5L109.135 38.09V20.5H122.775L122.725 24.5Z" fill="white"/>
</svg>
