<svg width="200" height="200" viewBox="0 0 200 200" fill="none" xmlns="http://www.w3.org/2000/svg">
<g clip-path="url(#clip0)">
<path d="M100.2 123.7C113.2 123.7 123.7 113.2 123.7 100.2C123.7 87.2 113.2 76.7 100.2 76.7C87.2002 76.7 76.7002 87.2 76.7002 100.2C76.7002 113.2 87.2002 123.7 100.2 123.7Z" fill="white"/>
<path d="M100.2 33C84.6 33 69.7 38.3 57.8 48.1L47.2 40L42.7 74L74.4 60.9L64.3 53.1C74.6 45.3 87.1 41 100.2 41C132.8 41 159.4 67.5 159.4 100.2C159.4 132.9 132.9 159.4 100.2 159.4C67.5 159.4 41 132.8 41 100.2H33C33 137.2 63.1 167.4 100.2 167.4C137.3 167.4 167.4 137.3 167.4 100.2C167.4 63.1 137.2 33 100.2 33Z" fill="#00AEEF"/>
</g>
<defs>
<clipPath id="clip0">
<rect width="134.3" height="134.3" fill="white" transform="translate(33 33)"/>
</clipPath>
</defs>
</svg>
