<svg width="200" height="200" viewBox="0 0 200 200" fill="none" xmlns="http://www.w3.org/2000/svg">
<g clip-path="url(#clip0)">
<path d="M145.8 62.1H137.8V27.9C137.8 20.8 132 15 124.9 15C117.8 15 112 20.8 112 27.9V53.6H104V27.9C103.9 16.4 113.3 7 124.8 7C136.3 7 145.7 16.4 145.7 27.9V62.1H145.8Z" fill="#00AEEF"/>
<path d="M53.7 172.6H32.9L18 157.7L31.2 144.5L40.3 143.2L41.5 134L50.1 125.3L59.2 124L60.4 114.8L71 104.1C65.9 89.3 69.5 72.9 80.7 61.6C90 52.6 102.5 48.3 115.3 50L114.2 58C103.9 56.6 93.8 60 86.5 67.4C77 77 74.2 91.2 79.5 103.7L80.5 106.2L68 118.7L66.3 131.3L53.8 133L49 137.9L47.3 150.5L34.9 152L29.3 157.7L36.2 164.7H50.3L94.5 120.2L97 121.3C101.3 123.1 105.8 124 110.4 123.9C115.1 123.8 119.6 122.8 123.8 120.8L127.2 128C122 130.5 116.4 131.8 110.6 131.9C105.8 132 101 131.2 96.5 129.7L53.7 172.6Z" fill="white"/>
<path d="M145 192.9H123.9V174.2L129.5 166.8L123.9 159.4V147.1L129.5 139.7L123.9 132.3V117.2C109.8 110.4 100.9 96.2 100.9 80.3C100.9 57.6 119.2 39.2 141.8 39.2C164.4 39.2 182.7 57.6 182.7 80.3C182.7 96.2 173.8 110.4 159.7 117.2V178.1L145 192.9ZM131.9 184.9H141.7L151.7 174.8V111.9L154.2 110.9C166.7 105.8 174.7 93.8 174.7 80.3C174.7 62.1 160 47.2 141.8 47.2C123.6 47.2 108.9 62 108.9 80.3C108.9 93.8 116.9 105.9 129.4 110.9L131.9 111.9V129.6L139.5 139.7L131.9 149.8V156.7L139.5 166.8L131.9 176.9V184.9ZM141.8 86C134.1 86 127.9 79.7 127.9 72C127.9 64.3 134.1 58 141.8 58C149.5 58 155.7 64.3 155.7 72C155.7 79.7 149.4 86 141.8 86ZM141.8 66.1C138.5 66.1 135.9 68.8 135.9 72.1C135.9 75.4 138.6 78.1 141.8 78.1C145.1 78.1 147.7 75.4 147.7 72.1C147.7 68.8 145 66.1 141.8 66.1Z" fill="#00AEEF"/>
</g>
<defs>
<clipPath id="clip0">
<rect width="164.6" height="185.9" fill="white" transform="translate(18 7)"/>
</clipPath>
</defs>
</svg>
