<svg width="200" height="200" viewBox="0 0 200 200" fill="none" xmlns="http://www.w3.org/2000/svg">
<g clip-path="url(#clip0)">
<path d="M78.8004 87.3H61.9004V96.1H78.8004V87.3Z" fill="#64D2F3"/>
<path d="M109.4 87.3H86.9004V96.1H109.4V87.3Z" fill="#64D2F3"/>
<path d="M68.6012 132L54.8012 145.7C53.1012 144.8 51.2012 144.2 49.1012 144.2C42.5012 144.2 37.2012 149.6 37.2012 156.2C37.2012 162.8 42.5012 168.2 49.1012 168.2C55.7012 168.2 61.0012 162.8 61.0012 156.2C61.0012 154.9 60.8012 153.6 60.4012 152.4L72.2012 140.7H121.901V132H68.6012Z" fill="#64D2F3"/>
<path d="M36.9 71.3999C41.9 71.3999 46.2 68.1999 48 63.7999H57L67.4 73.6999H95V64.8999H70.8L60.4 54.9999H48C46.3 50.4999 42 47.3999 36.9 47.3999C30.3 47.3999 25 52.7999 25 59.3999C25 65.9999 30.3 71.3999 36.9 71.3999Z" fill="#64D2F3"/>
<path d="M48.0004 128.3H60.4004L70.8004 118.4H121.9V109.6H67.3004L56.9004 119.5H47.9004C46.2004 115 41.9004 111.9 36.8004 111.9C30.2004 111.9 24.9004 117.3 24.9004 123.9C24.9004 130.5 30.2004 135.9 36.8004 135.9C41.9004 135.9 46.2004 132.8 48.0004 128.3Z" fill="#64D2F3"/>
<path d="M36.9 103.7C41.9 103.7 46.2 100.5 47.9 96.0999H53.8V87.2999H48C46.3 82.7999 42 79.6999 36.9 79.6999C30.3 79.5999 25 84.9998 25 91.6998C25 98.3998 30.3 103.7 36.9 103.7Z" fill="#64D2F3"/>
<path d="M135.3 179H119.5C117.3 179 115.5 177.2 115.5 175V161.3C115.5 160.4 115.8 159.6 116.3 158.9L121.3 152.3L116.3 145.7C115.8 145 115.5 144.2 115.5 143.3V133.4C115.5 132.5 115.8 131.7 116.3 131L121.3 124.4L116.3 117.8C115.8 117.1 115.5 116.3 115.5 115.4V101.1C101.1 94.1 91.9004 79.5 91.9004 63.1C91.9004 39.9 110.7 21 133.7 21C156.7 21 175.5 39.9 175.5 63.2C175.5 79.5 166.3 94.1 151.9 101.2V162.3C151.9 163.4 151.5 164.4 150.7 165.1L138.1 177.9C137.4 178.6 136.4 179 135.3 179ZM123.5 171H133.6L143.9 160.6V98.6C143.9 97 144.9 95.5 146.4 94.9C159.2 89.6 167.5 77.2 167.5 63.2C167.5 44.4 152.3 29 133.7 29C115.1 29 99.9004 44.3 99.9004 63.2C99.9004 77.2 108.2 89.6 121 94.9C122.5 95.5 123.5 97 123.5 98.6V114.1L129.5 122C130.6 123.4 130.6 125.4 129.5 126.8L123.5 134.7V141.9L129.5 149.8C130.6 151.2 130.6 153.2 129.5 154.6L123.5 162.5V171ZM133.7 69C125.9 69 119.5 62.6 119.5 54.7C119.5 46.8 125.8 40.4 133.7 40.4C141.5 40.4 147.9 46.8 147.9 54.7C147.9 62.6 141.5 69 133.7 69ZM133.7 48.5C130.3 48.5 127.5 51.3 127.5 54.8C127.5 58.3 130.3 61.1 133.7 61.1C137.1 61.1 139.9 58.3 139.9 54.8C139.9 51.3 137.1 48.5 133.7 48.5Z" fill="white"/>
</g>
<defs>
<clipPath id="clip0">
<rect width="150.5" height="158" fill="white" transform="translate(25 21)"/>
</clipPath>
</defs>
</svg>
