<svg width="191" height="200" viewBox="0 0 191 200" fill="none" xmlns="http://www.w3.org/2000/svg">
<path d="M82 117.5H44C41.8 117.5 40 115.7 40 113.5V98.8H48V109.5H82V117.5Z" fill="white"/>
<path d="M155.999 117.5H117.199V109.5H151.999V98.6001H159.999V113.5C159.999 115.7 158.199 117.5 155.999 117.5Z" fill="white"/>
<path d="M48 78.7H40V62.7C40 60.5 41.8 58.7 44 58.7H156C158.2 58.7 160 60.5 160 62.7V78.2999H152V66.5999H48V78.7Z" fill="white"/>
<path d="M160 154.7H152V141.9H48V154.7H40V137.9C40 135.7 41.8 133.9 44 133.9H156C158.2 133.9 160 135.7 160 137.9V154.7Z" fill="white"/>
<path d="M104 50.5H96V62.6H104V50.5Z" fill="white"/>
<path d="M104 125.2H96V151.6H104V125.2Z" fill="white"/>
<path d="M114.6 179H85.4C80.8 179 77 175.2 77 170.6V156C77 151.4 80.8 147.6 85.4 147.6H114.7C119.3 147.6 123.1 151.4 123.1 156V170.6C123 175.2 119.3 179 114.6 179ZM85.4 155.6C85.2 155.6 85 155.8 85 156V170.6C85 170.8 85.2 171 85.4 171H114.7C114.9 171 115.1 170.8 115.1 170.6V156C115.1 155.8 114.9 155.6 114.7 155.6H85.4Z" fill="#64D2F3"/>
<path d="M115.099 54.5H84.8992C75.6992 54.5 68.1992 47 68.1992 37.8C68.1992 28.6 75.6992 21 84.8992 21H115.099C124.299 21 131.799 28.5 131.799 37.7C131.799 46.9 124.299 54.5 115.099 54.5ZM84.8992 29C80.0992 29 76.1992 32.9 76.1992 37.7C76.1992 42.5 80.0992 46.4 84.8992 46.4H115.099C119.899 46.4 123.799 42.5 123.799 37.7C123.799 32.9 119.899 29 115.099 29H84.8992Z" fill="#64D2F3"/>
<path d="M170.6 179H141.3C136.7 179 132.9 175.2 132.9 170.6V156C132.9 151.4 136.7 147.6 141.3 147.6H170.6C175.2 147.6 179 151.4 179 156V170.6C179 175.2 175.2 179 170.6 179ZM141.3 155.6C141.1 155.6 140.9 155.8 140.9 156V170.6C140.9 170.8 141.1 171 141.3 171H170.6C170.8 171 171 170.8 171 170.6V156C171 155.8 170.8 155.6 170.6 155.6H141.3Z" fill="#64D2F3"/>
<path d="M58.7 179H29.4C24.8 179 21 175.2 21 170.6V156C21 151.4 24.8 147.6 29.4 147.6H58.7C63.3 147.6 67.1 151.4 67.1 156V170.6C67.1 175.2 63.3 179 58.7 179ZM29.4 155.6C29.2 155.6 29 155.8 29 156V170.6C29 170.8 29.2 171 29.4 171H58.7C58.9 171 59.1 170.8 59.1 170.6V156C59.1 155.8 58.9 155.6 58.7 155.6H29.4Z" fill="#64D2F3"/>
<path d="M170.6 104.3H141.3C136.7 104.3 132.9 100.5 132.9 95.9001V81.2001C132.9 76.6001 136.7 72.8 141.3 72.8H170.6C175.2 72.8 179 76.6001 179 81.2001V95.8001C179 100.5 175.2 104.3 170.6 104.3ZM141.3 80.9001C141.1 80.9001 140.9 81.1 140.9 81.3V95.9001C140.9 96.1001 141.1 96.3001 141.3 96.3001H170.6C170.8 96.3001 171 96.1001 171 95.9001V81.2001C171 81.0001 170.8 80.8 170.6 80.8H141.3V80.9001Z" fill="#64D2F3"/>
<path d="M58.7 104.3H29.4C24.8 104.3 21 100.5 21 95.9001V81.2001C21 76.6001 24.8 72.8 29.4 72.8H58.7C63.3 72.8 67.1 76.6001 67.1 81.2001V95.8001C67.1 100.5 63.3 104.3 58.7 104.3ZM29.4 80.9001C29.2 80.9001 29 81.0001 29 81.2001V95.8001C29 96.0001 29.2 96.2 29.4 96.2H58.7C58.9 96.2 59.1 96.0001 59.1 95.8001V81.2001C59.1 81.0001 58.9 80.8 58.7 80.8H29.4V80.9001Z" fill="#64D2F3"/>
<path d="M114.6 129.2H85.4C80.8 129.2 77 125.4 77 120.8V106.2C77 101.6 80.8 97.8 85.4 97.8H114.7C119.3 97.8 123.1 101.6 123.1 106.2V120.8C123 125.4 119.3 129.2 114.6 129.2ZM85.4 105.8C85.2 105.8 85 106 85 106.2V120.8C85 121 85.2 121.2 85.4 121.2H114.7C114.9 121.2 115.1 121 115.1 120.8V106.2C115.1 106 114.9 105.8 114.7 105.8H85.4Z" fill="#64D2F3"/>
</svg>
