<svg width="200" height="200" viewBox="0 0 200 200" fill="none" xmlns="http://www.w3.org/2000/svg">
<g clip-path="url(#clip0)">
<path d="M162.4 101.1L162.3 99.7C162.2 98.6 162 97.4 161.8 96.3C161.7 95.6 161.5 94.8 161.4 94.1C161 92 160.4 90 159.7 87.9C155.3 74.5 155.1 60 159.2 46.5L162 37.2L149.8 25C141.5 29.9 133.1 32.3 124.8 32.3C116.5 32.3 108.2 29.9 99.8004 25C91.5004 29.9 83.2004 32.3 74.8004 32.3C66.5004 32.3 58.2004 29.9 49.8004 25L37.8004 37.3L40.6004 46.6C44.7004 60.1 44.5004 74.6 40.1004 88C30.5004 117.2 44.1004 149.1 71.8004 162L99.8004 175L127.9 161.9C134.7 158.7 140.6 154.5 145.6 149.4C147.1 147.9 148.5 146.3 149.8 144.6C150.2 144 150.7 143.5 151.1 142.9C151.9 141.8 152.7 140.6 153.5 139.4C154.3 138.2 154.9 137 155.6 135.7C155.9 135.1 156.3 134.5 156.6 133.8C157.5 131.9 158.4 130 159.1 128C162.1 119.5 163.3 110.4 162.4 101.1ZM124.6 154.7L107.9 162.5L99.9004 166.2L75.2004 154.7C51.2004 143.5 39.4004 115.9 47.8004 90.5C52.8004 75.5 53.0004 59.5 48.4004 44.3L46.9004 39.5L51.5004 34.8C59.2004 38.4 67.1004 40.3 74.9004 40.3C83.3004 40.3 91.6004 38.2 99.9004 34.1C102.6 35.4 105.2 36.5 107.9 37.4C108.3 37.5 108.8 37.7 109.2 37.8C109.7 37.9 110.1 38.1 110.6 38.2C111.5 38.4 112.3 38.7 113.2 38.9C113.5 39 113.9 39.1 114.2 39.1C115.7 39.4 117.1 39.7 118.6 39.8C119.1 39.9 119.5 39.9 120 40C120.1 40 120.2 40 120.3 40C120.8 40.1 121.2 40.1 121.7 40.1H121.8C122.2 40.1 122.7 40.1 123.2 40.2C123.8 40.2 124.4 40.2 125 40.2C132.8 40.2 140.7 38.4 148.4 34.7L153 39.4L151.5 44.2C150.9 46.1 150.4 48 150 50C149.8 50.8 149.6 51.6 149.5 52.5C149.3 53.5 149.2 54.5 149 55.5C148.8 57.2 148.6 59 148.4 60.7C148.4 60.8 148.4 60.9 148.4 61.1C148.1 65.9 148.2 70.8 148.8 75.6C148.9 76.1 148.9 76.6 149 77.1C149.2 78.6 149.5 80.1 149.8 81.6C150.4 84.6 151.2 87.6 152.2 90.5C160.4 115.9 148.6 143.5 124.6 154.7Z" fill="#64D2F3"/>
<path d="M162.4 101.1L162.3 99.7C162.2 98.6 162 97.4 161.8 96.3C161.7 95.6 161.5 94.9 161.4 94.1C161 92 160.4 90 159.7 87.9C155.3 74.5 155.1 60 159.2 46.5L162 37.2L149.8 25C141.5 29.9 133.1 32.3 124.8 32.3C116.5 32.3 108.2 29.9 99.7998 25V34.1C102.5 35.4 105.1 36.5 107.8 37.4C108.2 37.5 108.7 37.7 109.1 37.8C109.6 37.9 110 38.1 110.5 38.2C111.4 38.4 112.2 38.7 113.1 38.9C113.4 39 113.8 39.1 114.1 39.1C115.6 39.4 117 39.7 118.5 39.8C119 39.9 119.4 39.9 119.9 40C120 40 120.1 40 120.2 40C120.7 40.1 121.1 40.1 121.6 40.1H121.7C122.1 40.1 122.6 40.1 123.1 40.2C123.7 40.2 124.3 40.2 124.9 40.2C132.7 40.2 140.6 38.4 148.3 34.7L152.9 39.4L151.5 44.2C150.9 46.1 150.4 48 150 50C149.8 50.8 149.6 51.6 149.5 52.5C149.3 53.5 149.2 54.5 149 55.5C148.8 57.2 148.6 58.9 148.4 60.7C148.4 60.8 148.4 60.9 148.4 61.1C148.3 62.3 148.3 63.5 148.2 64.7C148.1 68.3 148.3 72 148.7 75.6C148.8 76.1 148.8 76.6 148.9 77.1C149.1 78.6 149.4 80.1 149.7 81.6C150.3 84.6 151.1 87.6 152.1 90.5C160.5 115.9 148.7 143.5 124.7 154.7L108 162.5L99.9998 166.2C99.9998 171.8 99.9998 175 99.9998 175L128.1 161.9C134.9 158.7 140.8 154.5 145.8 149.4C147.3 147.9 148.7 146.3 150 144.6C150.4 144 150.9 143.5 151.3 142.9C152.1 141.8 152.9 140.6 153.7 139.4C154.4 138.2 155.1 137 155.8 135.7C156.1 135.1 156.5 134.5 156.8 133.8C157.7 131.9 158.6 130 159.3 128C162.1 119.5 163.3 110.4 162.4 101.1Z" fill="#00AEEF"/>
<path d="M120.4 99.4L130.4 117.2L110.2 117.4L99.8004 135L89.6004 117.4L69.4004 117.2L79.4004 99.4L69.4004 81.6L89.6004 81.4L99.9004 63.8L110.2 81.4L130.4 81.6L120.4 99.4Z" fill="#F1F1F2"/>
<path d="M120.4 99.4L130.4 117.2L110.2 117.4L99.7998 135V63.8L110.1 81.4L130.3 81.6L120.4 99.4Z" fill="#E6E6E6"/>
</g>
<defs>
<clipPath id="clip0">
<rect width="125.7" height="150" fill="white" transform="translate(37 25)"/>
</clipPath>
</defs>
</svg>
