<svg width="200" height="200" viewBox="0 0 200 200" fill="none" xmlns="http://www.w3.org/2000/svg">
<path d="M127.701 70.3999V86.9999C127.701 93.8999 125.201 100.4 120.701 105.5C120.401 105.8 120.201 106.1 119.901 106.4C115.501 111 109.701 113.9 103.501 114.7L100.001 116.5L96.5008 114.7C90.3008 113.9 84.5008 111 80.1008 106.4C79.8008 106.1 79.6008 105.8 79.3008 105.5C74.8008 100.4 72.3008 93.7999 72.3008 86.9999V70.3999H64.3008V86.9999C64.3008 91.0999 65.0008 95.0999 66.2008 98.6999C67.9008 103.7 70.7008 108.2 74.3008 111.9L94.0008 122.4C95.9008 122.7 98.0008 122.9 100.001 122.9C102.101 122.9 104.101 122.7 106.001 122.4L125.601 111.9C129.201 108.2 131.901 103.7 133.701 98.6999C135.001 94.9999 135.701 90.9999 135.701 86.8999V70.3999H127.701Z" fill="#FDD1A3"/>
<path d="M89.7008 89.8C92.1008 89.8 94.1008 87.8 94.1008 85.4C94.1008 83 92.1008 81 89.7008 81C87.3008 81 85.3008 83 85.3008 85.4C85.3008 87.8 87.3008 89.8 89.7008 89.8Z" fill="white"/>
<path d="M110.3 89.8C112.7 89.8 114.7 87.8 114.7 85.4C114.7 83 112.7 81 110.3 81C107.9 81 105.9 83 105.9 85.4C105.9 87.8 107.9 89.8 110.3 89.8Z" fill="white"/>
<path d="M161.9 158C161.9 157.3 161.8 156.7 161.7 156C159.9 141 148.2 129.4 133.7 127.6V98.6001L120.7 105.5L103.5 114.7L100 116.5L96.5 114.7L79.3 105.5L66.2 98.6001V127.7C50.3 129.7 38 143.4 38 159.9V181H162V159.9C162 159.3 162 158.7 161.9 158ZM154 173H46V159.9C46 146.4 56.9 135.5 70.2 135.5H74.2V111.9H74.3L94 122.4L100 125.6L106 122.4L125.6 111.9H125.7V135.5H129.7C142 135.5 152.3 144.8 153.8 157C153.9 157.5 153.9 158 153.9 158.5C153.9 159 154 159.4 154 159.9V173V173Z" fill="white"/>
<path d="M116.001 140.2H107.301V149H116.001V140.2Z" fill="#64D2F3"/>
<path d="M116.001 157.7H107.301V166.5H116.001V157.7Z" fill="#64D2F3"/>
<path d="M134.8 53.6001H65.4004V61.6001H134.8V53.6001Z" fill="#00AEEF"/>
<path d="M140.8 53.6L135.3 35.1C132.5 25.5 123.9 19 113.9 19C108.8 19 104.1 20.8 100.2 23.8C96.3996 20.7 91.5996 19 86.3996 19C76.5996 19 67.7996 25.6 64.9996 35.1L59.4996 53.6H47.0996V78.4H153V53.6H140.8ZM144.9 70.4H55.0996V61.6H65.5996L72.6996 37.3C74.4996 31.2 80.0996 27 86.3996 27C92.7996 27 98.2996 31.2 100.1 37.3C102 31.2 107.6 27 113.9 27C120.3 27 125.8 31.2 127.7 37.3L134.8 61.6H145V70.4H144.9Z" fill="#00AEEF"/>
</svg>
