<svg width="200" height="191" viewBox="0 0 200 191" fill="none" xmlns="http://www.w3.org/2000/svg">
<g clip-path="url(#clip0)">
<path d="M178 94H169.2C169.2 99.1 166.1 103.6 161.7 105.8C158.7 83.6 138.6 65.4 110.8 60.5C106.3 59.7 101.5 59.2999 96.6 59.2999C87.5 59.2999 78.8 60.7 70.7 63.5C66.1 55.4 57.5 50.2 48.3 50.2H43.9C41.7 50.2 39.9 52 39.9 54.2V85.3C37.8 88.2 36.1 91.3 34.7 94.4H26C23.8 94.4 22 96.2 22 98.4V133.6C22 135.8 23.8 137.6 26 137.6H39.7C42.3 141.1 45.3 144.4 48.7 147.3V169C48.7 171.2 50.5 173 52.7 173H79C81.2 173 83 171.2 83 169V162.8C91.9 164.3 101.2 164.3 110.2 162.8V169C110.2 171.2 112 173 114.2 173H140.6C142.8 173 144.6 171.2 144.6 169V147.3C154.8 138.5 161 127 162 115.1C171.1 112.4 178 104 178 94ZM138 142.3C137.1 143.1 136.5 144.2 136.5 145.4V165H118.2V157.9C118.2 156.7 117.6 155.5 116.7 154.8C115.8 154.1 114.5 153.8 113.3 154C102.5 156.5 90.8 156.5 80 154C78.8 153.7 77.6 154 76.6 154.8C75.6 155.6 75.1 156.7 75.1 157.9V165H56.7V145.4C56.7 144.2 56.1 143 55.2 142.3C51.2 139.1 47.8 135.4 45.1 131.4C44.4 130.3 43.1 129.6 41.8 129.6H30V102.4H37.4C39.1 102.4 40.6 101.3 41.2 99.8C42.5 96.1 44.5 92.4999 47.1 89.0999C47.6 88.3999 47.9 87.5999 47.9 86.6999V58.2H48.3C55.6 58.2 62.3 62.9 65 70C65.4 71 66.2 71.8 67.1 72.2C68.1 72.6 69.2 72.6 70.2 72.2C78.4 68.9 87.3 67.2 96.7 67.2C101.2 67.2 105.5 67.5999 109.5 68.2999C135.8 72.9999 154.2 90.7999 154.2 111.6C154.1 122.9 148.3 134.1 138 142.3Z" fill="#64D2F3"/>
<path d="M120.401 85.7999L116.701 93.7999C110.701 90.9999 103.601 89.6999 96.6008 89.6999C89.5008 89.6999 82.4008 90.9999 76.5008 93.6999L72.8008 85.7999C79.8008 82.4999 88.2008 80.8999 96.6008 80.8999C105.001 80.8999 113.201 82.5999 120.401 85.7999Z" fill="white"/>
<path d="M96.6 52.2C84.7 52.2 75 42.5 75 30.6C75 18.7 84.7 9 96.6 9C108.5 9 118.2 18.7 118.2 30.6C118.2 42.5 108.5 52.2 96.6 52.2ZM96.6 17C89.1 17 83 23.1 83 30.6C83 38.1 89.1 44.2 96.6 44.2C104.1 44.2 110.2 38.1 110.2 30.6C110.2 23.1 104.1 17 96.6 17Z" fill="#FED843"/>
</g>
<defs>
<clipPath id="clip0">
<rect width="156" height="164" fill="white" transform="translate(22 9)"/>
</clipPath>
</defs>
</svg>
