<svg width="200" height="200" viewBox="0 0 200 200" fill="none" xmlns="http://www.w3.org/2000/svg">
<g clip-path="url(#clip0)">
<path d="M39.1 179.6L20 160.5L63 117.5L82.1 136.6L39.1 179.6ZM31.3 160.5L39.1 168.3L70.8 136.6L63 128.8L31.3 160.5Z" fill="white"/>
<path d="M83.1998 116.5C80.8998 114.2 78.8998 111.8 76.9998 109.2L69.2998 116.9L82.7998 130.4L90.4998 122.7C87.8998 120.8 85.4998 118.8 83.1998 116.5Z" fill="#00AEEF"/>
<path d="M125.2 129C111.2 129 97.2998 123.7 86.6998 113.1C65.4998 91.8 65.4998 57.2 86.6998 36C96.8998 25.7 110.6 20 125.1 20C139.7 20 153.4 25.7 163.7 35.9C170.1 42.3 174.8 50.3 177.4 58.9L178.5 62.7L170.8 65L169.7 61.2C167.5 53.8 163.5 47.1 158 41.6C149.3 32.8 137.6 28 125.1 28C112.7 28 101 32.8 92.2998 41.6C74.1998 59.7 74.1998 89.2 92.2998 107.4C110.4 125.5 139.9 125.5 158.1 107.4C165.5 100 170.1 90.5 171.4 80L171.9 76L179.8 76.9L179.3 80.9C177.9 93.2 172.5 104.3 163.7 113C153.1 123.7 139.1 129 125.2 129Z" fill="white"/>
</g>
<defs>
<clipPath id="clip0">
<rect width="159.7" height="159.6" fill="white" transform="translate(20 20)"/>
</clipPath>
</defs>
</svg>
