<svg width="200" height="200" viewBox="0 0 200 200" fill="none" xmlns="http://www.w3.org/2000/svg">
<g clip-path="url(#clip0)">
<path d="M179 126.4H171V45H29V126.4H21V37H179V126.4Z" fill="#9AC7E2"/>
<path d="M100 111.3C74.3 111.3 54.2 85.8 53.4 84.8L51.5 82.3L53.4 79.8C54.2 78.7 74.3 53.3 100 53.3C125.7 53.3 145.8 78.8 146.6 79.8L148.5 82.3L146.6 84.8C145.8 85.8 125.7 111.3 100 111.3ZM61.8 82.3C67.2 88.3 82.5 103.3 100 103.3C117.4 103.3 132.7 88.3 138.2 82.3C132.8 76.3 117.5 61.3 100 61.3C82.5 61.3 67.2 76.2 61.8 82.3Z" fill="#E6E6E6"/>
<path d="M100.001 111.3C83.9008 111.3 70.8008 98.3 70.8008 82.3C70.8008 66.3 83.9008 53.3 100.001 53.3C116.101 53.3 129.201 66.3 129.201 82.3C129.201 98.3 116.101 111.3 100.001 111.3ZM100.001 61.3C88.3008 61.3 78.8008 70.7 78.8008 82.3C78.8008 93.9 88.3008 103.3 100.001 103.3C111.701 103.3 121.201 93.9 121.201 82.3C121.201 70.7 111.701 61.3 100.001 61.3Z" fill="#6B9AC4"/>
<path d="M100 92.7001C105.8 92.7001 110.5 88 110.5 82.3C110.5 76.6 105.8 71.8 100 71.8C94.2 71.8 89.5 76.5001 89.5 82.2001C89.5 87.9001 94.2 92.7001 100 92.7001Z" fill="white"/>
<path d="M179 138.1V115.1H21V138.1H96V154.3H72.6V162.3H127.5V154.3H104V138.1H179ZM29 123.1H171V130.1H29V123.1Z" fill="#E6E6E6"/>
</g>
<defs>
<clipPath id="clip0">
<rect width="158" height="125.3" fill="white" transform="translate(21 37)"/>
</clipPath>
</defs>
</svg>
