<svg width="200" height="208" viewBox="0 0 200 208" fill="none" xmlns="http://www.w3.org/2000/svg">
<g clip-path="url(#clip0)">
<path d="M111.1 120.4C111.1 114.2 106 109.2 99.6998 109.2C93.3998 109.2 88.2998 114.2 88.2998 120.4C88.2998 124.2 90.2998 127.7 93.4998 129.8L97.4998 132.3L91.9998 157.6H107.3L101.8 132.3L105.8 129.8C109.1 127.7 111.1 124.2 111.1 120.4Z" fill="#00AEEF"/>
<path d="M162.4 179H37V87.8H55.8V64.3C55.8 40.4 75.5 21 99.7 21C123.9 21 143.6 40.4 143.6 64.3V87.8H162.4V156.8H154.4V95.8H135.6V64.3C135.6 44.8 119.5 29 99.7 29C79.9 29 63.8 44.8 63.8 64.3V95.8H45V171H162.4V179ZM117.7 95.8V64.3C117.7 54.5 109.6 46.6 99.7 46.6C89.8 46.6 81.7 54.5 81.7 64.3V87.8H101.8V95.8H73.6V64.3C73.6 50.1 85.3 38.6 99.6 38.6C113.9 38.6 125.6 50.1 125.6 64.3V95.8H117.7Z" fill="white"/>
</g>
<defs>
<clipPath id="clip0">
<rect width="125.4" height="158" fill="white" transform="translate(37 21)"/>
</clipPath>
</defs>
</svg>
