<svg width="200" height="189" viewBox="0 0 200 189" fill="none" xmlns="http://www.w3.org/2000/svg">
<g clip-path="url(#clip0)">
<path d="M134.4 103.8H124.8V106.6L120.5 113.3L141.6 127.1C141.7 127.2 141.8 127.3 141.8 127.4C141.8 127.5 141.8 127.7 141.6 127.8L133 132.7C131.9 133.3 131.2 134.4 131 135.7C130.9 137 131.3 138.2 132.2 139.1L139.1 145.6C139.2 145.7 139.2 145.9 139.1 146.1L129.9 160C129.8 160.1 129.7 160.2 129.6 160.2H108.5C108.4 160.2 108.4 160.2 108.3 160.1C108.2 160 108.2 159.9 108.2 159.7L119.9 113.7L112.1 111.7L100.4 157.7C100.2 158.5 100.1 159.3 100.2 160.1H99.7C99.7 159.3 99.7 158.5 99.5 157.6L87.8 111.6L80 113.6L91.7 159.5C91.7 159.7 91.7 159.8 91.6 159.9C91.5 160 91.4 160 91.3 160H70.3C70.2 160 70 159.9 70 159.8L60.8 145.9C60.7 145.7 60.7 145.5 60.9 145.4L67.8 139C68.7 138.1 69.2 136.9 69 135.6C68.9 134.3 68.1 133.2 67 132.6L58.4 127.7C58.3 127.7 58.2 127.6 58.2 127.3C58.2 127.2 58.3 127.1 58.4 127L79.5 113.2L75.9 107.7V103.8H65.6C41 103.8 21 123.8 21 148.3V159.5C21 164.1 24.8 167.9 29.4 167.9H70.3H91.4H170.6C172.8 167.9 174.9 167.1 176.5 165.5L176.6 165.4C178.2 163.8 179.1 161.7 179.1 159.5V148.3C179 123.8 159 103.8 134.4 103.8ZM29 159.5V148.3C29 128.2 45.4 111.8 65.6 111.8H67L54 120.3C51.5 121.9 50 124.7 50.2 127.6C50.3 130.6 51.9 133.2 54.4 134.6L58.2 136.8L55.2 139.6C52.2 142.4 51.7 147 54 150.3L60.4 159.9H29.4C29.2 159.9 29 159.8 29 159.5ZM171 159.5C171 159.6 171 159.7 170.9 159.7C170.8 159.8 170.7 159.9 170.5 159.9H139.4L145.8 150.3C148.1 146.9 147.6 142.3 144.6 139.5L141.7 136.8L145.5 134.6C148.1 133.2 149.6 130.5 149.8 127.6C149.9 124.7 148.5 121.9 146 120.3L133 111.8H134.5C154.7 111.8 171.1 128.2 171.1 148.3V159.5H171Z" fill="#64D2F3"/>
<path d="M100 119.6C75.7004 119.6 55.9004 99.7001 55.9004 75.3001V65.8H63.9004V75.3001C63.9004 95.3001 80.1004 111.6 100 111.6C103.3 111.6 106.6 111.1 109.9 110.2C125.4 105.8 136.2 91.4001 136.2 75.3001L136.1 65.9001L144.1 65.8L144.2 75.3001C144.1 95.0001 130.9 112.5 112.1 117.9C108.1 119 104 119.6 100 119.6Z" fill="#FDD1A3"/>
<path d="M140.101 69.8H59.8008C57.6008 69.8 55.8008 68 55.8008 65.8V33.2C55.8008 30.9 56.6008 28.8 58.2008 27.3C60.8008 24.6 64.7008 24 68.0008 25.6L79.2008 31.2L93.4008 13.2C95.0008 11.2 97.4008 10 100.001 10C100.501 10 101.001 10 101.501 10.1C103.501 10.5 105.301 11.5 106.601 13.1L120.801 31.1L132.001 25.5C132.401 25.3 132.901 25.1 133.301 25C136.301 24 139.601 24.9 141.801 27.2C143.301 28.8 144.201 30.9 144.201 33.1V65.8C144.101 68 142.301 69.8 140.101 69.8ZM63.8008 61.8H136.101V33.2C136.101 33 136.101 32.9 136.001 32.8C135.901 32.7 135.701 32.7 135.601 32.7L133.701 29.2L135.501 32.8L121.401 39.8C119.701 40.6 117.601 40.2 116.501 38.7L100.301 18.1C100.201 18.1 100.101 18 100.001 18C99.8008 18 99.7008 18 99.7008 18.1L83.5008 38.6C82.3008 40.1 80.3008 40.5 78.6008 39.7L64.5008 32.6C64.4008 32.5 64.2008 32.5 64.0008 32.7C64.0008 32.7 63.9008 32.9 63.9008 33.1V61.8H63.8008Z" fill="white"/>
</g>
<defs>
<clipPath id="clip0">
<rect width="158" height="157.9" fill="white" transform="translate(21 10)"/>
</clipPath>
</defs>
</svg>
