<svg width="200" height="194" viewBox="0 0 200 194" fill="none" xmlns="http://www.w3.org/2000/svg">
<g clip-path="url(#clip0)">
<path d="M157.8 71.9L154.5 15.7C154.5 15.6 154.5 15.6 154.5 15.5C154.1 11.4 150.8 7 145.5 7H54.4002C49.1002 7 45.8002 11.4 45.4002 15.5C45.4002 15.6 45.4002 15.6 45.4002 15.7L42.0002 71.9C41.8002 73.7 42.2002 75.5 43.0002 77L68.5002 126.7L75.6002 123L50.1002 73.3C50.0002 73.1 50.0002 72.9 50.0002 72.6C50.0002 72.5 50.0002 72.5 50.0002 72.4L53.3002 16.3C53.3002 16.1 53.6002 15 54.4002 15C54.8002 15 55.3002 15.2 55.6002 15.7L96.3002 100.9L99.9002 99.2L103.5 100.9L144.2 15.7C144.4 15.2 144.9 15 145.3 15C146.1 15 146.3 16.1 146.4 16.3L149.7 72.4C149.7 72.5 149.7 72.5 149.7 72.6C149.7 72.9 149.7 73.1 149.6 73.3L124.1 122.5L131.2 126.2L156.7 77C157.6 75.5 158 73.7 157.8 71.9ZM80.7002 49.6H119.2L99.9002 89.9L80.7002 49.6ZM123 41.6H76.9002L64.1002 15H135.7L123 41.6Z" fill="white"/>
<path d="M99.8992 181C97.6992 181 95.5992 180.1 93.9992 178.5L86.6992 171.2H76.3992C71.7992 171.2 67.9992 167.4 67.9992 162.8V152.5L60.6992 145.2C59.0992 143.7 58.2992 141.6 58.1992 139.3C58.1992 137 59.0992 134.9 60.6992 133.3L67.9992 126V115.7C67.9992 111.1 71.7992 107.3 76.3992 107.3H86.6992L93.8992 100C95.4992 98.4 97.5992 97.5 99.8992 97.5C102.099 97.5 104.299 98.4 105.799 100L112.999 107.3H123.299C127.899 107.3 131.699 111.1 131.699 115.7V126L138.999 133.3C142.199 136.5 142.199 141.8 139.099 145.1L131.799 152.4V162.7C131.799 167.3 127.999 171.1 123.399 171.1H113.099L105.799 178.4C104.399 179.8 102.499 180.7 100.499 180.8C100.399 181 100.199 181 99.8992 181ZM76.3992 115.4C76.1992 115.4 75.9992 115.6 75.9992 115.8V127.8C75.9992 128.9 75.5992 129.9 74.7992 130.6L66.3992 139.1C66.2992 139.2 66.2992 139.3 66.2992 139.4C66.2992 139.5 66.3992 139.6 66.3992 139.6L74.8992 148.1C75.5992 148.9 76.0992 149.9 76.0992 150.9V162.9C76.0992 163.1 76.2992 163.3 76.4992 163.3H88.3992C89.4992 163.3 90.4992 163.7 91.1992 164.5L99.5992 173L99.6992 173.1C99.7992 173.1 99.9992 173.1 100.099 173L108.499 164.5C109.299 163.7 110.299 163.3 111.299 163.3H123.199C123.399 163.3 123.599 163.1 123.599 162.9V150.9C123.599 149.8 123.999 148.8 124.799 148.1L133.199 139.6C133.299 139.5 133.299 139.2 133.199 139.1L124.799 130.6C124.099 129.8 123.599 128.8 123.599 127.8V115.8C123.599 115.6 123.399 115.4 123.199 115.4H111.199C110.099 115.4 109.099 115 108.399 114.2L99.9992 105.8C99.8992 105.7 99.7992 105.7 99.6992 105.7C99.4992 105.7 99.4992 105.8 99.3992 105.8L90.9992 114.2C90.1992 115 89.1992 115.4 88.1992 115.4H76.3992V115.4ZM99.8992 159.9C99.6992 159.9 99.4992 159.9 99.3992 159.9C88.2992 159.6 79.3992 150.5 79.3992 139.4C79.3992 128.1 88.5992 118.9 99.8992 118.9C100.099 118.9 100.299 118.9 100.499 118.9C101.599 118.9 102.699 119 103.699 119.3C113.399 121.1 120.399 129.6 120.399 139.5C120.399 149.1 113.599 157.6 104.199 159.6C102.799 159.8 101.399 159.9 99.8992 159.9ZM99.4992 126.8C92.7992 127 87.3992 132.6 87.3992 139.3C87.3992 146.2 92.9992 151.9 99.8992 151.9C99.9992 151.9 100.199 151.9 100.299 151.9C100.999 151.9 101.799 151.8 102.499 151.6C108.199 150.4 112.399 145.2 112.399 139.3C112.399 133.3 108.099 128.1 102.199 127C101.399 126.8 100.699 126.8 99.8992 126.8C99.7992 126.8 99.6992 126.8 99.4992 126.8Z" fill="#CCCCCC"/>
</g>
<defs>
<clipPath id="clip0">
<rect width="115.8" height="174" fill="white" transform="translate(42 7)"/>
</clipPath>
</defs>
</svg>
