<svg width="200" height="200" viewBox="0 0 200 200" fill="none" xmlns="http://www.w3.org/2000/svg">
<path d="M100 179C56.4 179 21 143.6 21 100C21 56.4 56.4 21 100 21C109.4 21 118.5 22.6 127.2 25.8L124.4 33.3C116.6 30.5 108.4 29 100 29C60.9 29 29 60.9 29 100C29 139.1 60.9 171 100 171C139.1 171 171 139.1 171 100C171 78.1 161.1 57.7 143.8 44.1L148.7 37.8C168 52.9 179 75.6 179 100C179 143.6 143.6 179 100 179Z" fill="#64D2F3"/>
<path d="M137.301 138.3L78.0008 137.6L91.7008 124.2L50.3008 81.5999L82.8008 49.8999L124.301 92.4999L138.101 78.9999L137.301 138.3ZM97.4008 129.8L129.401 130.2L129.801 98.1999L124.201 103.7L82.6008 61.1999L61.6008 81.6999L103.101 124.3L97.4008 129.8Z" fill="white"/>
</svg>
