<svg width="200" height="200" viewBox="0 0 200 200" fill="none" xmlns="http://www.w3.org/2000/svg">
<path d="M112.9 155H41.1C31.1 155 23 146.9 23 136.9V83.8C23 73.8 31.1 65.7 41.1 65.7H41.8V60.2C41.8 40.8 57.6 25 77 25C96.4 25 112.3 40.8 112.3 60.3V65.8H113C123 65.8 131.1 73.9 131.1 83.9V137C131 146.9 122.9 155 112.9 155ZM41.1 73.7C35.5 73.7 31 78.3 31 83.8V136.9C31 142.4 35.5 147 41.1 147H113C118.5 147 123.1 142.5 123.1 136.9V83.8C123.1 78.3 118.6 73.7 113 73.7H104.3V60.3C104.3 45.2 92 33 77 33C62 33 49.8 45.2 49.8 60.2V73.7H41.1Z" fill="#CCCCCC"/>
<path d="M95.7002 73.7H58.2002V59.9C58.2002 49.6 66.6002 41.1 77.0002 41.1C87.4002 41.1 95.8002 49.5 95.8002 59.9V73.7H95.7002ZM66.2002 65.7H87.7002V59.9C87.7002 54 82.9002 49.1 76.9002 49.1C70.9002 49.1 66.2002 54 66.2002 59.9V65.7Z" fill="#CCCCCC"/>
<path d="M77 155H41.1C31.1 155 23 146.9 23 136.9V83.8C23 73.8 31.1 65.7 41.1 65.7H41.8V60.2C41.8 40.8 57.6 25 77 25V33C62 33 49.8 45.2 49.8 60.3V73.8H41.1C35.5 73.7 31 78.3 31 83.8V136.9C31 142.4 35.5 147 41.1 147H77V155Z" fill="white"/>
<path d="M77.0002 73.7H58.2002V59.9C58.2002 49.6 66.6002 41.1 77.0002 41.1V49.1C71.1002 49.1 66.2002 53.9 66.2002 59.9V65.7H77.0002V73.7Z" fill="white"/>
<path d="M152 144.7C145.1 144.7 139.5 139.1 139.5 132.2C139.5 125.3 145.1 119.7 152 119.7C158.9 119.7 164.5 125.3 164.5 132.2C164.5 139.1 158.9 144.7 152 144.7Z" fill="#00AEEF"/>
<path d="M172.3 176H131.7C129.1 176 127 173.9 127 171.3V168.2C127 158.7 134.7 151 144.2 151H159.8C169.3 151 177 158.7 177 168.2V171.3C177 173.9 174.9 176 172.3 176Z" fill="#00AEEF"/>
<path d="M152 119.7C145.1 119.7 139.5 125.3 139.5 132.2C139.5 139.1 145.1 144.7 152 144.7V119.7Z" fill="#64D2F3"/>
<path d="M152 151H144.2C134.7 151 127 158.7 127 168.2V171.3C127 173.9 129.1 176 131.7 176H152V151Z" fill="#64D2F3"/>
</svg>
