<svg width="200" height="200" viewBox="0 0 200 200" fill="none" xmlns="http://www.w3.org/2000/svg">
<g clip-path="url(#clip0)">
<path d="M179 149.3H113.4V141.3H171V35H29V141.3H86.6V149.3H21V27H179V149.3Z" fill="white"/>
<path d="M160.299 130.6H119.499V122.6H152.299V53.7H47.6992V122.6H80.4992V130.6H39.6992V45.7H160.299V130.6Z" fill="white"/>
<path d="M123.701 123.3C123.701 110.2 113.101 99.5 100.001 99.5C86.9008 99.5 76.3008 110.2 76.3008 123.3C76.3008 129.5 78.7008 135.1 82.6008 139.4V168.7C82.6008 170 83.2008 171.2 84.3008 172C85.4008 172.7 86.7008 172.9 88.0008 172.5L100.001 168L112.101 172.4C112.501 172.6 113.001 172.6 113.501 172.6C114.301 172.6 115.101 172.4 115.801 171.9C116.901 171.2 117.501 169.9 117.501 168.6V139.3C121.301 135.1 123.701 129.5 123.701 123.3ZM100.001 107.5C108.701 107.5 115.701 114.6 115.701 123.3C115.701 132 108.601 139.1 100.001 139.1C91.4008 139.1 84.3008 132 84.3008 123.3C84.3008 114.6 91.3008 107.5 100.001 107.5ZM101.401 160C100.501 159.7 99.5008 159.7 98.6008 160L90.5008 163V145.1C93.4008 146.4 96.6008 147.1 99.9008 147.1C103.201 147.1 106.501 146.4 109.301 145.1V163L101.401 160Z" fill="#64D2F3"/>
<path d="M142.299 65.8H57.6992V73.8H142.299V65.8Z" fill="#64D2F3"/>
<path d="M121.9 83.6001H78V91.6001H121.9V83.6001Z" fill="#64D2F3"/>
</g>
<defs>
<clipPath id="clip0">
<rect width="158" height="145.7" fill="white" transform="translate(21 27)"/>
</clipPath>
</defs>
</svg>
