<svg width="192" height="200" viewBox="0 0 192 200" fill="none" xmlns="http://www.w3.org/2000/svg">
<g clip-path="url(#clip0)">
<path d="M100.5 91.6001V83.6001C100.5 83.6001 100.5 83.6001 100.6 83.6001L126.8 74.8001C127 74.7001 127.1 74.5001 127.1 74.4001V53.1001H135.1V74.5001C135.1 78.1001 132.8 81.3001 129.3 82.5001L103.2 91.3001C102.3 91.5001 101.4 91.6001 100.5 91.6001Z" fill="#64D2F3"/>
<path d="M73.8999 176.4C71.3999 174.6 69.9999 171.4 70.4999 168.2L73.7999 148.2L59.4999 134C57.1999 131.7 56.3999 128.4 57.3999 125.4C58.3999 122.3 60.9999 120.2 64.0999 119.7L83.7999 116.7L92.8999 96.5C94.1999 93.6 97.0999 91.8 100.5 91.8V99.8C100.3 99.8 100.2 99.8 100.1 99.9L89.2999 124L65.2999 127.6C65.1999 127.6 65.0999 127.7 64.9999 127.9C64.9999 128 64.9999 128.2 65.0999 128.3L82.3999 145.4L78.3999 169.5C78.3999 169.7 78.4999 169.8 78.4999 169.9L73.8999 176.4Z" fill="#FED843"/>
<path d="M100.5 108.2C91.4 108.2 84 100.8 84 91.6999C84 82.5999 91.4 75.2 100.5 75.2C109.6 75.2 117 82.5999 117 91.6999C117 100.8 109.6 108.2 100.5 108.2ZM100.5 83.2C95.8 83.2 92 86.9999 92 91.6999C92 96.3999 95.8 100.2 100.5 100.2C105.2 100.2 109 96.3999 109 91.6999C109 86.9999 105.2 83.2 100.5 83.2Z" fill="#CCCCCC"/>
<path d="M100.5 91.6001C99.6 91.6001 98.7 91.5001 97.9 91.2001L71.7 82.4001C68.3 81.3001 66 78.1001 66 74.4001V53.1001H74V74.5001C74 74.6001 74.1 74.8001 74.3 74.9001L100.5 83.7001C100.6 83.7001 100.6 83.7001 100.6 83.7001L100.5 91.6001Z" fill="#64D2F3"/>
<path d="M122.2 178C120.9 178 119.5 177.7 118.3 177L100.4 167.7L82.7004 177C79.9004 178.5 76.4004 178.2 73.9004 176.3L78.7004 169.9C78.8004 170 78.9004 170 79.0004 169.9L100.6 158.6L122.1 170C122.2 170.1 122.3 170 122.4 170C122.6 169.9 122.6 169.7 122.6 169.5L118.6 145.4L135.9 128.2C136 128.1 136.1 127.9 136 127.8C135.9 127.6 135.8 127.5 135.7 127.5L111.7 123.9L100.9 99.9C100.8 99.9 100.7 99.8 100.5 99.8V91.8C103.9 91.8 106.8 93.6 108.1 96.5L117.2 116.7L136.9 119.7C140.1 120.2 142.7 122.4 143.6 125.5C144.6 128.5 143.8 131.8 141.5 134L127.2 148.2L130.5 168.2C131 171.3 129.7 174.4 127.2 176.3C125.7 177.4 124 178 122.2 178Z" fill="#FED843"/>
<path d="M135.399 57.6H65.5992C60.9992 57.6 57.1992 53.8 57.1992 49.2V30.4C57.2992 25.8 60.9992 22 65.5992 22H135.399C139.999 22 143.799 25.8 143.799 30.4V49.2C143.799 53.8 139.999 57.6 135.399 57.6ZM65.5992 30C65.3992 30 65.2992 30.2 65.2992 30.4V49.2C65.2992 49.4 65.4992 49.6 65.6992 49.6H135.499C135.699 49.6 135.899 49.4 135.899 49.2V30.4C135.899 30.2 135.699 30 135.499 30H65.5992Z" fill="white"/>
</g>
<defs>
<clipPath id="clip0">
<rect width="87" height="156" fill="white" transform="translate(57 22)"/>
</clipPath>
</defs>
</svg>
