<svg width="200" height="200" viewBox="0 0 200 200" fill="none" xmlns="http://www.w3.org/2000/svg">
<g clip-path="url(#clip0)">
<path d="M124.3 72.2L117.5 58H82.5004L75.7004 72.2L68.4004 68.8L77.4004 50H122.6L131.6 68.8L124.3 72.2Z" fill="#9AC7E2"/>
<path d="M144 86H136V74.2H64V86H56V66.2H144V86Z" fill="#6B9AC4"/>
<path d="M105 110.5H95V118.5H105V110.5Z" fill="#6B9AC4"/>
<path d="M60 87.2C74.9 87.2 87 99.4 87 114.5C87 129.6 74.9 141.8 60 141.8C45.1 141.8 33 129.5 33 114.5C33 99.5 45.1 87.2 60 87.2ZM60 79.2C40.7 79.2 25 95 25 114.5C25 134 40.7 149.8 60 149.8C79.3 149.8 95 134 95 114.5C95 95 79.3 79.2 60 79.2Z" fill="white"/>
<path d="M140 87.2C154.9 87.2 167 99.4 167 114.5C167 129.6 154.9 141.8 140 141.8C125.1 141.8 113 129.6 113 114.5C113 99.4 125.1 87.2 140 87.2ZM140 79.2C120.7 79.2 105 95 105 114.5C105 134 120.7 149.8 140 149.8C159.3 149.8 175 134 175 114.5C175 95 159.3 79.2 140 79.2Z" fill="white"/>
</g>
<defs>
<clipPath id="clip0">
<rect width="150" height="99.8" fill="white" transform="translate(25 50)"/>
</clipPath>
</defs>
</svg>
