<svg width="200" height="200" viewBox="0 0 200 200" fill="none" xmlns="http://www.w3.org/2000/svg">
<g clip-path="url(#clip0)">
<path d="M158.1 176.3H42.5V88.2H50.5V168.3H150.1V88.2H158.1V176.3Z" fill="#E6E6E6"/>
<path d="M153.301 61.8H145.301V31H128.801V51.2H120.801V23H153.301V61.8Z" fill="white"/>
<path d="M167.7 99.1999L100.3 68.9999L32.9 99.1999L20 70.4999L100.3 34.3999L180.6 70.4999L167.7 99.1999ZM100.3 60.1999L163.7 88.6999L170.1 74.5999L100.3 43.1999L30.6 74.4999L37 88.5999L100.3 60.1999Z" fill="#6B9AC4"/>
<path d="M121.399 147.3H79.1992V115.2H121.399V147.3ZM87.1992 139.3H113.399V123.1H87.1992V139.3Z" fill="white"/>
<path d="M111.801 123.2H88.8008V110C88.8008 103.7 94.0008 98.5 100.301 98.5C106.601 98.5 111.801 103.7 111.801 110V123.2ZM96.8008 115.2H103.801V110C103.801 108.1 102.201 106.5 100.301 106.5C98.4008 106.5 96.8008 108 96.8008 110V115.2Z" fill="white"/>
</g>
<defs>
<clipPath id="clip0">
<rect width="160.6" height="153.3" fill="white" transform="translate(20 23)"/>
</clipPath>
</defs>
</svg>
