<svg width="200" height="200" viewBox="0 0 200 200" fill="none" xmlns="http://www.w3.org/2000/svg">
<g clip-path="url(#clip0)">
<path d="M155.2 105.8L162.7 113.2L155.2 120.6H144.4L132.2 113.6L118.3 105.7H155.2V105.8ZM158.5 97.8H104.2V128.6H158.5L174 113.2L158.5 97.8ZM112.2 120.7V111.6L128.2 120.7H112.2Z" fill="#64D2F3"/>
<path d="M55.6 80.1L67.8 87.1L81.7 95H44.8L37.3 87.6L44.8 80.2H55.6V80.1ZM95.8 72.1H41.5L26 87.5L41.5 103H95.8V72.1ZM87.8 89.2L71.8 80.1H87.8V89.2Z" fill="#00AEEF"/>
<path d="M155.2 54.4L162.7 61.8L155.2 69.2H144.4L132.2 62.2L118.3 54.3H155.2V54.4ZM158.5 46.4H104.2V77.2H158.5L174 61.8L158.5 46.4ZM112.2 69.3V60.2L128.2 69.3H112.2Z" fill="#64D2F3"/>
<path d="M41.5 72.1L95.8 103V72.1H41.5ZM87.8 89.2L71.8 80.1H87.8V89.2Z" fill="#64D2F3"/>
<path d="M104.2 46.4V77.2H158.5L104.2 46.4ZM112.2 60.2L128.2 69.3H112.2V60.2Z" fill="#00AEEF"/>
<path d="M104.2 97.8V128.6H158.5L104.2 97.8ZM112.2 111.6L128.2 120.7H112.2V111.6Z" fill="#00AEEF"/>
<path d="M104 31H96V164.6H104V31Z" fill="white"/>
<path d="M125.6 160.6H75V168.6H125.6V160.6Z" fill="white"/>
</g>
<defs>
<clipPath id="clip0">
<rect width="148" height="137.6" fill="white" transform="translate(26 31)"/>
</clipPath>
</defs>
</svg>
