<svg width="200" height="200" viewBox="0 0 200 200" fill="none" xmlns="http://www.w3.org/2000/svg">
<path d="M152.7 97.0999L138.3 82.2L132.6 102.1L138.5 100.6C138.4 121.5 121.4 138.5 100.5 138.5C90.4 138.5 80.8 134.5 73.6 127.4L68 133C76.7 141.7 88.2 146.5 100.5 146.5C125.9 146.5 146.5 125.9 146.5 100.5C146.5 99.9 146.5 99.2999 146.5 98.5999L152.7 97.0999Z" fill="#64D2F3"/>
<path d="M100.5 54.5C75.1004 54.5 54.5004 75.1 54.5004 100.5C54.5004 101.2 54.5004 101.9 54.6004 102.5L48.4004 104.1L62.8004 119L68.4004 99L62.5004 100.5C62.5004 79.6 79.5004 62.5 100.5 62.5C110.6 62.5 120.2 66.5 127.4 73.6L133 68C124.3 59.3 112.8 54.5 100.5 54.5Z" fill="#64D2F3"/>
<path d="M100.5 24C58.3 24 24 58.3 24 100.5C24 142.7 58.3 177 100.5 177C142.7 177 177 142.7 177 100.5C177 58.3 142.6 24 100.5 24ZM169 100.5C169 117.9 162.4 133.9 151.7 146L55 49.3C67.1 38.6 83 32 100.5 32C138.2 32 169 62.7 169 100.5ZM32 100.5C32 83 38.6 67.1 49.3 55L145.9 151.6C133.8 162.4 117.9 168.9 100.4 168.9C62.7 169 32 138.2 32 100.5Z" fill="white"/>
</svg>
