<svg width="200" height="200" viewBox="0 0 200 200" fill="none" xmlns="http://www.w3.org/2000/svg">
<g clip-path="url(#clip0)">
<path d="M178.3 97.8C177 96.1 146 55.6 100.1 55.6H96.1V55.8C73.3 57.8 55.5 77 55.5 100.3C55.5 110.8 59.1 120.4 65.2 128.1C47.6 119.1 35.1 105.9 30.4 100.4C34.3 96.1 40.5 89.7 48.5 83.4L51.6 80.9L46.6 74.6L43.5 77C33.3 85.2 25.7 93.4 22.1 97.6L20 100.1L21.9 102.7C23.2 104.4 54.2 144.9 100.1 144.9H104.1V144.7C126.9 142.7 144.7 123.5 144.7 100.2C144.7 89.7 141.1 80.1 135 72.4C152.6 81.4 165.1 94.6 169.8 100.1C165.9 104.4 159.7 110.8 151.7 117.1L148.6 119.6L153.6 125.9L156.7 123.4C166.9 115.3 174.5 107 178.1 102.8L180.2 100.4L178.3 97.8ZM136.8 100.2C136.8 120.4 120.4 136.8 100.2 136.8C80 136.8 63.5 120.4 63.5 100.2C63.5 80 79.9 63.6 100.1 63.6C120.3 63.6 136.8 80 136.8 100.2Z" fill="white"/>
<path d="M100.1 85.1C91.8 85.1 85 91.9 85 100.2C85 108.5 91.8 115.3 100.1 115.3C108.4 115.3 115.2 108.5 115.2 100.2C115.2 91.9 108.4 85.1 100.1 85.1Z" fill="#00AEEF"/>
<path d="M111.4 32L110 40.8C123.2 43 135.5 49.6 144.6 59.6L151.2 53.6C140.7 42.1 126.6 34.5 111.4 32Z" fill="#00AEEF"/>
<path d="M88.8996 32C73.6996 34.5 59.5996 42.1 49.0996 53.5L55.6996 59.5C64.7996 49.6 77.0996 43 90.2996 40.8L88.8996 32Z" fill="#00AEEF"/>
<path d="M144.6 140.9C135.5 150.8 123.2 157.5 110 159.7L111.4 168.5C126.6 166 140.7 158.4 151.1 147L144.6 140.9Z" fill="#00AEEF"/>
<path d="M55.6996 140.9L49.0996 146.9C59.4996 158.3 73.6996 166 88.7996 168.4L90.1996 159.6C77.0996 157.5 64.7996 150.8 55.6996 140.9Z" fill="#00AEEF"/>
</g>
<defs>
<clipPath id="clip0">
<rect width="160.3" height="136.4" fill="white" transform="translate(20 32)"/>
</clipPath>
</defs>
</svg>
