<svg width="148" height="50" viewBox="0 0 148 50" fill="none" xmlns="http://www.w3.org/2000/svg">
<path d="M97.9633 9.21667C91.9269 9.21667 87.8174 14.0061 87.8174 19.476V19.5328C87.8174 25.0025 91.8702 29.7347 97.9067 29.7347C103.943 29.7347 108.053 24.9452 108.053 19.4754V19.4187C108.053 13.9496 104 9.21667 97.9633 9.21667ZM106.05 19.535C106.05 24.2272 102.686 28.0044 97.9646 28.0044C93.2429 28.0044 89.8199 24.1681 89.8199 19.4758V19.4168C89.8199 14.7249 93.184 10.9476 97.9054 10.9476C102.627 10.9476 106.05 14.7839 106.05 19.4758V19.535ZM121.972 21.6738L127.94 29.6125H125.655L119.776 21.7348H115.032L115.877 20.262H120.186C123.63 20.262 126.09 18.4918 126.09 15.539V15.4737C126.09 12.653 123.925 10.9476 120.219 10.9476H113.983V29.6122H112.261V9.42024H120.413C122.904 9.42024 124.902 10.0924 126.177 11.3668C127.161 12.3515 127.74 13.7706 127.74 15.3639V15.4219C127.74 18.781 125.158 21.0946 121.972 21.6738H121.972ZM147.09 15.4639V15.5192C147.09 19.685 143.614 21.8369 139.503 21.8369H135.555L136.465 20.2622H139.48C142.988 20.2622 145.286 18.3873 145.286 15.605V15.5445C145.286 12.5202 143.018 10.9482 139.601 10.9482H134.813V29.5847H133.089V9.38484H139.861C144.22 9.38484 147.09 11.6569 147.09 15.4639H147.09ZM86.6477 9.38484L71.9506 28.0314H85.4157L84.5176 29.5875H68.6045L83.2629 10.9479H69.8281L70.7306 9.38515H86.6477V9.38484ZM24.8666 43.6247H47.279L43.693 49.8359H14.1085L41.9002 1.69928H15.9016L14.1085 4.80487H36.5211L12.7634 45.9539L11.8669 44.4011L33.8318 6.35766H11.4189L15.005 0.146484H44.5898L16.7977 48.2831H42.7967L44.5898 45.1775H22.177L45.9348 4.02847L46.8312 5.58127L24.8666 43.6247Z" fill="white"/>
<path d="M69.6216 37.6473C69.6216 37.6531 69.6214 37.6586 69.6214 37.6644C69.6214 38.6184 70.4065 39.4035 71.3606 39.4035C71.3716 39.4035 71.3826 39.4034 71.3937 39.4032C71.7781 39.3857 72.1536 39.2815 72.4921 39.0986V37.6234H73.5905V39.7804C72.9196 40.2416 72.1275 40.4953 71.3135 40.5102C69.6137 40.5102 68.3228 39.2754 68.3228 37.6478C68.3228 36.0281 69.6376 34.8014 71.3857 34.8014C72.2089 34.8035 73.0061 35.0928 73.6388 35.6192L72.9246 36.5253C72.5048 36.1364 71.9572 35.9139 71.3851 35.9C71.3741 35.8998 71.3631 35.8996 71.352 35.8996C70.4027 35.8996 69.6214 36.6809 69.6214 37.6302C69.6214 37.636 69.6216 37.6416 69.6216 37.6473ZM77.7997 34.8405L80.1971 40.4532H78.8416L78.4006 39.3628H75.8028L75.3618 40.4532H74.055L76.4929 34.8405H77.7997ZM77.9923 38.3444L77.1103 36.1635L76.2202 38.3444H77.9923ZM79.6433 35.9149H81.3514V40.4531H82.6182V35.9155H84.3342V34.8405H79.6429L79.6433 35.9149ZM86.2815 38.1599H88.9916V37.1094H86.2811V35.8906H89.2878V34.8405H85.0143V40.4532H89.3761V39.4028H86.2811L86.2815 38.1599ZM97.0645 34.8405L95.8938 39.074L94.7075 34.8405H93.4652L92.2946 39.074L91.116 34.8405H89.7528L91.604 40.4537H92.9112L94.0659 36.4526L95.1961 40.4537H96.5033L98.3635 34.8405H97.0645ZM101.594 34.8405L103.991 40.4532H102.636L102.195 39.3628H99.5971L99.1561 40.4532H97.8494L100.287 34.8405H101.594ZM101.786 38.3444L100.904 36.1635L100.014 38.3444H101.786ZM107.623 34.8405L106.219 37.3582L104.784 34.8405H103.509L105.586 38.6732V40.4532H106.853V38.6411L108.897 34.8405H107.623ZM47.7202 10.2442L56.2377 24.9968L48.1685 38.9709H32.9278L46.8236 14.9026L45.9272 13.3498L30.2384 40.5237H49.0649L58.0287 24.9936L48.6166 8.69141L47.7202 10.2442ZM0.652344 24.9936L10.0668 41.3001L10.9632 39.7473L2.4452 24.9936L10.5152 11.0206H25.7558L11.86 35.0889L12.7564 36.6417L28.4454 9.4678H9.61865L0.652344 24.9936Z" fill="#097FA9"/>
</svg>
