<svg width="1140" height="453" viewBox="0 0 1140 453" fill="none" xmlns="http://www.w3.org/2000/svg">
<g clip-path="url(#clip0)">
<path d="M785.5 142.36L678.65 194.05L678.94 194.66L785.8 143L785.5 142.36Z" fill="#008B7D"/>
<path d="M404.62 189.91L404.49 189.64L379.71 129.64L379.78 129.5L403.78 79.5001L403.91 79.4301L428.62 72.0801L428.82 72.6901L404.25 80.0401L380.43 129.66L405 189.1L417.12 185.83L417.32 186.44L404.62 189.91Z" fill="#008B7D"/>
<path d="M412.65 175.08L412.04 174.8L454.51 87.62L403.94 80.13L404.08 79.45L455.53 87.14L455.33 87.55L412.65 175.08Z" fill="#008B7D"/>
<path d="M407.69 185L407.55 184.73L384.48 129.73L406.12 84.8101L447.64 91.5501L410.14 168.05L412.52 174.51L425 170.72L425.21 171.4L412.07 175.35L409.39 168L446.62 92.1101L406.53 85.5801L385.23 129.75L408 184.2L420.32 179.64L420.59 180.32L407.69 185Z" fill="#008B7D"/>
<path d="M407.58 184.4L404.52 189.31L405.1 189.67L408.16 184.76L407.58 184.4Z" fill="#008B7D"/>
<path d="M436.2 113.59L384.74 129.42L384.94 130.07L436.4 114.24L436.2 113.59Z" fill="#008B7D"/>
<path d="M467.69 82.8601L454.88 87.0501L455.09 87.6901L467.9 83.5101L467.69 82.8601Z" fill="#008B7D"/>
<path d="M497.8 241H497.66L415.38 222L424.5 203.42L412.11 208.32L409.39 200.9L416.94 185.9L417.55 186.24L410.14 201L412.52 207.46L425.86 202.15L416.4 221.55L497.73 240.27L569.6 207.6L578.79 189.77L567.42 187.39L567.56 186.7L579.81 189.29L570.08 208.14L569.94 208.21L497.8 241Z" fill="white"/>
<path d="M571 75.4999L570.38 75.2299L577.6 60.2299L575.73 54.9999L563.27 57.9999L571.27 40.9999L492.27 31.8099L419.27 49.1599L408.45 68.7599L428.87 72.0999L428.8 72.7799L407.43 69.2399L418.79 48.5499L492.23 31.1299L572.34 40.4499L564.5 57.0599L576.21 54.1999L578.32 60.3299L578.25 60.4599L571 75.4999Z" fill="white"/>
<path d="M498.07 240.76L497.46 240.48L507.33 221L444.51 206.84L507.6 80.84L577.84 60L578.04 60.68L508.04 81.37L445.42 206.37L508.24 220.52L498.07 240.76Z" fill="white"/>
<path d="M495.62 235L495.42 234.93L422.52 218.67L422.66 218.26L500.39 60.0499L571.65 40.3799L571.85 41.0599L500.85 60.5999L423.48 218.16L495.28 234.22L500.11 224.76L437 211.28L437.21 210.88L505.21 74.4799L563.88 57.1899L564.08 57.8699L505.63 74.9999L438 210.81L501.16 224.28L495.62 235Z" fill="white"/>
<path d="M419.05 48.48L418.95 49.16L500.64 60.63L500.74 59.95L419.05 48.48Z" fill="white"/>
<path d="M417.55 186.31L416.94 185.97L469.69 78.5701L428.69 72.7801L428.76 72.1001L470.71 78.0001L417.55 186.31Z" fill="white"/>
<path d="M412.65 208L412.04 207.73L476.63 73.8L415.17 65.5L420.62 54.2L494.06 64.61L425.45 203L424.84 202.66L493 65.16L421 55L416.16 65L477.62 73.3099L412.65 208Z" fill="white"/>
<path d="M579.15 189.24L507.68 220.48L507.95 221.1L579.42 189.86L579.15 189.24Z" fill="white"/>
<path d="M439.63 211.21L422.87 218.07L423.13 218.7L439.89 211.84L439.63 211.21Z" fill="white"/>
<path d="M462.78 199.21L444.84 206.21L445.09 206.84L463.02 199.84L462.78 199.21Z" fill="white"/>
<path d="M505.72 74.6001L505.08 74.8401L507.46 81.1501L508.1 80.9101L505.72 74.6001Z" fill="white"/>
<path d="M443.08 57.3999L415.57 64.9099L415.75 65.5699L443.26 58.0499L443.08 57.3999Z" fill="white"/>
<path d="M491 69.5901L477.11 73.2201L477.28 73.8801L491.17 70.2501L491 69.5901Z" fill="white"/>
<path d="M514.47 209.86L459.28 199.1L459.48 198.69L505.15 108.51L513.39 105.99L510.26 98.92L512.26 93.13L583 71.28L583.14 71.56L611.14 131.56L585.35 180.15L567.65 187.57L567.38 186.96L584.87 179.61L610.39 131.61L582.69 72.26L513 93.68L541.51 157.86L541.45 157.99L514.47 209.86ZM460.3 198.63L514.13 209.11L540.81 157.72L512.57 94.29L511 98.85L514.34 106.4L505.63 109.13L460.3 198.63Z" fill="#008B7D"/>
<path d="M511.27 203.32L511 203.25L467.24 195.25L507.53 114.46L516.31 112.46L513.59 106.2L514.2 105.92L536.39 156.63L511.27 203.32ZM468.33 194.81L510.93 202.57L535.64 156.77L516.58 113.28L508.01 115.18L468.33 194.81Z" fill="#008B7D"/>
<path d="M505.7 108.72L505.07 108.97L507.47 115.05L508.1 114.8L505.7 108.72Z" fill="#008B7D"/>
<path d="M610.62 131L541 157.31L541.24 157.95L610.83 131.65L610.62 131Z" fill="#008B7D"/>
<path d="M567.37 186.76L514.17 209.13L514.43 209.76L567.64 187.38L567.37 186.76Z" fill="#008B7D"/>
<path d="M528.2 170.65L467.63 194.78L467.88 195.42L528.45 171.28L528.2 170.65Z" fill="#008B7D"/>
<path d="M236.58 135.47H236.51L178.87 124.47V110.17L240.73 95.47H240.8L297.8 105.82V119.4L297.52 119.47L236.58 135.47ZM179.58 123.96L236.58 134.78L297.16 118.86V106.47L240.73 96.19L179.48 110.76V124L179.58 123.96Z" fill="white"/>
<path d="M265 100.21H264.32V89.66L319.32 76.52L319.39 76.59L373.5 84.35L373.43 85.03L319.43 77.27L265 90.2V100.21Z" fill="white"/>
<path d="M236.92 135.12H236.24V122.06L297.36 105.86L297.56 106.54L236.92 122.6V135.12Z" fill="white"/>
<path d="M179.31 110.14L179.18 110.8L236.51 122.6L236.65 121.94L179.31 110.14Z" fill="white"/>
<path d="M236.58 158L178.87 145.89V131.72L195.74 127.09L195.95 127.71L179.54 132.27V145.33L236.54 157.33L297.11 139.09V126.75L282.21 123.49L282.35 122.81L297.8 126.21V139.55L297.52 139.62L236.58 158Z" fill="white"/>
<path d="M321.39 113.14L321.18 112.53L373.18 97.2099V85.0999L321.32 99.8699H321.25L264.62 90.2699L264.76 89.5899L321.25 99.1899L373.86 84.1899V97.6899L321.39 113.14Z" fill="white"/>
<path d="M236.58 143.5L179.14 132.33L179.27 131.65L236.58 142.82L297.36 126.14L297.56 126.82L236.58 143.5Z" fill="white"/>
<path d="M321.66 113.28L297.43 108.65L297.56 107.97L321 112.39V99.53H321.68L321.66 113.28Z" fill="white"/>
<path d="M236.92 143.16H236.24V157.65H236.92V143.16Z" fill="white"/>
<path d="M236.58 178.82L236.51 178.75L178.87 166.16V152.07L190.43 147.65L190.71 148.33L179.54 152.55V165.62L236.54 178.07L297.11 158.47V146.63L284.52 143.5L284.73 142.82L297.8 146.08V159L297.52 159.06L236.58 178.82Z" fill="white"/>
<path d="M321.66 133.63L297.43 128.39L297.56 127.77L320.98 132.77V119.88H321.66V133.63Z" fill="white"/>
<path d="M236.58 165H236.51L179.14 152.62L179.27 151.94L236.58 164.32L297.36 146L297.56 146.68L236.58 165Z" fill="white"/>
<path d="M236.92 164.66H236.24V178.48H236.92V164.66Z" fill="white"/>
<path d="M321.39 133.56L321.18 132.88L373.18 116.14V104.43L321.32 120.22L297.43 115.86L297.49 115.18L321.25 119.54L373.86 103.54V116.68L373.59 116.75L321.39 133.56Z" fill="white"/>
<path d="M321.32 152.62L297.43 147.62L297.56 146.94L321.25 151.94L373.18 134.58V123.15L321.32 139.68L321.25 139.62L297.43 134.51L297.56 133.83L321.25 138.94L373.86 122.26V135.06L321.32 152.62Z" fill="white"/>
<path d="M321.66 139.28H321V152.28H321.68L321.66 139.28Z" fill="white"/>
<path d="M168.11 123.21L115.64 112.32V98.17L115.91 98.1L177.23 84.76H177.3L230.39 93.76V98.39H229.71V94.36L177.23 85.44L116.32 98.71V111.78L168.11 122.53L179.11 119.53L179.31 120.14L168.11 123.21Z" fill="white"/>
<path d="M168 143.5H167.93L115.66 131.93V118.93L130.9 114.84L131.11 115.45L116.34 119.45V131.45L168 142.82L179.16 140.09L179.29 140.71L168 143.5Z" fill="white"/>
<path d="M168.32 143.16H167.63V128.86L184.72 125L184.85 125.62L168.32 129.43V143.16Z" fill="white"/>
<path d="M168.45 122.87H167.77V108.65L230 93.74L230.14 94.42L168.47 109.19L168.45 122.87Z" fill="white"/>
<path d="M116.07 118.84L115.94 119.51L167.94 129.51L168.06 128.84L116.07 118.84Z" fill="white"/>
<path d="M116 98.0901L115.87 98.7601L168 109.22L168.13 108.56L116 98.0901Z" fill="white"/>
<path d="M168.11 163.85L168.04 163.78L115.64 151.39V137.78L129 134.24L129.13 134.92L116.34 138.32V150.85L168.13 163.1L179.13 159.69L179.33 160.37L168.11 163.85Z" fill="white"/>
<path d="M105.29 110.83L55.4702 99.8301V87.5501L55.7402 87.4801L118.63 74.0701H118.7L167.77 82.9201V87.2101H167.09V83.5301L118.63 74.8201L56.1502 88.0901V99.2601L105.29 110.15L115.84 106.54L116.04 107.22L105.29 110.83Z" fill="white"/>
<path d="M168.45 163.44H167.77V150.1L115.91 138.39L116.04 137.71L168.45 149.55V163.44Z" fill="white"/>
<path d="M105.63 110.49H105V97.62L55.7402 88.16L55.8802 87.48L105.63 97.08V110.49Z" fill="white"/>
<path d="M105.29 130.63L55.4702 119.47V106.88L72.3502 102.88L72.5502 103.56L56.1502 107.44V118.95L105.29 129.95L115.84 126.82L116.04 127.5L105.29 130.63Z" fill="white"/>
<path d="M167.31 82.8799L105.19 96.9999L105.34 97.6699L167.46 83.5499L167.31 82.8799Z" fill="white"/>
<path d="M105.63 130.29H105V117L55.79 107.47L55.93 106.79L105.68 116.46L105.63 130.29Z" fill="white"/>
<path d="M105.29 149.69H105.22L55.4702 138.32V125.53L69.7602 122L69.9002 122.68L56.1502 126.08V137.79L105.29 149L115.84 146L116.04 146.68L105.29 149.69Z" fill="white"/>
<path d="M120.35 112.62L105.23 116.4L105.4 117.06L120.52 113.28L120.35 112.62Z" fill="white"/>
<path d="M105.63 149.35H105V136.35L55.7402 126.14L55.8802 125.46L105.63 135.81V149.35Z" fill="white"/>
<path d="M118.82 132L105.17 135.73L105.35 136.38L119 132.63L118.82 132Z" fill="white"/>
<path d="M202.41 89.32H201.73V79.11H202L257.53 66.72H257.6L309.13 75V79.35H308.45V75.64L257.54 67.4L202.41 79.72V89.32Z" fill="white"/>
<path d="M144 78.91H143.32V69.4499L198.04 57.45L247.25 65.3399V69.43H246.57V66L198 58.15L144 70V78.91Z" fill="white"/>
<path d="M254.89 98.3701H254.21V88.8401L202 79.7201L202.13 79.1101L254.88 88.3001L254.89 98.3701Z" fill="white"/>
<path d="M308.7 75L254.42 88.27L254.59 88.93L308.87 75.68L308.7 75Z" fill="white"/>
<path d="M192.27 87.5499H191.59V78.5499L143.54 70.1099L143.68 69.4299L192.27 77.9399V87.5499Z" fill="white"/>
<path d="M246.75 65.3L191.81 77.85L191.96 78.52L246.9 66L246.75 65.3Z" fill="white"/>
<path d="M361.55 120L361.41 120.67L373.41 123.09L373.55 122.42L361.55 120Z" fill="white"/>
<path d="M359.17 101.37L359.07 102.04L373.45 104.32L373.56 103.65L359.17 101.37Z" fill="white"/>
<path d="M890 378.72L755.41 345.3V321.61L755.55 321.54L811.9 280.54H812L940.2 307.32V330.39L890 378.72ZM756.05 344.72L889.83 378L939.58 330.15V307.93L812.11 281.32L756.11 321.95L756.05 344.72Z" fill="white"/>
<path d="M890 416.76L889.79 416.69L755.37 381.69V357.69L768.17 347.82L768.57 348.37L756.05 358.03V381.17L889.79 415.88L939.54 364.63V342.1L929.88 340.1L930.02 339.42L940.23 341.47V365L940.09 365.07L890 416.76Z" fill="white"/>
<path d="M890.31 416.35H889.63V392.12L755.63 358.23L755.84 357.55L890.26 391.55L890.31 416.35Z" fill="white"/>
<path d="M890.17 392.06L889.7 391.58L939.79 341.42L939.99 341.49L958.64 346.18L998.32 304.05V284.79L989 283.36L989.07 282.68L999 284.25V304.32L998.93 304.39L958.84 346.93L940 342.17L890.17 392.06Z" fill="white"/>
<path d="M890 452.9L889.79 452.83L755.37 416.63V391.63L765.72 383.8L766.12 384.34L756.09 392V416.09L889.83 452.09L939.58 398V376.4L931.58 373.61L931.86 373L940.3 375.86V398.25L940.16 398.38L890 452.9Z" fill="white"/>
<path d="M939.66 307.35L889.66 352.96L890.12 353.46L940.12 307.86L939.66 307.35Z" fill="white"/>
<path d="M958.84 312.7H958.71L939.86 308.82L939.99 308.2L958.64 312L998.32 273.61V253.61L881.53 232L835.93 265.14V285.83H835.25V264.83L835.38 264.76L881.38 231.28L999 253V273.82L958.84 312.7Z" fill="white"/>
<path d="M890.31 452.49H889.63V428.88L755.63 392.19L755.84 391.51L890.26 428.33L890.31 452.49Z" fill="white"/>
<path d="M939.68 375.86L889.68 428.38L890.17 428.85L940.17 376.33L939.68 375.86Z" fill="white"/>
<path d="M959.12 312.36H958.44V290.36L835.52 265.36L835.65 264.68L959.12 289.86V312.36Z" fill="white"/>
<path d="M998.45 253L958.54 289.84L959 290.34L998.91 253.5L998.45 253Z" fill="white"/>
<path d="M959.12 346.52H958.44V324.06L998.44 284.31L998.91 284.79L959.1 324.33L959.12 346.52Z" fill="white"/>
<path d="M940 319.27L939.84 319.93L958.69 324.48L958.85 323.82L940 319.27Z" fill="white"/>
<path d="M958.84 378.72L932.84 372.32L933.04 371.64L958.64 378L998.32 334.71V315.11L990.42 313.2L990.63 312.52L999 314.52V335L998.93 335.07L958.84 378.72Z" fill="white"/>
<path d="M959.12 378.31H958.44V356.26L998.44 314.53L998.91 315.01L959.1 356.53L959.12 378.31Z" fill="white"/>
<path d="M940.07 351.38L939.91 352.05L958.74 356.69L958.91 356.03L940.07 351.38Z" fill="white"/>
<path d="M890.31 378.31H889.63V353.46L755.82 322.16L731.04 340.16L612.35 310.45V288.45L677.89 251.45H678L790.12 275V297.12H789.44V275.53L678 252.12L613 288.87V309.87L730.88 339.4L755.65 321.4H755.79L890.28 352.91L890.31 378.31Z" fill="white"/>
<path d="M731.18 375.45H730.5V351.56L730.64 351.42L755.55 333.11L755.96 333.66L731.18 351.9V375.45Z" fill="white"/>
<path d="M730.91 375.79H730.7L612.35 344.89V321.75L612.55 321.61L626.43 313.38L626.78 313.99L613 322.09V344.41L730.74 375.11L766.13 347.41L766.54 347.95L730.91 375.79Z" fill="white"/>
<path d="M612.75 321.6L612.59 322.26L730.71 352.06L730.88 351.4L612.75 321.6Z" fill="white"/>
<path d="M731.32 339.78H730.64V316.51L612.64 289.01L612.77 288.33L731.32 316V339.78Z" fill="white"/>
<path d="M789.58 274.88L730.8 315.88L731.19 316.44L789.97 275.44L789.58 274.88Z" fill="white"/>
<path d="M731 409.48L612.35 376.4V353.87L623.44 347.2L623.78 347.75L613 354.21V375.86L730.88 408.73L763.14 383.21L763.55 383.68L731 409.48Z" fill="white"/>
<path d="M731 386.61L730.87 386.54L612.62 354.35L612.82 353.74L730.91 385.86L755.55 365.78L755.96 366.33L731 386.61Z" fill="white"/>
<path d="M731.32 386.27H730.64V409.14H731.32V386.27Z" fill="white"/>
<path d="M590.5 305.48H590.43L486.3 279.82V258.82L556.81 225.82H556.88L657.2 247.22V263.69H656.52V247.77L556.88 226.6L487 259.27V279.27L590.45 304.72L612.57 292.27L612.91 292.88L590.5 305.48Z" fill="white"/>
<path d="M583.22 231.77H582.54V213.94L582.74 213.87L640.93 186.78L735.2 204.68V219.32H734.52V205.23L641 187.53L583.22 214.35V231.77Z" fill="white"/>
<path d="M590.84 305.14H590.16V283.63L486.57 259.4L486.7 258.72L590.84 283.09V305.14Z" fill="white"/>
<path d="M681.77 252.53H681.09V234.29L582.81 214.48L582.94 213.8L681.77 233.75V252.53Z" fill="white"/>
<path d="M656.71 247.25L590.3 283.12L590.62 283.71L657 247.85L656.71 247.25Z" fill="white"/>
<path d="M734.7 204.6L681.32 233.67L681.64 234.27L735 205.2L734.7 204.6Z" fill="white"/>
<path d="M701.28 241.8L682.83 252.57L683.17 253.16L701.63 242.38L701.28 241.8Z" fill="white"/>
<path d="M701.26 252.2L696.33 255.35L696.7 255.93L701.63 252.77L701.26 252.2Z" fill="white"/>
<path d="M656.9 248.6L656.76 249.27L676 253.18L676.13 252.52L656.9 248.6Z" fill="white"/>
<path d="M657 258.75L656.89 259.42L663.12 260.52L663.24 259.85L657 258.75Z" fill="white"/>
<path d="M590.5 338.83L590.36 338.76L486.3 311.76V290.3L501.41 282.89L501.68 283.5L487 290.71V311.2L590.45 338.08L612.57 325.15L612.91 325.76L590.5 338.83Z" fill="white"/>
<path d="M590.57 370.48H590.36L486.3 342.23V320.8L498.75 314.33L499.02 314.94L487.02 321.2V341.69L590.43 369.8L612.55 356L612.89 356.55L590.57 370.48Z" fill="white"/>
<path d="M590.57 317.26L486.57 290.85L486.7 290.17L590.43 316.51L612.55 303.37L612.89 303.98L590.57 317.26Z" fill="white"/>
<path d="M590.84 316.85H590.16V338.42H590.84V316.85Z" fill="white"/>
<path d="M590.84 370.14H590.16V349.38L486.57 321.38L486.77 320.7L590.84 348.88V370.14Z" fill="white"/>
<path d="M612.52 334.85L590.28 348.85L590.64 349.42L612.88 335.42L612.52 334.85Z" fill="white"/>
<path d="M811.7 281.59V260.49L701.85 238.58V256.75H701.17V238L701.37 237.93L754.66 207.84H754.8L859.8 227.92V247.92L811.7 281.59ZM702.39 238L812.31 259.91V280.26L858.93 247.52V228.37L754.59 208.43L702.39 238Z" fill="white"/>
<path d="M859.11 227.9L811.76 259.9L812.14 260.46L859.49 228.46L859.11 227.9Z" fill="white"/>
<path d="M835.45 275L823.59 283.1L823.97 283.66L835.83 275.56L835.45 275Z" fill="white"/>
<path d="M789.84 276.53L789.72 277.19L812 281.25L812.12 280.58L789.84 276.53Z" fill="white"/>
<path d="M789.84 287.22L789.71 287.89L800.06 289.89L800.19 289.22L789.84 287.22Z" fill="white"/>
<path d="M1085.85 189.23H1085.71L986.14 173.78V156.29L986.27 156.22L1013.7 136.35H1013.84L1109.94 149.55V165.41L1109.87 165.48L1085.85 189.23ZM986.75 173.17L1085.57 188.48L1109.26 165.14V150.14L1013.84 137L986.75 156.6V173.17Z" fill="white"/>
<path d="M1086.05 188.83H1085.37V172.08L1085.51 172.01L1109.33 149.62L1109.8 150.1L1086.05 172.35V188.83Z" fill="white"/>
<path d="M1085.85 215.3H1085.64L986.07 198.56V182.09L995.07 174.6L995.55 175.08L986.7 182.43V198L1085.52 214.54L1109.21 189.9V174.74L1102.13 172.83L1102.34 172.15L1109.89 174.15V190.15L1109.82 190.21L1085.85 215.3Z" fill="white"/>
<path d="M1086.05 215H1085.37V197.81L1085.51 197.74L1109.33 174.19L1109.8 174.74L1086.05 198.08V215Z" fill="white"/>
<path d="M986.42 181.86L986.31 182.53L1085.6 198.25L1085.71 197.57L986.42 181.86Z" fill="white"/>
<path d="M1085.85 239.73H1085.64L986.07 222.38V205.57L993.22 199.17L993.62 199.71L986.75 205.91V221.83L1085.57 239.05L1109.26 213.67V198.22L1103.61 196.52L1103.81 195.83L1109.94 197.67V213.94L1109.87 214.08L1085.85 239.73Z" fill="white"/>
<path d="M1119.47 157.65L1109.53 156.84L1109.6 156.16L1119.2 156.97L1138.66 136.55V123L1048.89 111.77L1025.34 129.06V138.25H1024.66V128.72L1048.75 111.09H1048.89L1139.34 122.39V136.82L1119.47 157.65Z" fill="white"/>
<path d="M1086.05 239.39H1085.37V222.45L1085.44 222.31L1109.33 197.74L1109.8 198.22L1086.05 222.72V239.39Z" fill="white"/>
<path d="M986.46 205.42L986.34 206.09L1085.65 222.92L1085.77 222.25L986.46 205.42Z" fill="white"/>
<path d="M1119.67 157.31H1119V141.45L1138.74 122.45L1139.22 122.93L1119.68 141.72L1119.67 157.31Z" fill="white"/>
<path d="M1119.4 181.47L1109.53 180.04L1109.67 179.36L1119.2 180.79L1138.66 159.56V145.67L1131.86 144.38L1131.99 143.77L1139.34 145.13V159.83L1119.4 181.47Z" fill="white"/>
<path d="M1119.4 204.55L1109.53 202.44L1109.67 201.76L1119.2 203.76L1138.66 180.96V167.59L1133 166.5L1133.14 165.82L1139.33 167.04V181.27L1119.4 204.55Z" fill="white"/>
<path d="M1119.67 181.13H1119V165.41L1138.74 145.2L1139.22 145.67L1119.68 165.67L1119.67 181.13Z" fill="white"/>
<path d="M1119.67 204.14H1119V187.33L1119.07 187.26L1138.73 167L1139.21 167.48L1119.67 187.56V204.14Z" fill="white"/>
<path d="M1109.59 163.54L1109.47 164.21L1119.19 165.93L1119.31 165.26L1109.59 163.54Z" fill="white"/>
<path d="M1109.63 185.37L1109.51 186.04L1119.22 187.79L1119.34 187.12L1109.63 185.37Z" fill="white"/>
<path d="M1085.64 172.56L986.48 156.84L966.6 170.58H966.47L875.06 156.77V140.64L907.06 122.33L907.2 122.4L995.88 134.1V149.89H995.2V134.65L907.2 123.08L875.75 141.08V156.18L966.41 169.87L986.35 156.18H986.49L1085.79 171.91L1085.64 172.56Z" fill="white"/>
<path d="M920.53 124.44H919.85V114.91L919.98 114.77L947.98 98.9199L948 98.9999L1032.4 109.35V123.71H1031.72V109.94L948.09 99.6599L920.53 115.25V124.44Z" fill="white"/>
<path d="M966.88 170.24H966.2V153.77L995.33 134.1L995.73 134.65L966.88 154.11V170.24Z" fill="white"/>
<path d="M1008.19 141.39L995.46 139.68L995.6 139L1007.51 140.57V126.07L1031.87 109.4L1032.28 109.94L1008.19 126.48V141.39Z" fill="white"/>
<path d="M875.4 140.5L875.3 141.18L966.39 154.24L966.48 153.56L875.4 140.5Z" fill="white"/>
<path d="M920.29 114.77L920.2 115.44L1007.83 126.65L1007.91 125.97L920.29 114.77Z" fill="white"/>
<path d="M1119.26 141.93L1025.07 129.27L1014 137L1013.6 136.46L1024.96 128.56L1119.36 141.29L1119.26 141.93Z" fill="white"/>
<path d="M966.6 195.09L875.06 180.18V163.64L885.88 157.79L886.22 158.4L875.74 164.05V179.64L966.4 194.34L992.74 174.19L993.15 174.74L966.6 195.09Z" fill="white"/>
<path d="M966.6 179.43L875.33 164.19L875.47 163.51L966.4 178.68L986.21 164.39L986.61 164.93L966.6 179.43Z" fill="white"/>
<path d="M966.88 179H966.2V194.66H966.88V179Z" fill="white"/>
<path d="M966.6 219L966.47 218.94L875.06 202.33V186.71L884.06 181.07L884.46 181.61L875.75 187.05V201.82L966.41 218.29L990.84 198.76L991.32 199.31L966.6 219Z" fill="white"/>
<path d="M966.6 203.32H966.47L875.33 187.19L875.47 186.51L966.4 202.57L986.21 186.57L986.61 187.11L966.6 203.32Z" fill="white"/>
<path d="M966.88 203H966.2V218.7H966.88V203Z" fill="white"/>
<path d="M824.83 110.89H824.15V101.77L856 87.0701L933.59 97.1501V107.7H932.91V97.7601L856.07 87.7601L824.83 102.26V110.89Z" fill="white"/>
<path d="M857.3 154.32L857.16 154.25L773.58 141.18V125.12L810.34 108.44L891 120.36V132.13H890.32V121L810.48 109.16L774.27 125.56V140.56L857.17 153.56L875.17 142.74L875.51 143.35L857.3 154.32Z" fill="white"/>
<path d="M857.57 153.91H856.89V137.91L857.09 137.84L890.51 120.35L890.78 120.96L857.57 138.38V153.91Z" fill="white"/>
<path d="M904.46 124.44H903.78V112.87L933.05 97.1499L933.39 97.7599L904.46 113.28V124.44Z" fill="white"/>
<path d="M774 125L773.9 125.67L857.24 138.52L857.34 137.84L774 125Z" fill="white"/>
<path d="M824.52 101.7L824.42 102.37L904.04 113.37L904.13 112.69L824.52 101.7Z" fill="white"/>
<path d="M920 117.69L911 123L911.34 123.59L920.34 118.32L920 117.69Z" fill="white"/>
<path d="M890.69 125L890.6 125.67L900.16 127.03L900.26 126.35L890.69 125Z" fill="white"/>
<path d="M857.3 177.73L773.58 164.12V148.26L785.49 142.41L785.83 143.02L774.26 148.74V163.57L857.16 177L875.16 165.91L875.5 166.45L857.3 177.73Z" fill="white"/>
<path d="M857.3 200.39L773.58 185.56V170L782.97 165L783.32 165.62L774.26 170.45V185L857.16 199.64L875.16 187.93L875.5 188.54L857.3 200.39Z" fill="white"/>
<path d="M857.3 185H857.16L773.85 170.57L773.99 169.89L857.16 184.32L875.16 173.16L875.5 173.77L857.3 185Z" fill="white"/>
<path d="M857.3 162.35L773.85 148.8L773.99 148.19L857.16 161.6L875.16 151.05L875.5 151.59L857.3 162.35Z" fill="white"/>
<path d="M857.57 184.67H856.89V200H857.57V184.67Z" fill="white"/>
<path d="M857.57 162H856.89V177.38H857.57V162Z" fill="white"/>
<path d="M56.34 91.77L55 92L55.27 93.34L56.61 93.07L56.34 91.77Z" fill="#008B7D"/>
<path d="M6.18992 103.34L5.91992 102L8.63992 101.45L8.91992 102.81L6.18992 103.34ZM10.2799 102.52L9.99992 101.16L12.7199 100.62L12.9999 102L10.2799 102.52ZM14.4299 101.71L14.1599 100.34L16.8799 99.8L17.1499 101.16L14.4299 101.71ZM18.5099 100.82L18.2399 99.46L20.9999 98.92L21.2799 100.28L18.5099 100.82ZM22.5999 100L22.3199 98.64L25.0499 98.1L25.3199 99.46L22.5999 100ZM26.6799 99.19L26.4099 97.83L29.1299 97.28L29.3999 98.64L26.6799 99.19ZM30.7599 98.37L30.4899 97L33.2099 96.46L33.4899 97.82L30.7599 98.37ZM34.8499 97.55L34.5799 96.19L37.2999 95.65L37.5699 97L34.8499 97.55ZM38.9299 96.74L38.6599 95.38L41.3799 94.83L41.6499 96.19L38.9299 96.74ZM42.9999 95.92L42.7299 94.56L45.4599 94L45.7399 95.37L42.9999 95.92ZM47.0999 95L46.8299 93.63L49.5499 93.09L49.8199 94.45L47.0999 95ZM51.1799 94.18L50.9099 92.82L53.6299 92.27L53.8999 93.63L51.1799 94.18Z" fill="#008B7D"/>
<path d="M4.56 104.16L0 103.2L4.56 102.2L4.7 102.74H4.83L4.76 103.15L4.83 103.56H4.7L4.56 104.16Z" fill="#008B7D"/>
<path d="M241 153L238.89 152.6L239.17 151.23L240.94 151.57L241.48 151.44L241.89 152.73L241 153ZM243.25 152.39L242.84 151.1L245.5 150.35L245.9 151.64L243.25 152.39ZM237.6 152.32L235 151.8L235.27 150.44L237.92 150.98L237.6 152.32ZM233.6 151.44L230.94 150.89L231.21 149.53L233.87 150.08L233.6 151.44ZM247.14 151.23L246.73 149.94L249.39 149.19L249.79 150.49L247.14 151.23ZM229.58 150.62L226.93 150.08L227.2 148.72L229.85 149.26L229.58 150.62ZM251.09 150.08L250.75 148.78L253.4 148.04L253.81 149.33L251.09 150.08ZM225.56 149.8L222.91 149.26L223.18 147.9L225.84 148.44L225.56 149.8ZM221.56 148.99L218.9 148.44L219.18 147.08L221.83 147.63L221.56 148.99ZM255.04 148.92L254.64 147.63L257.29 146.88L257.7 148.17L255.04 148.92ZM217.54 148.17L214.89 147.63L215.16 146.27L217.82 146.81L217.54 148.17ZM258.99 147.76L258.58 146.47L261.24 145.72L261.65 147.01L258.99 147.76ZM213.46 147.29L210.81 146.74L211.08 145.38L213.73 145.93L213.46 147.29ZM262.94 146.61L262.53 145.31L265.19 144.56L265.59 145.86L262.94 146.61ZM209.44 146.47L206.79 145.93L207.06 144.56L209.72 145.11L209.44 146.47ZM205.44 145.65L202.78 145.11L203.06 143.75L205.71 144.29L205.44 145.65ZM266.9 145.45L266.49 144.16L269.14 143.41L269.55 144.7L266.9 145.45ZM201.42 144.84L198.77 144.29L199 143L201.65 143.54L201.42 144.84ZM270.85 144.36L270.44 143.07L273.09 142.32L273.5 143.61L270.85 144.36ZM197.38 144L194.72 143.45L194.99 142.09L197.65 142.64L197.38 144ZM274.7 143.18L274.29 141.89L276.94 141.14L277.35 142.43L274.7 143.18ZM193.36 143.11L190.71 142.57L190.98 141.21L193.63 141.75L193.36 143.11ZM189.36 142.3L186.7 141.75L186.97 140.39L189.63 140.94L189.36 142.3ZM278.65 142.03L278.24 140.73L280.9 139.98L281.31 141.28L278.65 142.03ZM185.34 141.48L182.69 140.94L182.96 139.58L185.61 140.12L185.34 141.48ZM282.6 140.87L282.19 139.58L284.85 138.83L285.25 140.12L282.6 140.87ZM181.33 140.66L178.67 140.12L178.94 138.76L181.6 139.3L181.33 140.66ZM177.33 139.85L174.68 139.3L174.95 137.94L177.6 138.49L177.33 139.85ZM286.57 139.71L286.16 138.42L288.81 137.67L289.22 138.96L286.57 139.71ZM173.28 139L170.63 138.46L170.9 137.1L173.56 137.64L173.28 139ZM290.48 138.59L290.08 137.3L292.73 136.55L293.14 137.85L290.48 138.59ZM169.27 138.19L166.61 137.64L166.89 136.28L169.54 136.82L169.27 138.19ZM294.43 137.44L294.02 136.14L296.68 135.4L297.09 136.69L294.43 137.44ZM165.25 137.37L162.6 136.82L162.87 135.46L165.52 136.01L165.25 137.37ZM161.25 136.55L158.59 136.01L158.86 134.65L161.52 135.19L161.25 136.55ZM298.39 136.35L297.98 135.06L300.64 134.31L301.04 135.6L298.39 136.35ZM157.23 135.74L154.58 135.19L154.85 133.83L157.5 134.37L157.23 135.74ZM302.34 135.19L301.93 133.9L304.58 133.15L304.99 134.44L302.34 135.19ZM153.22 134.85L150.56 134.31L150.83 132.95L153.49 133.49L153.22 134.85ZM149.22 134.03L146.57 133.49L146.84 132.13L149.49 132.67L149.22 134.03ZM306.22 134.03L305.81 132.74L308.46 131.99L308.87 133.29L306.22 134.03ZM145.22 133.22L142.57 132.67L142.84 131.31L145.5 131.86L145.22 133.22ZM310.22 132.88L309.82 131.58L312.47 130.84L312.88 132.13L310.22 132.88ZM141.22 132.4L138.56 131.86L138.84 130.5L141.49 131.04L141.22 132.4ZM314.16 131.72L313.75 130.43L316.41 129.68L316.82 130.97L314.16 131.72ZM137.16 131.58L134.51 131.04L134.78 129.68L137.43 130.22L137.16 131.58ZM133.16 130.7L130.5 130.15L130.77 128.79L133.43 129.34L133.16 130.7ZM318.08 130.56L317.67 129.27L320.33 128.52L320.73 129.81L318.08 130.56ZM129.14 129.88L126.49 129.34L126.76 127.98L129.41 128.52L129.14 129.88ZM322 129.41L321.59 128.11L324.24 127.36L324.65 128.66L322 129.41ZM125.1 129.07L122.44 128.52L122.71 127.16L125.37 127.7L125.1 129.07ZM326 128.32L325.59 127.02L328.24 126.28L328.65 127.57L326 128.32ZM121.13 128.25L118.48 127.7L118.75 126.34L121.4 126.89L121.13 128.25ZM117.13 127.43L114.47 126.89L114.74 125.53L117.4 126.07L117.13 127.43ZM329.95 127.16L329.54 125.87L332.2 125.12L332.61 126.41L329.95 127.16ZM113.11 126.55L110.45 126L110.73 124.64L113.38 125.19L113.11 126.55ZM333.77 126L333.36 124.71L336 124L336.41 125.29L333.77 126ZM109 125.73L106.35 125.19L106.62 123.83L109.28 124.37L109 125.73ZM105 124.91L102.34 124.37L102.62 123.01L105.27 123.55L105 124.91ZM337.7 124.85L337.29 123.55L339.94 122.8L340.35 124.1L337.7 124.85ZM101 124.1L98.3502 123.55L98.6202 122.19L101.28 122.74L101 124.1ZM341.67 123.69L341.26 122.4L343.91 121.65L344.32 122.94L341.67 123.69ZM97.0002 123.28L94.3402 122.74L94.6202 121.38L97.2702 121.92L97.0002 123.28ZM345.62 122.53L345.22 121.24L347.87 120.49L348.28 121.78L345.62 122.53ZM93.0002 122.4L90.3502 121.85L90.6202 120.49L93.2702 121.03L93.0002 122.4ZM89.0002 121.58L86.3002 121L86.5702 119.64L89.2302 120.19L89.0002 121.58ZM349.6 121.44L349.19 120.15L351.85 119.4L352.26 120.69L349.6 121.44ZM84.9802 120.76L82.3302 120.22L82.6002 118.86L85.2502 119.4L84.9802 120.76ZM353.55 120.29L353.14 118.99L355.8 118.24L356.2 119.54L353.55 120.29ZM80.9202 120L78.2702 119.45L78.5402 118.09L81.2002 118.63L80.9202 120ZM357.46 119.18L357.05 117.89L359.7 117.14L360.11 118.43L357.46 119.18ZM76.9102 119.18L74.2502 118.63L74.5302 117.27L77.1802 117.82L76.9102 119.18ZM72.9102 118.29L70.2602 117.75L70.5302 116.39L73.1902 116.93L72.9102 118.29ZM361.4 118L361 116.71L363.65 115.96L364.06 117.25L361.4 118ZM68.8802 117.46L66.2202 116.91L66.5002 115.55L69.1502 116.1L68.8802 117.46ZM365.28 116.85L364.88 115.55L367.53 114.8L367.94 116.1L365.28 116.85ZM64.8602 116.64L62.2102 116.1L62.4802 114.74L65.1302 115.28L64.8602 116.64ZM60.8602 115.82L58.2002 115.28L58.4702 113.92L61.1302 114.46L60.8602 115.82ZM369.24 115.69L368.83 114.39L371.49 113.65L371.9 114.94L369.24 115.69ZM56.8302 115L54.1802 114.45L54.4502 113.09L57.1002 113.64L56.8302 115ZM373.18 114.52L372.77 113.23L375.42 112.48L375.83 113.77L373.18 114.52ZM52.8202 114.11L50.1602 113.57L50.4302 112.21L53.0902 112.75L52.8202 114.11ZM377.13 113.43L376.72 112.14L379.37 111.39L379.78 112.68L377.13 113.43ZM48.8002 113.28L46.1502 112.73L46.4202 111.37L49.0702 111.91L48.8002 113.28ZM44.8002 112.46L42.1502 111.91L42.4202 110.55L45.0802 111.1L44.8002 112.46ZM381.09 112.25L380.69 110.96L383.34 110.21L383.75 111.51L381.09 112.25ZM40.7902 111.64L38.1302 111.1L38.4102 109.74L41.0602 110.28L40.7902 111.64ZM385 111.1L384.59 109.8L387.25 109.06L387.66 110.35L385 111.1ZM36.7302 110.83L34.0802 110.28L34.3502 108.92L37.0102 109.46L36.7302 110.83ZM32.6502 109.94L30.0002 109.4L30.2802 108.04L32.9302 108.58L32.6502 109.94ZM28.6502 109.12L26.0002 108.58L26.2702 107.22L28.9302 107.76L28.6502 109.12ZM24.6502 108.31L22.0002 107.76L22.2802 106.4L24.9302 106.95L24.6502 108.31ZM20.6502 107.49L18.0002 107L18.2702 105.63L20.9202 106.18L20.6502 107.49ZM16.6502 106.67L14.0002 106.13L14.2702 104.77L16.9302 105.31L16.6502 106.67ZM12.6502 105.79L10.0002 105.24L10.2702 103.88L12.9202 104.43L12.6502 105.79ZM8.65023 104.97L5.99023 104.43L6.26023 103.07L8.92023 103.61L8.65023 104.97Z" fill="#008B7D"/>
<path d="M389.87 108.31L388.56 108.69L388.94 109.99L390.25 109.61L389.87 108.31Z" fill="#008B7D"/>
<path d="M396.73 91.5601L396.5 92.9001L397.85 93.1201L398.07 91.7801L396.73 91.5601Z" fill="#008B7D"/>
<path d="M395.16 92.7201L392.51 92.3101L392.71 90.9501L395.37 91.3601L395.16 92.7201ZM391.16 92.0401L388.51 91.6301L388.72 90.2701L391.37 90.6801L391.16 92.0401ZM387.22 91.4301L384.61 91.0001L384.82 89.6401L387.47 90.0501L387.22 91.4301ZM383.27 90.7501L380.62 90.3401L380.82 88.9801L383.47 89.3901L383.27 90.7501ZM379.32 90.1301L376.67 89.7301L376.87 88.3701L379.53 88.7701L379.32 90.1301Z" fill="#008B7D"/>
<path d="M374.31 87.8501L374.09 89.1901L375.43 89.4101L375.65 88.0701L374.31 87.8501Z" fill="#008B7D"/>
<path d="M131.6 75.5L130.27 75.78L130.55 77.11L131.88 76.84L131.6 75.5Z" fill="#008B7D"/>
<path d="M133 76.5901L132.73 75.2301L134.97 74.7501L135.25 76.1201L133 76.5901ZM136.34 75.9101L136.06 74.5501L138.31 74.0701L138.58 75.4301L136.34 75.9101ZM139.74 75.1601L139.47 73.8001L141.71 73.3201L141.99 74.6901L139.74 75.1601Z" fill="#008B7D"/>
<path d="M144.12 72.8501L142.78 73.1301L143.06 74.4601L144.39 74.1901L144.12 72.8501Z" fill="#008B7D"/>
<path d="M343.85 121.74L343.61 123.08L344.95 123.32L345.19 121.98L343.85 121.74Z" fill="#008B7D"/>
<path d="M377.6 129.2L374.88 128.73L375.15 127.37L377.88 127.84L377.6 129.2ZM373.52 128.45L370.8 128L371.07 126.64L373.79 127.11L373.52 128.45ZM369.44 127.71L366.71 127.23L366.98 125.87L369.71 126.34L369.44 127.71ZM365.35 126.96L362.63 126.48L362.9 125.12L365.62 125.6L365.35 126.96ZM361.27 126.28L358.55 125.8L358.82 124.44L361.54 124.92L361.27 126.28ZM357.18 125.53L354.46 125.05L354.73 123.69L357.46 124.17L357.18 125.53ZM353.1 124.78L350.38 124.3L350.65 122.94L353.37 123.42L353.1 124.78ZM349 124L346.28 123.52L346.55 122.16L349.27 122.64L349 124Z" fill="#008B7D"/>
<path d="M379.2 128L378.96 129.34L380.3 129.58L380.54 128.24L379.2 128Z" fill="#008B7D"/>
<path d="M821.22 392.19H821.09L466.83 299.76L486.5 290.24L486.77 290.85L468.77 299.56L821.06 391.44L827.46 386L827.87 386.47L821.22 392.19Z" fill="#008B7D"/>
<path d="M663.26 350.88L662.91 350.33L670.33 345.33L670.74 345.87L663.26 350.88Z" fill="#008B7D"/>
<path d="M538.91 311.83L531.22 315.91L531.54 316.51L539.23 312.43L538.91 311.83Z" fill="#008B7D"/>
<path d="M591.66 167L591.54 167.67L695.7 186.45L695.82 185.78L591.66 167Z" fill="#008B7D"/>
<path d="M35.7202 23.6299V5.42993H40.5402V12.2099H40.6502L45.2402 5.42993H50.5102L45.0802 12.8199L51.5702 23.6299H46.3102L42.3102 16.6299L40.5402 19.0999V23.6299H35.7202Z" fill="#008B7D"/>
<path d="M52.9199 23.63V9.63003H56.8399L57.1699 12H57.2799C57.725 11.1866 58.3682 10.4987 59.1499 10C59.7802 9.59357 60.5102 9.36866 61.2599 9.35003C61.5946 9.345 61.9292 9.36842 62.2599 9.42003C62.5023 9.45522 62.7382 9.52598 62.9599 9.63003L62.1699 13.77L61.4299 13.62C61.1564 13.5679 60.8783 13.5444 60.5999 13.55C60.0358 13.568 59.4881 13.7448 59.0199 14.06C58.3913 14.5154 57.9251 15.1603 57.6899 15.9V23.68L52.9199 23.63Z" fill="#008B7D"/>
<path d="M66.9999 7.89993C66.2933 7.9279 65.6028 7.68462 65.0699 7.21992C64.8215 7.00705 64.6243 6.74102 64.4927 6.44155C64.3611 6.14207 64.2987 5.81683 64.3099 5.48992C64.2993 5.16165 64.362 4.83514 64.4935 4.53415C64.625 4.23316 64.8219 3.96525 65.0699 3.74993C65.6192 3.31516 66.2993 3.07861 66.9999 3.07861C67.7005 3.07861 68.3805 3.31516 68.9299 3.74993C69.1763 3.9666 69.372 4.23475 69.5034 4.53542C69.6347 4.83609 69.6984 5.16193 69.6899 5.48992C69.7077 5.81113 69.6552 6.13235 69.536 6.43116C69.4169 6.72997 69.2339 6.99916 68.9999 7.21992C68.4481 7.69997 67.7299 7.94416 66.9999 7.89993V7.89993ZM64.6199 23.6299V9.62993H69.4399V23.6299H64.6199Z" fill="#008B7D"/>
<path d="M78.4502 24C77.6508 24.0185 76.8557 23.8792 76.1102 23.59C75.4949 23.3364 74.9495 22.9386 74.5202 22.43C74.0859 21.8991 73.769 21.2822 73.5902 20.62C73.3911 19.8595 73.2935 19.0761 73.3002 18.29V13.38H71.4502V9.8L73.5802 9.63L74.1402 6H78.1402V9.63H81.3302V13.38H78.1202V18.17C78.0813 18.4586 78.1059 18.7522 78.1923 19.0303C78.2786 19.3083 78.4247 19.5642 78.6202 19.78C78.9458 20.0672 79.3661 20.2239 79.8002 20.22C80.0186 20.217 80.2362 20.1936 80.4502 20.15C80.6361 20.11 80.8197 20.0599 81.0002 20L81.7302 23.47C81.2862 23.6059 80.8356 23.7193 80.3802 23.81C79.7449 23.938 79.0983 24.0017 78.4502 24V24Z" fill="#008B7D"/>
<path d="M86.29 7.89993C85.5837 7.92588 84.894 7.68285 84.36 7.21992C84.1133 7.00568 83.9172 6.73939 83.7858 6.44025C83.6543 6.1411 83.5909 5.81654 83.6 5.48992C83.5915 5.16193 83.6552 4.83609 83.7865 4.53542C83.9178 4.23475 84.1136 3.9666 84.36 3.74993C84.9093 3.31516 85.5894 3.07861 86.29 3.07861C86.9906 3.07861 87.6706 3.31516 88.22 3.74993C88.4716 3.96333 88.6723 4.23038 88.8073 4.53147C88.9423 4.83257 89.0081 5.16006 89 5.48992C89.0112 5.81683 88.9487 6.14207 88.8172 6.44155C88.6856 6.74102 88.4883 7.00705 88.24 7.21992C87.7019 7.68948 87.0033 7.93309 86.29 7.89993V7.89993ZM83.88 23.6299V9.62993H88.7V23.6299H83.88Z" fill="#008B7D"/>
<path d="M92 23.6299V4.13989H96.7V14.4999H96.81L100.68 9.62989H105.89L100.89 15.4599L106.16 23.6299H100.95L98.15 18.6299L96.69 20.2499V23.6099L92 23.6299Z" fill="#008B7D"/>
<path d="M111.55 24.0001C110.861 24.0203 110.176 23.8799 109.55 23.5901C109.009 23.329 108.544 22.933 108.2 22.4401C107.821 21.9013 107.553 21.293 107.41 20.6501C107.234 19.8761 107.15 19.0839 107.16 18.2901V9.63009H112V17.6301C111.939 18.2459 112.054 18.8663 112.33 19.4201C112.459 19.576 112.623 19.6984 112.81 19.7768C112.996 19.8552 113.199 19.8872 113.4 19.8701C113.786 19.8849 114.168 19.7877 114.5 19.5901C114.863 19.3167 115.172 18.9775 115.41 18.5901V9.59009H120.23V23.5901H116.31L116 21.7801H115.89C115.372 22.4221 114.742 22.9643 114.03 23.3801C113.273 23.8044 112.417 24.0184 111.55 24.0001V24.0001Z" fill="#008B7D"/>
<path d="M127.79 24.0001C125.812 23.9362 123.907 23.2347 122.36 22.0001L124.48 19.0001C125.444 19.8149 126.641 20.3048 127.9 20.4001C128.272 20.4278 128.645 20.3553 128.98 20.1901C129.084 20.1221 129.168 20.0282 129.224 19.9177C129.28 19.8072 129.306 19.6839 129.3 19.5601C129.301 19.4673 129.282 19.3755 129.244 19.2909C129.206 19.2063 129.15 19.1309 129.08 19.0701C128.898 18.9085 128.693 18.7769 128.47 18.6801C128.194 18.5468 127.91 18.43 127.62 18.3301C127.3 18.2201 126.97 18.0901 126.62 17.9401C126.194 17.7631 125.78 17.5594 125.38 17.3301C124.961 17.1025 124.577 16.8163 124.24 16.4801C123.905 16.1409 123.628 15.749 123.42 15.3201C123.192 14.8429 123.079 14.3189 123.09 13.7901C123.082 13.1436 123.222 12.504 123.5 11.9201C123.766 11.3656 124.152 10.8771 124.63 10.4901C125.151 10.0795 125.745 9.77078 126.38 9.58006C127.112 9.357 127.875 9.24904 128.64 9.26006C129.669 9.23022 130.693 9.42472 131.64 9.83006C132.406 10.1762 133.133 10.6019 133.81 11.1001L131.65 14.0001C131.19 13.6558 130.694 13.364 130.17 13.1301C129.738 12.9388 129.272 12.8335 128.8 12.8201C127.97 12.8201 127.56 13.0901 127.56 13.6101C127.559 13.6989 127.578 13.7868 127.614 13.8679C127.65 13.949 127.703 14.0213 127.77 14.0801C127.943 14.2327 128.139 14.3575 128.35 14.4501C128.623 14.5744 128.903 14.6812 129.19 14.7701C129.51 14.8701 129.84 14.9901 130.19 15.1201C130.621 15.281 131.042 15.468 131.45 15.6801C131.874 15.8999 132.265 16.1794 132.61 16.5101C132.96 16.8444 133.245 17.2412 133.45 17.6801C133.673 18.1975 133.782 18.7568 133.77 19.3201C133.774 19.9511 133.641 20.5755 133.38 21.1501C133.113 21.7264 132.72 22.2356 132.23 22.6401C131.675 23.0931 131.036 23.4329 130.35 23.6401C129.519 23.8872 128.656 24.0085 127.79 24.0001Z" fill="#008B7D"/>
<path d="M141.73 23.6299V9.62994H145.65L146 11.9999H146.11C146.557 11.1815 147.208 10.4926 148 9.99994C148.634 9.59453 149.367 9.36981 150.12 9.34994C150.455 9.34432 150.789 9.36774 151.12 9.41994C151.363 9.45364 151.599 9.52447 151.82 9.62994L151 13.7199L150.26 13.5699C149.986 13.5183 149.708 13.4949 149.43 13.4999C148.866 13.5179 148.318 13.6947 147.85 14.0099C147.218 14.4622 146.751 15.1082 146.52 15.8499V23.6299H141.73Z" fill="#008B7D"/>
<path d="M159.65 23.9999C158.679 24.0059 157.714 23.84 156.8 23.5099C155.946 23.198 155.166 22.7109 154.51 22.0799C153.85 21.4128 153.336 20.616 153 19.7399C152.609 18.7508 152.418 17.6935 152.44 16.6299C152.423 15.582 152.617 14.5413 153.01 13.5699C153.361 12.7101 153.873 11.9258 154.52 11.2599C155.131 10.6337 155.863 10.1371 156.67 9.79993C158.329 9.11324 160.192 9.11324 161.85 9.79993C162.586 10.132 163.236 10.628 163.75 11.2499C164.263 11.8903 164.646 12.6238 164.88 13.4099C165.141 14.2619 165.269 15.1489 165.26 16.0399C165.263 16.4444 165.24 16.8486 165.19 17.2499C165.19 17.6199 165.1 17.8899 165.07 18.0599H157.07C157.139 18.4184 157.282 18.7587 157.488 19.0598C157.695 19.3608 157.961 19.6162 158.27 19.8099C158.885 20.1383 159.573 20.3068 160.27 20.2999C160.751 20.301 161.23 20.2303 161.69 20.0899C162.191 19.9321 162.674 19.7209 163.13 19.4599L164.7 22.3099C163.929 22.8586 163.07 23.2712 162.16 23.5299C161.35 23.8034 160.505 23.9616 159.65 23.9999V23.9999ZM157 14.9999H161.14C161.153 14.5002 161.014 14.0084 160.74 13.5899C160.561 13.3719 160.329 13.2027 160.067 13.0978C159.805 12.9929 159.52 12.9558 159.24 12.9899C158.73 12.9766 158.231 13.1429 157.83 13.4599C157.378 13.8577 157.084 14.404 157 14.9999V14.9999Z" fill="#008B7D"/>
<path d="M167.88 23.63V9.63003H171.8L172.14 11.31H172.25C172.826 10.7584 173.471 10.2844 174.17 9.90003C174.941 9.48688 175.805 9.28018 176.68 9.30003C177.32 9.24792 177.963 9.36344 178.545 9.63522C179.127 9.907 179.629 10.3257 180 10.85C180.733 12.1053 181.081 13.5486 181 15V23.62H176.19V15.62C176.252 15.003 176.134 14.3811 175.85 13.83C175.723 13.6742 175.561 13.5518 175.376 13.4733C175.191 13.3949 174.99 13.3629 174.79 13.38C174.398 13.369 174.011 13.4659 173.67 13.66C173.314 13.8936 172.979 14.1579 172.67 14.45V23.63H167.88Z" fill="#008B7D"/>
<path d="M189.28 23.9999C188.461 24.0135 187.651 23.839 186.91 23.4899C186.203 23.144 185.589 22.6329 185.12 21.9999C184.609 21.3085 184.229 20.5288 184 19.6999C183.716 18.7017 183.578 17.6676 183.59 16.6299C183.579 15.583 183.745 14.5417 184.08 13.5499C184.371 12.71 184.807 11.928 185.37 11.2399C185.876 10.6369 186.503 10.1464 187.21 9.79989C187.862 9.4722 188.581 9.301 189.31 9.29989C189.954 9.27345 190.595 9.40027 191.18 9.66989C191.684 9.93329 192.146 10.2703 192.55 10.6699L192.38 8.66989V4.13989H197.2V23.6299H193.28L192.95 22.3399H192.83C192.349 22.8265 191.788 23.2258 191.17 23.5199C190.585 23.8225 189.939 23.9867 189.28 23.9999V23.9999ZM190.56 20.0799C190.905 20.0913 191.248 20.0192 191.56 19.8699C191.894 19.6767 192.173 19.4013 192.37 19.0699V13.8899C192.114 13.6373 191.797 13.4548 191.45 13.3599C191.126 13.2631 190.789 13.2159 190.45 13.2199C190.181 13.231 189.918 13.3046 189.682 13.4347C189.446 13.5649 189.243 13.7481 189.09 13.9699C188.617 14.7538 188.407 15.6682 188.49 16.5799C188.41 17.5077 188.601 18.4388 189.04 19.2599C189.203 19.5122 189.429 19.7177 189.695 19.8562C189.962 19.9948 190.26 20.0615 190.56 20.0499V20.0799Z" fill="#008B7D"/>
<path d="M204.73 24.0001C202.752 23.9362 200.847 23.2347 199.3 22.0001L201.43 19.0001C202.391 19.813 203.584 20.3028 204.84 20.4001C205.212 20.4324 205.587 20.3597 205.92 20.1901C206.025 20.1236 206.11 20.03 206.167 19.9191C206.223 19.8082 206.248 19.6842 206.24 19.5601C206.241 19.4673 206.222 19.3755 206.184 19.2909C206.146 19.2063 206.09 19.1309 206.02 19.0701C205.841 18.9107 205.638 18.7792 205.42 18.6801C205.14 18.5468 204.853 18.43 204.56 18.3301C204.25 18.2201 203.91 18.0901 203.56 17.9401C203.134 17.7631 202.72 17.5594 202.32 17.3301C201.901 17.1025 201.517 16.8163 201.18 16.4801C200.845 16.1409 200.568 15.749 200.36 15.3201C200.135 14.8421 200.025 14.3181 200.04 13.7901C200.029 13.1444 200.166 12.5048 200.44 11.9201C200.706 11.3629 201.096 10.8738 201.58 10.4901C202.1 10.0776 202.694 9.76874 203.33 9.58006C204.058 9.35626 204.818 9.24828 205.58 9.26006C206.609 9.23022 207.633 9.42472 208.58 9.83006C209.347 10.1743 210.074 10.6001 210.75 11.1001L208.59 14.0001C208.132 13.6537 207.635 13.3617 207.11 13.1301C206.678 12.9378 206.212 12.8324 205.74 12.8201C204.92 12.8201 204.51 13.0901 204.51 13.6101C204.509 13.6989 204.527 13.7868 204.564 13.8679C204.6 13.949 204.653 14.0213 204.72 14.0801C204.889 14.2327 205.081 14.3576 205.29 14.4501C205.563 14.5744 205.843 14.6812 206.13 14.7701C206.45 14.8701 206.78 14.9901 207.13 15.1201C207.561 15.281 207.982 15.468 208.39 15.6801C208.816 15.8975 209.207 16.1773 209.55 16.5101C209.906 16.8391 210.192 17.2372 210.39 17.6801C210.617 18.196 210.727 18.7564 210.71 19.3201C210.714 19.9511 210.581 20.5755 210.32 21.1501C210.056 21.7286 209.663 22.2385 209.17 22.6401C208.617 23.0909 207.982 23.4305 207.3 23.6401C206.466 23.8864 205.6 24.0077 204.73 24.0001V24.0001Z" fill="#008B7D"/>
<path d="M212.57 23.6299V21.0599L217.89 13.3799H213.19V9.62988H223.88V12.2099L218.56 19.8799H224.05V23.6299H212.57Z" fill="#008B7D"/>
<path d="M232.56 24C231.589 24.0059 230.624 23.84 229.71 23.51C228.855 23.198 228.075 22.7109 227.42 22.08C226.76 21.4226 226.243 20.6362 225.9 19.77C225.514 18.7793 225.323 17.7231 225.34 16.66C225.322 15.612 225.516 14.5713 225.91 13.6C226.264 12.7421 226.776 11.9585 227.42 11.29C228.031 10.6637 228.762 10.1672 229.57 9.82996C231.228 9.14327 233.092 9.14327 234.75 9.82996C235.486 10.162 236.136 10.658 236.65 11.28C237.162 11.9204 237.546 12.6538 237.78 13.44C238.041 14.2919 238.169 15.179 238.16 16.07C238.163 16.4744 238.14 16.8786 238.09 17.28C238.09 17.65 238 17.92 237.97 18.09H229.97C230.039 18.4484 230.181 18.7887 230.388 19.0898C230.594 19.3909 230.861 19.6462 231.17 19.84C231.785 20.1683 232.473 20.3368 233.17 20.33C233.651 20.3311 234.13 20.2603 234.59 20.12C235.091 19.9621 235.574 19.7509 236.03 19.49L237.6 22.34C236.829 22.8886 235.97 23.3012 235.06 23.56C234.251 23.8223 233.41 23.9704 232.56 24V24ZM229.93 15H234.07C234.083 14.5002 233.943 14.0084 233.67 13.59C233.491 13.3719 233.259 13.2027 232.997 13.0978C232.735 12.9929 232.45 12.9559 232.17 12.99C231.659 12.9766 231.16 13.143 230.76 13.46C230.312 13.8604 230.018 14.4054 229.93 15V15Z" fill="#008B7D"/>
<path d="M240.79 23.63V9.63005H244.71L245.05 12.04H245.16C245.591 11.2151 246.224 10.5131 247 10C247.634 9.59464 248.367 9.36991 249.12 9.35005C249.455 9.34402 249.789 9.36744 250.12 9.42005C250.363 9.45229 250.599 9.52319 250.82 9.63005L250.04 13.77L249.3 13.62C249.026 13.5685 248.748 13.545 248.47 13.55C247.906 13.568 247.358 13.7448 246.89 14.06C246.261 14.5154 245.795 15.1603 245.56 15.9V23.68L240.79 23.63Z" fill="#008B7D"/>
<path d="M258.71 24C257.738 24.0051 256.774 23.8392 255.86 23.51C255.007 23.2003 254.23 22.7128 253.58 22.08C252.914 21.4257 252.392 20.6387 252.05 19.77C251.664 18.7793 251.473 17.7231 251.49 16.66C251.472 15.612 251.666 14.5713 252.06 13.6C252.414 12.7396 252.93 11.9553 253.58 11.29C254.187 10.664 254.915 10.1674 255.72 9.82996C257.378 9.14327 259.241 9.14327 260.9 9.82996C261.636 10.162 262.285 10.658 262.8 11.28C263.315 11.9198 263.703 12.6533 263.94 13.44C264.193 14.2935 264.317 15.1798 264.31 16.07C264.313 16.4744 264.29 16.8786 264.24 17.28C264.215 17.552 264.175 17.8224 264.12 18.09H256.12C256.189 18.4484 256.331 18.7887 256.538 19.0898C256.744 19.3909 257.01 19.6462 257.32 19.84C257.95 20.1761 258.656 20.3449 259.37 20.33C259.848 20.3302 260.323 20.2595 260.78 20.12C261.281 19.9621 261.764 19.7509 262.22 19.49L263.79 22.34C263.021 22.8866 262.166 23.2991 261.26 23.56C260.435 23.8254 259.576 23.9735 258.71 24V24ZM256.08 15H260.23C260.24 14.4992 260.097 14.0073 259.82 13.59C259.64 13.3719 259.409 13.2027 259.147 13.0978C258.885 12.9929 258.6 12.9559 258.32 12.99C257.809 12.9766 257.31 13.143 256.91 13.46C256.462 13.8604 256.168 14.4054 256.08 15V15Z" fill="#008B7D"/>
<path d="M267 23.6299V4.13989H271.7V14.4999H271.81L275.68 9.62989H280.88L275.88 15.4599L281.14 23.6299H275.94L273.14 18.6299L271.68 20.2499V23.6099L267 23.6299Z" fill="#008B7D"/>
<path d="M292.76 24.0001C290.782 23.9362 288.877 23.2347 287.33 22.0001L289.46 19.0001C290.422 19.813 291.615 20.3028 292.87 20.4001C293.243 20.4324 293.617 20.3597 293.95 20.1901C294.055 20.1236 294.141 20.03 294.197 19.9191C294.253 19.8082 294.278 19.6842 294.27 19.5601C294.271 19.4673 294.252 19.3755 294.214 19.2909C294.176 19.2063 294.12 19.1309 294.05 19.0701C293.871 18.9107 293.669 18.7792 293.45 18.6801C293.17 18.5468 292.883 18.43 292.59 18.3301C292.28 18.2201 291.94 18.0901 291.59 17.9401C291.16 17.7652 290.742 17.5614 290.34 17.3301C289.923 17.1051 289.542 16.8185 289.21 16.4801C288.869 16.1439 288.588 15.7515 288.38 15.3201C288.16 14.8406 288.05 14.3176 288.06 13.7901C288.049 13.1444 288.186 12.5048 288.46 11.9201C288.726 11.3629 289.116 10.8738 289.6 10.4901C290.12 10.0776 290.714 9.76874 291.35 9.58006C292.079 9.35626 292.838 9.24828 293.6 9.26006C294.63 9.23022 295.653 9.42472 296.6 9.83006C297.367 10.1743 298.094 10.6001 298.77 11.1001L296.63 14.0001C296.167 13.6556 295.668 13.3638 295.14 13.1301C294.708 12.9378 294.243 12.8324 293.77 12.8201C292.95 12.8201 292.54 13.0901 292.54 13.6101C292.539 13.6989 292.558 13.7868 292.594 13.8679C292.63 13.949 292.683 14.0213 292.75 14.0801C292.919 14.2327 293.112 14.3576 293.32 14.4501C293.593 14.5744 293.874 14.6812 294.16 14.7701C294.48 14.8701 294.81 14.9901 295.16 15.1201C295.591 15.281 296.012 15.468 296.42 15.6801C296.846 15.8975 297.237 16.1773 297.58 16.5101C297.936 16.8391 298.222 17.2372 298.42 17.6801C298.648 18.196 298.757 18.7564 298.74 19.3201C298.744 19.9511 298.611 20.5755 298.35 21.1501C298.087 21.7286 297.693 22.2385 297.2 22.6401C296.647 23.0909 296.012 23.4305 295.33 23.6401C294.496 23.8864 293.63 24.0077 292.76 24.0001Z" fill="#008B7D"/>
<path d="M300.6 23.6299V21.0599L305.92 13.3799H301.22V9.62988H311.91V12.2099L306.59 19.8799H312.08V23.6299H300.6Z" fill="#008B7D"/>
<path d="M320.59 23.9999C319.619 24.0059 318.654 23.84 317.74 23.5099C316.887 23.2003 316.11 22.7128 315.46 22.0799C314.794 21.4257 314.273 20.6387 313.93 19.7699C313.544 18.7793 313.354 17.7231 313.37 16.6599C313.353 15.612 313.547 14.5713 313.94 13.5999C314.294 12.7395 314.81 11.9553 315.46 11.2899C316.063 10.651 316.792 10.1437 317.6 9.79993C319.259 9.11324 321.122 9.11324 322.78 9.79993C323.516 10.132 324.166 10.628 324.68 11.2499C325.196 11.8898 325.583 12.6232 325.82 13.4099C326.073 14.2635 326.198 15.1498 326.19 16.0399C326.193 16.4444 326.17 16.8486 326.12 17.2499C326.12 17.6199 326.03 17.8899 326 18.0599H318C318.069 18.4184 318.212 18.7587 318.418 19.0598C318.625 19.3608 318.891 19.6162 319.2 19.8099C319.815 20.1379 320.503 20.3064 321.2 20.2999C321.678 20.3002 322.153 20.2294 322.61 20.0899C323.111 19.9321 323.594 19.7209 324.05 19.4599L325.62 22.3099C324.852 22.8565 323.996 23.269 323.09 23.5299C322.283 23.801 321.441 23.9591 320.59 23.9999ZM318 14.9999H322.15C322.16 14.4992 322.017 14.0072 321.74 13.5899C321.561 13.3719 321.329 13.2027 321.067 13.0978C320.805 12.9929 320.521 12.9558 320.24 12.9899C319.73 12.9766 319.231 13.1429 318.83 13.4599C318.382 13.8604 318.088 14.4053 318 14.9999Z" fill="#008B7D"/>
<path d="M328.83 28.56V9.63001H332.75L333.08 10.92H333.19C333.725 10.4299 334.336 10.0312 335 9.74001C335.629 9.45693 336.31 9.30712 337 9.30001C337.773 9.27824 338.539 9.44216 339.235 9.77799C339.931 10.1138 340.536 10.6118 341 11.23C341.506 11.9001 341.879 12.6603 342.1 13.47C342.359 14.4282 342.483 15.4176 342.47 16.41C342.49 17.5033 342.324 18.5921 341.98 19.63C341.696 20.4902 341.256 21.2904 340.68 21.99C340.176 22.6115 339.541 23.1136 338.82 23.46C338.146 23.7945 337.403 23.969 336.65 23.97C336.059 23.9611 335.476 23.8324 334.937 23.5918C334.397 23.3511 333.912 23.0035 333.51 22.57L333.68 24.7V28.56H328.83ZM335.43 20.05C335.719 20.0444 336.002 19.9697 336.256 19.8323C336.51 19.6948 336.727 19.4986 336.89 19.26C337.385 18.4146 337.602 17.4352 337.51 16.46C337.559 15.6095 337.383 14.7611 337 14C336.842 13.757 336.624 13.5597 336.366 13.428C336.108 13.2964 335.819 13.235 335.53 13.25C335.184 13.2413 334.841 13.3168 334.53 13.47C334.181 13.6712 333.872 13.9357 333.62 14.25V19.41C333.868 19.6477 334.165 19.8285 334.49 19.94C334.796 20.0229 335.113 20.06 335.43 20.05V20.05Z" fill="#008B7D"/>
<path d="M348.43 23.9999C347.822 24.0088 347.219 23.8896 346.66 23.6499C346.161 23.4248 345.709 23.1057 345.33 22.7099C344.965 22.315 344.686 21.8485 344.51 21.3399C344.321 20.8105 344.226 20.252 344.23 19.6899C344.201 19.0094 344.349 18.3329 344.659 17.7265C344.969 17.1201 345.431 16.6044 346 16.2299C347.779 15.2165 349.775 14.6439 351.82 14.5599C351.71 13.5599 351.06 13.0999 349.82 13.0999C349.277 13.1078 348.739 13.2093 348.23 13.3999C347.561 13.6414 346.913 13.9357 346.29 14.2799L344.61 11.1399C345.554 10.5692 346.561 10.1095 347.61 9.7699C348.633 9.4511 349.699 9.29256 350.77 9.2999C351.55 9.25414 352.331 9.368 353.065 9.63452C353.799 9.90104 354.471 10.3146 355.04 10.8499C356.04 11.8499 356.6 13.5499 356.6 15.8499V23.6299H352.68L352.34 22.2899H352.23C351.695 22.7757 351.096 23.1861 350.45 23.5099C349.821 23.8207 349.131 23.988 348.43 23.9999V23.9999ZM350.1 20.2999C350.453 20.3204 350.802 20.2295 351.1 20.0399C351.379 19.8358 351.637 19.6047 351.87 19.3499V17.4499C351.029 17.5073 350.213 17.7644 349.49 18.1999C349.306 18.3193 349.152 18.4799 349.041 18.6692C348.93 18.8584 348.865 19.0709 348.85 19.2899C348.82 19.9399 349.25 20.2699 350.1 20.2699V20.2999Z" fill="#008B7D"/>
<path d="M359.79 23.63V9.63005H363.71L364.05 12.04H364.16C364.588 11.2131 365.221 10.5104 366 10C366.634 9.59464 367.367 9.36991 368.12 9.35005C368.455 9.34402 368.789 9.36744 369.12 9.42005C369.363 9.45375 369.599 9.52457 369.82 9.63005L369.04 13.77L368.3 13.62C368.026 13.5685 367.748 13.545 367.47 13.55C366.906 13.568 366.358 13.7448 365.89 14.06C365.258 14.5123 364.791 15.1583 364.56 15.9V23.68L359.79 23.63Z" fill="#008B7D"/>
<path d="M374.3 24C373.692 24.0077 373.089 23.8885 372.53 23.65C372.031 23.4249 371.579 23.1058 371.2 22.71C370.835 22.3151 370.556 21.8486 370.38 21.34C370.191 20.8106 370.096 20.2521 370.1 19.69C370.078 19.0126 370.232 18.341 370.545 17.7402C370.859 17.1393 371.322 16.6295 371.89 16.26C373.67 15.2481 375.665 14.6755 377.71 14.59C377.6 13.59 376.95 13.13 375.71 13.13C375.167 13.1379 374.629 13.2394 374.12 13.43C373.454 13.6699 372.808 13.9642 372.19 14.31L370.51 11.17C371.453 10.5967 372.46 10.1369 373.51 9.8C374.536 9.4805 375.606 9.32195 376.68 9.33C377.466 9.27451 378.255 9.38077 378.998 9.64221C379.741 9.90365 380.422 10.3147 381 10.85C382 11.85 382.55 13.55 382.55 15.85V23.63H378.63L378.29 22.29H378.18C377.645 22.7758 377.046 23.1862 376.4 23.51C375.747 23.8325 375.029 24.0002 374.3 24V24ZM375.98 20.3C376.333 20.3212 376.683 20.2302 376.98 20.04C377.261 19.8385 377.519 19.6071 377.75 19.35V17.45C376.909 17.5093 376.093 17.7662 375.37 18.2C375.186 18.3194 375.032 18.48 374.921 18.6693C374.81 18.8585 374.745 19.071 374.73 19.29C374.69 19.94 375.12 20.27 376 20.27L375.98 20.3ZM377.46 7.65L375.11 5.29L379.53 0L382.78 3.19L377.46 7.65Z" fill="#008B7D"/>
<path d="M392 24C391.055 24.0044 390.117 23.8384 389.23 23.51C388.393 23.185 387.633 22.6876 387 22.05C386.35 21.3888 385.84 20.6031 385.5 19.74C385.126 18.7467 384.942 17.6915 384.96 16.63C384.941 15.5619 385.149 14.5018 385.57 13.52C385.955 12.6421 386.521 11.855 387.23 11.21C387.924 10.5817 388.737 10.0988 389.62 9.79004C390.53 9.46012 391.492 9.29422 392.46 9.30004C393.235 9.28829 394.004 9.42053 394.73 9.69004C395.391 9.94175 396.005 10.2998 396.55 10.75L394.31 13.83C394.063 13.6116 393.783 13.4328 393.48 13.3C393.245 13.2069 392.994 13.1594 392.74 13.16C392.341 13.1404 391.943 13.2153 391.578 13.3786C391.213 13.542 390.892 13.7891 390.64 14.1C390.106 14.8317 389.841 15.7255 389.89 16.63C389.838 17.5412 390.111 18.4414 390.66 19.17C390.885 19.4624 391.174 19.6986 391.506 19.86C391.837 20.0214 392.202 20.1035 392.57 20.1C392.97 20.0999 393.366 20.0147 393.73 19.85C394.116 19.6841 394.479 19.469 394.81 19.21L396.66 22.34C395.995 22.933 395.206 23.3702 394.35 23.62C393.588 23.8526 392.797 23.9804 392 24V24Z" fill="#008B7D"/>
<path d="M401.29 7.89993C400.583 7.9279 399.893 7.68462 399.36 7.21992C399.112 7.00705 398.914 6.74102 398.783 6.44155C398.651 6.14207 398.589 5.81683 398.6 5.48992C398.589 5.16165 398.652 4.83514 398.784 4.53415C398.915 4.23316 399.112 3.96525 399.36 3.74993C399.909 3.31516 400.589 3.07861 401.29 3.07861C401.991 3.07861 402.671 3.31516 403.22 3.74993C403.47 3.9647 403.669 4.23201 403.804 4.53278C403.939 4.83355 404.006 5.16037 404 5.48992C404.009 5.81654 403.946 6.1411 403.814 6.44025C403.683 6.73939 403.487 7.00568 403.24 7.21992C402.701 7.68767 402.003 7.93102 401.29 7.89993V7.89993ZM398.88 23.6299V9.62993H403.7V23.6299H398.88Z" fill="#008B7D"/>
<path d="M413.16 24C412.271 23.998 411.389 23.8319 410.56 23.51C409.727 23.1899 408.968 22.7034 408.33 22.08C407.668 21.4205 407.144 20.6351 406.79 19.77C406.395 18.7816 406.201 17.7243 406.22 16.66C406.203 15.5959 406.397 14.5389 406.79 13.55C407.144 12.6849 407.668 11.8995 408.33 11.24C408.969 10.6196 409.728 10.1363 410.56 9.82C411.388 9.49288 412.27 9.32657 413.16 9.33C414.047 9.32613 414.926 9.49247 415.75 9.82C416.587 10.1253 417.352 10.5983 418 11.21C418.666 11.8707 419.196 12.6555 419.56 13.52C419.962 14.5067 420.159 15.5648 420.14 16.63C420.16 17.6953 419.963 18.7535 419.56 19.74C419.196 20.6045 418.666 21.3893 418 22.05C417.367 22.6709 416.616 23.1573 415.79 23.48C414.954 23.8181 414.062 23.9945 413.16 24ZM413.16 20.13C413.482 20.1507 413.803 20.0728 414.08 19.9067C414.357 19.7406 414.577 19.4941 414.71 19.2C415.056 18.3996 415.217 17.5313 415.18 16.66C415.217 15.792 415.056 14.9269 414.71 14.13C414.562 13.8472 414.339 13.6103 414.066 13.445C413.793 13.2798 413.479 13.1924 413.16 13.1924C412.841 13.1924 412.527 13.2798 412.254 13.445C411.981 13.6103 411.758 13.8472 411.61 14.13C411.264 14.9269 411.103 15.792 411.14 16.66C411.103 17.5313 411.264 18.3996 411.61 19.2C411.748 19.4885 411.97 19.7287 412.246 19.8892C412.523 20.0498 412.841 20.1232 413.16 20.1V20.13ZM413.72 7.65L411.37 5.29L415.79 0L419 3.19L413.72 7.65Z" fill="#008B7D"/>
<path d="M422.06 28.8999C421.538 28.9105 421.015 28.8703 420.5 28.7799C420.136 28.7201 419.777 28.6263 419.43 28.4999L420.27 24.9799L420.8 25.0999C420.96 25.1156 421.121 25.1156 421.28 25.0999C421.484 25.1193 421.69 25.0874 421.879 25.0071C422.067 24.9267 422.233 24.8005 422.36 24.6399C422.614 24.1434 422.725 23.5859 422.68 23.0299V9.62993H427.5V22.8999C427.502 23.6608 427.414 24.4193 427.24 25.1599C427.087 25.8553 426.787 26.5099 426.36 27.0799C425.919 27.6552 425.341 28.1122 424.68 28.4099C423.852 28.7588 422.959 28.9259 422.06 28.8999V28.8999ZM425.06 7.89993C424.354 7.9279 423.663 7.68462 423.13 7.21992C422.882 7.00705 422.685 6.74102 422.553 6.44155C422.421 6.14207 422.359 5.81683 422.37 5.48992C422.36 5.16165 422.422 4.83514 422.554 4.53415C422.685 4.23316 422.882 3.96525 423.13 3.74993C423.68 3.31516 424.36 3.07861 425.06 3.07861C425.761 3.07861 426.441 3.31516 426.99 3.74993C427.237 3.9666 427.432 4.23475 427.564 4.53542C427.695 4.83609 427.759 5.16193 427.75 5.48992C427.761 5.81575 427.699 6.13983 427.569 6.43893C427.439 6.73802 427.245 7.00473 427 7.21992C426.471 7.67808 425.79 7.92079 425.09 7.89993H425.06Z" fill="#008B7D"/>
<path d="M434.38 23.9999C433.775 24.0077 433.176 23.8885 432.62 23.6499C432.119 23.4275 431.667 23.108 431.29 22.7099C430.925 22.3129 430.643 21.8472 430.46 21.3399C430.276 20.8093 430.181 20.2517 430.18 19.6899C430.159 19.0116 430.314 18.3394 430.629 17.7384C430.945 17.1375 431.41 16.6282 431.98 16.2599C433.759 15.2465 435.755 14.6739 437.8 14.5899C437.69 13.5899 437.03 13.1299 435.8 13.1299C435.254 13.1379 434.712 13.2394 434.2 13.4299C433.534 13.6717 432.889 13.966 432.27 14.3099L430.59 11.1699C431.534 10.5992 432.541 10.1395 433.59 9.79993C434.613 9.48113 435.679 9.32259 436.75 9.32993C437.53 9.28417 438.311 9.39803 439.045 9.66455C439.779 9.93107 440.451 10.3446 441.02 10.8799C442.02 11.8799 442.58 13.5799 442.58 15.8799V23.6599H438.7L438.36 22.3199H438.25C437.715 22.8057 437.116 23.2162 436.47 23.5399C435.817 23.8492 435.103 24.0065 434.38 23.9999V23.9999ZM436.06 20.2999C436.412 20.3205 436.762 20.2295 437.06 20.0399C437.339 19.8358 437.597 19.6047 437.83 19.3499V17.4499C436.988 17.5073 436.173 17.7644 435.45 18.1999C435.266 18.3193 435.112 18.48 435.001 18.6692C434.89 18.8584 434.825 19.071 434.81 19.2899C434.78 19.9399 435.21 20.2699 436.06 20.2699V20.2999Z" fill="#008B7D"/>
</g>
<defs>
<clipPath id="clip0">
<rect width="1139.34" height="452.9" fill="white"/>
</clipPath>
</defs>
</svg>
